<svg width="212" height="326" viewBox="0 0 212 326" fill="none" xmlns="http://www.w3.org/2000/svg">
<path d="M200.122 13.788H13.6265V27.943H200.122V13.788Z" fill="#DDD5CE"/>
<path d="M200.122 13.788H13.6265V27.943H200.122V13.788Z" stroke="#404F52" stroke-width="0.447661" stroke-miterlimit="10"/>
<path d="M59.7357 22.007H24.9256V20.2522H59.7357V22.007ZM60.3087 19.8672H24.3525V22.3741H60.3087V19.8672Z" fill="#30334D"/>
<path d="M58.2945 20.0553H57.7305V22.1862H58.2945V20.0553Z" fill="#30334D"/>
<path d="M27.128 20.0553H26.564V22.1862H27.128V20.0553Z" fill="#30334D"/>
<path d="M57.8645 20.9326H26.8506V21.3087H57.8645V20.9326Z" fill="#30334D"/>
<path d="M42.9754 22.0159H41.4086V20.2521H42.9754V22.0159ZM40.9878 22.383H43.4231V19.8761H40.9878V22.383Z" fill="#30334D"/>
<path d="M42.9755 20.2522H41.4087V22.016H42.9755V20.2522Z" fill="#DDD5CE"/>
<path d="M105.245 22.007H70.4348V20.2522H105.245V22.007ZM105.818 19.8672H69.8618V22.3741H105.818V19.8672Z" fill="#30334D"/>
<path d="M103.804 20.0553H103.24V22.1862H103.804V20.0553Z" fill="#30334D"/>
<path d="M72.6461 20.0553H72.082V22.1862H72.6461V20.0553Z" fill="#30334D"/>
<path d="M103.374 20.9326H72.3599V21.3087H103.374V20.9326Z" fill="#30334D"/>
<path d="M88.4847 22.0159H86.9179V20.2521H88.4847V22.0159ZM86.4971 22.383H88.9323V19.8761H86.4971V22.383Z" fill="#30334D"/>
<path d="M88.4843 20.2522H86.9175V22.016H88.4843V20.2522Z" fill="#DDD5CE"/>
<path d="M50.0214 0.179077H34.9263V2.01449H50.0214V0.179077Z" fill="#D0D0D0"/>
<path d="M58.4106 0.179077H50.4243V2.01449H58.4106V0.179077Z" fill="#D0D0D0"/>
<path d="M34.9262 0.179077H34.5322V2.01449H34.9262V0.179077Z" fill="#D0D0D0"/>
<path d="M50.4242 0.179077H50.0303V2.01449H50.4242V0.179077Z" fill="#D0D0D0"/>
<path d="M58.8046 0.179077H58.4106V2.01449H58.8046V0.179077Z" fill="#D0D0D0"/>
<path d="M34.532 0.179077H26.6084V2.01449H34.532V0.179077Z" fill="#D0D0D0"/>
<path d="M26.6088 0.179077H26.2148V2.01449H26.6088V0.179077Z" fill="#D0D0D0"/>
<path d="M60.5507 2.03235H58.7959V2.44419H60.5507V2.03235Z" fill="#D0D0D0"/>
<path d="M60.5597 2.44421H58.7959V14.0834H60.5597V2.44421Z" fill="#D0D0D0"/>
<path d="M60.5507 2.03235H58.7959V2.44419H60.5507V2.03235Z" fill="#D0D0D0"/>
<path d="M60.5507 0.179077H58.7959V2.01449H60.5507V0.179077Z" fill="#9D9D9C"/>
<path d="M58.7956 2.44424V2.0324H60.5504V2.44424H58.7956ZM58.7956 2.44424H60.5594V14.0834H58.7956V2.44424ZM26.6088 0.179077H26.2148V2.01449H26.6088M26.6088 0.179077V2.01449M26.6088 0.179077H34.5324M26.6088 2.01449H34.5324M34.5324 0.179077V2.01449M34.5324 0.179077H34.9263M34.5324 2.01449H34.9263M58.4106 0.179077H58.8046V2.01449H58.4106M58.4106 0.179077V2.01449M58.4106 0.179077H50.4243M58.4106 2.01449H50.4243M50.4243 0.179077H50.0304M50.4243 0.179077V2.01449M50.0304 0.179077V2.01449H50.4243M50.0304 0.179077H34.9263M50.0304 0.179077H50.0215V2.01449H34.9263M34.9263 0.179077V2.01449M60.5504 0.179077H58.7956V2.01449H60.5504V0.179077Z" stroke="#1C1C1C" stroke-width="0.358129" stroke-miterlimit="10"/>
<path d="M95.1455 0.179077H79.9697V2.05926H95.1455V0.179077Z" fill="#D0D0D0"/>
<path d="M103.57 0.179077H95.5483V2.05926H103.57V0.179077Z" fill="#D0D0D0"/>
<path d="M79.9701 0.179077H79.5762V2.05926H79.9701V0.179077Z" fill="#D0D0D0"/>
<path d="M95.5399 0.179077H95.146V2.05926H95.5399V0.179077Z" fill="#D0D0D0"/>
<path d="M103.965 0.179077H103.571V2.05926H103.965V0.179077Z" fill="#D0D0D0"/>
<path d="M79.5673 0.179077H71.6079V2.05926H79.5673V0.179077Z" fill="#D0D0D0"/>
<path d="M71.6163 0.179077H71.2134V2.05926H71.6163V0.179077Z" fill="#D0D0D0"/>
<path d="M71.2052 2.4801H69.4414V14.3431H71.2052V2.4801Z" fill="#D0D0D0"/>
<path d="M71.2052 0.179077H69.4414V2.05926H71.2052V0.179077Z" fill="#9D9D9C"/>
<path d="M71.6167 0.179077H71.2138V2.05926H71.6167M71.6167 0.179077V2.05926M71.6167 0.179077H79.5761V2.05926H71.6167M103.571 0.179077H103.974V2.05926H103.571M103.571 0.179077V2.05926M103.571 0.179077H95.5487M103.571 2.05926H95.5487M95.5487 0.179077H95.1548V2.05926H95.5487M95.5487 0.179077V2.05926M79.9701 0.179077H79.5672V2.05926H79.9701M79.9701 0.179077V2.05926M79.9701 0.179077H95.1458V2.05926H79.9701M71.2049 0.179077H69.4321V2.05926H71.2049V0.179077ZM71.2049 2.48006H69.4321V14.3431H71.2049V2.48006Z" stroke="#1C1C1C" stroke-width="0.358129" stroke-miterlimit="10"/>
<path d="M195.628 22.1054H129.41V20.0999H195.628V22.1054ZM196.469 19.6702H128.559V22.5352H196.469V19.6702Z" fill="#30334D"/>
<path d="M193.873 19.8851H193.264V22.3204H193.873V19.8851Z" fill="#30334D"/>
<path d="M131.961 19.8851H131.353V22.3204H131.961V19.8851Z" fill="#30334D"/>
<path d="M193.264 20.8878H131.648V21.3176H193.264V20.8878Z" fill="#30334D"/>
<path d="M174.83 22.1414H172.645V20.1448H174.83V22.1414ZM172.054 22.5532H175.439V19.724H172.054V22.5532Z" fill="#30334D"/>
<path d="M174.829 20.1448H172.645V22.1324H174.829V20.1448Z" fill="white"/>
<path d="M152.733 22.1414H150.548V20.1448H152.733V22.1414ZM149.957 22.5532H153.341V19.724H149.957V22.5532Z" fill="#30334D"/>
<path d="M152.733 20.1448H150.548V22.1324H152.733V20.1448Z" fill="white"/>
<path d="M147.549 112.417V118.165H146.958V112.936H145.606V112.417H147.549Z" fill="black"/>
<mask id="mask0_36_2091" style="mask-type:luminance" maskUnits="userSpaceOnUse" x="0" y="0" width="212" height="326">
<path d="M211.672 0H0V325.02H211.672V0Z" fill="white"/>
</mask>
<g mask="url(#mask0_36_2091)">
<path d="M152.832 117.636V118.165H148.794V117.744L151.184 115.398C151.489 115.103 151.695 114.843 151.793 114.628C151.901 114.413 151.954 114.189 151.954 113.975C151.954 113.634 151.838 113.375 151.605 113.178C151.372 112.99 151.041 112.891 150.602 112.891C149.931 112.891 149.412 113.106 149.036 113.536L148.615 113.178C148.839 112.918 149.125 112.712 149.474 112.569C149.823 112.426 150.217 112.354 150.656 112.354C151.238 112.354 151.704 112.488 152.053 112.766C152.393 113.043 152.563 113.419 152.563 113.903C152.563 114.198 152.5 114.485 152.366 114.753C152.232 115.031 151.99 115.344 151.614 115.703L149.662 117.627H152.832V117.636Z" fill="black"/>
</g>
<mask id="mask1_36_2091" style="mask-type:luminance" maskUnits="userSpaceOnUse" x="0" y="0" width="212" height="326">
<path d="M211.672 0H0V325.02H211.672V0Z" fill="white"/>
</mask>
<g mask="url(#mask1_36_2091)">
<path d="M154.488 117.439C154.568 117.529 154.613 117.627 154.613 117.753C154.613 117.815 154.604 117.887 154.586 117.968C154.568 118.048 154.542 118.129 154.497 118.227L154.148 119.364H153.754L154.031 118.174C153.942 118.147 153.87 118.093 153.816 118.021C153.763 117.95 153.736 117.86 153.736 117.753C153.736 117.627 153.781 117.52 153.861 117.439C153.942 117.359 154.049 117.314 154.175 117.314C154.3 117.314 154.407 117.35 154.488 117.439Z" fill="black"/>
</g>
<mask id="mask2_36_2091" style="mask-type:luminance" maskUnits="userSpaceOnUse" x="0" y="0" width="212" height="326">
<path d="M211.672 0H0V325.02H211.672V0Z" fill="white"/>
</mask>
<g mask="url(#mask2_36_2091)">
<path d="M159.376 117.377C159.636 117.153 159.77 116.849 159.77 116.464C159.77 116.088 159.636 115.783 159.376 115.559C159.117 115.336 158.767 115.219 158.32 115.219C158.033 115.219 157.774 115.273 157.55 115.38C157.326 115.488 157.156 115.64 157.03 115.837C156.905 116.025 156.842 116.24 156.842 116.482C156.842 116.696 156.905 116.902 157.021 117.09C157.138 117.278 157.317 117.431 157.541 117.538C157.774 117.654 158.042 117.708 158.364 117.708C158.776 117.717 159.117 117.601 159.376 117.377ZM159.412 114.933C159.707 115.076 159.931 115.282 160.101 115.541C160.263 115.801 160.343 116.105 160.343 116.446C160.343 116.795 160.254 117.108 160.092 117.377C159.922 117.645 159.69 117.851 159.394 117.995C159.099 118.138 158.758 118.209 158.391 118.209C157.63 118.209 157.048 117.959 156.645 117.457C156.243 116.956 156.037 116.249 156.037 115.336C156.037 114.691 156.144 114.154 156.368 113.706C156.583 113.258 156.896 112.927 157.29 112.703C157.684 112.479 158.15 112.363 158.669 112.363C159.242 112.363 159.698 112.47 160.03 112.676L159.788 113.151C159.51 112.972 159.143 112.882 158.669 112.882C158.033 112.882 157.532 113.088 157.174 113.482C156.816 113.885 156.628 114.467 156.628 115.237C156.628 115.371 156.636 115.532 156.654 115.703C156.798 115.389 157.021 115.148 157.335 114.977C157.648 114.807 158.006 114.718 158.409 114.718C158.785 114.727 159.125 114.789 159.412 114.933Z" fill="black"/>
</g>
<mask id="mask3_36_2091" style="mask-type:luminance" maskUnits="userSpaceOnUse" x="0" y="0" width="212" height="326">
<path d="M211.672 0H0V325.02H211.672V0Z" fill="white"/>
</mask>
<g mask="url(#mask3_36_2091)">
<path d="M164.336 115.371C164.65 115.667 164.811 116.043 164.811 116.517C164.811 116.849 164.73 117.135 164.569 117.395C164.408 117.645 164.175 117.851 163.862 117.995C163.548 118.147 163.172 118.218 162.716 118.218C162.304 118.218 161.91 118.147 161.534 118.013C161.167 117.878 160.863 117.699 160.639 117.475L160.925 117.01C161.113 117.207 161.373 117.368 161.686 117.493C162 117.619 162.34 117.681 162.707 117.681C163.181 117.681 163.54 117.583 163.799 117.377C164.059 117.171 164.184 116.884 164.184 116.526C164.184 116.168 164.059 115.891 163.799 115.685C163.54 115.479 163.155 115.38 162.635 115.38H162.223V114.942L163.817 112.945H160.871V112.417H164.569V112.838L162.94 114.888C163.566 114.915 164.023 115.076 164.336 115.371Z" fill="black"/>
</g>
<path d="M168.41 254.057H167.264V255.57H166.664V254.057H163.423V253.627L166.467 249.813H167.129L164.184 253.529H166.682V252.195H167.264V253.529H168.41V254.057Z" fill="black"/>
<mask id="mask4_36_2091" style="mask-type:luminance" maskUnits="userSpaceOnUse" x="0" y="0" width="212" height="326">
<path d="M211.672 0H0V325.02H211.672V0Z" fill="white"/>
</mask>
<g mask="url(#mask4_36_2091)">
<path d="M168.831 254.836C168.911 254.925 168.956 255.024 168.956 255.149C168.956 255.212 168.947 255.283 168.929 255.364C168.911 255.445 168.884 255.525 168.84 255.624L168.49 256.761H168.097L168.374 255.57C168.285 255.543 168.213 255.489 168.159 255.418C168.105 255.346 168.079 255.256 168.079 255.149C168.079 255.024 168.123 254.916 168.204 254.836C168.285 254.746 168.392 254.71 168.517 254.71C168.643 254.71 168.75 254.755 168.831 254.836Z" fill="black"/>
</g>
<mask id="mask5_36_2091" style="mask-type:luminance" maskUnits="userSpaceOnUse" x="0" y="0" width="212" height="326">
<path d="M211.672 0H0V325.02H211.672V0Z" fill="white"/>
</mask>
<g mask="url(#mask5_36_2091)">
<path d="M174.292 255.042V255.57H170.254V255.149L172.645 252.803C172.949 252.508 173.155 252.248 173.254 252.033C173.361 251.818 173.415 251.595 173.415 251.38C173.415 251.039 173.298 250.78 173.066 250.583C172.833 250.395 172.502 250.296 172.063 250.296C171.391 250.296 170.863 250.511 170.496 250.941L170.075 250.583C170.299 250.323 170.586 250.117 170.935 249.974C171.284 249.831 171.678 249.759 172.117 249.759C172.698 249.759 173.164 249.893 173.513 250.171C173.853 250.449 174.024 250.825 174.024 251.308C174.024 251.604 173.961 251.89 173.827 252.159C173.692 252.436 173.442 252.75 173.075 253.108L171.123 255.033H174.292V255.042Z" fill="black"/>
</g>
<path d="M176.602 249.813V255.57H176.011V250.341H174.659V249.813H176.602Z" fill="black"/>
<mask id="mask6_36_2091" style="mask-type:luminance" maskUnits="userSpaceOnUse" x="0" y="0" width="212" height="326">
<path d="M211.672 0H0V325.02H211.672V0Z" fill="white"/>
</mask>
<g mask="url(#mask6_36_2091)">
<path d="M162 197.687V198.215H157.962V197.795L160.352 195.449C160.657 195.153 160.854 194.894 160.961 194.679C161.069 194.464 161.122 194.24 161.122 194.025C161.122 193.685 161.006 193.425 160.773 193.228C160.54 193.04 160.209 192.942 159.77 192.942C159.099 192.942 158.571 193.157 158.204 193.587L157.783 193.228C158.007 192.969 158.293 192.763 158.642 192.62C158.991 192.476 159.385 192.405 159.824 192.405C160.406 192.405 160.872 192.539 161.221 192.817C161.561 193.094 161.731 193.47 161.731 193.954C161.731 194.249 161.668 194.536 161.534 194.804C161.4 195.082 161.158 195.395 160.791 195.753L158.839 197.678H162V197.687Z" fill="black"/>
</g>
<mask id="mask7_36_2091" style="mask-type:luminance" maskUnits="userSpaceOnUse" x="0" y="0" width="212" height="326">
<path d="M211.672 0H0V325.02H211.672V0Z" fill="white"/>
</mask>
<g mask="url(#mask7_36_2091)">
<path d="M163.379 197.481C163.459 197.571 163.504 197.669 163.504 197.795C163.504 197.857 163.495 197.929 163.477 198.01C163.459 198.09 163.432 198.171 163.387 198.269L163.038 199.406H162.644L162.922 198.215C162.832 198.189 162.761 198.135 162.707 198.063C162.653 197.992 162.626 197.902 162.626 197.795C162.626 197.669 162.671 197.562 162.752 197.481C162.832 197.392 162.94 197.356 163.065 197.356C163.191 197.356 163.298 197.401 163.379 197.481Z" fill="black"/>
</g>
<mask id="mask8_36_2091" style="mask-type:luminance" maskUnits="userSpaceOnUse" x="0" y="0" width="212" height="326">
<path d="M211.672 0H0V325.02H211.672V0Z" fill="white"/>
</mask>
<g mask="url(#mask8_36_2091)">
<path d="M168.088 197.437C168.348 197.249 168.545 196.98 168.688 196.622C168.831 196.264 168.903 195.834 168.903 195.333C168.903 194.831 168.831 194.401 168.688 194.043C168.545 193.685 168.348 193.417 168.088 193.229C167.828 193.041 167.542 192.951 167.202 192.951C166.87 192.951 166.575 193.041 166.315 193.229C166.056 193.417 165.859 193.685 165.715 194.043C165.572 194.401 165.5 194.831 165.5 195.333C165.5 195.834 165.572 196.264 165.715 196.622C165.859 196.98 166.056 197.249 166.315 197.437C166.566 197.625 166.861 197.714 167.202 197.714C167.542 197.714 167.837 197.625 168.088 197.437ZM166.02 197.911C165.671 197.678 165.402 197.338 165.205 196.899C165.008 196.461 164.918 195.941 164.918 195.342C164.918 194.742 165.017 194.222 165.205 193.784C165.402 193.345 165.671 193.005 166.02 192.772C166.369 192.539 166.763 192.414 167.21 192.414C167.658 192.414 168.052 192.53 168.401 192.772C168.75 193.005 169.019 193.345 169.216 193.784C169.413 194.222 169.511 194.742 169.511 195.342C169.511 195.941 169.413 196.461 169.216 196.899C169.019 197.338 168.75 197.678 168.401 197.911C168.052 198.144 167.658 198.26 167.21 198.26C166.763 198.26 166.369 198.144 166.02 197.911Z" fill="black"/>
</g>
<mask id="mask9_36_2091" style="mask-type:luminance" maskUnits="userSpaceOnUse" x="0" y="0" width="212" height="326">
<path d="M211.672 0H0V325.02H211.672V0Z" fill="white"/>
</mask>
<g mask="url(#mask9_36_2091)">
<path d="M171.472 194.706C171.723 194.894 172.072 194.983 172.52 194.983C172.959 194.983 173.317 194.894 173.567 194.706C173.818 194.518 173.952 194.267 173.952 193.954C173.952 193.631 173.818 193.372 173.558 193.193C173.299 193.005 172.95 192.915 172.52 192.915C172.081 192.915 171.732 193.005 171.481 193.193C171.222 193.381 171.096 193.631 171.096 193.954C171.096 194.267 171.222 194.518 171.472 194.706ZM173.711 197.445C173.997 197.24 174.14 196.953 174.14 196.595C174.14 196.237 173.997 195.959 173.711 195.753C173.424 195.547 173.021 195.449 172.52 195.449C172.018 195.449 171.616 195.547 171.329 195.753C171.043 195.959 170.899 196.237 170.899 196.595C170.899 196.953 171.043 197.24 171.329 197.445C171.616 197.651 172.01 197.75 172.52 197.75C173.03 197.75 173.424 197.651 173.711 197.445ZM174.463 195.735C174.66 195.977 174.749 196.264 174.749 196.604C174.749 196.935 174.66 197.231 174.481 197.481C174.302 197.732 174.042 197.92 173.702 198.054C173.361 198.189 172.968 198.251 172.511 198.251C171.822 198.251 171.275 198.099 170.881 197.813C170.488 197.517 170.291 197.114 170.291 196.604C170.291 196.255 170.389 195.968 170.577 195.726C170.765 195.485 171.043 195.306 171.401 195.189C171.105 195.073 170.881 194.912 170.729 194.688C170.577 194.473 170.496 194.213 170.496 193.918C170.496 193.452 170.676 193.085 171.043 192.808C171.41 192.53 171.893 192.396 172.511 192.396C172.914 192.396 173.272 192.459 173.576 192.584C173.881 192.709 174.114 192.879 174.284 193.112C174.454 193.345 174.534 193.613 174.534 193.918C174.534 194.213 174.454 194.473 174.293 194.688C174.131 194.903 173.908 195.073 173.612 195.189C173.988 195.315 174.266 195.494 174.463 195.735Z" fill="black"/>
</g>
<mask id="mask10_36_2091" style="mask-type:luminance" maskUnits="userSpaceOnUse" x="0" y="0" width="212" height="326">
<path d="M211.672 0H0V325.02H211.672V0Z" fill="white"/>
</mask>
<g mask="url(#mask10_36_2091)">
<path d="M42.9753 245.363V245.891H38.9374V245.471L41.3279 243.125C41.6323 242.829 41.8382 242.57 41.9367 242.355C42.0352 242.14 42.0979 241.925 42.0979 241.701C42.0979 241.361 41.9815 241.101 41.7487 240.905C41.5159 240.717 41.1846 240.618 40.7459 240.618C40.0744 240.618 39.5551 240.833 39.1791 241.263L38.7583 240.905C38.9821 240.645 39.2687 240.439 39.6178 240.296C39.967 240.152 40.3609 240.081 40.7996 240.081C41.3816 240.081 41.8472 240.215 42.1963 240.493C42.5366 240.77 42.7067 241.146 42.7067 241.63C42.7067 241.925 42.644 242.212 42.5097 242.48C42.3754 242.758 42.1337 243.071 41.7576 243.429L39.8058 245.354H42.9753V245.363Z" fill="black"/>
</g>
<mask id="mask11_36_2091" style="mask-type:luminance" maskUnits="userSpaceOnUse" x="0" y="0" width="212" height="326">
<path d="M211.672 0H0V325.02H211.672V0Z" fill="white"/>
</mask>
<g mask="url(#mask11_36_2091)">
<path d="M44.3541 245.166C44.4347 245.256 44.4795 245.354 44.4795 245.479C44.4795 245.542 44.4705 245.614 44.4526 245.694C44.4347 245.775 44.4078 245.856 44.3631 245.954L44.0139 247.091H43.6199L43.8975 245.9C43.808 245.873 43.7363 245.82 43.6826 245.748C43.6289 245.676 43.6021 245.587 43.6021 245.479C43.6021 245.354 43.6468 245.247 43.7274 245.166C43.808 245.086 43.9154 245.041 44.0408 245.041C44.1661 245.041 44.2735 245.077 44.3541 245.166Z" fill="black"/>
</g>
<mask id="mask12_36_2091" style="mask-type:luminance" maskUnits="userSpaceOnUse" x="0" y="0" width="212" height="326">
<path d="M211.672 0H0V325.02H211.672V0Z" fill="white"/>
</mask>
<g mask="url(#mask12_36_2091)">
<path d="M49.2248 242.946C49.6009 243.241 49.7979 243.662 49.7979 244.199C49.7979 244.531 49.7173 244.835 49.5651 245.095C49.4129 245.354 49.1711 245.569 48.8667 245.712C48.5534 245.865 48.1684 245.936 47.7117 245.936C47.2999 245.936 46.906 245.873 46.5389 245.739C46.1718 245.605 45.8763 245.426 45.6436 245.202L45.9301 244.736C46.1181 244.933 46.3688 245.095 46.6821 245.22C46.9955 245.345 47.3357 245.408 47.6939 245.408C48.1684 245.408 48.5355 245.3 48.7951 245.086C49.0548 244.871 49.189 244.584 49.189 244.226C49.189 243.832 49.0458 243.537 48.7503 243.331C48.4549 243.125 47.9624 243.026 47.2641 243.026H46.0375L46.333 240.143H49.4755V240.672H46.8433L46.6463 242.507H47.3894C48.231 242.498 48.8399 242.65 49.2248 242.946Z" fill="black"/>
</g>
<mask id="mask13_36_2091" style="mask-type:luminance" maskUnits="userSpaceOnUse" x="0" y="0" width="212" height="326">
<path d="M211.672 0H0V325.02H211.672V0Z" fill="white"/>
</mask>
<g mask="url(#mask13_36_2091)">
<path d="M53.8446 242.946C54.2296 243.241 54.4177 243.662 54.4177 244.199C54.4177 244.531 54.3371 244.835 54.1849 245.095C54.0327 245.354 53.7909 245.569 53.4776 245.712C53.1642 245.865 52.7792 245.936 52.3226 245.936C51.9107 245.936 51.5258 245.873 51.1497 245.739C50.7826 245.605 50.4782 245.426 50.2544 245.202L50.5409 244.736C50.7289 244.933 50.9886 245.095 51.293 245.22C51.6063 245.345 51.9466 245.408 52.3047 245.408C52.7792 245.408 53.1463 245.3 53.4149 245.086C53.6745 244.871 53.8088 244.584 53.8088 244.226C53.8088 243.832 53.6656 243.537 53.3701 243.331C53.0747 243.125 52.5822 243.026 51.8839 243.026H50.6573L50.9527 240.143H54.1043V240.672H51.472L51.2751 242.507H52.0271C52.8598 242.498 53.4686 242.65 53.8446 242.946Z" fill="black"/>
</g>
<mask id="mask14_36_2091" style="mask-type:luminance" maskUnits="userSpaceOnUse" x="0" y="0" width="212" height="326">
<path d="M211.672 0H0V325.02H211.672V0Z" fill="white"/>
</mask>
<g mask="url(#mask14_36_2091)">
<path d="M111.709 240.994C111.96 241.182 112.309 241.272 112.757 241.272C113.196 241.272 113.545 241.182 113.805 240.994C114.055 240.806 114.19 240.555 114.19 240.242C114.19 239.92 114.064 239.66 113.796 239.481C113.536 239.293 113.187 239.203 112.757 239.203C112.318 239.203 111.969 239.293 111.718 239.481C111.468 239.669 111.333 239.92 111.333 240.242C111.333 240.555 111.459 240.806 111.709 240.994ZM113.948 243.734C114.234 243.528 114.378 243.241 114.378 242.883C114.378 242.525 114.234 242.247 113.948 242.042C113.661 241.836 113.258 241.737 112.757 241.737C112.256 241.737 111.853 241.845 111.566 242.042C111.28 242.247 111.136 242.525 111.136 242.883C111.136 243.241 111.28 243.528 111.566 243.734C111.853 243.94 112.247 244.038 112.757 244.038C113.267 244.047 113.661 243.94 113.948 243.734ZM114.7 242.024C114.897 242.265 114.995 242.552 114.995 242.892C114.995 243.223 114.906 243.519 114.727 243.77C114.548 244.02 114.288 244.208 113.948 244.343C113.608 244.477 113.214 244.539 112.757 244.539C112.068 244.539 111.521 244.387 111.128 244.101C110.734 243.805 110.537 243.402 110.537 242.892C110.537 242.543 110.626 242.256 110.823 242.015C111.011 241.773 111.289 241.594 111.647 241.477C111.351 241.361 111.128 241.2 110.975 240.976C110.823 240.761 110.743 240.502 110.743 240.206C110.743 239.741 110.922 239.373 111.289 239.096C111.656 238.827 112.139 238.684 112.757 238.684C113.16 238.684 113.518 238.747 113.822 238.872C114.127 238.997 114.369 239.177 114.539 239.4C114.709 239.633 114.789 239.902 114.789 240.206C114.789 240.502 114.709 240.761 114.548 240.976C114.386 241.191 114.163 241.361 113.867 241.477C114.225 241.603 114.503 241.782 114.7 242.024Z" fill="black"/>
</g>
<mask id="mask15_36_2091" style="mask-type:luminance" maskUnits="userSpaceOnUse" x="0" y="0" width="212" height="326">
<path d="M211.672 0H0V325.02H211.672V0Z" fill="white"/>
</mask>
<g mask="url(#mask15_36_2091)">
<path d="M115.881 243.769C115.962 243.859 116.007 243.958 116.007 244.083C116.007 244.146 115.998 244.217 115.98 244.298C115.962 244.378 115.935 244.459 115.89 244.557L115.541 245.694H115.147L115.425 244.504C115.335 244.477 115.264 244.423 115.21 244.351C115.156 244.28 115.129 244.19 115.129 244.083C115.129 243.958 115.174 243.85 115.255 243.769C115.335 243.68 115.443 243.644 115.568 243.644C115.693 243.644 115.801 243.689 115.881 243.769Z" fill="black"/>
</g>
<mask id="mask16_36_2091" style="mask-type:luminance" maskUnits="userSpaceOnUse" x="0" y="0" width="212" height="326">
<path d="M211.672 0H0V325.02H211.672V0Z" fill="white"/>
</mask>
<g mask="url(#mask16_36_2091)">
<path d="M120.045 241.522C120.269 241.415 120.439 241.263 120.564 241.066C120.689 240.878 120.752 240.663 120.752 240.43C120.752 240.215 120.689 240.009 120.573 239.821C120.457 239.633 120.278 239.481 120.054 239.365C119.821 239.248 119.552 239.194 119.23 239.194C118.818 239.194 118.478 239.311 118.209 239.535C117.95 239.758 117.824 240.063 117.824 240.439C117.824 240.815 117.95 241.119 118.209 241.343C118.469 241.567 118.818 241.683 119.266 241.683C119.561 241.692 119.821 241.63 120.045 241.522ZM120.958 239.445C121.361 239.946 121.567 240.654 121.567 241.567C121.567 242.212 121.459 242.749 121.236 243.197C121.021 243.644 120.707 243.975 120.313 244.199C119.92 244.423 119.454 244.539 118.935 244.539C118.362 244.539 117.914 244.432 117.574 244.226L117.816 243.752C118.084 243.931 118.46 244.02 118.935 244.02C119.57 244.02 120.072 243.823 120.43 243.411C120.788 243.008 120.976 242.427 120.976 241.657C120.976 241.513 120.967 241.361 120.949 241.191C120.806 241.504 120.582 241.746 120.269 241.916C119.955 242.086 119.597 242.176 119.194 242.176C118.818 242.176 118.478 242.104 118.192 241.961C117.896 241.818 117.672 241.612 117.502 241.352C117.341 241.093 117.251 240.788 117.251 240.448C117.251 240.099 117.341 239.785 117.511 239.517C117.681 239.248 117.914 239.042 118.218 238.899C118.514 238.756 118.854 238.684 119.221 238.684C119.973 238.702 120.555 238.944 120.958 239.445Z" fill="black"/>
</g>
<mask id="mask17_36_2091" style="mask-type:luminance" maskUnits="userSpaceOnUse" x="0" y="0" width="212" height="326">
<path d="M211.672 0H0V325.02H211.672V0Z" fill="white"/>
</mask>
<g mask="url(#mask17_36_2091)">
<path d="M123.537 240.994C123.788 241.182 124.137 241.272 124.584 241.272C125.032 241.272 125.381 241.182 125.632 240.994C125.892 240.806 126.017 240.555 126.017 240.242C126.017 239.92 125.883 239.66 125.623 239.481C125.363 239.293 125.014 239.203 124.584 239.203C124.146 239.203 123.796 239.293 123.546 239.481C123.286 239.669 123.161 239.92 123.161 240.242C123.161 240.555 123.286 240.806 123.537 240.994ZM125.775 243.734C126.062 243.528 126.205 243.241 126.205 242.883C126.205 242.525 126.062 242.247 125.775 242.042C125.489 241.836 125.086 241.737 124.575 241.737C124.074 241.737 123.68 241.845 123.385 242.042C123.098 242.247 122.955 242.525 122.955 242.883C122.955 243.241 123.098 243.528 123.385 243.734C123.671 243.94 124.065 244.038 124.575 244.038C125.095 244.047 125.489 243.94 125.775 243.734ZM126.527 242.024C126.724 242.265 126.814 242.552 126.814 242.892C126.814 243.223 126.724 243.519 126.545 243.77C126.366 244.02 126.106 244.208 125.766 244.343C125.426 244.477 125.032 244.539 124.575 244.539C123.886 244.539 123.34 244.387 122.946 244.101C122.552 243.805 122.355 243.402 122.355 242.892C122.355 242.543 122.445 242.256 122.641 242.015C122.83 241.773 123.107 241.594 123.465 241.477C123.17 241.361 122.946 241.2 122.794 240.976C122.642 240.761 122.561 240.502 122.561 240.206C122.561 239.741 122.74 239.373 123.107 239.096C123.474 238.827 123.958 238.684 124.575 238.684C124.978 238.684 125.336 238.747 125.641 238.872C125.945 238.997 126.178 239.177 126.348 239.4C126.518 239.633 126.608 239.902 126.608 240.206C126.608 240.502 126.527 240.761 126.366 240.976C126.205 241.191 125.981 241.361 125.686 241.477C126.053 241.603 126.33 241.782 126.527 242.024Z" fill="black"/>
</g>
<mask id="mask18_36_2091" style="mask-type:luminance" maskUnits="userSpaceOnUse" x="0" y="0" width="212" height="326">
<path d="M211.672 0H0V325.02H211.672V0Z" fill="white"/>
</mask>
<g mask="url(#mask18_36_2091)">
<path d="M69.3156 127.037V127.566H65.2777V127.145L67.6682 124.799C67.9726 124.504 68.1785 124.244 68.277 124.029C68.3845 123.814 68.4382 123.599 68.4382 123.375C68.4382 123.035 68.3218 122.776 68.089 122.579C67.8562 122.391 67.525 122.292 67.0863 122.292C66.4148 122.292 65.8865 122.507 65.5194 122.937L65.0986 122.579C65.3225 122.319 65.609 122.113 65.9581 121.97C66.3073 121.827 66.7013 121.755 67.14 121.755C67.7219 121.755 68.1875 121.889 68.5367 122.167C68.8769 122.444 69.047 122.82 69.047 123.304C69.047 123.599 68.9843 123.886 68.85 124.154C68.7157 124.432 68.4651 124.745 68.098 125.103L66.1461 127.028H69.3156V127.037Z" fill="black"/>
</g>
<mask id="mask19_36_2091" style="mask-type:luminance" maskUnits="userSpaceOnUse" x="0" y="0" width="212" height="326">
<path d="M211.672 0H0V325.02H211.672V0Z" fill="white"/>
</mask>
<g mask="url(#mask19_36_2091)">
<path d="M73.3629 124.763C73.6762 125.059 73.8374 125.435 73.8374 125.909C73.8374 126.241 73.7568 126.527 73.6046 126.787C73.4435 127.037 73.2107 127.243 72.8973 127.387C72.5839 127.539 72.2079 127.61 71.7513 127.61C71.3395 127.61 70.9455 127.539 70.5695 127.404C70.2024 127.27 69.9069 127.091 69.6831 126.867L69.9696 126.402C70.1576 126.599 70.4173 126.76 70.7306 126.885C71.044 127.011 71.3842 127.073 71.7513 127.073C72.2258 127.073 72.5839 126.975 72.8436 126.769C73.1032 126.563 73.2286 126.276 73.2286 125.918C73.2286 125.56 73.1032 125.283 72.8436 125.077C72.5839 124.871 72.199 124.772 71.6707 124.772H71.2589V124.334L72.8526 122.337H69.9069V121.809H73.6046V122.23L71.9751 124.28C72.5839 124.307 73.0495 124.468 73.3629 124.763Z" fill="black"/>
</g>
<mask id="mask20_36_2091" style="mask-type:luminance" maskUnits="userSpaceOnUse" x="0" y="0" width="212" height="326">
<path d="M211.672 0H0V325.02H211.672V0Z" fill="white"/>
</mask>
<g mask="url(#mask20_36_2091)">
<path d="M75.2428 126.831C75.3234 126.921 75.3681 127.019 75.3681 127.145C75.3681 127.207 75.3592 127.279 75.3413 127.36C75.3234 127.44 75.2965 127.521 75.2518 127.619L74.9026 128.756H74.5086L74.7862 127.566C74.6967 127.539 74.625 127.485 74.5713 127.413C74.5176 127.342 74.4907 127.252 74.4907 127.145C74.4907 127.019 74.5355 126.912 74.6161 126.831C74.6967 126.751 74.8041 126.706 74.9294 126.706C75.0548 126.706 75.1622 126.751 75.2428 126.831Z" fill="black"/>
</g>
<mask id="mask21_36_2091" style="mask-type:luminance" maskUnits="userSpaceOnUse" x="0" y="0" width="212" height="326">
<path d="M211.672 0H0V325.02H211.672V0Z" fill="white"/>
</mask>
<g mask="url(#mask21_36_2091)">
<path d="M80.7043 127.037V127.566H76.6664V127.145L79.0569 124.799C79.3613 124.504 79.5583 124.244 79.6657 124.029C79.7731 123.814 79.8268 123.599 79.8268 123.375C79.8268 123.035 79.7105 122.776 79.4777 122.579C79.2449 122.391 78.9136 122.292 78.4749 122.292C77.8034 122.292 77.2752 122.507 76.9081 122.937L76.4873 122.579C76.7111 122.319 76.9976 122.113 77.3468 121.97C77.696 121.827 78.0899 121.755 78.5286 121.755C79.1106 121.755 79.5762 121.889 79.9253 122.167C80.2656 122.444 80.4357 122.82 80.4357 123.304C80.4357 123.599 80.373 123.886 80.2387 124.154C80.1044 124.432 79.8537 124.745 79.4956 125.103L77.5438 127.028H80.7043V127.037Z" fill="black"/>
</g>
<mask id="mask22_36_2091" style="mask-type:luminance" maskUnits="userSpaceOnUse" x="0" y="0" width="212" height="326">
<path d="M211.672 0H0V325.02H211.672V0Z" fill="white"/>
</mask>
<g mask="url(#mask22_36_2091)">
<path d="M84.7602 124.763C85.0735 125.059 85.2347 125.435 85.2347 125.909C85.2347 126.241 85.1541 126.527 84.993 126.787C84.8318 127.037 84.599 127.243 84.2857 127.387C83.9723 127.539 83.5963 127.61 83.1397 127.61C82.7278 127.61 82.3339 127.539 81.9578 127.404C81.5907 127.27 81.2863 127.091 81.0625 126.867L81.349 126.402C81.537 126.599 81.7967 126.76 82.11 126.885C82.4234 127.011 82.7636 127.073 83.1307 127.073C83.6052 127.073 83.9633 126.975 84.223 126.769C84.4826 126.563 84.608 126.276 84.608 125.918C84.608 125.56 84.4826 125.283 84.223 125.077C83.9633 124.871 83.5784 124.772 83.0591 124.772H82.6472V124.334L84.2409 122.337H81.2953V121.809H84.993V122.23L83.3635 124.28C83.9813 124.307 84.4379 124.468 84.7602 124.763Z" fill="black"/>
</g>
<mask id="mask23_36_2091" style="mask-type:luminance" maskUnits="userSpaceOnUse" x="24" y="1" width="2" height="13">
<path d="M25.7136 1.146H24.4243V13.8596H25.7136V1.146Z" fill="white"/>
</mask>
<g mask="url(#mask23_36_2091)">
<path d="M-34.2732 67.3282L24.4152 8.63979M-40.7912 67.3282L24.4241 2.11289L50.5049 -23.9679M-47.3091 67.3282L24.4241 -4.40505M-53.836 67.3282L24.4152 -10.923M-60.354 67.3282L24.4241 -17.4499M-66.8809 67.3282L24.4152 -23.9679M24.4241 67.3282L115.72 -23.9679M24.4241 60.8013L109.202 -23.9768M24.4241 54.2833L102.675 -23.9679M24.4241 47.7564L96.1574 -23.9768M24.4241 41.2385L89.6305 -23.9768M24.4241 34.7205L83.1125 -23.9679M24.4241 28.1936L76.5946 -23.9768M24.4241 21.6757L70.0766 -23.9768M24.4241 15.1577L63.5497 -23.9679M24.4241 8.63084L57.0318 -23.9768" stroke="#1C1C1C" stroke-width="0.435127" stroke-linejoin="round"/>
</g>
<mask id="mask24_36_2091" style="mask-type:luminance" maskUnits="userSpaceOnUse" x="2" y="1" width="23" height="13">
<path d="M24.4242 1.146H2.1665V13.8596H24.4242V1.146Z" fill="white"/>
</mask>
<g mask="url(#mask24_36_2091)">
<path d="M-34.2732 67.3282L24.4152 8.63979M-40.7912 67.3282L24.4241 2.11289L50.5049 -23.9679M-47.3091 67.3282L24.4241 -4.40505M-53.836 67.3282L24.4152 -10.923M-60.354 67.3282L24.4241 -17.4499M-66.8809 67.3282L24.4152 -23.9679M-66.8809 60.8013L17.8972 -23.9768M-66.8809 54.2833L11.3703 -23.9679M-66.8809 47.7564L4.85238 -23.9768M24.4241 67.3282L115.72 -23.9679M24.4241 60.8013L109.202 -23.9768M24.4241 54.2833L102.675 -23.9679M24.4241 47.7564L96.1574 -23.9768M24.4241 41.2385L89.6305 -23.9768M24.4241 34.7205L83.1125 -23.9679M24.4241 28.1936L76.5946 -23.9768M24.4241 21.6757L70.0766 -23.9768M24.4241 15.1577L63.5497 -23.9679M24.4241 8.63084L57.0318 -23.9768" stroke="#1C1C1C" stroke-width="0.435127" stroke-linejoin="round"/>
</g>
<mask id="mask25_36_2091" style="mask-type:luminance" maskUnits="userSpaceOnUse" x="0" y="0" width="212" height="326">
<path d="M211.672 0H0V325.02H211.672V0Z" fill="white"/>
</mask>
<g mask="url(#mask25_36_2091)">
<path d="M25.7135 1.146H2.1665V13.8596H25.7135V1.146Z" stroke="#9D9D9C" stroke-width="1.79065" stroke-miterlimit="10" stroke-linecap="square"/>
</g>
<mask id="mask26_36_2091" style="mask-type:luminance" maskUnits="userSpaceOnUse" x="115" y="1" width="14" height="13">
<path d="M128.004 1.146H115.72V13.1702H128.004V1.146Z" fill="white"/>
</mask>
<g mask="url(#mask26_36_2091)">
<path d="M57.023 67.3282L115.711 8.63979M50.505 67.3282L115.72 2.11289L141.801 -23.9679M43.9871 67.3282L115.72 -4.40505M37.4602 67.3282L115.711 -10.923M30.9423 67.3282L115.72 -17.4499M24.4243 67.3282L115.72 -23.9679M128.756 67.3282L207.016 -10.923M122.238 67.3282L207.016 -17.4499M115.72 67.3282L207.016 -23.9679M115.72 60.8013L200.498 -23.9768M115.72 54.2833L193.972 -23.9679M115.72 47.7564L187.454 -23.9768M115.72 41.2385L180.936 -23.9768M115.72 34.7205L174.409 -23.9679M115.72 28.1936L167.891 -23.9768M115.72 21.6757L161.373 -23.9768M115.72 15.1577L154.846 -23.9679M115.72 8.63084L148.328 -23.9768" stroke="#1C1C1C" stroke-width="0.435127" stroke-linejoin="round"/>
</g>
<mask id="mask27_36_2091" style="mask-type:luminance" maskUnits="userSpaceOnUse" x="104" y="1" width="12" height="13">
<path d="M115.72 1.146H104.538V13.1702H115.72V1.146Z" fill="white"/>
</mask>
<g mask="url(#mask27_36_2091)">
<path d="M57.023 67.3282L115.711 8.63979M50.505 67.3282L115.72 2.11289L141.801 -23.9679M43.9871 67.3282L115.72 -4.40505M37.4602 67.3282L115.711 -10.923M30.9423 67.3282L115.72 -17.4499M24.4243 67.3282L115.72 -23.9679M24.4243 60.8013L109.202 -23.9768M115.72 67.3282L207.016 -23.9679M115.72 60.8013L200.498 -23.9768M115.72 54.2833L193.972 -23.9679M115.72 47.7564L187.454 -23.9768M115.72 41.2385L180.936 -23.9768M115.72 34.7205L174.409 -23.9679M115.72 28.1936L167.891 -23.9768M115.72 21.6757L161.373 -23.9768M115.72 15.1577L154.846 -23.9679M115.72 8.63084L148.328 -23.9768" stroke="#1C1C1C" stroke-width="0.435127" stroke-linejoin="round"/>
</g>
<mask id="mask28_36_2091" style="mask-type:luminance" maskUnits="userSpaceOnUse" x="0" y="0" width="212" height="326">
<path d="M211.672 0H0V325.02H211.672V0Z" fill="white"/>
</mask>
<g mask="url(#mask28_36_2091)">
<path d="M127.995 1.146H104.538V13.1702H127.995V1.146Z" stroke="#9D9D9C" stroke-width="1.79065" stroke-miterlimit="10" stroke-linecap="square"/>
</g>
<path d="M13.5548 269.42L8.75586 274.21V51.9108H13.5548V269.42Z" fill="black"/>
<path d="M119.015 225.675H13.5552V228.074H121.406V225.675V206.802H119.015V225.675Z" fill="#A58038"/>
<path d="M119.015 225.675H13.5552V228.074H121.406V225.675V206.802H119.015V225.675Z" stroke="#6B4F2B" stroke-width="0.447661" stroke-miterlimit="10"/>
<path d="M121.406 27.943H119.015V152.572H121.406H125.453V150.181H121.406V27.943Z" fill="#A58038"/>
<path d="M121.406 27.943H119.015V152.572H121.406H125.453V150.181H121.406V27.943Z" stroke="#6B4F2B" stroke-width="0.447661" stroke-miterlimit="10"/>
<path d="M156.162 211.001V225.675V228.075V244.253H158.562V228.075V225.675V213.391H206.497V211.001H158.562H156.162Z" fill="#A58038"/>
<path d="M156.162 211.001V225.675V228.075V244.253H158.562V228.075V225.675V213.391H206.497V211.001H158.562H156.162Z" stroke="#6B4F2B" stroke-width="0.447661" stroke-miterlimit="10"/>
<path d="M158.562 268.221H156.162V292.189H158.562V268.221Z" fill="#A58038"/>
<path d="M158.562 268.221H156.162V292.189H158.562V268.221Z" stroke="#6B4F2B" stroke-width="0.447661" stroke-miterlimit="10"/>
<path d="M71.3746 252.042H68.9751V269.42H71.3746V252.042Z" fill="#A58038"/>
<path d="M71.3746 252.042H68.9751V269.42H71.3746V252.042Z" stroke="#6B4F2B" stroke-width="0.447661" stroke-miterlimit="10"/>
<path d="M158.561 169.655V150.181H152.419V152.572H156.162V169.655V172.054V187.033H158.561V172.054H206.497V169.655H158.561Z" fill="#A58038"/>
<path d="M158.561 169.655V150.181H152.419V152.572H156.162V169.655V172.054V187.033H158.561V172.054H206.497V169.655H158.561Z" stroke="#6B4F2B" stroke-width="0.447661" stroke-miterlimit="10"/>
<path d="M194.124 186.863H206.112V210.831H194.124V186.863ZM195.807 205.459H204.429V192.244H195.807V205.459ZM195.807 209.04H204.429V207.249H195.807V209.04ZM195.807 190.444H204.429V188.653H195.807V190.444Z" fill="#A58038"/>
<path d="M194.124 186.863H206.112V210.831H194.124V186.863ZM195.807 205.459H204.429V192.244H195.807V205.459ZM195.807 209.04H204.429V207.249H195.807V209.04ZM195.807 190.444H204.429V188.653H195.807V190.444Z" stroke="#6B4F2B" stroke-width="0.447661" stroke-miterlimit="10"/>
<path d="M206.497 282.6V292.278H204.671H200.006V282.6H206.497ZM205.351 283.826H201.143V290.98H205.351V283.826Z" fill="#A58038"/>
<path d="M206.497 282.6V292.278H204.671H200.006V282.6H206.497ZM205.351 283.826H201.143V290.98H205.351V283.826Z" stroke="#6B4F2B" stroke-width="0.447661" stroke-miterlimit="10"/>
<path d="M34.7383 236.294H30.6198V229.238H34.7383V236.294ZM27.6116 237.672H19.5V229.794H27.6116V237.672ZM17.7272 237.672H15.5337V229.794H17.7272V237.672ZM35.8575 227.967H31.2824H29.4917V228.003H13.6177V229.794V237.672V239.454H29.5186V237.511H35.8664V227.967H35.8575Z" fill="#A58038"/>
<path d="M34.7383 236.294H30.6198V229.238H34.7383V236.294ZM27.6116 237.672H19.5V229.794H27.6116V237.672ZM17.7272 237.672H15.5337V229.794H17.7272V237.672ZM35.8575 227.967H31.2824H29.4917V228.003H13.6177V229.794V237.672V239.454H29.5186V237.511H35.8664V227.967H35.8575Z" stroke="#6B4F2B" stroke-width="0.447661" stroke-miterlimit="10"/>
<path d="M60.452 21.3535V27.9431H70.0319V21.3535V19.8493H71.8315V13.8596H58.6523V19.8493H60.452V21.3535Z" fill="#A58038"/>
<path d="M60.452 21.3535V27.9431H70.0319V21.3535V19.8493H71.8315V13.8596H58.6523V19.8493H60.452V21.3535Z" stroke="#6B4F2B" stroke-width="0.447661" stroke-miterlimit="10"/>
<path d="M104.188 19.8493H105.988V21.3535V27.9431H128.156V13.8596H104.188V19.8493Z" fill="#A58038"/>
<path d="M104.188 19.8493H105.988V21.3535V27.9431H128.156V13.8596H104.188V19.8493Z" stroke="#6B4F2B" stroke-width="0.447661" stroke-miterlimit="10"/>
<path d="M0.232422 13.8596V39.5196H8.91706V274.211V296.692L102.174 296.844V292.332H13.707V274.211H66.737V292.189H71.5359V269.421H13.707V27.9431H24.4957V21.3535V19.8493H26.2953V13.8596H0.232422Z" fill="#A58038"/>
<mask id="mask29_36_2091" style="mask-type:luminance" maskUnits="userSpaceOnUse" x="0" y="0" width="212" height="326">
<path d="M211.672 0H0V325.02H211.672V0Z" fill="white"/>
</mask>
<g mask="url(#mask29_36_2091)">
<path d="M13.7072 274.211H66.7371V292.189H71.5361V269.421H13.7072V27.9431H24.4958V21.3535V19.8493H26.2954V13.8596H0.223633V39.5196H8.91721V274.211V296.692L102.174 296.844V292.332H13.7072V274.211Z" stroke="#6B4F2B" stroke-width="0.447661" stroke-miterlimit="10"/>
</g>
<path d="M196.469 13.9491V27.9251H206.658V292.18H133.662V296.996H211.448V292.18L211.313 13.9491H196.469Z" fill="#A58038"/>
<mask id="mask30_36_2091" style="mask-type:luminance" maskUnits="userSpaceOnUse" x="0" y="0" width="212" height="326">
<path d="M211.672 0H0V325.02H211.672V0Z" fill="white"/>
</mask>
<g mask="url(#mask30_36_2091)">
<path d="M211.314 13.9491H196.469V27.9251H206.658V292.18H133.663V296.996H211.448V292.18L211.314 13.9491Z" stroke="#6B4F2B" stroke-width="0.447661" stroke-miterlimit="10"/>
</g>
<path d="M106.31 116.661H105.308V126.491H106.31V116.661Z" fill="white"/>
<path d="M106.31 60.5417H105.308V70.2291H106.31V60.5417Z" fill="white"/>
<path d="M107.313 127.476H117.18V59.5479H107.313V71.3751H102.443V115.506H107.313" fill="white"/>
<mask id="mask31_36_2091" style="mask-type:luminance" maskUnits="userSpaceOnUse" x="102" y="59" width="16" height="69">
<path d="M117.439 59.2882H102.183V127.736H117.439V59.2882Z" fill="white"/>
</mask>
<g mask="url(#mask31_36_2091)">
<path d="M113.903 88.5743C115.586 89.0399 115.801 91.0991 115.801 93.5881C115.801 95.9607 115.362 97.9394 113.903 98.5393M110.698 98.0021C109.31 97.1157 108.37 95.4773 108.37 93.5881C108.37 91.7169 109.31 90.0695 110.68 89.1831M102.443 71.3662H117.18V115.506H102.443V71.3662ZM107.313 127.467H117.189V115.506H107.313V127.467ZM112.506 110.805H110.644V76.2099H112.506V110.805ZM112.506 79.6301L113.903 85.0467V102.13L112.506 107.546V79.6301ZM105.308 70.2381H106.311V60.5507H105.308V70.2381ZM107.313 71.3662H117.189V59.548H107.313V71.3662ZM105.308 126.482H106.311V116.652H105.308V126.482Z" stroke="#1C1C1C" stroke-width="0.358129" stroke-miterlimit="10" stroke-linejoin="round"/>
</g>
<mask id="mask32_36_2091" style="mask-type:luminance" maskUnits="userSpaceOnUse" x="0" y="0" width="212" height="326">
<path d="M211.672 0H0V325.02H211.672V0Z" fill="white"/>
</mask>
<g mask="url(#mask32_36_2091)">
<path d="M17.7274 123.08C16.0083 122.883 14.8086 122.176 14.8086 119.561V36.8246C14.8086 34.255 16.0083 33.5298 17.6557 33.3866C18.0855 33.3149 57.6677 33.3866 57.6677 33.3866C61.625 33.3866 62.8874 33.3866 62.8874 36.8246V36.9947C62.8874 40.4328 61.625 40.585 57.6677 40.585V40.6566H58.5093C61.5802 40.6566 62.8874 40.8088 62.8874 44.5423V55.6174C62.8874 59.3509 61.5802 59.5211 58.5093 59.5211H46.9507C43.8797 59.5211 42.5188 59.3509 42.5188 55.6174C42.5188 59.3509 41.1848 59.5211 38.1049 59.5211C41.1759 59.5211 42.5188 59.6733 42.5188 63.2635V74.3297C42.5188 78.09 41.1848 78.2154 38.1049 78.2154C41.1759 78.2154 42.5188 78.3676 42.5188 82.1279V93.1762C42.5188 96.7754 41.1848 97.0798 38.1049 97.0798C41.1759 97.0798 42.5188 97.232 42.5188 100.992V112.041C42.5188 115.64 41.1848 115.944 38.1049 115.944V115.962C41.6146 115.962 42.7606 116.132 42.7606 119.409V119.561C42.7606 122.999 41.4982 123.08 37.5408 123.08C37.5408 123.08 18.1482 123.143 17.7274 123.08Z" fill="white"/>
</g>
<mask id="mask33_36_2091" style="mask-type:luminance" maskUnits="userSpaceOnUse" x="14" y="33" width="50" height="91">
<path d="M63.1738 33.0731H14.522V123.393H63.1738V33.0731Z" fill="white"/>
</mask>
<g mask="url(#mask33_36_2091)">
<path d="M38.1134 59.5211C41.1843 59.5211 42.5004 59.6733 42.5004 63.2635V74.3386C42.5004 78.0811 41.1843 78.2243 38.1134 78.2243H26.5458C23.4748 78.2243 22.1229 78.0811 22.1229 74.3386V63.2635C22.1229 59.6733 23.4748 59.5211 26.5458 59.5211M38.1134 59.5211H26.5458M38.1134 59.5211C41.1843 59.5211 42.5004 59.3778 42.5004 55.6354V44.5602C42.5004 40.8088 41.1843 40.6566 38.1134 40.6566H26.5458C23.4748 40.6566 22.1229 40.8177 22.1229 44.5602V55.6354C22.1229 59.3778 23.4748 59.5211 26.5458 59.5211M37.5404 115.971C41.4977 115.971 42.7601 115.971 42.7601 119.418V119.561C42.7601 123.008 41.4887 123.08 37.5404 123.08C37.5404 123.08 18.1566 123.134 17.7358 123.08C16.0168 122.892 14.8081 122.194 14.8081 119.561V36.8336C14.8081 34.264 16.0078 33.5298 17.6552 33.3866C18.085 33.3149 57.6672 33.3866 57.6672 33.3866C61.6156 33.3866 62.8869 33.4045 62.8869 36.8336V36.9858C62.8869 40.4149 61.6156 40.576 57.6672 40.576M38.1134 78.2333C41.1843 78.2333 42.5004 78.3855 42.5004 82.1369V93.221C42.5004 96.8112 41.1843 97.1067 38.1134 97.1067H26.5458C23.4748 97.1067 22.1229 96.8112 22.1229 93.221V82.1369C22.1229 78.3944 23.4748 78.2333 26.5458 78.2333H38.1134ZM38.1134 97.0977C41.1843 97.0977 42.5004 97.2499 42.5004 100.983V112.068C42.5004 115.667 41.1843 115.971 38.1134 115.971H26.5458C23.4748 115.971 22.1229 115.676 22.1229 112.068V100.983C22.1229 97.2499 23.4748 97.0977 26.5458 97.0977H38.1134ZM58.4999 40.6566C61.5708 40.6566 62.8959 40.8088 62.8959 44.5602V55.6354C62.8959 59.3778 61.5798 59.5211 58.4999 59.5211H46.9412C43.8703 59.5211 42.5094 59.3778 42.5094 55.6354V44.5602C42.5094 40.8177 43.8703 40.6566 46.9412 40.6566H58.4999Z" stroke="#1C1C1C" stroke-width="0.358129" stroke-miterlimit="10" stroke-linejoin="round"/>
</g>
<path d="M68.5641 69.0652H51.1948V97.0888H68.5641V69.0652Z" fill="white"/>
<mask id="mask34_36_2091" style="mask-type:luminance" maskUnits="userSpaceOnUse" x="50" y="68" width="19" height="30">
<path d="M68.7608 68.8683H50.9976V97.2948H68.7608V68.8683Z" fill="white"/>
</mask>
<g mask="url(#mask34_36_2091)">
<path d="M68.5641 69.0652H51.1948V97.0888H68.5641V69.0652Z" stroke="#1C1C1C" stroke-width="0.322316" stroke-miterlimit="10" stroke-linejoin="round"/>
</g>
<path d="M60.6219 75.0101L61.1323 73.685M61.2576 75.2429L61.7679 73.9178M59.3148 76.568L60.4428 73.4075M58.7059 76.371L59.834 73.2105M58.0971 76.1651L59.2163 72.9957M57.4793 75.9592L58.6074 72.7987M61.8664 75.4488L62.3767 74.1238M57.1033 73.8373L54.3457 77.8035L61.4904 82.7099L63.666 79.5852M61.2576 77.0873L61.571 76.1651L60.3444 75.7532L60.031 76.6754L61.2576 77.0873ZM64.2211 79.639L66.164 74.2312L57.9897 71.3751L56.0558 76.7829L64.2211 79.639Z" stroke="#1C1C1C" stroke-width="0.322316" stroke-miterlimit="10" stroke-linecap="round" stroke-linejoin="round"/>
<mask id="mask35_36_2091" style="mask-type:luminance" maskUnits="userSpaceOnUse" x="14" y="138" width="50" height="54">
<path d="M63.2899 138.694H14.4053V191.026H63.2899V138.694Z" fill="white"/>
</mask>
<g mask="url(#mask35_36_2091)">
<path d="M36.2514 149.349V141.756M36.2514 141.756C36.2514 140.807 35.4904 140.028 34.5324 140.037H25.9104C24.9524 140.037 24.1735 140.807 24.1914 141.756V149.349M36.2514 141.756L37.469 138.999H22.9827L24.2004 141.756M36.2514 180.381V187.973C36.2514 188.922 35.4904 189.692 34.5324 189.692H25.9104C24.9524 189.692 24.1735 188.922 24.1914 187.973V180.381M53.5043 149.349V141.756M53.5043 141.756C53.5043 140.807 52.7253 140.028 51.7674 140.037H43.1454C42.1874 140.037 41.4264 140.807 41.4264 141.756V149.349M53.5043 141.756L54.704 138.999H40.2356L41.4353 141.756M53.5043 180.381V187.973C53.5043 188.922 52.7253 189.692 51.7674 189.692H43.1454C42.1874 189.692 41.4264 188.922 41.4264 187.973V180.381M53.5043 187.964L54.704 190.722H40.2356L41.4353 187.964M36.2514 187.964L37.469 190.722H22.9827L24.2004 187.964M14.71 180.381H62.9857V149.349H14.71V180.381Z" stroke="#1C1C1C" stroke-width="0.358129" stroke-miterlimit="10"/>
</g>
<path d="M205.646 51.7228H143.332V105.048H205.646V51.7228Z" fill="white"/>
<mask id="mask36_36_2091" style="mask-type:luminance" maskUnits="userSpaceOnUse" x="143" y="35" width="63" height="87">
<path d="M205.915 35.0609H143.072V121.639H205.915V35.0609Z" fill="white"/>
</mask>
<g mask="url(#mask36_36_2091)">
<path d="M190.381 74.643H201.465V54.7311H187.552V62.6368M190.381 82.1369H201.465V102.192H187.552V94.2775M190.381 67.5521L176.325 63.8634L182.135 53.3612L190.381 67.5521ZM190.381 67.5521V89.2279L176.325 92.9166L182.135 103.419L190.372 89.2279M205.646 51.7228H143.332V105.048H205.646V51.7228ZM203.22 53.3702H144.55V103.428H203.22V53.3702Z" stroke="#1C1C1C" stroke-width="0.358129" stroke-miterlimit="10" stroke-linejoin="round"/>
</g>
<path d="M205.646 35.3204H190.954V50.1649H205.646V35.3204Z" fill="white"/>
<mask id="mask37_36_2091" style="mask-type:luminance" maskUnits="userSpaceOnUse" x="143" y="35" width="63" height="87">
<path d="M205.915 35.0609H143.072V121.639H205.915V35.0609Z" fill="white"/>
</mask>
<g mask="url(#mask37_36_2091)">
<path d="M205.646 35.3206H190.954V50.165H205.646V35.3206Z" stroke="#1C1C1C" stroke-width="0.358129" stroke-miterlimit="10" stroke-linejoin="round"/>
</g>
<path d="M205.646 106.543H190.954V121.379H205.646V106.543Z" fill="white"/>
<mask id="mask38_36_2091" style="mask-type:luminance" maskUnits="userSpaceOnUse" x="143" y="35" width="63" height="87">
<path d="M205.915 35.0609H143.072V121.639H205.915V35.0609Z" fill="white"/>
</mask>
<g mask="url(#mask38_36_2091)">
<path d="M205.646 106.534H190.954V121.37H205.646V106.534Z" stroke="#1C1C1C" stroke-width="0.358129" stroke-miterlimit="10" stroke-linejoin="round"/>
</g>
<path d="M127.028 92.9524H125.157V58.187H127.028V92.9524ZM125.157 89.5233L123.76 84.0798V66.9164L125.157 61.4729V89.5233Z" stroke="#1C1C1C" stroke-width="0.358129" stroke-miterlimit="10" stroke-linejoin="round"/>
<mask id="mask39_36_2091" style="mask-type:luminance" maskUnits="userSpaceOnUse" x="121" y="57" width="7" height="37">
<path d="M127.288 57.9274H121.002V93.221H127.288V57.9274Z" fill="white"/>
</mask>
<g mask="url(#mask39_36_2091)">
<path d="M123.769 70.5514H121.262V80.6059H123.769V70.5514Z" stroke="#1C1C1C" stroke-width="0.358129" stroke-miterlimit="10"/>
</g>
<path d="M82.0471 208.082H64.3555V225.415H82.0471V208.082Z" fill="white"/>
<mask id="mask40_36_2091" style="mask-type:luminance" maskUnits="userSpaceOnUse" x="64" y="207" width="19" height="19">
<path d="M82.289 207.822H64.0781V225.675H82.289V207.822Z" fill="white"/>
</mask>
<g mask="url(#mask40_36_2091)">
<path d="M73.1654 222.156H67.0414C66.2625 222.156 65.7432 221.53 65.7432 220.912V211.296C65.7432 210.669 66.2625 210.043 67.0414 210.043H75.4306C76.2185 210.043 76.7467 210.669 76.7467 211.296V220.912C76.7467 221.53 76.2275 222.156 75.4306 222.156H74.4816M64.3555 225.415H82.0471V208.082H64.3555V225.415ZM73.7564 216.722C73.3624 216.722 73.1028 216.346 73.1028 216.095C73.1028 215.719 73.3624 215.468 73.7564 215.468C74.1413 215.468 74.41 215.719 74.41 216.095C74.401 216.346 74.1413 216.722 73.7564 216.722ZM79.7192 224.001H66.6654C65.779 224.001 64.8927 223.15 64.8927 222.318V210.866C64.8927 210.025 65.779 209.183 66.6654 209.183H79.7192C80.7488 209.183 81.483 210.025 81.483 210.866V222.318C81.483 223.15 80.7488 224.001 79.7192 224.001ZM74.3383 218.324V222.765C74.3383 223.061 74.0787 223.356 73.7564 223.356C73.434 223.356 73.1744 223.061 73.1744 222.765V218.324H74.3383Z" stroke="#1C1C1C" stroke-width="0.358129" stroke-miterlimit="10" stroke-linecap="round" stroke-linejoin="round"/>
</g>
<path d="M106.275 207.357H100.634V208.064H106.275V207.357Z" fill="white"/>
<path d="M118.407 208.1H99.8823V225.406H118.407V208.1Z" fill="white"/>
<mask id="mask41_36_2091" style="mask-type:luminance" maskUnits="userSpaceOnUse" x="99" y="207" width="20" height="19">
<path d="M118.684 207.088H99.6133V225.675H118.684V207.088Z" fill="white"/>
</mask>
<g mask="url(#mask41_36_2091)">
<path d="M106.274 208.064V207.357H100.643V208.064M118.406 209.541H99.8818M109.122 218.548V215.549M110.617 217.116H107.626M110.321 215.97L108.074 218.119M108.074 215.97L110.321 218.119M113.912 218.692V215.683M115.407 217.116H112.264M114.959 216.113L112.712 218.262M112.712 216.113L114.959 218.262M104.484 218.548V215.549M106.122 217.116H102.98M105.675 215.97L103.427 218.119M103.427 215.97L105.675 218.119M118.406 208.1H99.8818V225.407H118.406V208.1Z" stroke="#1C1C1C" stroke-width="0.358129" stroke-miterlimit="10" stroke-linejoin="round"/>
</g>
<path d="M46.4756 208.091H28.6855V225.424H46.4756V208.091Z" fill="white"/>
<mask id="mask42_36_2091" style="mask-type:luminance" maskUnits="userSpaceOnUse" x="28" y="207" width="19" height="19">
<path d="M46.7356 207.831H28.4263V225.675H46.7356V207.831Z" fill="white"/>
</mask>
<g mask="url(#mask42_36_2091)">
<path d="M28.686 225.424H46.4761V208.091H28.686V225.424ZM30.7095 221.395C30.7095 219.641 32.0972 218.298 33.7536 218.298C35.4278 218.298 36.8156 219.641 36.8156 221.395C36.8156 223.007 35.4278 224.35 33.7536 224.35C32.0972 224.35 30.7095 223.007 30.7095 221.395ZM38.6331 221.395C38.6331 219.641 39.8776 218.298 41.6951 218.298C43.3514 218.298 44.7571 219.641 44.7571 221.395C44.7571 223.007 43.3604 224.35 41.6951 224.35C39.8776 224.35 38.6331 223.007 38.6331 221.395ZM38.6331 221.395C38.6331 219.641 39.8776 218.298 41.6951 218.298C43.3514 218.298 44.7571 219.641 44.7571 221.395C44.7571 223.007 43.3604 224.35 41.6951 224.35C39.8776 224.35 38.6331 223.007 38.6331 221.395ZM39.4657 221.395C39.4657 220.187 40.4327 219.381 41.6861 219.381C42.7963 219.381 43.7633 220.187 43.7633 221.395C43.7633 222.47 42.7963 223.41 41.6861 223.41C40.4327 223.41 39.4657 222.461 39.4657 221.395ZM39.4657 221.395C39.4657 220.187 40.4327 219.381 41.6861 219.381C42.7963 219.381 43.7633 220.187 43.7633 221.395C43.7633 222.47 42.7963 223.41 41.6861 223.41C40.4327 223.41 39.4657 222.461 39.4657 221.395ZM31.6764 221.395C31.6764 220.187 32.6613 219.381 33.7536 219.381C34.8817 219.381 35.8486 220.187 35.8486 221.395C35.8486 222.47 34.8817 223.41 33.7536 223.41C32.6613 223.41 31.6764 222.461 31.6764 221.395ZM38.6331 214.403C38.6331 212.791 39.8776 211.448 41.6951 211.448C43.3514 211.448 44.7571 212.791 44.7571 214.403C44.7571 216.015 43.3604 217.358 41.6951 217.358C39.8776 217.358 38.6331 216.015 38.6331 214.403ZM38.6331 214.403C38.6331 212.791 39.8776 211.448 41.6951 211.448C43.3514 211.448 44.7571 212.791 44.7571 214.403C44.7571 216.015 43.3604 217.358 41.6951 217.358C39.8776 217.358 38.6331 216.015 38.6331 214.403ZM30.7095 214.403C30.7095 212.791 32.0972 211.448 33.7536 211.448C35.4278 211.448 36.8156 212.791 36.8156 214.403C36.8156 216.015 35.4278 217.358 33.7536 217.358C32.0972 217.358 30.7095 216.015 30.7095 214.403ZM40.6744 209.703C40.6744 209.434 40.952 209.165 41.2206 209.165C41.5071 209.165 41.7846 209.434 41.7846 209.703C41.7846 209.971 41.5071 210.24 41.2206 210.24C40.943 210.24 40.6744 209.971 40.6744 209.703ZM38.8569 209.703C38.8569 209.434 39.1344 209.165 39.403 209.165C39.6806 209.165 39.9671 209.434 39.9671 209.703C39.9671 209.971 39.6806 210.24 39.403 210.24C39.1255 210.24 38.8569 209.971 38.8569 209.703ZM37.0394 209.703C37.0394 209.434 37.3169 209.165 37.5855 209.165C37.8631 209.165 38.1496 209.434 38.1496 209.703C38.1496 209.971 37.8631 210.24 37.5855 210.24C37.308 210.24 37.0394 209.971 37.0394 209.703ZM35.204 209.703C35.204 209.434 35.4905 209.165 35.768 209.165C36.0456 209.165 36.3142 209.434 36.3142 209.703C36.3142 209.971 36.0366 210.24 35.768 210.24C35.4994 210.24 35.204 209.971 35.204 209.703ZM33.3865 209.703C33.3865 209.434 33.664 209.165 33.9505 209.165C34.2281 209.165 34.4967 209.434 34.4967 209.703C34.4967 209.971 34.2191 210.24 33.9505 210.24C33.664 210.24 33.3865 209.971 33.3865 209.703ZM39.4657 214.403C39.4657 213.329 40.4327 212.388 41.5429 212.388C42.7963 212.388 43.62 213.329 43.62 214.403C43.62 215.477 42.7963 216.417 41.5429 216.417C40.4327 216.417 39.4657 215.477 39.4657 214.403ZM39.4657 214.403C39.4657 213.329 40.4327 212.388 41.5429 212.388C42.7963 212.388 43.62 213.329 43.62 214.403C43.62 215.477 42.7963 216.417 41.5429 216.417C40.4327 216.417 39.4657 215.477 39.4657 214.403ZM31.6764 214.403C31.6764 213.329 32.5091 212.388 33.7536 212.388C34.8817 212.388 35.8486 213.329 35.8486 214.403C35.8486 215.477 34.8817 216.417 33.7536 216.417C32.518 216.417 31.6764 215.477 31.6764 214.403Z" stroke="#1C1C1C" stroke-width="0.358129" stroke-miterlimit="10" stroke-linejoin="round"/>
</g>
<mask id="mask43_36_2091" style="mask-type:luminance" maskUnits="userSpaceOnUse" x="12" y="207" width="109" height="19">
<path d="M120.206 207.831H12.373V225.747H120.206V207.831Z" fill="white"/>
</mask>
<g mask="url(#mask43_36_2091)">
<path d="M118.684 208.091H13.9131V225.496H118.684V208.091Z" stroke="#1C1C1C" stroke-width="0.358129" stroke-miterlimit="10"/>
</g>
<mask id="mask44_36_2091" style="mask-type:luminance" maskUnits="userSpaceOnUse" x="162" y="156" width="12" height="8">
<path d="M173.881 156.404H162.626V163.844H173.881V156.404Z" fill="white"/>
</mask>
<g mask="url(#mask44_36_2091)">
<path d="M172.797 162.519L168.258 160.191L163.719 162.519C163.629 162.573 163.585 162.68 163.62 162.778C163.656 162.877 163.755 162.94 163.853 162.94H172.663C172.771 162.94 172.86 162.877 172.896 162.778C172.932 162.68 172.887 162.573 172.797 162.519ZM172.663 163.62H163.853C163.406 163.62 163.021 163.343 162.895 162.958C162.77 162.564 162.949 162.143 163.325 161.928L167.873 159.591V159.072C167.318 158.911 166.915 158.445 166.879 157.917C166.861 157.46 167.112 157.039 167.542 156.807C167.963 156.574 168.5 156.565 168.93 156.789C169.359 157.013 169.628 157.433 169.628 157.881C169.628 158.06 169.449 158.212 169.252 158.212C169.055 158.212 168.885 158.069 168.876 157.881C168.876 157.568 168.598 157.308 168.249 157.308C167.909 157.308 167.614 157.568 167.614 157.881C167.649 158.177 167.918 158.418 168.249 158.454C168.482 158.562 168.634 158.785 168.616 159.027V159.6L173.165 161.928C173.541 162.143 173.729 162.564 173.612 162.958C173.505 163.351 173.111 163.62 172.663 163.62Z" stroke="#1C1C1C" stroke-width="0.447661" stroke-miterlimit="10"/>
</g>
<mask id="mask45_36_2091" style="mask-type:luminance" maskUnits="userSpaceOnUse" x="177" y="156" width="12" height="8">
<path d="M188.358 156.404H177.104V163.844H188.358V156.404Z" fill="white"/>
</mask>
<g mask="url(#mask45_36_2091)">
<path d="M187.266 162.519L182.717 160.191L178.178 162.519C178.089 162.573 178.053 162.68 178.08 162.778C178.115 162.877 178.214 162.94 178.321 162.94H187.122C187.23 162.94 187.337 162.877 187.364 162.778C187.4 162.68 187.355 162.573 187.266 162.519ZM187.122 163.62H178.321C177.865 163.62 177.48 163.343 177.354 162.958C177.229 162.564 177.408 162.143 177.802 161.928L182.35 159.591V159.072C181.786 158.911 181.392 158.445 181.348 157.917C181.321 157.46 181.58 157.039 182.01 156.807C182.431 156.574 182.968 156.565 183.416 156.789C183.846 157.013 184.105 157.433 184.105 157.881C184.105 158.06 183.935 158.212 183.729 158.212C183.532 158.212 183.362 158.069 183.353 157.881C183.353 157.568 183.076 157.308 182.726 157.308C182.386 157.308 182.109 157.568 182.109 157.881C182.127 158.177 182.395 158.418 182.726 158.454C182.968 158.562 183.111 158.785 183.093 159.027V159.6L187.642 161.928C188.027 162.143 188.206 162.564 188.089 162.958C187.973 163.351 187.57 163.62 187.122 163.62Z" stroke="#1C1C1C" stroke-width="0.447661" stroke-miterlimit="10"/>
</g>
<mask id="mask46_36_2091" style="mask-type:luminance" maskUnits="userSpaceOnUse" x="191" y="156" width="12" height="8">
<path d="M202.817 156.404H191.563V163.844H202.817V156.404Z" fill="white"/>
</mask>
<g mask="url(#mask46_36_2091)">
<path d="M201.734 162.519L197.195 160.191L192.655 162.519C192.557 162.573 192.521 162.68 192.557 162.778C192.593 162.877 192.682 162.94 192.79 162.94H201.6C201.698 162.94 201.797 162.877 201.832 162.778C201.868 162.68 201.823 162.573 201.734 162.519ZM201.6 163.62H192.79C192.333 163.62 191.939 163.343 191.823 162.958C191.697 162.564 191.876 162.143 192.27 161.928L196.819 159.591V159.072C196.255 158.911 195.861 158.445 195.816 157.917C195.807 157.46 196.058 157.039 196.496 156.807C196.917 156.574 197.445 156.565 197.884 156.789C198.314 157.013 198.582 157.433 198.582 157.881C198.573 158.06 198.403 158.212 198.206 158.212C197.991 158.212 197.839 158.069 197.83 157.881C197.83 157.568 197.553 157.308 197.204 157.308C196.845 157.308 196.568 157.568 196.568 157.881C196.604 158.177 196.872 158.418 197.195 158.454C197.436 158.562 197.58 158.785 197.571 159.027V159.6L202.119 161.928C202.495 162.143 202.674 162.564 202.549 162.958C202.432 163.351 202.038 163.62 201.6 163.62Z" stroke="#1C1C1C" stroke-width="0.447661" stroke-miterlimit="10"/>
</g>
<mask id="mask47_36_2091" style="mask-type:luminance" maskUnits="userSpaceOnUse" x="22" y="257" width="13" height="8">
<path d="M34.1746 257.316H22.9204V264.756H34.1746V257.316Z" fill="white"/>
</mask>
<g mask="url(#mask47_36_2091)">
<path d="M33.0914 263.431L28.5521 261.103L24.0128 263.431C23.9233 263.485 23.8785 263.592 23.9143 263.69C23.9501 263.789 24.0486 263.852 24.1471 263.852H32.9571C33.0645 263.852 33.154 263.789 33.1899 263.69C33.2257 263.592 33.1809 263.493 33.0914 263.431ZM32.9571 264.541H24.1471C23.6994 264.541 23.3145 264.263 23.1891 263.878C23.0638 263.485 23.2428 263.064 23.6189 262.849L28.1671 260.512V259.993C27.612 259.832 27.2091 259.366 27.1733 258.829C27.1554 258.372 27.4061 257.951 27.8358 257.719C28.2566 257.486 28.7938 257.477 29.2236 257.701C29.6533 257.925 29.9219 258.345 29.9219 258.793C29.9219 258.972 29.7429 259.124 29.5459 259.124C29.3489 259.124 29.1788 258.972 29.1699 258.793C29.1699 258.48 28.8923 258.22 28.5431 258.22C28.194 258.22 27.9075 258.48 27.9075 258.793C27.9433 259.097 28.2029 259.33 28.5431 259.366C28.7759 259.473 28.9281 259.697 28.9102 259.939V260.512L33.4585 262.84C33.8345 263.055 34.0225 263.476 33.9061 263.87C33.7987 264.263 33.4048 264.541 32.9571 264.541Z" stroke="#1C1C1C" stroke-width="0.447661" stroke-miterlimit="10"/>
</g>
<mask id="mask48_36_2091" style="mask-type:luminance" maskUnits="userSpaceOnUse" x="38" y="257" width="12" height="8">
<path d="M49.4481 257.316H38.1938V264.756H49.4481V257.316Z" fill="white"/>
</mask>
<g mask="url(#mask48_36_2091)">
<path d="M48.3648 263.431L43.8166 261.103L39.2773 263.431C39.1878 263.485 39.1519 263.592 39.1788 263.69C39.2146 263.789 39.3131 263.852 39.4206 263.852H48.2216C48.329 263.852 48.4364 263.789 48.4633 263.69C48.4991 263.592 48.4544 263.493 48.3648 263.431ZM48.2216 264.541H39.4206C38.9639 264.541 38.5789 264.263 38.4536 263.878C38.3282 263.485 38.5073 263.064 38.9013 262.849L43.4495 260.512V259.993C42.8855 259.832 42.4915 259.366 42.4467 258.829C42.4199 258.372 42.6795 257.951 43.1093 257.719C43.5301 257.486 44.0673 257.477 44.5149 257.701C44.9447 257.925 45.2043 258.345 45.2043 258.793C45.2043 258.972 45.0342 259.124 44.8283 259.124C44.6313 259.124 44.4612 258.972 44.4523 258.793C44.4523 258.48 44.1747 258.22 43.8255 258.22C43.4764 258.22 43.1988 258.48 43.1988 258.793C43.2167 259.097 43.4853 259.33 43.8255 259.366C44.0673 259.473 44.2105 259.697 44.1926 259.939V260.512L48.7408 262.84C49.1348 263.055 49.3049 263.476 49.1885 263.87C49.0632 264.263 48.6603 264.541 48.2216 264.541Z" stroke="#1C1C1C" stroke-width="0.447661" stroke-miterlimit="10"/>
</g>
<mask id="mask49_36_2091" style="mask-type:luminance" maskUnits="userSpaceOnUse" x="53" y="257" width="12" height="8">
<path d="M64.9285 257.316H53.6743V264.756H64.9285V257.316Z" fill="white"/>
</mask>
<g mask="url(#mask49_36_2091)">
<path d="M63.8358 263.431L59.2965 261.103L54.7573 263.431C54.6588 263.485 54.623 263.592 54.6588 263.69C54.6946 263.789 54.7841 263.852 54.8916 263.852H63.7015C63.8 263.852 63.8985 263.789 63.9343 263.69C63.9701 263.592 63.9254 263.493 63.8358 263.431ZM63.7105 264.541H54.9005C54.4439 264.541 54.05 264.263 53.9336 263.878C53.8082 263.485 53.9873 263.064 54.3812 262.849L58.9295 260.512V259.993C58.3654 259.832 57.9715 259.366 57.9267 258.829C57.9177 258.372 58.1684 257.951 58.6072 257.719C59.028 257.486 59.5562 257.477 59.9949 257.701C60.4247 257.925 60.6932 258.345 60.6932 258.793C60.6843 258.972 60.5142 259.124 60.3172 259.124C60.1023 259.124 59.9501 258.972 59.9412 258.793C59.9412 258.48 59.6636 258.22 59.3145 258.22C58.9563 258.22 58.6788 258.48 58.6788 258.793C58.7146 259.097 58.9832 259.33 59.3055 259.366C59.5472 259.473 59.6905 259.697 59.6815 259.939V260.512L64.2298 262.84C64.6058 263.055 64.7849 263.476 64.6595 263.87C64.5431 264.263 64.1492 264.541 63.7105 264.541Z" stroke="#1C1C1C" stroke-width="0.447661" stroke-miterlimit="10"/>
</g>
<mask id="mask50_36_2091" style="mask-type:luminance" maskUnits="userSpaceOnUse" x="16" y="244" width="12" height="10">
<path d="M27.1641 244.754H16.8052V253.555H27.1641V244.754Z" fill="white"/>
</mask>
<g mask="url(#mask50_36_2091)">
<path d="M24.8894 250.995V253.332H17.6104C17.306 253.332 17.0195 253.045 17.0195 252.75V246.294C17.0195 245.856 17.306 245.712 17.6104 245.712H24.8894V247.619M25.6236 251.263V252.606H24.8894M17.7537 245.56C17.7537 245.274 18.0402 244.978 18.3446 244.978H25.6325V247.422M25.3281 251.29L23.5823 249.974L25.919 249.392L26.9397 250.851L25.3281 251.29ZM25.3281 247.36L23.5823 248.533L25.919 249.258L26.9397 247.951L25.3281 247.36Z" stroke="#1C1C1C" stroke-width="0.447661" stroke-miterlimit="10" stroke-linecap="round" stroke-linejoin="round"/>
</g>
<path d="M158.561 150.181H206.497M29.6616 239.123V253.161H68.5903" stroke="black" stroke-width="0.447661" stroke-miterlimit="10"/>
<path d="M176.208 192.978V194.822V200.866V210.571H193.802V192.978H176.208Z" fill="white"/>
<mask id="mask51_36_2091" style="mask-type:luminance" maskUnits="userSpaceOnUse" x="175" y="192" width="20" height="19">
<path d="M194.07 192.718H175.949V210.831H194.07V192.718Z" fill="white"/>
</mask>
<g mask="url(#mask51_36_2091)">
<path d="M190.713 201.367C190.713 198.699 188.636 196.595 185.994 196.595C183.353 196.595 181.133 198.699 181.133 201.367M187.982 205.7C189.611 204.948 190.722 203.31 190.722 201.367C190.722 198.699 188.645 196.595 186.003 196.595C183.362 196.595 181.142 198.699 181.142 201.367C181.142 203.346 182.377 205.011 184.096 205.736M176.208 200.866H177.489C178.026 200.866 178.554 200.49 178.554 199.97V195.7C178.554 195.198 178.026 194.822 177.489 194.822H176.208M179.1 208.315C178.465 208.315 177.945 207.795 177.945 207.151C177.945 206.506 178.465 205.987 179.1 205.987C179.736 205.987 180.255 206.506 180.255 207.151C180.246 207.795 179.736 208.315 179.1 208.315ZM185.994 204.886C187.955 204.886 189.495 203.337 189.495 201.358C189.495 199.388 187.955 197.831 185.994 197.831C184.034 197.831 182.359 199.397 182.359 201.358C182.359 203.328 184.043 204.886 185.994 204.886ZM187.051 207.249C187.597 207.249 188.009 206.667 188.009 206.112V205.817C188.009 205.253 187.597 204.823 187.051 204.823H184.992C184.445 204.823 184.034 205.253 184.034 205.817V206.112C184.034 206.667 184.445 207.249 184.992 207.249H187.051ZM176.208 210.58H193.802V192.978H176.208V210.58Z" stroke="#1C1C1C" stroke-width="0.447661" stroke-miterlimit="10" stroke-linecap="round" stroke-linejoin="round"/>
</g>
<path d="M193.864 175.349H176.271V192.942H193.864V175.349Z" fill="white"/>
<mask id="mask52_36_2091" style="mask-type:luminance" maskUnits="userSpaceOnUse" x="176" y="175" width="19" height="19">
<path d="M194.124 175.089H176.011V193.202H194.124V175.089Z" fill="white"/>
</mask>
<g mask="url(#mask52_36_2091)">
<path d="M188.045 188.063C189.674 187.328 190.784 185.681 190.784 183.729C190.784 181.061 188.698 178.966 186.066 178.966C183.434 178.966 181.204 181.061 181.204 183.729C181.204 185.708 182.44 187.391 184.159 188.116M179.163 187.606C178.518 187.606 178.008 187.087 178.008 186.442C178.008 185.797 178.527 185.278 179.163 185.278C179.799 185.278 180.318 185.797 180.318 186.442C180.318 187.096 179.799 187.606 179.163 187.606ZM179.163 190.677C178.518 190.677 178.008 190.158 178.008 189.513C178.008 188.877 178.527 188.358 179.163 188.358C179.799 188.358 180.318 188.877 180.318 189.513C180.318 190.158 179.799 190.677 179.163 190.677ZM186.066 187.248C188.018 187.248 189.558 185.699 189.558 183.729C189.558 181.751 188.018 180.202 186.066 180.202C184.105 180.202 182.431 181.751 182.431 183.729C182.431 185.699 184.105 187.248 186.066 187.248ZM187.113 189.612C187.66 189.612 188.071 189.039 188.071 188.475V188.188C188.071 187.624 187.66 187.176 187.113 187.176H185.063C184.517 187.176 184.105 187.615 184.105 188.188V188.475C184.105 189.039 184.517 189.612 185.063 189.612H187.113ZM176.271 192.951H193.864V175.358H176.271V192.951Z" stroke="#1C1C1C" stroke-width="0.358129" stroke-miterlimit="10" stroke-linecap="round" stroke-linejoin="round"/>
</g>
<mask id="mask53_36_2091" style="mask-type:luminance" maskUnits="userSpaceOnUse" x="158" y="214" width="23" height="17">
<path d="M180.148 214.063H158.893V230.698H180.148V214.063Z" fill="white"/>
</mask>
<g mask="url(#mask53_36_2091)">
<path d="M159.17 214.349V229.185C159.17 229.802 159.644 230.42 160.262 230.42H178.769C179.404 230.42 179.861 229.802 179.861 229.185V216.82V214.349H178.769H160.262" fill="white"/>
</g>
<mask id="mask54_36_2091" style="mask-type:luminance" maskUnits="userSpaceOnUse" x="158" y="214" width="23" height="17">
<path d="M180.148 214.063H158.893V230.698H180.148V214.063Z" fill="white"/>
</mask>
<g mask="url(#mask54_36_2091)">
<path d="M170.156 217.339C174.193 217.339 178.115 220.178 178.115 222.917C178.115 226.096 173.979 228.728 169.538 228.728C165.115 228.728 160.656 226.266 160.656 223.096C160.656 220.151 164.855 217.348 168.911 217.348M168.911 216.82H159.17V214.349H179.87V216.82H170.156M160.262 214.349H178.777C179.404 214.349 179.861 214.967 179.861 215.585V229.185C179.861 229.802 179.413 230.42 178.777 230.42H160.262C159.635 230.42 159.17 229.802 159.17 229.185V215.585C159.17 214.967 159.635 214.349 160.262 214.349ZM170.773 223.616C170.773 224.386 170.138 225.003 169.368 225.003C168.75 225.003 168.132 224.386 168.132 223.616C168.132 222.998 168.75 222.38 169.368 222.38C170.147 222.38 170.773 222.998 170.773 223.616ZM168.911 221.61V216.355C168.911 216.05 169.063 215.746 169.529 215.746C169.842 215.746 170.164 216.05 170.164 216.355V221.61H168.911Z" stroke="#1C1C1C" stroke-width="0.358129" stroke-miterlimit="10" stroke-linejoin="round"/>
</g>
<path d="M205.646 213.633H183.675V266.878H205.646V213.633Z" fill="white"/>
<mask id="mask55_36_2091" style="mask-type:luminance" maskUnits="userSpaceOnUse" x="183" y="213" width="23" height="55">
<path d="M205.924 213.364H183.397V267.164H205.924V213.364Z" fill="white"/>
</mask>
<g mask="url(#mask55_36_2091)">
<path d="M197.571 215.504H188.832V217.635H194.392M194.392 218.745H185.126V260.091C185.197 265.213 189.226 264.237 194.321 264.478C194.392 264.496 194.661 264.496 194.661 264.496H194.921C200.087 264.237 204.116 265.213 204.187 260.109V218.745H195.708M183.675 266.887H205.646V213.642H183.675V266.887ZM199.746 215.862C199.899 216.364 200.346 216.695 200.883 216.695C201.537 216.695 202.074 216.167 202.074 215.504C202.074 214.842 201.546 214.304 200.865 214.304C200.355 214.322 199.899 214.654 199.746 215.146C199.693 215.101 197.839 215.101 197.839 215.101C197.481 215.101 197.311 215.298 197.311 215.504C197.311 215.71 197.481 215.889 197.696 215.907H199.702L199.746 215.862ZM194.795 230.107C195.592 230.107 196.255 229.453 196.255 228.657C196.255 227.842 195.592 227.188 194.795 227.188C193.989 227.188 193.336 227.842 193.336 228.657C193.336 229.462 193.98 230.107 194.795 230.107ZM194.392 217.546V222.407H195.717V217.438C195.717 217.062 195.422 216.829 195.064 216.829C194.688 216.829 194.401 217.161 194.392 217.546Z" stroke="#1C1C1C" stroke-width="0.358129" stroke-miterlimit="10" stroke-linejoin="round"/>
</g>
<path d="M84.2945 255.283H72.3062V291.239H84.2945V255.283Z" stroke="black" stroke-width="0.447661" stroke-miterlimit="10"/>
<mask id="mask56_36_2091" style="mask-type:luminance" maskUnits="userSpaceOnUse" x="91" y="31" width="28" height="27">
<path d="M104.103 31.4962L91.8638 43.7321L105.967 57.8393L118.206 45.6034L104.103 31.4962Z" fill="white"/>
</mask>
<g mask="url(#mask56_36_2091)">
<path d="M105.746 41.9638L106.122 41.8653L106.498 41.722L106.847 41.5519L107.179 41.3371L107.483 41.0953L107.77 40.8267L108.02 40.5313L108.244 40.2179L108.432 39.8687L108.593 39.5106L108.71 39.1346L108.79 38.7496L108.835 38.3646L108.844 37.9706L108.799 37.5767L108.737 37.1917L108.62 36.8157L108.468 36.4575L108.289 36.1084L108.074 35.7861L107.832 35.4816L107.555 35.2041M106.668 38.5257L108.844 37.9527M105.764 36.1263L107 37.326M105.746 41.9548L105.469 41.6773L105.218 41.3729L105.003 41.0506L104.824 40.7014L104.672 40.3432L104.564 39.9672L104.493 39.5822L104.457 39.1883L104.466 38.8033L104.511 38.4093L104.591 38.0244L104.708 37.6573L104.869 37.2992L105.057 36.9589L105.281 36.6366L105.54 36.3412L105.818 36.0726L106.131 35.8398L106.454 35.6338L106.812 35.4548L107.179 35.3205L107.555 35.213L103.392 50.7827M107 46.6195L106.892 46.9955L106.83 47.3805L106.803 47.7744L106.812 48.1684L106.874 48.5623L106.964 48.9473L107.098 49.3144L107.259 49.6725L107.456 50.0127L107.698 50.3261L107.958 50.6216L108.244 50.8812L108.558 51.114L108.898 51.3109L109.256 51.4721L109.632 51.5975L110.008 51.687L110.393 51.7407L110.787 51.7586L111.172 51.7317L111.548 51.6691L111.933 51.5706M109.507 49.1353L108.916 51.302M112.04 49.5561L110.393 50.0217M107.009 46.6015L107.385 46.4941L107.77 46.4314L108.155 46.4046L108.54 46.4225L108.925 46.4852L109.31 46.5747L109.677 46.709L110.035 46.8791L110.366 47.0761L110.688 47.3178L110.975 47.5775L111.235 47.8729L111.476 48.1863L111.673 48.5265L111.834 48.8846L111.969 49.2517L112.049 49.6277L112.112 50.0127L112.13 50.4067L112.103 50.8006L112.04 51.1856L111.942 51.5616L100.473 40.0926M102.326 45.3839L102.228 45.7599L102.093 46.127L101.914 46.4762L101.708 46.8075L101.467 47.1119L101.198 47.3984L100.903 47.6491L100.58 47.8729L100.24 48.0609L99.8819 48.2221L99.4969 48.3385L99.1208 48.419L98.7359 48.4638L98.3508 48.4728L97.9659 48.437L97.5809 48.3653L97.2138 48.249L96.8377 48.0967L96.4975 47.9087L96.1663 47.7028L95.8708 47.4521L95.5933 47.1746L111.154 43.0113M98.9059 46.2882L98.3419 48.4638M96.5065 45.3839L97.6973 46.6195M102.344 45.366L102.075 45.0884L101.78 44.8467L101.449 44.6318L101.099 44.4438L100.732 44.2916L100.356 44.1842L99.9714 44.1125L99.5774 44.0768L99.1924 44.0857L98.8075 44.1305L98.4314 44.211L98.0554 44.3274L97.6973 44.4886L97.3481 44.6766L97.0258 44.9004L96.7393 45.1511L96.4707 45.4376L96.2379 45.751L96.023 46.0823L95.8529 46.4314L95.7097 46.7985L95.6112 47.1746M114.467 42.1249L114.144 41.7937L113.786 41.4982L113.401 41.2296L113.007 40.9968L112.595 40.7999L112.166 40.6298L111.727 40.5044L111.27 40.4149L110.805 40.3611L110.348 40.3432L109.883 40.3701L109.426 40.4328L108.969 40.5313L108.522 40.6656L108.101 40.8446L107.689 41.0506L107.304 41.2923L106.937 41.5698L106.579 41.8742L106.265 42.2055L105.979 42.5637L105.719 42.9486L105.487 43.3515L105.299 43.7723L105.137 44.211L105.021 44.6587M105.03 44.6497L105.352 44.9721L105.71 45.2675L106.095 45.5361L106.48 45.7779L106.892 45.9748L107.331 46.1449L107.77 46.2792L108.226 46.3688L108.692 46.4225L109.148 46.4314L109.614 46.4135L110.071 46.3509L110.527 46.2524L110.966 46.1091L111.396 45.93L111.799 45.7241L112.193 45.4824L112.56 45.2138L112.909 44.9094L113.231 44.5692L113.518 44.211L113.777 43.8261L114.01 43.4232L114.198 43.0024L114.35 42.5637L114.476 42.1249M105.03 44.6497L104.582 44.7661L104.144 44.9184L103.732 45.1153L103.329 45.3392L102.944 45.5988L102.586 45.8853L102.246 46.1987L101.941 46.5478L101.673 46.9239L101.431 47.3089L101.225 47.7207L101.046 48.1505L100.911 48.5892L100.813 49.0458L100.75 49.5024L100.723 49.959L100.741 50.4156L100.804 50.8812L100.894 51.3378L101.019 51.7765L101.189 52.2152L101.395 52.636L101.628 53.03L101.896 53.406L102.192 53.7552L102.514 54.0865M105.03 44.6497L105.146 44.2021L105.227 43.7455L105.281 43.2799V42.8233L105.245 42.3577L105.173 41.9011L105.066 41.4445L104.914 41.0058L104.734 40.585L104.52 40.1821L104.26 39.7971L103.982 39.43L103.669 39.0898L103.329 38.7764L102.962 38.4899L102.577 38.2392L102.174 38.0154L101.753 37.8364L101.314 37.6931L100.858 37.5857L100.41 37.514L99.9445 37.4782H99.479L99.0134 37.523L98.5657 37.6036L98.1091 37.72M102.505 54.0865L102.953 53.9701L103.383 53.8178L103.803 53.6298L104.206 53.406L104.582 53.1463L104.94 52.8599L105.281 52.5465L105.585 52.2063L105.854 51.8302L106.095 51.4363L106.301 51.0244L106.471 50.5947L106.615 50.156L106.713 49.7083L106.776 49.2517L106.803 48.7861L106.785 48.3295L106.731 47.8729L106.651 47.4252L106.516 46.9776L106.355 46.5478L106.149 46.136L105.916 45.7331L105.648 45.3571L105.352 45.0079L105.03 44.6856M98.1091 37.7379L97.9927 38.1855L97.9211 38.6421L97.8763 39.0988V39.5643L97.9121 40.0299L97.9748 40.4775L98.0912 40.9252L98.2434 41.3639L98.4225 41.7847L98.6374 42.1966L98.897 42.5816L99.1835 42.9486L99.4969 43.2889L99.8371 43.6022L100.204 43.8798L100.589 44.1394L100.992 44.3543L101.413 44.5423L101.852 44.6856L102.299 44.802L102.756 44.8736L103.221 44.9094L103.687 44.9004L104.144 44.8557L104.6 44.7751L105.048 44.6587M104.734 37.6036L104.242 37.6394L103.759 37.711L103.266 37.8184L102.801 37.9617L102.335 38.1318M110.608 40.3432L110.303 39.9672L109.963 39.618L109.596 39.2778L109.211 38.9734L108.808 38.6959M111.279 47.9177L111.494 47.479L111.673 47.0223L111.825 46.5568L111.942 46.0733L112.022 45.5898M105.979 51.6333L106.462 51.5527L106.946 51.4452L107.412 51.293L107.868 51.114L108.316 50.8991M99.0761 48.419L99.3536 48.822L99.658 49.2069L99.9803 49.574L100.338 49.9142L100.715 50.2276M98.512 41.9727L98.3419 42.4383L98.2076 42.9039L98.1091 43.3873L98.0375 43.8708L98.0017 44.3632" stroke="#1C1C1C" stroke-width="0.314258" stroke-miterlimit="10" stroke-linecap="square"/>
</g>
<mask id="mask57_36_2091" style="mask-type:luminance" maskUnits="userSpaceOnUse" x="77" y="259" width="5" height="11">
<path d="M81.3758 259.151H77.2842V269.107H81.3758V259.151Z" fill="white"/>
</mask>
<g mask="url(#mask57_36_2091)">
<path d="M79.2176 260.995H80.2293M80.2203 259.375H80.1308L80.0502 259.384L79.9786 259.393L79.907 259.402L79.8354 259.411L79.7637 259.446L79.6921 259.482L79.6294 259.518L79.5668 259.563L79.513 259.608L79.4593 259.652L79.4145 259.715L79.3698 259.787L79.325 259.849L79.2892 259.921L79.2624 259.984L79.2355 260.064L79.2176 260.136L79.2086 260.208V260.279M79.2086 260.288V260.986L78.0626 265.033H77.418L77.5433 265.114L77.6508 265.194L77.7582 265.275L77.8656 265.374L77.9641 265.472L78.0626 265.57M78.4834 267.898L78.5371 267.791L78.5819 267.692L78.6177 267.585L78.6535 267.478L78.6804 267.37L78.6983 267.263L78.7162 267.146L78.7252 267.039V266.931L78.7162 266.824L78.7072 266.708L78.6893 266.6L78.6625 266.493L78.6267 266.385L78.5909 266.278L78.5461 266.179L78.4924 266.081L78.4386 265.973L78.376 265.893L78.3044 265.794L78.2327 265.714L78.1611 265.642L78.0716 265.562M78.4745 267.898L78.4118 268.042L78.3402 268.185L78.2685 268.319L78.188 268.471L78.1074 268.588L78.0178 268.731L77.9283 268.865H80.2293M81.1425 259.375H80.2293V268.856H81.1425V259.375Z" stroke="#1C1C1C" stroke-width="0.358129" stroke-miterlimit="10"/>
</g>
<mask id="mask58_36_2091" style="mask-type:luminance" maskUnits="userSpaceOnUse" x="77" y="277" width="5" height="11">
<path d="M81.3758 277.622H77.2842V287.578H81.3758V277.622Z" fill="white"/>
</mask>
<g mask="url(#mask58_36_2091)">
<path d="M81.1427 277.846H80.2295V287.327H81.1427V277.846Z" stroke="#1C1C1C" stroke-width="0.358129" stroke-miterlimit="10"/>
</g>
<mask id="mask59_36_2091" style="mask-type:luminance" maskUnits="userSpaceOnUse" x="77" y="277" width="5" height="11">
<path d="M81.3758 277.622H77.2842V287.578H81.3758V277.622Z" fill="white"/>
</mask>
<g mask="url(#mask59_36_2091)">
<path d="M79.2176 279.466H80.2293M80.2203 277.846H80.1308L80.0502 277.855L79.9786 277.863L79.907 277.872L79.8354 277.881L79.7637 277.917L79.6921 277.953L79.6294 277.989L79.5668 278.034L79.513 278.078L79.4593 278.123L79.4145 278.186L79.3698 278.257L79.325 278.32L79.2892 278.392L79.2624 278.454L79.2355 278.535L79.2176 278.607L79.2086 278.678V278.75M79.2086 278.759V279.457L78.0626 283.504H77.418L77.5433 283.585L77.6508 283.665L77.7582 283.746L77.8656 283.844L77.9641 283.943L78.0626 284.041M78.4834 286.369L78.5371 286.262L78.5819 286.163L78.6177 286.056L78.6535 285.948L78.6804 285.841L78.6983 285.733L78.7162 285.617L78.7252 285.51V285.402L78.7162 285.295L78.7072 285.178L78.6893 285.071L78.6625 284.963L78.6267 284.856L78.5909 284.748L78.5461 284.65L78.4924 284.552L78.4386 284.444L78.376 284.364L78.3044 284.265L78.2327 284.184L78.1611 284.113L78.0716 284.032M78.4745 286.369L78.4118 286.512L78.3402 286.656L78.2685 286.79L78.188 286.942L78.1074 287.058L78.0178 287.202L77.9283 287.336H80.2293" stroke="#1C1C1C" stroke-width="0.358129" stroke-miterlimit="10"/>
</g>
<mask id="mask60_36_2091" style="mask-type:luminance" maskUnits="userSpaceOnUse" x="0" y="0" width="212" height="326">
<path d="M211.672 0H0V325.02H211.672V0Z" fill="white"/>
</mask>
<g mask="url(#mask60_36_2091)">
<path d="M191.322 271.283C186.147 271.283 181.876 273.718 181.876 277.093C181.876 280.343 186.138 282.904 191.322 282.904C193.014 282.904 194.563 282.671 195.861 282.206C196.121 282.206 196.443 282.089 196.443 281.857V272.447C196.443 272.214 196.13 271.981 195.861 271.981C194.563 271.516 193.023 271.157 191.322 271.283Z" fill="white"/>
</g>
<mask id="mask61_36_2091" style="mask-type:luminance" maskUnits="userSpaceOnUse" x="0" y="0" width="212" height="326">
<path d="M211.672 0H0V325.02H211.672V0Z" fill="white"/>
</mask>
<g mask="url(#mask61_36_2091)">
<path d="M195.861 271.972C194.563 271.507 193.014 271.157 191.322 271.283C186.147 271.283 181.876 273.718 181.876 277.093C181.876 280.343 186.138 282.904 191.322 282.904C193.014 282.904 194.563 282.671 195.861 282.206V271.972ZM195.861 271.972C196.121 271.972 196.443 272.205 196.443 272.438V281.847C196.443 282.08 196.121 282.197 195.861 282.197M199.756 273.431V280.773C199.756 281.086 199.532 281.355 199.218 281.4L196.443 281.839V272.429L199.2 272.796C199.523 272.85 199.756 273.118 199.756 273.431Z" stroke="#1C1C1C" stroke-width="0.358129" stroke-miterlimit="10" stroke-linejoin="round"/>
</g>
<mask id="mask62_36_2091" style="mask-type:luminance" maskUnits="userSpaceOnUse" x="24" y="273" width="43" height="19">
<path d="M66.7462 273.915H24.4243V291.893H66.7462V273.915Z" fill="white"/>
</mask>
<g mask="url(#mask62_36_2091)">
<path d="M-27.7463 341.216L24.4241 289.046L63.5497 249.92M-34.2732 341.216L24.4152 282.528M-40.7912 341.216L24.4241 276.001L50.5049 249.911M-47.3091 341.216L24.4241 269.483M-53.836 341.216L24.4152 262.965M-60.354 341.216L24.4241 256.438M-66.8809 341.216L24.4152 249.92M63.5497 341.216L115.72 289.046M57.0228 341.216L115.711 282.528M50.5049 341.216L115.72 276.001M43.9869 341.216L115.72 269.483M37.46 341.216L115.711 262.965M30.9421 341.216L115.72 256.438M24.4241 341.216L115.72 249.92M24.4241 334.698L109.202 249.92M24.4241 328.171L102.675 249.92M24.4241 321.653L96.1574 249.92M24.4241 315.135L89.6305 249.92M24.4241 308.609L83.1125 249.92M24.4241 302.091L76.5946 249.92M24.4241 295.564L70.0766 249.911M24.4241 282.528L57.0318 249.92" stroke="#1C1C1C" stroke-width="0.435127" stroke-linejoin="round"/>
</g>
<mask id="mask63_36_2091" style="mask-type:luminance" maskUnits="userSpaceOnUse" x="14" y="273" width="11" height="19">
<path d="M24.4152 273.915H14.1279V291.893H24.4152V273.915Z" fill="white"/>
</mask>
<g mask="url(#mask63_36_2091)">
<path d="M-27.7463 341.216L24.4241 289.046L63.5497 249.92M-34.2732 341.216L24.4152 282.528M-40.7912 341.216L24.4241 276.001L50.5049 249.911M-47.3091 341.216L24.4241 269.483M-53.836 341.216L24.4152 262.965M-60.354 341.216L24.4241 256.438M-66.8809 341.216L24.4152 249.92M-66.8809 334.698L17.8972 249.92M24.4241 341.216L115.72 249.92M24.4241 334.698L109.202 249.92M24.4241 328.171L102.675 249.92M24.4241 321.653L96.1574 249.92M24.4241 315.135L89.6305 249.92M24.4241 308.609L83.1125 249.92M24.4241 302.091L76.5946 249.92M24.4241 295.564L70.0766 249.911M24.4241 282.528L57.0318 249.92" stroke="#1C1C1C" stroke-width="0.435127" stroke-linejoin="round"/>
</g>
<path d="M206.058 267.317H200.023V282.483H201.51V268.91H206.058V267.317Z" fill="#A58038"/>
<path d="M206.058 267.317H200.023V282.483H201.51V268.91H206.058V267.317Z" stroke="#6B4F2B" stroke-width="0.447661" stroke-miterlimit="10"/>
<mask id="mask64_36_2091" style="mask-type:luminance" maskUnits="userSpaceOnUse" x="0" y="0" width="212" height="326">
<path d="M211.672 0H0V325.02H211.672V0Z" fill="white"/>
</mask>
<g mask="url(#mask64_36_2091)">
<path d="M106.946 324.438C118.899 323.113 130.968 312.897 132.185 296.969" stroke="#1C1C1C" stroke-width="0.895323" stroke-linecap="round" stroke-linejoin="round" stroke-dasharray="0.02 1.78"/>
</g>
<mask id="mask65_36_2091" style="mask-type:luminance" maskUnits="userSpaceOnUse" x="0" y="0" width="212" height="326">
<path d="M211.672 0H0V325.02H211.672V0Z" fill="white"/>
</mask>
<g mask="url(#mask65_36_2091)">
<path d="M132.239 296.083V296.074" stroke="#1C1C1C" stroke-width="0.895323" stroke-linecap="round" stroke-linejoin="round"/>
</g>
<mask id="mask66_36_2091" style="mask-type:luminance" maskUnits="userSpaceOnUse" x="0" y="0" width="212" height="326">
<path d="M211.672 0H0V325.02H211.672V0Z" fill="white"/>
</mask>
<g mask="url(#mask66_36_2091)">
<path d="M132.239 293.791H131.953V294.642H132.239V293.791ZM132.239 293.791H133.663V296.065H132.239V293.791ZM105.165 296.074H103.741V324.572H105.165V296.074ZM103.741 293.791H102.317V296.065H103.741V293.791Z" stroke="#1C1C1C" stroke-width="0.447661"/>
</g>
<mask id="mask67_36_2091" style="mask-type:luminance" maskUnits="userSpaceOnUse" x="0" y="0" width="212" height="326">
<path d="M211.672 0H0V325.02H211.672V0Z" fill="white"/>
</mask>
<g mask="url(#mask67_36_2091)">
<path d="M130.538 126.957C141.926 128.81 149.993 137.996 150.709 149.009" stroke="#1C1C1C" stroke-width="0.895323" stroke-linecap="round" stroke-linejoin="round" stroke-dasharray="0.04 1.8"/>
</g>
<mask id="mask68_36_2091" style="mask-type:luminance" maskUnits="userSpaceOnUse" x="0" y="0" width="212" height="326">
<path d="M211.672 0H0V325.02H211.672V0Z" fill="white"/>
</mask>
<g mask="url(#mask68_36_2091)">
<path d="M150.754 149.913C150.754 149.922 150.754 149.931 150.754 149.931M128.729 126.724C128.738 126.724 128.747 126.724 128.747 126.724" stroke="#1C1C1C" stroke-width="0.895323" stroke-linecap="round" stroke-linejoin="round"/>
</g>
<path d="M150.996 152.276H150.754V151.56H150.996V152.276ZM150.996 152.276H152.214V150.36H150.996V152.276ZM127.753 150.36H126.527V126.375H127.753V150.36ZM126.536 152.276H125.309V150.36H126.536V152.276Z" stroke="#1C1C1C" stroke-width="0.447661"/>
<mask id="mask69_36_2091" style="mask-type:luminance" maskUnits="userSpaceOnUse" x="0" y="0" width="212" height="326">
<path d="M211.672 0H0V325.02H211.672V0Z" fill="white"/>
</mask>
<g mask="url(#mask69_36_2091)">
<path d="M91.6901 233.062C89.98 243.044 81.8952 250.126 72.2168 250.798" stroke="#1C1C1C" stroke-width="0.895323" stroke-linecap="round" stroke-linejoin="round" stroke-dasharray="0.03 1.8"/>
</g>
<mask id="mask70_36_2091" style="mask-type:luminance" maskUnits="userSpaceOnUse" x="0" y="0" width="212" height="326">
<path d="M211.672 0H0V325.02H211.672V0Z" fill="white"/>
</mask>
<g mask="url(#mask70_36_2091)">
<path d="M71.3124 250.834C71.3034 250.834 71.3034 250.834 71.2944 250.834M91.9227 231.262C91.9227 231.271 91.9227 231.271 91.9227 231.28" stroke="#1C1C1C" stroke-width="0.895323" stroke-linecap="round" stroke-linejoin="round"/>
</g>
<path d="M70.9091 229.31H92.2357V230.393H70.9091V229.31ZM70.9091 229.31V228.227H69.208V229.31H70.9091ZM69.208 250.834H69.8437V251.048H69.208V250.834ZM69.208 251.057H70.9091V252.141H69.208V251.057Z" stroke="#1C1C1C" stroke-width="0.447661"/>
<mask id="mask71_36_2091" style="mask-type:luminance" maskUnits="userSpaceOnUse" x="0" y="0" width="212" height="326">
<path d="M211.672 0H0V325.02H211.672V0Z" fill="white"/>
</mask>
<g mask="url(#mask71_36_2091)">
<path d="M136.053 263.556C137.763 253.573 145.848 246.491 155.526 245.82" stroke="#1C1C1C" stroke-width="0.895323" stroke-linecap="round" stroke-linejoin="round" stroke-dasharray="0.03 1.8"/>
</g>
<mask id="mask72_36_2091" style="mask-type:luminance" maskUnits="userSpaceOnUse" x="0" y="0" width="212" height="326">
<path d="M211.672 0H0V325.02H211.672V0Z" fill="white"/>
</mask>
<g mask="url(#mask72_36_2091)">
<path d="M156.431 245.784C156.44 245.784 156.44 245.784 156.449 245.784M135.82 265.356C135.82 265.347 135.82 265.347 135.82 265.338" stroke="#1C1C1C" stroke-width="0.895323" stroke-linecap="round" stroke-linejoin="round"/>
</g>
<path d="M156.833 267.307H135.507V266.224H156.833V267.307ZM156.833 267.307V268.391H158.535V267.307H156.833ZM155.616 201.627H154.613V179.261H155.616V201.627ZM158.535 245.784H157.899V245.569H158.535V245.784ZM158.535 245.56H156.833V244.477H158.535V245.56Z" stroke="#1C1C1C" stroke-width="0.447661"/>
</svg>
