<svg width="281" height="307" viewBox="0 0 281 307" fill="none" xmlns="http://www.w3.org/2000/svg">
<g clip-path="url(#clip0_37_20053)">
<path d="M194.816 94.5669H13.4634V107.909H194.816V94.5669Z" fill="#D3DFE4"/>
<path d="M194.816 94.5669H13.4634V107.909H194.816V94.5669Z" stroke="#404F52" stroke-width="0.5" stroke-miterlimit="10"/>
<path d="M24.4585 247H13.6421V304.662H24.4585V247Z" fill="#D3DFE4"/>
<path d="M24.4585 247H13.6421V304.662H24.4585V247Z" stroke="#404F52" stroke-width="0.5" stroke-miterlimit="10"/>
<path d="M279.612 11.5137H184.978V22.5001H279.612V11.5137Z" fill="#D3DFE4"/>
<path d="M279.612 11.5137H184.978V22.5001H279.612V11.5137Z" stroke="#404F52" stroke-width="0.5" stroke-miterlimit="10"/>
<path d="M63.8888 102.28H30.8274V100.613H63.8888V102.28ZM64.4246 100.256H30.2832V102.637H64.4331V100.256H64.4246Z" fill="#30334D"/>
<path d="M62.5196 100.434H61.9839V102.458H62.5196V100.434Z" fill="#30334D"/>
<path d="M32.9195 100.434H32.3838V102.458H32.9195V100.434Z" fill="#30334D"/>
<path d="M62.1112 101.268H32.6553V101.625H62.1112V101.268Z" fill="#30334D"/>
<path d="M47.9703 102.288H46.4822V100.613H47.9703V102.288ZM46.0825 102.637H48.3955V100.256H46.0825V102.637Z" fill="#30334D"/>
<path d="M47.97 100.613H46.4819V102.288H47.97V100.613Z" fill="#D3DFE4"/>
<path d="M107.112 102.28H74.0503V100.613H107.112V102.28ZM107.647 100.256H73.4976V102.637H107.647V100.256Z" fill="#30334D"/>
<path d="M105.743 100.434H105.207V102.458H105.743V100.434Z" fill="#30334D"/>
<path d="M76.1422 100.434H75.6064V102.458H76.1422V100.434Z" fill="#30334D"/>
<path d="M105.334 101.268H75.8784V101.625H105.334V101.268Z" fill="#30334D"/>
<path d="M91.1934 102.288H89.7053V100.613H91.1934V102.288ZM89.3057 102.637H91.6186V100.256H89.3057V102.637Z" fill="#30334D"/>
<path d="M91.1932 100.613H89.7051V102.288H91.1932V100.613Z" fill="#D3DFE4"/>
<path d="M182.18 102.288H132.078V100.664H182.18V102.288ZM182.775 100.315H131.55V102.637H182.775V100.315Z" fill="#30334D"/>
<path d="M180.922 100.494H180.335V102.467H180.922V100.494Z" fill="#30334D"/>
<path d="M134.272 100.494H133.685V102.467H134.272V100.494Z" fill="#30334D"/>
<path d="M180.777 101.302H133.983V101.65H180.777V101.302Z" fill="#30334D"/>
<path d="M157.971 102.297H156.329V100.689H157.971V102.297ZM155.887 102.637H158.438V100.341H155.887V102.637Z" fill="#30334D"/>
<path d="M157.971 100.689H156.33V102.296H157.971V100.689Z" fill="#D3DFE4"/>
<path d="M54.8749 84.1757H40.5381V85.6722H54.8749V84.1757Z" fill="#D0D0D0"/>
<path d="M62.8341 84.1757H55.249V85.6722H62.8341V84.1757Z" fill="#D0D0D0"/>
<path d="M40.5382 84.1757H40.1641V85.6722H40.5382V84.1757Z" fill="#D0D0D0"/>
<path d="M55.2491 84.1757H54.875V85.6722H55.2491V84.1757Z" fill="#D0D0D0"/>
<path d="M63.2081 84.1757H62.834V85.6722H63.2081V84.1757Z" fill="#D0D0D0"/>
<path d="M40.1642 84.1757H32.6387V85.6722H40.1642V84.1757Z" fill="#D0D0D0"/>
<path d="M32.6385 84.1757H32.2559V85.6722H32.6385V84.1757Z" fill="#D0D0D0"/>
<path d="M64.8664 85.6893H63.1997V86.021H64.8664V85.6893Z" fill="#D0D0D0"/>
<path d="M64.8837 86.021H63.2085V95.5278H64.8837V86.021Z" fill="#D0D0D0"/>
<path d="M64.8664 85.6893H63.1997V86.021H64.8664V85.6893Z" fill="#D0D0D0"/>
<path d="M64.8752 84.1757H63.2085V85.6722H64.8752V84.1757Z" fill="#9D9D9C"/>
<path d="M63.2084 84.1757H64.8751V85.6722H63.2084M63.2084 84.1757V85.6722M63.2084 84.1757H62.8343M63.2084 85.6722H62.8343M64.3649 86.0209V95.5277M64.8751 86.0209H63.2084V85.6893H64.8751V86.0209ZM64.8751 86.0209H63.1999V95.5277H64.8751V86.0209ZM40.5382 84.6263H54.875M32.6385 84.6263H40.1641M55.2662 84.6263H62.8343M32.6385 84.1757H32.2559V85.6722H32.6385M32.6385 84.1757V85.6722M32.6385 84.1757H40.1641M32.6385 85.6722H40.1641M40.1641 84.1757V85.6722M40.1641 84.1757H40.5382M40.1641 85.6722H40.5382M62.8343 84.1757V85.6722M62.8343 84.1757H55.2492M62.8343 85.6722H55.2492M55.2492 84.1757H54.875M55.2492 84.1757V85.6722M54.875 84.1757V85.6722M54.875 84.1757H40.5382M54.875 85.6722H55.2492M54.875 85.6722H40.5382M40.5382 84.1757V85.6722" stroke="#1C1C1C" stroke-width="0.4" stroke-miterlimit="10"/>
<path d="M97.2816 84.1757H83.1318V85.6808H97.2816V84.1757Z" fill="#D0D0D0"/>
<path d="M105.139 84.1757H97.6558V85.6808H105.139V84.1757Z" fill="#D0D0D0"/>
<path d="M83.1408 84.1757H82.7666V85.6808H83.1408V84.1757Z" fill="#D0D0D0"/>
<path d="M97.6559 84.1757H97.2817V85.6808H97.6559V84.1757Z" fill="#D0D0D0"/>
<path d="M105.513 84.1757H105.139V85.6808H105.513V84.1757Z" fill="#D0D0D0"/>
<path d="M82.758 84.1757H75.3345V85.6808H82.758V84.1757Z" fill="#D0D0D0"/>
<path d="M75.3424 84.1757H74.9683V85.6808H75.3424V84.1757Z" fill="#D0D0D0"/>
<path d="M74.9602 86.0125H73.3105V95.5278H74.9602V86.0125Z" fill="#D0D0D0"/>
<path d="M74.9602 85.6722H73.3105V86.0039H74.9602V85.6722Z" fill="#D0D0D0"/>
<path d="M74.9602 84.1757H73.3105V85.6808H74.9602V84.1757Z" fill="#9D9D9C"/>
<path d="M74.9602 84.1757H73.3105V85.6808H74.9602M74.9602 84.1757V85.6808M74.9602 84.1757H75.3344M74.9602 85.6808H75.3344M83.132 84.6348H97.2818M75.3344 84.6348H82.7579M97.6729 84.6348H105.139M75.3344 84.1757V85.6808M75.3344 84.1757H82.7579M75.3344 85.6808H82.7579M82.7579 84.1757V85.6808M82.7579 84.1757H83.132M82.7579 85.6808H83.132M105.139 84.1757H105.513V85.6808H105.139M105.139 84.1757V85.6808M105.139 84.1757H97.6559M105.139 85.6808H97.6559M97.6559 84.1757H97.2818M97.6559 84.1757V85.6808M97.2818 84.1757V85.6808M97.2818 84.1757H83.132M97.2818 85.6808H97.6559M97.2818 85.6808H83.132M83.132 84.1757V85.6808M74.9602 85.6722H73.3105V86.0039H74.9602V85.6722ZM74.9602 86.0124H73.3105V95.5277H74.9602V86.0124Z" stroke="#1C1C1C" stroke-width="0.4" stroke-miterlimit="10"/>
<path d="M19.7473 252.476H21.414V276.821H19.7473V252.476ZM21.7711 252.076H19.3901V277.221H21.7711V252.076Z" fill="#30334D"/>
<path d="M21.5924 253.488H19.5601V253.879H21.5924V253.488Z" fill="#30334D"/>
<path d="M21.5924 275.282H19.5601V275.673H21.5924V275.282Z" fill="#30334D"/>
<path d="M20.7507 253.785H20.3936V275.478H20.7507V253.785Z" fill="#30334D"/>
<path d="M21.4224 265.758H19.7473V264.313H21.4224V265.758ZM19.3901 266.149H21.7711V263.905H19.3901V266.149Z" fill="#30334D"/>
<path d="M21.4223 264.313H19.7471V265.758H21.4223V264.313Z" fill="#D3DFE4"/>
<path d="M264.468 19.7024H214.867V17.7126H264.468V19.7024ZM265.284 17.2789H214.06V20.1276H265.284V17.2789Z" fill="#30334D"/>
<path d="M262.589 17.4916H262.002V19.9151H262.589V17.4916Z" fill="#30334D"/>
<path d="M217.316 17.4916H216.729V19.9151H217.316V17.4916Z" fill="#30334D"/>
<path d="M262.3 18.4865H217.019V18.9116H262.3V18.4865Z" fill="#30334D"/>
<path d="M240.633 19.7026H238.762V17.6873H240.633V19.7026ZM238.252 20.1278H241.16V17.2621H238.252V20.1278Z" fill="#30334D"/>
<path d="M240.625 17.6873H238.754V19.7026H240.625V17.6873Z" fill="#D3DFE4"/>
<path d="M159.076 268.318H157.979V269.755H157.418V268.318H154.331V267.918L157.231 264.287H157.851L155.062 267.825H157.435V266.558H157.979V267.825H159.076V268.318Z" fill="black"/>
<mask id="mask0_37_20053" style="mask-type:luminance" maskUnits="userSpaceOnUse" x="-63" y="0" width="344" height="307">
<path d="M280.59 0H-63V306.83H280.59V0Z" fill="white"/>
</mask>
<g mask="url(#mask0_37_20053)">
<path d="M160.615 269.372C160.615 269.508 160.581 269.602 160.505 269.823L160.182 270.903H159.808L160.071 269.772C159.91 269.729 159.791 269.576 159.791 269.372C159.791 269.126 159.969 268.947 160.207 268.947C160.437 268.947 160.615 269.134 160.615 269.372Z" fill="black"/>
</g>
<path d="M163.464 264.287V269.755H162.903V264.789H161.619V264.287H163.464Z" fill="black"/>
<path d="M165.981 264.287V269.755H165.42V264.789H164.127V264.287H165.981Z" fill="black"/>
<mask id="mask1_37_20053" style="mask-type:luminance" maskUnits="userSpaceOnUse" x="-63" y="0" width="344" height="307">
<path d="M280.59 0H-63V306.83H280.59V0Z" fill="white"/>
</mask>
<g mask="url(#mask1_37_20053)">
<path d="M71.8731 210.29V210.792H68.038V210.392L70.3085 208.165C70.5976 207.884 70.7847 207.637 70.8867 207.433C70.9887 207.229 71.0397 207.025 71.0397 206.812C71.0397 206.489 70.9292 206.243 70.7081 206.056C70.487 205.877 70.1724 205.784 69.7642 205.784C69.1265 205.784 68.6248 205.988 68.2761 206.396L67.8765 206.056C68.0891 205.809 68.3612 205.613 68.6928 205.477C69.0244 205.341 69.3986 205.273 69.8153 205.273C70.368 205.273 70.8102 205.401 71.1333 205.664C71.4564 205.928 71.6265 206.285 71.6265 206.744C71.6265 207.025 71.5585 207.297 71.4394 207.552C71.3119 207.816 71.0823 208.113 70.7336 208.454L68.8799 210.282H71.8731V210.29Z" fill="black"/>
</g>
<mask id="mask2_37_20053" style="mask-type:luminance" maskUnits="userSpaceOnUse" x="-63" y="0" width="344" height="307">
<path d="M280.59 0H-63V306.83H280.59V0Z" fill="white"/>
</mask>
<g mask="url(#mask2_37_20053)">
<path d="M75.5636 210.061C75.8017 209.882 75.9973 209.627 76.1334 209.287C76.2694 208.947 76.3375 208.539 76.3375 208.063C76.3375 207.586 76.2694 207.178 76.1334 206.838C75.9973 206.498 75.8102 206.243 75.5636 206.064C75.3255 205.886 75.0449 205.801 74.7218 205.801C74.4072 205.801 74.1265 205.886 73.8799 206.064C73.6333 206.243 73.4548 206.498 73.3102 206.838C73.1742 207.178 73.1061 207.586 73.1061 208.063C73.1061 208.539 73.1742 208.947 73.3102 209.287C73.4463 209.627 73.6333 209.882 73.8799 210.061C74.1265 210.239 74.3987 210.324 74.7218 210.324C75.0449 210.324 75.3255 210.239 75.5636 210.061ZM73.5993 210.503C73.2677 210.282 73.0126 209.959 72.8255 209.542C72.6384 209.125 72.5449 208.632 72.5449 208.063C72.5449 207.493 72.6384 207 72.8255 206.583C73.0126 206.166 73.2677 205.843 73.5993 205.622C73.931 205.401 74.3051 205.282 74.7303 205.282C75.1555 205.282 75.5296 205.392 75.8613 205.622C76.1929 205.843 76.448 206.166 76.6351 206.583C76.8222 207 76.9157 207.493 76.9157 208.063C76.9157 208.632 76.8222 209.125 76.6351 209.542C76.448 209.959 76.1844 210.282 75.8613 210.503C75.5296 210.724 75.1555 210.835 74.7303 210.835C74.3051 210.835 73.931 210.733 73.5993 210.503Z" fill="black"/>
</g>
<mask id="mask3_37_20053" style="mask-type:luminance" maskUnits="userSpaceOnUse" x="-63" y="0" width="344" height="307">
<path d="M280.59 0H-63V306.83H280.59V0Z" fill="white"/>
</mask>
<g mask="url(#mask3_37_20053)">
<path d="M77.5024 210.103C77.5789 210.188 77.6214 210.282 77.6214 210.401C77.6214 210.46 77.6129 210.528 77.5959 210.605C77.5789 210.681 77.5534 210.758 77.5109 210.851L77.1792 211.931H76.8051L77.0687 210.8C76.9837 210.775 76.9156 210.724 76.8646 210.656C76.8136 210.588 76.7881 210.503 76.7881 210.401C76.7881 210.282 76.8306 210.18 76.9071 210.103C76.9837 210.018 77.0857 209.984 77.2047 209.984C77.3238 209.984 77.4258 210.027 77.5024 210.103Z" fill="black"/>
</g>
<mask id="mask4_37_20053" style="mask-type:luminance" maskUnits="userSpaceOnUse" x="-63" y="0" width="344" height="307">
<path d="M280.59 0H-63V306.83H280.59V0Z" fill="white"/>
</mask>
<g mask="url(#mask4_37_20053)">
<path d="M80.0533 207.459C80.2914 207.637 80.6231 207.722 81.0482 207.722C81.4649 207.722 81.805 207.637 82.0431 207.459C82.2897 207.28 82.4088 207.042 82.4088 206.744C82.4088 206.438 82.2812 206.192 82.0346 206.022C81.788 205.843 81.4564 205.758 81.0482 205.758C80.6316 205.758 80.2999 205.843 80.0618 206.022C79.8152 206.2 79.6962 206.438 79.6962 206.736C79.6877 207.042 79.8067 207.289 80.0533 207.459ZM82.1792 210.069C82.4513 209.874 82.5873 209.602 82.5873 209.27C82.5873 208.93 82.4513 208.666 82.1792 208.471C81.9071 208.275 81.5244 208.182 81.0482 208.182C80.572 208.182 80.1894 208.275 79.9173 208.471C79.6451 208.666 79.5091 208.93 79.5091 209.27C79.5091 209.61 79.6451 209.882 79.9173 210.078C80.1894 210.273 80.5635 210.367 81.0482 210.367C81.5329 210.367 81.8986 210.265 82.1792 210.069ZM82.8849 208.445C83.072 208.675 83.1571 208.947 83.1571 209.27C83.1571 209.585 83.072 209.865 82.902 210.103C82.7319 210.341 82.4853 210.52 82.1622 210.648C81.839 210.775 81.4649 210.835 81.0312 210.835C80.3764 210.835 79.8577 210.69 79.4836 210.418C79.1094 210.137 78.9224 209.755 78.9224 209.27C78.9224 208.938 79.0159 208.666 79.1945 208.437C79.373 208.207 79.6366 208.037 79.9768 207.926C79.6962 207.816 79.4836 207.663 79.339 207.45C79.1945 207.246 79.1179 207 79.1179 206.719C79.1179 206.277 79.288 205.928 79.6366 205.664C79.9853 205.409 80.4445 205.273 81.0312 205.273C81.4139 205.273 81.754 205.333 82.0431 205.452C82.3322 205.571 82.5533 205.733 82.7149 205.954C82.8765 206.175 82.9615 206.43 82.9615 206.719C82.9615 207 82.885 207.246 82.7319 207.45C82.5788 207.654 82.3663 207.816 82.0856 207.926C82.4343 208.045 82.6979 208.216 82.8849 208.445Z" fill="black"/>
</g>
<path d="M87.7748 205.333V205.732L85.4874 210.792H84.8837L87.1286 205.826H84.3224V206.855H83.7612V205.333H87.7748Z" fill="black"/>
<path d="M152.656 175.069V180.537H152.095V175.571H150.811V175.069H152.656Z" fill="black"/>
<mask id="mask5_37_20053" style="mask-type:luminance" maskUnits="userSpaceOnUse" x="-63" y="0" width="344" height="307">
<path d="M280.59 0H-63V306.83H280.59V0Z" fill="white"/>
</mask>
<g mask="url(#mask5_37_20053)">
<path d="M156.959 179.797C157.205 179.618 157.392 179.363 157.528 179.023C157.664 178.683 157.732 178.275 157.732 177.799C157.732 177.322 157.664 176.914 157.528 176.574C157.392 176.234 157.205 175.979 156.959 175.8C156.712 175.622 156.44 175.537 156.117 175.537C155.802 175.537 155.522 175.622 155.275 175.8C155.028 175.979 154.841 176.234 154.705 176.574C154.569 176.914 154.501 177.322 154.501 177.799C154.501 178.275 154.569 178.683 154.705 179.023C154.841 179.363 155.028 179.618 155.275 179.797C155.513 179.975 155.794 180.061 156.117 180.061C156.431 180.061 156.712 179.975 156.959 179.797ZM154.986 180.248C154.654 180.027 154.399 179.703 154.212 179.287C154.025 178.87 153.94 178.377 153.94 177.807C153.94 177.237 154.033 176.744 154.212 176.328C154.399 175.911 154.654 175.588 154.986 175.367C155.317 175.146 155.692 175.026 156.117 175.026C156.542 175.026 156.916 175.137 157.248 175.367C157.579 175.588 157.835 175.911 158.022 176.328C158.209 176.744 158.302 177.237 158.302 177.807C158.302 178.377 158.209 178.87 158.022 179.287C157.835 179.703 157.579 180.027 157.248 180.248C156.916 180.469 156.542 180.579 156.117 180.579C155.692 180.579 155.317 180.469 154.986 180.248Z" fill="black"/>
</g>
<mask id="mask6_37_20053" style="mask-type:luminance" maskUnits="userSpaceOnUse" x="-63" y="0" width="344" height="307">
<path d="M280.59 0H-63V306.83H280.59V0Z" fill="white"/>
</mask>
<g mask="url(#mask6_37_20053)">
<path d="M160.505 179.84C160.581 179.925 160.624 180.018 160.624 180.137C160.624 180.197 160.615 180.265 160.598 180.341C160.581 180.418 160.556 180.494 160.513 180.588L160.19 181.668H159.816L160.079 180.537C159.994 180.511 159.926 180.46 159.875 180.392C159.824 180.324 159.799 180.239 159.799 180.137C159.799 180.018 159.841 179.916 159.918 179.84C159.994 179.754 160.096 179.72 160.215 179.72C160.326 179.72 160.428 179.763 160.505 179.84Z" fill="black"/>
</g>
<path d="M163.481 175.069V180.537H162.92V175.571H161.636V175.069H163.481Z" fill="black"/>
<mask id="mask7_37_20053" style="mask-type:luminance" maskUnits="userSpaceOnUse" x="-63" y="0" width="344" height="307">
<path d="M280.59 0H-63V306.83H280.59V0Z" fill="white"/>
</mask>
<g mask="url(#mask7_37_20053)">
<path d="M167.775 179.797C168.022 179.618 168.209 179.363 168.345 179.023C168.481 178.683 168.549 178.275 168.549 177.799C168.549 177.322 168.481 176.914 168.345 176.574C168.209 176.234 168.022 175.979 167.775 175.8C167.537 175.622 167.256 175.537 166.933 175.537C166.619 175.537 166.338 175.622 166.091 175.8C165.845 175.979 165.658 176.234 165.522 176.574C165.386 176.914 165.318 177.322 165.318 177.799C165.318 178.275 165.386 178.683 165.522 179.023C165.658 179.363 165.845 179.618 166.091 179.797C166.338 179.975 166.61 180.061 166.933 180.061C167.256 180.061 167.537 179.975 167.775 179.797ZM165.811 180.248C165.479 180.027 165.224 179.703 165.037 179.287C164.85 178.87 164.756 178.377 164.756 177.807C164.756 177.237 164.85 176.744 165.037 176.328C165.224 175.911 165.479 175.588 165.811 175.367C166.142 175.146 166.517 175.026 166.942 175.026C167.358 175.026 167.741 175.137 168.073 175.367C168.404 175.588 168.659 175.911 168.847 176.328C169.034 176.744 169.127 177.237 169.127 177.807C169.127 178.377 169.034 178.87 168.847 179.287C168.659 179.703 168.404 180.027 168.073 180.248C167.741 180.469 167.367 180.579 166.942 180.579C166.517 180.579 166.142 180.469 165.811 180.248Z" fill="black"/>
</g>
<path d="M205.454 118.215V123.683H204.893V118.708H203.6V118.215H205.454Z" fill="black"/>
<mask id="mask8_37_20053" style="mask-type:luminance" maskUnits="userSpaceOnUse" x="-63" y="0" width="344" height="307">
<path d="M280.59 0H-63V306.83H280.59V0Z" fill="white"/>
</mask>
<g mask="url(#mask8_37_20053)">
<path d="M210.352 122.11C210.352 123.028 209.689 123.725 208.371 123.725C207.58 123.725 206.823 123.453 206.406 123.019L206.678 122.577C207.027 122.943 207.665 123.207 208.371 123.207C209.28 123.207 209.774 122.781 209.774 122.101C209.774 121.446 209.314 121.013 208.294 121.013H207.903V120.596L209.416 118.7H206.619V118.198H210.131V118.598L208.583 120.545C209.765 120.621 210.352 121.234 210.352 122.11Z" fill="black"/>
</g>
<mask id="mask9_37_20053" style="mask-type:luminance" maskUnits="userSpaceOnUse" x="-63" y="0" width="344" height="307">
<path d="M280.59 0H-63V306.83H280.59V0Z" fill="white"/>
</mask>
<g mask="url(#mask9_37_20053)">
<path d="M211.899 123.292C211.899 123.428 211.865 123.521 211.789 123.742L211.457 124.822H211.083L211.347 123.691C211.185 123.649 211.066 123.496 211.066 123.292C211.066 123.045 211.244 122.866 211.483 122.866C211.729 122.866 211.899 123.053 211.899 123.292Z" fill="black"/>
</g>
<mask id="mask10_37_20053" style="mask-type:luminance" maskUnits="userSpaceOnUse" x="-63" y="0" width="344" height="307">
<path d="M280.59 0H-63V306.83H280.59V0Z" fill="white"/>
</mask>
<g mask="url(#mask10_37_20053)">
<path d="M214.884 120.613C215.735 120.613 216.245 120.23 216.245 119.635C216.245 119.014 215.701 118.64 214.884 118.64C214.059 118.64 213.532 119.014 213.532 119.627C213.532 120.23 214.034 120.613 214.884 120.613ZM216.432 122.152C216.432 121.48 215.854 121.055 214.884 121.055C213.915 121.055 213.345 121.48 213.345 122.152C213.345 122.832 213.915 123.257 214.884 123.257C215.854 123.249 216.432 122.832 216.432 122.152ZM217.01 122.161C217.01 123.13 216.185 123.734 214.884 123.734C213.575 123.734 212.775 123.13 212.775 122.161C212.775 121.506 213.15 121.047 213.83 120.817C213.277 120.596 212.971 120.188 212.971 119.61C212.971 118.717 213.728 118.164 214.884 118.164C216.041 118.164 216.815 118.717 216.815 119.61C216.815 120.179 216.5 120.596 215.939 120.817C216.619 121.038 217.01 121.506 217.01 122.161Z" fill="black"/>
</g>
<mask id="mask11_37_20053" style="mask-type:luminance" maskUnits="userSpaceOnUse" x="-63" y="0" width="344" height="307">
<path d="M280.59 0H-63V306.83H280.59V0Z" fill="white"/>
</mask>
<g mask="url(#mask11_37_20053)">
<path d="M221.551 120.945C221.551 119.482 220.896 118.683 219.944 118.683C218.991 118.683 218.337 119.49 218.337 120.945C218.337 122.407 218.991 123.206 219.944 123.206C220.888 123.215 221.551 122.407 221.551 120.945ZM217.758 120.945C217.758 119.201 218.677 118.164 219.935 118.164C221.202 118.164 222.121 119.201 222.121 120.945C222.121 122.688 221.202 123.725 219.935 123.725C218.677 123.725 217.758 122.688 217.758 120.945Z" fill="black"/>
</g>
<mask id="mask12_37_20053" style="mask-type:luminance" maskUnits="userSpaceOnUse" x="-63" y="0" width="344" height="307">
<path d="M280.59 0H-63V306.83H280.59V0Z" fill="white"/>
</mask>
<g mask="url(#mask12_37_20053)">
<path d="M208.472 222.051C208.472 221.447 207.971 220.877 207.027 220.877C206.236 220.877 205.692 221.336 205.692 222.068C205.692 222.79 206.219 223.25 207.069 223.25C207.903 223.25 208.472 222.731 208.472 222.051ZM209.246 223.139C209.246 225.001 208.226 225.971 206.746 225.971C206.253 225.971 205.794 225.886 205.445 225.673L205.675 225.222C205.955 225.409 206.33 225.477 206.738 225.477C207.92 225.477 208.677 224.721 208.677 223.233C208.677 223.105 208.668 222.952 208.651 222.79C208.379 223.394 207.741 223.726 206.984 223.726C205.896 223.726 205.139 223.088 205.139 222.085C205.139 221.064 205.947 220.401 207.01 220.401C208.455 220.401 209.246 221.413 209.246 223.139Z" fill="black"/>
</g>
<mask id="mask13_37_20053" style="mask-type:luminance" maskUnits="userSpaceOnUse" x="-63" y="0" width="344" height="307">
<path d="M280.59 0H-63V306.83H280.59V0Z" fill="white"/>
</mask>
<g mask="url(#mask13_37_20053)">
<path d="M210.462 225.528C210.462 225.664 210.428 225.758 210.352 225.979L210.02 227.059H209.646L209.91 225.928C209.748 225.886 209.629 225.733 209.629 225.528C209.629 225.282 209.807 225.103 210.046 225.103C210.292 225.103 210.462 225.299 210.462 225.528Z" fill="black"/>
</g>
<mask id="mask14_37_20053" style="mask-type:luminance" maskUnits="userSpaceOnUse" x="-63" y="0" width="344" height="307">
<path d="M280.59 0H-63V306.83H280.59V0Z" fill="white"/>
</mask>
<g mask="url(#mask14_37_20053)">
<path d="M215.36 224.304C215.36 223.581 214.833 223.122 213.983 223.122C213.149 223.122 212.58 223.641 212.58 224.313C212.58 224.916 213.081 225.486 214.025 225.486C214.816 225.486 215.36 225.027 215.36 224.304ZM215.913 224.287C215.913 225.307 215.105 225.971 214.042 225.971C212.588 225.971 211.797 224.959 211.797 223.233C211.797 221.37 212.818 220.409 214.297 220.409C214.791 220.409 215.25 220.494 215.598 220.707L215.369 221.158C215.088 220.971 214.714 220.903 214.306 220.903C213.124 220.903 212.367 221.659 212.367 223.148C212.367 223.275 212.376 223.428 212.393 223.59C212.665 222.986 213.302 222.654 214.059 222.654C215.156 222.646 215.913 223.284 215.913 224.287Z" fill="black"/>
</g>
<path d="M218.048 220.452V225.92H217.487V220.954H216.203V220.452H218.048Z" fill="black"/>
<path d="M207.656 263.343V268.811H207.095V263.845H205.803V263.343H207.656Z" fill="black"/>
<mask id="mask15_37_20053" style="mask-type:luminance" maskUnits="userSpaceOnUse" x="-63" y="0" width="344" height="307">
<path d="M280.59 0H-63V306.83H280.59V0Z" fill="white"/>
</mask>
<g mask="url(#mask15_37_20053)">
<path d="M211.296 268.428C211.296 268.564 211.262 268.658 211.185 268.879L210.862 269.959H210.488L210.752 268.828C210.59 268.785 210.471 268.632 210.471 268.428C210.471 268.182 210.65 268.003 210.888 268.003C211.126 268.003 211.296 268.19 211.296 268.428Z" fill="black"/>
</g>
<mask id="mask16_37_20053" style="mask-type:luminance" maskUnits="userSpaceOnUse" x="-63" y="0" width="344" height="307">
<path d="M280.59 0H-63V306.83H280.59V0Z" fill="white"/>
</mask>
<g mask="url(#mask16_37_20053)">
<path d="M216.194 267.195C216.194 266.481 215.667 266.013 214.816 266.013C213.983 266.013 213.413 266.532 213.413 267.204C213.413 267.808 213.915 268.377 214.859 268.377C215.65 268.386 216.194 267.927 216.194 267.195ZM216.747 267.178C216.747 268.199 215.939 268.862 214.876 268.862C213.422 268.862 212.631 267.859 212.631 266.132C212.631 264.27 213.643 263.301 215.131 263.301C215.624 263.301 216.083 263.386 216.432 263.598L216.202 264.049C215.922 263.862 215.548 263.794 215.139 263.794C213.957 263.794 213.201 264.551 213.201 266.03C213.201 266.158 213.209 266.311 213.226 266.481C213.498 265.877 214.136 265.546 214.901 265.546C215.99 265.546 216.747 266.183 216.747 267.178Z" fill="black"/>
</g>
<mask id="mask17_37_20053" style="mask-type:luminance" maskUnits="userSpaceOnUse" x="-63" y="0" width="344" height="307">
<path d="M280.59 0H-63V306.83H280.59V0Z" fill="white"/>
</mask>
<g mask="url(#mask17_37_20053)">
<path d="M220.539 264.951C220.539 264.347 220.037 263.777 219.093 263.777C218.302 263.777 217.758 264.236 217.758 264.968C217.758 265.69 218.286 266.15 219.136 266.15C219.969 266.141 220.539 265.631 220.539 264.951ZM221.313 266.03C221.313 267.893 220.292 268.862 218.813 268.862C218.32 268.862 217.86 268.777 217.52 268.565L217.75 268.114C218.03 268.301 218.405 268.369 218.813 268.369C219.995 268.369 220.751 267.612 220.751 266.124C220.751 265.996 220.743 265.843 220.726 265.682C220.454 266.286 219.816 266.617 219.051 266.617C217.962 266.617 217.206 265.979 217.206 264.976C217.206 263.956 218.013 263.292 219.076 263.292C220.53 263.301 221.313 264.304 221.313 266.03Z" fill="black"/>
</g>
<mask id="mask18_37_20053" style="mask-type:luminance" maskUnits="userSpaceOnUse" x="-63" y="0" width="344" height="307">
<path d="M280.59 0H-63V306.83H280.59V0Z" fill="white"/>
</mask>
<g mask="url(#mask18_37_20053)">
<path d="M236.559 158.19V158.691H232.724V158.292L234.995 156.064C235.615 155.452 235.726 155.086 235.726 154.712C235.726 154.083 235.284 153.691 234.442 153.691C233.804 153.691 233.311 153.887 232.954 154.304L232.554 153.963C232.979 153.462 233.651 153.181 234.493 153.181C235.607 153.181 236.304 153.742 236.304 154.661C236.304 155.188 236.143 155.656 235.411 156.37L233.549 158.198H236.559V158.19Z" fill="black"/>
</g>
<mask id="mask19_37_20053" style="mask-type:luminance" maskUnits="userSpaceOnUse" x="-63" y="0" width="344" height="307">
<path d="M280.59 0H-63V306.83H280.59V0Z" fill="white"/>
</mask>
<g mask="url(#mask19_37_20053)">
<path d="M237.988 158.292C237.988 158.428 237.954 158.521 237.878 158.742L237.546 159.822H237.172L237.435 158.691C237.274 158.649 237.155 158.496 237.155 158.292C237.155 158.045 237.333 157.867 237.571 157.867C237.818 157.875 237.988 158.062 237.988 158.292Z" fill="black"/>
</g>
<path d="M243.975 157.246H242.886V158.683H242.325V157.246H239.238V156.838L242.138 153.215H242.759L239.961 156.744H242.334V155.486H242.886V156.744H243.975V157.246Z" fill="black"/>
<mask id="mask20_37_20053" style="mask-type:luminance" maskUnits="userSpaceOnUse" x="-63" y="0" width="344" height="307">
<path d="M280.59 0H-63V306.83H280.59V0Z" fill="white"/>
</mask>
<g mask="url(#mask20_37_20053)">
<path d="M248.201 158.19V158.691H244.366V158.292L246.636 156.064C247.257 155.452 247.367 155.086 247.367 154.712C247.367 154.083 246.925 153.691 246.083 153.691C245.446 153.691 244.952 153.887 244.587 154.304L244.187 153.963C244.604 153.462 245.292 153.181 246.126 153.181C247.231 153.181 247.937 153.742 247.937 154.661C247.937 155.188 247.775 155.656 247.036 156.37L245.182 158.198H248.201V158.19Z" fill="black"/>
</g>
<mask id="mask21_37_20053" style="mask-type:luminance" maskUnits="userSpaceOnUse" x="197" y="1" width="10" height="12">
<path d="M206.959 1.59863H197.129V12.2365H206.959V1.59863Z" fill="white"/>
</mask>
<g mask="url(#mask21_37_20053)">
<path d="M187.844 1.5647L200.233 -10.8248M122.809 85.1791L197.13 10.859M116.61 85.1791L197.13 4.65996M110.42 85.1791L197.13 -1.53055M203.329 85.1791L283.848 4.65996M197.13 85.1791L283.839 -1.53055M197.13 78.9801L277.649 -1.53906M197.13 72.7896L271.45 -1.53055M197.13 66.5991L265.259 -1.53055M197.13 60.4001L259.069 -1.53906M197.13 54.2096L252.87 -1.53055M197.13 48.019L246.679 -1.53055M197.13 41.82L240.489 -1.53906M197.13 35.6295L234.29 -1.53055M197.13 29.4305L228.099 -1.53906M197.13 23.24L221.9 -1.53906M190.939 10.8505L209.519 -7.72957M194.034 13.9542L212.614 -4.62581M197.13 17.0495L215.71 -1.53055" stroke="#1C1C1C" stroke-width="0.486" stroke-linejoin="round"/>
</g>
<mask id="mask22_37_20053" style="mask-type:luminance" maskUnits="userSpaceOnUse" x="184" y="1" width="14" height="12">
<path d="M197.129 1.59863H184.195V12.2365H197.129V1.59863Z" fill="white"/>
</mask>
<g mask="url(#mask22_37_20053)">
<path d="M187.843 1.5647L200.233 -10.8248M122.809 85.1791L197.129 10.859M116.61 85.1791L197.129 4.65996M110.419 85.1791L197.129 -1.53055M110.419 78.9801L190.939 -1.53906M110.419 72.7896L184.74 -1.53055M197.129 85.1791L283.839 -1.53055M197.129 78.9801L277.648 -1.53906M197.129 72.7896L271.449 -1.53055M197.129 66.5991L265.259 -1.53055M197.129 60.4001L259.068 -1.53906M197.129 54.2096L252.869 -1.53055M197.129 48.019L246.679 -1.53055M197.129 41.82L240.488 -1.53906M197.129 35.6295L234.289 -1.53055M197.129 29.4305L228.099 -1.53906M197.129 23.24L221.9 -1.53906M190.939 10.8505L209.519 -7.72957M194.034 13.9542L212.614 -4.62581M197.129 17.0495L215.709 -1.53055" stroke="#1C1C1C" stroke-width="0.486" stroke-linejoin="round"/>
</g>
<mask id="mask23_37_20053" style="mask-type:luminance" maskUnits="userSpaceOnUse" x="-63" y="0" width="344" height="307">
<path d="M280.59 0H-63V306.83H280.59V0Z" fill="white"/>
</mask>
<g mask="url(#mask23_37_20053)">
<path d="M206.959 0.850342H184.195V12.2365H206.959V0.850342Z" stroke="#9D9D9C" stroke-width="2" stroke-miterlimit="10" stroke-linecap="square"/>
</g>
<mask id="mask24_37_20053" style="mask-type:luminance" maskUnits="userSpaceOnUse" x="110" y="85" width="19" height="11">
<path d="M128.711 85.1791H110.42V95.0431H128.711V85.1791Z" fill="white"/>
</mask>
<g mask="url(#mask24_37_20053)">
<path d="M101.134 88.2744L113.524 75.8849M98.0306 85.1792L110.42 72.7896M91.8401 85.1792L110.42 66.5991M85.6496 85.1792L110.42 60.4086M79.4506 85.1792L110.42 54.2096M73.2601 85.1792L110.42 48.0191M67.0696 85.1792L110.429 41.8201M60.8705 85.1792L110.42 35.6296M54.68 85.1792L110.42 29.439M48.481 85.1792L110.42 23.24M42.2905 85.1792L110.42 17.0495M36.1 85.1792L110.42 10.859M29.901 85.1792L110.42 4.65999M23.7104 85.1792L110.42 -1.53052M197.13 17.0495L129 85.1792L110.42 103.759M122.81 85.1792L197.13 10.859M116.611 85.1792L197.13 4.65999M197.13 -1.53052L110.42 85.1792L23.7104 171.889M29.901 171.889L110.42 91.3697M116.611 171.889L197.13 91.3697M110.42 171.889L197.13 85.1792M110.42 165.698L190.939 85.1792M110.42 159.499L184.74 85.1792M110.42 153.309L178.55 85.1792M110.42 147.11L172.359 85.1707M110.42 140.919L166.16 85.1792M110.42 134.729L159.97 85.1792M110.42 128.53L153.779 85.1707M110.42 122.339L147.58 85.1792M110.42 116.149L141.39 85.1792M110.42 109.95L135.191 85.1707M104.23 97.5687L122.81 78.9887M107.325 100.664L125.905 82.0839" stroke="#1C1C1C" stroke-width="0.486" stroke-linejoin="round"/>
</g>
<mask id="mask25_37_20053" style="mask-type:luminance" maskUnits="userSpaceOnUse" x="110" y="83" width="19" height="3">
<path d="M128.711 83.657H110.42V85.1791H128.711V83.657Z" fill="white"/>
</mask>
<g mask="url(#mask25_37_20053)">
<path d="M101.134 88.2743L113.524 75.8848M98.0306 85.179L110.42 72.7895M91.8401 85.179L110.42 66.599M85.6496 85.179L110.42 60.4085M79.4506 85.179L110.42 54.2095M73.2601 85.179L110.42 48.019M67.0696 85.179L110.429 41.8199M60.8705 85.179L110.42 35.6294M54.68 85.179L110.42 29.4389M48.481 85.179L110.42 23.2399M42.2905 85.179L110.42 17.0494M36.1 85.179L110.42 10.8589M29.901 85.179L110.42 4.65987M23.7104 85.179L110.42 -1.53064M197.13 17.0494L129 85.179L110.42 103.759M122.81 85.179L197.13 10.8589M116.611 85.179L197.13 4.65987M197.13 -1.53064L110.42 85.179L23.7104 171.889M110.42 171.889L197.13 85.179M110.42 165.698L190.939 85.179M110.42 159.499L184.74 85.179M110.42 153.309L178.55 85.179M110.42 147.11L172.359 85.1705M110.42 140.919L166.16 85.179M110.42 134.729L159.97 85.179M110.42 128.53L153.779 85.1705M110.42 122.339L147.58 85.179M110.42 116.149L141.39 85.179M110.42 109.95L135.191 85.1705M104.23 97.5686L122.81 78.9885M107.325 100.664L125.905 82.0838" stroke="#1C1C1C" stroke-width="0.486" stroke-linejoin="round"/>
</g>
<mask id="mask26_37_20053" style="mask-type:luminance" maskUnits="userSpaceOnUse" x="106" y="85" width="5" height="11">
<path d="M110.42 85.1791H106.559V95.0431H110.42V85.1791Z" fill="white"/>
</mask>
<g mask="url(#mask26_37_20053)">
<path d="M101.134 88.2744L113.523 75.8849M98.0301 85.1792L110.42 72.7896M91.8396 85.1792L110.42 66.5991M85.6491 85.1792L110.42 60.4086M79.4501 85.1792L110.42 54.2096M73.2596 85.1792L110.42 48.0191M67.0691 85.1792L110.428 41.8201M60.8701 85.1792L110.42 35.6296M54.6795 85.1792L110.42 29.439M48.4805 85.1792L110.42 23.24M42.29 85.1792L110.42 17.0495M36.0995 85.1792L110.42 10.859M29.9005 85.1792L110.42 4.65999M23.71 85.1792L110.42 -1.53052M197.129 -1.53052L110.42 85.1792L23.71 171.889M29.9005 171.889L110.42 91.3697M110.42 171.889L197.129 85.1792M110.42 165.698L190.939 85.1792M110.42 159.499L184.74 85.1792M110.42 153.309L178.549 85.1792M110.42 147.11L172.359 85.1707M110.42 140.919L166.16 85.1792M110.42 134.729L159.969 85.1792M110.42 128.53L153.779 85.1707M110.42 122.339L147.58 85.1792M110.42 116.149L141.389 85.1792M110.42 109.95L135.19 85.1707M104.229 97.5687L122.809 78.9887M107.324 100.664L125.904 82.0839M110.42 103.759L129 85.1792" stroke="#1C1C1C" stroke-width="0.486" stroke-linejoin="round"/>
</g>
<mask id="mask27_37_20053" style="mask-type:luminance" maskUnits="userSpaceOnUse" x="106" y="83" width="5" height="3">
<path d="M110.42 83.657H106.559V85.1791H110.42V83.657Z" fill="white"/>
</mask>
<g mask="url(#mask27_37_20053)">
<path d="M101.134 88.2743L113.523 75.8848M98.0301 85.179L110.42 72.7895M91.8396 85.179L110.42 66.599M85.6491 85.179L110.42 60.4085M79.4501 85.179L110.42 54.2095M73.2596 85.179L110.42 48.019M67.0691 85.179L110.428 41.8199M60.8701 85.179L110.42 35.6294M54.6795 85.179L110.42 29.4389M48.4805 85.179L110.42 23.2399M42.29 85.179L110.42 17.0494M36.0995 85.179L110.42 10.8589M29.9005 85.179L110.42 4.65987M23.71 85.179L110.42 -1.53064M197.129 -1.53064L110.42 85.179L23.71 171.889M110.42 171.889L197.129 85.179M110.42 165.698L190.939 85.179M110.42 159.499L184.74 85.179M110.42 153.309L178.549 85.179M110.42 147.11L172.359 85.1705M110.42 140.919L166.16 85.179M110.42 134.729L159.969 85.179M110.42 128.53L153.779 85.1705M110.42 122.339L147.58 85.179M110.42 116.149L141.389 85.179M110.42 109.95L135.19 85.1705M104.229 97.5686L122.809 78.9885M107.324 100.664L125.904 82.0838M110.42 103.759L129 85.179" stroke="#1C1C1C" stroke-width="0.486" stroke-linejoin="round"/>
</g>
<path d="M128.702 83.657H106.559V95.0346H128.702V83.657Z" stroke="#9D9D9C" stroke-width="2" stroke-miterlimit="10" stroke-linecap="square"/>
<mask id="mask28_37_20053" style="mask-type:luminance" maskUnits="userSpaceOnUse" x="2" y="282" width="13" height="24">
<path d="M14.033 282.944H2.11963V305.708H14.033V282.944Z" fill="white"/>
</mask>
<g mask="url(#mask28_37_20053)">
<path d="M-19.6494 345.308L23.7097 301.949M-25.8399 345.308L23.7097 295.758M-32.0304 345.308L23.7097 289.568M-38.2295 345.308L23.7097 283.369M-44.42 345.308L23.7097 277.178M-50.619 345.308L23.7012 270.988M-56.8095 345.308L23.7097 264.789M-63 345.308L23.7097 258.598M-63 339.118L17.5192 258.598M-63 332.927L11.3202 258.607M-63 326.728L5.12965 258.598" stroke="#1C1C1C" stroke-width="0.486" stroke-linejoin="round"/>
</g>
<mask id="mask29_37_20053" style="mask-type:luminance" maskUnits="userSpaceOnUse" x="-63" y="0" width="344" height="307">
<path d="M280.59 0H-63V306.83H280.59V0Z" fill="white"/>
</mask>
<g mask="url(#mask29_37_20053)">
<path d="M14.0325 282.944H2.07666V305.708H14.0325V282.944Z" stroke="#9D9D9C" stroke-width="2" stroke-miterlimit="10"/>
</g>
<mask id="mask30_37_20053" style="mask-type:luminance" maskUnits="userSpaceOnUse" x="2" y="214" width="13" height="24">
<path d="M14.033 214.551H2.11963V237.314H14.033V214.551Z" fill="white"/>
</mask>
<g mask="url(#mask30_37_20053)">
<path d="M-1.06937 258.598L23.7097 233.819M-7.25988 258.598L23.7097 227.629M-13.4504 258.598L23.7097 221.438M-19.6494 258.598L23.7097 215.239M-25.8399 258.598L23.7097 209.049M-32.0304 258.598L23.7097 202.858M-38.2295 258.598L23.7097 196.659M-44.42 258.598L23.7097 190.469M-50.619 258.598L23.7012 184.278M-56.8095 258.598L23.7097 178.079M-63 258.598L23.7097 171.889M-63 252.408L17.5192 171.889M-63 246.209L11.3202 171.889M-63 240.018L5.12965 171.889" stroke="#1C1C1C" stroke-width="0.486" stroke-linejoin="round"/>
</g>
<path d="M14.033 214.551H2.07715V237.314H14.033V214.551Z" stroke="#9D9D9C" stroke-width="2" stroke-miterlimit="10"/>
<mask id="mask31_37_20053" style="mask-type:luminance" maskUnits="userSpaceOnUse" x="23" y="85" width="9" height="11">
<path d="M31.6267 85.1791H23.71V95.0431H31.6267V85.1791Z" fill="white"/>
</mask>
<g mask="url(#mask31_37_20053)">
<path d="M14.4154 88.2744L26.8049 75.8849M11.3202 85.1792L23.7097 72.7896M5.12965 85.1792L23.7097 66.5991M-1.06937 85.1792L23.7012 60.4086M-7.25988 85.1792L23.7097 54.2096M-13.4504 85.1792L23.7097 48.0191M-19.6494 85.1792L23.7097 41.8201M-25.8399 85.1792L23.7097 35.6296M-32.0304 85.1792L23.7097 29.439M-38.2295 85.1792L23.7097 23.24M-44.42 85.1792L23.7097 17.0495M-50.619 85.1792L23.7012 10.859M-56.8095 85.1792L23.7097 4.65999M-63 85.1792L23.7097 -1.53052M29.9002 85.1792L110.419 4.65999M110.419 -1.53052L23.7097 85.1792L-63 171.889M-56.8095 171.889L23.7097 91.3697M29.9002 171.889L110.419 91.3697M23.7097 171.889L110.419 85.1792M23.7097 165.698L104.229 85.1792M23.7097 159.499L98.0298 85.1792M23.7097 153.309L91.8393 85.1792M23.7097 147.11L85.6488 85.1707M23.7097 140.919L79.4498 85.1792M23.7097 134.729L73.2593 85.1792M23.7097 128.53L67.0688 85.1707M23.7097 122.339L60.8698 85.1792M23.7097 116.149L54.6792 85.1792M23.7097 109.95L48.4887 85.1707M17.5107 97.5687L36.0907 78.9887M20.6144 100.664L39.1945 82.0839M23.7097 103.759L42.2897 85.1792" stroke="#1C1C1C" stroke-width="0.486" stroke-linejoin="round"/>
</g>
<mask id="mask32_37_20053" style="mask-type:luminance" maskUnits="userSpaceOnUse" x="2" y="85" width="22" height="33">
<path d="M9.11795 85.1791V95.0431H2.11963V117.807H13.8969V95.0431H23.7099V85.1791H9.11795Z" fill="white"/>
</mask>
<g mask="url(#mask32_37_20053)">
<path d="M14.4154 88.2744L26.8049 75.8849M23.7097 72.7896L11.3202 85.1792L-63 159.499M23.7097 66.5991L5.12965 85.1792L-63 153.309M-1.06937 85.1792L23.7012 60.4086M-7.25988 85.1792L23.7097 54.2096M-13.4504 85.1792L23.7097 48.0191M-19.6494 85.1792L23.7097 41.8201M-25.8399 85.1792L23.7097 35.6296M-32.0304 85.1792L23.7097 29.439M-38.2295 85.1792L23.7097 23.24M-44.42 85.1792L23.7097 17.0495M-50.619 85.1792L23.7012 10.859M-56.8095 85.1792L23.7097 4.65999M-63 85.1792L23.7097 -1.53052M110.419 -1.53052L23.7097 85.1792L-63 171.889M-32.0304 171.889L23.7097 116.149L54.6792 85.1792M-38.2295 171.889L23.7097 109.95L48.4887 85.1707M-44.42 171.889L23.7097 103.759L42.2897 85.1792M-50.619 171.889L23.7012 97.5687M-56.8095 171.889L23.7097 91.3697M-63 165.698L17.5192 85.1792M23.7097 171.889L110.419 85.1792M23.7097 165.698L104.229 85.1792M23.7097 159.499L98.0298 85.1792M23.7097 153.309L91.8393 85.1792M23.7097 147.11L85.6488 85.1707M23.7097 140.919L79.4498 85.1792M23.7097 134.729L73.2593 85.1792M23.7097 128.53L67.0688 85.1707M23.7097 122.339L60.8698 85.1792M17.5107 97.5687L36.0907 78.9887M20.6144 100.664L39.1945 82.0839" stroke="#1C1C1C" stroke-width="0.486" stroke-linejoin="round"/>
</g>
<path d="M9.118 83.657V95.0431H2.07715V117.807H13.897V95.0431H31.6266V83.657H9.118Z" stroke="#9D9D9C" stroke-width="2" stroke-miterlimit="10"/>
<path d="M160.351 214.84H113.625V217.119H160.351V214.84Z" fill="#66A0AF"/>
<path d="M160.351 214.84H113.625V217.119H160.351V214.84Z" stroke="#404F52" stroke-width="0.5" stroke-miterlimit="10"/>
<path d="M113.626 251.26H111.347V303.412H113.626V251.26Z" fill="#66A0AF"/>
<path d="M113.626 251.26H111.347V303.412H113.626V251.26Z" stroke="#404F52" stroke-width="0.5" stroke-miterlimit="10"/>
<path d="M113.626 108.087H111.347V217.11H113.626V108.087Z" fill="#66A0AF"/>
<path d="M113.626 108.087H111.347V217.11H113.626V108.087Z" stroke="#404F52" stroke-width="0.5" stroke-miterlimit="10"/>
<path d="M196.151 253.539H193.872V302.485H196.151V253.539Z" fill="#66A0AF"/>
<path d="M196.151 253.539H193.872V302.485H196.151V253.539Z" stroke="#404F52" stroke-width="0.5" stroke-miterlimit="10"/>
<path d="M145.496 251.26H113.625V253.539H145.496V251.26Z" fill="#66A0AF"/>
<path d="M145.496 251.26H113.625V253.539H145.496V251.26Z" stroke="#404F52" stroke-width="0.5" stroke-miterlimit="10"/>
<path d="M206.109 251.26H168.26V253.539H206.109V251.26Z" fill="#66A0AF"/>
<path d="M206.109 251.26H168.26V253.539H206.109V251.26Z" stroke="#404F52" stroke-width="0.5" stroke-miterlimit="10"/>
<path d="M233.141 251.26H228.873V253.539H233.141V251.26Z" fill="#66A0AF"/>
<path d="M233.141 251.26H228.873V253.539H233.141V251.26Z" stroke="#404F52" stroke-width="0.5" stroke-miterlimit="10"/>
<path d="M190.454 107.22V214.84H185.964V217.11H190.454H195.004V214.84V107.22H190.454Z" fill="#66A0AF"/>
<path d="M190.454 107.22V214.84H185.964V217.11H190.454H195.004V214.84V107.22H190.454Z" stroke="#404F52" stroke-width="0.5" stroke-miterlimit="10"/>
<path d="M229.153 141.71V143.98H231.432H275.82V141.71H229.153Z" fill="#66A0AF"/>
<path d="M229.153 141.71V143.98H231.432H275.82V141.71H229.153Z" stroke="#404F52" stroke-width="0.5" stroke-miterlimit="10"/>
<path d="M231.432 166.744H229.153V188.088H231.432V166.744Z" fill="#66A0AF"/>
<path d="M231.432 166.744H229.153V188.088H231.432V166.744Z" stroke="#404F52" stroke-width="0.5" stroke-miterlimit="10"/>
<path d="M199.272 188.088H195.003V190.367H199.272V188.088Z" fill="#66A0AF"/>
<path d="M199.272 188.088H195.003V190.367H199.272V188.088Z" stroke="#404F52" stroke-width="0.5" stroke-miterlimit="10"/>
<path d="M275.82 188.088H224.885V190.367H275.82V188.088Z" fill="#66A0AF"/>
<path d="M275.82 188.088H224.885V190.367H275.82V188.088Z" stroke="#404F52" stroke-width="0.5" stroke-miterlimit="10"/>
<path d="M208.864 290.435H231.628V301.821H208.864V290.435ZM213.974 300.223H226.525V292.034H213.974V300.223ZM212.274 292.034H210.573V300.223H212.274V292.034ZM228.226 300.223H229.927V292.034H228.226V300.223Z" fill="#66A0AF"/>
<path d="M208.864 290.435H231.628V301.821H208.864V290.435ZM213.974 300.223H226.525V292.034H213.974V300.223ZM212.274 292.034H210.573V300.223H212.274V292.034ZM228.226 300.223H229.927V292.034H228.226V300.223Z" stroke="#404F52" stroke-width="0.5" stroke-miterlimit="10"/>
<path d="M125.011 276.311H113.634V253.547H125.011V276.311ZM123.404 258.658H115.215V271.209H123.404V258.658ZM123.404 272.91H115.215V274.61H123.404V272.91ZM123.404 255.248H115.215V256.949H123.404V255.248Z" fill="#66A0AF"/>
<path d="M125.011 276.311H113.634V253.547H125.011V276.311ZM123.404 258.658H115.215V271.209H123.404V258.658ZM123.404 272.91H115.215V274.61H123.404V272.91ZM123.404 255.248H115.215V256.949H123.404V255.248Z" stroke="#404F52" stroke-width="0.5" stroke-miterlimit="10"/>
<path d="M199.136 296.082H207.673V297.68V301.77H199.136V296.082ZM200.224 300.767H206.542V297.077H200.224V300.767Z" fill="#66A0AF"/>
<path d="M199.136 296.082H207.673V297.68V301.77H199.136V296.082ZM200.224 300.767H206.542V297.077H200.224V300.767Z" stroke="#404F52" stroke-width="0.5" stroke-miterlimit="10"/>
<path d="M113.625 296.082H122.162V297.68V301.77H113.625V296.082ZM114.713 300.767H121.031V297.085H114.713V300.767Z" fill="#66A0AF"/>
<path d="M113.625 296.082H122.162V297.68V301.77H113.625V296.082ZM114.713 300.767H121.031V297.085H114.713V300.767Z" stroke="#404F52" stroke-width="0.5" stroke-miterlimit="10"/>
<path d="M64.3987 101.88V108.138H73.5058V101.88V100.46H75.2065V94.7709H62.6895V100.46H64.3987V101.88Z" fill="#66A0AF"/>
<path d="M64.3987 101.88V108.138H73.5058V101.88V100.46H75.2065V94.7709H62.6895V100.46H64.3987V101.88Z" stroke="#404F52" stroke-width="0.5" stroke-miterlimit="10"/>
<path d="M107.86 101.676V107.943H131.763V101.676V100.256H133.472V94.5669H106.159V100.256H107.86V101.676Z" fill="#66A0AF"/>
<path d="M107.86 101.676V107.943H131.763V101.676V100.256H133.472V94.5669H106.159V100.256H107.86V101.676Z" stroke="#404F52" stroke-width="0.5" stroke-miterlimit="10"/>
<path d="M182.58 101.829V108.087H194.816V22.7212H213.881V19.0222V17.6021H215.59V11.9133H184V94.7199H180.871V100.409H182.58V101.829Z" fill="#66A0AF"/>
<path d="M182.58 101.829V108.087H194.816V22.7212H213.881V19.0222V17.6021H215.59V11.9133H184V94.7199H180.871V100.409H182.58V101.829Z" stroke="#404F52" stroke-width="0.5" stroke-miterlimit="10"/>
<path d="M19.3646 251.932H20.7932H24.4922V108.232H30.4616V101.973V100.545H32.1708V94.8561H13.6758V253.641H19.3646V251.932Z" fill="#66A0AF"/>
<path d="M19.3646 251.932H20.7932H24.4922V108.232H30.4616V101.973V100.545H32.1708V94.8561H13.6758V253.641H19.3646V251.932Z" stroke="#404F52" stroke-width="0.5" stroke-miterlimit="10"/>
<path d="M233.312 250.724V301.949H24.45V277.195H20.751H19.3309V275.486H13.6421V306.617L238.125 306.498L237.87 255.282H241.849V250.724H233.312Z" fill="#66A0AF"/>
<mask id="mask33_37_20053" style="mask-type:luminance" maskUnits="userSpaceOnUse" x="-63" y="0" width="344" height="307">
<path d="M280.59 0H-63V306.83H280.59V0Z" fill="white"/>
</mask>
<g mask="url(#mask33_37_20053)">
<path d="M237.869 255.282H241.849V250.724H233.311V301.949H24.4495V277.195H20.7505H19.3304V275.486H13.6416V306.617L238.124 306.498L237.869 255.282Z" stroke="#404F52" stroke-width="0.5" stroke-miterlimit="10"/>
</g>
<path d="M275.82 11.6923V11.8708H263.583V17.5596H265.293V18.9797V22.6787H275.82V250.894H270.131V255.444H275.82H280.369V250.894V22.6787V11.8708V11.6923H275.82Z" fill="#66A0AF"/>
<path d="M275.82 11.6923V11.8708H263.583V17.5596H265.293V18.9797V22.6787H275.82V250.894H270.131V255.444H275.82H280.369V250.894V22.6787V11.8708V11.6923H275.82Z" stroke="#404F52" stroke-width="0.5" stroke-miterlimit="10"/>
<path d="M99.9347 160.919H99.0674V169.423H99.9347V160.919Z" fill="white"/>
<path d="M99.9347 112.356H99.0674V120.732H99.9347V112.356Z" fill="white"/>
<path d="M100.802 170.282H109.34V111.497H100.802V121.727H96.5845V159.924H100.802" fill="white"/>
<mask id="mask34_37_20053" style="mask-type:luminance" maskUnits="userSpaceOnUse" x="96" y="111" width="14" height="60">
<path d="M109.569 111.276H96.3633V170.511H109.569V111.276Z" fill="white"/>
</mask>
<g mask="url(#mask34_37_20053)">
<path d="M106.508 136.616C107.962 137.025 108.157 138.802 108.157 140.953C108.157 143.002 107.775 144.72 106.508 145.239M103.727 144.771C102.528 144.006 101.712 142.586 101.712 140.953C101.712 139.329 102.519 137.909 103.71 137.144M96.584 121.727H109.339V159.924H96.584V121.727ZM100.802 170.273H109.348V159.924H100.802V170.273ZM105.3 155.86H103.693V125.919H105.3V155.86ZM105.3 128.87L106.508 133.555V148.334L105.3 153.02V128.87ZM99.067 120.749H99.9343V112.365H99.067V120.749ZM100.802 121.727H109.348V111.497H100.802V121.727ZM99.067 169.423H99.9343V160.919H99.067V169.423Z" stroke="#1C1C1C" stroke-width="0.4" stroke-miterlimit="10" stroke-linejoin="round"/>
</g>
<mask id="mask35_37_20053" style="mask-type:luminance" maskUnits="userSpaceOnUse" x="-63" y="0" width="344" height="307">
<path d="M280.59 0H-63V306.83H280.59V0Z" fill="white"/>
</mask>
<g mask="url(#mask35_37_20053)">
<path d="M27.5451 196.651C25.9124 196.464 24.7729 195.792 24.7729 193.309V114.729C24.7729 112.288 25.9124 111.599 27.4771 111.463C27.8852 111.395 65.479 111.463 65.479 111.463C69.2375 111.463 70.4365 111.463 70.4365 114.729V114.89C70.4365 118.155 69.2375 118.3 65.479 118.3V118.368H66.2783C69.195 118.368 70.445 118.513 70.445 122.059V132.577C70.445 136.123 69.2035 136.285 66.2783 136.285H55.3004C52.3837 136.285 51.0911 136.123 51.0911 132.577C51.0911 136.123 49.8241 136.285 46.8989 136.285C49.8156 136.285 51.0911 136.429 51.0911 139.839V150.349C51.0911 153.921 49.8241 154.04 46.8989 154.04C49.8156 154.04 51.0911 154.185 51.0911 157.756V168.249C51.0911 171.668 49.8241 171.957 46.8989 171.957C49.8156 171.957 51.0911 172.101 51.0911 175.673V186.166C51.0911 189.593 49.8241 189.874 46.8989 189.874V189.891C50.2323 189.891 51.3207 190.052 51.3207 193.164V193.309C51.3207 196.574 50.1217 196.651 46.3632 196.651C46.3632 196.651 27.9532 196.702 27.5451 196.651Z" fill="white"/>
</g>
<mask id="mask36_37_20053" style="mask-type:luminance" maskUnits="userSpaceOnUse" x="24" y="111" width="47" height="86">
<path d="M70.7087 111.157H24.501V196.94H70.7087V111.157Z" fill="white"/>
</mask>
<g mask="url(#mask36_37_20053)">
<path d="M46.9159 136.276C49.8326 136.276 51.0826 136.421 51.0826 139.831V150.349C51.0826 153.904 49.8326 154.04 46.9159 154.04H35.9295C33.0128 154.04 31.7288 153.904 31.7288 150.349V139.831C31.7288 136.421 33.0128 136.276 35.9295 136.276M46.9159 136.276H35.9295M46.9159 136.276C49.8326 136.276 51.0826 136.14 51.0826 132.586M35.9295 136.276C33.0128 136.276 31.7288 136.14 31.7288 132.586V122.067C31.7288 118.513 33.0128 118.36 35.9295 118.36H46.9159C49.8326 118.36 51.0826 118.504 51.0826 122.067M51.0826 122.067V132.586M51.0826 122.067C51.0826 118.513 52.3752 118.36 55.2918 118.36H66.2698C69.1865 118.36 70.445 118.504 70.445 122.067V132.586C70.445 136.14 69.195 136.276 66.2698 136.276H55.2918C52.3752 136.276 51.0826 136.14 51.0826 132.586M46.3632 189.899C50.1217 189.899 51.3207 189.899 51.3207 193.173V193.309C51.3207 196.583 50.1132 196.651 46.3632 196.651C46.3632 196.651 27.9533 196.702 27.5536 196.651C25.9209 196.481 24.7729 195.809 24.7729 193.309V114.737C24.7729 112.297 25.9124 111.599 27.4771 111.463C27.8852 111.395 65.479 111.463 65.479 111.463C69.229 111.463 70.4365 111.48 70.4365 114.737V114.882C70.4365 118.147 69.229 118.291 65.479 118.291M46.9159 154.048C49.8326 154.048 51.0826 154.193 51.0826 157.756V168.283C51.0826 171.693 49.8326 171.974 46.9159 171.974H35.9295C33.0128 171.974 31.7288 171.693 31.7288 168.283V157.756C31.7288 154.202 33.0128 154.048 35.9295 154.048H46.9159ZM46.9159 171.965C49.8326 171.965 51.0826 172.11 51.0826 175.656V186.183C51.0826 189.61 49.8326 189.891 46.9159 189.891H35.9295C33.0128 189.891 31.7288 189.61 31.7288 186.183V175.656C31.7288 172.11 33.0128 171.965 35.9295 171.965H46.9159Z" stroke="#1C1C1C" stroke-width="0.4" stroke-miterlimit="10" stroke-linejoin="round"/>
</g>
<path d="M75.836 145.341H59.3394V171.957H75.836V145.341Z" fill="white"/>
<mask id="mask37_37_20053" style="mask-type:luminance" maskUnits="userSpaceOnUse" x="59" y="145" width="18" height="28">
<path d="M76.0144 145.154H59.1436V172.152H76.0144V145.154Z" fill="white"/>
</mask>
<g mask="url(#mask37_37_20053)">
<path d="M75.836 145.341H59.3394V171.957H75.836V145.341Z" stroke="#1C1C1C" stroke-width="0.36" stroke-miterlimit="10" stroke-linejoin="round"/>
</g>
<path d="M68.2849 150.987L68.7696 149.729M68.8887 151.217L69.3734 149.958M67.0434 152.475L68.1149 149.474M66.4652 152.28L67.5366 149.278M65.8955 152.084L66.9584 149.074M65.3002 151.889L66.3717 148.887M69.4669 151.404L69.9516 150.145M64.9516 149.873L62.3325 153.64L69.1183 158.3L71.1846 155.333M68.8887 152.96L69.1863 152.084L68.0213 151.693L67.7237 152.569L68.8887 152.96ZM71.7033 155.384L73.5486 150.248L65.7849 147.535L63.9482 152.671L71.7033 155.384Z" stroke="#1C1C1C" stroke-width="0.36" stroke-miterlimit="10" stroke-linecap="round" stroke-linejoin="round"/>
<mask id="mask38_37_20053" style="mask-type:luminance" maskUnits="userSpaceOnUse" x="24" y="221" width="47" height="51">
<path d="M70.819 221.915H24.3901V271.617H70.819V221.915Z" fill="white"/>
</mask>
<g mask="url(#mask38_37_20053)">
<path d="M45.1383 224.823L46.2947 222.212H32.5361L33.6926 224.823" stroke="#1C1C1C" stroke-width="0.4" stroke-miterlimit="10"/>
</g>
<mask id="mask39_37_20053" style="mask-type:luminance" maskUnits="userSpaceOnUse" x="24" y="221" width="47" height="51">
<path d="M70.819 221.915H24.3901V271.617H70.819V221.915Z" fill="white"/>
</mask>
<g mask="url(#mask39_37_20053)">
<path d="M45.138 232.034V224.823C45.138 223.921 44.4152 223.182 43.5053 223.19H35.3165C34.4067 223.19 33.6669 223.921 33.6839 224.823V232.034M45.138 261.507V268.717M45.138 268.717C45.138 269.619 44.4152 270.35 43.5053 270.35H35.3165C34.4067 270.35 33.6669 269.619 33.6839 268.717V261.507M45.138 268.717L46.2945 271.337H32.5359L33.6924 268.717M61.5241 232.034V224.823M61.5241 224.823C61.5241 223.921 60.7843 223.182 59.8745 223.19H51.6857C50.7758 223.19 50.053 223.921 50.053 224.823V232.034M61.5241 224.823L62.6636 222.204H48.9221L50.0615 224.823M61.5241 261.507V268.717M61.5241 268.717C61.5241 269.619 60.7843 270.35 59.8745 270.35H51.6857C50.7758 270.35 50.053 269.619 50.053 268.717V261.507M61.5241 268.717L62.6636 271.337H48.9221L50.0615 268.717M24.6787 261.507H70.5293V232.034H24.6787V261.507Z" stroke="#1C1C1C" stroke-width="0.4" stroke-miterlimit="10"/>
</g>
<path d="M135.802 198.487V197.033M158.294 199.95H113.838M158.294 198.487H113.838M158.294 197.025H113.838V214.593H158.294V197.025Z" stroke="#1C1C1C" stroke-width="0.5" stroke-miterlimit="10"/>
<mask id="mask40_37_20053" style="mask-type:luminance" maskUnits="userSpaceOnUse" x="135" y="203" width="14" height="9">
<path d="M148.745 203.071H135.684V211.693H148.745V203.071Z" fill="white"/>
</mask>
<g mask="url(#mask40_37_20053)">
<path d="M136.942 210.171L142.214 207.476L147.478 210.171C147.58 210.222 147.631 210.35 147.597 210.469C147.563 210.571 147.444 210.647 147.316 210.647H137.103C136.976 210.647 136.857 210.571 136.823 210.469C136.789 210.35 136.84 210.222 136.942 210.171ZM137.103 211.447H147.316C147.835 211.447 148.294 211.124 148.439 210.673C148.583 210.222 148.371 209.729 147.92 209.483L142.648 206.77V206.175C143.294 205.979 143.753 205.435 143.804 204.823C143.821 204.295 143.524 203.802 143.022 203.53C142.529 203.258 141.908 203.258 141.406 203.513C140.904 203.768 140.59 204.261 140.59 204.78C140.598 205.001 140.794 205.163 141.032 205.163C141.27 205.163 141.466 204.993 141.466 204.78C141.466 204.423 141.789 204.125 142.197 204.125C142.597 204.125 142.92 204.423 142.92 204.78C142.886 205.137 142.58 205.409 142.197 205.452C141.916 205.571 141.746 205.826 141.772 206.107V206.77L136.491 209.466C136.04 209.721 135.836 210.214 135.981 210.665C136.126 211.124 136.585 211.447 137.103 211.447Z" stroke="#1C1C1C" stroke-width="0.4" stroke-miterlimit="10"/>
</g>
<mask id="mask41_37_20053" style="mask-type:luminance" maskUnits="userSpaceOnUse" x="118" y="203" width="14" height="9">
<path d="M131.185 203.071H118.124V211.693H131.185V203.071Z" fill="white"/>
</mask>
<g mask="url(#mask41_37_20053)">
<path d="M119.382 210.171L124.654 207.476L129.917 210.171C130.02 210.222 130.071 210.35 130.037 210.469C130.002 210.571 129.883 210.647 129.756 210.647H119.543C119.416 210.647 119.305 210.571 119.263 210.469C119.22 210.35 119.271 210.222 119.382 210.171ZM119.543 211.447H129.756C130.283 211.447 130.742 211.124 130.878 210.673C131.014 210.222 130.81 209.729 130.36 209.483L125.087 206.77V206.175C125.742 205.979 126.201 205.435 126.244 204.823C126.261 204.295 125.963 203.802 125.47 203.53C124.977 203.258 124.356 203.258 123.855 203.513C123.353 203.768 123.047 204.261 123.047 204.78C123.055 205.001 123.251 205.163 123.489 205.163C123.727 205.163 123.914 204.993 123.931 204.78C123.931 204.423 124.254 204.125 124.654 204.125C125.053 204.125 125.385 204.423 125.385 204.78C125.351 205.137 125.045 205.409 124.654 205.452C124.373 205.571 124.203 205.826 124.22 206.107V206.77L118.94 209.466C118.497 209.721 118.293 210.214 118.421 210.665C118.565 211.124 119.025 211.447 119.543 211.447Z" stroke="#1C1C1C" stroke-width="0.4" stroke-miterlimit="10"/>
</g>
<mask id="mask42_37_20053" style="mask-type:luminance" maskUnits="userSpaceOnUse" x="-63" y="0" width="344" height="307">
<path d="M280.59 0H-63V306.83H280.59V0Z" fill="white"/>
</mask>
<g mask="url(#mask42_37_20053)">
<path d="M155.675 125.843C155.675 126.591 156.151 127.093 156.644 127.093H163.889C164.493 127.093 164.978 126.591 164.978 125.843V125.349C164.978 124.72 164.501 124.099 163.889 124.099H156.644C156.151 124.099 155.675 124.729 155.675 125.349" fill="white"/>
</g>
<mask id="mask43_37_20053" style="mask-type:luminance" maskUnits="userSpaceOnUse" x="-63" y="0" width="344" height="307">
<path d="M280.59 0H-63V306.83H280.59V0Z" fill="white"/>
</mask>
<g mask="url(#mask43_37_20053)">
<path d="M155.675 141.591C155.675 142.339 156.151 142.841 156.644 142.841H163.889C164.493 142.841 164.978 142.339 164.978 141.591V141.089C164.978 140.46 164.501 139.839 163.889 139.839H156.644C156.151 139.839 155.675 140.468 155.675 141.089" fill="white"/>
</g>
<path d="M189.731 111.582H167.631V155.588H189.731V111.582Z" fill="white"/>
<mask id="mask44_37_20053" style="mask-type:luminance" maskUnits="userSpaceOnUse" x="-63" y="0" width="344" height="307">
<path d="M280.59 0H-63V306.83H280.59V0Z" fill="white"/>
</mask>
<g mask="url(#mask44_37_20053)">
<path d="M153.37 127.458H152.163C151.44 127.458 150.964 128.088 150.964 128.836V138.334C150.964 139.082 151.44 139.584 152.163 139.584H153.37C154.093 139.584 154.705 139.082 154.705 138.334V137.62C154.722 138.98 154.85 139.082 156.398 139.082H163.404C165.088 139.082 165.938 138.955 165.938 136.829V130.077C165.938 127.951 165.088 127.832 163.404 127.832H156.398C154.85 127.832 154.714 127.934 154.705 129.295V128.836C154.697 128.088 154.093 127.458 153.37 127.458Z" fill="white"/>
</g>
<mask id="mask45_37_20053" style="mask-type:luminance" maskUnits="userSpaceOnUse" x="150" y="111" width="40" height="45">
<path d="M189.995 111.327H150.709V155.851H189.995V111.327Z" fill="white"/>
</mask>
<g mask="url(#mask45_37_20053)">
<path d="M174.026 138.963V125.834M175.352 138.963V125.834M172.937 137.594H176.568M172.937 136.336H176.568M172.937 134.958H176.568M172.937 133.708H176.568M172.937 132.458H176.568M172.937 131.089H176.568M172.937 129.839H176.568M172.937 128.589H176.568M172.937 127.212H176.568M180.191 143.717V146.344H175.352M175.896 115.043C175.48 114.678 175.233 114.116 175.233 113.453C175.233 112.45 175.956 111.582 177.044 111.582C177.997 111.582 178.855 112.458 178.855 113.453C178.855 114.125 178.549 114.712 178.107 115.069M181.151 128.581V121.837H179.468V128.581M179.468 136.48V143.343H181.151V136.48M175.122 111.582H167.631V155.588H189.723V111.582H178.949H175.122ZM176.568 125.834H172.946V138.963H176.568V125.834ZM174.519 145.341C174.995 145.341 175.361 145.843 175.361 146.336C175.361 146.838 174.995 147.212 174.519 147.212H173.184C172.69 147.212 172.342 146.838 172.342 146.336C172.342 145.834 172.69 145.341 173.184 145.341H174.519ZM175.964 113.963V122.467H178.005V113.963C178.005 113.334 177.656 113.087 177.053 113.087C176.449 113.087 175.964 113.334 175.964 113.963ZM175.964 112.458V120.962H178.005V112.458C178.005 111.829 177.656 111.582 177.053 111.582C176.449 111.582 175.964 111.837 175.964 112.458ZM163.405 127.841C165.088 127.841 165.939 127.968 165.939 130.086V136.838C165.939 138.963 165.088 139.091 163.405 139.091H156.398C154.587 139.091 154.706 138.963 154.706 136.838V130.086C154.706 127.96 154.587 127.841 156.398 127.841H163.405ZM163.881 139.839C164.485 139.839 164.969 140.469 164.969 141.089V141.591C164.969 142.339 164.493 142.841 163.881 142.841H156.636C156.143 142.841 155.667 142.339 155.667 141.591V141.089C155.667 140.46 156.143 139.839 156.636 139.839H163.881ZM163.881 124.082C164.485 124.082 164.969 124.712 164.969 125.332V125.826C164.969 126.582 164.493 127.076 163.881 127.076H156.636C156.143 127.076 155.667 126.574 155.667 125.826V125.332C155.667 124.703 156.143 124.082 156.636 124.082H163.881ZM181.755 128.581H178.736V136.48H181.755V128.581ZM153.371 127.458C154.093 127.458 154.706 128.087 154.706 128.836V138.334C154.706 139.091 154.102 139.584 153.371 139.584H152.172C151.449 139.584 150.973 139.082 150.973 138.334V128.836C150.973 128.087 151.449 127.458 152.172 127.458H153.371Z" stroke="#1C1C1C" stroke-width="0.5" stroke-miterlimit="10" stroke-linejoin="round"/>
</g>
<path d="M143.166 111.659H114.433V171.081H143.166V111.659Z" fill="white"/>
<mask id="mask46_37_20053" style="mask-type:luminance" maskUnits="userSpaceOnUse" x="114" y="111" width="30" height="61">
<path d="M143.388 111.412H114.221V171.328H143.388V111.412Z" fill="white"/>
</mask>
<g mask="url(#mask46_37_20053)">
<path d="M120.003 127.093V116.004H137.596V129.933H133.778M115.513 126.957H129.288L141.737 135.213L132.528 141.038L129.297 126.957M115.513 114.227H141.737V169.856H115.513V114.227ZM143.175 171.081H114.441V111.659H143.175V171.081Z" stroke="#1C1C1C" stroke-width="0.4" stroke-miterlimit="10" stroke-linejoin="round"/>
</g>
<path d="M275.353 42.2706H216.168V92.9172H275.353V42.2706Z" fill="white"/>
<mask id="mask47_37_20053" style="mask-type:luminance" maskUnits="userSpaceOnUse" x="215" y="26" width="61" height="83">
<path d="M275.599 26.4457H215.913V108.674H275.599V26.4457Z" fill="white"/>
</mask>
<g mask="url(#mask47_37_20053)">
<path d="M260.845 64.031H271.372V45.1193H258.158V52.6278M260.845 71.1569H271.372V90.2046H258.158V82.6875M260.845 57.2962L247.495 53.7928L253.013 43.8183L260.845 57.2962ZM260.845 57.2962V77.8831L247.495 81.3865L253.013 91.361L260.837 77.8831M275.352 42.2706H216.168V92.9172H275.352V42.2706ZM273.039 43.8268H217.316V91.3696H273.039V43.8268Z" stroke="#1C1C1C" stroke-width="0.4" stroke-miterlimit="10" stroke-linejoin="round"/>
</g>
<path d="M275.353 26.6924H261.398V40.7911H275.353V26.6924Z" fill="white"/>
<mask id="mask48_37_20053" style="mask-type:luminance" maskUnits="userSpaceOnUse" x="215" y="26" width="61" height="83">
<path d="M275.599 26.4457H215.913V108.674H275.599V26.4457Z" fill="white"/>
</mask>
<g mask="url(#mask48_37_20053)">
<path d="M275.353 26.6924H261.398V40.7911H275.353V26.6924Z" stroke="#1C1C1C" stroke-width="0.4" stroke-miterlimit="10" stroke-linejoin="round"/>
</g>
<path d="M275.353 94.3373H261.398V108.428H275.353V94.3373Z" fill="white"/>
<mask id="mask49_37_20053" style="mask-type:luminance" maskUnits="userSpaceOnUse" x="215" y="26" width="61" height="83">
<path d="M275.599 26.4457H215.913V108.674H275.599V26.4457Z" fill="white"/>
</mask>
<g mask="url(#mask49_37_20053)">
<path d="M275.353 94.3287H261.398V108.419H275.353V94.3287Z" stroke="#1C1C1C" stroke-width="0.4" stroke-miterlimit="10" stroke-linejoin="round"/>
</g>
<path d="M275.412 108.538H261.356V140.86H275.412V108.538Z" stroke="#1C1C1C" stroke-width="0.4" stroke-miterlimit="10" stroke-linejoin="round"/>
<mask id="mask50_37_20053" style="mask-type:luminance" maskUnits="userSpaceOnUse" x="231" y="114" width="28" height="28">
<path d="M242.991 114.127L231.054 126.061L246.295 141.305L258.232 129.371L242.991 114.127Z" fill="white"/>
</mask>
<g mask="url(#mask50_37_20053)">
<path d="M252.24 132.05C251.407 131.14 249.995 131.098 249.094 131.923L240.777 122.926C241.687 122.084 241.738 120.681 240.905 119.771C240.071 118.861 238.66 118.819 237.759 119.644C236.126 121.149 235.071 123.113 234.774 125.145C234.451 127.331 235.071 129.448 236.458 130.945L240.735 135.588C241.441 136.344 242.291 136.906 243.235 137.254C245.998 138.3 249.502 137.594 252.112 135.196C253.014 134.355 253.065 132.951 252.24 132.05Z" fill="white"/>
</g>
<mask id="mask51_37_20053" style="mask-type:luminance" maskUnits="userSpaceOnUse" x="231" y="114" width="28" height="28">
<path d="M242.991 114.127L231.054 126.061L246.295 141.305L258.232 129.371L242.991 114.127Z" fill="white"/>
</mask>
<g mask="url(#mask51_37_20053)">
<path d="M252.41 131.736C251.543 130.868 250.131 130.868 249.264 131.736L240.59 123.088C241.457 122.22 241.457 120.8 240.582 119.933C239.714 119.065 238.303 119.065 237.435 119.933C235.871 121.514 234.884 123.496 234.68 125.562C234.451 127.764 235.148 129.848 236.593 131.293L241.058 135.758C241.798 136.489 242.673 137.016 243.626 137.339C246.432 138.258 249.91 137.399 252.418 134.89C253.277 134.006 253.277 132.603 252.41 131.736Z" stroke="#1C1C1C" stroke-width="0.32" stroke-miterlimit="10" stroke-linecap="round" stroke-linejoin="round"/>
</g>
<mask id="mask52_37_20053" style="mask-type:luminance" maskUnits="userSpaceOnUse" x="231" y="114" width="28" height="28">
<path d="M242.991 114.127L231.054 126.061L246.295 141.305L258.232 129.371L242.991 114.127Z" fill="white"/>
</mask>
<g mask="url(#mask52_37_20053)">
<path d="M239.145 128.47C237.197 126.37 237.725 122.705 240.327 120.307C242.92 117.909 246.611 117.671 248.558 119.788L252.835 124.422C254.782 126.531 254.255 130.188 251.662 132.586C249.068 134.984 245.378 135.222 243.43 133.121" fill="white"/>
</g>
<mask id="mask53_37_20053" style="mask-type:luminance" maskUnits="userSpaceOnUse" x="231" y="114" width="28" height="28">
<path d="M242.991 114.127L231.054 126.061L246.295 141.305L258.232 129.371L242.991 114.127Z" fill="white"/>
</mask>
<g mask="url(#mask53_37_20053)">
<path d="M239.178 128.691C237.146 126.667 237.52 122.985 240.02 120.494C242.512 117.994 246.185 117.603 248.218 119.627L252.682 124.091C254.714 126.115 254.34 129.797 251.84 132.305C249.34 134.805 245.667 135.188 243.634 133.164L239.178 128.691Z" stroke="#1C1C1C" stroke-width="0.32" stroke-miterlimit="10" stroke-linecap="round" stroke-linejoin="round"/>
</g>
<mask id="mask54_37_20053" style="mask-type:luminance" maskUnits="userSpaceOnUse" x="195" y="49" width="7" height="34">
<path d="M201.551 49.3285H195.573V82.8491H201.551V49.3285Z" fill="white"/>
</mask>
<g mask="url(#mask54_37_20053)">
<path d="M201.304 82.5855H199.527V49.5667H201.304V82.5855ZM199.527 79.3287L198.2 74.1586V57.8575L199.527 52.6874V79.3287Z" stroke="#1C1C1C" stroke-width="0.4" stroke-miterlimit="10" stroke-linejoin="round"/>
</g>
<mask id="mask55_37_20053" style="mask-type:luminance" maskUnits="userSpaceOnUse" x="195" y="49" width="7" height="34">
<path d="M201.551 49.3285H195.573V82.8491H201.551V49.3285Z" fill="white"/>
</mask>
<g mask="url(#mask55_37_20053)">
<path d="M198.209 61.3098H195.828V70.8592H198.209V61.3098Z" stroke="#1C1C1C" stroke-width="0.4" stroke-miterlimit="10"/>
</g>
<path d="M76.9752 285.257H60.4785V301.43H76.9752V285.257Z" fill="white"/>
<mask id="mask56_37_20053" style="mask-type:luminance" maskUnits="userSpaceOnUse" x="60" y="285" width="18" height="17">
<path d="M77.2135 285.019H60.2236V301.668H77.2135V285.019Z" fill="white"/>
</mask>
<g mask="url(#mask56_37_20053)">
<path d="M68.7013 298.386H62.9955C62.2642 298.386 61.7795 297.799 61.7795 297.221V288.25C61.7795 287.663 62.2642 287.076 62.9955 287.076H70.8102C71.55 287.076 72.0347 287.663 72.0347 288.25V297.221C72.0347 297.799 71.55 298.386 70.8102 298.386H69.9258M60.4785 301.43H76.9752V285.257H60.4785V301.43ZM69.2456 293.318C68.8799 293.318 68.6418 292.969 68.6418 292.731C68.6418 292.383 68.8884 292.153 69.2456 292.153C69.6112 292.153 69.8493 292.383 69.8493 292.731C69.8493 292.969 69.6112 293.318 69.2456 293.318ZM74.8068 300.104H62.6384C61.8135 300.104 60.9887 299.313 60.9887 298.531V287.85C60.9887 287.068 61.8135 286.286 62.6384 286.286H74.8068C75.7677 286.286 76.4565 287.068 76.4565 287.85V298.531C76.4565 299.313 75.7677 300.104 74.8068 300.104ZM69.7898 294.806V298.947C69.7898 299.219 69.5432 299.5 69.2456 299.5C68.9394 299.5 68.7013 299.219 68.7013 298.947V294.806H69.7898Z" stroke="#1C1C1C" stroke-width="0.4" stroke-miterlimit="10" stroke-linecap="round" stroke-linejoin="round"/>
</g>
<path d="M31.9837 284.594H26.7881V285.248H31.9837V284.594Z" fill="white"/>
<path d="M43.1573 285.282H26.0908V301.226H43.1573V285.282Z" fill="white"/>
<mask id="mask57_37_20053" style="mask-type:luminance" maskUnits="userSpaceOnUse" x="25" y="284" width="19" height="18">
<path d="M43.4039 284.347H25.8442V301.473H43.4039V284.347Z" fill="white"/>
</mask>
<g mask="url(#mask57_37_20053)">
<path d="M31.9839 285.248V284.594H26.7968V285.248M43.149 286.609H26.0825M34.603 294.9V292.136M35.9805 293.582H33.2254M35.7084 292.527L33.6421 294.5M33.6336 292.527L35.6999 294.5M39.0163 295.036V292.264M40.3938 293.582H37.4942M39.9772 292.663L37.9108 294.645M37.9108 292.663L39.9772 294.645M30.3257 294.9V292.136M31.8393 293.582H28.9397M31.4312 292.527L29.3649 294.5M29.3649 292.527L31.4312 294.5M43.149 285.282H26.0825V301.226H43.149V285.282Z" stroke="#1C1C1C" stroke-width="0.4" stroke-miterlimit="10" stroke-linejoin="round"/>
</g>
<path d="M110.998 268.386H94.5352V285.282H110.998V268.386Z" fill="white"/>
<mask id="mask58_37_20053" style="mask-type:luminance" maskUnits="userSpaceOnUse" x="94" y="268" width="18" height="18">
<path d="M111.244 268.131H94.2969V285.52H111.244V268.131Z" fill="white"/>
</mask>
<g mask="url(#mask58_37_20053)">
<path d="M111.006 268.386H94.5435V285.282H111.006V268.386ZM107.171 283.352C105.504 283.352 104.229 282.034 104.229 280.461C104.229 278.871 105.504 277.553 107.171 277.553C108.702 277.553 109.977 278.871 109.977 280.461C109.977 282.034 108.702 283.352 107.171 283.352ZM107.171 275.835C105.504 275.835 104.229 274.653 104.229 272.927C104.229 271.354 105.504 270.019 107.171 270.019C108.702 270.019 109.977 271.345 109.977 272.927C109.977 274.653 108.702 275.835 107.171 275.835ZM107.171 275.835C105.504 275.835 104.229 274.653 104.229 272.927C104.229 271.354 105.504 270.019 107.171 270.019C108.702 270.019 109.977 271.345 109.977 272.927C109.977 274.653 108.702 275.835 107.171 275.835ZM107.171 275.036C106.023 275.036 105.258 274.117 105.258 272.927C105.258 271.872 106.023 270.954 107.171 270.954C108.191 270.954 109.084 271.872 109.084 272.927C109.084 274.117 108.191 275.036 107.171 275.036ZM107.171 275.036C106.023 275.036 105.258 274.117 105.258 272.927C105.258 271.872 106.023 270.954 107.171 270.954C108.191 270.954 109.084 271.872 109.084 272.927C109.084 274.117 108.191 275.036 107.171 275.036ZM107.171 282.434C106.023 282.434 105.258 281.498 105.258 280.461C105.258 279.389 106.023 278.471 107.171 278.471C108.191 278.471 109.084 279.389 109.084 280.461C109.084 281.507 108.191 282.434 107.171 282.434ZM100.53 275.835C98.9992 275.835 97.7237 274.653 97.7237 272.927C97.7237 271.354 98.9992 270.019 100.53 270.019C102.06 270.019 103.336 271.345 103.336 272.927C103.345 274.653 102.06 275.835 100.53 275.835ZM100.53 275.835C98.9992 275.835 97.7237 274.653 97.7237 272.927C97.7237 271.354 98.9992 270.019 100.53 270.019C102.06 270.019 103.336 271.345 103.336 272.927C103.345 274.653 102.06 275.835 100.53 275.835ZM100.53 283.352C98.9992 283.352 97.7237 282.034 97.7237 280.461C97.7237 278.871 98.9992 277.553 100.53 277.553C102.06 277.553 103.336 278.871 103.336 280.461C103.345 282.034 102.06 283.352 100.53 283.352ZM96.0656 273.896C95.8105 273.896 95.5554 273.633 95.5554 273.378C95.5554 273.105 95.8105 272.842 96.0656 272.842C96.3207 272.842 96.5758 273.105 96.5758 273.378C96.5758 273.633 96.3207 273.896 96.0656 273.896ZM96.0656 275.622C95.8105 275.622 95.5554 275.359 95.5554 275.104C95.5554 274.84 95.8105 274.568 96.0656 274.568C96.3207 274.568 96.5758 274.84 96.5758 275.104C96.5758 275.359 96.3207 275.622 96.0656 275.622ZM96.0656 277.349C95.8105 277.349 95.5554 277.085 95.5554 276.83C95.5554 276.566 95.8105 276.294 96.0656 276.294C96.3207 276.294 96.5758 276.566 96.5758 276.83C96.5758 277.085 96.3207 277.349 96.0656 277.349ZM96.0656 279.083C95.8105 279.083 95.5554 278.811 95.5554 278.548C95.5554 278.284 95.8105 278.029 96.0656 278.029C96.3207 278.029 96.5758 278.293 96.5758 278.548C96.5758 278.811 96.3207 279.083 96.0656 279.083ZM96.0656 280.81C95.8105 280.81 95.5554 280.546 95.5554 280.274C95.5554 280.01 95.8105 279.755 96.0656 279.755C96.3207 279.755 96.5758 280.019 96.5758 280.274C96.5758 280.546 96.3207 280.81 96.0656 280.81ZM100.53 275.036C99.5095 275.036 98.6166 274.117 98.6166 273.063C98.6166 271.872 99.5095 271.09 100.53 271.09C101.55 271.09 102.443 271.872 102.443 273.063C102.452 274.117 101.55 275.036 100.53 275.036ZM100.53 275.036C99.5095 275.036 98.6166 274.117 98.6166 273.063C98.6166 271.872 99.5095 271.09 100.53 271.09C101.55 271.09 102.443 271.872 102.443 273.063C102.452 274.117 101.55 275.036 100.53 275.036ZM100.53 282.434C99.5095 282.434 98.6166 281.643 98.6166 280.461C98.6166 279.389 99.5095 278.471 100.53 278.471C101.55 278.471 102.443 279.389 102.443 280.461C102.452 281.643 101.55 282.434 100.53 282.434Z" stroke="#1C1C1C" stroke-width="0.4" stroke-miterlimit="10" stroke-linejoin="round"/>
</g>
<mask id="mask59_37_20053" style="mask-type:luminance" maskUnits="userSpaceOnUse" x="24" y="285" width="89" height="17">
<path d="M112.248 285.019H24.4497V301.83H112.248V285.019Z" fill="white"/>
</mask>
<g mask="url(#mask59_37_20053)">
<path d="M111.1 285.019H26.0908V301.473H111.1V285.019Z" stroke="#1C1C1C" stroke-width="0.4" stroke-miterlimit="10"/>
</g>
<path d="M111.091 251.464H94.5181V301.354H111.091V251.464Z" stroke="#1C1C1C" stroke-width="0.4" stroke-miterlimit="10"/>
<mask id="mask60_37_20053" style="mask-type:luminance" maskUnits="userSpaceOnUse" x="265" y="174" width="8" height="12">
<path d="M272.411 174.941H265.344V185.63H272.411V174.941Z" fill="white"/>
</mask>
<g mask="url(#mask60_37_20053)">
<path d="M271.152 175.979L268.941 180.29L271.152 184.601C271.203 184.686 271.305 184.729 271.399 184.695C271.492 184.661 271.552 184.567 271.552 184.474V176.106C271.552 176.004 271.492 175.919 271.399 175.885C271.305 175.851 271.212 175.894 271.152 175.979ZM272.207 176.106V184.474C272.207 184.899 271.951 185.265 271.577 185.384C271.203 185.503 270.803 185.333 270.599 184.975L268.38 180.656H267.887C267.734 181.183 267.292 181.566 266.781 181.6C266.348 181.625 265.948 181.379 265.727 180.97C265.506 180.571 265.497 180.06 265.71 179.652C265.923 179.244 266.322 178.989 266.747 178.989C266.917 178.989 267.062 179.159 267.062 179.346C267.062 179.533 266.926 179.695 266.747 179.703C266.45 179.703 266.203 179.967 266.203 180.299C266.203 180.63 266.45 180.902 266.747 180.902C267.036 180.868 267.258 180.613 267.292 180.299C267.394 180.077 267.606 179.933 267.836 179.95H268.372L270.582 175.63C270.787 175.273 271.186 175.094 271.56 175.205C271.943 175.299 272.207 175.681 272.207 176.106Z" stroke="#1C1C1C" stroke-width="0.5" stroke-miterlimit="10"/>
</g>
<mask id="mask61_37_20053" style="mask-type:luminance" maskUnits="userSpaceOnUse" x="265" y="161" width="8" height="11">
<path d="M272.411 161.2H265.344V171.889H272.411V161.2Z" fill="white"/>
</mask>
<g mask="url(#mask61_37_20053)">
<path d="M271.152 162.229L268.941 166.549L271.152 170.86C271.203 170.945 271.305 170.979 271.399 170.953C271.492 170.919 271.552 170.826 271.552 170.724V162.365C271.552 162.263 271.492 162.161 271.399 162.135C271.305 162.101 271.212 162.144 271.152 162.229ZM272.207 162.365V170.724C272.207 171.157 271.951 171.523 271.577 171.642C271.203 171.761 270.803 171.591 270.599 171.217L268.38 166.897H267.887C267.734 167.433 267.292 167.807 266.781 167.85C266.348 167.875 265.948 167.629 265.727 167.22C265.506 166.821 265.497 166.311 265.71 165.885C265.923 165.477 266.322 165.231 266.747 165.231C266.917 165.231 267.062 165.392 267.062 165.588C267.062 165.775 266.926 165.936 266.747 165.945C266.45 165.945 266.203 166.208 266.203 166.54C266.203 166.872 266.45 167.135 266.747 167.135C267.036 167.118 267.258 166.863 267.292 166.54C267.394 166.311 267.606 166.174 267.836 166.191H268.372L270.582 161.872C270.787 161.506 271.186 161.336 271.56 161.447C271.943 161.566 272.207 161.94 272.207 162.365Z" stroke="#1C1C1C" stroke-width="0.5" stroke-miterlimit="10"/>
</g>
<mask id="mask62_37_20053" style="mask-type:luminance" maskUnits="userSpaceOnUse" x="265" y="147" width="8" height="12">
<path d="M272.411 147.458H265.344V158.147H272.411V147.458Z" fill="white"/>
</mask>
<g mask="url(#mask62_37_20053)">
<path d="M271.152 148.496L268.941 152.807L271.152 157.118C271.203 157.212 271.305 157.246 271.399 157.212C271.492 157.178 271.552 157.093 271.552 156.991V148.623C271.552 148.53 271.492 148.436 271.399 148.402C271.305 148.368 271.212 148.411 271.152 148.496ZM272.207 148.623V156.991C272.207 157.424 271.951 157.799 271.577 157.909C271.203 158.028 270.803 157.858 270.599 157.484L268.38 153.164H267.887C267.734 153.7 267.292 154.074 266.781 154.117C266.348 154.125 265.948 153.887 265.727 153.47C265.506 153.071 265.497 152.569 265.71 152.152C265.923 151.744 266.322 151.489 266.747 151.489C266.917 151.497 267.062 151.659 267.062 151.846C267.062 152.05 266.926 152.195 266.747 152.203C266.45 152.203 266.203 152.467 266.203 152.798C266.203 153.139 266.45 153.402 266.747 153.402C267.036 153.368 267.258 153.122 267.292 152.807C267.394 152.577 267.606 152.441 267.836 152.45H268.372L270.582 148.13C270.787 147.773 271.186 147.603 271.56 147.722C271.943 147.824 272.207 148.198 272.207 148.623Z" stroke="#1C1C1C" stroke-width="0.5" stroke-miterlimit="10"/>
</g>
<mask id="mask63_37_20053" style="mask-type:luminance" maskUnits="userSpaceOnUse" x="248" y="176" width="10" height="11">
<path d="M257.24 176.455H248.881V186.294H257.24V176.455Z" fill="white"/>
</mask>
<g mask="url(#mask63_37_20053)">
<path d="M254.817 178.607H257.036V185.52C257.036 185.809 256.756 186.081 256.484 186.081H250.353C249.936 186.081 249.8 185.809 249.8 185.52V178.607H251.611M255.063 177.909H256.339V178.607M249.655 185.392C249.383 185.392 249.103 185.12 249.103 184.831V177.909H251.424M255.097 178.198L253.847 179.857L253.295 177.637L254.681 176.668L255.097 178.198ZM251.356 178.198L252.47 179.857L253.159 177.637L251.917 176.668L251.356 178.198Z" stroke="#1C1C1C" stroke-width="0.5" stroke-miterlimit="10" stroke-linecap="round" stroke-linejoin="round"/>
</g>
<mask id="mask64_37_20053" style="mask-type:luminance" maskUnits="userSpaceOnUse" x="235" y="176" width="9" height="11">
<path d="M243.558 176.455H235.199V186.294H243.558V176.455Z" fill="white"/>
</mask>
<g mask="url(#mask64_37_20053)">
<path d="M241.126 178.607H243.354V185.52C243.354 185.809 243.073 186.081 242.801 186.081H236.662C236.245 186.081 236.109 185.809 236.109 185.52V178.607H237.92M241.373 177.909H242.648V178.607M235.964 185.392C235.692 185.392 235.412 185.12 235.412 184.831V177.909H237.733M241.407 178.198L240.157 179.857L239.604 177.637L240.99 176.668L241.407 178.198ZM237.674 178.198L238.779 179.857L239.468 177.637L238.226 176.668L237.674 178.198Z" stroke="#1C1C1C" stroke-width="0.5" stroke-miterlimit="10" stroke-linecap="round" stroke-linejoin="round"/>
</g>
<path d="M231.432 173.938H261.398V143.98" stroke="black" stroke-width="0.5" stroke-miterlimit="10"/>
<mask id="mask65_37_20053" style="mask-type:luminance" maskUnits="userSpaceOnUse" x="260" y="193" width="13" height="9">
<path d="M272.801 193.836H260.701V201.829H272.801V193.836Z" fill="white"/>
</mask>
<g mask="url(#mask65_37_20053)">
<path d="M261.874 200.401L266.755 197.901L271.628 200.401C271.73 200.46 271.772 200.579 271.738 200.673C271.704 200.783 271.594 200.851 271.483 200.851H262.027C261.908 200.851 261.806 200.783 261.764 200.673C261.73 200.579 261.772 200.46 261.874 200.401ZM262.019 201.591H271.475C271.959 201.591 272.385 201.302 272.512 200.885C272.648 200.452 272.453 200.001 272.036 199.772L267.146 197.272V196.71C267.75 196.532 268.175 196.038 268.218 195.469C268.235 194.976 267.954 194.525 267.495 194.27C267.036 194.015 266.466 194.015 265.998 194.261C265.531 194.499 265.242 194.942 265.242 195.435C265.25 195.63 265.429 195.792 265.65 195.792C265.871 195.792 266.049 195.622 266.058 195.435C266.058 195.103 266.356 194.814 266.73 194.814C267.104 194.814 267.402 195.103 267.402 195.435C267.367 195.758 267.087 196.022 266.73 196.047C266.466 196.166 266.313 196.404 266.33 196.659V197.28L261.441 199.78C261.032 200.01 260.837 200.46 260.964 200.894C261.109 201.302 261.534 201.591 262.019 201.591Z" stroke="#1C1C1C" stroke-width="0.4" stroke-miterlimit="10"/>
</g>
<mask id="mask66_37_20053" style="mask-type:luminance" maskUnits="userSpaceOnUse" x="231" y="193" width="13" height="9">
<path d="M243.847 193.836H231.747V201.829H243.847V193.836Z" fill="white"/>
</mask>
<g mask="url(#mask66_37_20053)">
<path d="M232.92 200.401L237.809 197.901L242.69 200.401C242.784 200.46 242.835 200.579 242.801 200.673C242.767 200.783 242.665 200.851 242.546 200.851H233.09C232.971 200.851 232.86 200.783 232.826 200.673C232.775 200.579 232.818 200.46 232.92 200.401ZM233.064 201.591H242.529C243.013 201.591 243.438 201.302 243.566 200.885C243.694 200.452 243.507 200.001 243.09 199.772L238.2 197.272V196.71C238.804 196.532 239.229 196.038 239.272 195.469C239.289 194.976 239.008 194.525 238.549 194.27C238.09 194.015 237.52 194.015 237.052 194.261C236.585 194.499 236.296 194.942 236.296 195.435C236.304 195.63 236.483 195.792 236.704 195.792C236.925 195.792 237.103 195.622 237.112 195.435C237.112 195.103 237.418 194.814 237.784 194.814C238.158 194.814 238.464 195.103 238.464 195.435C238.43 195.758 238.149 196.022 237.792 196.047C237.529 196.166 237.376 196.404 237.393 196.659V197.28L232.495 199.78C232.086 200.01 231.891 200.46 232.027 200.894C232.163 201.302 232.588 201.591 233.064 201.591Z" stroke="#1C1C1C" stroke-width="0.4" stroke-miterlimit="10"/>
</g>
<mask id="mask67_37_20053" style="mask-type:luminance" maskUnits="userSpaceOnUse" x="246" y="193" width="13" height="9">
<path d="M258.618 193.836H246.517V201.829H258.618V193.836Z" fill="white"/>
</mask>
<g mask="url(#mask67_37_20053)">
<path d="M247.682 200.401L252.571 197.901L257.453 200.401C257.546 200.46 257.597 200.579 257.563 200.673C257.529 200.783 257.427 200.851 257.308 200.851H247.852C247.733 200.851 247.622 200.783 247.588 200.673C247.546 200.579 247.588 200.46 247.682 200.401ZM247.835 201.591H257.299C257.784 201.591 258.209 201.302 258.337 200.885C258.464 200.452 258.277 200.001 257.861 199.772L252.971 197.272V196.71C253.575 196.532 254 196.038 254.043 195.469C254.06 194.976 253.779 194.525 253.32 194.27C252.861 194.015 252.291 194.015 251.823 194.261C251.356 194.508 251.066 194.942 251.066 195.435C251.075 195.63 251.253 195.792 251.475 195.792C251.696 195.792 251.874 195.622 251.883 195.435C251.883 195.103 252.189 194.814 252.555 194.814C252.929 194.814 253.235 195.103 253.235 195.435C253.201 195.758 252.92 196.022 252.563 196.047C252.299 196.166 252.146 196.404 252.163 196.659V197.28L247.265 199.78C246.857 200.01 246.662 200.46 246.789 200.894C246.925 201.302 247.35 201.591 247.835 201.591Z" stroke="#1C1C1C" stroke-width="0.4" stroke-miterlimit="10"/>
</g>
<path d="M275.625 190.647H229.502V206.923H275.625V190.647Z" stroke="#8BBC21" stroke-width="0.5" stroke-miterlimit="10"/>
<path d="M275.633 190.647H229.51V206.923H275.633V190.647Z" stroke="#1C1C1C" stroke-width="0.5"/>
<path d="M237.631 204.176V205.528M249.842 205.528V206.889M275.387 204.176H229.502M275.387 205.528H229.502M275.387 190.613H229.502V206.889H275.387V190.613Z" stroke="#1C1C1C" stroke-width="0.5" stroke-miterlimit="10"/>
<path d="M237.631 204.176V205.528M249.842 205.528V206.889M275.387 204.176H229.502M275.387 205.528H229.502M275.387 190.613H229.502V206.889H275.387V190.613Z" stroke="#1C1C1C" stroke-width="0.5"/>
<mask id="mask68_37_20053" style="mask-type:luminance" maskUnits="userSpaceOnUse" x="125" y="253" width="16" height="21">
<path d="M140.811 253.683H125.011V273.871H140.811V253.683Z" fill="white"/>
</mask>
<g mask="url(#mask68_37_20053)">
<path d="M125.275 273.599H139.365C139.952 273.599 140.539 273.148 140.539 272.561V254.985C140.539 254.381 139.952 253.947 139.365 253.947H127.622H125.275V254.985V272.561" fill="white"/>
</g>
<mask id="mask69_37_20053" style="mask-type:luminance" maskUnits="userSpaceOnUse" x="125" y="253" width="16" height="21">
<path d="M140.811 253.683H125.011V273.871H140.811V253.683Z" fill="white"/>
</mask>
<g mask="url(#mask69_37_20053)">
<path d="M128.115 263.165C128.115 259.33 130.811 255.605 133.413 255.605C136.431 255.605 138.931 259.534 138.931 263.752C138.931 267.952 136.593 272.187 133.583 272.187C130.785 272.187 128.124 268.199 128.124 264.347M127.622 264.355V273.607H125.275V253.947H127.622V263.173M125.275 272.561V254.985C125.275 254.389 125.862 253.956 126.448 253.956H139.365C139.952 253.956 140.539 254.381 140.539 254.985V272.561C140.539 273.165 139.952 273.599 139.365 273.599H126.448C125.862 273.599 125.275 273.165 125.275 272.561ZM134.084 262.578C134.816 262.578 135.403 263.182 135.403 263.913C135.403 264.5 134.816 265.087 134.084 265.087C133.498 265.087 132.911 264.5 132.911 263.913C132.903 263.182 133.489 262.578 134.084 262.578ZM132.171 264.355H127.18C126.891 264.355 126.601 264.211 126.601 263.769C126.601 263.48 126.891 263.165 127.18 263.165H132.171V264.355Z" stroke="#1C1C1C" stroke-width="0.4" stroke-miterlimit="10" stroke-linejoin="round"/>
</g>
<mask id="mask70_37_20053" style="mask-type:luminance" maskUnits="userSpaceOnUse" x="-63" y="0" width="344" height="307">
<path d="M280.59 0H-63V306.83H280.59V0Z" fill="white"/>
</mask>
<g mask="url(#mask70_37_20053)">
<path d="M206.882 284.228C212.214 284.228 216.61 281.711 216.61 278.241C216.61 274.891 212.214 272.255 206.882 272.255C205.131 272.255 203.541 272.493 202.206 272.969C201.933 272.969 201.61 273.088 201.61 273.326V283.029C201.61 283.267 201.942 283.505 202.206 283.505C203.541 283.99 205.131 284.355 206.882 284.228Z" fill="white"/>
</g>
<mask id="mask71_37_20053" style="mask-type:luminance" maskUnits="userSpaceOnUse" x="-63" y="0" width="344" height="307">
<path d="M280.59 0H-63V306.83H280.59V0Z" fill="white"/>
</mask>
<g mask="url(#mask71_37_20053)">
<path d="M201.474 282.196V274.049C201.474 273.454 200.939 272.85 200.139 272.85H196.67V283.394H200.139C200.93 283.394 201.474 282.918 201.474 282.196Z" fill="white"/>
</g>
<mask id="mask72_37_20053" style="mask-type:luminance" maskUnits="userSpaceOnUse" x="196" y="272" width="21" height="13">
<path d="M216.84 272.025H196.423V284.5H216.84V272.025Z" fill="white"/>
</mask>
<g mask="url(#mask72_37_20053)">
<path d="M202.197 283.513C203.532 283.99 205.131 284.355 206.874 284.228C212.206 284.228 216.602 281.711 216.602 278.241C216.602 274.891 212.206 272.246 206.874 272.246C205.131 272.246 203.532 272.493 202.197 272.969M202.197 283.513V272.969M202.197 283.513C201.925 283.513 201.602 283.275 201.602 283.029V273.326C201.602 273.08 201.934 272.969 202.197 272.969M199.068 276.932C199.867 276.932 200.403 277.527 200.403 278.131C200.403 278.726 199.867 279.33 199.068 279.33C198.396 279.33 197.86 278.726 197.86 278.131C197.86 277.527 198.405 276.932 199.068 276.932ZM196.67 283.394H200.139C200.939 283.394 201.474 282.918 201.474 282.204V274.058C201.474 273.462 200.939 272.859 200.139 272.859H196.67V283.394Z" stroke="#1C1C1C" stroke-width="0.4" stroke-miterlimit="10" stroke-linejoin="round"/>
</g>
<path d="M193.856 283.216H175.514V301.558H193.856V283.216Z" fill="white"/>
<mask id="mask73_37_20053" style="mask-type:luminance" maskUnits="userSpaceOnUse" x="175" y="282" width="20" height="20">
<path d="M194.128 282.944H175.25V301.822H194.128V282.944Z" fill="white"/>
</mask>
<g mask="url(#mask73_37_20053)">
<path d="M185.114 298.344C187.895 298.344 190.072 296.167 190.072 293.42C190.072 290.673 187.886 288.352 185.114 288.352M180.599 295.495C181.381 297.187 183.09 298.352 185.114 298.352C187.895 298.352 190.072 296.175 190.072 293.429C190.072 290.682 187.886 288.361 185.114 288.361C183.048 288.361 181.313 289.645 180.556 291.439M181.075 286.226C181.075 285.563 181.628 285.027 182.291 285.027C182.963 285.027 183.507 285.563 183.507 286.226C183.507 286.898 182.971 287.434 182.291 287.434C181.619 287.434 181.075 286.898 181.075 286.226ZM177.878 286.226C177.878 285.563 178.413 285.027 179.094 285.027C179.765 285.027 180.31 285.563 180.31 286.226C180.31 286.898 179.774 287.434 179.094 287.434C178.413 287.434 177.878 286.898 177.878 286.226ZM181.449 293.42C181.449 295.461 183.065 297.068 185.114 297.068C187.18 297.068 188.796 295.461 188.796 293.42C188.796 291.379 187.18 289.636 185.114 289.636C183.065 289.636 181.449 291.379 181.449 293.42ZM178.983 294.517C178.983 295.087 179.578 295.52 180.165 295.52H180.463C181.066 295.52 181.517 295.087 181.517 294.517V292.374C181.517 291.804 181.075 291.379 180.463 291.379H180.165C179.57 291.379 178.983 291.804 178.983 292.374V294.517ZM175.514 301.558H193.856V283.216H175.514V301.558Z" stroke="#1C1C1C" stroke-width="0.4" stroke-miterlimit="10" stroke-linecap="round" stroke-linejoin="round"/>
</g>
<path d="M175.012 280.758H124.442V301.626H175.012V280.758Z" fill="white"/>
<mask id="mask74_37_20053" style="mask-type:luminance" maskUnits="userSpaceOnUse" x="124" y="280" width="52" height="22">
<path d="M175.275 280.495H124.178V301.89H175.275V280.495Z" fill="white"/>
</mask>
<g mask="url(#mask74_37_20053)">
<path d="M126.21 288.429V296.728H128.234V291.447M129.297 291.439V300.24H168.566C173.43 300.172 172.503 296.345 172.732 291.507C172.749 291.439 172.75 291.184 172.75 291.184V290.937C172.503 286.031 173.43 282.204 168.574 282.136H129.288V290.189M124.441 301.626H175.011V280.759H124.441V301.626ZM126.559 286.362C127.035 286.218 127.35 285.784 127.35 285.282C127.35 284.662 126.848 284.151 126.219 284.151C125.589 284.151 125.079 284.653 125.079 285.299C125.096 285.784 125.411 286.218 125.878 286.362C125.836 286.413 125.836 288.174 125.836 288.174C125.836 288.514 126.023 288.675 126.219 288.675C126.414 288.675 126.584 288.514 126.601 288.31V286.413L126.559 286.362ZM140.088 291.065C140.088 290.308 139.467 289.679 138.71 289.679C137.936 289.679 137.316 290.308 137.316 291.065C137.316 291.83 137.936 292.451 138.71 292.451C139.476 292.442 140.088 291.83 140.088 291.065ZM128.157 291.439H132.775V290.18H128.055C127.698 290.18 127.477 290.461 127.477 290.801C127.477 291.158 127.792 291.439 128.157 291.439Z" stroke="#1C1C1C" stroke-width="0.4" stroke-miterlimit="10" stroke-linejoin="round"/>
</g>
<mask id="mask75_37_20053" style="mask-type:luminance" maskUnits="userSpaceOnUse" x="-63" y="0" width="344" height="307">
<path d="M280.59 0H-63V306.83H280.59V0Z" fill="white"/>
</mask>
<g mask="url(#mask75_37_20053)">
<path d="M204.306 263.284C204.306 265.75 203.175 267.059 201.602 267.059H197.469C197.129 267.059 196.602 266.847 196.602 266.532V254.772C196.602 254.457 197.129 254.245 197.469 254.245H201.602C203.183 254.245 204.306 255.571 204.306 258.02" fill="white"/>
</g>
<mask id="mask76_37_20053" style="mask-type:luminance" maskUnits="userSpaceOnUse" x="-63" y="0" width="344" height="307">
<path d="M280.59 0H-63V306.83H280.59V0Z" fill="white"/>
</mask>
<g mask="url(#mask76_37_20053)">
<path d="M196.61 254.236V254.763C196.61 254.449 197.138 254.236 197.478 254.236" fill="white"/>
</g>
<mask id="mask77_37_20053" style="mask-type:luminance" maskUnits="userSpaceOnUse" x="196" y="254" width="9" height="14">
<path d="M204.536 254.007H196.381V267.289H204.536V254.007Z" fill="white"/>
</mask>
<g mask="url(#mask77_37_20053)">
<path d="M196.61 267.059H197.478C197.146 267.059 196.61 266.847 196.61 266.532" fill="white"/>
</g>
<mask id="mask78_37_20053" style="mask-type:luminance" maskUnits="userSpaceOnUse" x="196" y="254" width="9" height="14">
<path d="M204.536 254.007H196.381V267.289H204.536V254.007Z" fill="white"/>
</mask>
<g mask="url(#mask78_37_20053)">
<path d="M201.032 254.236H196.61V267.059H201.032M198.166 260.197C198.166 260.197 198.132 255.75 199.102 255.75C200.241 255.75 203.473 255.486 203.473 260.58C203.473 265.665 200.403 265.554 199.263 265.554C198.132 265.554 198.183 261.107 198.183 261.107M204.306 263.284C204.306 265.75 203.175 267.059 201.602 267.059H197.469C197.129 267.059 196.61 266.847 196.61 266.532V254.772C196.61 254.457 197.129 254.245 197.469 254.245H201.602C203.175 254.245 204.306 255.571 204.306 258.02V263.284ZM200.726 260.996H197.223C197.146 260.996 196.967 260.792 196.967 260.597C196.967 260.495 197.138 260.291 197.223 260.291H200.726V260.996ZM202.121 261.353C202.529 261.353 202.86 261.039 202.86 260.648C202.86 260.257 202.529 259.942 202.121 259.942C201.712 259.942 201.381 260.257 201.381 260.648C201.381 261.039 201.704 261.353 202.121 261.353Z" stroke="#1C1C1C" stroke-width="0.4" stroke-miterlimit="10" stroke-linejoin="round"/>
</g>
<mask id="mask79_37_20053" style="mask-type:luminance" maskUnits="userSpaceOnUse" x="-63" y="0" width="344" height="307">
<path d="M280.59 0H-63V306.83H280.59V0Z" fill="white"/>
</mask>
<g mask="url(#mask79_37_20053)">
<path d="M204.212 166.285C214.969 168.037 222.597 176.719 223.269 187.118" stroke="#1C1C1C" stroke-linecap="round" stroke-linejoin="round" stroke-dasharray="0.04 2.01"/>
</g>
<mask id="mask80_37_20053" style="mask-type:luminance" maskUnits="userSpaceOnUse" x="-63" y="0" width="344" height="307">
<path d="M280.59 0H-63V306.83H280.59V0Z" fill="white"/>
</mask>
<g mask="url(#mask80_37_20053)">
<path d="M223.311 187.977C223.311 187.986 223.311 187.986 223.311 187.994M202.503 166.072C202.511 166.072 202.511 166.072 202.52 166.072" stroke="#1C1C1C" stroke-linecap="round" stroke-linejoin="round"/>
</g>
<path d="M200.428 188.402H199.272V190.214H200.428V188.402Z" stroke="#1C1C1C" stroke-width="0.5"/>
<path d="M224.697 188.402H223.541V190.214H224.697V188.402Z" stroke="#1C1C1C" stroke-width="0.5"/>
<path d="M223.541 189.533H223.312V190.214H223.541V189.533Z" stroke="#1C1C1C" stroke-width="0.5"/>
<path d="M201.585 165.741H200.428V188.402H201.585V165.741Z" stroke="#1C1C1C" stroke-width="0.5"/>
<mask id="mask81_37_20053" style="mask-type:luminance" maskUnits="userSpaceOnUse" x="-63" y="0" width="344" height="307">
<path d="M280.59 0H-63V306.83H280.59V0Z" fill="white"/>
</mask>
<g mask="url(#mask81_37_20053)">
<path d="M150.071 231.932C159.527 233.547 166.219 241.2 166.857 250.367" stroke="#1C1C1C" stroke-linecap="round" stroke-linejoin="round" stroke-dasharray="0.04 2.01"/>
</g>
<mask id="mask82_37_20053" style="mask-type:luminance" maskUnits="userSpaceOnUse" x="-63" y="0" width="344" height="307">
<path d="M280.59 0H-63V306.83H280.59V0Z" fill="white"/>
</mask>
<g mask="url(#mask82_37_20053)">
<path d="M166.899 251.217C166.899 251.226 166.899 251.226 166.899 251.234M148.37 231.71C148.379 231.71 148.379 231.71 148.387 231.71" stroke="#1C1C1C" stroke-linecap="round" stroke-linejoin="round"/>
</g>
<path d="M146.526 251.6H145.497V253.216H146.526V251.6Z" stroke="#1C1C1C" stroke-width="0.5"/>
<path d="M168.132 251.6H167.104V253.216H168.132V251.6Z" stroke="#1C1C1C" stroke-width="0.5"/>
<path d="M167.103 252.604H166.899V253.207H167.103V252.604Z" stroke="#1C1C1C" stroke-width="0.5"/>
<path d="M147.554 231.413H146.525V251.6H147.554V231.413Z" stroke="#1C1C1C" stroke-width="0.5"/>
<mask id="mask83_37_20053" style="mask-type:luminance" maskUnits="userSpaceOnUse" x="-63" y="0" width="344" height="307">
<path d="M280.59 0H-63V306.83H280.59V0Z" fill="white"/>
</mask>
<g mask="url(#mask83_37_20053)">
<path d="M180.751 193.028C170.037 194.772 162.435 203.428 161.771 213.785" stroke="#1C1C1C" stroke-linecap="round" stroke-linejoin="round" stroke-dasharray="0.04 2.01"/>
</g>
<mask id="mask84_37_20053" style="mask-type:luminance" maskUnits="userSpaceOnUse" x="-63" y="0" width="344" height="307">
<path d="M280.59 0H-63V306.83H280.59V0Z" fill="white"/>
</mask>
<g mask="url(#mask84_37_20053)">
<path d="M161.729 214.636C161.729 214.644 161.729 214.644 161.729 214.653M182.46 192.816C182.452 192.816 182.452 192.816 182.443 192.816" stroke="#1C1C1C" stroke-linecap="round" stroke-linejoin="round"/>
</g>
<path d="M185.675 215.061H184.527V216.864H185.675V215.061Z" stroke="#1C1C1C" stroke-width="0.5"/>
<path d="M161.5 215.061H160.352V216.864H161.5V215.061Z" stroke="#1C1C1C" stroke-width="0.5"/>
<path d="M161.73 216.192H161.5V216.872H161.73V216.192Z" stroke="#1C1C1C" stroke-width="0.5"/>
<path d="M184.527 192.484H183.379V215.061H184.527V192.484Z" stroke="#1C1C1C" stroke-width="0.5"/>
<mask id="mask85_37_20053" style="mask-type:luminance" maskUnits="userSpaceOnUse" x="-63" y="0" width="344" height="307">
<path d="M280.59 0H-63V306.83H280.59V0Z" fill="white"/>
</mask>
<g mask="url(#mask85_37_20053)">
<path d="M224.051 232.068C214.663 233.675 208.005 241.277 207.375 250.384" stroke="#1C1C1C" stroke-linecap="round" stroke-linejoin="round" stroke-dasharray="0.03 2"/>
</g>
<mask id="mask86_37_20053" style="mask-type:luminance" maskUnits="userSpaceOnUse" x="-63" y="0" width="344" height="307">
<path d="M280.59 0H-63V306.83H280.59V0Z" fill="white"/>
</mask>
<g mask="url(#mask86_37_20053)">
<path d="M207.333 251.235V251.243M225.743 231.838C225.734 231.838 225.735 231.838 225.726 231.838" stroke="#1C1C1C" stroke-linecap="round" stroke-linejoin="round"/>
</g>
<path d="M228.6 251.609H227.58V253.207H228.6V251.609Z" stroke="#1C1C1C" stroke-width="0.5"/>
<path d="M207.129 251.609H206.109V253.207H207.129V251.609Z" stroke="#1C1C1C" stroke-width="0.5"/>
<path d="M207.333 252.604H207.129V253.207H207.333V252.604Z" stroke="#1C1C1C" stroke-width="0.5"/>
<path d="M227.58 231.549H226.56V251.609H227.58V231.549Z" stroke="#1C1C1C" stroke-width="0.5"/>
<mask id="mask87_37_20053" style="mask-type:luminance" maskUnits="userSpaceOnUse" x="-63" y="0" width="344" height="307">
<path d="M280.59 0H-63V306.83H280.59V0Z" fill="white"/>
</mask>
<g mask="url(#mask87_37_20053)">
<path d="M249.247 279.593C259.527 277.093 267.393 268.403 268.668 257.689" stroke="#1C1C1C" stroke-linecap="round" stroke-linejoin="round"/>
</g>
<path d="M243.159 252.569H241.875V254.627H243.159V252.569Z" stroke="#1C1C1C" stroke-width="0.5"/>
<path d="M270.131 252.569H268.847V254.627H270.131V252.569Z" stroke="#1C1C1C" stroke-width="0.5"/>
<path d="M268.847 252.569H268.592V253.343H268.847V252.569Z" stroke="#1C1C1C" stroke-width="0.5"/>
<path d="M244.434 254.619H243.15V280.316H244.434V254.619Z" stroke="#1C1C1C" stroke-width="0.5"/>
<path d="M228.702 155.452H227.75V176.693H228.702V155.452Z" stroke="#1C1C1C" stroke-width="0.5"/>
</g>
<defs>
<clipPath id="clip0_37_20053">
<rect width="281" height="307" fill="white"/>
</clipPath>
</defs>
</svg>
