<svg width="478" height="68" viewBox="0 0 478 68" fill="none" xmlns="http://www.w3.org/2000/svg">
<g clip-path="url(#clip0_0_122)">
<path d="M28.89 14.59C28.87 15.27 27.08 16.4 23.51 17.98C21.53 18.86 19.88 19.24 18.58 19.13C18.24 19.11 17.21 18.73 15.51 17.98C14.7 18.36 13.99 18.47 13.4 18.3C12.87 18.13 12.61 17.79 12.63 17.28C12.65 16.85 13.03 16.44 13.78 16.03C14.46 15.65 15.06 15.46 15.57 15.49C15.8 15.49 16.09 15.51 16.43 15.55C16.77 15.59 17 15.61 17.1 15.61C17.89 15.23 18.78 14.54 19.79 13.56C20.75 12.64 21.2 12 21.13 11.64C21.11 11.38 20.98 11.26 20.75 11.26C20.43 11.26 19.91 11.39 19.18 11.64C18.37 11.92 17.91 12.07 17.8 12.09C17.65 12.11 17.52 12 17.42 11.77C17.36 11.58 17.33 11.39 17.36 11.19C17.4 10.98 17.95 10.48 18.99 9.69C20.4 8.65 21.33 7.91 21.77 7.48C23.95 5.45 25.03 4.34 25.03 4.15C25.03 3.89 24.77 3.79 24.26 3.83C22.83 3.96 21.42 4.24 20.04 4.66C17.78 5.36 15.94 6.09 14.54 6.84C13.45 7.42 11.36 8.95 8.27 11.45C3.04 15.72 0.44 17.85 0.46 17.85C0.31 17.85 0.18 17.76 0.08 17.59C0 17.43 -0.02 17.26 0.02 17.09C0.08 16.81 2.49 14.51 7.25 10.18L14.23 3.65C13.87 3.65 12.25 4.27 9.37 5.51C6.06 6.96 4.52 7.7 4.76 7.74C4.46 7.68 4.25 7.48 4.12 7.16C4.01 6.86 5.4 6.03 8.28 4.66L14.68 1.72C17.26 0.550002 18.71 -0.029998 19.03 -0.009998C19.5 -0.009998 19.73 0.160002 19.73 0.500002C19.73 0.690002 19.44 0.990002 18.87 1.4C18.12 1.93 17.64 2.32 17.43 2.55C16.81 3.28 16.15 4.11 15.45 5.05C19.12 3.83 21.1 3.19 21.4 3.13C23.45 2.75 24.92 2.64 25.82 2.81C26.46 2.94 26.76 3.24 26.72 3.71C26.7 4.16 25.63 5.44 23.52 7.55C23.09 7.98 22.5 8.52 21.73 9.18L20.45 10.24C20.86 10.24 21.24 10.22 21.6 10.18C21.79 10.16 21.99 10.28 22.21 10.53C22.38 10.76 22.48 10.99 22.5 11.2C22.56 12.22 21.92 13.31 20.58 14.46C18.28 16.47 17.19 17.43 17.32 17.34C17.9 17.72 18.43 17.94 18.92 17.98C19.84 18.09 21.18 17.77 22.95 17.02C23.59 16.76 24.7 16.2 26.28 15.32C27.71 14.53 28.46 14.14 28.52 14.14C28.76 14.12 28.89 14.27 28.89 14.59ZM39.57 13.95C39.55 14.19 38.12 15.29 35.28 17.28C33.55 18.48 32.06 19.16 30.8 19.33C30.35 19.39 29.89 19.22 29.42 18.82C28.93 18.44 28.68 18.01 28.68 17.54C28.68 16.05 29.43 14.28 30.92 12.23C32.01 10.74 32.99 9.99 33.86 9.99C34.31 9.99 34.71 10.24 35.08 10.73C35.4 11.2 35.55 11.68 35.53 12.17C35.49 13.34 34.63 14.39 32.97 15.31C32.27 15.69 31.35 16.04 30.22 16.33C30.05 16.65 29.96 17.01 29.96 17.42C29.96 17.78 30.3 18 30.98 18.06C31.41 18.08 32.49 17.59 34.24 16.59C37.76 14.54 39.38 13.52 39.1 13.52C39.45 13.5 39.59 13.65 39.57 13.95ZM34.26 12.1C34.26 11.63 34.07 11.4 33.68 11.4C33.19 11.4 32.63 11.91 32.02 12.94L30.8 14.99C31.8 14.82 32.59 14.46 33.17 13.9C33.9 13.21 34.26 12.61 34.26 12.1ZM53.4 14.34C53.27 15 51.87 16.15 49.21 17.8C47.27 19.02 45.59 19.57 44.19 19.46C43.08 19.37 42.58 18.91 42.69 18.05C42.8 17.37 43.07 16.71 43.52 16.07C43.56 16.03 44.06 15.45 45.02 14.34C44.61 14.34 44.25 14.28 43.93 14.15C43.29 13.89 42.83 13.53 42.55 13.06C42.06 13.74 41.5 14.34 40.89 14.85C40.14 15.45 39.69 15.75 39.55 15.75C39.41 15.75 39.26 15.7 39.13 15.59C39 15.48 38.95 15.37 38.97 15.24C38.99 15.22 39.4 14.75 40.19 13.83L41.57 12.29C42.85 10.28 43.7 9.26 44.13 9.22C44.3 9.2 44.47 9.25 44.64 9.38C44.81 9.53 44.9 9.71 44.9 9.92C44.88 10.15 44.71 10.53 44.39 11.04C44.01 11.66 43.75 12.12 43.62 12.42C43.81 12.76 44.05 12.95 44.32 13C44.81 13.13 45.39 13.13 46.05 13C46.46 12.87 46.99 12.53 47.65 11.98C48.23 11.53 48.61 11.32 48.8 11.34C49.23 11.38 49.46 11.64 49.5 12.11C49.56 12.69 48.62 13.45 46.68 14.41C45.06 15.88 44.22 17.06 44.15 17.93C44.15 18.14 44.42 18.25 44.95 18.25C45.72 18.23 46.95 17.74 48.66 16.78C49.13 16.52 49.96 15.94 51.16 15.02C52.23 14.21 52.82 13.79 52.95 13.77C53.12 13.75 53.25 13.8 53.33 13.93C53.42 14.05 53.44 14.19 53.4 14.34ZM72.63 14.08C72.69 14.57 71.44 15.7 68.85 17.47C67.38 18.49 66.08 19.01 64.95 19.01C63.33 19.01 62.52 18.11 62.52 16.32C62.54 15.72 62.71 14.98 63.03 14.08C62.88 14.08 62.56 14.05 62.07 13.98C61.66 13.94 61.37 13.93 61.17 13.95C60.17 14.08 59.36 14.12 58.74 14.08L57.33 16C55.79 18.05 54.81 19.05 54.39 19.01C54.05 18.95 53.88 18.9 53.88 18.88C53.77 18.6 54.26 17.73 55.35 16.26C55.95 15.45 56.48 14.55 56.95 13.57C56.74 13.68 56.03 14.15 54.84 14.98C53.9 15.64 53.28 15.98 52.98 16C52.77 16 52.64 15.85 52.6 15.55C52.54 15.19 52.9 14.75 53.69 14.24C55.03 13.39 55.97 12.74 56.51 12.29C58.11 10.88 59.19 10.21 59.74 10.27C60.02 10.29 60.2 10.52 60.28 10.94C60.37 11.37 60.19 11.92 59.77 12.6H61.56C61.67 12.6 61.99 12.63 62.52 12.7C62.95 12.76 63.24 12.78 63.42 12.73C63.78 12.37 64.12 11.98 64.44 11.58C65.27 10.56 65.89 10.04 66.3 10.04C66.94 10.04 67.22 10.21 67.13 10.55C67.11 10.64 66.75 11.25 66.04 12.41C64.67 14.65 63.99 15.95 63.99 16.31C63.99 17.29 64.44 17.78 65.33 17.78C66.08 17.78 66.99 17.42 68.08 16.69C68.4 16.48 69.17 15.88 70.38 14.9C71.4 14.07 71.98 13.64 72.11 13.62C72.42 13.57 72.59 13.72 72.63 14.08ZM91.7 14.34C91.7 14.49 90.15 15.6 87.06 17.67C84.84 19.16 83 19.91 81.52 19.91C80.45 19.91 79.79 19.44 79.54 18.5C79.41 18.01 79.4 17.43 79.51 16.77C78.61 17.37 77.78 17.86 77.01 18.24C75.69 18.92 74.57 19.26 73.65 19.26C72.37 19.26 71.73 18.6 71.73 17.28C71.73 16.17 72.7 14.58 74.64 12.51C76.73 10.21 78.23 9.06 79.15 9.09C80.22 9.13 81.11 9.64 81.84 10.63C82.03 10.89 82.26 11.43 82.51 12.26C83.43 11.71 83.78 11.42 83.57 11.4C84.23 11.44 84.53 11.7 84.47 12.17C84.41 12.55 83.93 13.23 83.03 14.19C82.35 14.98 81.81 15.53 81.43 15.85C80.96 16.96 80.74 17.61 80.76 17.8C80.82 18.35 81.14 18.63 81.72 18.63C82.62 18.63 84.16 17.99 86.36 16.71C89.92 14.64 91.55 13.62 91.26 13.64C91.55 13.61 91.7 13.85 91.7 14.34ZM81.27 12.42C81.27 12.08 81.06 11.65 80.63 11.14C80.18 10.61 79.75 10.35 79.35 10.37C78.58 10.41 77.28 11.44 75.45 13.44C73.74 15.34 72.93 16.62 73.02 17.28C73.08 17.73 73.4 17.98 73.98 18.05C74.41 18.09 75.29 17.75 76.64 17.03C78.82 15.9 80.34 14.76 81.22 13.61L81.27 12.42ZM105.14 9.79C105.14 9.88 104.91 10.32 104.44 11.13C103.67 12.54 103.29 13.26 103.29 13.31C103.78 13.72 104.02 14.16 103.99 14.65C103.97 15.08 103.85 15.7 103.64 16.51C103.47 17.26 103.39 17.83 103.42 18.24C103.42 18.37 103.47 18.54 103.58 18.75C103.69 18.94 103.72 19.11 103.68 19.26C103.53 19.64 103.25 19.86 102.85 19.9C102.53 19.92 102.26 19.75 102.05 19.39C101.86 19.09 101.76 18.79 101.76 18.49C101.76 18.26 101.84 17.75 102.02 16.99C102.21 16.18 102.32 15.61 102.34 15.29C102.34 15.03 102.11 14.78 101.64 14.52C100.64 15.42 99.78 16.14 99.08 16.7C96.93 18.36 95.23 19.15 93.99 19.07C92.15 18.92 91.26 18.09 91.3 16.57C91.3 15.95 91.57 15.38 92.1 14.84C92.59 14.33 93.05 14.09 93.48 14.14C93.61 14.16 93.75 14.44 93.9 14.97C93.92 15.12 93.76 15.34 93.42 15.64C93.04 15.94 92.83 16.35 92.81 16.89C92.77 17.42 93.24 17.72 94.22 17.79C95.09 17.85 96.4 17.19 98.12 15.81C99.08 15.02 99.83 14.36 100.36 13.83C100.04 13.15 99.91 12.68 99.98 12.42C100.07 11.78 100.59 11.08 101.55 10.31C102.55 9.52 103.5 9.09 104.4 9.03C104.53 9.01 104.69 9.08 104.88 9.25C105.05 9.42 105.14 9.6 105.14 9.79ZM140.12 13.82C140.14 14.16 139.55 14.79 138.36 15.71C137.14 16.63 136.04 17.3 135.06 17.73C133.65 18.33 132.41 18.63 131.35 18.63C130.15 18.63 129.26 18.16 128.66 17.22C128.55 17.07 128.41 16.83 128.24 16.48C128.05 16.05 127.91 15.77 127.82 15.62C127.67 15.75 127.36 15.98 126.89 16.32C126.46 16.62 126.11 16.9 125.83 17.15C125.72 17.24 125.37 17.66 124.77 18.43C124.26 19.07 123.91 19.39 123.71 19.39C123.24 19.39 122.96 19.24 122.88 18.94C122.86 18.88 123.75 17.79 125.57 15.68C127.23 13.78 128.07 12.57 128.07 12.03C128.07 11.67 127.88 11.45 127.49 11.39C127.15 11.35 125.97 11.88 123.97 12.99C123.52 13.22 122.63 13.81 121.28 14.75C120.23 15.5 119.64 15.85 119.49 15.81C118.94 15.7 118.7 15.51 118.79 15.23C118.83 15.08 119.45 14.59 120.65 13.76C121.82 12.95 122.68 12.42 123.21 12.16C125.62 10.94 127.11 10.3 127.69 10.24C128.1 10.2 128.48 10.29 128.84 10.53C129.22 10.76 129.42 11.05 129.42 11.39C129.42 11.75 129.31 12.2 129.1 12.73C128.89 13.28 128.78 13.69 128.78 13.95C128.67 13.95 129.68 13.35 131.79 12.16C134.09 10.82 135.3 10.15 135.41 10.18C135.64 10.22 135.76 10.42 135.76 10.76C135.76 10.82 134.76 11.53 132.75 12.87L131.15 13.96C130.47 14.45 129.87 14.86 129.36 15.18C129.3 15.27 129.32 15.54 129.42 16.01C129.46 16.29 129.65 16.6 130 16.94C130.45 17.37 130.94 17.57 131.47 17.55C132.52 17.51 133.5 17.27 134.41 16.85C135.11 16.51 136.2 15.84 137.67 14.83C138.95 13.96 139.65 13.52 139.78 13.52C139.97 13.5 140.07 13.61 140.12 13.82ZM162.13 14.14C162.02 14.48 160.96 15.36 158.93 16.76C156.99 18.13 155.3 18.81 153.87 18.81C151.84 18.81 150.44 18.11 149.65 16.7C149.29 16.02 149.14 15.57 149.2 15.36C146.38 17 145.04 17.79 145.17 17.73C143.16 18.71 141.74 19.2 140.88 19.2C139.45 19.2 138.79 18.6 138.9 17.41C138.96 16.66 139.27 15.88 139.83 15.07C140.43 14.2 140.99 13.8 141.53 13.89C141.83 13.93 141.96 14.1 141.91 14.4C141.89 14.57 141.77 14.75 141.56 14.94C141.26 15.2 141.08 15.38 141.02 15.48C140.44 16.33 140.14 16.95 140.12 17.34C140.08 17.81 140.33 18.04 140.89 18.04C141.47 18.04 142.6 17.66 144.28 16.89C145.07 16.53 146.01 15.99 147.1 15.29C148.66 14.27 149.94 13.33 150.94 12.47L152.25 10.93C152.83 10.25 153.28 9.93 153.63 9.97C154.18 10.06 154.44 10.25 154.4 10.55C154.34 10.87 153.78 11.64 152.74 12.85C151.54 14.32 150.95 15.27 150.95 15.7C150.95 16.25 151.24 16.72 151.81 17.11C152.39 17.52 153.1 17.72 153.95 17.72C154.78 17.72 156.13 17.17 157.98 16.06C160.62 14.42 161.84 13.61 161.63 13.63C161.76 13.61 161.89 13.65 162.01 13.76C162.13 13.87 162.18 14 162.13 14.14ZM181.08 14.34C181.08 14.49 179.53 15.6 176.44 17.67C174.22 19.16 172.38 19.91 170.9 19.91C169.83 19.91 169.17 19.44 168.92 18.5C168.79 18.01 168.78 17.43 168.89 16.77C167.99 17.37 167.16 17.86 166.39 18.24C165.07 18.92 163.95 19.26 163.03 19.26C161.75 19.26 161.11 18.6 161.11 17.28C161.11 16.17 162.08 14.58 164.02 12.51C166.11 10.21 167.61 9.06 168.53 9.09C169.6 9.13 170.49 9.64 171.22 10.63C171.41 10.89 171.64 11.43 171.89 12.26C172.81 11.71 173.16 11.42 172.95 11.4C173.61 11.44 173.91 11.7 173.85 12.17C173.79 12.55 173.31 13.23 172.41 14.19C171.73 14.98 171.19 15.53 170.81 15.85C170.34 16.96 170.12 17.61 170.14 17.8C170.2 18.35 170.52 18.63 171.1 18.63C172 18.63 173.54 17.99 175.74 16.71C179.3 14.64 180.93 13.62 180.64 13.64C180.93 13.61 181.08 13.85 181.08 14.34ZM170.65 12.42C170.65 12.08 170.44 11.65 170.01 11.14C169.56 10.61 169.13 10.35 168.73 10.37C167.96 10.41 166.66 11.44 164.83 13.44C163.12 15.34 162.31 16.62 162.4 17.28C162.46 17.73 162.78 17.98 163.36 18.05C163.79 18.09 164.67 17.75 166.02 17.03C168.2 15.9 169.72 14.76 170.6 13.61L170.65 12.42ZM194.26 14.59C194.22 15.14 192.62 16.15 189.46 17.6C186.79 18.8 184.81 19.37 183.51 19.33C182.85 19.31 182.28 19.11 181.81 18.72C181.3 18.29 181.01 17.73 180.95 17.02C180.84 15.76 181.53 14.23 183 12.41C184.88 10.13 186.61 8.98 188.18 8.95C188.76 8.93 189.2 9.22 189.52 9.81C189.82 10.32 189.96 10.93 189.94 11.63C189.92 12.21 189.75 12.79 189.43 13.39C189.09 14.03 188.76 14.34 188.44 14.32C188.1 14.28 187.95 14.04 187.99 13.62C187.99 13.66 188.14 13.31 188.44 12.56C188.7 11.98 188.76 11.5 188.63 11.12C188.44 10.46 188.25 10.14 188.05 10.16C186.62 10.31 185.26 11.31 183.95 13.17C182.93 14.66 182.39 15.84 182.35 16.69C182.31 17.8 182.73 18.29 183.63 18.16C184.89 17.99 186.55 17.48 188.62 16.62C189.43 16.3 190.51 15.75 191.85 14.96C193.04 14.26 193.7 13.89 193.8 13.87C194.16 13.82 194.3 14.06 194.26 14.59ZM207.57 14.59C207.53 15.14 205.93 16.15 202.77 17.6C200.1 18.8 198.12 19.37 196.82 19.33C196.16 19.31 195.59 19.11 195.12 18.72C194.61 18.29 194.32 17.73 194.26 17.02C194.15 15.76 194.84 14.23 196.31 12.41C198.19 10.13 199.92 8.98 201.49 8.95C202.07 8.93 202.51 9.22 202.83 9.81C203.13 10.32 203.27 10.93 203.25 11.63C203.23 12.21 203.06 12.79 202.74 13.39C202.4 14.03 202.07 14.34 201.75 14.32C201.41 14.28 201.26 14.04 201.3 13.62C201.3 13.66 201.45 13.31 201.75 12.56C202.01 11.98 202.07 11.5 201.94 11.12C201.75 10.46 201.56 10.14 201.36 10.16C199.93 10.31 198.57 11.31 197.26 13.17C196.24 14.66 195.7 15.84 195.66 16.69C195.62 17.8 196.04 18.29 196.94 18.16C198.2 17.99 199.86 17.48 201.93 16.62C202.74 16.3 203.82 15.75 205.16 14.96C206.35 14.26 207.01 13.89 207.11 13.87C207.47 13.82 207.62 14.06 207.57 14.59ZM229.49 13.95C229.53 14.16 229.05 14.67 228.05 15.45C227.07 16.2 226.09 16.85 225.11 17.4C223.23 18.45 221.93 18.98 221.21 19C219.91 19.02 219 18.51 218.49 17.46C218.23 16.91 218.11 16.46 218.11 16.12C215.81 17.91 213.66 18.85 211.68 18.94C210.48 19 209.91 18.56 209.95 17.6C209.97 17.13 210.27 16.36 210.85 15.3C211.4 14.23 211.91 13.5 212.35 13.09C212.14 13.22 211.82 13.38 211.39 13.57L210.27 14.15C208.5 15.09 207.62 15.56 207.65 15.56C207.27 15.52 207.1 15.33 207.14 14.98C207.23 14.36 208.46 13.55 210.85 12.55C211.13 12.44 211.71 12.14 212.61 11.65C213.36 11.22 213.88 10.99 214.18 10.95C214.39 10.91 214.61 10.97 214.82 11.14C215.03 11.29 215.14 11.46 215.14 11.65C215.14 11.88 214.56 12.63 213.41 13.89C212.26 15.17 211.62 16.22 211.49 17.03C211.45 17.37 211.43 17.5 211.43 17.41C211.43 17.54 211.53 17.61 211.72 17.63C213.17 17.69 215.07 16.85 217.42 15.1C218.34 14.4 219.08 13.74 219.66 13.12C220.81 11.84 221.43 11.2 221.52 11.2C222.16 11.22 222.51 11.56 222.58 12.22C222.58 12.39 222.37 12.69 221.94 13.12C221.39 13.7 221.03 14.1 220.88 14.34C220.09 15.45 219.7 16.13 219.7 16.39C219.68 16.75 219.79 17.06 220.02 17.32C220.3 17.64 220.66 17.8 221.11 17.8C221.66 17.8 222.67 17.4 224.12 16.58C224.87 16.15 225.86 15.51 227.1 14.66C228.32 13.85 228.91 13.44 228.89 13.44C229.15 13.27 229.37 13.44 229.49 13.95ZM249.56 13.82C249.58 14.16 248.99 14.79 247.8 15.71C246.58 16.63 245.48 17.3 244.5 17.73C243.09 18.33 241.85 18.63 240.79 18.63C239.59 18.63 238.7 18.16 238.1 17.22C237.99 17.07 237.85 16.83 237.68 16.48C237.49 16.05 237.35 15.77 237.26 15.62C237.11 15.75 236.8 15.98 236.33 16.32C235.9 16.62 235.55 16.9 235.27 17.15C235.16 17.24 234.81 17.66 234.21 18.43C233.7 19.07 233.35 19.39 233.15 19.39C232.68 19.39 232.4 19.24 232.32 18.94C232.3 18.88 233.19 17.79 235.01 15.68C236.67 13.78 237.51 12.57 237.51 12.03C237.51 11.67 237.32 11.45 236.93 11.39C236.59 11.35 235.41 11.88 233.41 12.99C232.96 13.22 232.07 13.81 230.72 14.75C229.67 15.5 229.08 15.85 228.93 15.81C228.38 15.7 228.14 15.51 228.23 15.23C228.27 15.08 228.89 14.59 230.09 13.76C231.26 12.95 232.12 12.42 232.65 12.16C235.06 10.94 236.55 10.3 237.13 10.24C237.54 10.2 237.92 10.29 238.28 10.53C238.66 10.76 238.86 11.05 238.86 11.39C238.86 11.75 238.75 12.2 238.54 12.73C238.33 13.28 238.22 13.69 238.22 13.95C238.11 13.95 239.12 13.35 241.23 12.16C243.53 10.82 244.74 10.15 244.85 10.18C245.08 10.22 245.2 10.42 245.2 10.76C245.2 10.82 244.2 11.53 242.19 12.87L240.59 13.96C239.91 14.45 239.31 14.86 238.8 15.18C238.74 15.27 238.76 15.54 238.86 16.01C238.9 16.29 239.09 16.6 239.44 16.94C239.89 17.37 240.38 17.57 240.91 17.55C241.96 17.51 242.94 17.27 243.85 16.85C244.55 16.51 245.64 15.84 247.11 14.83C248.39 13.96 249.09 13.52 249.22 13.52C249.41 13.5 249.52 13.61 249.56 13.82ZM268.34 14.34C268.34 14.49 266.79 15.6 263.7 17.67C261.48 19.16 259.64 19.91 258.16 19.91C257.09 19.91 256.43 19.44 256.18 18.5C256.05 18.01 256.04 17.43 256.15 16.77C255.25 17.37 254.42 17.86 253.65 18.24C252.33 18.92 251.21 19.26 250.29 19.26C249.01 19.26 248.37 18.6 248.37 17.28C248.37 16.17 249.34 14.58 251.28 12.51C253.37 10.21 254.87 9.06 255.79 9.09C256.86 9.13 257.75 9.64 258.48 10.63C258.67 10.89 258.9 11.43 259.15 12.26C260.07 11.71 260.42 11.42 260.21 11.4C260.87 11.44 261.17 11.7 261.11 12.17C261.05 12.55 260.57 13.23 259.67 14.19C258.99 14.98 258.45 15.53 258.07 15.85C257.6 16.96 257.38 17.61 257.4 17.8C257.46 18.35 257.78 18.63 258.36 18.63C259.26 18.63 260.8 17.99 263 16.71C266.56 14.64 268.19 13.62 267.9 13.64C268.19 13.61 268.34 13.85 268.34 14.34ZM257.91 12.42C257.91 12.08 257.7 11.65 257.27 11.14C256.82 10.61 256.39 10.35 255.99 10.37C255.22 10.41 253.92 11.44 252.09 13.44C250.38 15.34 249.57 16.62 249.66 17.28C249.72 17.73 250.04 17.98 250.62 18.05C251.05 18.09 251.93 17.75 253.28 17.03C255.46 15.9 256.98 14.76 257.86 13.61L257.91 12.42Z" fill="url(#paint0_linear_0_122)"/>
<path d="M98.07 28.5101C98.11 28.8901 97.77 29.5901 97.05 30.5901C96.24 31.7001 95.28 32.6801 94.17 33.5301C92.12 35.1101 89.15 36.8401 85.24 38.7101C85.09 38.8601 84.75 39.1601 84.22 39.6101C83.71 40.0201 83.31 40.3801 83.04 40.7001C82.25 41.6001 81.71 42.3501 81.41 42.9701C83.01 42.4601 84.06 42.2201 84.55 42.2701C84.91 42.2901 85.27 42.4301 85.64 42.6901C86 42.9701 86.18 43.2101 86.18 43.4301C86.18 44.4801 85.3 46.0001 83.56 48.0101C82.07 49.7601 80.58 50.6301 79.11 50.6301C78.85 50.6301 78.54 50.4601 78.18 50.1201C77.77 49.7401 77.58 49.3601 77.6 49.0001C77.69 47.6101 78.09 46.3001 78.82 45.0601L80.64 42.1501C80.3 42.3601 79.94 42.6301 79.55 42.9501C79.06 43.3601 78.72 43.6201 78.53 43.7501C76.74 45.0301 75.76 45.6801 75.59 45.7001C75.36 45.7401 75.2 45.5601 75.11 45.1601C75.09 45.0301 76.3 44.0401 78.76 42.1801C80.68 40.7301 82.37 39.3601 83.82 38.0801C84.01 37.8901 84.88 36.9101 86.41 35.1401C87.8 33.5201 89.13 32.1101 90.41 30.9201C93.42 28.1001 95.41 26.7001 96.39 26.7001C97.4 26.6901 97.96 27.3001 98.07 28.5101ZM84.76 43.6801C84.76 43.4901 84.62 43.3901 84.34 43.3901C83.38 43.3501 82.14 43.7401 80.63 44.5701C80.22 45.0401 79.87 45.5501 79.57 46.1101C79.02 47.1101 78.76 48.0101 78.8 48.8001C78.84 49.2701 79.1 49.4801 79.57 49.4401C80.38 49.3801 81.4 48.6401 82.64 47.2301C84.1 45.5701 84.8 44.3801 84.76 43.6801ZM96.85 28.5801C96.91 28.4101 96.9 28.2401 96.82 28.0701C96.73 27.9001 96.61 27.8001 96.44 27.7801C95.78 27.7201 94.07 29.0101 91.32 31.6501C89.16 33.6301 87.55 35.3801 86.49 36.9001C89.16 35.5601 91.35 34.2201 93.08 32.9001C95.06 31.4001 96.32 29.9601 96.85 28.5801ZM116.95 44.5801C116.91 45.1301 115.31 46.1401 112.15 47.5901C109.48 48.7901 107.5 49.3601 106.2 49.3201C105.54 49.3001 104.97 49.1001 104.5 48.7101C103.99 48.2801 103.7 47.7201 103.64 47.0101C103.53 45.7501 104.22 44.2201 105.69 42.4001C107.57 40.1201 109.3 38.9701 110.87 38.9401C111.45 38.9201 111.89 39.2101 112.21 39.8001C112.51 40.3101 112.65 40.9201 112.63 41.6201C112.61 42.2001 112.44 42.7801 112.12 43.3801C111.78 44.0201 111.45 44.3301 111.13 44.3101C110.79 44.2701 110.64 44.0301 110.68 43.6101C110.68 43.6501 110.83 43.3001 111.13 42.5501C111.39 41.9701 111.45 41.4901 111.32 41.1101C111.13 40.4501 110.94 40.1301 110.74 40.1501C109.31 40.3001 107.95 41.3001 106.64 43.1601C105.62 44.6501 105.08 45.8301 105.04 46.6801C105 47.7901 105.42 48.2801 106.32 48.1501C107.58 47.9801 109.24 47.4701 111.31 46.6101C112.12 46.2901 113.2 45.7401 114.54 44.9501C115.73 44.2501 116.39 43.8801 116.49 43.8601C116.84 43.8101 116.99 44.0401 116.95 44.5801ZM127.48 43.5201C127.48 44.7201 126.64 45.9901 124.95 47.3601C123.41 48.6201 121.73 49.2301 119.89 49.1801C118.82 49.1601 118 48.8401 117.43 48.2201C116.94 47.6901 116.72 47.0501 116.76 46.3001C116.8 45.1101 117.31 44.2201 118.3 43.6401C118.47 43.5301 118.81 43.4801 119.32 43.4801C119.45 43.4001 119.63 43.2201 119.86 42.9701C120.12 42.7101 120.31 42.5401 120.44 42.4601C122.12 41.4601 123.5 40.9601 124.57 40.9601C125.44 40.9601 126.15 41.2101 126.68 41.7001C127.21 42.1701 127.48 42.7701 127.48 43.5201ZM126.26 43.3301C126.26 42.6301 125.74 42.2501 124.69 42.2101C123.56 42.1701 122.48 42.5701 121.46 43.4301C121.31 43.5401 121.11 43.7801 120.85 44.1701C120.64 44.4901 120.41 44.6801 120.18 44.7501C120.05 44.7701 119.91 44.7701 119.76 44.7501H119.34C118.98 44.7901 118.65 45.0501 118.35 45.5201C118.14 45.9001 118.03 46.2001 118.03 46.4201C118.03 46.8501 118.24 47.2301 118.67 47.5701C119.12 47.8901 119.63 48.0501 120.21 48.0501C121.3 48.0501 122.54 47.5901 123.92 46.6701C125.48 45.6101 126.26 44.5001 126.26 43.3301ZM163.38 43.8701C163.36 44.3201 162.27 45.2601 160.12 46.6901C157.6 48.3301 155.7 49.1601 154.42 49.1901C154.04 49.1901 153.72 49.0101 153.46 48.6501C153.23 48.3301 153.12 47.9601 153.14 47.5301C153.18 46.9501 153.82 45.9701 155.06 44.5901C156.08 43.4001 156.62 42.7301 156.66 42.6101C156.3 42.8201 155.78 43.0601 155.12 43.3101C154.24 43.6701 153.65 43.9301 153.33 44.0801C151.71 44.9801 149.92 45.7701 147.95 46.4501C142.25 52.8301 138.97 56.4801 138.09 57.3901C131.37 64.4301 128.04 67.9501 128.11 67.9501C127.81 67.9501 127.64 67.8401 127.6 67.6301C127.6 67.5701 130.86 63.8501 137.39 56.4901L140.11 53.5101C141.09 52.4201 142.1 51.2801 143.15 50.0901C145.79 47.0801 147.72 44.8601 148.91 43.4301L147.69 44.0701C146.3 44.8601 145.71 45.2701 145.9 45.2901C145.69 45.2701 145.47 45.0801 145.26 44.7101C145.11 44.4101 146.16 43.6401 148.4 42.4101C148.89 42.1501 149.43 41.8201 150.03 41.4201C150.65 41.0101 151.11 40.7301 151.41 40.5601C152.16 39.9401 152.7 39.6701 153.04 39.7601C153.36 39.8201 153.52 39.9801 153.52 40.2401C153.52 40.2001 152.97 40.8201 151.86 42.1001C150.84 43.2501 150.2 44.0001 149.94 44.3401C150.75 44.1501 152.09 43.5701 153.97 42.6101C156.19 41.4201 157.75 40.8201 158.64 40.8201C158.9 40.8201 159 41.0301 158.96 41.4601C158.87 42.0601 158.08 43.1001 156.59 44.6001C155.12 46.1401 154.39 47.1201 154.41 47.5401C154.45 47.8801 154.6 48.0501 154.86 48.0501C155.67 48.0501 157.23 47.3001 159.53 45.8101C161.73 44.3601 162.84 43.6301 162.86 43.6301C163.21 43.5701 163.38 43.6601 163.38 43.8701ZM152.28 28.5101C152.32 28.8901 151.98 29.5901 151.26 30.5901C150.45 31.7001 149.49 32.6801 148.38 33.5301C146.33 35.1101 143.36 36.8401 139.45 38.7101C139.3 38.8601 138.96 39.1601 138.43 39.6101C137.92 40.0201 137.52 40.3801 137.25 40.7001C136.46 41.6001 135.92 42.3501 135.62 42.9701C137.22 42.4601 138.27 42.2201 138.76 42.2701C139.12 42.2901 139.48 42.4301 139.85 42.6901C140.21 42.9701 140.39 43.2101 140.39 43.4301C140.39 44.4801 139.51 46.0001 137.77 48.0101C136.28 49.7601 134.79 50.6301 133.32 50.6301C133.06 50.6301 132.75 50.4601 132.39 50.1201C131.98 49.7401 131.79 49.3601 131.81 49.0001C131.9 47.6101 132.3 46.3001 133.03 45.0601L134.85 42.1501C134.51 42.3601 134.15 42.6301 133.76 42.9501C133.27 43.3601 132.93 43.6201 132.74 43.7501C130.95 45.0301 129.97 45.6801 129.8 45.7001C129.57 45.7401 129.41 45.5601 129.32 45.1601C129.3 45.0301 130.51 44.0401 132.97 42.1801C134.89 40.7301 136.58 39.3601 138.03 38.0801C138.22 37.8901 139.09 36.9101 140.62 35.1401C142.01 33.5201 143.34 32.1101 144.62 30.9201C147.63 28.1001 149.62 26.7001 150.6 26.7001C151.6 26.6901 152.17 27.3001 152.28 28.5101ZM138.96 43.6801C138.96 43.4901 138.82 43.3901 138.54 43.3901C137.58 43.3501 136.34 43.7401 134.83 44.5701C134.42 45.0401 134.07 45.5501 133.77 46.1101C133.22 47.1101 132.96 48.0101 133 48.8001C133.04 49.2701 133.3 49.4801 133.77 49.4401C134.58 49.3801 135.6 48.6401 136.84 47.2301C138.3 45.5701 139.01 44.3801 138.96 43.6801ZM151.06 28.5801C151.12 28.4101 151.11 28.2401 151.03 28.0701C150.94 27.9001 150.82 27.8001 150.65 27.7801C149.99 27.7201 148.28 29.0101 145.53 31.6501C143.37 33.6301 141.76 35.3801 140.7 36.9001C143.37 35.5601 145.56 34.2201 147.29 32.9001C149.27 31.4001 150.53 29.9601 151.06 28.5801ZM173.52 43.9401C173.5 44.1801 172.07 45.2801 169.23 47.2701C167.5 48.4701 166.01 49.1501 164.75 49.3201C164.3 49.3801 163.84 49.2101 163.37 48.8101C162.88 48.4301 162.63 48.0001 162.63 47.5301C162.63 46.0401 163.38 44.2701 164.87 42.2201C165.96 40.7301 166.94 39.9801 167.81 39.9801C168.26 39.9801 168.66 40.2301 169.03 40.7201C169.35 41.1901 169.5 41.6701 169.48 42.1601C169.44 43.3301 168.58 44.3801 166.92 45.3001C166.22 45.6801 165.3 46.0301 164.17 46.3201C164 46.6401 163.91 47.0001 163.91 47.4101C163.91 47.7701 164.25 47.9901 164.93 48.0501C165.36 48.0701 166.44 47.5801 168.19 46.5801C171.71 44.5301 173.33 43.5101 173.05 43.5101C173.4 43.4901 173.55 43.6401 173.52 43.9401ZM168.21 42.0801C168.21 41.6101 168.02 41.3801 167.63 41.3801C167.14 41.3801 166.58 41.8901 165.97 42.9201L164.75 44.9701C165.75 44.8001 166.54 44.4401 167.12 43.8801C167.85 43.1901 168.21 42.5901 168.21 42.0801ZM203.64 43.8701C203.66 44.2801 202.23 45.2801 199.35 46.8801C197.6 47.8401 196.19 48.3101 195.13 48.2901C193.25 48.2301 192.31 47.5401 192.31 46.2401C192.31 45.6601 192.54 44.9401 193.01 44.0601C193.16 43.7601 193.41 43.3701 193.78 42.8801C194.14 42.3901 194.36 42.0801 194.42 41.9501C193.46 42.2301 191.9 43.0401 189.75 44.3801C187.74 45.6001 186.42 46.4301 185.78 46.8801C184.31 47.9001 183.58 48.4201 183.6 48.4201C183.3 48.3801 183.15 48.2501 183.15 48.0401C183.17 47.8701 183.3 47.5301 183.53 47.0201C183.81 46.4201 183.98 46.0401 184.04 45.8701C184.25 45.2301 184.36 44.6801 184.36 44.2101C184.1 44.3601 183.58 44.7001 182.79 45.2301C181.89 45.8301 181.2 46.2801 180.71 46.5701C177.81 48.3201 175.87 49.1901 174.89 49.1901C174.21 49.1901 173.65 49.0001 173.23 48.6101C172.76 48.1801 172.53 47.6101 172.53 46.8801C172.53 46.5001 172.85 45.8801 173.49 45.0201C174.17 44.1001 174.73 43.6601 175.15 43.6801C175.49 43.6801 175.68 43.8701 175.73 44.2601C175.75 44.4701 175.62 44.6901 175.35 44.9001C174.99 45.1601 174.77 45.3501 174.71 45.4801C174.28 46.2101 174.05 46.7801 174.01 47.2101C173.99 47.4001 174.07 47.5901 174.27 47.7901C174.46 47.9601 174.65 48.0501 174.85 48.0501C175.38 48.0501 177.18 47.2001 180.23 45.4901C181.55 44.7401 182.88 43.8501 184.2 42.8001C185.95 41.4601 186.76 40.7701 186.63 40.7501C187.12 40.7901 187.35 40.9801 187.33 41.3301C187.33 41.2401 187.12 41.9301 186.69 43.3801L186.37 44.7901C187.63 44.2101 189.01 43.4701 190.53 42.5501C193.24 40.9901 195.12 40.2501 196.16 40.3101C196.61 40.3501 196.82 40.5201 196.8 40.8201C196.8 40.8001 196.48 41.2701 195.84 42.2301C195.71 42.4401 195.47 42.7801 195.1 43.2501C194.82 43.6301 194.6 44.0001 194.43 44.3401C194 45.1701 193.77 45.7901 193.73 46.2001C193.69 46.7101 194.16 47.0101 195.14 47.1001C195.91 47.1601 197.04 46.8201 198.53 46.0801C199.21 45.7401 200.19 45.1601 201.47 44.3501C202.51 43.7101 203.09 43.3901 203.2 43.3901C203.47 43.3601 203.62 43.5301 203.64 43.8701ZM213.59 43.9401C213.57 44.1801 212.14 45.2801 209.3 47.2701C207.57 48.4701 206.08 49.1501 204.82 49.3201C204.37 49.3801 203.91 49.2101 203.44 48.8101C202.95 48.4301 202.7 48.0001 202.7 47.5301C202.7 46.0401 203.45 44.2701 204.94 42.2201C206.03 40.7301 207.01 39.9801 207.88 39.9801C208.33 39.9801 208.73 40.2301 209.1 40.7201C209.42 41.1901 209.57 41.6701 209.55 42.1601C209.51 43.3301 208.65 44.3801 206.99 45.3001C206.29 45.6801 205.37 46.0301 204.24 46.3201C204.07 46.6401 203.98 47.0001 203.98 47.4101C203.98 47.7701 204.32 47.9901 205 48.0501C205.43 48.0701 206.51 47.5801 208.26 46.5801C211.78 44.5301 213.4 43.5101 213.12 43.5101C213.46 43.4901 213.61 43.6401 213.59 43.9401ZM208.28 42.0801C208.28 41.6101 208.09 41.3801 207.7 41.3801C207.21 41.3801 206.65 41.8901 206.04 42.9201L204.82 44.9701C205.82 44.8001 206.61 44.4401 207.19 43.8801C207.91 43.1901 208.28 42.5901 208.28 42.0801ZM232.63 44.0601C232.69 44.5501 231.44 45.6801 228.85 47.4501C227.38 48.4701 226.08 48.9901 224.95 48.9901C223.33 48.9901 222.52 48.0901 222.52 46.3001C222.54 45.7001 222.71 44.9601 223.03 44.0601C222.88 44.0601 222.56 44.0301 222.07 43.9601C221.66 43.9201 221.37 43.9101 221.17 43.9301C220.17 44.0601 219.36 44.1001 218.74 44.0601L217.33 45.9801C215.79 48.0301 214.81 49.0301 214.39 48.9901C214.05 48.9301 213.88 48.8801 213.88 48.8601C213.77 48.5801 214.26 47.7101 215.35 46.2401C215.95 45.4301 216.48 44.5301 216.95 43.5501C216.74 43.6601 216.03 44.1301 214.84 44.9601C213.9 45.6201 213.28 45.9601 212.98 45.9801C212.77 45.9801 212.64 45.8301 212.6 45.5301C212.54 45.1701 212.9 44.7301 213.69 44.2201C215.03 43.3701 215.97 42.7201 216.51 42.2701C218.11 40.8601 219.19 40.1901 219.74 40.2501C220.02 40.2701 220.2 40.5001 220.28 40.9201C220.37 41.3501 220.19 41.9001 219.77 42.5801H221.56C221.67 42.5801 221.99 42.6101 222.52 42.6801C222.95 42.7401 223.24 42.7601 223.42 42.7101C223.78 42.3501 224.12 41.9601 224.44 41.5601C225.27 40.5401 225.89 40.0201 226.3 40.0201C226.94 40.0201 227.22 40.1901 227.13 40.5301C227.11 40.6201 226.75 41.2301 226.04 42.3901C224.67 44.6301 223.99 45.9301 223.99 46.2901C223.99 47.2701 224.44 47.7601 225.33 47.7601C226.08 47.7601 226.99 47.4001 228.08 46.6701C228.4 46.4601 229.17 45.8601 230.38 44.8801C231.4 44.0501 231.98 43.6201 232.11 43.6001C232.42 43.5501 232.59 43.7001 232.63 44.0601ZM251.77 44.0601C251.83 44.5501 250.58 45.6801 247.99 47.4501C246.52 48.4701 245.22 48.9901 244.09 48.9901C242.47 48.9901 241.66 48.0901 241.66 46.3001C241.68 45.7001 241.85 44.9601 242.17 44.0601C242.02 44.0601 241.7 44.0301 241.21 43.9601C240.8 43.9201 240.51 43.9101 240.31 43.9301C239.31 44.0601 238.5 44.1001 237.88 44.0601L236.47 45.9801C234.93 48.0301 233.95 49.0301 233.53 48.9901C233.19 48.9301 233.02 48.8801 233.02 48.8601C232.91 48.5801 233.4 47.7101 234.49 46.2401C235.09 45.4301 235.62 44.5301 236.09 43.5501C235.88 43.6601 235.17 44.1301 233.98 44.9601C233.04 45.6201 232.42 45.9601 232.12 45.9801C231.91 45.9801 231.78 45.8301 231.74 45.5301C231.68 45.1701 232.04 44.7301 232.83 44.2201C234.17 43.3701 235.11 42.7201 235.65 42.2701C237.25 40.8601 238.33 40.1901 238.88 40.2501C239.16 40.2701 239.34 40.5001 239.42 40.9201C239.51 41.3501 239.33 41.9001 238.91 42.5801H240.7C240.81 42.5801 241.13 42.6101 241.66 42.6801C242.09 42.7401 242.38 42.7601 242.56 42.7101C242.92 42.3501 243.26 41.9601 243.58 41.5601C244.41 40.5401 245.03 40.0201 245.44 40.0201C246.08 40.0201 246.36 40.1901 246.27 40.5301C246.25 40.6201 245.89 41.2301 245.18 42.3901C243.81 44.6301 243.13 45.9301 243.13 46.2901C243.13 47.2701 243.58 47.7601 244.47 47.7601C245.22 47.7601 246.13 47.4001 247.22 46.6701C247.54 46.4601 248.31 45.8601 249.52 44.8801C250.54 44.0501 251.12 43.6201 251.25 43.6001C251.55 43.5501 251.72 43.7001 251.77 44.0601ZM262.26 43.5201C262.26 44.7201 261.42 45.9901 259.73 47.3601C258.19 48.6201 256.51 49.2301 254.67 49.1801C253.6 49.1601 252.78 48.8401 252.21 48.2201C251.72 47.6901 251.5 47.0501 251.54 46.3001C251.58 45.1101 252.09 44.2201 253.08 43.6401C253.25 43.5301 253.59 43.4801 254.1 43.4801C254.23 43.4001 254.41 43.2201 254.64 42.9701C254.9 42.7101 255.09 42.5401 255.22 42.4601C256.9 41.4601 258.28 40.9601 259.35 40.9601C260.22 40.9601 260.93 41.2101 261.46 41.7001C261.99 42.1701 262.26 42.7701 262.26 43.5201ZM261.05 43.3301C261.05 42.6301 260.53 42.2501 259.48 42.2101C258.35 42.1701 257.27 42.5701 256.25 43.4301C256.1 43.5401 255.9 43.7801 255.64 44.1701C255.43 44.4901 255.2 44.6801 254.97 44.7501C254.84 44.7701 254.7 44.7701 254.55 44.7501H254.13C253.77 44.7901 253.44 45.0501 253.14 45.5201C252.93 45.9001 252.82 46.2001 252.82 46.4201C252.82 46.8501 253.03 47.2301 253.46 47.5701C253.91 47.8901 254.42 48.0501 255 48.0501C256.09 48.0501 257.33 47.5901 258.71 46.6701C260.27 45.6101 261.05 44.5001 261.05 43.3301ZM295.03 43.8701C295.05 44.2801 293.62 45.2801 290.74 46.8801C288.99 47.8401 287.58 48.3101 286.52 48.2901C284.64 48.2301 283.7 47.5401 283.7 46.2401C283.7 45.6601 283.93 44.9401 284.4 44.0601C284.55 43.7601 284.8 43.3701 285.17 42.8801C285.53 42.3901 285.75 42.0801 285.81 41.9501C284.85 42.2301 283.29 43.0401 281.14 44.3801C279.13 45.6001 277.81 46.4301 277.17 46.8801C275.7 47.9001 274.97 48.4201 274.99 48.4201C274.69 48.3801 274.54 48.2501 274.54 48.0401C274.56 47.8701 274.69 47.5301 274.92 47.0201C275.2 46.4201 275.37 46.0401 275.43 45.8701C275.64 45.2301 275.75 44.6801 275.75 44.2101C275.49 44.3601 274.97 44.7001 274.18 45.2301C273.28 45.8301 272.59 46.2801 272.1 46.5701C269.2 48.3201 267.26 49.1901 266.28 49.1901C265.6 49.1901 265.04 49.0001 264.62 48.6101C264.15 48.1801 263.92 47.6101 263.92 46.8801C263.92 46.5001 264.24 45.8801 264.88 45.0201C265.56 44.1001 266.12 43.6601 266.54 43.6801C266.88 43.6801 267.07 43.8701 267.12 44.2601C267.14 44.4701 267.01 44.6901 266.74 44.9001C266.38 45.1601 266.16 45.3501 266.1 45.4801C265.67 46.2101 265.44 46.7801 265.4 47.2101C265.38 47.4001 265.46 47.5901 265.66 47.7901C265.85 47.9601 266.04 48.0501 266.24 48.0501C266.77 48.0501 268.57 47.2001 271.62 45.4901C272.94 44.7401 274.27 43.8501 275.59 42.8001C277.34 41.4601 278.15 40.7701 278.02 40.7501C278.51 40.7901 278.74 40.9801 278.72 41.3301C278.72 41.2401 278.51 41.9301 278.08 43.3801L277.76 44.7901C279.02 44.2101 280.4 43.4701 281.92 42.5501C284.63 40.9901 286.51 40.2501 287.55 40.3101C288 40.3501 288.21 40.5201 288.19 40.8201C288.19 40.8001 287.87 41.2701 287.23 42.2301C287.1 42.4401 286.86 42.7801 286.49 43.2501C286.21 43.6301 285.99 44.0001 285.82 44.3401C285.39 45.1701 285.16 45.7901 285.12 46.2001C285.08 46.7101 285.55 47.0101 286.53 47.1001C287.3 47.1601 288.43 46.8201 289.92 46.0801C290.6 45.7401 291.58 45.1601 292.86 44.3501C293.9 43.7101 294.48 43.3901 294.59 43.3901C294.86 43.3601 295.01 43.5301 295.03 43.8701ZM326.97 44.0001C326.97 44.5501 325.41 45.7301 322.3 47.5201C320.42 48.5901 319.06 49.1201 318.2 49.1201C317.94 49.1201 317.69 48.9701 317.43 48.6701C317.17 48.3901 317.05 48.1401 317.05 47.9001C317.05 47.5001 317.5 46.6001 318.39 45.2101C319.24 43.8701 319.67 42.9701 319.67 42.5201C319.65 42.3101 319.52 42.2001 319.29 42.2001C318.37 42.2001 317.24 42.7301 315.9 43.8001C314.98 44.5501 313.96 45.4901 312.83 46.6201C312.64 46.8101 312.34 47.1401 311.93 47.6101L310.91 48.8301C310.06 49.7701 309.42 50.2101 308.99 50.1401C308.44 50.0801 308.14 49.7301 308.09 49.1201C308.09 49.0601 308.45 48.7401 309.18 48.1601C310.4 47.2001 311.23 46.4501 311.68 45.9201C313.26 44.0901 314.09 42.7201 314.18 41.8201C314.24 41.4401 314.12 41.2401 313.8 41.2401C313.54 41.2401 312.56 41.7701 310.86 42.8401C310.39 43.1401 309.68 43.6901 308.72 44.5001C307.97 45.1401 307.54 45.4601 307.41 45.4601C307.11 45.4201 306.94 45.2301 306.9 44.8801C306.84 44.4501 307.97 43.4501 310.29 41.8701C312.34 40.5101 313.77 39.8201 314.58 39.8201C315.26 39.8201 315.63 40.2001 315.67 40.9701C315.69 41.3101 315.61 41.7801 315.41 42.3801C315.71 42.3201 315.99 42.2201 316.24 42.0901C316.58 41.9001 316.82 41.7801 316.94 41.7401C318.33 41.2501 319.29 41.0201 319.82 41.0401C320.63 41.0601 321.04 41.5301 321.04 42.4501C321.04 42.9001 320.61 43.8201 319.76 45.2001C319.03 46.3501 318.67 47.1001 318.67 47.4401C318.67 47.6101 318.76 47.7001 318.93 47.7001C319.57 47.7001 320.61 47.2501 322.07 46.3601C322.28 46.2301 323.08 45.7001 324.47 44.7601C325.69 43.9701 326.34 43.5701 326.42 43.5401C326.77 43.5101 326.97 43.6601 326.97 44.0001ZM344.79 43.8701C344.77 44.3201 343.68 45.2601 341.53 46.6901C339.01 48.3301 337.11 49.1601 335.83 49.1901C335.45 49.1901 335.13 49.0101 334.87 48.6501C334.64 48.3301 334.53 47.9601 334.55 47.5301C334.59 46.9501 335.23 45.9701 336.47 44.5901C337.49 43.4001 338.03 42.7301 338.07 42.6101C337.71 42.8201 337.19 43.0601 336.53 43.3101C335.65 43.6701 335.06 43.9301 334.74 44.0801C333.12 44.9801 331.33 45.7701 329.36 46.4501C323.66 52.8301 320.38 56.4801 319.5 57.3901C312.78 64.4301 309.45 67.9501 309.52 67.9501C309.22 67.9501 309.05 67.8401 309.01 67.6301C309.01 67.5701 312.27 63.8501 318.8 56.4901L321.52 53.5101C322.5 52.4201 323.51 51.2801 324.56 50.0901C327.2 47.0801 329.13 44.8601 330.32 43.4301L329.1 44.0701C327.71 44.8601 327.12 45.2701 327.31 45.2901C327.1 45.2701 326.88 45.0801 326.67 44.7101C326.52 44.4101 327.57 43.6401 329.81 42.4101C330.3 42.1501 330.84 41.8201 331.44 41.4201C332.06 41.0101 332.52 40.7301 332.82 40.5601C333.57 39.9401 334.11 39.6701 334.45 39.7601C334.77 39.8201 334.93 39.9801 334.93 40.2401C334.93 40.2001 334.38 40.8201 333.27 42.1001C332.25 43.2501 331.61 44.0001 331.35 44.3401C332.16 44.1501 333.5 43.5701 335.38 42.6101C337.6 41.4201 339.16 40.8201 340.05 40.8201C340.31 40.8201 340.41 41.0301 340.37 41.4601C340.28 42.0601 339.49 43.1001 338 44.6001C336.53 46.1401 335.8 47.1201 335.82 47.5401C335.86 47.8801 336.01 48.0501 336.27 48.0501C337.08 48.0501 338.64 47.3001 340.94 45.8101C343.14 44.3601 344.25 43.6301 344.27 43.6301C344.62 43.5701 344.79 43.6601 344.79 43.8701ZM355.13 43.5201C355.13 44.7201 354.29 45.9901 352.6 47.3601C351.06 48.6201 349.38 49.2301 347.54 49.1801C346.47 49.1601 345.65 48.8401 345.08 48.2201C344.59 47.6901 344.37 47.0501 344.41 46.3001C344.45 45.1101 344.96 44.2201 345.95 43.6401C346.12 43.5301 346.46 43.4801 346.97 43.4801C347.1 43.4001 347.28 43.2201 347.51 42.9701C347.77 42.7101 347.96 42.5401 348.09 42.4601C349.77 41.4601 351.15 40.9601 352.22 40.9601C353.09 40.9601 353.8 41.2101 354.33 41.7001C354.86 42.1701 355.13 42.7701 355.13 43.5201ZM353.91 43.3301C353.91 42.6301 353.39 42.2501 352.34 42.2101C351.21 42.1701 350.13 42.5701 349.11 43.4301C348.96 43.5401 348.76 43.7801 348.5 44.1701C348.29 44.4901 348.06 44.6801 347.83 44.7501C347.7 44.7701 347.56 44.7701 347.41 44.7501H347C346.64 44.7901 346.31 45.0501 346.01 45.5201C345.8 45.9001 345.69 46.2001 345.69 46.4201C345.69 46.8501 345.9 47.2301 346.33 47.5701C346.78 47.8901 347.29 48.0501 347.87 48.0501C348.96 48.0501 350.2 47.5901 351.58 46.6701C353.13 45.6101 353.91 44.5001 353.91 43.3301ZM371.61 44.3201C371.48 44.9801 370.08 46.1301 367.42 47.7801C365.48 49.0001 363.8 49.5501 362.4 49.4401C361.29 49.3501 360.79 48.8901 360.9 48.0301C361.01 47.3501 361.28 46.6901 361.73 46.0501C361.77 46.0101 362.27 45.4301 363.23 44.3201C362.82 44.3201 362.46 44.2601 362.14 44.1301C361.5 43.8701 361.04 43.5101 360.76 43.0401C360.27 43.7201 359.71 44.3201 359.1 44.8301C358.35 45.4301 357.91 45.7301 357.76 45.7301C357.61 45.7301 357.47 45.6801 357.34 45.5701C357.21 45.4601 357.16 45.3501 357.18 45.2201C357.2 45.2001 357.61 44.7301 358.4 43.8101L359.78 42.2701C361.06 40.2601 361.91 39.2401 362.34 39.2001C362.51 39.1801 362.68 39.2301 362.85 39.3601C363.02 39.5101 363.11 39.6901 363.11 39.9001C363.09 40.1301 362.92 40.5101 362.6 41.0201C362.22 41.6401 361.96 42.1001 361.83 42.4001C362.02 42.7401 362.26 42.9301 362.53 42.9801C363.02 43.1101 363.6 43.1101 364.26 42.9801C364.66 42.8501 365.2 42.5101 365.86 41.9601C366.44 41.5101 366.82 41.3001 367.01 41.3201C367.44 41.3601 367.67 41.6201 367.71 42.0901C367.77 42.6701 366.83 43.4301 364.89 44.3901C363.27 45.8601 362.43 47.0401 362.36 47.9101C362.36 48.1201 362.63 48.2301 363.16 48.2301C363.93 48.2101 365.17 47.7201 366.87 46.7601C367.34 46.5001 368.17 45.9201 369.37 45.0001C370.44 44.1901 371.03 43.7701 371.16 43.7501C371.33 43.7301 371.46 43.7801 371.54 43.9101C371.63 44.0301 371.65 44.1701 371.61 44.3201ZM404.25 43.8101C404.21 44.4701 402.46 45.8401 399 47.9101C396.91 49.1501 395.07 49.8301 393.5 49.9601C393.03 50.0001 392.6 49.8201 392.22 49.4201C391.84 49.0101 391.64 48.5101 391.64 47.9201C391.64 47.5401 392.07 46.5101 392.92 44.8501C393.05 44.5701 393.37 44.0801 393.88 43.3801C394.29 42.8501 394.48 42.4801 394.46 42.2901C394.44 41.9901 394.22 41.8201 393.82 41.7801C393.22 41.7401 391.56 42.5901 388.83 44.3401C388.42 44.7201 387.85 45.4101 387.1 46.3901C386.44 47.2401 385.93 47.6701 385.56 47.6701C385.11 47.6701 384.83 47.4101 384.73 46.9001C384.71 46.8101 385.35 46.0901 386.65 44.7201C387.59 43.7601 388.06 42.9201 388.06 42.1901C388.06 41.7001 387.78 41.4501 387.23 41.4501C386.55 41.4501 385.74 41.6201 384.8 41.9601C382.99 42.6401 381.56 43.4101 380.51 44.2601C380.02 44.6701 379.51 45.1601 378.97 45.7301C378.31 46.4601 377.86 46.9301 377.63 47.1401C376.58 48.0601 375.94 48.5101 375.71 48.4801C375.33 48.4201 375.11 48.1401 375.07 47.6501C375.05 47.4201 375.56 46.7501 376.61 45.6701C377.87 44.3701 378.49 43.5601 378.47 43.2401C378.43 42.7701 378.19 42.5401 377.77 42.5401C377.22 42.5401 376.19 42.9001 374.7 43.6301C374.32 43.8001 373.72 44.2001 372.91 44.8101C372.25 45.3001 371.84 45.5301 371.69 45.4801C371.2 45.3501 370.97 45.1601 370.99 44.9001C371.05 44.3701 372.14 43.5401 374.25 42.4001C375.4 41.7801 376.77 41.4001 378.35 41.2501C378.73 41.2101 379.11 41.4001 379.47 41.8301C379.77 42.2101 379.95 42.6001 380.01 42.9801C380.54 42.5701 381.68 42.0201 383.43 41.3201C385.29 40.5501 386.56 40.1701 387.24 40.1701C388.37 40.1701 389.05 40.6801 389.29 41.7101C389.38 42.0301 389.42 42.3301 389.42 42.6101C389.7 42.5301 390.52 42.1101 391.88 41.3601C393.03 40.7601 393.81 40.4701 394.22 40.5001C395.29 40.5601 395.84 41.0301 395.88 41.9101C395.88 41.8201 395.35 42.8501 394.28 44.9801C393.38 46.8101 392.94 47.7701 392.94 47.8601C392.94 48.4601 393.17 48.7601 393.64 48.7601C394.62 48.7601 396.24 48.1401 398.5 46.9001C399.2 46.5201 400.33 45.7501 401.89 44.6001C403.06 43.7501 403.77 43.3401 404 43.3801C404.16 43.4001 404.25 43.5501 404.25 43.8101ZM414.52 43.9401C414.5 44.1801 413.07 45.2801 410.23 47.2701C408.5 48.4701 407.01 49.1501 405.75 49.3201C405.3 49.3801 404.84 49.2101 404.37 48.8101C403.88 48.4301 403.63 48.0001 403.63 47.5301C403.63 46.0401 404.38 44.2701 405.87 42.2201C406.96 40.7301 407.94 39.9801 408.81 39.9801C409.26 39.9801 409.66 40.2301 410.03 40.7201C410.35 41.1901 410.5 41.6701 410.48 42.1601C410.44 43.3301 409.58 44.3801 407.92 45.3001C407.22 45.6801 406.3 46.0301 405.17 46.3201C405 46.6401 404.91 47.0001 404.91 47.4101C404.91 47.7701 405.25 47.9901 405.93 48.0501C406.36 48.0701 407.44 47.5801 409.19 46.5801C412.71 44.5301 414.33 43.5101 414.05 43.5101C414.39 43.4901 414.54 43.6401 414.52 43.9401ZM409.21 42.0801C409.21 41.6101 409.02 41.3801 408.63 41.3801C408.14 41.3801 407.58 41.8901 406.97 42.9201L405.75 44.9701C406.75 44.8001 407.54 44.4401 408.12 43.8801C408.84 43.1901 409.21 42.5901 409.21 42.0801ZM433.56 44.0601C433.62 44.5501 432.37 45.6801 429.78 47.4501C428.31 48.4701 427.01 48.9901 425.88 48.9901C424.26 48.9901 423.45 48.0901 423.45 46.3001C423.47 45.7001 423.64 44.9601 423.96 44.0601C423.81 44.0601 423.49 44.0301 423 43.9601C422.59 43.9201 422.3 43.9101 422.1 43.9301C421.1 44.0601 420.29 44.1001 419.67 44.0601L418.26 45.9801C416.72 48.0301 415.74 49.0301 415.32 48.9901C414.98 48.9301 414.81 48.8801 414.81 48.8601C414.7 48.5801 415.19 47.7101 416.28 46.2401C416.88 45.4301 417.41 44.5301 417.88 43.5501C417.67 43.6601 416.96 44.1301 415.77 44.9601C414.83 45.6201 414.21 45.9601 413.91 45.9801C413.7 45.9801 413.57 45.8301 413.53 45.5301C413.47 45.1701 413.83 44.7301 414.62 44.2201C415.96 43.3701 416.9 42.7201 417.44 42.2701C419.04 40.8601 420.12 40.1901 420.67 40.2501C420.95 40.2701 421.13 40.5001 421.21 40.9201C421.29 41.3501 421.12 41.9001 420.7 42.5801H422.49C422.6 42.5801 422.92 42.6101 423.45 42.6801C423.88 42.7401 424.17 42.7601 424.35 42.7101C424.71 42.3501 425.05 41.9601 425.37 41.5601C426.2 40.5401 426.82 40.0201 427.23 40.0201C427.87 40.0201 428.15 40.1901 428.06 40.5301C428.04 40.6201 427.68 41.2301 426.97 42.3901C425.6 44.6301 424.92 45.9301 424.92 46.2901C424.92 47.2701 425.37 47.7601 426.26 47.7601C427.01 47.7601 427.92 47.4001 429.01 46.6701C429.33 46.4601 430.1 45.8601 431.31 44.8801C432.33 44.0501 432.91 43.6201 433.04 43.6001C433.34 43.5501 433.52 43.7001 433.56 44.0601ZM455.45 43.9401C455.49 44.1501 455.01 44.6601 454.01 45.4401C453.03 46.1901 452.05 46.8401 451.07 47.3901C449.19 48.4401 447.89 48.9701 447.17 48.9901C445.87 49.0101 444.96 48.5001 444.45 47.4501C444.19 46.9001 444.07 46.4501 444.07 46.1101C441.77 47.9001 439.62 48.8401 437.64 48.9301C436.45 48.9901 435.87 48.5501 435.91 47.5901C435.93 47.1201 436.23 46.3501 436.81 45.2901C437.36 44.2201 437.87 43.4901 438.31 43.0801C438.1 43.2101 437.78 43.3701 437.35 43.5601L436.23 44.1401C434.46 45.0801 433.58 45.5501 433.61 45.5501C433.23 45.5101 433.06 45.3201 433.1 44.9701C433.19 44.3501 434.42 43.5401 436.81 42.5401C437.09 42.4301 437.67 42.1301 438.57 41.6401C439.32 41.2101 439.84 40.9801 440.14 40.9401C440.35 40.9001 440.57 40.9601 440.78 41.1301C440.99 41.2801 441.1 41.4501 441.1 41.6401C441.1 41.8701 440.52 42.6201 439.37 43.8801C438.22 45.1601 437.58 46.2101 437.45 47.0201C437.41 47.3601 437.39 47.4901 437.39 47.4001C437.39 47.5301 437.49 47.6001 437.68 47.6201C439.13 47.6801 441.03 46.8401 443.38 45.0901C444.3 44.3901 445.04 43.7301 445.62 43.1101C446.77 41.8301 447.39 41.1901 447.48 41.1901C448.12 41.2101 448.47 41.5501 448.54 42.2101C448.54 42.3801 448.33 42.6801 447.9 43.1101C447.34 43.6901 446.99 44.0901 446.84 44.3301C446.05 45.4401 445.66 46.1201 445.66 46.3801C445.64 46.7401 445.75 47.0501 445.98 47.3101C446.26 47.6301 446.62 47.7901 447.07 47.7901C447.62 47.7901 448.63 47.3901 450.08 46.5701C450.83 46.1401 451.82 45.5001 453.06 44.6501C454.28 43.8401 454.87 43.4301 454.85 43.4301C455.1 43.2501 455.32 43.4201 455.45 43.9401ZM477.08 43.9401C477.12 44.1501 476.64 44.6601 475.64 45.4401C474.66 46.1901 473.68 46.8401 472.7 47.3901C470.82 48.4401 469.52 48.9701 468.8 48.9901C467.5 49.0101 466.59 48.5001 466.08 47.4501C465.82 46.9001 465.7 46.4501 465.7 46.1101C463.4 47.9001 461.25 48.8401 459.27 48.9301C458.08 48.9901 457.5 48.5501 457.54 47.5901C457.56 47.1201 457.86 46.3501 458.44 45.2901C458.99 44.2201 459.5 43.4901 459.94 43.0801C459.73 43.2101 459.41 43.3701 458.98 43.5601L457.86 44.1401C456.09 45.0801 455.21 45.5501 455.24 45.5501C454.86 45.5101 454.69 45.3201 454.73 44.9701C454.82 44.3501 456.05 43.5401 458.44 42.5401C458.72 42.4301 459.3 42.1301 460.2 41.6401C460.95 41.2101 461.47 40.9801 461.77 40.9401C461.98 40.9001 462.2 40.9601 462.41 41.1301C462.62 41.2801 462.73 41.4501 462.73 41.6401C462.73 41.8701 462.15 42.6201 461 43.8801C459.85 45.1601 459.21 46.2101 459.08 47.0201C459.04 47.3601 459.02 47.4901 459.02 47.4001C459.02 47.5301 459.12 47.6001 459.31 47.6201C460.76 47.6801 462.66 46.8401 465.01 45.0901C465.93 44.3901 466.67 43.7301 467.25 43.1101C468.4 41.8301 469.02 41.1901 469.11 41.1901C469.75 41.2101 470.1 41.5501 470.17 42.2101C470.17 42.3801 469.96 42.6801 469.53 43.1101C468.97 43.6901 468.62 44.0901 468.47 44.3301C467.68 45.4401 467.29 46.1201 467.29 46.3801C467.27 46.7401 467.38 47.0501 467.61 47.3101C467.89 47.6301 468.25 47.7901 468.7 47.7901C469.25 47.7901 470.26 47.3901 471.71 46.5701C472.46 46.1401 473.45 45.5001 474.69 44.6501C475.91 43.8401 476.5 43.4301 476.48 43.4301C476.74 43.2501 476.95 43.4201 477.08 43.9401Z" fill="url(#paint1_linear_0_122)"/>
</g>
<defs>
<linearGradient id="paint0_linear_0_122" x1="0.745603" y1="9.92131" x2="635.14" y2="9.92131" gradientUnits="userSpaceOnUse">
<stop stop-color="#609FAE"/>
<stop offset="1" stop-color="#006493"/>
</linearGradient>
<linearGradient id="paint1_linear_0_122" x1="0.745612" y1="47.2872" x2="635.14" y2="47.2872" gradientUnits="userSpaceOnUse">
<stop stop-color="#609FAE"/>
<stop offset="1" stop-color="#006493"/>
</linearGradient>
<clipPath id="clip0_0_122">
<rect width="477.08" height="67.94" fill="white"/>
</clipPath>
</defs>
</svg>
