<svg width="380" height="60" viewBox="0 0 380 60" fill="none" xmlns="http://www.w3.org/2000/svg">
<g clip-path="url(#clip0_0_166)">
<path d="M33.2553 0.93617C33.2553 1.51976 31.9397 2.77204 29.3207 4.68085C28.4315 5.32523 27.5301 5.86018 26.6164 6.2614C26.1292 6.56535 24.9354 7.36778 23.0595 8.66869L22.9011 9.64134C22.8037 10.2249 22.7184 10.6505 22.6575 10.9179C22.3164 12.7781 21.1713 14.845 19.2467 17.1185C16.2013 20.5836 13.5092 22.3708 11.1704 22.5046C9.52589 22.5897 7.68649 22.0669 5.65219 20.9483C4.58022 21.4347 3.66661 21.6535 2.91136 21.617C2.38756 21.5927 1.87594 21.4468 1.38868 21.155C0.462895 20.6687 0 20.0243 0 19.234C0 18.845 0.243629 18.4559 0.730886 18.0547C1.24251 17.6535 1.74195 17.4468 2.25357 17.4468C3.021 17.4468 3.78843 17.7143 4.54368 18.2614C4.88476 18.5289 5.37201 18.9909 6.00545 19.6596C8.84372 18.079 11.548 16.3769 14.1061 14.5532C15.8481 13.3009 17.9067 11.696 20.2577 9.75076L16.2379 11.1246C12.7905 12.1337 10.8537 12.6322 10.4273 12.6201C10.1471 12.6201 10.001 12.462 10.001 12.1581L15.9699 10.152C19.1736 8.99696 20.9886 8.32827 21.3906 8.1459C21.5368 7.78116 21.5977 7.4772 21.5977 7.23404C21.5977 6.1155 20.8303 5.00912 19.2832 3.89058C18.3331 3.19757 17.2489 2.67477 16.0551 2.31003C14.9223 1.9696 13.9112 1.82371 13.0341 1.8845C10.476 2.04255 8.67319 2.4924 7.64994 3.22188C6.1029 4.29179 5.32329 5.42249 5.29893 6.58967C5.27456 7.56231 5.73746 8.53496 6.67543 9.5076C7.32104 10.0912 8.19811 10.383 9.29444 10.383C9.96442 10.383 10.9389 10.1033 12.218 9.53192C13.8138 8.79027 14.6177 8.21885 14.6177 7.80547C14.6177 7.52584 14.4472 7.34347 14.1061 7.25836L13.1316 7.1003C12.8514 7.03951 12.486 7.03951 12.0353 7.1003C11.548 7.17325 11.2069 7.19757 11.0242 7.17325C10.8171 7.14894 10.7197 6.99088 10.7197 6.68693C10.7197 6.48024 11.0486 6.32219 11.6942 6.20061C12.3276 6.10334 12.888 6.10334 13.3996 6.20061C14.1914 6.38298 14.703 6.52888 14.9223 6.62614C15.4095 6.84499 15.6653 7.19757 15.6897 7.69605C15.7262 8.44985 14.8126 9.28875 12.9245 10.2128C11.4506 10.9422 10.2324 11.307 9.25789 11.307C7.49159 11.3435 6.2369 10.8693 5.48165 9.8845C4.56804 8.66869 4.11733 7.55015 4.14169 6.54103C4.16605 4.91185 5.12839 3.52584 7.04087 2.37082C8.77064 1.39818 10.7197 0.87538 12.888 0.790274C13.9843 0.765957 15.239 0.948328 16.6642 1.33739C18.2843 1.78723 19.6487 2.51672 20.745 3.52584C21.6342 4.31611 22.2311 5.02128 22.5357 5.6535C22.6818 5.87234 22.8158 6.33435 22.9377 7.02736C23.4493 6.68693 24.0218 6.23708 24.6674 5.68997C25.581 4.92401 26.1779 4.42553 26.4703 4.20669C30.1612 1.39818 32.1103 0 32.3174 0C32.9386 0 33.2553 0.316109 33.2553 0.93617ZM4.97003 20.1824C4.54368 19.6596 4.21478 19.307 3.99551 19.1489C3.44735 18.6383 2.89918 18.383 2.35102 18.383C2.07084 18.4073 1.77849 18.5289 1.49832 18.7477C1.21814 18.9666 1.08415 19.1854 1.09633 19.3921C1.09633 19.5745 1.30341 19.8176 1.74195 20.1216C2.10739 20.462 2.53374 20.6444 3.021 20.6687C3.60571 20.7052 4.25132 20.5471 4.97003 20.1824ZM18.8203 12.3647C17.2367 13.6049 15.9455 14.5897 14.9588 15.3191C12.3763 17.1185 9.68424 18.8207 6.88251 20.4255C8.22247 21.155 9.55025 21.4833 10.878 21.3982C12.9732 21.2766 15.4826 19.6109 18.4305 16.3769C19.9288 14.6991 20.9034 13.0699 21.3297 11.4772C21.4881 10.9058 21.5855 10.4802 21.6099 10.1763L18.8203 12.3647ZM35.1435 16.7781C35.1435 17.9088 34.3395 19.1246 32.7437 20.4255C31.2819 21.617 29.674 22.2006 27.932 22.1641C26.921 22.1398 26.1414 21.8359 25.5932 21.2523C25.1303 20.7416 24.911 20.1337 24.9476 19.4286C24.9841 18.2979 25.4714 17.4468 26.4094 16.8997C26.5677 16.8024 26.8966 16.7416 27.3839 16.7416C27.5057 16.6565 27.6762 16.4985 27.8955 16.2553C28.1391 16.0122 28.3218 15.8541 28.4437 15.769C30.0516 14.8207 31.355 14.3343 32.3783 14.3343C33.2066 14.3343 33.8766 14.5654 34.3882 15.0395C34.8876 15.4894 35.1435 16.0729 35.1435 16.7781ZM33.9862 16.5957C33.9862 15.9271 33.4868 15.5745 32.5001 15.5258C31.4281 15.4894 30.4049 15.8663 29.4182 16.6809C29.272 16.7781 29.0893 17.0213 28.8456 17.3739C28.6386 17.6778 28.4315 17.8602 28.2 17.921C28.0782 17.9453 27.9442 17.9453 27.8102 17.921H27.4082C27.0672 17.9574 26.7504 18.2006 26.4581 18.6505C26.251 19.0152 26.1535 19.2948 26.1535 19.5015C26.1535 19.9027 26.3606 20.2675 26.7626 20.5957C27.189 20.8997 27.6762 21.0578 28.2244 21.0578C29.2598 21.0578 30.4414 20.6201 31.757 19.7568C33.2431 18.7599 33.9862 17.7143 33.9862 16.5957ZM67.7044 17.1064C67.6801 17.5319 66.6447 18.4195 64.5982 19.7812C62.1984 21.3374 60.3956 22.1277 59.1774 22.152C58.812 22.152 58.5075 21.9818 58.2638 21.6292C58.0446 21.3252 57.9349 20.9726 57.9593 20.5593C57.9958 20.0122 58.6049 19.076 59.7865 17.7629C60.761 16.6322 61.2726 16 61.3092 15.8784C60.9681 16.0851 60.4808 16.304 59.8474 16.5471C59.0191 16.8875 58.4465 17.1307 58.142 17.2766C56.595 18.1277 54.8896 18.8815 53.0258 19.5258C47.6051 25.5805 44.4744 29.0456 43.6461 29.921C37.2508 36.6079 34.0837 39.9514 34.1446 39.9514C33.8644 39.9514 33.6939 39.8541 33.6573 39.6474C33.6573 39.5866 36.7636 36.0608 42.9761 29.0699L45.5708 26.2492C46.5087 25.2158 47.4711 24.1337 48.4699 22.9909C50.9915 20.1337 52.8187 18.0304 53.9516 16.6687L52.7944 17.2766C51.4788 18.0304 50.9062 18.4073 51.089 18.4316C50.8819 18.4073 50.687 18.2249 50.4799 17.8845C50.3337 17.6049 51.3326 16.8754 53.4643 15.696C53.9272 15.4529 54.451 15.1368 55.0236 14.7477C55.6083 14.3587 56.0468 14.0912 56.327 13.9331C57.0335 13.3495 57.5573 13.0942 57.8862 13.1672C58.1907 13.228 58.3491 13.3739 58.3491 13.6292C58.3491 13.5927 57.8253 14.1763 56.7655 15.3921C55.791 16.4863 55.1819 17.1915 54.9383 17.5198C55.7057 17.3374 56.9848 16.7903 58.7754 15.8784C60.8828 14.7477 62.369 14.1763 63.2217 14.1763C63.4653 14.1763 63.5628 14.383 63.5262 14.7842C63.4409 15.3556 62.6979 16.3404 61.2726 17.7629C59.8718 19.2219 59.1774 20.1581 59.2018 20.5593C59.2383 20.8875 59.3845 21.0456 59.6281 21.0456C60.3956 21.0456 61.8817 20.3404 64.0744 18.9179C66.1696 17.5441 67.2172 16.8511 67.2415 16.8511C67.5339 16.8267 67.7044 16.9119 67.7044 17.1064ZM71.298 1.94529C71.1518 2.28571 70.9325 2.4924 70.628 2.55319C70.226 2.61398 69.556 2.65046 68.618 2.67477C63.8307 2.75988 60.3712 3.07599 58.2638 3.64742C56.3513 4.15805 55.0236 4.65654 54.2683 5.16717C53.2694 6.05471 52.1122 7.6231 50.7966 9.8845C48.3238 14.3222 46.8742 16.8024 46.4722 17.3374C45.5342 18.5532 44.2552 19.8541 42.635 21.228C41.5753 22.079 40.6007 22.5289 39.6871 22.5653C38.2863 22.6261 37.5067 21.7629 37.3483 19.9757C37.2508 18.8815 38.1766 17.4954 40.15 15.8176C41.6971 14.5654 42.8421 13.9574 43.5974 13.9939C43.9994 14.0182 44.4135 14.2128 44.8155 14.6018C45.2053 15.003 45.3515 15.3799 45.2784 15.7204C45.2175 16.0851 44.9982 16.2432 44.6328 16.2067C44.779 16.231 44.6206 16.0122 44.1699 15.5623C43.841 15.1976 43.5974 15.0395 43.4025 15.076C42.8543 15.1611 42.0869 15.6231 41.1124 16.4742C39.5288 17.7872 38.7004 18.9422 38.6152 19.9149C38.5299 20.8632 38.871 21.3617 39.6262 21.3982C40.3206 21.4347 41.1124 21.0334 42.026 20.1824C43.7923 18.6383 45.0348 17.3739 45.7779 16.3769C46.5087 15.3799 47.2396 14.1398 47.9705 12.6322C48.9207 10.6869 49.4445 9.64134 49.5297 9.5076C51.1133 6.74772 52.5507 4.93617 53.8541 4.07295C54.7312 3.46505 56.0833 2.95441 57.9106 2.55319C59.7743 2.12766 62.2715 1.86018 65.4021 1.76292C67.9237 1.67781 69.02 1.64134 68.6911 1.64134C70.5062 1.64134 71.3711 1.7386 71.298 1.94529ZM77.5349 16.7781C77.5349 17.9088 76.7309 19.1246 75.1351 20.4255C73.6733 21.617 72.0654 22.2006 70.3234 22.1641C69.3124 22.1398 68.5328 21.8359 67.9846 21.2523C67.5217 20.7416 67.3025 20.1337 67.339 19.4286C67.3755 18.2979 67.8628 17.4468 68.8008 16.8997C68.9591 16.8024 69.288 16.7416 69.7753 16.7416C69.8971 16.6565 70.0676 16.4985 70.2869 16.2553C70.5305 16.0122 70.7133 15.8541 70.8351 15.769C72.443 14.8207 73.7464 14.3343 74.7697 14.3343C75.598 14.3343 76.268 14.5654 76.7796 15.0395C77.2791 15.4894 77.5349 16.0729 77.5349 16.7781ZM76.3776 16.5957C76.3776 15.9271 75.8782 15.5745 74.8915 15.5258C73.8195 15.4894 72.7963 15.8663 71.8096 16.6809C71.6634 16.7781 71.4807 17.0213 71.2371 17.3739C71.03 17.6778 70.8229 17.8602 70.5914 17.921C70.4696 17.9453 70.3356 17.9453 70.2016 17.921H69.7996C69.4586 17.9574 69.1419 18.2006 68.8495 18.6505C68.6424 19.0152 68.545 19.2948 68.545 19.5015C68.545 19.9027 68.752 20.2675 69.154 20.5957C69.5804 20.8997 70.0676 21.0578 70.6158 21.0578C71.6512 21.0578 72.8328 20.6201 74.1484 19.7568C75.6346 18.7599 76.3776 17.7143 76.3776 16.5957ZM110.705 17.228C110.705 17.7508 109.219 18.8693 106.259 20.5714C104.468 21.5805 103.177 22.0912 102.361 22.0912C102.117 22.0912 101.873 21.9453 101.63 21.6657C101.386 21.3982 101.264 21.155 101.264 20.9362C101.264 20.5471 101.691 19.696 102.543 18.383C103.36 17.1064 103.761 16.2553 103.761 15.8298C103.737 15.6231 103.615 15.5258 103.396 15.5258C102.519 15.5258 101.447 16.0365 100.168 17.0456C99.2909 17.7508 98.3164 18.6505 97.2444 19.7204C97.0617 19.9027 96.7815 20.2188 96.3917 20.6687L95.4172 21.8237C94.6011 22.7112 93.992 23.1246 93.59 23.076C93.0662 23.0152 92.7738 22.6869 92.7373 22.1033C92.7373 22.0426 93.0784 21.7386 93.7727 21.1915C94.93 20.2796 95.7217 19.5745 96.1481 19.0638C97.6464 17.3252 98.4382 16.0243 98.5235 15.1733C98.5844 14.8085 98.4626 14.6261 98.158 14.6261C97.9144 14.6261 96.9764 15.1368 95.3563 16.1459C94.9056 16.4255 94.2356 16.9605 93.322 17.7264C92.6155 18.3343 92.2013 18.6383 92.0673 18.6383C91.7871 18.6018 91.6166 18.4195 91.5801 18.0912C91.5192 17.69 92.5911 16.7295 94.8081 15.234C96.7572 13.9331 98.1215 13.2888 98.8889 13.2888C99.5345 13.2888 99.8878 13.6535 99.9243 14.383C99.9487 14.7112 99.8634 15.1489 99.6807 15.7204C99.9609 15.6596 100.229 15.5623 100.473 15.4529C100.801 15.2705 101.021 15.1611 101.142 15.1125C102.458 14.6505 103.372 14.4195 103.883 14.4438C104.651 14.4681 105.041 14.9058 105.041 15.7812C105.041 16.2067 104.639 17.0821 103.822 18.3951C103.128 19.4894 102.787 20.1945 102.787 20.5228C102.787 20.6809 102.872 20.766 103.031 20.766C103.64 20.766 104.639 20.3404 106.015 19.4894C106.222 19.3678 106.977 18.8571 108.305 17.9696C109.462 17.2158 110.084 16.8389 110.169 16.8146C110.522 16.766 110.705 16.9119 110.705 17.228ZM120.474 16.7781C120.474 17.9088 119.67 19.1246 118.075 20.4255C116.613 21.617 115.005 22.2006 113.263 22.1641C112.252 22.1398 111.472 21.8359 110.924 21.2523C110.461 20.7416 110.242 20.1337 110.279 19.4286C110.315 18.2979 110.802 17.4468 111.74 16.8997C111.899 16.8024 112.228 16.7416 112.715 16.7416C112.837 16.6565 113.007 16.4985 113.226 16.2553C113.47 16.0122 113.653 15.8541 113.775 15.769C115.383 14.8207 116.686 14.3343 117.709 14.3343C118.538 14.3343 119.208 14.5654 119.719 15.0395C120.219 15.4894 120.474 16.0729 120.474 16.7781ZM119.317 16.5957C119.317 15.9271 118.818 15.5745 117.831 15.5258C116.759 15.4894 115.736 15.8663 114.749 16.6809C114.603 16.7781 114.42 17.0213 114.177 17.3739C113.97 17.6778 113.762 17.8602 113.531 17.921C113.409 17.9453 113.275 17.9453 113.141 17.921H112.739C112.398 17.9574 112.081 18.2006 111.789 18.6505C111.582 19.0152 111.485 19.2948 111.485 19.5015C111.485 19.9027 111.692 20.2675 112.094 20.5957C112.52 20.8997 113.007 21.0578 113.555 21.0578C114.591 21.0578 115.772 20.6201 117.088 19.7568C118.574 18.7599 119.317 17.7143 119.317 16.5957ZM149.746 17.4103C149.783 17.8116 148.674 18.772 146.397 20.2675C144.204 21.7508 142.535 22.4559 141.402 22.3951C140.878 22.3708 140.403 22.1277 140.001 21.6292C139.599 21.1793 139.417 20.7538 139.453 20.3283C139.477 20.0486 139.611 19.4043 139.879 18.4073L138.966 19.0152C138.54 19.2827 138.223 19.4894 138.016 19.6596C136.31 20.9119 135.117 21.5441 134.459 21.5441C133.667 21.5441 133.301 21.1429 133.362 20.3283C133.387 20.0486 133.667 19.4529 134.215 18.541C134.361 18.2736 134.593 17.9574 134.922 17.5684C135.251 17.1793 135.458 16.8875 135.555 16.693C135.153 16.7781 134.507 17.0334 133.643 17.4833C132.875 17.8845 131.791 18.5167 130.414 19.3678C129.525 19.9514 128.831 20.4498 128.344 20.8511C127.333 21.7386 126.748 22.1763 126.614 22.1641C126.248 22.1277 126.09 21.9696 126.127 21.7021C126.151 21.3739 126.59 20.8024 127.467 19.9635C128.283 19.234 128.892 18.5897 129.294 18.0182C130.268 16.6565 130.756 15.8298 130.756 15.5258C130.756 15.3678 130.512 15.2827 130.025 15.2827C128.953 15.2827 127.649 15.6839 126.127 16.4985C125.7 16.7173 125.006 17.2158 124.031 17.9818C123.179 18.6505 122.704 18.9909 122.606 18.9909C122.155 18.9909 121.961 18.7477 121.997 18.2614C122.058 17.7751 123.167 16.8997 125.31 15.6474C127.174 14.5897 128.867 14.0912 130.39 14.1277C131.584 14.1641 132.156 14.5897 132.096 15.4043C132.01 16.0973 131.718 16.8389 131.218 17.6535C131.56 17.4103 132.522 16.8997 134.081 16.1337C136.517 14.9179 137.857 14.2979 138.101 14.2857C138.198 14.2857 138.308 14.3587 138.442 14.4924C138.54 14.6505 138.588 14.7964 138.564 14.9179C138.527 15.1246 138.125 15.6353 137.382 16.4742C136.493 17.4711 135.994 18.0304 135.884 18.1763C135.19 19.2097 134.824 19.8055 134.788 19.9635C134.702 20.1824 134.727 20.304 134.849 20.3283C134.995 20.3526 136.469 19.3921 139.27 17.4711C141.829 15.6474 143.193 14.7356 143.388 14.7356C143.534 14.7356 143.656 14.8085 143.79 14.9423C143.887 15.0881 143.924 15.234 143.887 15.4043C143.851 15.6839 143.242 16.3526 142.084 17.386C141.329 18.1398 140.915 18.9544 140.842 19.8541C140.744 20.6444 141.025 21.0699 141.695 21.1307C142.364 21.1915 143.619 20.6687 145.446 19.5502C148.248 17.848 149.6 16.997 149.503 16.997C149.6 16.9848 149.698 17.1307 149.746 17.4103ZM167.958 17.5319C167.958 17.6778 166.484 18.7234 163.536 20.693C161.428 22.1155 159.674 22.8207 158.261 22.8207C157.25 22.8207 156.617 22.3708 156.373 21.4833C156.251 21.0213 156.239 20.4742 156.337 19.8419C155.484 20.4134 154.692 20.8754 153.961 21.2401C152.707 21.8845 151.635 22.2128 150.757 22.2128C149.539 22.2128 148.93 21.5805 148.93 20.3283C148.93 19.2705 149.856 17.7629 151.695 15.8055C153.681 13.617 155.118 12.535 155.996 12.5471C157.007 12.5836 157.859 13.0699 158.554 14.0061C158.736 14.2492 158.956 14.772 159.199 15.5623C160.076 15.0395 160.405 14.7599 160.21 14.7477C160.844 14.7842 161.124 15.0274 161.063 15.4772C161.002 15.8419 160.551 16.4742 159.686 17.386C159.041 18.1398 158.529 18.6626 158.164 18.9666C157.713 20.0243 157.506 20.6444 157.53 20.8267C157.591 21.3495 157.896 21.617 158.444 21.617C159.297 21.617 160.771 21.0091 162.866 19.7933C166.252 17.8237 167.812 16.8511 167.531 16.8754C167.812 16.8511 167.958 17.0699 167.958 17.5319ZM158.03 15.7082C158.03 15.3799 157.823 14.9787 157.421 14.4924C156.994 13.9818 156.592 13.7386 156.203 13.7629C155.472 13.7994 154.229 14.772 152.487 16.6809C150.867 18.4802 150.088 19.696 150.173 20.3283C150.234 20.7538 150.538 20.997 151.086 21.0578C151.488 21.0942 152.329 20.7781 153.608 20.0851C155.679 19.0152 157.128 17.9331 157.969 16.8389L158.03 15.7082ZM189.092 17.3495C188.995 17.6778 187.972 18.5046 186.047 19.8419C184.196 21.1429 182.6 21.7872 181.235 21.7872C179.311 21.7872 177.971 21.1185 177.216 19.7812C176.874 19.1368 176.728 18.7112 176.789 18.5046C174.109 20.0608 172.83 20.8146 172.952 20.7538C171.04 21.69 169.687 22.152 168.871 22.152C167.507 22.152 166.886 21.5805 166.983 20.4498C167.044 19.7447 167.336 19.003 167.86 18.2371C168.433 17.4103 168.969 17.0334 169.48 17.1064C169.761 17.1429 169.882 17.3131 169.846 17.5927C169.821 17.7508 169.712 17.9331 169.517 18.1033C169.237 18.3465 169.054 18.5167 169.005 18.6261C168.457 19.4407 168.177 20.0243 168.153 20.3891C168.116 20.8389 168.36 21.0578 168.883 21.0578C169.432 21.0578 170.504 20.693 172.112 19.9635C172.867 19.6231 173.756 19.1125 174.791 18.4438C176.278 17.4711 177.496 16.5836 178.446 15.769L179.688 14.31C180.237 13.6657 180.675 13.3617 181.004 13.3982C181.528 13.4833 181.771 13.6657 181.735 13.9453C181.674 14.2492 181.15 14.9787 180.151 16.1337C179.018 17.5319 178.446 18.4316 178.446 18.845C178.446 19.3678 178.714 19.8176 179.262 20.1824C179.81 20.5714 180.492 20.7538 181.296 20.7538C182.088 20.7538 183.367 20.231 185.134 19.1733C187.655 17.617 188.812 16.8389 188.605 16.8632C188.727 16.8389 188.849 16.8875 188.971 16.9848C189.092 17.0942 189.129 17.2158 189.092 17.3495ZM198.959 16.7781C198.959 17.9088 198.155 19.1246 196.56 20.4255C195.098 21.617 193.49 22.2006 191.748 22.1641C190.737 22.1398 189.957 21.8359 189.409 21.2523C188.946 20.7416 188.727 20.1337 188.764 19.4286C188.8 18.2979 189.287 17.4468 190.225 16.8997C190.384 16.8024 190.713 16.7416 191.2 16.7416C191.322 16.6565 191.492 16.4985 191.712 16.2553C191.955 16.0122 192.138 15.8541 192.26 15.769C193.868 14.8207 195.171 14.3343 196.194 14.3343C197.023 14.3343 197.693 14.5654 198.204 15.0395C198.704 15.4894 198.959 16.0729 198.959 16.7781ZM197.802 16.5957C197.802 15.9271 197.303 15.5745 196.316 15.5258C195.244 15.4894 194.221 15.8663 193.234 16.6809C193.088 16.7781 192.905 17.0213 192.662 17.3739C192.455 17.6778 192.247 17.8602 192.016 17.921C191.894 17.9453 191.76 17.9453 191.626 17.921H191.224C190.883 17.9574 190.566 18.2006 190.274 18.6505C190.067 19.0152 189.97 19.2948 189.97 19.5015C189.97 19.9027 190.177 20.2675 190.579 20.5957C191.005 20.8997 191.492 21.0578 192.04 21.0578C193.076 21.0578 194.257 20.6201 195.573 19.7568C197.059 18.7599 197.802 17.7143 197.802 16.5957ZM222.555 2.51672C222.591 2.88146 222.275 3.53799 221.58 4.49848C220.813 5.55623 219.899 6.48024 218.84 7.29483C216.891 8.79027 214.052 10.4316 210.337 12.2188C210.191 12.3647 209.874 12.6444 209.362 13.0699C208.875 13.459 208.498 13.7994 208.23 14.1033C207.474 14.9544 206.963 15.6717 206.682 16.2675C208.205 15.7812 209.204 15.5623 209.667 15.5988C210.008 15.6231 210.361 15.7568 210.702 15.9878C211.043 16.2553 211.214 16.4863 211.214 16.693C211.214 17.69 210.386 19.1368 208.717 21.0334C207.292 22.6991 205.878 23.5258 204.49 23.5258C204.246 23.5258 203.954 23.3678 203.601 23.0395C203.211 22.6748 203.028 22.3222 203.052 21.9696C203.138 20.6565 203.515 19.4043 204.21 18.2371L205.939 15.465C205.611 15.6717 205.269 15.9271 204.904 16.231C204.441 16.6201 204.112 16.8754 203.929 16.997C202.224 18.2128 201.286 18.8328 201.128 18.8571C200.908 18.8936 200.75 18.7234 200.665 18.3343C200.64 18.2128 201.798 17.2644 204.137 15.5137C205.964 14.1398 207.572 12.8389 208.948 11.6231C209.131 11.4407 209.959 10.5046 211.409 8.82675C212.724 7.28268 214.004 5.94529 215.222 4.81459C218.084 2.13982 219.985 0.802432 220.923 0.802432C221.921 0.790274 222.457 1.37386 222.555 2.51672ZM209.886 16.924C209.886 16.7416 209.752 16.6565 209.484 16.6565C208.571 16.6201 207.389 16.997 205.952 17.7872C205.562 18.2371 205.233 18.7234 204.953 19.2462C204.429 20.1945 204.185 21.0456 204.222 21.7994C204.258 22.2492 204.502 22.4438 204.953 22.4073C205.72 22.3465 206.695 21.6413 207.876 20.3161C209.253 18.7234 209.923 17.5927 209.886 16.924ZM221.398 2.58967C221.459 2.43161 221.446 2.2614 221.361 2.10334C221.276 1.94529 221.154 1.84802 220.996 1.83587C220.362 1.77508 218.742 3.00304 216.123 5.5076C214.077 7.3921 212.542 9.05775 211.519 10.4924C214.052 9.21581 216.147 7.95137 217.792 6.68693C219.692 5.26444 220.886 3.90274 221.398 2.58967ZM234.103 17.5319C234.103 17.6778 232.629 18.7234 229.681 20.693C227.574 22.1155 225.807 22.8207 224.419 22.8207C223.408 22.8207 222.774 22.3708 222.531 21.4833C222.409 21.0213 222.397 20.4742 222.494 19.8419C221.641 20.4134 220.849 20.8754 220.119 21.2401C218.864 21.8845 217.792 22.2128 216.915 22.2128C215.697 22.2128 215.088 21.5805 215.088 20.3283C215.088 19.2705 216.013 17.7629 217.853 15.8055C219.838 13.617 221.276 12.535 222.153 12.5471C223.164 12.5836 224.017 13.0699 224.711 14.0061C224.894 14.2492 225.101 14.772 225.344 15.5623C226.222 15.0395 226.55 14.7599 226.356 14.7477C226.989 14.7842 227.269 15.0274 227.208 15.4772C227.147 15.8419 226.697 16.4742 225.832 17.386C225.186 18.1398 224.674 18.6626 224.309 18.9666C223.858 20.0243 223.651 20.6444 223.663 20.8267C223.724 21.3495 224.029 21.617 224.577 21.617C225.43 21.617 226.904 21.0091 228.999 19.7933C232.385 17.8237 233.945 16.8511 233.664 16.8754C233.957 16.8511 234.103 17.0699 234.103 17.5319ZM224.175 15.7082C224.175 15.3799 223.968 14.9787 223.566 14.4924C223.14 13.9818 222.738 13.7386 222.348 13.7629C221.617 13.7994 220.374 14.772 218.632 16.6809C217.012 18.4802 216.233 19.696 216.318 20.3283C216.379 20.7538 216.683 20.997 217.232 21.0578C217.634 21.0942 218.474 20.7781 219.753 20.0851C221.824 19.0152 223.274 17.9331 224.114 16.8389L224.175 15.7082ZM264.983 17.0456C264.946 17.6778 263.277 18.9666 259.988 20.9362C258.003 22.1155 256.249 22.7599 254.75 22.8815C254.3 22.9179 253.898 22.7477 253.532 22.3587C253.167 21.9696 252.984 21.4954 252.984 20.9362C252.984 20.5714 253.386 19.5988 254.202 18.0182C254.324 17.7508 254.629 17.2888 255.116 16.6201C255.506 16.1094 255.688 15.769 255.664 15.5866C255.64 15.307 255.445 15.1368 255.055 15.1003C254.482 15.0638 252.899 15.8663 250.304 17.5319C249.914 17.8967 249.366 18.541 248.66 19.4772C248.026 20.2918 247.539 20.693 247.198 20.693C246.772 20.693 246.504 20.4498 246.406 19.9635C246.382 19.8784 246.991 19.1976 248.233 17.8967C249.123 16.9848 249.573 16.1824 249.573 15.5015C249.573 15.0395 249.305 14.7964 248.782 14.7964C248.136 14.7964 247.356 14.9544 246.467 15.2827C244.737 15.9271 243.385 16.6565 242.386 17.4711C241.923 17.8602 241.436 18.3222 240.924 18.8693C240.291 19.5623 239.865 20 239.645 20.2067C238.647 21.0821 238.038 21.5076 237.818 21.4833C237.453 21.4225 237.246 21.155 237.209 20.693C237.185 20.4742 237.672 19.8419 238.671 18.8085C239.865 17.5684 240.462 16.8024 240.437 16.4985C240.401 16.0486 240.169 15.8298 239.767 15.8298C239.243 15.8298 238.269 16.1702 236.844 16.8632C236.478 17.0213 235.906 17.3982 235.138 17.9818C234.505 18.4438 234.127 18.6626 233.981 18.6261C233.518 18.5046 233.287 18.3222 233.311 18.079C233.372 17.5684 234.407 16.7781 236.417 15.7082C237.514 15.1246 238.817 14.7599 240.315 14.614C240.681 14.5775 241.034 14.7599 241.387 15.1611C241.668 15.5258 241.85 15.8906 241.899 16.2553C242.411 15.8663 243.495 15.3435 245.164 14.6748C246.93 13.9453 248.136 13.5805 248.782 13.5805C249.854 13.5805 250.511 14.0669 250.731 15.0395C250.816 15.3435 250.852 15.6231 250.852 15.8906C251.12 15.8055 251.9 15.4164 253.191 14.7112C254.288 14.1398 255.031 13.8723 255.42 13.8845C256.431 13.9453 256.967 14.3951 257.004 15.2219C257.004 15.1368 256.492 16.1094 255.481 18.1398C254.629 19.8784 254.202 20.7903 254.202 20.8754C254.202 21.4468 254.422 21.7264 254.872 21.7264C255.81 21.7264 257.345 21.1429 259.501 19.9635C260.171 19.5988 261.243 18.8693 262.729 17.7751C263.85 16.9605 264.52 16.5836 264.739 16.6201C264.898 16.6687 264.983 16.8024 264.983 17.0456ZM271.134 17.9331C271.342 18.6991 271 19.5745 270.123 20.5471C269.295 21.4954 268.406 22.079 267.48 22.2857C266.774 22.4438 266.067 22.2979 265.373 21.8237C264.642 21.3374 264.289 20.7538 264.301 20.0608C264.337 19.003 265.19 17.7872 266.859 16.4134L268.406 14.3465C269.137 13.3982 269.661 12.8754 269.989 12.7903C270.416 12.6687 270.635 12.8267 270.659 13.2766C270.684 13.4347 270.525 13.7021 270.197 14.0669C269.77 14.5532 269.49 14.8936 269.368 15.0638C268.905 15.7325 268.54 16.304 268.296 16.766C268.783 16.7295 269.112 16.7295 269.271 16.766C270.355 16.8389 270.964 17.228 271.134 17.9331ZM269.977 18.4438C269.892 17.921 269.405 17.7143 268.515 17.8359C267.663 17.9574 267.078 18.1398 266.774 18.383C266.189 19.5988 265.872 20.1459 265.823 20.0243C265.909 20.3647 266.104 20.6444 266.408 20.8389C266.688 21.0456 267.005 21.1185 267.346 21.0578C267.87 20.997 268.467 20.6687 269.112 20.0608C269.795 19.4529 270.075 18.9179 269.977 18.4438Z" fill="url(#paint0_linear_0_166)"/>
<path d="M140.391 38.9909C140.428 39.3556 140.111 40.0122 139.417 40.9727C138.649 42.0304 137.735 42.9544 136.676 43.769C134.727 45.2645 131.901 46.9058 128.185 48.693C128.039 48.8389 127.722 49.1186 127.211 49.5441C126.723 49.9332 126.346 50.2736 126.078 50.5775C125.323 51.4286 124.811 52.1459 124.531 52.7295C126.054 52.2432 127.052 52.0243 127.515 52.0608C127.856 52.0851 128.21 52.2189 128.551 52.462C128.892 52.7295 129.062 52.9605 129.062 53.1672C129.062 54.1642 128.234 55.611 126.565 57.5076C125.14 59.1733 123.727 60 122.338 60C122.095 60 121.802 59.842 121.449 59.5137C121.059 59.149 120.876 58.7964 120.901 58.4438C120.986 57.1307 121.364 55.8784 122.058 54.6991L123.788 51.9392C123.459 52.1459 123.118 52.4012 122.752 52.7052C122.289 53.0942 121.961 53.3374 121.778 53.4712C120.072 54.687 119.134 55.307 118.976 55.3192C118.757 55.3556 118.598 55.1854 118.513 54.8085C118.489 54.687 119.646 53.7386 121.985 51.9757C123.812 50.6019 125.42 49.3009 126.797 48.0851C126.979 47.9028 127.808 46.9666 129.257 45.2888C130.573 43.7447 131.852 42.4073 133.07 41.2766C135.933 38.6019 137.833 37.2645 138.771 37.2645C139.745 37.2645 140.294 37.8481 140.391 38.9909ZM127.722 53.3982C127.722 53.2158 127.588 53.1307 127.32 53.1307C126.407 53.0943 125.225 53.4712 123.788 54.2493C123.398 54.6991 123.069 55.1854 122.789 55.7082C122.265 56.6566 122.021 57.5076 122.058 58.2614C122.095 58.7113 122.338 58.9058 122.789 58.8693C123.556 58.8085 124.531 58.1034 125.712 56.7781C127.089 55.1976 127.759 54.0669 127.722 53.3982ZM139.234 39.0639C139.295 38.9058 139.283 38.7356 139.197 38.5775C139.112 38.4195 138.99 38.3222 138.832 38.3101C138.198 38.2493 136.578 39.4772 133.959 41.9818C131.913 43.8663 130.378 45.5319 129.355 46.9666C131.888 45.69 133.984 44.4256 135.628 43.1733C137.528 41.7386 138.722 40.3769 139.234 39.0639ZM166.886 38.9909C166.922 39.3556 166.606 40.0122 165.911 40.9727C165.144 42.0304 164.23 42.9544 163.17 43.769C161.221 45.2645 158.395 46.9058 154.68 48.693C154.534 48.8389 154.217 49.1186 153.705 49.5441C153.218 49.9332 152.84 50.2736 152.572 50.5775C151.817 51.4286 151.306 52.1459 151.025 52.7295C152.548 52.2432 153.547 52.0243 154.01 52.0608C154.351 52.0851 154.704 52.2189 155.045 52.462C155.386 52.7295 155.557 52.9605 155.557 53.1672C155.557 54.1642 154.729 55.611 153.06 57.5076C151.635 59.1733 150.221 60 148.833 60C148.589 60 148.297 59.842 147.944 59.5137C147.554 59.149 147.371 58.7964 147.395 58.4438C147.481 57.1307 147.858 55.8784 148.553 54.6991L150.282 51.9392C149.953 52.1459 149.612 52.4012 149.247 52.7052C148.784 53.0942 148.455 53.3374 148.272 53.4712C146.567 54.687 145.629 55.307 145.471 55.3192C145.251 55.3556 145.093 55.1854 145.008 54.8085C144.983 54.687 146.141 53.7386 148.48 51.9757C150.307 50.6019 151.915 49.3009 153.291 48.0851C153.474 47.9028 154.302 46.9666 155.752 45.2888C157.067 43.7447 158.347 42.4073 159.565 41.2766C162.427 38.6019 164.328 37.2645 165.266 37.2645C166.24 37.2645 166.788 37.8481 166.886 38.9909ZM154.217 53.3982C154.217 53.2158 154.083 53.1307 153.815 53.1307C152.901 53.0943 151.72 53.4712 150.282 54.2493C149.893 54.6991 149.564 55.1854 149.284 55.7082C148.76 56.6566 148.516 57.5076 148.553 58.2614C148.589 58.7113 148.833 58.9058 149.284 58.8693C150.051 58.8085 151.025 58.1034 152.207 56.7781C153.584 55.1976 154.254 54.0669 154.217 53.3982ZM165.728 39.0639C165.789 38.9058 165.777 38.7356 165.692 38.5775C165.607 38.4195 165.485 38.3222 165.326 38.3101C164.693 38.2493 163.073 39.4772 160.454 41.9818C158.407 43.8663 156.873 45.5319 155.849 46.9666C158.383 45.69 160.478 44.4256 162.123 43.1733C164.023 41.7386 165.217 40.3769 165.728 39.0639ZM178.422 54.0061C178.422 54.152 176.948 55.1976 174 57.1672C171.892 58.5897 170.138 59.2949 168.725 59.2949C167.714 59.2949 167.081 58.845 166.837 57.9575C166.715 57.4955 166.703 56.9484 166.8 56.3161C165.948 56.8876 165.156 57.3496 164.425 57.7143C163.17 58.3587 162.098 58.687 161.221 58.687C160.003 58.687 159.394 58.0547 159.394 56.8025C159.394 55.7447 160.32 54.2371 162.159 52.2675C164.145 50.0791 165.582 48.997 166.459 49.0213C167.47 49.0578 168.323 49.5441 169.017 50.4803C169.2 50.7234 169.419 51.2462 169.663 52.0243C170.54 51.5015 170.869 51.2219 170.674 51.2098C171.308 51.2462 171.588 51.4894 171.527 51.9392C171.466 52.304 171.015 52.9362 170.15 53.8481C169.505 54.6019 168.993 55.1246 168.628 55.4286C168.177 56.4863 167.97 57.1064 167.994 57.2766C168.055 57.7994 168.36 58.0669 168.908 58.0669C169.761 58.0669 171.234 57.459 173.33 56.2432C176.716 54.2736 178.275 53.3009 177.995 53.3253C178.288 53.3253 178.422 53.5441 178.422 54.0061ZM168.494 52.1824C168.494 51.8541 168.287 51.4529 167.885 50.9666C167.458 50.456 167.056 50.2128 166.666 50.2371C165.936 50.2736 164.693 51.2462 162.951 53.155C161.331 54.9544 160.551 56.1702 160.637 56.8025C160.698 57.228 161.002 57.4712 161.55 57.5319C161.952 57.5684 162.793 57.2523 164.072 56.5593C166.143 55.4894 167.592 54.3952 168.433 53.3131L168.494 52.1824ZM199.983 54.1885C199.983 54.7721 198.801 55.6718 196.45 56.8633C194.964 57.6171 193.77 57.9939 192.857 58.0183C191.858 58.0426 191.127 57.386 190.664 56.073C188.325 57.2037 186.741 57.7508 185.913 57.7143C185.121 57.6778 184.488 57.0213 184.025 55.769C182.868 56.4377 182.076 56.8632 181.65 57.0456C179.944 57.7508 178.823 58.0791 178.3 58.0183C177.41 57.921 176.984 57.4347 177.021 56.5593C177.045 56.1095 177.971 55.0152 179.822 53.2766C181.309 51.8784 182.222 51.149 182.563 51.0882C182.892 51.0274 183.05 51.2341 183.05 51.6961C183.05 51.6353 182.259 52.4499 180.675 54.1277C179.457 55.4286 178.848 56.1095 178.848 56.1946C178.787 56.4012 178.933 56.5228 179.274 56.5593C180.005 56.6566 181.771 55.8055 184.573 54.0061C187.679 52.0973 189.202 51.149 189.141 51.149C189.3 51.1246 189.446 51.1976 189.568 51.3557C189.689 51.5015 189.75 51.6474 189.75 51.8177C189.75 51.6961 189.044 52.304 187.618 53.6414C187.46 53.7873 187.095 54.1034 186.522 54.5897C186.096 54.9544 185.791 55.2705 185.609 55.5259C185.937 56.1702 186.193 56.4985 186.4 56.4985C187.679 56.4985 189.178 55.769 190.907 54.3101L193.1 52.5471C194.477 51.4529 195.232 50.918 195.354 50.9301C195.926 51.0274 196.206 51.3921 196.206 52C196.206 51.842 195.293 52.5836 193.466 54.2493C192.881 54.8207 192.552 55.2584 192.491 55.5867C192.43 55.8298 192.515 56.0973 192.735 56.3769C192.942 56.6566 193.161 56.8025 193.405 56.8025C193.709 56.8025 194.477 56.535 195.719 56.0122C196.304 55.7447 197.071 55.2827 198.009 54.614C198.886 53.9818 199.361 53.6657 199.434 53.6414C199.8 53.5441 199.983 53.7265 199.983 54.1885ZM230.412 53.7629C230.473 54.225 229.279 55.307 226.818 56.9848C225.417 57.9575 224.175 58.4438 223.103 58.4438C221.556 58.4438 220.789 57.5927 220.789 55.8906C220.813 55.3192 220.971 54.614 221.276 53.7629C221.13 53.7629 220.825 53.7265 220.362 53.6657C219.972 53.6292 219.692 53.6171 219.509 53.6292C218.559 53.7508 217.78 53.7873 217.195 53.7508L215.855 55.5745C214.393 57.5198 213.455 58.4681 213.053 58.4316C212.724 58.3708 212.566 58.3344 212.566 58.3101C212.469 58.0426 212.932 57.2158 213.967 55.8177C214.539 55.0517 215.039 54.2006 215.49 53.2645C215.283 53.3617 214.613 53.8116 213.48 54.6019C212.59 55.2341 211.994 55.5502 211.713 55.5745C211.506 55.5745 211.384 55.4286 211.348 55.149C211.287 54.8085 211.628 54.383 212.383 53.9088C213.662 53.0943 214.552 52.4742 215.063 52.0487C216.586 50.7113 217.609 50.0669 218.133 50.1277C218.401 50.152 218.572 50.3587 218.657 50.7721C218.742 51.1733 218.572 51.7082 218.17 52.3526H219.875C219.972 52.3526 220.277 52.3891 220.789 52.4499C221.191 52.5107 221.483 52.5228 221.641 52.4742C221.982 52.1338 222.311 51.769 222.616 51.38C223.408 50.4073 223.992 49.921 224.382 49.921C224.991 49.921 225.259 50.0791 225.174 50.4073C225.15 50.4924 224.808 51.076 224.138 52.1702C222.835 54.2979 222.189 55.538 222.189 55.8784C222.189 56.8146 222.616 57.2766 223.468 57.2766C224.175 57.2766 225.052 56.9362 226.087 56.2432C226.392 56.0365 227.123 55.4772 228.28 54.5411C229.255 53.7508 229.803 53.3496 229.925 53.3253C230.205 53.2766 230.363 53.4225 230.412 53.7629ZM240.401 53.2523C240.401 54.383 239.597 55.5988 237.989 56.8997C236.527 58.0912 234.919 58.6748 233.177 58.6383C232.166 58.614 231.386 58.3101 230.826 57.7265C230.363 57.2158 230.144 56.6079 230.193 55.9028C230.229 54.7721 230.716 53.921 231.654 53.3739C231.813 53.2766 232.142 53.2158 232.629 53.2158C232.751 53.1307 232.921 52.9727 233.141 52.7295C233.384 52.4863 233.567 52.3283 233.689 52.2432C235.297 51.2949 236.6 50.8085 237.611 50.8085C238.439 50.8085 239.109 51.0395 239.621 51.5137C240.145 51.9636 240.401 52.5471 240.401 53.2523ZM239.243 53.0699C239.243 52.4012 238.744 52.0487 237.757 52C236.685 51.9636 235.662 52.3405 234.675 53.155C234.529 53.2523 234.334 53.4833 234.103 53.8481C233.896 54.152 233.689 54.3344 233.457 54.3952C233.335 54.4195 233.201 54.4195 233.067 54.3952H232.665C232.324 54.4316 232.008 54.6748 231.727 55.1246C231.52 55.4894 231.423 55.769 231.423 55.9757C231.423 56.3769 231.63 56.7417 232.032 57.0699C232.458 57.3739 232.946 57.5319 233.494 57.5319C234.529 57.5319 235.711 57.0943 237.026 56.2189C238.5 55.2341 239.243 54.1885 239.243 53.0699ZM263.996 38.9909C264.033 39.3556 263.716 40.0122 263.022 40.9727C262.254 42.0304 261.341 42.9544 260.281 43.769C258.332 45.2645 255.493 46.9058 251.778 48.693C251.632 48.8389 251.315 49.1186 250.804 49.5441C250.316 49.9332 249.939 50.2736 249.671 50.5775C248.915 51.4286 248.404 52.1459 248.112 52.7295C249.634 52.2432 250.633 52.0243 251.096 52.0608C251.437 52.0851 251.79 52.2189 252.131 52.462C252.472 52.7295 252.655 52.9605 252.655 53.1672C252.655 54.1642 251.827 55.611 250.158 57.5076C248.733 59.1733 247.332 60 245.931 60C245.687 60 245.395 59.842 245.054 59.5137C244.664 59.149 244.481 58.7964 244.506 58.4438C244.591 57.1307 244.969 55.8784 245.663 54.6991L247.393 51.9392C247.064 52.1459 246.723 52.4012 246.357 52.7052C245.895 53.0942 245.566 53.3374 245.383 53.4712C243.677 54.687 242.74 55.307 242.581 55.3192C242.362 55.3556 242.204 55.1854 242.118 54.8085C242.094 54.687 243.251 53.7386 245.59 51.9757C247.417 50.6019 249.025 49.3009 250.402 48.0851C250.584 47.9028 251.413 46.9666 252.874 45.2888C254.19 43.7447 255.469 42.4073 256.687 41.2766C259.55 38.6019 261.45 37.2645 262.388 37.2645C263.363 37.2645 263.899 37.8481 263.996 38.9909ZM251.327 53.3982C251.327 53.2158 251.193 53.1307 250.938 53.1307C250.024 53.0943 248.842 53.4712 247.405 54.2493C247.015 54.6991 246.686 55.1854 246.406 55.7082C245.882 56.6566 245.639 57.5076 245.675 58.2614C245.712 58.7113 245.955 58.9058 246.406 58.8693C247.174 58.8085 248.148 58.1034 249.33 56.7781C250.706 55.1976 251.376 54.0669 251.327 53.3982ZM262.839 39.0639C262.9 38.9058 262.888 38.7356 262.802 38.5775C262.717 38.4195 262.595 38.3222 262.437 38.3101C261.803 38.2493 260.183 39.4772 257.564 41.9818C255.518 43.8663 253.983 45.5319 252.972 46.9666C255.506 45.69 257.601 44.4256 259.245 43.1733C261.133 41.7386 262.339 40.3769 262.839 39.0639ZM278.431 53.8845C278.431 54.4924 276.872 55.6474 273.741 57.3496C271.646 58.4803 269.941 59.0517 268.625 59.0517C267.955 59.0517 267.431 58.8085 267.041 58.3222C266.713 57.8967 266.579 57.4347 266.615 56.924C266.676 56.2797 266.798 55.769 266.981 55.4043C266.615 55.4894 266.225 55.5259 265.823 55.5259L263.996 55.8906C263.411 56.6444 262.839 57.2037 262.291 57.5927C261.28 58.2979 260.281 58.6626 259.306 58.687C258.782 58.7113 258.356 58.5289 258.027 58.1763C257.747 57.8724 257.601 57.5198 257.601 57.1064C257.601 56.766 258.429 55.6718 260.098 53.8237C260.001 53.8845 259.83 53.9696 259.586 54.0669C259.343 54.152 259.148 54.2249 259.014 54.3101C258.161 54.8207 257.698 55.0639 257.613 55.0395C257.211 54.9423 257.041 54.6991 257.126 54.3101C257.162 54.1642 257.613 53.8481 258.466 53.3739C259.501 52.766 260.135 52.3648 260.354 52.1824C262.607 50.5167 263.606 49.7143 263.338 49.7508C263.545 49.7265 263.728 49.7873 263.886 49.9332C264.045 50.0791 264.13 50.2371 264.13 50.4195C264.13 51.0031 263.826 51.6718 263.217 52.4256L262.547 53.3982C262.875 53.4347 263.241 53.5806 263.643 53.8237C263.972 54.0061 264.252 54.2493 264.496 54.5532L265.957 54.3708C266.773 54.3344 267.297 54.2736 267.541 54.1885C267.699 54.0912 267.979 53.8481 268.357 53.4833L269.307 52.6079C269.88 52.1216 270.306 51.8784 270.586 51.8784C270.806 51.8541 271 51.9392 271.159 52.1216C271.305 52.2675 271.366 52.4012 271.366 52.5471C271.366 52.4012 270.732 53.0699 269.478 54.5532C268.54 55.6839 268.077 56.4377 268.077 56.8025C268.077 57.5076 268.381 57.8602 268.991 57.8359C269.819 57.7994 271.098 57.3739 272.828 56.5593C273.595 56.2189 274.679 55.5502 276.056 54.5775C277.213 53.7873 277.859 53.386 278.005 53.386C278.297 53.4225 278.431 53.5806 278.431 53.8845ZM262.473 55.3435C262.473 55.1368 262.327 54.9788 262.047 54.8572C261.499 54.614 261.28 54.5289 261.377 54.614C261.255 54.7356 260.987 54.9544 260.585 55.2827C259.635 56.073 259.16 56.6444 259.184 56.9848C259.209 57.2037 259.404 57.3496 259.794 57.4104C260.256 57.4468 260.805 57.228 261.438 56.7417C262.132 56.2189 262.473 55.7569 262.473 55.3435ZM295.851 53.7022C295.875 54.0426 295.108 54.6748 293.56 55.5867C291.465 56.7781 289.821 57.3739 288.627 57.3739C288.262 57.3739 287.884 57.2158 287.506 56.8876C287.104 56.5836 286.861 56.2432 286.775 55.8541C286.714 55.5867 286.739 55.1611 286.836 54.5775L284.619 56.1581C281.842 57.9453 280.234 58.8085 279.808 58.7721C279.467 58.7356 279.162 58.5897 278.931 58.3465C278.663 58.0669 278.553 57.7751 278.589 57.4712C278.675 56.8633 279.101 55.9149 279.869 54.614C278.492 55.4408 277.712 55.8663 277.554 55.8663C277.335 55.6839 277.213 55.5259 277.213 55.4043C277.213 55.076 277.432 54.7842 277.883 54.5289C279.101 53.8237 280.051 53.2158 280.709 52.7295C282.134 51.6961 282.865 51.1854 282.902 51.1854C283.365 51.1854 283.596 51.38 283.596 51.7569L281.501 54.4316C280.465 55.8298 279.942 56.7417 279.942 57.1672C279.942 57.3739 279.99 57.4833 280.1 57.4955C280.246 57.5198 281.647 56.6809 284.303 54.9788C287.372 53.0091 288.81 52.0243 288.627 52.0243C289.017 52.0243 289.2 52.2432 289.2 52.6687L288.408 53.9818C288.128 54.4924 287.981 54.9666 287.981 55.4043C287.981 55.9149 288.262 56.1824 288.81 56.2189C289.48 56.2797 290.71 55.8541 292.501 54.9423C294.486 53.9332 295.473 53.4225 295.449 53.4225C295.704 53.4347 295.838 53.5198 295.851 53.7022ZM295.278 40.7538C295.278 41.459 294.62 42.6383 293.292 44.2797C292.013 45.8602 291.124 46.687 290.637 46.7721C290.247 46.7721 290.064 46.5775 290.064 46.1885C290.064 46.0669 290.393 45.69 291.039 45.0699C291.806 44.3161 292.342 43.7325 292.622 43.307C293.573 41.9088 294.06 41.0456 294.06 40.7174C294.06 40.0243 293.256 39.6839 291.648 39.6839C290.576 39.6839 289.005 40.0243 286.922 40.693C286.093 40.9605 284.985 41.4347 283.608 42.1155C282.354 42.7599 281.696 43.0882 281.623 43.0882C281.294 43.1246 281.135 42.9544 281.135 42.5654C281.135 41.9818 282.841 41.0213 286.252 39.6718C288.444 38.8572 290.332 38.456 291.916 38.456C292.769 38.456 293.512 38.6383 294.133 39.0031C294.9 39.4529 295.278 40.0243 295.278 40.7538ZM323.356 44.0122C323.356 47.0274 322.016 50.2614 319.336 53.7022C316.632 57.228 314.342 58.9909 312.454 58.9909C311.662 58.9909 311.126 58.8693 310.846 58.6262C310.541 58.383 310.371 57.921 310.322 57.228C310.261 56.3405 311.297 54.8936 313.428 52.9119C314.732 51.6961 315.84 51.1125 316.778 51.149C316.803 51.149 317.448 51.5137 318.727 52.2432C320.957 49.8724 322.077 47.2219 322.077 44.2797C322.077 42.4195 321.261 41.1915 319.604 40.5958C318.813 40.3283 317.521 40.2067 315.743 40.2067C311.54 40.2067 307.179 40.9119 302.648 42.3344C300.601 42.9787 298.153 43.9636 295.302 45.2888L291.563 47.0152C291.319 47.0152 291.197 46.8936 291.197 46.6505C291.222 46.2614 292.549 45.459 295.193 44.2189C297.727 43.0395 300.017 42.1277 302.051 41.4833C306.948 39.9028 311.406 39.1125 315.451 39.1125C317.972 39.1125 319.824 39.3921 321.017 39.9636C322.577 40.7174 323.356 42.0669 323.356 44.0122ZM317.448 53.6414C317.29 53.155 316.998 52.8268 316.596 52.6687C316.315 52.5715 315.852 52.693 315.219 53.0335C314.61 53.3617 314.098 53.7629 313.66 54.2493C312.356 55.7082 311.674 56.7174 311.589 57.2888C311.552 57.4955 311.833 57.6778 312.442 57.8359C312.99 57.9939 314.062 57.3739 315.67 55.9514C316.62 55.1003 317.205 54.3344 317.448 53.6414ZM333.918 53.2523C333.918 54.383 333.114 55.5988 331.506 56.8997C330.044 58.0912 328.436 58.6748 326.694 58.6383C325.683 58.614 324.903 58.3101 324.343 57.7265C323.88 57.2158 323.661 56.6079 323.71 55.9028C323.746 54.7721 324.233 53.921 325.171 53.3739C325.33 53.2766 325.659 53.2158 326.146 53.2158C326.268 53.1307 326.438 52.9727 326.657 52.7295C326.901 52.4863 327.084 52.3283 327.206 52.2432C328.814 51.2949 330.117 50.8085 331.128 50.8085C331.956 50.8085 332.626 51.0395 333.138 51.5137C333.674 51.9636 333.918 52.5471 333.918 53.2523ZM332.76 53.0699C332.76 52.4012 332.261 52.0487 331.274 52C330.202 51.9636 329.179 52.3405 328.192 53.155C328.046 53.2523 327.851 53.4833 327.62 53.8481C327.413 54.152 327.206 54.3344 326.974 54.3952C326.852 54.4195 326.718 54.4195 326.584 54.3952H326.182C325.841 54.4316 325.525 54.6748 325.244 55.1246C325.037 55.4894 324.94 55.769 324.94 55.9757C324.94 56.3769 325.147 56.7417 325.549 57.0699C325.975 57.3739 326.463 57.5319 327.011 57.5319C328.046 57.5319 329.228 57.0943 330.543 56.2189C332.029 55.2341 332.76 54.1885 332.76 53.0699ZM365.102 53.5806C365.126 53.9696 363.762 54.918 361.021 56.4377C359.352 57.3496 358.012 57.7994 357.001 57.7751C355.211 57.7143 354.321 57.0699 354.321 55.8298C354.321 55.2827 354.541 54.5897 354.991 53.7629C355.138 53.4833 355.381 53.1064 355.722 52.6322C356.063 52.1702 356.27 51.8663 356.331 51.7569C355.418 52.0243 353.932 52.7903 351.885 54.0669C349.973 55.2219 348.718 56.0122 348.109 56.4377C346.708 57.4104 346.014 57.8967 346.038 57.8967C345.758 57.8602 345.612 57.7386 345.612 57.5319C345.636 57.3739 345.758 57.0456 345.977 56.5593C346.245 55.9879 346.404 55.6231 346.464 55.4651C346.672 54.8572 346.769 54.3344 346.769 53.8845C346.525 54.0304 346.026 54.3465 345.283 54.8572C344.43 55.4286 343.772 55.8541 343.297 56.1338C340.532 57.7994 338.693 58.6262 337.755 58.6262C337.109 58.6262 336.573 58.4438 336.171 58.0791C335.72 57.6778 335.501 57.1307 335.501 56.4377C335.501 56.073 335.806 55.4894 336.415 54.6748C337.06 53.7994 337.596 53.3739 337.998 53.3982C338.327 53.3982 338.51 53.5806 338.547 53.9453C338.571 54.152 338.449 54.3465 338.181 54.5532C337.84 54.7964 337.633 54.9788 337.572 55.1003C337.17 55.7933 336.939 56.3405 336.902 56.7417C336.878 56.924 336.963 57.1064 337.146 57.2888C337.328 57.4468 337.511 57.5319 337.694 57.5319C338.205 57.5319 339.911 56.7174 342.81 55.1003C344.065 54.3952 345.332 53.5441 346.586 52.5471C348.255 51.2705 349.023 50.6262 348.901 50.6018C349.364 50.6383 349.595 50.8207 349.571 51.149C349.571 51.0639 349.364 51.7204 348.962 53.0942L348.657 54.4316C349.851 53.8845 351.179 53.1794 352.616 52.304C355.199 50.8207 356.977 50.1155 357.976 50.1763C358.402 50.2128 358.609 50.383 358.585 50.6626C358.585 50.6383 358.28 51.0882 357.671 52C357.55 52.2067 357.318 52.5228 356.977 52.9727C356.709 53.3374 356.502 53.6778 356.331 54.0061C355.929 54.7964 355.698 55.38 355.661 55.769C355.625 56.2553 356.063 56.535 357.001 56.6201C357.732 56.6809 358.804 56.3526 360.229 55.6474C360.875 55.3192 361.813 54.7721 363.031 54.0061C364.03 53.3982 364.578 53.0942 364.676 53.0942C364.944 53.0942 365.09 53.2645 365.102 53.5806ZM369.098 57.1672C369.219 57.6778 369.073 58.225 368.671 58.8085C368.269 59.3921 367.855 59.5502 367.453 59.2705C367.088 59.0274 366.929 58.5289 366.966 57.7873C367.002 56.535 367.356 55.9271 368.038 55.9879C368.562 56.0243 368.915 56.4256 369.098 57.1672ZM380 36.8632C380 37.1672 378.745 39.0882 376.26 42.6383C374.92 44.5228 374.08 45.7265 373.727 46.2493C372.289 48.5228 371.546 49.6535 371.51 49.6535C371.168 49.617 370.986 49.4347 370.961 49.1064C370.9 48.6809 371.522 47.4043 372.813 45.2766C373.264 44.5715 374.031 43.4529 375.127 41.9332C377.844 38.0791 379.306 36.1581 379.488 36.1581C379.829 36.1702 380 36.4012 380 36.8632Z" fill="url(#paint1_linear_0_166)"/>
</g>
<defs>
<linearGradient id="paint0_linear_0_166" x1="0.00978803" y1="19.9864" x2="459.26" y2="19.9864" gradientUnits="userSpaceOnUse">
<stop stop-color="#609FAE"/>
<stop offset="1" stop-color="#006493"/>
</linearGradient>
<linearGradient id="paint1_linear_0_166" x1="0.00976449" y1="48.0844" x2="459.26" y2="48.0844" gradientUnits="userSpaceOnUse">
<stop stop-color="#609FAE"/>
<stop offset="1" stop-color="#006493"/>
</linearGradient>
<clipPath id="clip0_0_166">
<rect width="380" height="60" fill="white"/>
</clipPath>
</defs>
</svg>
