<svg width="253" height="111" viewBox="0 0 253 111" fill="none" xmlns="http://www.w3.org/2000/svg">
<g clip-path="url(#clip0_6_355)">
<path d="M28.0685 9.06386C27.7208 9.64432 27.1928 10.4725 26.4768 11.5475L26.4765 11.5479L25.8293 12.5156C26.5758 12.0689 27.6893 11.3791 29.1685 10.4417L29.169 10.4415C30.4262 9.64856 31.8128 8.71027 33.3471 7.64246C33.6135 7.37523 33.9732 6.97457 34.419 6.43805L34.4251 6.43069L34.4252 6.43081L35.5973 5.12493L35.5981 5.12408C36.2427 4.41247 36.7787 3.8709 37.204 3.50539C37.4164 3.3229 37.607 3.17926 37.7741 3.07993C37.9338 2.98505 38.1033 2.91127 38.2654 2.91127C38.6803 2.91127 39.0291 3.0695 39.307 3.36543C39.605 3.66416 39.7396 4.03125 39.6853 4.43201L39.37 4.41074C39.3374 4.43677 39.293 4.47951 39.2368 4.53891C39.2536 4.56032 39.2761 4.58101 39.3061 4.59836C39.4082 4.65723 39.5002 4.61756 39.508 4.6142L39.5084 4.61403C39.5219 4.60837 39.5295 4.60327 39.5295 4.60335C39.5296 4.60344 39.5214 4.60923 39.5031 4.62603C39.446 4.67834 39.351 4.78036 39.2135 4.9404C38.9419 5.2566 38.5314 5.76802 37.9801 6.47642L37.9737 6.48471L37.9665 6.49243L36.3808 8.21062C35.606 9.05094 35.0513 9.78996 34.6933 10.4281C34.3151 11.1549 33.3695 12.6933 31.8569 15.0493L31.8567 15.0496C31.224 16.0321 30.7501 16.7954 30.4318 17.3406C30.2724 17.6135 30.1538 17.8289 30.074 17.9884C30.0341 18.0683 30.0055 18.1311 29.9867 18.1783C29.9749 18.2078 29.9691 18.2259 29.9664 18.235C29.9691 18.3043 29.9844 18.3373 29.9934 18.3506C29.9995 18.3597 30.0099 18.3716 30.0422 18.3805C30.0561 18.3821 30.0902 18.3832 30.153 18.3755C30.2212 18.3671 30.3097 18.3503 30.4205 18.3231C30.6419 18.2689 30.9362 18.1776 31.306 18.0473C32.0447 17.787 33.0663 17.3772 34.3743 16.8153C35.091 16.5043 36.1132 15.9446 37.4476 15.1464L37.4496 15.1453C38.0147 14.8141 38.4554 14.563 38.7699 14.3943C38.9268 14.3101 39.0556 14.2446 39.1544 14.1996C39.2036 14.1772 39.2491 14.1581 39.2892 14.1441C39.3205 14.1331 39.3775 14.1144 39.4375 14.1144C39.704 14.1144 39.9582 14.1695 40.1311 14.342C40.2001 14.4107 40.2476 14.4891 40.2779 14.5736C40.4424 14.4742 40.6263 14.3666 40.8292 14.2511C42.0082 13.5597 42.7019 13.1247 42.9326 12.9344L42.9431 12.9257L42.9433 12.926C44.2186 11.9854 45.1346 11.2903 45.6931 10.8369C45.9749 10.608 46.156 10.4484 46.247 10.3527C46.2691 10.3294 46.2819 10.314 46.2884 10.3053C46.2986 10.2916 46.2851 10.3053 46.2758 10.338C46.2706 10.356 46.2614 10.3979 46.2745 10.4508C46.2884 10.5076 46.3227 10.5551 46.367 10.5862C46.4157 10.5393 46.4526 10.5002 46.4777 10.469L46.4348 10.1305C46.4428 10.1293 46.4519 10.1283 46.4618 10.1275C46.7611 10.0995 47.0314 10.1941 47.258 10.3985C47.477 10.596 47.6164 10.8395 47.6164 11.134C47.6164 11.8777 47.2324 12.6866 46.5325 13.552L45.9932 14.334C46.2958 14.4219 46.6119 14.5694 46.9401 14.7666C47.2992 14.9669 47.6119 15.2265 47.8848 15.5427L49.4039 15.3534L49.4135 15.3522L49.4232 15.3518C49.8812 15.3305 50.2542 15.3029 50.5449 15.2694C50.8178 15.238 51.0054 15.2027 51.1199 15.1674C51.2807 15.0619 51.5654 14.8183 51.9871 14.4226L51.9877 14.4221L53.0564 13.4255L53.0647 13.4177L53.0649 13.4179C53.3944 13.1376 53.6899 12.9206 53.9499 12.7725C54.1996 12.6303 54.441 12.5373 54.6616 12.5337C54.993 12.5034 55.2872 12.6345 55.5121 12.8872C55.6997 13.0762 55.8211 13.289 55.8211 13.5396H55.5711H55.5034C55.4683 13.5622 55.4196 13.6024 55.3572 13.6601C55.3754 13.6889 55.4027 13.7175 55.4438 13.7397C55.537 13.7901 55.619 13.758 55.6246 13.7558L55.6248 13.7557C55.6329 13.7527 55.6373 13.7504 55.6374 13.7506C55.6376 13.7508 55.6252 13.7583 55.5967 13.7819C55.5201 13.8455 55.3952 13.9674 55.2175 14.1557C54.8658 14.5286 54.3353 15.1319 53.6253 15.9683C53.099 16.6039 52.7109 17.1264 52.4556 17.5367C52.3278 17.742 52.2363 17.9146 52.1773 18.0557C52.117 18.2003 52.0979 18.2954 52.0979 18.3507C52.0979 18.7208 52.1787 18.9482 52.294 19.0789C52.4021 19.2014 52.5775 19.2802 52.8719 19.2694C53.7572 19.2285 55.165 18.768 57.1195 17.8496L57.1243 17.8473L57.1243 17.8473C57.9715 17.4711 59.179 16.7353 60.7359 15.6377L60.7391 15.6355C61.3951 15.1881 61.91 14.8501 62.2831 14.6233C62.4691 14.5101 62.6239 14.4222 62.7452 14.3618C62.8057 14.3317 62.8621 14.3063 62.9125 14.2879C62.9565 14.2718 63.02 14.2518 63.0863 14.2518H63.0963L63.1064 14.2526C63.3084 14.269 63.4981 14.338 63.6343 14.4918C63.769 14.644 63.8189 14.8426 63.8189 15.0517C63.8189 15.3207 63.6531 15.5913 63.4245 15.849C63.1869 16.1169 62.8397 16.4166 62.3912 16.7477C61.4928 17.4109 60.1537 18.225 58.3793 19.189L58.3788 19.1893C55.9977 20.4754 54.0225 21.1438 52.4685 21.1438C51.6403 21.1438 50.9713 20.839 50.4806 20.2251L50.4778 20.2216L50.4778 20.2216C50.0703 19.6926 49.8961 19.1078 49.9439 18.4695L49.9443 18.4647L49.9443 18.4647C49.9939 17.9391 50.0794 17.4804 50.205 17.0972C49.9179 17.1372 49.6227 17.1564 49.3218 17.1574L47.368 17.5469C46.7137 18.3747 46.0696 19.0054 45.4422 19.4485L45.441 19.4493C44.2658 20.2685 43.0908 20.7035 41.9279 20.7313C41.2652 20.7594 40.7101 20.5356 40.2871 20.0658C39.9283 19.6784 39.7391 19.2152 39.7391 18.6944C39.7391 18.6009 39.7662 18.5056 39.8004 18.4183C39.8359 18.3277 39.8865 18.2276 39.949 18.1197C40.0741 17.9037 40.2576 17.6382 40.4958 17.3252C40.8367 16.8772 41.2976 16.3219 41.8778 15.6599C41.8112 15.6896 41.7527 15.7189 41.7013 15.7485C41.2184 16.0364 40.8412 16.2517 40.571 16.3924C40.4365 16.4625 40.3232 16.5169 40.2341 16.5526C40.19 16.5702 40.1457 16.5859 40.1041 16.596C40.0747 16.6032 40.0042 16.6193 39.9281 16.6C39.6658 16.5356 39.4387 16.4144 39.2992 16.2073C39.2914 16.1958 39.284 16.1841 39.2769 16.1723C39.1163 16.2835 38.9374 16.3986 38.7407 16.5177C37.8185 17.0761 36.473 17.7407 34.7114 18.5111L34.7096 18.5119C33.2107 19.1534 31.9449 19.6441 30.9128 19.9803C29.8883 20.3138 29.0767 20.5011 28.4898 20.5248C28.0996 20.5549 27.7362 20.4251 27.4178 20.1572C27.2567 20.0218 27.1314 19.8645 27.0661 19.6798C27 19.4929 27.0028 19.2987 27.0631 19.1047C27.1191 18.9041 27.2403 18.6419 27.4133 18.3262C27.5897 18.0042 27.8281 17.6119 28.1272 17.1496C28.951 15.875 29.4742 15.0372 29.7061 14.6521C30.0119 14.0952 30.5485 13.1984 31.3311 11.9638C31.3314 11.9633 31.3317 11.9629 31.332 11.9624L32.2281 10.5081L29.784 12.0993C27.3018 13.7231 25.6608 14.8828 24.8473 15.5837C22.8274 17.3697 21.3487 18.7132 20.4101 19.6146C19.9396 20.0665 19.6101 20.4023 19.4167 20.625C19.3171 20.7397 19.2659 20.8107 19.2467 20.8458C19.2456 20.8478 19.2447 20.8495 19.244 20.8509M28.0685 9.06386C28.0683 9.06411 28.0682 9.06435 28.068 9.06459L27.8545 8.93464L28.069 9.06309C28.0688 9.06335 28.0686 9.06361 28.0685 9.06386ZM28.0685 9.06386C28.3922 8.5318 28.8349 7.71793 29.3868 6.64329L29.3872 6.64264C29.9129 5.61165 30.28 4.9314 30.4818 4.59607L30.4819 4.59614L30.4857 4.58934C30.8477 3.94314 31.3733 3.17309 32.0824 2.28737M32.0824 2.28737C32.0826 2.28709 32.0828 2.28683 32.083 2.28655L31.8879 2.13035L32.0817 2.28817C32.0819 2.2879 32.0821 2.28764 32.0824 2.28737ZM32.0824 2.28737C32.3812 1.9204 32.6182 1.61224 32.7902 1.36433C32.9566 1.12466 33.0801 0.916869 33.1272 0.758193L33.1273 0.758213L33.1288 0.752511C33.2018 0.483867 33.166 0.215549 32.9515 0.020029C32.7616 -0.153138 32.4729 -0.227147 32.1464 -0.249744V-0.24975L32.1447 -0.249857C32.0136 -0.258025 31.868 -0.228645 31.7187 -0.18077C31.5661 -0.131815 31.3922 -0.0576699 31.1986 0.0387056C30.8114 0.231476 30.3273 0.522544 29.7486 0.908559C28.5907 1.68093 27.0337 2.84748 25.0807 4.40753L14.8098 12.2411L14.8091 12.2417C11.8618 14.5064 9.39023 16.1995 7.39348 17.3254C5.3856 18.4575 3.89442 18.9942 2.89576 18.9942C2.57421 18.9942 2.36433 18.8818 2.22234 18.673C2.07011 18.4492 1.97556 18.0842 1.9737 17.5423C1.9752 17.5378 1.97779 17.5306 1.98206 17.5203C1.99508 17.4891 2.01743 17.4441 2.05207 17.383C2.12109 17.2614 2.22836 17.0943 2.37774 16.8773L2.37776 16.8773L2.37963 16.8745C2.65897 16.4569 2.83413 16.0585 2.80003 15.7165C2.77599 15.4152 2.68985 15.1447 2.4946 14.9682C2.28874 14.7822 2.01832 14.7497 1.74196 14.8069L1.74196 14.8068L1.73994 14.8073C1.49639 14.8598 1.27638 15.0452 1.07658 15.2863C0.871266 15.534 0.657584 15.877 0.434394 16.3086C-0.00764815 17.1127 -0.25 17.7775 -0.25 18.282C-0.25 19.1013 -0.00948153 19.7664 0.502948 20.2379C1.00928 20.7039 1.74607 20.9481 2.67337 21.0059L2.67686 21.006C3.21915 21.0322 3.91537 20.867 4.75028 20.5396C5.59063 20.2101 6.59471 19.7069 7.76089 19.0333C10.0935 17.686 13.0951 15.6455 16.7654 12.9154L16.7657 12.9152L27.85 4.64415C27.6747 5.02279 27.4292 5.5216 27.1145 6.14089L27.1135 6.1429C26.2015 7.97826 24.5748 10.4811 22.2076 13.6646C20.7463 15.6113 19.6476 17.1153 18.9104 18.1735C18.542 18.7022 18.262 19.1223 18.0716 19.432C17.9767 19.5865 17.9018 19.7171 17.849 19.822C17.8226 19.8743 17.8001 19.9236 17.7831 19.9684C17.7675 20.0094 17.7505 20.0622 17.7459 20.1172M17.7459 20.1172C17.746 20.1169 17.746 20.1166 17.746 20.1163L17.9951 20.1377L17.7459 20.1175C17.7459 20.1174 17.7459 20.1173 17.7459 20.1172ZM17.7459 20.1172C17.7227 20.3918 17.8807 20.5991 18.0965 20.7416C18.3044 20.8789 18.6003 20.9828 18.9622 21.0661C18.9723 21.0688 18.9819 21.0707 18.9908 21.0721L19.0702 20.6582C19.0842 20.6382 19.1003 20.6165 19.1187 20.5929C19.1426 20.6033 19.1695 20.6201 19.1942 20.647C19.2409 20.698 19.2521 20.7555 19.2529 20.7911C19.2535 20.8207 19.2473 20.842 19.244 20.8509M19.244 20.8509C19.2425 20.8539 19.2419 20.8554 19.242 20.8555C19.242 20.8556 19.2429 20.854 19.244 20.8509ZM44.9209 16.3799L44.9232 16.3809C45.2082 16.5038 45.2548 16.6196 45.2548 16.7012C45.2548 16.8569 45.1881 17.0527 45.0117 17.2916C44.836 17.5297 44.563 17.7946 44.182 18.0826L44.1804 18.0838C43.4879 18.6161 42.9326 18.8215 42.5005 18.7896C42.3051 18.7581 42.1844 18.7095 42.1154 18.6609C42.0563 18.6192 42.0365 18.5797 42.0309 18.5359C42.0295 18.4985 42.0408 18.4321 42.0914 18.3291C42.1432 18.2237 42.2285 18.0956 42.3537 17.9439C42.6041 17.6406 42.993 17.268 43.526 16.8258C43.9021 16.5216 44.1828 16.2913 44.3523 16.1368C44.476 16.1856 44.6641 16.2662 44.9209 16.3799ZM44.2136 16.0876C44.2125 16.0873 44.2132 16.0874 44.2161 16.0881L44.2136 16.0876Z" fill="#1BA3C4" stroke="#1BA3C4" stroke-width="0.5"/>
<mask id="path-2-outside-1_6_355" maskUnits="userSpaceOnUse" x="39.9087" y="32.575" width="125" height="41" fill="black">
<rect fill="white" x="39.9087" y="32.575" width="125" height="41"/>
<path d="M55.2608 50.6889C55.2177 51.2817 53.494 52.3642 50.0897 53.9192C47.2198 55.1993 45.0825 55.8179 43.6777 55.775C42.9624 55.7492 42.3591 55.5344 41.8506 55.122C41.299 54.6667 40.9888 54.0567 40.9198 53.3006C40.8078 51.9518 41.5404 50.3023 43.1261 48.352C45.1514 45.9035 47.013 44.6664 48.7108 44.6406C49.3313 44.6148 49.814 44.9241 50.1587 45.5684C50.4776 46.1183 50.6327 46.7712 50.6069 47.5273C50.581 48.1458 50.4 48.773 50.0553 49.4174C49.6847 50.1047 49.3313 50.4397 48.9866 50.414C48.616 50.371 48.4609 50.1133 48.504 49.6579C48.504 49.7009 48.6677 49.3229 48.9866 48.5239C49.2624 47.9053 49.3313 47.3898 49.1934 46.9774C48.9866 46.2643 48.7798 45.9207 48.5729 45.9465C47.0302 46.1097 45.5651 47.1836 44.1603 49.1768C43.0572 50.7834 42.4798 52.0377 42.4367 52.957C42.3936 54.1512 42.8503 54.6753 43.8156 54.5378C45.1687 54.3574 46.9613 53.8075 49.1934 52.8883C50.0639 52.5446 51.2274 51.9518 52.6753 51.1013C53.9594 50.3452 54.6661 49.9586 54.7781 49.9328C55.1487 49.8641 55.3038 50.1133 55.2608 50.6889ZM66.6025 49.5548C66.6025 50.8349 65.6976 52.2095 63.8791 53.6787C62.2244 55.0275 60.4059 55.6804 58.4323 55.6375C57.2861 55.6117 56.3984 55.2681 55.7779 54.6065C55.2521 54.0309 55.0108 53.3436 55.0539 52.5446C55.097 51.2645 55.6486 50.3109 56.7086 49.6923C56.8896 49.5806 57.2602 49.5205 57.8118 49.5205C57.9497 49.426 58.1479 49.2455 58.3978 48.9706C58.6736 48.6957 58.8805 48.5153 59.0184 48.4208C60.8368 47.3469 62.3192 46.8056 63.4654 46.8056C64.4048 46.8056 65.1632 47.0719 65.7407 47.596C66.3181 48.1029 66.6025 48.7558 66.6025 49.5548ZM65.2925 49.3486C65.2925 48.5926 64.7323 48.1888 63.6033 48.1458C62.3881 48.1029 61.2246 48.5325 60.1215 49.4517C59.9578 49.5634 59.7423 49.8297 59.4665 50.2421C59.2338 50.5858 58.9925 50.792 58.7426 50.8607C58.6047 50.8865 58.4582 50.8865 58.2944 50.8607H57.8463C57.4584 50.9037 57.0965 51.1786 56.7776 51.6855C56.5449 52.0979 56.4329 52.4157 56.4329 52.6477C56.4329 53.103 56.6655 53.5154 57.1223 53.8849C57.6049 54.2285 58.1565 54.4003 58.777 54.4003C59.9491 54.4003 61.285 53.9106 62.7759 52.9226C64.4565 51.7972 65.2925 50.6116 65.2925 49.3486ZM81.7363 50.2765C81.6932 50.6631 80.3574 51.7628 77.7374 53.5756C76.5394 54.4003 75.7121 54.9931 75.2553 55.3626C75.2122 55.4743 74.8072 56.8403 74.0487 59.452C73.4713 61.4452 72.9801 62.9659 72.5664 64.0226C71.739 66.1275 70.5411 67.8973 68.9812 69.3149C66.749 71.3081 64.6117 72.2445 62.5691 72.1328C61.5608 72.0899 60.6989 71.7462 59.9836 71.1019C59.2683 70.4146 58.9235 69.5898 58.9494 68.6276C58.9753 66.7289 61.5349 63.7735 66.637 59.7613C66.3353 59.9933 68.7312 58.3867 73.8074 54.9502C74.2642 54.2629 74.4969 53.5326 74.4969 52.7508C74.4969 51.5566 73.8074 50.9638 72.4285 50.9638C72.2906 50.9638 72.0924 51.0411 71.8424 51.2044C71.6356 51.3676 71.4632 51.4191 71.3253 51.3762C70.9117 51.213 70.7307 50.9896 70.7738 50.6889C70.7479 50.7834 71.6442 49.7524 73.4627 47.596C74.5917 46.2472 75.1605 45.4911 75.1864 45.3279C75.2122 45.01 75.0226 44.8468 74.6348 44.8468C74.1091 44.8468 73.2817 45.053 72.1527 45.4654C71.8511 45.577 71.4374 45.8176 70.9117 46.187C70.5238 46.4877 70.2653 46.608 70.1532 46.565C69.7827 46.4534 69.6017 46.2472 69.6017 45.9465C69.6017 45.4911 70.3859 44.9413 71.9459 44.2969C72.9111 43.9103 74.1952 43.6784 75.8069 43.6096C76.3843 43.5838 76.7032 43.9103 76.7721 44.5719C76.8152 45.0272 76.2637 45.9894 75.1174 47.4585L73.3937 49.6579C74.8847 49.9758 75.6948 50.7147 75.8069 51.8573C75.8327 52.1752 75.8069 52.6563 75.7379 53.3006C75.9017 53.3006 76.798 52.725 78.4269 51.5824C80.1505 50.3452 81.1158 49.7267 81.3226 49.7267C81.5984 49.7267 81.7363 49.9071 81.7363 50.2765ZM73.6006 56.531C73.5058 56.5997 72.6784 57.1152 71.1185 58.0774C69.7137 58.9709 68.5933 59.7613 67.7401 60.4486C65.077 62.648 63.3706 64.1171 62.6381 64.8474C60.9833 66.5399 60.1991 67.9403 60.2939 69.04C60.337 69.6156 60.6386 70.0795 61.1902 70.4489C61.6469 70.7496 62.1813 70.9215 62.7759 70.9644C64.1549 71.0589 65.8527 70.2771 67.878 68.6276C69.3517 67.4334 70.61 65.5089 71.6701 62.8542C72.1958 61.5054 72.8422 59.3919 73.6006 56.531ZM99.6624 39.1078C99.6624 42.5185 98.1456 46.1784 95.112 50.0703C92.0525 54.0567 89.4583 56.0499 87.321 56.0499C86.4247 56.0499 85.8128 55.9124 85.4939 55.6375C85.1492 55.3626 84.9509 54.8385 84.9078 54.0567C84.8389 53.0515 86.011 51.4191 88.4241 49.1768C89.8979 47.8022 91.1561 47.1407 92.2162 47.1836C92.2421 47.1836 92.9746 47.596 94.4225 48.4208C96.9477 45.7403 98.2146 42.7419 98.2146 39.4171C98.2146 37.3122 97.2838 35.9204 95.4222 35.2589C94.5259 34.9582 93.0694 34.8121 91.0441 34.8121C86.2868 34.8121 81.3485 35.6111 76.2206 37.2177C73.9022 37.9479 71.1271 39.0648 67.9125 40.5511L63.6723 42.5099C63.3965 42.5099 63.2586 42.3725 63.2586 42.0976C63.2844 41.6594 64.784 40.7487 67.7746 39.3483C70.6445 38.0167 73.23 36.9857 75.5311 36.2554C81.0727 34.4684 86.123 33.575 90.6994 33.575C93.552 33.575 95.6549 33.8928 97.008 34.5372C98.7747 35.3877 99.6624 36.9084 99.6624 39.1078ZM92.9746 50.0016C92.7936 49.4517 92.4661 49.0823 92.0094 48.9019C91.6905 48.7902 91.1734 48.9277 90.4581 49.3143C89.7686 49.6837 89.1825 50.139 88.6999 50.6889C87.2262 52.3384 86.4505 53.4811 86.3557 54.1254C86.3126 54.3574 86.6315 54.5636 87.321 54.744C87.9415 54.9244 89.1567 54.2199 90.9752 52.6133C92.0352 51.6511 92.6988 50.7834 92.9746 50.0016ZM120.864 50.414C120.864 50.5772 119.2 51.7628 115.865 53.988C113.478 55.5945 111.487 56.3935 109.901 56.3935C108.755 56.3935 108.039 55.8866 107.764 54.8815C107.626 54.3574 107.617 53.7388 107.729 53.0257C106.764 53.6701 105.868 54.1941 105.04 54.6065C103.618 55.3368 102.412 55.7062 101.421 55.7062C100.042 55.7062 99.3522 54.9931 99.3522 53.5756C99.3522 52.3814 100.395 50.6803 102.489 48.4551C104.739 45.9808 106.359 44.7523 107.35 44.778C108.496 44.821 109.461 45.3708 110.246 46.4276C110.453 46.7025 110.694 47.2867 110.97 48.1802C111.961 47.5874 112.34 47.2781 112.107 47.2523C112.823 47.2953 113.142 47.5702 113.073 48.0771C113.004 48.4895 112.487 49.2112 111.521 50.2421C110.789 51.0927 110.211 51.6855 109.798 52.0291C109.289 53.2233 109.048 53.9192 109.074 54.1254C109.143 54.7182 109.487 55.0189 110.108 55.0189C111.073 55.0189 112.736 54.3316 115.107 52.957C118.942 50.7318 120.7 49.6321 120.381 49.6579C120.7 49.6321 120.864 49.8899 120.864 50.414ZM109.625 48.352C109.625 47.9826 109.393 47.5273 108.936 46.9774C108.453 46.4018 107.996 46.1269 107.557 46.1527C106.729 46.1956 105.325 47.2953 103.351 49.4517C101.515 51.4879 100.636 52.8625 100.731 53.5756C100.8 54.0567 101.145 54.3316 101.765 54.4003C102.222 54.4433 103.179 54.0825 104.627 53.3006C106.971 52.0893 108.617 50.8607 109.556 49.6236L109.625 48.352ZM131.861 50.0016C131.835 50.2507 130.301 51.4449 127.241 53.5756C125.38 54.8557 123.768 55.5945 122.415 55.775C121.932 55.8437 121.441 55.6633 120.933 55.2251C120.407 54.8127 120.14 54.3574 120.14 53.8505C120.14 52.2439 120.941 50.3452 122.553 48.1458C123.725 46.5393 124.785 45.7403 125.724 45.7403C126.207 45.7403 126.646 46.0066 127.034 46.5307C127.379 47.0376 127.543 47.553 127.517 48.0771C127.474 49.34 126.552 50.4569 124.759 51.4449C124.001 51.8573 123.01 52.2267 121.794 52.5446C121.613 52.8883 121.519 53.2749 121.519 53.713C121.519 54.0996 121.889 54.3316 122.622 54.4003C123.078 54.4261 124.251 53.8934 126.138 52.8195C129.93 50.6202 131.68 49.5205 131.378 49.5205C131.723 49.5205 131.886 49.6837 131.861 50.0016ZM126.138 48.0084C126.138 47.5015 125.931 47.2523 125.517 47.2523C124.992 47.2523 124.388 47.8022 123.725 48.9019L122.415 51.1013C123.492 50.9208 124.345 50.5256 124.966 49.9328C125.75 49.2026 126.138 48.5582 126.138 48.0084ZM164.3 49.9328C164.326 50.371 162.783 51.4449 159.681 53.1632C157.793 54.1941 156.276 54.701 155.13 54.6753C153.105 54.6065 152.096 53.8763 152.096 52.4759C152.096 51.8573 152.346 51.0755 152.855 50.139C153.019 49.8212 153.294 49.3916 153.682 48.8675C154.07 48.3434 154.303 48.0084 154.372 47.8709C153.337 48.1716 151.657 49.0393 149.339 50.4827C147.175 51.7886 145.753 52.6821 145.064 53.1632C143.478 54.2629 142.694 54.8127 142.72 54.8127C142.401 54.7698 142.237 54.6323 142.237 54.4003C142.263 54.2199 142.401 53.8505 142.651 53.3006C142.952 52.6563 143.133 52.2439 143.202 52.0635C143.435 51.3762 143.547 50.7834 143.547 50.2765C143.271 50.4397 142.711 50.8006 141.858 51.3762C140.893 52.0205 140.143 52.5017 139.617 52.8195C136.489 54.701 134.403 55.6375 133.343 55.6375C132.61 55.6375 132.007 55.4313 131.55 55.0189C131.042 54.5636 130.792 53.945 130.792 53.1632C130.792 52.7508 131.137 52.0893 131.826 51.17C132.559 50.182 133.162 49.7009 133.619 49.7267C133.989 49.7267 134.196 49.9328 134.239 50.3452C134.265 50.5772 134.127 50.8006 133.826 51.0325C133.438 51.3075 133.205 51.5136 133.136 51.6511C132.679 52.4329 132.421 53.0515 132.378 53.5068C132.352 53.713 132.447 53.9192 132.653 54.1254C132.86 54.3058 133.067 54.4003 133.274 54.4003C133.851 54.4003 135.782 53.4811 139.065 51.6511C140.488 50.8521 141.918 49.8899 143.34 48.7644C145.228 47.3211 146.098 46.5908 145.96 46.565C146.486 46.608 146.744 46.8142 146.719 47.1836C146.719 47.0891 146.486 47.828 146.029 49.383L145.684 50.8951C147.037 50.2765 148.537 49.4775 150.166 48.4895C153.088 46.8142 155.104 46.0152 156.233 46.0839C156.716 46.1269 156.949 46.3159 156.923 46.6338C156.923 46.608 156.578 47.1149 155.888 48.1458C155.751 48.3778 155.483 48.7387 155.096 49.2455C154.794 49.6579 154.553 50.0445 154.372 50.414C153.915 51.3075 153.656 51.969 153.613 52.4071C153.57 52.957 154.07 53.2749 155.13 53.3694C155.957 53.4381 157.173 53.0687 158.784 52.2697C159.517 51.9003 160.577 51.2817 161.956 50.414C163.085 49.7267 163.705 49.383 163.817 49.383C164.119 49.383 164.274 49.5634 164.3 49.9328Z"/>
</mask>
<path d="M55.2608 50.6889C55.2177 51.2817 53.494 52.3642 50.0897 53.9192C47.2198 55.1993 45.0825 55.8179 43.6777 55.775C42.9624 55.7492 42.3591 55.5344 41.8506 55.122C41.299 54.6667 40.9888 54.0567 40.9198 53.3006C40.8078 51.9518 41.5404 50.3023 43.1261 48.352C45.1514 45.9035 47.013 44.6664 48.7108 44.6406C49.3313 44.6148 49.814 44.9241 50.1587 45.5684C50.4776 46.1183 50.6327 46.7712 50.6069 47.5273C50.581 48.1458 50.4 48.773 50.0553 49.4174C49.6847 50.1047 49.3313 50.4397 48.9866 50.414C48.616 50.371 48.4609 50.1133 48.504 49.6579C48.504 49.7009 48.6677 49.3229 48.9866 48.5239C49.2624 47.9053 49.3313 47.3898 49.1934 46.9774C48.9866 46.2643 48.7798 45.9207 48.5729 45.9465C47.0302 46.1097 45.5651 47.1836 44.1603 49.1768C43.0572 50.7834 42.4798 52.0377 42.4367 52.957C42.3936 54.1512 42.8503 54.6753 43.8156 54.5378C45.1687 54.3574 46.9613 53.8075 49.1934 52.8883C50.0639 52.5446 51.2274 51.9518 52.6753 51.1013C53.9594 50.3452 54.6661 49.9586 54.7781 49.9328C55.1487 49.8641 55.3038 50.1133 55.2608 50.6889ZM66.6025 49.5548C66.6025 50.8349 65.6976 52.2095 63.8791 53.6787C62.2244 55.0275 60.4059 55.6804 58.4323 55.6375C57.2861 55.6117 56.3984 55.2681 55.7779 54.6065C55.2521 54.0309 55.0108 53.3436 55.0539 52.5446C55.097 51.2645 55.6486 50.3109 56.7086 49.6923C56.8896 49.5806 57.2602 49.5205 57.8118 49.5205C57.9497 49.426 58.1479 49.2455 58.3978 48.9706C58.6736 48.6957 58.8805 48.5153 59.0184 48.4208C60.8368 47.3469 62.3192 46.8056 63.4654 46.8056C64.4048 46.8056 65.1632 47.0719 65.7407 47.596C66.3181 48.1029 66.6025 48.7558 66.6025 49.5548ZM65.2925 49.3486C65.2925 48.5926 64.7323 48.1888 63.6033 48.1458C62.3881 48.1029 61.2246 48.5325 60.1215 49.4517C59.9578 49.5634 59.7423 49.8297 59.4665 50.2421C59.2338 50.5858 58.9925 50.792 58.7426 50.8607C58.6047 50.8865 58.4582 50.8865 58.2944 50.8607H57.8463C57.4584 50.9037 57.0965 51.1786 56.7776 51.6855C56.5449 52.0979 56.4329 52.4157 56.4329 52.6477C56.4329 53.103 56.6655 53.5154 57.1223 53.8849C57.6049 54.2285 58.1565 54.4003 58.777 54.4003C59.9491 54.4003 61.285 53.9106 62.7759 52.9226C64.4565 51.7972 65.2925 50.6116 65.2925 49.3486ZM81.7363 50.2765C81.6932 50.6631 80.3574 51.7628 77.7374 53.5756C76.5394 54.4003 75.7121 54.9931 75.2553 55.3626C75.2122 55.4743 74.8072 56.8403 74.0487 59.452C73.4713 61.4452 72.9801 62.9659 72.5664 64.0226C71.739 66.1275 70.5411 67.8973 68.9812 69.3149C66.749 71.3081 64.6117 72.2445 62.5691 72.1328C61.5608 72.0899 60.6989 71.7462 59.9836 71.1019C59.2683 70.4146 58.9235 69.5898 58.9494 68.6276C58.9753 66.7289 61.5349 63.7735 66.637 59.7613C66.3353 59.9933 68.7312 58.3867 73.8074 54.9502C74.2642 54.2629 74.4969 53.5326 74.4969 52.7508C74.4969 51.5566 73.8074 50.9638 72.4285 50.9638C72.2906 50.9638 72.0924 51.0411 71.8424 51.2044C71.6356 51.3676 71.4632 51.4191 71.3253 51.3762C70.9117 51.213 70.7307 50.9896 70.7738 50.6889C70.7479 50.7834 71.6442 49.7524 73.4627 47.596C74.5917 46.2472 75.1605 45.4911 75.1864 45.3279C75.2122 45.01 75.0226 44.8468 74.6348 44.8468C74.1091 44.8468 73.2817 45.053 72.1527 45.4654C71.8511 45.577 71.4374 45.8176 70.9117 46.187C70.5238 46.4877 70.2653 46.608 70.1532 46.565C69.7827 46.4534 69.6017 46.2472 69.6017 45.9465C69.6017 45.4911 70.3859 44.9413 71.9459 44.2969C72.9111 43.9103 74.1952 43.6784 75.8069 43.6096C76.3843 43.5838 76.7032 43.9103 76.7721 44.5719C76.8152 45.0272 76.2637 45.9894 75.1174 47.4585L73.3937 49.6579C74.8847 49.9758 75.6948 50.7147 75.8069 51.8573C75.8327 52.1752 75.8069 52.6563 75.7379 53.3006C75.9017 53.3006 76.798 52.725 78.4269 51.5824C80.1505 50.3452 81.1158 49.7267 81.3226 49.7267C81.5984 49.7267 81.7363 49.9071 81.7363 50.2765ZM73.6006 56.531C73.5058 56.5997 72.6784 57.1152 71.1185 58.0774C69.7137 58.9709 68.5933 59.7613 67.7401 60.4486C65.077 62.648 63.3706 64.1171 62.6381 64.8474C60.9833 66.5399 60.1991 67.9403 60.2939 69.04C60.337 69.6156 60.6386 70.0795 61.1902 70.4489C61.6469 70.7496 62.1813 70.9215 62.7759 70.9644C64.1549 71.0589 65.8527 70.2771 67.878 68.6276C69.3517 67.4334 70.61 65.5089 71.6701 62.8542C72.1958 61.5054 72.8422 59.3919 73.6006 56.531ZM99.6624 39.1078C99.6624 42.5185 98.1456 46.1784 95.112 50.0703C92.0525 54.0567 89.4583 56.0499 87.321 56.0499C86.4247 56.0499 85.8128 55.9124 85.4939 55.6375C85.1492 55.3626 84.9509 54.8385 84.9078 54.0567C84.8389 53.0515 86.011 51.4191 88.4241 49.1768C89.8979 47.8022 91.1561 47.1407 92.2162 47.1836C92.2421 47.1836 92.9746 47.596 94.4225 48.4208C96.9477 45.7403 98.2146 42.7419 98.2146 39.4171C98.2146 37.3122 97.2838 35.9204 95.4222 35.2589C94.5259 34.9582 93.0694 34.8121 91.0441 34.8121C86.2868 34.8121 81.3485 35.6111 76.2206 37.2177C73.9022 37.9479 71.1271 39.0648 67.9125 40.5511L63.6723 42.5099C63.3965 42.5099 63.2586 42.3725 63.2586 42.0976C63.2844 41.6594 64.784 40.7487 67.7746 39.3483C70.6445 38.0167 73.23 36.9857 75.5311 36.2554C81.0727 34.4684 86.123 33.575 90.6994 33.575C93.552 33.575 95.6549 33.8928 97.008 34.5372C98.7747 35.3877 99.6624 36.9084 99.6624 39.1078ZM92.9746 50.0016C92.7936 49.4517 92.4661 49.0823 92.0094 48.9019C91.6905 48.7902 91.1734 48.9277 90.4581 49.3143C89.7686 49.6837 89.1825 50.139 88.6999 50.6889C87.2262 52.3384 86.4505 53.4811 86.3557 54.1254C86.3126 54.3574 86.6315 54.5636 87.321 54.744C87.9415 54.9244 89.1567 54.2199 90.9752 52.6133C92.0352 51.6511 92.6988 50.7834 92.9746 50.0016ZM120.864 50.414C120.864 50.5772 119.2 51.7628 115.865 53.988C113.478 55.5945 111.487 56.3935 109.901 56.3935C108.755 56.3935 108.039 55.8866 107.764 54.8815C107.626 54.3574 107.617 53.7388 107.729 53.0257C106.764 53.6701 105.868 54.1941 105.04 54.6065C103.618 55.3368 102.412 55.7062 101.421 55.7062C100.042 55.7062 99.3522 54.9931 99.3522 53.5756C99.3522 52.3814 100.395 50.6803 102.489 48.4551C104.739 45.9808 106.359 44.7523 107.35 44.778C108.496 44.821 109.461 45.3708 110.246 46.4276C110.453 46.7025 110.694 47.2867 110.97 48.1802C111.961 47.5874 112.34 47.2781 112.107 47.2523C112.823 47.2953 113.142 47.5702 113.073 48.0771C113.004 48.4895 112.487 49.2112 111.521 50.2421C110.789 51.0927 110.211 51.6855 109.798 52.0291C109.289 53.2233 109.048 53.9192 109.074 54.1254C109.143 54.7182 109.487 55.0189 110.108 55.0189C111.073 55.0189 112.736 54.3316 115.107 52.957C118.942 50.7318 120.7 49.6321 120.381 49.6579C120.7 49.6321 120.864 49.8899 120.864 50.414ZM109.625 48.352C109.625 47.9826 109.393 47.5273 108.936 46.9774C108.453 46.4018 107.996 46.1269 107.557 46.1527C106.729 46.1956 105.325 47.2953 103.351 49.4517C101.515 51.4879 100.636 52.8625 100.731 53.5756C100.8 54.0567 101.145 54.3316 101.765 54.4003C102.222 54.4433 103.179 54.0825 104.627 53.3006C106.971 52.0893 108.617 50.8607 109.556 49.6236L109.625 48.352ZM131.861 50.0016C131.835 50.2507 130.301 51.4449 127.241 53.5756C125.38 54.8557 123.768 55.5945 122.415 55.775C121.932 55.8437 121.441 55.6633 120.933 55.2251C120.407 54.8127 120.14 54.3574 120.14 53.8505C120.14 52.2439 120.941 50.3452 122.553 48.1458C123.725 46.5393 124.785 45.7403 125.724 45.7403C126.207 45.7403 126.646 46.0066 127.034 46.5307C127.379 47.0376 127.543 47.553 127.517 48.0771C127.474 49.34 126.552 50.4569 124.759 51.4449C124.001 51.8573 123.01 52.2267 121.794 52.5446C121.613 52.8883 121.519 53.2749 121.519 53.713C121.519 54.0996 121.889 54.3316 122.622 54.4003C123.078 54.4261 124.251 53.8934 126.138 52.8195C129.93 50.6202 131.68 49.5205 131.378 49.5205C131.723 49.5205 131.886 49.6837 131.861 50.0016ZM126.138 48.0084C126.138 47.5015 125.931 47.2523 125.517 47.2523C124.992 47.2523 124.388 47.8022 123.725 48.9019L122.415 51.1013C123.492 50.9208 124.345 50.5256 124.966 49.9328C125.75 49.2026 126.138 48.5582 126.138 48.0084ZM164.3 49.9328C164.326 50.371 162.783 51.4449 159.681 53.1632C157.793 54.1941 156.276 54.701 155.13 54.6753C153.105 54.6065 152.096 53.8763 152.096 52.4759C152.096 51.8573 152.346 51.0755 152.855 50.139C153.019 49.8212 153.294 49.3916 153.682 48.8675C154.07 48.3434 154.303 48.0084 154.372 47.8709C153.337 48.1716 151.657 49.0393 149.339 50.4827C147.175 51.7886 145.753 52.6821 145.064 53.1632C143.478 54.2629 142.694 54.8127 142.72 54.8127C142.401 54.7698 142.237 54.6323 142.237 54.4003C142.263 54.2199 142.401 53.8505 142.651 53.3006C142.952 52.6563 143.133 52.2439 143.202 52.0635C143.435 51.3762 143.547 50.7834 143.547 50.2765C143.271 50.4397 142.711 50.8006 141.858 51.3762C140.893 52.0205 140.143 52.5017 139.617 52.8195C136.489 54.701 134.403 55.6375 133.343 55.6375C132.61 55.6375 132.007 55.4313 131.55 55.0189C131.042 54.5636 130.792 53.945 130.792 53.1632C130.792 52.7508 131.137 52.0893 131.826 51.17C132.559 50.182 133.162 49.7009 133.619 49.7267C133.989 49.7267 134.196 49.9328 134.239 50.3452C134.265 50.5772 134.127 50.8006 133.826 51.0325C133.438 51.3075 133.205 51.5136 133.136 51.6511C132.679 52.4329 132.421 53.0515 132.378 53.5068C132.352 53.713 132.447 53.9192 132.653 54.1254C132.86 54.3058 133.067 54.4003 133.274 54.4003C133.851 54.4003 135.782 53.4811 139.065 51.6511C140.488 50.8521 141.918 49.8899 143.34 48.7644C145.228 47.3211 146.098 46.5908 145.96 46.565C146.486 46.608 146.744 46.8142 146.719 47.1836C146.719 47.0891 146.486 47.828 146.029 49.383L145.684 50.8951C147.037 50.2765 148.537 49.4775 150.166 48.4895C153.088 46.8142 155.104 46.0152 156.233 46.0839C156.716 46.1269 156.949 46.3159 156.923 46.6338C156.923 46.608 156.578 47.1149 155.888 48.1458C155.751 48.3778 155.483 48.7387 155.096 49.2455C154.794 49.6579 154.553 50.0445 154.372 50.414C153.915 51.3075 153.656 51.969 153.613 52.4071C153.57 52.957 154.07 53.2749 155.13 53.3694C155.957 53.4381 157.173 53.0687 158.784 52.2697C159.517 51.9003 160.577 51.2817 161.956 50.414C163.085 49.7267 163.705 49.383 163.817 49.383C164.119 49.383 164.274 49.5634 164.3 49.9328Z" fill="#1BA3C4"/>
<path d="M55.2608 50.6889C55.2177 51.2817 53.494 52.3642 50.0897 53.9192C47.2198 55.1993 45.0825 55.8179 43.6777 55.775C42.9624 55.7492 42.3591 55.5344 41.8506 55.122C41.299 54.6667 40.9888 54.0567 40.9198 53.3006C40.8078 51.9518 41.5404 50.3023 43.1261 48.352C45.1514 45.9035 47.013 44.6664 48.7108 44.6406C49.3313 44.6148 49.814 44.9241 50.1587 45.5684C50.4776 46.1183 50.6327 46.7712 50.6069 47.5273C50.581 48.1458 50.4 48.773 50.0553 49.4174C49.6847 50.1047 49.3313 50.4397 48.9866 50.414C48.616 50.371 48.4609 50.1133 48.504 49.6579C48.504 49.7009 48.6677 49.3229 48.9866 48.5239C49.2624 47.9053 49.3313 47.3898 49.1934 46.9774C48.9866 46.2643 48.7798 45.9207 48.5729 45.9465C47.0302 46.1097 45.5651 47.1836 44.1603 49.1768C43.0572 50.7834 42.4798 52.0377 42.4367 52.957C42.3936 54.1512 42.8503 54.6753 43.8156 54.5378C45.1687 54.3574 46.9613 53.8075 49.1934 52.8883C50.0639 52.5446 51.2274 51.9518 52.6753 51.1013C53.9594 50.3452 54.6661 49.9586 54.7781 49.9328C55.1487 49.8641 55.3038 50.1133 55.2608 50.6889ZM66.6025 49.5548C66.6025 50.8349 65.6976 52.2095 63.8791 53.6787C62.2244 55.0275 60.4059 55.6804 58.4323 55.6375C57.2861 55.6117 56.3984 55.2681 55.7779 54.6065C55.2521 54.0309 55.0108 53.3436 55.0539 52.5446C55.097 51.2645 55.6486 50.3109 56.7086 49.6923C56.8896 49.5806 57.2602 49.5205 57.8118 49.5205C57.9497 49.426 58.1479 49.2455 58.3978 48.9706C58.6736 48.6957 58.8805 48.5153 59.0184 48.4208C60.8368 47.3469 62.3192 46.8056 63.4654 46.8056C64.4048 46.8056 65.1632 47.0719 65.7407 47.596C66.3181 48.1029 66.6025 48.7558 66.6025 49.5548ZM65.2925 49.3486C65.2925 48.5926 64.7323 48.1888 63.6033 48.1458C62.3881 48.1029 61.2246 48.5325 60.1215 49.4517C59.9578 49.5634 59.7423 49.8297 59.4665 50.2421C59.2338 50.5858 58.9925 50.792 58.7426 50.8607C58.6047 50.8865 58.4582 50.8865 58.2944 50.8607H57.8463C57.4584 50.9037 57.0965 51.1786 56.7776 51.6855C56.5449 52.0979 56.4329 52.4157 56.4329 52.6477C56.4329 53.103 56.6655 53.5154 57.1223 53.8849C57.6049 54.2285 58.1565 54.4003 58.777 54.4003C59.9491 54.4003 61.285 53.9106 62.7759 52.9226C64.4565 51.7972 65.2925 50.6116 65.2925 49.3486ZM81.7363 50.2765C81.6932 50.6631 80.3574 51.7628 77.7374 53.5756C76.5394 54.4003 75.7121 54.9931 75.2553 55.3626C75.2122 55.4743 74.8072 56.8403 74.0487 59.452C73.4713 61.4452 72.9801 62.9659 72.5664 64.0226C71.739 66.1275 70.5411 67.8973 68.9812 69.3149C66.749 71.3081 64.6117 72.2445 62.5691 72.1328C61.5608 72.0899 60.6989 71.7462 59.9836 71.1019C59.2683 70.4146 58.9235 69.5898 58.9494 68.6276C58.9753 66.7289 61.5349 63.7735 66.637 59.7613C66.3353 59.9933 68.7312 58.3867 73.8074 54.9502C74.2642 54.2629 74.4969 53.5326 74.4969 52.7508C74.4969 51.5566 73.8074 50.9638 72.4285 50.9638C72.2906 50.9638 72.0924 51.0411 71.8424 51.2044C71.6356 51.3676 71.4632 51.4191 71.3253 51.3762C70.9117 51.213 70.7307 50.9896 70.7738 50.6889C70.7479 50.7834 71.6442 49.7524 73.4627 47.596C74.5917 46.2472 75.1605 45.4911 75.1864 45.3279C75.2122 45.01 75.0226 44.8468 74.6348 44.8468C74.1091 44.8468 73.2817 45.053 72.1527 45.4654C71.8511 45.577 71.4374 45.8176 70.9117 46.187C70.5238 46.4877 70.2653 46.608 70.1532 46.565C69.7827 46.4534 69.6017 46.2472 69.6017 45.9465C69.6017 45.4911 70.3859 44.9413 71.9459 44.2969C72.9111 43.9103 74.1952 43.6784 75.8069 43.6096C76.3843 43.5838 76.7032 43.9103 76.7721 44.5719C76.8152 45.0272 76.2637 45.9894 75.1174 47.4585L73.3937 49.6579C74.8847 49.9758 75.6948 50.7147 75.8069 51.8573C75.8327 52.1752 75.8069 52.6563 75.7379 53.3006C75.9017 53.3006 76.798 52.725 78.4269 51.5824C80.1505 50.3452 81.1158 49.7267 81.3226 49.7267C81.5984 49.7267 81.7363 49.9071 81.7363 50.2765ZM73.6006 56.531C73.5058 56.5997 72.6784 57.1152 71.1185 58.0774C69.7137 58.9709 68.5933 59.7613 67.7401 60.4486C65.077 62.648 63.3706 64.1171 62.6381 64.8474C60.9833 66.5399 60.1991 67.9403 60.2939 69.04C60.337 69.6156 60.6386 70.0795 61.1902 70.4489C61.6469 70.7496 62.1813 70.9215 62.7759 70.9644C64.1549 71.0589 65.8527 70.2771 67.878 68.6276C69.3517 67.4334 70.61 65.5089 71.6701 62.8542C72.1958 61.5054 72.8422 59.3919 73.6006 56.531ZM99.6624 39.1078C99.6624 42.5185 98.1456 46.1784 95.112 50.0703C92.0525 54.0567 89.4583 56.0499 87.321 56.0499C86.4247 56.0499 85.8128 55.9124 85.4939 55.6375C85.1492 55.3626 84.9509 54.8385 84.9078 54.0567C84.8389 53.0515 86.011 51.4191 88.4241 49.1768C89.8979 47.8022 91.1561 47.1407 92.2162 47.1836C92.2421 47.1836 92.9746 47.596 94.4225 48.4208C96.9477 45.7403 98.2146 42.7419 98.2146 39.4171C98.2146 37.3122 97.2838 35.9204 95.4222 35.2589C94.5259 34.9582 93.0694 34.8121 91.0441 34.8121C86.2868 34.8121 81.3485 35.6111 76.2206 37.2177C73.9022 37.9479 71.1271 39.0648 67.9125 40.5511L63.6723 42.5099C63.3965 42.5099 63.2586 42.3725 63.2586 42.0976C63.2844 41.6594 64.784 40.7487 67.7746 39.3483C70.6445 38.0167 73.23 36.9857 75.5311 36.2554C81.0727 34.4684 86.123 33.575 90.6994 33.575C93.552 33.575 95.6549 33.8928 97.008 34.5372C98.7747 35.3877 99.6624 36.9084 99.6624 39.1078ZM92.9746 50.0016C92.7936 49.4517 92.4661 49.0823 92.0094 48.9019C91.6905 48.7902 91.1734 48.9277 90.4581 49.3143C89.7686 49.6837 89.1825 50.139 88.6999 50.6889C87.2262 52.3384 86.4505 53.4811 86.3557 54.1254C86.3126 54.3574 86.6315 54.5636 87.321 54.744C87.9415 54.9244 89.1567 54.2199 90.9752 52.6133C92.0352 51.6511 92.6988 50.7834 92.9746 50.0016ZM120.864 50.414C120.864 50.5772 119.2 51.7628 115.865 53.988C113.478 55.5945 111.487 56.3935 109.901 56.3935C108.755 56.3935 108.039 55.8866 107.764 54.8815C107.626 54.3574 107.617 53.7388 107.729 53.0257C106.764 53.6701 105.868 54.1941 105.04 54.6065C103.618 55.3368 102.412 55.7062 101.421 55.7062C100.042 55.7062 99.3522 54.9931 99.3522 53.5756C99.3522 52.3814 100.395 50.6803 102.489 48.4551C104.739 45.9808 106.359 44.7523 107.35 44.778C108.496 44.821 109.461 45.3708 110.246 46.4276C110.453 46.7025 110.694 47.2867 110.97 48.1802C111.961 47.5874 112.34 47.2781 112.107 47.2523C112.823 47.2953 113.142 47.5702 113.073 48.0771C113.004 48.4895 112.487 49.2112 111.521 50.2421C110.789 51.0927 110.211 51.6855 109.798 52.0291C109.289 53.2233 109.048 53.9192 109.074 54.1254C109.143 54.7182 109.487 55.0189 110.108 55.0189C111.073 55.0189 112.736 54.3316 115.107 52.957C118.942 50.7318 120.7 49.6321 120.381 49.6579C120.7 49.6321 120.864 49.8899 120.864 50.414ZM109.625 48.352C109.625 47.9826 109.393 47.5273 108.936 46.9774C108.453 46.4018 107.996 46.1269 107.557 46.1527C106.729 46.1956 105.325 47.2953 103.351 49.4517C101.515 51.4879 100.636 52.8625 100.731 53.5756C100.8 54.0567 101.145 54.3316 101.765 54.4003C102.222 54.4433 103.179 54.0825 104.627 53.3006C106.971 52.0893 108.617 50.8607 109.556 49.6236L109.625 48.352ZM131.861 50.0016C131.835 50.2507 130.301 51.4449 127.241 53.5756C125.38 54.8557 123.768 55.5945 122.415 55.775C121.932 55.8437 121.441 55.6633 120.933 55.2251C120.407 54.8127 120.14 54.3574 120.14 53.8505C120.14 52.2439 120.941 50.3452 122.553 48.1458C123.725 46.5393 124.785 45.7403 125.724 45.7403C126.207 45.7403 126.646 46.0066 127.034 46.5307C127.379 47.0376 127.543 47.553 127.517 48.0771C127.474 49.34 126.552 50.4569 124.759 51.4449C124.001 51.8573 123.01 52.2267 121.794 52.5446C121.613 52.8883 121.519 53.2749 121.519 53.713C121.519 54.0996 121.889 54.3316 122.622 54.4003C123.078 54.4261 124.251 53.8934 126.138 52.8195C129.93 50.6202 131.68 49.5205 131.378 49.5205C131.723 49.5205 131.886 49.6837 131.861 50.0016ZM126.138 48.0084C126.138 47.5015 125.931 47.2523 125.517 47.2523C124.992 47.2523 124.388 47.8022 123.725 48.9019L122.415 51.1013C123.492 50.9208 124.345 50.5256 124.966 49.9328C125.75 49.2026 126.138 48.5582 126.138 48.0084ZM164.3 49.9328C164.326 50.371 162.783 51.4449 159.681 53.1632C157.793 54.1941 156.276 54.701 155.13 54.6753C153.105 54.6065 152.096 53.8763 152.096 52.4759C152.096 51.8573 152.346 51.0755 152.855 50.139C153.019 49.8212 153.294 49.3916 153.682 48.8675C154.07 48.3434 154.303 48.0084 154.372 47.8709C153.337 48.1716 151.657 49.0393 149.339 50.4827C147.175 51.7886 145.753 52.6821 145.064 53.1632C143.478 54.2629 142.694 54.8127 142.72 54.8127C142.401 54.7698 142.237 54.6323 142.237 54.4003C142.263 54.2199 142.401 53.8505 142.651 53.3006C142.952 52.6563 143.133 52.2439 143.202 52.0635C143.435 51.3762 143.547 50.7834 143.547 50.2765C143.271 50.4397 142.711 50.8006 141.858 51.3762C140.893 52.0205 140.143 52.5017 139.617 52.8195C136.489 54.701 134.403 55.6375 133.343 55.6375C132.61 55.6375 132.007 55.4313 131.55 55.0189C131.042 54.5636 130.792 53.945 130.792 53.1632C130.792 52.7508 131.137 52.0893 131.826 51.17C132.559 50.182 133.162 49.7009 133.619 49.7267C133.989 49.7267 134.196 49.9328 134.239 50.3452C134.265 50.5772 134.127 50.8006 133.826 51.0325C133.438 51.3075 133.205 51.5136 133.136 51.6511C132.679 52.4329 132.421 53.0515 132.378 53.5068C132.352 53.713 132.447 53.9192 132.653 54.1254C132.86 54.3058 133.067 54.4003 133.274 54.4003C133.851 54.4003 135.782 53.4811 139.065 51.6511C140.488 50.8521 141.918 49.8899 143.34 48.7644C145.228 47.3211 146.098 46.5908 145.96 46.565C146.486 46.608 146.744 46.8142 146.719 47.1836C146.719 47.0891 146.486 47.828 146.029 49.383L145.684 50.8951C147.037 50.2765 148.537 49.4775 150.166 48.4895C153.088 46.8142 155.104 46.0152 156.233 46.0839C156.716 46.1269 156.949 46.3159 156.923 46.6338C156.923 46.608 156.578 47.1149 155.888 48.1458C155.751 48.3778 155.483 48.7387 155.096 49.2455C154.794 49.6579 154.553 50.0445 154.372 50.414C153.915 51.3075 153.656 51.969 153.613 52.4071C153.57 52.957 154.07 53.2749 155.13 53.3694C155.957 53.4381 157.173 53.0687 158.784 52.2697C159.517 51.9003 160.577 51.2817 161.956 50.414C163.085 49.7267 163.705 49.383 163.817 49.383C164.119 49.383 164.274 49.5634 164.3 49.9328Z" stroke="#1BA3C4" mask="url(#path-2-outside-1_6_355)"/>
<path d="M116.899 85.0885C116.925 85.4579 116.287 86.128 115.003 87.116C113.693 88.104 112.512 88.8257 111.452 89.281C109.936 89.9254 108.6 90.2433 107.453 90.2433C106.169 90.2433 105.204 89.7364 104.558 88.7312C104.446 88.568 104.291 88.3102 104.11 87.9408C103.903 87.4855 103.756 87.1762 103.661 87.0129C103.498 87.1504 103.17 87.3996 102.662 87.769C102.205 88.0869 101.826 88.3875 101.524 88.6625C101.412 88.757 101.033 89.2123 100.386 90.0371C99.8348 90.7244 99.4556 91.068 99.2488 91.068C98.7403 91.068 98.4473 90.9048 98.3525 90.5869C98.3266 90.5182 99.2919 89.3498 101.248 87.0817C103.041 85.0455 103.937 83.7396 103.937 83.164C103.937 82.7774 103.73 82.5454 103.317 82.4767C102.946 82.4338 101.688 83.0008 99.5246 84.195C99.042 84.4441 98.0767 85.0799 96.6288 86.0851C95.4998 86.8841 94.8621 87.2621 94.6983 87.2191C94.1036 87.1074 93.8451 86.9013 93.9399 86.6006C93.983 86.4373 94.6552 85.9132 95.9393 85.0197C97.2062 84.152 98.1198 83.5764 98.6972 83.3015C101.291 81.9956 102.903 81.3083 103.523 81.2396C103.963 81.1966 104.377 81.2997 104.765 81.5489C105.178 81.798 105.385 82.1073 105.385 82.4767C105.385 82.8633 105.273 83.3444 105.04 83.9201C104.808 84.5129 104.696 84.951 104.696 85.2259C104.584 85.2259 105.661 84.5816 107.936 83.3015C110.418 81.8581 111.72 81.1451 111.832 81.1708C112.081 81.2138 112.211 81.42 112.211 81.7894C112.211 81.8581 111.133 82.6142 108.97 84.0575L107.247 85.2259C106.514 85.75 105.868 86.1882 105.316 86.5318C105.247 86.6263 105.273 86.9184 105.385 87.4253C105.428 87.726 105.635 88.0525 106.006 88.4219C106.488 88.8773 107.014 89.1006 107.591 89.0749C108.72 89.0319 109.772 88.7742 110.763 88.3188C111.521 87.9494 112.693 87.2277 114.279 86.1538C115.658 85.2173 116.417 84.7448 116.554 84.7448C116.735 84.7448 116.856 84.8565 116.899 85.0885ZM127.896 84.7792C127.896 86.0593 126.991 87.4339 125.173 88.903C123.518 90.2519 121.7 90.9048 119.726 90.8619C118.58 90.8361 117.692 90.4924 117.072 89.8309C116.546 89.2553 116.304 88.568 116.348 87.769C116.391 86.4889 116.942 85.5352 118.002 84.9166C118.183 84.805 118.554 84.7448 119.105 84.7448C119.243 84.6503 119.442 84.4699 119.691 84.195C119.967 83.9201 120.174 83.7396 120.312 83.6451C122.13 82.5712 123.613 82.03 124.759 82.03C125.698 82.03 126.457 82.2963 127.034 82.8204C127.612 83.3273 127.896 83.9802 127.896 84.7792ZM126.586 84.573C126.586 83.817 126.026 83.4132 124.897 83.3702C123.682 83.3273 122.518 83.7568 121.415 84.6761C121.251 84.7878 121.036 85.0541 120.76 85.4665C120.527 85.8102 120.286 86.0163 120.036 86.0851C119.898 86.1108 119.752 86.1108 119.588 86.0851H119.14C118.752 86.128 118.39 86.403 118.071 86.9098C117.839 87.3222 117.727 87.6401 117.727 87.8721C117.727 88.3274 117.959 88.7398 118.416 89.1092C118.899 89.4529 119.45 89.6247 120.071 89.6247C121.243 89.6247 122.579 89.135 124.07 88.147C125.75 87.0215 126.586 85.8359 126.586 84.573ZM163.197 85.1572C163.223 85.5954 161.68 86.6693 158.577 88.3875C156.69 89.4185 155.173 89.9254 154.027 89.8996C152.002 89.8309 150.993 89.1006 150.993 87.7002C150.993 87.0817 151.243 86.2999 151.752 85.3634C151.915 85.0455 152.191 84.616 152.579 84.0919C152.967 83.5678 153.2 83.2328 153.269 83.0953C152.234 83.396 150.554 84.2637 148.235 85.7071C146.072 87.0129 144.65 87.9064 143.961 88.3875C142.375 89.4872 141.591 90.0371 141.617 90.0371C141.298 89.9941 141.134 89.8567 141.134 89.6247C141.16 89.4443 141.298 89.0749 141.548 88.525C141.849 87.8807 142.03 87.4683 142.099 87.2879C142.332 86.6006 142.444 86.0077 142.444 85.5009C142.168 85.6641 141.608 86.0249 140.755 86.6006C139.789 87.2449 139.04 87.726 138.514 88.0439C135.385 89.9254 133.3 90.8619 132.24 90.8619C131.507 90.8619 130.904 90.6557 130.447 90.2433C129.939 89.7879 129.689 89.1694 129.689 88.3875C129.689 87.9752 130.033 87.3136 130.723 86.3944C131.456 85.4064 132.059 84.9252 132.516 84.951C132.886 84.951 133.093 85.1572 133.136 85.5696C133.162 85.8016 133.024 86.0249 132.722 86.2569C132.335 86.5318 132.102 86.738 132.033 86.8755C131.576 87.6573 131.318 88.2759 131.275 88.7312C131.249 88.9374 131.343 89.1436 131.55 89.3498C131.757 89.5302 131.964 89.6247 132.171 89.6247C132.748 89.6247 134.679 88.7054 137.962 86.8755C139.384 86.0765 140.815 85.1143 142.237 83.9888C144.124 82.5454 144.995 81.8152 144.857 81.7894C145.383 81.8324 145.641 82.0386 145.615 82.408C145.615 82.3135 145.383 83.0523 144.926 84.6074L144.581 86.1194C145.934 85.5009 147.434 84.7019 149.063 83.7139C151.984 82.0386 154.001 81.2396 155.13 81.3083C155.613 81.3512 155.845 81.5403 155.82 81.8581C155.82 81.8324 155.475 82.3393 154.785 83.3702C154.647 83.6022 154.38 83.963 153.992 84.4699C153.691 84.8823 153.45 85.2689 153.269 85.6383C152.812 86.5318 152.553 87.1934 152.51 87.6315C152.467 88.1814 152.967 88.4992 154.027 88.5937C154.854 88.6625 156.07 88.293 157.681 87.494C158.414 87.1246 159.474 86.506 160.853 85.6383C161.982 84.951 162.602 84.6074 162.714 84.6074C163.016 84.6074 163.171 84.7878 163.197 85.1572ZM182.743 83.7826C182.838 84.7706 181.735 86.1452 179.434 87.9064C176.788 89.8996 175.185 90.8619 174.608 90.7931C173.987 90.6986 173.668 90.4924 173.642 90.1745C173.642 90.08 174.099 89.0061 175.021 86.9442C173.823 86.9442 172.746 87.1504 171.781 87.5628L168.127 91.4804C167.299 92.3997 166.162 93.4307 164.714 94.5733C163.154 95.8105 162.171 96.3861 161.783 96.2916C161.482 96.2228 161.335 96.0424 161.335 95.7417L166.886 90.7244C167.644 90.0113 168.377 89.0749 169.092 87.9064C169.574 87.0387 169.824 86.5061 169.85 86.3256C166.842 88.0181 164.912 88.8429 164.059 88.7999C163.714 88.7742 163.438 88.5937 163.231 88.2501C163.05 87.9322 162.981 87.5628 163.025 87.1504C163.162 85.6126 163.878 84.152 165.162 82.7516C166.886 80.8701 168.644 79.9337 170.436 79.9337C171.445 79.9337 172.238 80.9217 172.815 82.8891C174.099 81.0763 175.547 79.2464 177.159 77.3906C179.891 74.272 181.407 72.6912 181.709 72.6482C182.123 72.5795 182.33 72.7599 182.33 73.1981L178.331 78.1467C175.754 81.3083 174.082 83.4132 173.298 84.4699C173.065 85.3204 172.996 85.8531 173.091 86.0851C173.392 85.9047 173.806 85.604 174.332 85.1916C174.789 84.8479 175.254 84.5386 175.711 84.2637C177.943 82.8633 179.684 82.1588 180.951 82.1331C182.054 82.1073 182.648 82.6571 182.743 83.7826ZM171.505 83.3015C171.324 81.9956 170.841 81.3513 170.057 81.377C168.635 81.42 167.23 82.3135 165.851 84.0575C164.998 85.1572 164.533 86.1194 164.438 86.9442C164.395 87.1762 164.498 87.3136 164.748 87.3566C164.912 87.3824 166.127 86.8067 168.402 85.6383C168.842 85.4064 169.376 85.0197 170.023 84.4699C170.85 83.8084 171.341 83.4132 171.505 83.3015ZM181.364 83.9888C181.39 83.6709 181.183 83.4819 180.744 83.4389C179.848 83.3702 178.908 83.6881 177.917 84.4012C177.253 84.9081 176.814 85.2689 176.607 85.5009C176.909 85.8445 177.064 86.1194 177.09 86.3256C177.116 86.5318 176.978 86.9356 176.676 87.5284C176.331 88.147 176.15 88.568 176.124 88.7999C178.305 87.1934 179.434 86.3514 179.503 86.2569C180.718 85.0455 181.338 84.2895 181.364 83.9888ZM218.113 85.1572C218.087 85.6383 216.915 86.6435 214.597 88.1814C211.882 89.9426 209.839 90.8361 208.46 90.8619C208.047 90.8619 207.702 90.6643 207.426 90.2776C207.176 89.934 207.056 89.5302 207.081 89.0749C207.125 88.4563 207.814 87.3995 209.15 85.9132C210.253 84.6331 210.83 83.9201 210.874 83.7826C210.486 84.0146 209.934 84.2637 209.219 84.5386C208.279 84.9252 207.633 85.2002 207.288 85.3634C205.539 86.3256 203.608 87.1762 201.497 87.9064C195.361 94.7537 191.818 98.6714 190.879 99.6594C183.64 107.22 180.054 111 180.123 111C179.804 111 179.615 110.888 179.572 110.656C179.572 110.588 183.088 106.601 190.121 98.6971L193.051 95.5012C194.111 94.3328 195.197 93.1042 196.326 91.8241C199.178 88.5937 201.247 86.2139 202.531 84.6761L201.221 85.3634C199.73 86.2139 199.084 86.6435 199.29 86.6693C199.058 86.6435 198.834 86.4373 198.601 86.0507C198.437 85.7328 199.566 84.9081 201.979 83.5764C202.505 83.3015 203.091 82.9492 203.738 82.5111C204.401 82.0729 204.901 81.7636 205.22 81.5832C206.021 80.9217 206.607 80.6296 206.978 80.7241C207.323 80.7928 207.495 80.9646 207.495 81.2396C207.495 81.1966 206.9 81.8581 205.703 83.2327C204.599 84.4699 203.91 85.2689 203.634 85.6383C204.505 85.4321 205.952 84.8136 207.978 83.7826C210.365 82.5025 212.046 81.8581 213.011 81.8581C213.287 81.8581 213.399 82.0901 213.356 82.5454C213.261 83.1898 212.416 84.3067 210.805 85.9132C209.219 87.5628 208.435 88.6195 208.46 89.0749C208.504 89.4443 208.667 89.6247 208.943 89.6247C209.813 89.6247 211.494 88.8257 213.976 87.2191C216.346 85.6641 217.536 84.8823 217.561 84.8823C217.932 84.8393 218.113 84.9252 218.113 85.1572ZM195.912 84.7792C195.912 86.0593 195.007 87.4339 193.189 88.903C191.534 90.2519 189.716 90.9048 187.742 90.8619C186.596 90.8361 185.708 90.4924 185.087 89.8309C184.562 89.2553 184.32 88.568 184.364 87.769C184.407 86.4889 184.958 85.5352 186.018 84.9166C186.199 84.805 186.57 84.7448 187.121 84.7448C187.259 84.6503 187.458 84.4699 187.707 84.195C187.983 83.9201 188.19 83.7396 188.328 83.6451C190.146 82.5712 191.629 82.03 192.775 82.03C193.714 82.03 194.473 82.2963 195.05 82.8204C195.628 83.3273 195.912 83.9802 195.912 84.7792ZM194.602 84.573C194.602 83.817 194.042 83.4132 192.913 83.3702C191.698 83.3273 190.534 83.7568 189.431 84.6761C189.267 84.7878 189.052 85.0541 188.776 85.4665C188.543 85.8102 188.302 86.0163 188.052 86.0851C187.914 86.1108 187.768 86.1108 187.604 86.0851H187.156C186.768 86.128 186.406 86.403 186.087 86.9098C185.854 87.3222 185.742 87.6401 185.742 87.8721C185.742 88.3274 185.975 88.7398 186.432 89.1092C186.915 89.4529 187.466 89.6247 188.087 89.6247C189.259 89.6247 190.595 89.135 192.086 88.147C193.766 87.0215 194.602 85.8359 194.602 84.573ZM253 85.0885C252.957 85.8016 251.069 87.2621 247.346 89.4872C245.097 90.8189 243.115 91.5492 241.417 91.6866C240.908 91.7296 240.452 91.5406 240.038 91.1024C239.624 90.6643 239.417 90.1316 239.417 89.4872C239.417 89.0749 239.874 87.9752 240.796 86.1882C240.934 85.8875 241.279 85.3634 241.831 84.6074C242.27 84.0317 242.477 83.6451 242.451 83.4389C242.425 83.1211 242.201 82.9321 241.762 82.8891C241.115 82.8461 239.323 83.7568 236.384 85.6383C235.944 86.0507 235.324 86.781 234.522 87.8377C233.807 88.757 233.255 89.2123 232.868 89.2123C232.385 89.2123 232.083 88.9374 231.971 88.3875C231.945 88.293 232.635 87.5198 234.04 86.0507C235.048 85.0198 235.556 84.1177 235.556 83.3358C235.556 82.8118 235.255 82.5454 234.66 82.5454C233.928 82.5454 233.049 82.7259 232.04 83.0953C230.084 83.8256 228.55 84.6503 227.421 85.5696C226.895 86.0078 226.343 86.5318 225.766 87.1504C225.051 87.9322 224.568 88.4305 224.318 88.6625C223.189 89.6505 222.5 90.1316 222.25 90.1058C221.836 90.0371 221.603 89.7364 221.56 89.2123C221.534 88.9632 222.086 88.2501 223.215 87.0817C224.568 85.6813 225.24 84.8136 225.214 84.4699C225.171 83.963 224.913 83.7139 224.456 83.7139C223.861 83.7139 222.758 84.1005 221.147 84.8823C220.733 85.0627 220.087 85.4923 219.216 86.1538C218.501 86.6779 218.07 86.9184 217.906 86.8755C217.38 86.738 217.122 86.5318 217.148 86.2569C217.217 85.6813 218.389 84.7878 220.664 83.5764C221.905 82.9149 223.379 82.5025 225.077 82.3393C225.49 82.2963 225.895 82.5025 226.283 82.9578C226.602 83.3702 226.8 83.7826 226.869 84.195C227.447 83.7568 228.67 83.164 230.558 82.408C232.557 81.5832 233.928 81.1708 234.66 81.1708C235.875 81.1708 236.617 81.7207 236.866 82.8204C236.961 83.164 237.004 83.4819 237.004 83.7826C237.306 83.6881 238.185 83.2413 239.659 82.4423C240.9 81.798 241.736 81.4887 242.175 81.5145C243.322 81.5832 243.925 82.0901 243.968 83.0266C243.968 82.9321 243.391 84.0317 242.244 86.3256C241.279 88.293 240.796 89.324 240.796 89.4185C240.796 90.0629 241.046 90.3807 241.555 90.3807C242.615 90.3807 244.356 89.7192 246.795 88.3875C247.553 87.9752 248.768 87.1504 250.449 85.9132C251.716 84.994 252.474 84.5644 252.724 84.6074C252.905 84.6503 253 84.8136 253 85.0885Z" fill="#1BA3C4" stroke="#1BA3C4"/>
</g>
<defs>
<clipPath id="clip0_6_355">
<rect width="253" height="111" fill="white"/>
</clipPath>
</defs>
</svg>
