<svg width="537" height="191" viewBox="0 0 537 191" fill="none" xmlns="http://www.w3.org/2000/svg">
<path d="M86.3046 32.7351C86.068 34.1362 82.2277 36.4652 74.802 39.7222C68.4864 42.4334 64.1729 43.8526 61.8433 43.9436C61.1699 43.9982 60.5329 43.7799 59.9504 43.2886C59.368 42.7973 59.1678 42.2514 59.368 41.6146C59.5682 40.8868 60.2962 39.5585 61.5521 37.6115C63.2993 34.9004 64.4095 33.1172 64.901 32.2984C65.538 31.1339 66.6664 29.2415 68.3226 26.6214L71.4531 21.5266L64.3185 26.1847C59.0768 29.6236 55.5823 32.0983 53.8351 33.6085C45.2991 41.1779 43.5144 45.1082 41.8956 45.1082C40.385 44.7624 39.657 44.2893 39.7116 43.6525C39.7662 42.9793 42.8603 38.5031 49.0302 30.2605C54.0353 23.5099 57.4934 18.1786 59.4408 14.2483C60.8423 11.4826 61.6067 9.82676 61.6977 9.29909L36.7995 27.9314C21.311 39.4857 11.5192 45.1627 7.38769 44.9626C3.60201 44.726 1.70917 42.9793 1.70917 39.7222C1.70917 38.7943 2.16418 37.4842 3.0924 35.792C4.02062 33.9906 4.82144 33.0262 5.49485 32.8807C6.45947 32.6805 7.00548 33.1718 7.09649 34.3363C7.15109 34.864 6.87808 35.5736 6.29567 36.447C5.65865 37.375 5.34925 37.9209 5.34925 38.121C5.34925 40.541 6.16826 41.7602 7.8245 41.7602C12.3382 41.7602 20.8378 36.9565 33.3051 27.3492L54.9999 10.7547C63.2447 4.14971 68.1042 0.910886 69.5602 1.00186C70.8707 1.09284 71.3985 1.58413 71.1619 2.45752C71.0163 2.9488 70.3065 3.96776 69.0506 5.51439C67.54 7.40674 66.4116 9.06254 65.629 10.4636C65.1922 11.1914 64.4095 12.6471 63.2993 14.8306C62.1345 17.105 61.2063 18.8154 60.5329 19.9254C59.8048 21.1445 58.6946 22.8912 57.184 25.1657L54.5631 29.096C55.6734 28.5137 58.6946 26.6759 63.5905 23.5645C66.266 21.8723 69.2144 19.8708 72.4723 17.5963C73.0547 17.014 73.8373 16.1407 74.802 14.9761L77.2772 12.2104C79.9891 9.20811 81.7363 7.69787 82.5189 7.69787C83.247 7.69787 83.8476 7.9708 84.339 8.49848C84.8668 9.02615 85.0852 9.6448 84.9942 10.318C84.339 11.6858 83.8294 11.3916 81.4997 14.3939L78.1508 18.033C76.4946 19.8344 75.2934 21.4356 74.5108 22.8367C73.7281 24.3469 71.7443 27.5857 68.541 32.5895C65.8656 36.7563 64.5187 39.0854 64.4641 39.5767C64.4641 40.068 64.6643 40.3591 65.0466 40.4501C65.8292 40.5956 68.9778 39.4857 74.5108 37.1021C76.0578 36.4288 78.2418 35.2279 81.0629 33.5357C83.4472 32.1346 84.7576 31.425 84.9942 31.425C86.0134 31.425 86.4502 31.8617 86.3046 32.7351ZM135.955 32.8807C135.955 34.3363 132.224 37.1021 124.744 41.1779C119.739 43.889 115.662 45.2537 112.513 45.2537C110.912 45.2537 109.656 44.6715 108.728 43.5069C107.945 42.488 107.617 41.378 107.708 40.1589C107.854 38.6123 108.145 37.3932 108.582 36.5198C107.708 36.72 106.78 36.8109 105.815 36.8109L101.447 37.6843C100.046 39.4857 98.6809 40.8322 97.3705 41.7602C94.9498 43.4523 92.5656 44.3257 90.2359 44.3803C88.9801 44.4349 87.9609 44.0164 87.1782 43.143C86.5048 42.4152 86.159 41.56 86.159 40.5956C86.159 39.7768 88.1429 37.1566 92.1288 32.7351C91.8921 32.8807 91.4735 33.0808 90.8911 33.3174C90.3087 33.5175 89.8537 33.6995 89.5079 33.8996C87.4695 35.1187 86.3592 35.701 86.159 35.6464C85.1944 35.4099 84.794 34.8276 84.9942 33.8996C85.0852 33.5539 86.159 32.8079 88.1975 31.6434C90.6727 30.1877 92.1833 29.2415 92.7112 28.8048C98.0985 24.82 98.4439 23.4189 99.8457 22.9822C100.337 22.9276 100.774 23.0732 101.156 23.4189C101.538 23.7646 101.739 24.1467 101.739 24.5834C101.739 25.9845 101.011 27.5857 99.5545 29.3871L97.9529 31.7161C98.7355 31.8071 99.6091 32.1528 100.574 32.7351C101.356 33.1718 102.03 33.7541 102.612 34.4819L106.107 34.0452C108.054 33.9542 109.31 33.8086 109.892 33.6085C110.275 33.3719 110.93 32.8079 111.858 31.9345L114.115 29.8238C115.48 28.6593 116.499 28.077 117.172 28.077C117.7 28.0224 118.174 28.2226 118.556 28.6593C118.902 29.005 119.065 29.3325 119.065 29.6782C118.556 30.8078 117.555 30.9337 114.552 34.4819C112.313 37.193 111.203 38.9944 111.203 39.8678C111.203 41.56 111.931 42.397 113.387 42.3424C115.371 42.2514 118.428 41.2325 122.56 39.2855C124.398 38.4667 126.983 36.8837 130.277 34.5547C133.043 32.6623 134.59 31.7161 134.936 31.7161C135.609 31.7707 135.955 32.1528 135.955 32.8807ZM97.8073 36.3742C97.8073 35.8829 97.4615 35.5008 96.788 35.2097C95.4776 34.6274 94.9498 34.4273 95.1864 34.6274C94.8952 34.9186 94.2582 35.4463 93.2936 36.2287C91.0185 38.121 89.8901 39.4857 89.9447 40.3045C89.9993 40.8322 90.4725 41.1779 91.4007 41.3235C92.511 41.4144 93.8214 40.8868 95.332 39.7222C96.9883 38.4667 97.8073 37.3386 97.8073 36.3742Z" fill="white" stroke="white" stroke-width="1.5"/>
<path d="M118.41 86.9848C118.319 88.2403 114.679 90.5329 107.49 93.8263C101.429 96.5375 96.9154 97.8476 93.9488 97.7566C92.4381 97.702 91.1641 97.2471 90.0903 96.3737C88.9255 95.4094 88.2702 94.1175 88.1246 92.5163C87.888 89.6595 89.4351 86.166 92.7839 82.0355C97.061 76.8498 100.992 74.2296 104.578 74.175C105.888 74.1204 106.907 74.7755 107.635 76.1402C108.309 77.3047 108.636 78.6875 108.582 80.2888C108.527 81.5989 108.145 82.9271 107.417 84.2918C106.634 85.7475 105.888 86.4571 105.16 86.4025C104.378 86.3115 104.05 85.7657 104.141 84.8013C104.205 84.1278 104.487 84.0917 105.16 82.3995C105.743 81.0894 105.888 79.9976 105.597 79.1242C105.16 77.614 104.723 76.8862 104.287 76.9408C101.029 77.2865 97.9347 79.5609 94.968 83.7823C92.6383 87.1849 91.4189 89.8415 91.3279 91.7884C91.2369 94.3176 92.2015 95.4276 94.24 95.1364C97.0974 94.7543 100.883 93.5898 105.597 91.6429C107.435 90.915 109.892 89.6595 112.95 87.8582C115.662 86.2569 117.154 85.4381 117.391 85.3836C118.173 85.238 118.501 85.7657 118.41 86.9848ZM142.362 84.5829C142.362 87.2941 140.451 90.2054 136.611 93.3169C133.116 96.1736 129.276 97.5565 125.108 97.4655C122.687 97.4109 120.813 96.6831 119.502 95.282C118.392 94.0629 117.882 92.6072 117.973 90.915C118.064 88.2039 119.229 86.1842 121.468 84.8741C121.85 84.6375 122.633 84.5102 123.797 84.5102C124.089 84.31 124.507 83.9279 125.035 83.3456C125.617 82.7634 126.054 82.3813 126.345 82.1811C130.186 79.9067 133.316 78.7603 135.737 78.7603C137.721 78.7603 139.322 79.3244 140.542 80.4343C141.761 81.5079 142.362 82.8907 142.362 84.5829ZM139.595 84.1462C139.595 82.545 138.412 81.6898 136.028 81.5989C133.462 81.5079 131.005 82.4177 128.675 84.3646C128.329 84.6011 127.874 85.1652 127.292 86.0386C126.8 86.7664 126.291 87.2031 125.763 87.3487C125.472 87.4033 125.162 87.4033 124.817 87.3487H123.87C123.051 87.4397 122.287 88.0219 121.613 89.0955C121.122 89.9689 120.885 90.6421 120.885 91.1334C120.885 92.0978 121.377 92.9711 122.341 93.7536C123.361 94.4814 124.525 94.8453 125.836 94.8453C128.311 94.8453 131.132 93.8081 134.281 91.7156C137.83 89.332 139.595 86.821 139.595 84.1462ZM174.322 86.1114C174.231 86.9302 171.41 89.2592 165.877 93.0985C163.347 94.8453 161.6 96.1008 160.635 96.8832C160.544 97.1198 159.689 100.013 158.087 105.544C156.868 109.766 155.83 112.986 154.956 115.224C153.209 119.682 150.679 123.431 147.385 126.433C142.671 130.654 138.158 132.638 133.844 132.401C131.715 132.31 129.895 131.582 128.384 130.218C126.873 128.762 126.145 127.015 126.2 124.977C126.254 120.956 131.66 114.697 142.435 106.199C143.794 105.127 146.857 103.288 157.577 96.0098C158.542 94.5542 159.033 93.0075 159.033 91.3517C159.033 88.8225 157.577 87.567 154.665 87.567C154.374 87.567 153.955 87.7308 153.428 88.0765C152.991 88.4222 152.627 88.5314 152.336 88.4404C151.462 88.0947 151.08 87.6216 151.171 86.9848C151.284 86.1962 153.009 85.0014 156.849 80.4343C159.234 77.5776 160.435 75.9764 160.489 75.6307C160.544 74.9574 160.144 74.6117 159.325 74.6117C158.214 74.6117 156.467 75.0484 154.083 75.9218C153.446 76.1583 152.572 76.6678 151.462 77.4502C150.643 78.0871 150.097 78.3418 149.86 78.2509C149.078 78.0143 148.696 77.5776 148.696 76.9408C148.696 75.9764 150.352 74.8119 153.646 73.4472C155.685 72.6284 158.396 72.1371 161.8 71.9915C163.019 71.937 163.693 72.6284 163.838 74.0295C163.929 74.9938 162.764 77.0317 160.344 80.1432L156.704 84.8013C159.852 85.4745 161.563 87.0394 161.8 89.4594C161.854 90.1326 161.8 91.1516 161.654 92.5163C162 92.5163 163.893 91.2971 167.333 88.8771C170.973 86.2569 173.011 84.9469 173.448 84.9469C174.031 84.9469 174.322 85.329 174.322 86.1114ZM157.141 99.3578C156.94 99.5034 155.193 100.595 151.899 102.633C148.932 104.525 146.566 106.199 144.764 107.655C139.14 112.313 135.537 115.425 133.99 116.971C130.495 120.556 128.839 123.522 129.039 125.851C129.13 127.07 129.767 128.052 130.932 128.835C131.897 129.472 133.025 129.836 134.281 129.927C137.193 130.127 140.778 128.471 145.055 124.977C148.168 122.448 150.825 118.372 153.064 112.75C154.174 109.893 155.539 105.417 157.141 99.3578ZM212.179 62.457C212.179 69.6807 208.975 77.432 202.569 85.6747C196.108 94.1175 190.629 98.3389 186.116 98.3389C184.223 98.3389 182.931 98.0477 182.257 97.4655C181.529 96.8832 181.11 95.7733 181.019 94.1175C180.874 91.9886 183.349 88.5314 188.445 83.7823C191.557 80.871 194.215 79.47 196.453 79.5609C196.508 79.5609 198.055 80.4343 201.113 82.1811C206.445 76.5041 209.121 70.1538 209.121 63.1121C209.121 58.6541 207.155 55.7064 203.224 54.3054C201.331 53.6685 198.255 53.3592 193.978 53.3592C183.932 53.3592 173.503 55.0514 162.673 58.454C157.778 60.0006 151.917 62.366 145.128 65.5139L136.174 69.6625C135.591 69.6625 135.3 69.3714 135.3 68.7891C135.355 67.8611 138.522 65.9324 144.837 62.9665C150.898 60.1462 156.358 57.9627 161.217 56.4161C172.92 52.6314 183.586 50.739 193.25 50.739C199.274 50.739 203.715 51.4123 206.573 52.7769C210.304 54.5783 212.179 57.7989 212.179 62.457ZM198.055 85.5291C197.673 84.3646 196.981 83.5822 196.017 83.2001C195.343 82.9635 194.251 83.2547 192.741 84.0735C191.284 84.8559 190.047 85.8203 189.028 86.9848C185.915 90.4783 184.277 92.8984 184.077 94.263C183.986 94.7543 184.66 95.191 186.116 95.5731C187.426 95.9552 189.992 94.4632 193.833 91.0606C196.071 89.0227 197.473 87.1849 198.055 85.5291ZM256.952 86.4025C256.952 86.7482 253.439 89.2592 246.395 93.9719C241.354 97.3745 237.149 99.0667 233.801 99.0667C231.38 99.0667 229.869 97.9931 229.287 95.8643C228.996 94.7543 228.978 93.4442 229.214 91.934C227.176 93.2987 225.283 94.4086 223.536 95.282C220.533 96.8286 217.984 97.611 215.891 97.611C212.979 97.611 211.523 96.1008 211.523 93.0985C211.523 90.5693 213.726 86.9666 218.148 82.2539C222.899 77.0136 226.32 74.4116 228.413 74.4662C230.834 74.5571 232.872 75.7217 234.529 77.9597C234.965 78.542 235.475 79.7793 236.057 81.6716C238.15 80.4161 237.922 79.7375 238.46 79.7065C239.971 79.7975 240.644 80.3797 240.498 81.4533C240.353 82.3267 239.261 83.8551 237.222 86.0386C235.675 87.84 234.456 89.0955 233.582 89.8233C232.508 92.3525 231.999 93.8263 232.053 94.263C232.199 95.5185 232.927 96.1554 234.237 96.1554C236.276 96.1554 239.789 94.6997 244.794 91.7884C252.893 87.0757 255.919 84.7992 255.932 84.8013C256.606 84.7467 256.952 85.2926 256.952 86.4025ZM233.218 82.0355C233.218 81.2531 232.727 80.2888 231.762 79.1242C230.743 77.9051 229.778 77.3229 228.85 77.3775C227.103 77.4684 224.136 79.7975 219.968 84.3646C216.092 88.677 214.235 91.5883 214.435 93.0985C214.581 94.1175 215.309 94.6997 216.619 94.8453C217.584 94.9363 219.604 94.1721 222.662 92.5163C227.612 89.9507 231.089 87.3487 233.073 84.7285L233.218 82.0355ZM280.175 85.5291C280.121 86.0568 276.881 88.586 270.42 93.0985C266.489 95.8097 263.085 97.3745 260.228 97.7566C259.208 97.9022 258.171 97.5201 257.097 96.5921C255.987 95.7187 255.423 94.7543 255.423 93.6808C255.423 90.2782 257.115 86.2569 260.519 81.5989C262.994 78.1963 265.233 76.5041 267.217 76.5041C268.236 76.5041 269.164 77.0681 269.983 78.1781C270.711 79.2516 271.057 80.3434 271.002 81.4533C270.911 84.1281 268.964 86.4935 265.178 88.586C263.576 89.4594 261.483 90.2418 258.917 90.915C258.535 91.6429 258.335 92.4617 258.335 93.3896C258.335 94.2085 259.117 94.6997 260.664 94.8453C261.629 94.8999 264.104 93.7718 268.09 91.4973C276.098 86.8392 278.416 84.7992 279.156 84.5102C279.884 84.5102 280.23 84.8559 280.175 85.5291ZM268.09 81.3077C268.09 80.2342 267.653 79.7065 266.78 79.7065C265.67 79.7065 264.395 80.871 262.994 83.2001L260.228 87.8582C262.503 87.4761 264.304 86.6391 265.615 85.3836C267.271 83.8369 268.09 82.4722 268.09 81.3077ZM348.682 85.3836C348.736 86.3115 345.478 88.586 338.926 92.2251C334.94 94.4086 331.737 95.4821 329.316 95.4276C325.039 95.282 322.91 93.7354 322.91 90.7695C322.91 89.4594 323.438 87.8036 324.511 85.8203C324.857 85.147 325.44 84.2372 326.259 83.1273C327.078 82.0174 327.569 81.3077 327.715 81.0166C325.531 81.6534 321.982 83.4912 317.086 86.5481C312.517 89.3138 309.514 91.2062 308.058 92.2251C304.709 94.5542 303.724 95.7187 303.108 95.7187C302.434 95.6277 302.088 95.3366 302.088 94.8453C302.143 94.4632 302.434 93.6808 302.962 92.5163C303.599 91.1516 303.981 90.2782 304.127 89.8961C304.618 88.4404 304.855 87.1849 304.855 86.1114C304.273 86.4571 303.09 87.2213 301.288 88.4404C299.249 89.8051 297.666 90.8241 296.556 91.4973C289.949 95.4821 285.544 97.4655 283.306 97.4655C281.759 97.4655 280.485 97.0288 279.52 96.1554C278.446 95.191 277.918 93.8809 277.918 92.2251C277.918 91.3517 278.646 89.9507 280.102 88.0037C281.649 85.9112 282.923 84.8923 283.888 84.9469C284.671 84.9469 285.108 85.3836 285.199 86.2569C285.253 86.7482 284.962 87.2213 284.325 87.7126C283.506 88.2949 283.014 88.7316 282.869 89.0227C281.904 90.6785 281.358 91.9886 281.267 92.9529C281.213 93.3896 281.413 93.8263 281.85 94.263C282.286 94.6451 282.723 94.8453 283.16 94.8453C284.38 94.8453 288.456 92.8984 295.391 89.0227C298.394 87.3305 301.415 85.2926 304.418 82.9089C308.404 79.8521 309.189 78.2509 309.951 78.2509C311.061 78.3418 311.607 78.7785 311.553 79.5609C311.598 79.7375 311.061 80.9256 310.097 84.219L309.369 87.4215C312.226 86.1114 315.393 84.4192 318.833 82.3267C325.003 78.7785 329.262 77.0863 331.646 77.2319C332.665 77.3229 333.157 77.7232 333.102 78.3964C332.969 78.6127 332.374 79.4154 330.918 81.5989C330.627 82.0901 330.063 82.8544 329.243 83.9279C328.606 84.8013 328.097 85.6201 327.715 86.4025C326.75 88.2949 326.204 89.6959 326.113 90.6239C326.022 91.7884 327.078 92.4617 329.316 92.6618C331.064 92.8074 333.63 92.025 337.033 90.3328C338.58 89.5504 340.819 88.2403 343.731 86.4025C346.115 84.9469 347.426 84.219 347.662 84.219C348.299 84.219 348.627 84.6011 348.682 85.3836Z" fill="white" stroke="white" stroke-width="1.5"/>
<path d="M248.579 135.36C248.634 136.143 247.287 137.562 244.575 139.654C241.809 141.747 239.315 143.275 237.077 144.24C233.873 145.604 231.052 146.278 228.632 146.278C225.92 146.278 223.881 145.204 222.516 143.075C222.28 142.73 221.952 142.184 221.57 141.401C221.133 140.437 220.824 139.782 220.624 139.436C220.278 139.727 219.586 140.255 218.512 141.037C217.548 141.711 216.747 142.347 216.11 142.93C215.873 143.13 215.072 144.094 213.707 145.841C212.543 147.297 211.742 148.024 211.305 148.024C210.231 148.024 209.612 147.679 209.412 147.006C209.357 146.86 211.396 144.385 215.527 139.582C219.313 135.269 221.206 132.504 221.206 131.284C221.206 130.466 220.769 129.974 219.896 129.829C219.113 129.738 216.456 130.939 211.887 133.468C210.868 133.996 208.83 135.342 205.772 137.471C203.388 139.163 202.041 139.964 201.695 139.873C200.439 139.636 199.893 139.2 200.093 138.563C200.184 138.217 201.604 137.107 204.316 135.215C206.991 133.377 208.921 132.158 210.14 131.576C215.618 128.81 219.022 127.354 220.332 127.209C221.261 127.118 222.134 127.336 222.953 127.864C223.827 128.391 224.264 129.046 224.264 129.829C224.264 130.648 224.027 131.667 223.536 132.886C223.044 134.141 222.808 135.069 222.808 135.651C222.571 135.651 224.846 134.287 229.651 131.576C234.893 128.519 237.641 127.009 237.877 127.063C238.405 127.154 238.678 127.591 238.678 128.373C238.678 128.519 236.403 130.12 231.835 133.177L228.195 135.651C226.648 136.761 225.283 137.689 224.118 138.417C223.972 138.617 224.027 139.236 224.264 140.31C224.355 140.946 224.791 141.638 225.574 142.42C226.593 143.385 227.703 143.858 228.923 143.803C231.307 143.712 233.528 143.166 235.621 142.202C237.222 141.419 239.698 139.891 243.046 137.617C245.958 135.633 247.56 134.632 247.851 134.632C248.234 134.632 248.488 134.869 248.579 135.36ZM271.803 134.705C271.803 137.416 269.892 140.328 266.052 143.439C262.557 146.296 258.717 147.679 254.549 147.588C252.128 147.533 250.254 146.805 248.943 145.404C247.833 144.185 247.324 142.73 247.415 141.037C247.506 138.326 248.67 136.306 250.909 134.996C251.291 134.76 252.074 134.632 253.239 134.632C253.53 134.432 253.948 134.05 254.476 133.468C255.059 132.886 255.495 132.504 255.787 132.303C259.627 130.029 262.757 128.883 265.178 128.883C267.162 128.883 268.764 129.447 269.983 130.557C271.202 131.63 271.803 133.013 271.803 134.705ZM269.037 134.269C269.037 132.667 267.854 131.812 265.469 131.721C262.903 131.63 260.446 132.54 258.116 134.487C257.771 134.723 257.316 135.288 256.733 136.161C256.242 136.889 255.732 137.325 255.204 137.471C254.913 137.526 254.604 137.526 254.258 137.471H253.311C252.492 137.562 251.728 138.144 251.055 139.218C250.563 140.091 250.327 140.764 250.327 141.256C250.327 142.22 250.818 143.093 251.783 143.876C252.802 144.604 253.967 144.968 255.277 144.968C257.752 144.968 260.573 143.93 263.722 141.838C267.271 139.454 269.037 136.943 269.037 134.269ZM346.352 135.506C346.406 136.434 343.149 138.708 336.596 142.347C332.611 144.531 329.407 145.604 326.987 145.55C322.71 145.404 320.58 143.858 320.58 140.892C320.58 139.582 321.108 137.926 322.182 135.943C322.528 135.269 323.11 134.36 323.929 133.25C324.748 132.14 325.239 131.43 325.385 131.139C323.201 131.776 319.652 133.614 314.756 136.67C310.188 139.436 307.185 141.328 305.729 142.347C302.38 144.676 301.451 145.932 300.778 145.841C300.105 145.75 299.759 145.459 299.759 144.968C299.813 144.586 300.105 143.803 300.632 142.639C301.269 141.274 301.652 140.401 301.797 140.018C302.289 138.563 302.525 137.307 302.525 136.234C301.943 136.579 300.76 137.344 298.958 138.563C296.92 139.927 295.336 140.946 294.226 141.62C287.619 145.604 283.215 147.588 280.976 147.588C279.429 147.588 278.155 147.151 277.19 146.278C276.117 145.313 275.589 144.003 275.589 142.347C275.589 141.474 276.317 140.073 277.773 138.126C279.32 136.034 280.594 135.015 281.558 135.069C282.341 135.069 282.778 135.506 282.869 136.379C282.923 136.871 282.632 137.344 281.995 137.835C281.176 138.417 280.685 138.854 280.539 139.145C279.575 140.801 279.029 142.111 278.938 143.075C278.883 143.512 279.083 143.949 279.52 144.385C279.957 144.767 280.394 144.968 280.83 144.968C282.05 144.968 286.127 143.021 293.061 139.145C296.064 137.453 299.085 135.415 302.088 133.031C306.074 129.974 307.099 128.667 307.621 128.373C308.732 128.464 309.278 128.901 309.223 129.683C309.2 130.009 308.732 131.048 307.767 134.341L307.039 137.544C309.896 136.234 313.063 134.542 316.503 132.449C322.673 128.901 326.932 127.209 329.316 127.354C330.336 127.445 330.827 127.845 330.772 128.519C330.72 128.667 330.044 129.538 328.588 131.721C328.297 132.212 327.733 132.977 326.914 134.05C326.277 134.924 325.767 135.742 325.385 136.525C324.42 138.417 323.874 139.818 323.783 140.746C323.692 141.911 324.748 142.584 326.987 142.784C328.734 142.93 331.3 142.147 334.704 140.455C336.251 139.673 338.489 138.363 341.401 136.525C343.786 135.069 345.096 134.341 345.333 134.341C345.97 134.341 346.297 134.723 346.352 135.506ZM387.63 132.595C387.831 134.687 385.501 137.598 380.641 141.328C375.054 145.55 371.669 147.588 370.449 147.442C369.139 147.242 368.465 146.805 368.411 146.132C368.411 145.932 369.375 143.658 371.323 139.291C368.793 139.291 366.518 139.727 364.479 140.601L356.762 148.898C355.015 150.845 352.613 153.028 349.555 155.448C346.261 158.068 344.186 159.288 343.367 159.087C342.73 158.942 342.421 158.56 342.421 157.923L354.142 147.297C355.743 145.786 357.29 143.803 358.801 141.328C359.82 139.491 360.348 138.363 360.403 137.98C354.051 141.565 349.974 143.312 348.172 143.221C347.444 143.166 346.861 142.784 346.425 142.056C346.042 141.383 345.897 140.601 345.988 139.727C346.279 136.47 347.79 133.377 350.502 130.411C354.142 126.426 357.855 124.443 361.64 124.443C363.77 124.443 365.444 126.535 366.664 130.702C369.375 126.863 372.433 122.987 375.837 119.057C381.606 112.452 384.809 109.104 385.446 109.013C386.32 108.867 386.757 109.25 386.757 110.178L378.312 120.658C372.87 127.354 369.339 131.812 367.683 134.05C367.191 135.852 367.046 136.98 367.246 137.471C367.883 137.089 368.757 136.452 369.867 135.579C370.831 134.851 371.814 134.196 372.779 133.614C377.493 130.648 381.169 129.156 383.845 129.101C386.174 129.046 387.43 130.211 387.63 132.595ZM363.897 131.576C363.515 128.81 362.496 127.445 360.839 127.5C357.836 127.591 354.87 129.483 351.958 133.177C350.156 135.506 349.173 137.544 348.973 139.291C348.882 139.782 349.1 140.073 349.628 140.164C349.974 140.219 352.54 138.999 357.345 136.525C358.273 136.034 359.402 135.215 360.767 134.05C362.514 132.649 363.551 131.812 363.897 131.576ZM384.718 133.031C384.773 132.358 384.336 131.958 383.408 131.867C381.515 131.721 379.531 132.394 377.438 133.905C376.037 134.978 375.108 135.742 374.672 136.234C375.309 136.962 375.636 137.544 375.691 137.98C375.745 138.417 375.454 139.272 374.817 140.528C374.089 141.838 373.707 142.73 373.652 143.221C378.257 139.818 380.641 138.035 380.787 137.835C383.353 135.269 384.664 133.668 384.718 133.031ZM462.325 135.506C462.27 136.525 459.795 138.654 454.899 141.911C449.166 145.641 444.852 147.533 441.94 147.588C441.067 147.588 440.339 147.169 439.756 146.35C439.228 145.623 438.974 144.767 439.028 143.803C439.119 142.493 440.575 140.255 443.396 137.107C445.726 134.396 446.945 132.886 447.036 132.595C446.217 133.086 445.053 133.614 443.542 134.196C441.558 135.015 440.193 135.597 439.465 135.943C435.77 137.98 431.694 139.782 427.234 141.328C414.276 155.83 406.795 164.128 404.812 166.22C389.523 182.232 382.771 190.238 382.097 190.238C381.424 190.238 381.024 190.002 380.933 189.511C380.933 189.365 388.358 180.922 403.21 164.182L409.398 157.413C411.637 154.939 413.93 152.337 416.314 149.626C422.339 142.784 426.707 137.744 429.418 134.487L426.652 135.943C423.503 137.744 423.518 138.791 422.575 138.708C422.084 138.654 421.611 138.217 421.119 137.398C420.773 136.725 423.158 134.978 428.254 132.158C429.364 131.576 430.602 130.83 431.967 129.902C433.368 128.974 434.424 128.319 435.097 127.936C436.79 126.535 438.027 125.917 438.81 126.117C439.538 126.262 439.902 126.626 439.902 127.209C439.828 127.542 438.646 128.519 436.116 131.43C433.787 134.05 432.331 135.742 431.748 136.525C433.586 136.088 436.644 134.778 440.921 132.595C445.963 129.883 449.512 128.519 451.55 128.519C452.133 128.519 452.369 129.01 452.278 129.974C452.078 131.339 450.294 133.704 446.891 137.107C443.542 140.601 441.886 142.839 441.94 143.803C442.031 144.586 442.377 144.968 442.96 144.968C444.798 144.968 448.347 143.275 453.589 139.873C458.594 136.579 461.105 134.924 461.16 134.924C461.943 134.833 462.325 135.015 462.325 135.506ZM415.441 134.705C415.441 137.416 413.53 140.328 409.689 143.439C406.195 146.296 402.354 147.679 398.187 147.588C395.766 147.533 393.891 146.805 392.581 145.404C391.471 144.185 390.961 142.73 391.052 141.037C391.143 138.326 392.308 136.306 394.547 134.996C394.929 134.76 395.711 134.632 396.876 134.632C397.167 134.432 397.586 134.05 398.114 133.468C398.696 132.886 399.133 132.504 399.424 132.303C403.265 130.029 406.395 128.883 408.816 128.883C410.799 128.883 412.401 129.447 413.621 130.557C414.84 131.63 415.441 133.013 415.441 134.705ZM412.674 134.269C412.674 132.667 411.491 131.812 409.107 131.721C406.541 131.63 404.084 132.54 401.754 134.487C401.408 134.723 400.953 135.288 400.371 136.161C399.879 136.889 399.37 137.325 398.842 137.471C398.551 137.526 398.241 137.526 397.895 137.471H396.949C396.13 137.562 395.366 138.144 394.692 139.218C394.201 140.091 393.964 140.764 393.964 141.256C393.964 142.22 394.456 143.093 395.42 143.876C396.439 144.604 397.604 144.968 398.915 144.968C401.39 144.968 404.211 143.93 407.36 141.838C410.909 139.454 412.674 136.943 412.674 134.269ZM536 135.36C535.909 136.871 531.923 139.964 524.061 144.676C519.31 147.497 515.124 149.043 511.539 149.335C510.465 149.426 509.5 149.025 508.627 148.097C507.753 147.169 507.316 146.041 507.316 144.676C507.316 143.803 508.281 141.474 510.228 137.689C510.519 137.052 511.247 135.943 512.412 134.341C513.341 133.122 513.777 132.303 513.723 131.867C513.668 131.194 513.195 130.793 512.267 130.702C510.902 130.611 507.116 132.54 500.91 136.525C499.981 137.398 498.671 138.945 496.978 141.183C495.468 143.13 494.303 144.094 493.484 144.094C492.465 144.094 491.828 143.512 491.591 142.347C491.536 142.147 492.992 140.51 495.959 137.398C498.089 135.215 499.162 133.304 499.162 131.648C499.162 130.538 498.525 129.974 497.27 129.974C495.723 129.974 493.866 130.357 491.737 131.139C487.605 132.686 484.365 134.432 481.981 136.379C480.871 137.307 479.706 138.417 478.487 139.727C476.976 141.383 475.957 142.438 475.429 142.93C473.045 145.022 471.589 146.041 471.061 145.987C470.187 145.841 469.696 145.204 469.605 144.094C469.55 143.567 470.715 142.056 473.099 139.582C475.957 136.616 477.377 134.778 477.322 134.05C477.231 132.977 476.685 132.449 475.72 132.449C474.464 132.449 472.135 133.268 468.731 134.924C467.858 135.306 466.493 136.215 464.654 137.617C463.144 138.727 462.234 139.236 461.888 139.145C460.778 138.854 460.232 138.417 460.286 137.835C460.432 136.616 462.907 134.723 467.712 132.158C470.333 130.757 473.445 129.883 477.031 129.538C477.904 129.447 478.76 129.883 479.579 130.848C480.252 131.721 480.671 132.595 480.816 133.468C482.036 132.54 484.62 131.284 488.606 129.683C492.829 127.936 495.723 127.063 497.27 127.063C499.836 127.063 501.401 128.228 501.929 130.557C502.129 131.284 502.22 131.958 502.22 132.595C502.857 132.394 504.714 131.448 507.826 129.756C510.447 128.391 512.212 127.736 513.14 127.791C515.561 127.936 516.835 129.01 516.926 130.993C516.94 131.294 515.707 133.122 513.286 137.98C511.247 142.147 510.228 144.331 510.228 144.531C510.228 145.896 510.756 146.569 511.83 146.569C514.069 146.569 517.745 145.168 522.896 142.347C524.497 141.474 527.064 139.727 530.613 137.107C533.288 135.16 534.89 134.25 535.418 134.341C535.8 134.432 536 134.778 536 135.36Z" fill="white" stroke="white" stroke-width="1.5"/>
</svg>
