<svg width="202" height="78" viewBox="0 0 202 78" fill="none" xmlns="http://www.w3.org/2000/svg">
<path d="M144.503 0.472682C131.124 20.0356 115.792 34.0978 100.563 44.2033H104.404C118.971 34.1093 133.522 20.3748 146.311 1.67726C146.646 1.18552 146.513 0.514613 146.018 0.182974C145.831 0.0571797 145.618 0 145.409 0C145.059 0 144.716 0.163914 144.506 0.472682" fill="url(#paint0_linear_3_19869)"/>
<path d="M1.22726 70.0786C0.64475 70.0062 0.0850809 70.4179 0.00893542 71.0088C-0.0672101 71.5958 0.351591 72.1333 0.949332 72.2133C1.04451 72.2248 5.25536 72.7394 12.3293 72.7394C16.3764 72.7394 21.3677 72.5678 27.0558 72.0418V69.8804C11.5945 71.3328 1.37575 70.0977 1.22726 70.0786Z" fill="url(#paint1_linear_3_19869)"/>
<path d="M35.329 61.6811H38.8698C41.2303 61.6811 42.4105 63.2325 42.4105 66.3431V73.3342C42.4105 74.8856 41.6224 75.6633 40.05 75.6633H35.329V61.6772V61.6811ZM35.329 45.3659H40.05C41.6224 45.3659 42.4105 46.1436 42.4105 47.695V54.709C42.4105 57.8005 41.2303 59.3482 38.8698 59.3482H35.329V45.3621V45.3659ZM32.9685 43.033V77.9962H40.05C43.1987 77.9962 44.7711 76.4447 44.7711 73.3342V65.1766C44.7711 62.8475 43.9829 61.2922 42.4105 60.5146C43.9829 59.737 44.7711 58.1855 44.7711 55.8526V47.695C44.7711 44.5883 43.1987 43.033 40.05 43.033H32.9685Z" fill="url(#paint2_linear_3_19869)"/>
<path d="M53.8628 50.028C50.7142 50.028 49.1418 51.5832 49.1418 54.69V59.352H51.5023V54.69C51.5023 53.1385 52.2866 52.3609 53.8628 52.3609H56.2233C57.7957 52.3609 58.5838 53.1385 58.5838 54.69V58.2122C58.5838 61.3037 57.4036 62.8513 55.043 62.8513H52.6825V65.1804H55.043C57.4036 65.1804 58.5838 66.7319 58.5838 69.8424V73.338C58.5838 74.8895 57.7957 75.6671 56.2233 75.6671H53.8628C52.2866 75.6671 51.5023 74.8895 51.5023 73.338V69.8424H49.1418V73.338C49.1418 76.4447 50.7142 78 53.8628 78H56.2233C59.3719 78 60.9443 76.4485 60.9443 73.338V68.676C60.9443 66.3469 60.16 64.7916 58.5838 64.014C60.16 63.2363 60.9443 61.6849 60.9443 59.352V54.69C60.9443 51.5832 59.3719 50.028 56.2233 50.028H53.8628Z" fill="url(#paint3_linear_3_19869)"/>
<path d="M68.0602 50.028L66.9752 72.8005C66.9295 74.493 66.149 75.4498 64.6375 75.6671V77.9962C67.7709 77.9962 69.3433 76.3837 69.3585 73.1512L70.3027 52.3571H75.2598V77.9962H77.6203V50.028H68.0564H68.0602Z" fill="url(#paint4_linear_3_19869)"/>
<path d="M83.1217 45.8806C82.7753 46.2237 82.6039 46.6354 82.6039 47.1157C82.6039 47.596 82.7753 48.0305 83.1217 48.3622C83.4644 48.6976 83.8832 48.8653 84.3743 48.8653C84.8654 48.8653 85.2804 48.6976 85.6269 48.3622C85.9734 48.0267 86.1447 47.6112 86.1447 47.1157C86.1447 46.6201 85.9734 46.2237 85.6269 45.8806C85.2804 45.5375 84.8616 45.3698 84.3743 45.3698C83.887 45.3698 83.4682 45.5413 83.1217 45.8806Z" fill="url(#paint5_linear_3_19869)"/>
<path d="M90.2034 45.8806C89.8569 46.2237 89.6856 46.6354 89.6856 47.1157C89.6856 47.596 89.8569 48.0305 90.2034 48.3622C90.5498 48.6976 90.9648 48.8653 91.4559 48.8653C91.9471 48.8653 92.3621 48.6976 92.7085 48.3622C93.055 48.0267 93.2263 47.6112 93.2263 47.1157C93.2263 46.6201 93.055 46.2237 92.7085 45.8806C92.3621 45.5375 91.9433 45.3698 91.4559 45.3698C90.9686 45.3698 90.5498 45.5413 90.2034 45.8806Z" fill="url(#paint6_linear_3_19869)"/>
<path d="M84.3705 54.69C84.3705 53.1385 85.1548 52.3609 86.731 52.3609H89.0915C90.6639 52.3609 91.452 53.1385 91.452 54.69V66.3469C91.452 67.9022 90.6639 68.676 89.0915 68.676H84.3705V54.69ZM86.731 50.028C83.5824 50.028 82.01 51.5832 82.01 54.69V73.338C82.01 76.4447 83.5824 78 86.731 78H92.6361V75.6709H86.731C85.1548 75.6709 84.3705 74.8933 84.3705 73.3418V71.0089H89.0915C92.2363 71.0089 93.8125 69.4536 93.8125 66.3469V54.69C93.8125 51.5832 92.2363 50.028 89.0915 50.028H86.731Z" fill="url(#paint7_linear_3_19869)"/>
<path d="M98.1072 52.3571H102.832V77.9962H105.193V52.3571H109.914V50.028H98.1072V52.3571Z" fill="url(#paint8_linear_3_19869)"/>
<path d="M123.726 62.8475H116.645V50.028H114.284V77.9962H116.645V65.1766H123.726V77.9962H126.091V50.028H123.726V62.8475Z" fill="url(#paint9_linear_3_19869)"/>
<path d="M132.818 73.338V61.6849C132.818 60.1296 133.606 59.352 135.179 59.352H139.9V75.6671H135.179C133.602 75.6671 132.818 74.8895 132.818 73.338ZM131.638 52.3571H137.543C139.115 52.3571 139.903 53.1347 139.903 54.6862V57.0153H135.182C132.034 57.0153 130.461 58.5705 130.461 61.6773V73.3304C130.461 76.4371 132.034 77.9924 135.182 77.9924H142.264V54.6824C142.264 51.5756 140.688 50.0204 137.543 50.0204H131.638V52.3571Z" fill="url(#paint10_linear_3_19869)"/>
<path d="M150.8 58.1856V54.7129C150.8 53.1576 151.588 52.38 153.16 52.38H157.881V62.8247H154.341C151.98 62.8247 150.8 61.2771 150.8 58.1856ZM153.16 50.0509C150.012 50.0509 148.439 51.6062 148.439 54.7129V59.3292C148.439 61.6621 149.224 63.2135 150.8 63.9912C149.224 64.7688 148.439 66.3241 148.439 68.6532V73.3381C148.439 74.8895 147.651 75.6672 146.079 75.6672V77.9963C149.224 77.9963 150.8 76.4448 150.8 73.3342V69.6062C150.846 66.6405 152.03 65.1538 154.341 65.1538H157.881V77.9963H160.242V50.0509H153.16Z" fill="url(#paint11_linear_3_19869)"/>
<path d="M176.964 50.9847L178.802 52.4523L183.455 46.7878V77.9962H185.815V43.033H183.455L176.964 50.9847Z" fill="url(#paint12_linear_3_19869)"/>
<path d="M192.558 73.338V57.019H197.279C198.855 57.019 199.64 57.7967 199.64 59.352V73.338C199.64 74.8894 198.855 75.6671 197.279 75.6671H194.919C193.342 75.6671 192.558 74.8894 192.558 73.338ZM194.919 43.0368C191.774 43.0368 190.197 44.5921 190.197 47.6988V73.338C190.197 76.4447 191.774 78 194.919 78H197.279C200.424 78 202 76.4485 202 73.338V59.352C202 56.2452 200.424 54.6899 197.279 54.6899H192.558V47.6988C192.558 46.1474 193.342 45.3697 194.919 45.3697H200.824V43.0368H194.919Z" fill="url(#paint13_linear_3_19869)"/>
<defs>
<linearGradient id="paint0_linear_3_19869" x1="-6.12578e-06" y1="39" x2="199.037" y2="39" gradientUnits="userSpaceOnUse">
<stop stop-color="#B08D46"/>
<stop offset="0.359375" stop-color="#EAD29E"/>
<stop offset="0.885417" stop-color="#A7833B"/>
</linearGradient>
<linearGradient id="paint1_linear_3_19869" x1="-6.12578e-06" y1="39" x2="199.037" y2="39" gradientUnits="userSpaceOnUse">
<stop stop-color="#B08D46"/>
<stop offset="0.359375" stop-color="#EAD29E"/>
<stop offset="0.885417" stop-color="#A7833B"/>
</linearGradient>
<linearGradient id="paint2_linear_3_19869" x1="-6.12578e-06" y1="39" x2="199.037" y2="39" gradientUnits="userSpaceOnUse">
<stop stop-color="#B08D46"/>
<stop offset="0.359375" stop-color="#EAD29E"/>
<stop offset="0.885417" stop-color="#A7833B"/>
</linearGradient>
<linearGradient id="paint3_linear_3_19869" x1="-6.12578e-06" y1="39" x2="199.037" y2="39" gradientUnits="userSpaceOnUse">
<stop stop-color="#B08D46"/>
<stop offset="0.359375" stop-color="#EAD29E"/>
<stop offset="0.885417" stop-color="#A7833B"/>
</linearGradient>
<linearGradient id="paint4_linear_3_19869" x1="-6.12578e-06" y1="39" x2="199.037" y2="39" gradientUnits="userSpaceOnUse">
<stop stop-color="#B08D46"/>
<stop offset="0.359375" stop-color="#EAD29E"/>
<stop offset="0.885417" stop-color="#A7833B"/>
</linearGradient>
<linearGradient id="paint5_linear_3_19869" x1="-6.12578e-06" y1="39" x2="199.037" y2="39" gradientUnits="userSpaceOnUse">
<stop stop-color="#B08D46"/>
<stop offset="0.359375" stop-color="#EAD29E"/>
<stop offset="0.885417" stop-color="#A7833B"/>
</linearGradient>
<linearGradient id="paint6_linear_3_19869" x1="-6.12578e-06" y1="39" x2="199.037" y2="39" gradientUnits="userSpaceOnUse">
<stop stop-color="#B08D46"/>
<stop offset="0.359375" stop-color="#EAD29E"/>
<stop offset="0.885417" stop-color="#A7833B"/>
</linearGradient>
<linearGradient id="paint7_linear_3_19869" x1="-6.12578e-06" y1="39" x2="199.037" y2="39" gradientUnits="userSpaceOnUse">
<stop stop-color="#B08D46"/>
<stop offset="0.359375" stop-color="#EAD29E"/>
<stop offset="0.885417" stop-color="#A7833B"/>
</linearGradient>
<linearGradient id="paint8_linear_3_19869" x1="-6.12578e-06" y1="39" x2="199.037" y2="39" gradientUnits="userSpaceOnUse">
<stop stop-color="#B08D46"/>
<stop offset="0.359375" stop-color="#EAD29E"/>
<stop offset="0.885417" stop-color="#A7833B"/>
</linearGradient>
<linearGradient id="paint9_linear_3_19869" x1="-6.12578e-06" y1="39" x2="199.037" y2="39" gradientUnits="userSpaceOnUse">
<stop stop-color="#B08D46"/>
<stop offset="0.359375" stop-color="#EAD29E"/>
<stop offset="0.885417" stop-color="#A7833B"/>
</linearGradient>
<linearGradient id="paint10_linear_3_19869" x1="-6.12578e-06" y1="39" x2="199.037" y2="39" gradientUnits="userSpaceOnUse">
<stop stop-color="#B08D46"/>
<stop offset="0.359375" stop-color="#EAD29E"/>
<stop offset="0.885417" stop-color="#A7833B"/>
</linearGradient>
<linearGradient id="paint11_linear_3_19869" x1="-6.12578e-06" y1="39" x2="199.037" y2="39" gradientUnits="userSpaceOnUse">
<stop stop-color="#B08D46"/>
<stop offset="0.359375" stop-color="#EAD29E"/>
<stop offset="0.885417" stop-color="#A7833B"/>
</linearGradient>
<linearGradient id="paint12_linear_3_19869" x1="-6.12578e-06" y1="39" x2="199.037" y2="39" gradientUnits="userSpaceOnUse">
<stop stop-color="#B08D46"/>
<stop offset="0.359375" stop-color="#EAD29E"/>
<stop offset="0.885417" stop-color="#A7833B"/>
</linearGradient>
<linearGradient id="paint13_linear_3_19869" x1="-6.12578e-06" y1="39" x2="199.037" y2="39" gradientUnits="userSpaceOnUse">
<stop stop-color="#B08D46"/>
<stop offset="0.359375" stop-color="#EAD29E"/>
<stop offset="0.885417" stop-color="#A7833B"/>
</linearGradient>
</defs>
</svg>
