<svg width="519" height="184" viewBox="0 0 519 184" fill="none" xmlns="http://www.w3.org/2000/svg">
<path d="M82.1744 30.8566C81.9446 32.2189 78.2142 34.4835 71.001 37.6503C64.8662 40.2864 60.6761 41.6664 58.4131 41.7549C57.759 41.8079 57.1402 41.5956 56.5745 41.118C56.0087 40.6403 55.8143 40.1095 56.0087 39.4903C56.2032 38.7826 56.9104 37.4911 58.1303 35.5981C59.8275 32.962 60.906 31.2281 61.3833 30.432C62.0021 29.2997 63.0982 27.4598 64.707 24.9121L67.7479 19.9584L60.8176 24.4875C55.7259 27.8313 52.3314 30.2374 50.6341 31.7058C42.3424 39.0657 40.6088 42.8872 39.0364 42.8872C37.569 42.551 36.8618 42.091 36.9148 41.4718C36.9679 40.8172 39.9734 36.465 45.9668 28.4505C50.8286 21.8868 54.1877 16.703 56.0794 12.8816C57.4408 10.1924 58.1833 8.58242 58.2717 8.06935L34.0861 26.1859C19.0408 37.4203 9.52926 42.9402 5.51601 42.7456C1.83867 42.5156 0 40.8172 0 37.6503C0 36.748 0.441988 35.4742 1.34364 33.8289C2.2453 32.0774 3.0232 31.1397 3.67734 30.9981C4.61436 30.8035 5.14474 31.2812 5.23314 32.4135C5.28618 32.9266 5.02098 33.6166 4.45524 34.4658C3.83646 35.3681 3.5359 35.8988 3.5359 36.0934C3.5359 38.4465 4.33148 39.6318 5.94032 39.6318C10.3248 39.6318 18.5812 34.9612 30.6916 25.6198L51.7656 9.48471C59.7745 3.06252 64.4949 -0.0866473 65.9093 0.00181261C67.1822 0.0902725 67.6949 0.567956 67.4651 1.41717C67.3236 1.89485 66.6341 2.8856 65.4142 4.38942C63.9468 6.22939 62.8507 7.83936 62.0905 9.20164C61.6662 9.90932 60.906 11.3247 59.8275 13.4477C58.696 15.6592 57.7944 17.3223 57.1402 18.4015C56.433 19.5868 55.3546 21.2853 53.8872 23.4968L51.3413 27.3182C52.4198 26.7521 55.3546 24.9652 60.1104 21.9399C62.7093 20.2945 65.5733 18.3484 68.738 16.1369C69.3037 15.5707 70.0639 14.7215 71.001 13.5892L73.4054 10.9001C76.0396 7.98089 77.7369 6.51246 78.4971 6.51246C79.2043 6.51246 79.7877 6.77784 80.265 7.29091C80.7777 7.80397 80.9899 8.4055 80.9015 9.0601C80.265 10.39 79.77 10.1039 77.507 13.0231L74.254 16.5615C72.6452 18.313 71.4783 19.8699 70.7181 21.2322C69.9579 22.7006 68.0308 25.8498 64.9192 30.7151C62.3203 34.7665 61.012 37.0311 60.959 37.5088C60.959 37.9865 61.1535 38.2695 61.5247 38.358C62.285 38.4995 65.3435 37.4203 70.7181 35.1027C72.2208 34.4481 74.3424 33.2804 77.0827 31.6351C79.3987 30.2728 80.6717 29.5828 80.9015 29.5828C81.8915 29.5828 82.3159 30.0074 82.1744 30.8566ZM130.404 30.9981C130.404 32.4135 126.78 35.1027 119.514 39.0657C114.652 41.7018 110.691 43.0287 107.633 43.0287C106.077 43.0287 104.857 42.4625 103.956 41.3303C103.195 40.3395 102.877 39.2603 102.966 38.0749C103.107 36.5711 103.39 35.3858 103.814 34.5365C102.966 34.7312 102.064 34.8196 101.127 34.8196L96.8838 35.6688C95.5225 37.4203 94.1965 38.7295 92.9236 39.6318C90.5722 41.2772 88.2562 42.1264 85.9932 42.1795C84.7733 42.2326 83.7833 41.8256 83.023 40.9764C82.3689 40.2687 82.033 39.4372 82.033 38.4995C82.033 37.7034 83.9601 35.1558 87.8319 30.8566C87.602 30.9982 87.1954 31.1928 86.6297 31.4228C86.0639 31.6174 85.6219 31.7943 85.286 31.9889C83.3059 33.1743 82.2275 33.7404 82.033 33.6873C81.096 33.4573 80.707 32.8912 80.9015 31.9889C80.9899 31.6528 82.033 30.9274 84.0131 29.7951C86.4175 28.3797 87.8849 27.4598 88.3976 27.0351C93.6307 23.1606 93.9663 21.7983 95.328 21.3737C95.8053 21.3206 96.2296 21.4622 96.6009 21.7983C96.9722 22.1345 97.1666 22.506 97.1666 22.9306C97.1666 24.2929 96.4595 25.8498 95.0451 27.6013L93.4893 29.8659C94.2495 29.9543 95.0982 30.2905 96.0352 30.8566C96.7954 31.2812 97.4495 31.8474 98.0153 32.555L101.41 32.1304C103.301 32.042 104.521 31.9004 105.087 31.7058C105.458 31.4758 106.095 30.9274 106.996 30.0782L109.189 28.0259C110.515 26.8936 111.505 26.3275 112.159 26.3275C112.672 26.2744 113.131 26.469 113.503 26.8936C113.838 27.2298 113.998 27.5482 113.998 27.8844C113.503 28.9827 112.53 29.1051 109.613 32.555C107.438 35.1911 106.36 36.9427 106.36 37.7919C106.36 39.4372 107.067 40.2511 108.482 40.198C110.409 40.1095 113.379 39.1188 117.392 37.2257C119.178 36.4296 121.688 34.8904 124.888 32.6258C127.575 30.7858 129.078 29.8659 129.414 29.8659C130.068 29.9189 130.404 30.2905 130.404 30.9981ZM93.3479 34.395C93.3479 33.9173 93.012 33.5458 92.3578 33.2627C91.0849 32.6966 90.5722 32.502 90.802 32.6966C90.5192 32.9797 89.9004 33.4927 88.9634 34.2535C86.7534 36.0934 85.6573 37.4203 85.7103 38.2165C85.7634 38.7295 86.223 39.0657 87.1247 39.2072C88.2031 39.2957 89.4761 38.7826 90.9435 37.6503C92.5523 36.4296 93.3479 35.3327 93.3479 34.395Z" fill="url(#paint0_linear_123_21833)"/>
<path d="M113.361 83.6046C113.272 84.8254 109.737 87.0545 102.753 90.2568C96.8658 92.8929 92.4813 94.1667 89.5995 94.0783C88.1321 94.0252 86.8946 93.5829 85.8515 92.7337C84.72 91.796 84.0835 90.5399 83.9421 88.983C83.7123 86.2053 85.215 82.8085 88.468 78.7924C92.6227 73.7502 96.4415 71.2025 99.9244 71.1495C101.197 71.0964 102.187 71.7333 102.895 73.0602C103.549 74.1925 103.867 75.5371 103.814 77.094C103.761 78.3678 103.39 79.6593 102.682 80.9862C101.922 82.4016 101.197 83.0915 100.49 83.0385C99.7299 82.95 99.4117 82.4193 99.5001 81.4816C99.5618 80.8268 99.836 80.7916 100.49 79.1462C101.056 77.8724 101.197 76.8109 100.914 75.9617C100.49 74.4933 100.066 73.7856 99.6415 73.8386C96.4769 74.1748 93.4714 76.3863 90.5896 80.4908C88.3266 83.7992 87.1421 86.3823 87.0537 88.2753C86.9653 90.7345 87.9023 91.8137 89.8824 91.5306C92.6581 91.1591 96.3354 90.0268 100.914 88.1338C102.7 87.4261 105.087 86.2053 108.057 84.4538C110.691 82.8969 112.141 82.1008 112.371 82.0477C113.131 81.9062 113.449 82.4193 113.361 83.6046ZM136.627 81.2693C136.627 83.9054 134.771 86.7361 131.04 89.7614C127.646 92.5391 123.915 93.8837 119.867 93.7952C117.516 93.7421 115.695 93.0344 114.422 91.6722C113.343 90.4868 112.848 89.0714 112.937 87.4261C113.025 84.79 114.156 82.8262 116.331 81.5523C116.702 81.3223 117.462 81.1985 118.594 81.1985C118.877 81.0039 119.283 80.6324 119.796 80.0662C120.362 79.5001 120.786 79.1285 121.069 78.9339C124.799 76.7224 127.84 75.6078 130.192 75.6078C132.119 75.6078 133.675 76.1563 134.859 77.2355C136.044 78.2793 136.627 79.6239 136.627 81.2693ZM133.94 80.8447C133.94 79.2878 132.791 78.4563 130.475 78.3678C127.982 78.2793 125.595 79.1639 123.332 81.057C122.996 81.287 122.554 81.8354 121.988 82.6846C121.511 83.3923 121.016 83.8169 120.503 83.9585C120.22 84.0115 119.92 84.0115 119.584 83.9585H118.665C117.869 84.0469 117.127 84.6131 116.472 85.6569C115.995 86.5061 115.765 87.1607 115.765 87.6384C115.765 88.5761 116.243 89.4253 117.18 90.186C118.17 90.8937 119.301 91.2476 120.574 91.2476C122.978 91.2476 125.719 90.2391 128.777 88.2045C132.225 85.8869 133.94 83.4454 133.94 80.8447ZM167.672 82.7554C167.584 83.5515 164.844 85.8161 159.469 89.5491C157.012 91.2475 155.314 92.4683 154.377 93.229C154.289 93.459 153.458 96.2721 151.902 101.65C150.718 105.755 149.71 108.886 148.861 111.063C147.164 115.397 144.707 119.042 141.507 121.961C136.928 126.065 132.543 127.994 128.353 127.764C126.285 127.675 124.517 126.968 123.049 125.641C121.582 124.225 120.875 122.527 120.928 120.545C120.981 116.636 126.231 110.549 136.698 102.287C138.018 101.245 140.994 99.4566 151.407 92.3798C152.344 90.9645 152.822 89.4607 152.822 87.8507C152.822 85.3915 151.407 84.1708 148.578 84.1708C148.296 84.1708 147.889 84.33 147.376 84.6661C146.952 85.0023 146.598 85.1084 146.315 85.02C145.467 84.6838 145.096 84.2238 145.184 83.6046C145.293 82.8379 146.97 81.6762 150.7 77.2355C153.016 74.4579 154.183 72.901 154.236 72.5648C154.289 71.9102 153.9 71.5741 153.104 71.5741C152.026 71.5741 150.329 71.9987 148.013 72.8479C147.394 73.0779 146.545 73.5733 145.467 74.334C144.671 74.9532 144.141 75.2009 143.911 75.1125C143.151 74.8825 142.78 74.4579 142.78 73.8386C142.78 72.901 144.388 71.7687 147.588 70.4418C149.568 69.6457 152.203 69.168 155.509 69.0264C156.693 68.9734 157.347 69.6457 157.489 71.0079C157.577 71.9456 156.446 73.9271 154.094 76.9524L150.559 81.4816C153.617 82.1362 155.279 83.6577 155.509 86.0107C155.562 86.6653 155.509 87.6561 155.367 88.983C155.703 88.983 157.542 87.7976 160.883 85.4446C164.419 82.8969 166.399 81.6231 166.824 81.6231C167.389 81.6231 167.672 81.9947 167.672 82.7554ZM150.983 95.6352C150.788 95.7767 149.091 96.8382 145.891 98.8197C143.009 100.66 140.711 102.287 138.961 103.703C133.498 108.232 129.997 111.257 128.494 112.761C125.1 116.246 123.491 119.13 123.686 121.395C123.774 122.58 124.393 123.535 125.524 124.296C126.461 124.915 127.557 125.269 128.777 125.358C131.606 125.552 135.089 123.942 139.244 120.545C142.267 118.086 144.848 114.123 147.023 108.656C148.101 105.879 149.427 101.527 150.983 95.6352ZM204.446 59.7558C204.446 66.7795 201.334 74.3163 195.111 82.3308C188.835 90.5399 183.513 94.6444 179.129 94.6444C177.29 94.6444 176.035 94.3613 175.381 93.7952C174.673 93.229 174.267 92.1498 174.178 90.5399C174.037 88.4699 176.441 85.1084 181.392 80.4908C184.415 77.6601 186.996 76.2978 189.171 76.3863C189.224 76.3863 190.726 77.2355 193.697 78.9339C198.877 73.414 201.476 67.2395 201.476 60.3928C201.476 56.0582 199.566 53.1921 195.747 51.8298C193.909 51.2106 190.921 50.9099 186.766 50.9099C177.007 50.9099 166.877 52.5552 156.357 55.8636C151.602 57.3674 145.909 59.6674 139.314 62.7281L130.616 66.7619C130.05 66.7619 129.767 66.4788 129.767 65.9126C129.82 65.0104 132.897 63.135 139.031 60.2512C144.919 57.509 150.223 55.3859 154.943 53.8821C166.311 50.2022 176.671 48.3622 186.059 48.3622C191.911 48.3622 196.225 49.0168 199 50.3437C202.625 52.0952 204.446 55.2267 204.446 59.7558ZM190.726 82.1893C190.355 81.057 189.683 80.2962 188.746 79.9247C188.092 79.6947 187.031 79.9778 185.564 80.7739C184.15 81.5347 182.947 82.4723 181.957 83.6046C178.934 87.0015 177.343 89.3545 177.149 90.6814C177.06 91.1591 177.714 91.5837 179.129 91.9552C180.402 92.3268 182.894 90.876 186.625 87.5676C188.799 85.5861 190.161 83.7992 190.726 82.1893ZM247.937 83.0385C247.937 83.3746 244.525 85.8161 237.683 90.3983C232.786 93.7067 228.702 95.3521 225.449 95.3521C223.098 95.3521 221.63 94.3083 221.064 92.2383C220.782 91.1591 220.764 89.8853 220.994 88.4168C219.014 89.7437 217.175 90.8229 215.478 91.6722C212.561 93.176 210.085 93.9367 208.052 93.9367C205.224 93.9367 203.809 92.4683 203.809 89.5491C203.809 87.0899 205.948 83.5869 210.245 79.0047C214.859 73.9094 218.183 71.3795 220.216 71.4325C222.567 71.521 224.547 72.6533 226.156 74.8294C226.58 75.3955 227.075 76.5986 227.641 78.4386C229.674 77.2178 229.452 76.558 229.975 76.5278C231.442 76.6163 232.096 77.1824 231.955 78.2263C231.814 79.0755 230.753 80.5616 228.773 82.6846C227.27 84.4361 226.085 85.6569 225.237 86.3646C224.194 88.8238 223.699 90.2568 223.752 90.6814C223.893 91.9022 224.6 92.5214 225.873 92.5214C227.853 92.5214 231.266 91.106 236.127 88.2753C243.995 83.6931 246.934 81.4796 246.947 81.4816C247.601 81.4285 247.937 81.9593 247.937 83.0385ZM224.883 78.7924C224.883 78.0316 224.406 77.094 223.469 75.9617C222.479 74.7763 221.542 74.2102 220.64 74.2633C218.943 74.3517 216.061 76.6163 212.013 81.057C208.247 85.25 206.443 88.0807 206.638 89.5491C206.779 90.5399 207.487 91.106 208.76 91.2476C209.697 91.336 211.659 90.5929 214.629 88.983C219.438 86.4884 222.815 83.9585 224.742 81.4108L224.883 78.7924ZM270.496 82.1893C270.443 82.7023 267.296 85.1615 261.02 89.5491C257.201 92.1852 253.895 93.7067 251.12 94.0783C250.13 94.2198 249.122 93.8483 248.079 92.946C247 92.0968 246.452 91.1591 246.452 90.1153C246.452 86.8069 248.096 82.8969 251.403 78.3678C253.807 75.0594 255.982 73.414 257.909 73.414C258.899 73.414 259.8 73.9625 260.596 75.0417C261.303 76.0855 261.639 77.147 261.586 78.2263C261.498 80.827 259.606 83.1269 255.928 85.1615C254.373 86.0107 252.34 86.7715 249.847 87.4261C249.475 88.1338 249.281 88.9299 249.281 89.8322C249.281 90.6283 250.041 91.106 251.544 91.2476C252.481 91.3006 254.885 90.2037 258.757 87.9922C266.536 83.4631 268.787 81.4796 269.506 81.1985C270.214 81.1985 270.549 81.5347 270.496 82.1893ZM258.757 78.0847C258.757 77.0409 258.333 76.5278 257.484 76.5278C256.406 76.5278 255.168 77.6601 253.807 79.9247L251.12 84.4538C253.33 84.0823 255.08 83.2685 256.353 82.0477C257.962 80.5439 258.757 79.217 258.757 78.0847ZM337.042 82.0477C337.095 82.95 333.931 85.1615 327.566 88.6999C323.694 90.8229 320.582 91.8668 318.231 91.8137C314.076 91.6722 312.008 90.1683 312.008 87.2846C312.008 86.0107 312.521 84.4008 313.564 82.4723C313.9 81.8177 314.465 80.9331 315.261 79.8539C316.057 78.7747 316.534 78.0847 316.675 77.8017C314.554 78.4209 311.106 80.2077 306.35 83.18C301.913 85.8692 298.996 87.7092 297.581 88.6999C294.328 90.9645 293.371 92.0968 292.773 92.0968C292.118 92.0083 291.783 91.7252 291.783 91.2476C291.836 90.876 292.118 90.1153 292.631 88.983C293.25 87.6561 293.621 86.8069 293.763 86.4353C294.24 85.02 294.47 83.7992 294.47 82.7554C293.904 83.0916 292.755 83.8346 291.005 85.02C289.025 86.3469 287.486 87.3376 286.408 87.9922C279.99 91.8668 275.712 93.7952 273.537 93.7952C272.035 93.7952 270.797 93.3706 269.86 92.5214C268.817 91.5837 268.304 90.3099 268.304 88.6999C268.304 87.8507 269.011 86.4884 270.426 84.5954C271.928 82.5608 273.166 81.57 274.103 81.6231C274.863 81.6231 275.288 82.0477 275.376 82.8969C275.429 83.3746 275.146 83.8346 274.527 84.3123C273.732 84.8784 273.254 85.303 273.113 85.5861C272.176 87.1961 271.646 88.4699 271.557 89.4076C271.504 89.8322 271.699 90.2568 272.123 90.6814C272.547 91.0529 272.972 91.2476 273.396 91.2476C274.58 91.2476 278.541 89.3545 285.276 85.5861C288.194 83.9408 291.128 81.9593 294.046 79.6416C297.917 76.6694 298.68 75.1125 299.42 75.1125C300.499 75.2009 301.029 75.6255 300.976 76.3863C301.02 76.558 300.499 77.7132 299.562 80.9154L298.854 84.0292C301.63 82.7554 304.706 81.11 308.048 79.0755C314.041 75.6255 318.178 73.9802 320.494 74.1217C321.484 74.2102 321.961 74.5994 321.908 75.254C321.78 75.4643 321.201 76.2448 319.787 78.3678C319.504 78.8455 318.956 79.5885 318.16 80.6324C317.542 81.4816 317.047 82.2777 316.675 83.0385C315.738 84.8784 315.208 86.2407 315.12 87.143C315.031 88.2753 316.057 88.9299 318.231 89.1245C319.928 89.266 322.421 88.5053 325.727 86.8599C327.23 86.0992 329.405 84.8254 332.233 83.0385C334.549 81.6231 335.822 80.9154 336.052 80.9154C336.671 80.9154 336.989 81.287 337.042 82.0477Z" fill="url(#paint1_linear_123_21833)"/>
<path d="M239.805 130.641C239.858 131.402 238.55 132.782 235.916 134.816C233.228 136.851 230.806 138.337 228.632 139.275C225.52 140.602 222.78 141.256 220.428 141.256C217.794 141.256 215.814 140.212 214.488 138.142C214.258 137.806 213.94 137.276 213.569 136.515C213.144 135.577 212.844 134.94 212.649 134.604C212.313 134.887 211.642 135.4 210.598 136.161C209.661 136.816 208.884 137.435 208.265 138.001C208.035 138.195 207.257 139.133 205.931 140.832C204.8 142.247 204.022 142.955 203.597 142.955C202.554 142.955 201.953 142.618 201.759 141.964C201.706 141.822 203.686 139.416 207.699 134.746C211.376 130.553 213.215 127.863 213.215 126.678C213.215 125.882 212.791 125.404 211.942 125.263C211.182 125.174 208.601 126.342 204.163 128.801C203.173 129.314 201.193 130.623 198.223 132.693C195.907 134.339 194.598 135.117 194.263 135.029C193.043 134.799 192.512 134.374 192.707 133.755C192.795 133.419 194.174 132.339 196.808 130.499C199.407 128.713 201.281 127.527 202.466 126.961C207.787 124.272 211.093 122.857 212.366 122.715C213.268 122.627 214.117 122.839 214.912 123.352C215.761 123.865 216.185 124.502 216.185 125.263C216.185 126.059 215.955 127.05 215.478 128.235C215.001 129.456 214.771 130.358 214.771 130.924C214.541 130.924 216.751 129.597 221.418 126.961C226.51 123.989 229.18 122.52 229.409 122.574C229.922 122.662 230.187 123.087 230.187 123.847C230.187 123.989 227.977 125.546 223.54 128.518L220.004 130.924C218.501 132.003 217.175 132.906 216.044 133.613C215.902 133.808 215.955 134.409 216.185 135.453C216.274 136.072 216.698 136.745 217.458 137.506C218.448 138.443 219.527 138.903 220.711 138.85C223.027 138.762 225.184 138.231 227.217 137.293C228.773 136.532 231.177 135.046 234.43 132.835C237.259 130.906 238.815 129.933 239.098 129.933C239.469 129.933 239.717 130.163 239.805 130.641ZM262.364 130.004C262.364 132.64 260.508 135.471 256.777 138.496C253.383 141.274 249.652 142.618 245.604 142.53C243.253 142.477 241.432 141.769 240.159 140.407C239.08 139.222 238.585 137.806 238.674 136.161C238.762 133.525 239.893 131.561 242.068 130.287C242.439 130.057 243.199 129.933 244.331 129.933C244.614 129.739 245.02 129.367 245.533 128.801C246.099 128.235 246.523 127.863 246.806 127.669C250.536 125.457 253.577 124.343 255.929 124.343C257.856 124.343 259.412 124.891 260.596 125.97C261.781 127.014 262.364 128.359 262.364 130.004ZM259.677 129.58C259.677 128.023 258.528 127.191 256.212 127.103C253.719 127.014 251.332 127.899 249.069 129.792C248.733 130.022 248.291 130.57 247.725 131.419C247.248 132.127 246.753 132.552 246.24 132.693C245.957 132.746 245.657 132.746 245.321 132.693H244.402C243.606 132.782 242.864 133.348 242.209 134.392C241.732 135.241 241.502 135.896 241.502 136.373C241.502 137.311 241.98 138.16 242.917 138.921C243.907 139.629 245.038 139.982 246.311 139.982C248.716 139.982 251.456 138.974 254.514 136.939C257.962 134.622 259.677 132.18 259.677 129.58ZM334.779 130.783C334.832 131.685 331.668 133.896 325.303 137.435C321.431 139.558 318.32 140.602 315.968 140.549C311.814 140.407 309.745 138.903 309.745 136.019C309.745 134.746 310.258 133.136 311.301 131.207C311.637 130.553 312.203 129.668 312.998 128.589C313.794 127.51 314.271 126.82 314.413 126.536C312.291 127.156 308.844 128.943 304.088 131.915C299.65 134.604 296.733 136.444 295.319 137.435C292.066 139.699 291.164 140.92 290.51 140.832C289.856 140.743 289.52 140.46 289.52 139.982C289.573 139.611 289.856 138.85 290.368 137.718C290.987 136.391 291.358 135.542 291.5 135.17C291.977 133.755 292.207 132.534 292.207 131.49C291.641 131.826 290.492 132.569 288.742 133.755C286.762 135.082 285.224 136.072 284.145 136.727C277.728 140.602 273.449 142.53 271.275 142.53C269.772 142.53 268.534 142.105 267.597 141.256C266.554 140.319 266.041 139.045 266.041 137.435C266.041 136.586 266.749 135.223 268.163 133.33C269.666 131.296 270.903 130.305 271.84 130.358C272.601 130.358 273.025 130.783 273.113 131.632C273.166 132.109 272.883 132.569 272.265 133.047C271.469 133.613 270.992 134.038 270.85 134.321C269.913 135.931 269.383 137.205 269.294 138.142C269.241 138.567 269.436 138.992 269.86 139.416C270.285 139.788 270.709 139.982 271.133 139.982C272.318 139.982 276.278 138.089 283.014 134.321C285.931 132.676 288.866 130.694 291.783 128.376C295.655 125.404 296.649 124.133 297.157 123.847C298.236 123.936 298.766 124.36 298.713 125.121C298.691 125.438 298.236 126.448 297.299 129.65L296.592 132.764C299.367 131.49 302.444 129.845 305.785 127.81C311.778 124.36 315.915 122.715 318.231 122.857C319.221 122.945 319.699 123.334 319.646 123.989C319.595 124.133 318.939 124.98 317.524 127.103C317.241 127.58 316.693 128.323 315.898 129.367C315.279 130.216 314.784 131.013 314.413 131.773C313.476 133.613 312.945 134.976 312.857 135.878C312.768 137.01 313.794 137.665 315.968 137.859C317.666 138.001 320.158 137.24 323.465 135.595C324.967 134.834 327.142 133.56 329.971 131.773C332.287 130.358 333.56 129.65 333.789 129.65C334.408 129.65 334.726 130.022 334.779 130.783ZM374.877 127.952C375.071 129.986 372.808 132.817 368.088 136.444C362.66 140.549 359.372 142.53 358.187 142.388C356.914 142.194 356.26 141.769 356.207 141.115C356.207 140.92 357.144 138.709 359.036 134.462C356.578 134.462 354.368 134.887 352.388 135.736L344.892 143.804C343.195 145.697 340.861 147.82 337.891 150.173C334.691 152.721 332.676 153.906 331.88 153.711C331.261 153.57 330.961 153.198 330.961 152.579L342.346 142.247C343.902 140.779 345.405 138.85 346.872 136.444C347.862 134.657 348.375 133.56 348.428 133.189C342.258 136.674 338.298 138.372 336.547 138.284C335.84 138.231 335.274 137.859 334.85 137.152C334.479 136.497 334.337 135.736 334.426 134.887C334.709 131.72 336.176 128.713 338.81 125.829C342.346 121.954 345.953 120.026 349.63 120.026C351.699 120.026 353.325 122.06 354.51 126.112C357.144 122.379 360.114 118.61 363.42 114.789C369.025 108.367 372.136 105.112 372.755 105.023C373.604 104.882 374.028 105.253 374.028 106.155L365.825 116.346C360.538 122.857 357.109 127.191 355.5 129.367C355.022 131.119 354.881 132.216 355.075 132.693C355.694 132.322 356.543 131.703 357.621 130.853C358.558 130.146 359.513 129.509 360.45 128.943C365.029 126.059 368.6 124.608 371.199 124.555C373.462 124.502 374.682 125.634 374.877 127.952ZM351.822 126.961C351.451 124.272 350.461 122.945 348.852 122.998C345.935 123.087 343.053 124.927 340.225 128.518C338.474 130.783 337.52 132.764 337.325 134.462C337.237 134.94 337.449 135.223 337.962 135.312C338.298 135.365 340.79 134.179 345.458 131.773C346.359 131.296 347.456 130.499 348.782 129.367C350.479 128.005 351.487 127.191 351.822 126.961ZM372.048 128.376C372.101 127.722 371.677 127.333 370.775 127.244C368.936 127.103 367.009 127.757 364.976 129.226C363.615 130.269 362.713 131.013 362.289 131.49C362.908 132.198 363.226 132.764 363.279 133.189C363.332 133.613 363.049 134.445 362.43 135.666C361.723 136.939 361.352 137.806 361.299 138.284C365.772 134.976 368.088 133.242 368.229 133.047C370.722 130.553 371.995 128.996 372.048 128.376ZM447.433 130.783C447.38 131.773 444.976 133.843 440.22 137.01C434.651 140.637 430.461 142.477 427.632 142.53C426.784 142.53 426.076 142.123 425.511 141.327C424.998 140.619 424.75 139.788 424.804 138.85C424.892 137.576 426.306 135.4 429.047 132.339C431.31 129.703 432.494 128.235 432.583 127.952C431.787 128.43 430.655 128.943 429.188 129.509C427.261 130.305 425.935 130.871 425.228 131.207C421.639 133.189 417.679 134.94 413.347 136.444C400.759 150.544 393.493 158.612 391.566 160.647C376.715 176.216 370.156 184 369.502 184C368.848 184 368.459 183.77 368.37 183.292C368.37 183.151 375.584 174.942 390.01 158.665L396.021 152.084C398.196 149.678 400.423 147.148 402.74 144.512C408.591 137.859 412.834 132.959 415.469 129.792L412.781 131.207C409.723 132.959 409.737 133.976 408.821 133.896C408.344 133.843 407.884 133.419 407.407 132.623C407.071 131.968 409.387 130.27 414.337 127.527C415.416 126.961 416.618 126.236 417.944 125.333C419.305 124.431 420.331 123.794 420.985 123.423C422.629 122.06 423.831 121.459 424.591 121.653C425.299 121.795 425.652 122.149 425.652 122.715C425.58 123.04 424.432 123.989 421.975 126.82C419.712 129.367 418.297 131.013 417.732 131.773C419.517 131.349 422.488 130.075 426.642 127.952C431.539 125.316 434.987 123.989 436.967 123.989C437.533 123.989 437.763 124.467 437.674 125.404C437.48 126.731 435.747 129.031 432.441 132.339C429.188 135.736 427.579 137.912 427.632 138.85C427.721 139.611 428.057 139.982 428.622 139.982C430.408 139.982 433.855 138.337 438.947 135.029C443.809 131.826 446.249 130.216 446.302 130.216C447.062 130.128 447.433 130.305 447.433 130.783ZM401.891 130.004C401.891 132.64 400.035 135.471 396.304 138.496C392.91 141.274 389.179 142.618 385.131 142.53C382.779 142.477 380.958 141.769 379.685 140.407C378.607 139.222 378.112 137.806 378.2 136.161C378.289 133.525 379.42 131.561 381.595 130.287C381.966 130.057 382.726 129.933 383.858 129.933C384.141 129.739 384.547 129.367 385.06 128.801C385.626 128.235 386.05 127.863 386.333 127.669C390.063 125.457 393.104 124.343 395.456 124.343C397.383 124.343 398.938 124.891 400.123 125.97C401.307 127.014 401.891 128.359 401.891 130.004ZM399.204 129.58C399.204 128.023 398.054 127.191 395.738 127.103C393.246 127.014 390.859 127.899 388.596 129.792C388.26 130.022 387.818 130.57 387.252 131.419C386.775 132.127 386.28 132.552 385.767 132.693C385.484 132.746 385.184 132.746 384.848 132.693H383.928C383.133 132.782 382.39 133.348 381.736 134.392C381.259 135.241 381.029 135.896 381.029 136.373C381.029 137.311 381.506 138.16 382.443 138.921C383.433 139.629 384.565 139.982 385.838 139.982C388.242 139.982 390.983 138.974 394.041 136.939C397.489 134.622 399.204 132.18 399.204 129.58ZM519 130.641C518.912 132.109 515.04 135.117 507.402 139.699C502.788 142.442 498.722 143.945 495.239 144.228C494.196 144.317 493.259 143.928 492.41 143.025C491.561 142.123 491.137 141.026 491.137 139.699C491.137 138.85 492.074 136.586 493.966 132.906C494.249 132.286 494.956 131.207 496.087 129.65C496.989 128.465 497.413 127.669 497.36 127.244C497.307 126.59 496.848 126.2 495.946 126.112C494.62 126.023 490.943 127.899 484.914 131.773C484.012 132.623 482.739 134.126 481.095 136.302C479.628 138.195 478.496 139.133 477.701 139.133C476.711 139.133 476.092 138.567 475.862 137.435C475.809 137.24 477.223 135.648 480.105 132.623C482.174 130.499 483.217 128.642 483.217 127.032C483.217 125.953 482.598 125.404 481.378 125.404C479.875 125.404 478.072 125.776 476.003 126.536C471.99 128.04 468.843 129.739 466.527 131.632C465.449 132.534 464.317 133.613 463.133 134.887C461.665 136.497 460.675 137.523 460.163 138.001C457.847 140.035 456.432 141.026 455.92 140.973C455.071 140.832 454.594 140.212 454.505 139.133C454.452 138.62 455.584 137.152 457.9 134.746C460.675 131.862 462.054 130.075 462.001 129.367C461.913 128.323 461.382 127.81 460.445 127.81C459.226 127.81 456.963 128.606 453.656 130.216C452.808 130.588 451.482 131.473 449.696 132.835C448.229 133.914 447.345 134.409 447.009 134.321C445.931 134.038 445.4 133.613 445.453 133.047C445.595 131.862 447.999 130.022 452.666 127.527C455.212 126.165 458.236 125.316 461.718 124.98C462.567 124.891 463.398 125.316 464.193 126.253C464.848 127.103 465.254 127.952 465.396 128.801C466.58 127.899 469.091 126.678 472.963 125.121C477.064 123.423 479.875 122.574 481.378 122.574C483.871 122.574 485.391 123.706 485.904 125.97C486.098 126.678 486.187 127.333 486.187 127.952C486.806 127.757 488.609 126.837 491.632 125.192C494.178 123.865 495.893 123.228 496.795 123.281C499.146 123.423 500.383 124.467 500.472 126.395C500.485 126.687 499.287 128.465 496.936 133.189C494.956 137.24 493.966 139.363 493.966 139.558C493.966 140.885 494.479 141.539 495.522 141.539C497.696 141.539 501.267 140.177 506.271 137.435C507.827 136.586 510.319 134.887 513.767 132.339C516.366 130.446 517.922 129.562 518.434 129.65C518.805 129.739 519 130.075 519 130.641Z" fill="url(#paint2_linear_123_21833)"/>
<path d="M82.1744 30.8566C81.9446 32.2189 78.2142 34.4835 71.001 37.6503C64.8662 40.2864 60.6761 41.6664 58.4131 41.7549C57.759 41.8079 57.1402 41.5956 56.5745 41.118C56.0087 40.6403 55.8143 40.1095 56.0087 39.4903C56.2032 38.7826 56.9104 37.4911 58.1303 35.5981C59.8275 32.962 60.906 31.2281 61.3833 30.432C62.0021 29.2997 63.0982 27.4598 64.707 24.9121L67.7479 19.9584L60.8176 24.4875C55.7259 27.8313 52.3314 30.2374 50.6341 31.7058C42.3424 39.0657 40.6088 42.8872 39.0364 42.8872C37.569 42.551 36.8618 42.091 36.9148 41.4718C36.9679 40.8172 39.9734 36.465 45.9668 28.4505C50.8286 21.8868 54.1877 16.703 56.0794 12.8816C57.4408 10.1924 58.1833 8.58242 58.2717 8.06935L34.0861 26.1859C19.0408 37.4203 9.52926 42.9402 5.51601 42.7456C1.83867 42.5156 0 40.8172 0 37.6503C0 36.748 0.441988 35.4742 1.34364 33.8289C2.2453 32.0774 3.0232 31.1397 3.67734 30.9981C4.61436 30.8035 5.14474 31.2812 5.23314 32.4135C5.28618 32.9266 5.02098 33.6166 4.45524 34.4658C3.83646 35.3681 3.5359 35.8988 3.5359 36.0934C3.5359 38.4465 4.33148 39.6318 5.94032 39.6318C10.3248 39.6318 18.5812 34.9612 30.6916 25.6198L51.7656 9.48471C59.7745 3.06252 64.4949 -0.0866473 65.9093 0.00181261C67.1822 0.0902725 67.6949 0.567956 67.4651 1.41717C67.3236 1.89485 66.6341 2.8856 65.4142 4.38942C63.9468 6.22939 62.8507 7.83936 62.0905 9.20164C61.6662 9.90932 60.906 11.3247 59.8275 13.4477C58.696 15.6592 57.7944 17.3223 57.1402 18.4015C56.433 19.5868 55.3546 21.2853 53.8872 23.4968L51.3413 27.3182C52.4198 26.7521 55.3546 24.9652 60.1104 21.9399C62.7093 20.2945 65.5733 18.3484 68.738 16.1369C69.3037 15.5707 70.0639 14.7215 71.001 13.5892L73.4054 10.9001C76.0396 7.98089 77.7369 6.51246 78.4971 6.51246C79.2043 6.51246 79.7877 6.77784 80.265 7.29091C80.7777 7.80397 80.9899 8.4055 80.9015 9.0601C80.265 10.39 79.77 10.1039 77.507 13.0231L74.254 16.5615C72.6452 18.313 71.4783 19.8699 70.7181 21.2322C69.9579 22.7006 68.0308 25.8498 64.9192 30.7151C62.3203 34.7665 61.012 37.0311 60.959 37.5088C60.959 37.9865 61.1535 38.2695 61.5247 38.358C62.285 38.4995 65.3435 37.4203 70.7181 35.1027C72.2208 34.4481 74.3424 33.2804 77.0827 31.6351C79.3987 30.2728 80.6717 29.5828 80.9015 29.5828C81.8915 29.5828 82.3159 30.0074 82.1744 30.8566ZM130.404 30.9981C130.404 32.4135 126.78 35.1027 119.514 39.0657C114.652 41.7018 110.691 43.0287 107.633 43.0287C106.077 43.0287 104.857 42.4625 103.956 41.3303C103.195 40.3395 102.877 39.2603 102.966 38.0749C103.107 36.5711 103.39 35.3858 103.814 34.5365C102.966 34.7312 102.064 34.8196 101.127 34.8196L96.8838 35.6688C95.5225 37.4203 94.1965 38.7295 92.9236 39.6318C90.5722 41.2772 88.2562 42.1264 85.9932 42.1795C84.7733 42.2326 83.7833 41.8256 83.023 40.9764C82.3689 40.2687 82.033 39.4372 82.033 38.4995C82.033 37.7034 83.9601 35.1558 87.8319 30.8566C87.602 30.9982 87.1954 31.1928 86.6297 31.4228C86.0639 31.6174 85.6219 31.7943 85.286 31.9889C83.3059 33.1743 82.2275 33.7404 82.033 33.6873C81.096 33.4573 80.707 32.8912 80.9015 31.9889C80.9899 31.6528 82.033 30.9274 84.0131 29.7951C86.4175 28.3797 87.8849 27.4598 88.3976 27.0351C93.6307 23.1606 93.9663 21.7983 95.328 21.3737C95.8053 21.3206 96.2296 21.4622 96.6009 21.7983C96.9722 22.1345 97.1666 22.506 97.1666 22.9306C97.1666 24.2929 96.4595 25.8498 95.0451 27.6013L93.4893 29.8659C94.2495 29.9543 95.0982 30.2905 96.0352 30.8566C96.7954 31.2812 97.4495 31.8474 98.0153 32.555L101.41 32.1304C103.301 32.042 104.521 31.9004 105.087 31.7058C105.458 31.4758 106.095 30.9274 106.996 30.0782L109.189 28.0259C110.515 26.8936 111.505 26.3275 112.159 26.3275C112.672 26.2744 113.131 26.469 113.503 26.8936C113.838 27.2298 113.998 27.5482 113.998 27.8844C113.503 28.9827 112.53 29.1051 109.613 32.555C107.438 35.1911 106.36 36.9427 106.36 37.7919C106.36 39.4372 107.067 40.2511 108.482 40.198C110.409 40.1095 113.379 39.1188 117.392 37.2257C119.178 36.4296 121.688 34.8904 124.888 32.6258C127.575 30.7858 129.078 29.8659 129.414 29.8659C130.068 29.9189 130.404 30.2905 130.404 30.9981ZM93.3479 34.395C93.3479 33.9173 93.012 33.5458 92.3578 33.2627C91.0849 32.6966 90.5722 32.502 90.802 32.6966C90.5192 32.9797 89.9004 33.4927 88.9634 34.2535C86.7534 36.0934 85.6573 37.4203 85.7103 38.2165C85.7634 38.7295 86.223 39.0657 87.1247 39.2072C88.2031 39.2957 89.4761 38.7826 90.9435 37.6503C92.5523 36.4296 93.3479 35.3327 93.3479 34.395Z" stroke="#46A6C9"/>
<path d="M113.361 83.6046C113.272 84.8254 109.737 87.0545 102.753 90.2568C96.8658 92.8929 92.4813 94.1667 89.5995 94.0783C88.1321 94.0252 86.8946 93.5829 85.8515 92.7337C84.72 91.796 84.0835 90.5399 83.9421 88.983C83.7123 86.2053 85.215 82.8085 88.468 78.7924C92.6227 73.7502 96.4415 71.2025 99.9244 71.1495C101.197 71.0964 102.187 71.7333 102.895 73.0602C103.549 74.1925 103.867 75.5371 103.814 77.094C103.761 78.3678 103.39 79.6593 102.682 80.9862C101.922 82.4016 101.197 83.0915 100.49 83.0385C99.7299 82.95 99.4117 82.4193 99.5001 81.4816C99.5618 80.8268 99.836 80.7916 100.49 79.1462C101.056 77.8724 101.197 76.8109 100.914 75.9617C100.49 74.4933 100.066 73.7856 99.6415 73.8386C96.4769 74.1748 93.4714 76.3863 90.5896 80.4908C88.3266 83.7992 87.1421 86.3823 87.0537 88.2753C86.9653 90.7345 87.9023 91.8137 89.8824 91.5306C92.6581 91.1591 96.3354 90.0268 100.914 88.1338C102.7 87.4261 105.087 86.2053 108.057 84.4538C110.691 82.8969 112.141 82.1008 112.371 82.0477C113.131 81.9062 113.449 82.4193 113.361 83.6046ZM136.627 81.2693C136.627 83.9054 134.771 86.7361 131.04 89.7614C127.646 92.5391 123.915 93.8837 119.867 93.7952C117.516 93.7421 115.695 93.0344 114.422 91.6722C113.343 90.4868 112.848 89.0714 112.937 87.4261C113.025 84.79 114.156 82.8262 116.331 81.5523C116.702 81.3223 117.462 81.1985 118.594 81.1985C118.877 81.0039 119.283 80.6324 119.796 80.0662C120.362 79.5001 120.786 79.1285 121.069 78.9339C124.799 76.7224 127.84 75.6078 130.192 75.6078C132.119 75.6078 133.675 76.1563 134.859 77.2355C136.044 78.2793 136.627 79.6239 136.627 81.2693ZM133.94 80.8447C133.94 79.2878 132.791 78.4563 130.475 78.3678C127.982 78.2793 125.595 79.1639 123.332 81.057C122.996 81.287 122.554 81.8354 121.988 82.6846C121.511 83.3923 121.016 83.8169 120.503 83.9585C120.22 84.0115 119.92 84.0115 119.584 83.9585H118.665C117.869 84.0469 117.127 84.6131 116.472 85.6569C115.995 86.5061 115.765 87.1607 115.765 87.6384C115.765 88.5761 116.243 89.4253 117.18 90.186C118.17 90.8937 119.301 91.2476 120.574 91.2476C122.978 91.2476 125.719 90.2391 128.777 88.2045C132.225 85.8869 133.94 83.4454 133.94 80.8447ZM167.672 82.7554C167.584 83.5515 164.844 85.8161 159.469 89.5491C157.012 91.2475 155.314 92.4683 154.377 93.229C154.289 93.459 153.458 96.2721 151.902 101.65C150.718 105.755 149.71 108.886 148.861 111.063C147.164 115.397 144.707 119.042 141.507 121.961C136.928 126.065 132.543 127.994 128.353 127.764C126.285 127.675 124.517 126.968 123.049 125.641C121.582 124.225 120.875 122.527 120.928 120.545C120.981 116.636 126.231 110.549 136.698 102.287C138.018 101.245 140.994 99.4566 151.407 92.3798C152.344 90.9645 152.822 89.4607 152.822 87.8507C152.822 85.3915 151.407 84.1708 148.578 84.1708C148.296 84.1708 147.889 84.33 147.376 84.6661C146.952 85.0023 146.598 85.1084 146.315 85.02C145.467 84.6838 145.096 84.2238 145.184 83.6046C145.293 82.8379 146.97 81.6762 150.7 77.2355C153.016 74.4579 154.183 72.901 154.236 72.5648C154.289 71.9102 153.9 71.5741 153.104 71.5741C152.026 71.5741 150.329 71.9987 148.013 72.8479C147.394 73.0779 146.545 73.5733 145.467 74.334C144.671 74.9532 144.141 75.2009 143.911 75.1125C143.151 74.8825 142.78 74.4579 142.78 73.8386C142.78 72.901 144.388 71.7687 147.588 70.4418C149.568 69.6457 152.203 69.168 155.509 69.0264C156.693 68.9734 157.347 69.6457 157.489 71.0079C157.577 71.9456 156.446 73.9271 154.094 76.9524L150.559 81.4816C153.617 82.1362 155.279 83.6577 155.509 86.0107C155.562 86.6653 155.509 87.6561 155.367 88.983C155.703 88.983 157.542 87.7976 160.883 85.4446C164.419 82.8969 166.399 81.6231 166.824 81.6231C167.389 81.6231 167.672 81.9947 167.672 82.7554ZM150.983 95.6352C150.788 95.7767 149.091 96.8382 145.891 98.8197C143.009 100.66 140.711 102.287 138.961 103.703C133.498 108.232 129.997 111.257 128.494 112.761C125.1 116.246 123.491 119.13 123.686 121.395C123.774 122.58 124.393 123.535 125.524 124.296C126.461 124.915 127.557 125.269 128.777 125.358C131.606 125.552 135.089 123.942 139.244 120.545C142.267 118.086 144.848 114.123 147.023 108.656C148.101 105.879 149.427 101.527 150.983 95.6352ZM204.446 59.7558C204.446 66.7795 201.334 74.3163 195.111 82.3308C188.835 90.5399 183.513 94.6444 179.129 94.6444C177.29 94.6444 176.035 94.3613 175.381 93.7952C174.673 93.229 174.267 92.1498 174.178 90.5399C174.037 88.4699 176.441 85.1084 181.392 80.4908C184.415 77.6601 186.996 76.2978 189.171 76.3863C189.224 76.3863 190.726 77.2355 193.697 78.9339C198.877 73.414 201.476 67.2395 201.476 60.3928C201.476 56.0582 199.566 53.1921 195.747 51.8298C193.909 51.2106 190.921 50.9099 186.766 50.9099C177.007 50.9099 166.877 52.5552 156.357 55.8636C151.602 57.3674 145.909 59.6674 139.314 62.7281L130.616 66.7619C130.05 66.7619 129.767 66.4788 129.767 65.9126C129.82 65.0104 132.897 63.135 139.031 60.2512C144.919 57.509 150.223 55.3859 154.943 53.8821C166.311 50.2022 176.671 48.3622 186.059 48.3622C191.911 48.3622 196.225 49.0168 199 50.3437C202.625 52.0952 204.446 55.2267 204.446 59.7558ZM190.726 82.1893C190.355 81.057 189.683 80.2962 188.746 79.9247C188.092 79.6947 187.031 79.9778 185.564 80.7739C184.15 81.5347 182.947 82.4723 181.957 83.6046C178.934 87.0015 177.343 89.3545 177.149 90.6814C177.06 91.1591 177.714 91.5837 179.129 91.9552C180.402 92.3268 182.894 90.876 186.625 87.5676C188.799 85.5861 190.161 83.7992 190.726 82.1893ZM247.937 83.0385C247.937 83.3746 244.525 85.8161 237.683 90.3983C232.786 93.7067 228.702 95.3521 225.449 95.3521C223.098 95.3521 221.63 94.3083 221.064 92.2383C220.782 91.1591 220.764 89.8853 220.994 88.4168C219.014 89.7437 217.175 90.8229 215.478 91.6722C212.561 93.176 210.085 93.9367 208.052 93.9367C205.224 93.9367 203.809 92.4683 203.809 89.5491C203.809 87.0899 205.948 83.5869 210.245 79.0047C214.859 73.9094 218.183 71.3795 220.216 71.4325C222.567 71.521 224.547 72.6533 226.156 74.8294C226.58 75.3955 227.075 76.5986 227.641 78.4386C229.674 77.2178 229.452 76.558 229.975 76.5278C231.442 76.6163 232.096 77.1824 231.955 78.2263C231.814 79.0755 230.753 80.5616 228.773 82.6846C227.27 84.4361 226.085 85.6569 225.237 86.3646C224.194 88.8238 223.699 90.2568 223.752 90.6814C223.893 91.9022 224.6 92.5214 225.873 92.5214C227.853 92.5214 231.266 91.106 236.127 88.2753C243.995 83.6931 246.934 81.4796 246.947 81.4816C247.601 81.4285 247.937 81.9593 247.937 83.0385ZM224.883 78.7924C224.883 78.0316 224.406 77.094 223.469 75.9617C222.479 74.7763 221.542 74.2102 220.64 74.2633C218.943 74.3517 216.061 76.6163 212.013 81.057C208.247 85.25 206.443 88.0807 206.638 89.5491C206.779 90.5399 207.487 91.106 208.76 91.2476C209.697 91.336 211.659 90.5929 214.629 88.983C219.438 86.4884 222.815 83.9585 224.742 81.4108L224.883 78.7924ZM270.496 82.1893C270.443 82.7023 267.296 85.1615 261.02 89.5491C257.201 92.1852 253.895 93.7067 251.12 94.0783C250.13 94.2198 249.122 93.8483 248.079 92.946C247 92.0968 246.452 91.1591 246.452 90.1153C246.452 86.8069 248.096 82.8969 251.403 78.3678C253.807 75.0594 255.982 73.414 257.909 73.414C258.899 73.414 259.8 73.9625 260.596 75.0417C261.303 76.0855 261.639 77.147 261.586 78.2263C261.498 80.827 259.606 83.1269 255.928 85.1615C254.373 86.0107 252.34 86.7715 249.847 87.4261C249.475 88.1338 249.281 88.9299 249.281 89.8322C249.281 90.6283 250.041 91.106 251.544 91.2476C252.481 91.3006 254.885 90.2037 258.757 87.9922C266.536 83.4631 268.787 81.4796 269.506 81.1985C270.214 81.1985 270.549 81.5347 270.496 82.1893ZM258.757 78.0847C258.757 77.0409 258.333 76.5278 257.484 76.5278C256.406 76.5278 255.168 77.6601 253.807 79.9247L251.12 84.4538C253.33 84.0823 255.08 83.2685 256.353 82.0477C257.962 80.5439 258.757 79.217 258.757 78.0847ZM337.042 82.0477C337.095 82.95 333.931 85.1615 327.566 88.6999C323.694 90.8229 320.582 91.8668 318.231 91.8137C314.076 91.6722 312.008 90.1683 312.008 87.2846C312.008 86.0107 312.521 84.4008 313.564 82.4723C313.9 81.8177 314.465 80.9331 315.261 79.8539C316.057 78.7747 316.534 78.0847 316.675 77.8017C314.554 78.4209 311.106 80.2077 306.35 83.18C301.913 85.8692 298.996 87.7092 297.581 88.6999C294.328 90.9645 293.371 92.0968 292.773 92.0968C292.118 92.0083 291.783 91.7252 291.783 91.2476C291.836 90.876 292.118 90.1153 292.631 88.983C293.25 87.6561 293.621 86.8069 293.763 86.4353C294.24 85.02 294.47 83.7992 294.47 82.7554C293.904 83.0916 292.755 83.8346 291.005 85.02C289.025 86.3469 287.486 87.3376 286.408 87.9922C279.99 91.8668 275.712 93.7952 273.537 93.7952C272.035 93.7952 270.797 93.3706 269.86 92.5214C268.817 91.5837 268.304 90.3099 268.304 88.6999C268.304 87.8507 269.011 86.4884 270.426 84.5954C271.928 82.5608 273.166 81.57 274.103 81.6231C274.863 81.6231 275.288 82.0477 275.376 82.8969C275.429 83.3746 275.146 83.8346 274.527 84.3123C273.732 84.8784 273.254 85.303 273.113 85.5861C272.176 87.1961 271.646 88.4699 271.557 89.4076C271.504 89.8322 271.699 90.2568 272.123 90.6814C272.547 91.0529 272.972 91.2476 273.396 91.2476C274.58 91.2476 278.541 89.3545 285.276 85.5861C288.194 83.9408 291.128 81.9593 294.046 79.6416C297.917 76.6694 298.68 75.1125 299.42 75.1125C300.499 75.2009 301.029 75.6255 300.976 76.3863C301.02 76.558 300.499 77.7132 299.562 80.9154L298.854 84.0292C301.63 82.7554 304.706 81.11 308.048 79.0755C314.041 75.6255 318.178 73.9802 320.494 74.1217C321.484 74.2102 321.961 74.5994 321.908 75.254C321.78 75.4643 321.201 76.2448 319.787 78.3678C319.504 78.8455 318.956 79.5885 318.16 80.6324C317.542 81.4816 317.047 82.2777 316.675 83.0385C315.738 84.8784 315.208 86.2407 315.12 87.143C315.031 88.2753 316.057 88.9299 318.231 89.1245C319.928 89.266 322.421 88.5053 325.727 86.8599C327.23 86.0992 329.405 84.8254 332.233 83.0385C334.549 81.6231 335.822 80.9154 336.052 80.9154C336.671 80.9154 336.989 81.287 337.042 82.0477Z" stroke="#46A6C9"/>
<path d="M239.805 130.641C239.858 131.402 238.55 132.782 235.916 134.816C233.228 136.851 230.806 138.337 228.632 139.275C225.52 140.602 222.78 141.256 220.428 141.256C217.794 141.256 215.814 140.212 214.488 138.142C214.258 137.806 213.94 137.276 213.569 136.515C213.144 135.577 212.844 134.94 212.649 134.604C212.313 134.887 211.642 135.4 210.598 136.161C209.661 136.816 208.884 137.435 208.265 138.001C208.035 138.195 207.257 139.133 205.931 140.832C204.8 142.247 204.022 142.955 203.597 142.955C202.554 142.955 201.953 142.618 201.759 141.964C201.706 141.822 203.686 139.416 207.699 134.746C211.376 130.553 213.215 127.863 213.215 126.678C213.215 125.882 212.791 125.404 211.942 125.263C211.182 125.174 208.601 126.342 204.163 128.801C203.173 129.314 201.193 130.623 198.223 132.693C195.907 134.339 194.598 135.117 194.263 135.029C193.043 134.799 192.512 134.374 192.707 133.755C192.795 133.419 194.174 132.339 196.808 130.499C199.407 128.713 201.281 127.527 202.466 126.961C207.787 124.272 211.093 122.857 212.366 122.715C213.268 122.627 214.117 122.839 214.912 123.352C215.761 123.865 216.185 124.502 216.185 125.263C216.185 126.059 215.955 127.05 215.478 128.235C215.001 129.456 214.771 130.358 214.771 130.924C214.541 130.924 216.751 129.597 221.418 126.961C226.51 123.989 229.18 122.52 229.409 122.574C229.922 122.662 230.187 123.087 230.187 123.847C230.187 123.989 227.977 125.546 223.54 128.518L220.004 130.924C218.501 132.003 217.175 132.906 216.044 133.613C215.902 133.808 215.955 134.409 216.185 135.453C216.274 136.072 216.698 136.745 217.458 137.506C218.448 138.443 219.527 138.903 220.711 138.85C223.027 138.762 225.184 138.231 227.217 137.293C228.773 136.532 231.177 135.046 234.43 132.835C237.259 130.906 238.815 129.933 239.098 129.933C239.469 129.933 239.717 130.163 239.805 130.641ZM262.364 130.004C262.364 132.64 260.508 135.471 256.777 138.496C253.383 141.274 249.652 142.618 245.604 142.53C243.253 142.477 241.432 141.769 240.159 140.407C239.08 139.222 238.585 137.806 238.674 136.161C238.762 133.525 239.893 131.561 242.068 130.287C242.439 130.057 243.199 129.933 244.331 129.933C244.614 129.739 245.02 129.367 245.533 128.801C246.099 128.235 246.523 127.863 246.806 127.669C250.536 125.457 253.577 124.343 255.929 124.343C257.856 124.343 259.412 124.891 260.596 125.97C261.781 127.014 262.364 128.359 262.364 130.004ZM259.677 129.58C259.677 128.023 258.528 127.191 256.212 127.103C253.719 127.014 251.332 127.899 249.069 129.792C248.733 130.022 248.291 130.57 247.725 131.419C247.248 132.127 246.753 132.552 246.24 132.693C245.957 132.746 245.657 132.746 245.321 132.693H244.402C243.606 132.782 242.864 133.348 242.209 134.392C241.732 135.241 241.502 135.896 241.502 136.373C241.502 137.311 241.98 138.16 242.917 138.921C243.907 139.629 245.038 139.982 246.311 139.982C248.716 139.982 251.456 138.974 254.514 136.939C257.962 134.622 259.677 132.18 259.677 129.58ZM334.779 130.783C334.832 131.685 331.668 133.896 325.303 137.435C321.431 139.558 318.32 140.602 315.968 140.549C311.814 140.407 309.745 138.903 309.745 136.019C309.745 134.746 310.258 133.136 311.301 131.207C311.637 130.553 312.203 129.668 312.998 128.589C313.794 127.51 314.271 126.82 314.413 126.536C312.291 127.156 308.844 128.943 304.088 131.915C299.65 134.604 296.733 136.444 295.319 137.435C292.066 139.699 291.164 140.92 290.51 140.832C289.856 140.743 289.52 140.46 289.52 139.982C289.573 139.611 289.856 138.85 290.368 137.718C290.987 136.391 291.358 135.542 291.5 135.17C291.977 133.755 292.207 132.534 292.207 131.49C291.641 131.826 290.492 132.569 288.742 133.755C286.762 135.082 285.224 136.072 284.145 136.727C277.728 140.602 273.449 142.53 271.275 142.53C269.772 142.53 268.534 142.105 267.597 141.256C266.554 140.319 266.041 139.045 266.041 137.435C266.041 136.586 266.749 135.223 268.163 133.33C269.666 131.296 270.903 130.305 271.84 130.358C272.601 130.358 273.025 130.783 273.113 131.632C273.166 132.109 272.883 132.569 272.265 133.047C271.469 133.613 270.992 134.038 270.85 134.321C269.913 135.931 269.383 137.205 269.294 138.142C269.241 138.567 269.436 138.992 269.86 139.416C270.285 139.788 270.709 139.982 271.133 139.982C272.318 139.982 276.278 138.089 283.014 134.321C285.931 132.676 288.866 130.694 291.783 128.376C295.655 125.404 296.649 124.133 297.157 123.847C298.236 123.936 298.766 124.36 298.713 125.121C298.691 125.438 298.236 126.448 297.299 129.65L296.592 132.764C299.367 131.49 302.444 129.845 305.785 127.81C311.778 124.36 315.915 122.715 318.231 122.857C319.221 122.945 319.699 123.334 319.646 123.989C319.595 124.133 318.939 124.98 317.524 127.103C317.241 127.58 316.693 128.323 315.898 129.367C315.279 130.216 314.784 131.013 314.413 131.773C313.476 133.613 312.945 134.976 312.857 135.878C312.768 137.01 313.794 137.665 315.968 137.859C317.666 138.001 320.158 137.24 323.465 135.595C324.967 134.834 327.142 133.56 329.971 131.773C332.287 130.358 333.56 129.65 333.789 129.65C334.408 129.65 334.726 130.022 334.779 130.783ZM374.877 127.952C375.071 129.986 372.808 132.817 368.088 136.444C362.66 140.549 359.372 142.53 358.187 142.388C356.914 142.194 356.26 141.769 356.207 141.115C356.207 140.92 357.144 138.709 359.036 134.462C356.578 134.462 354.368 134.887 352.388 135.736L344.892 143.804C343.195 145.697 340.861 147.82 337.891 150.173C334.691 152.721 332.676 153.906 331.88 153.711C331.261 153.57 330.961 153.198 330.961 152.579L342.346 142.247C343.902 140.779 345.405 138.85 346.872 136.444C347.862 134.657 348.375 133.56 348.428 133.189C342.258 136.674 338.298 138.372 336.547 138.284C335.84 138.231 335.274 137.859 334.85 137.152C334.479 136.497 334.337 135.736 334.426 134.887C334.709 131.72 336.176 128.713 338.81 125.829C342.346 121.954 345.953 120.026 349.63 120.026C351.699 120.026 353.325 122.06 354.51 126.112C357.144 122.379 360.114 118.61 363.42 114.789C369.025 108.367 372.136 105.112 372.755 105.023C373.604 104.882 374.028 105.253 374.028 106.155L365.825 116.346C360.538 122.857 357.109 127.191 355.5 129.367C355.022 131.119 354.881 132.216 355.075 132.693C355.694 132.322 356.543 131.703 357.621 130.853C358.558 130.146 359.513 129.509 360.45 128.943C365.029 126.059 368.6 124.608 371.199 124.555C373.462 124.502 374.682 125.634 374.877 127.952ZM351.822 126.961C351.451 124.272 350.461 122.945 348.852 122.998C345.935 123.087 343.053 124.927 340.225 128.518C338.474 130.783 337.52 132.764 337.325 134.462C337.237 134.94 337.449 135.223 337.962 135.312C338.298 135.365 340.79 134.179 345.458 131.773C346.359 131.296 347.456 130.499 348.782 129.367C350.479 128.005 351.487 127.191 351.822 126.961ZM372.048 128.376C372.101 127.722 371.677 127.333 370.775 127.244C368.936 127.103 367.009 127.757 364.976 129.226C363.615 130.269 362.713 131.013 362.289 131.49C362.908 132.198 363.226 132.764 363.279 133.189C363.332 133.613 363.049 134.445 362.43 135.666C361.723 136.939 361.352 137.806 361.299 138.284C365.772 134.976 368.088 133.242 368.229 133.047C370.722 130.553 371.995 128.996 372.048 128.376ZM447.433 130.783C447.38 131.773 444.976 133.843 440.22 137.01C434.651 140.637 430.461 142.477 427.632 142.53C426.784 142.53 426.076 142.123 425.511 141.327C424.998 140.619 424.75 139.788 424.804 138.85C424.892 137.576 426.306 135.4 429.047 132.339C431.31 129.703 432.494 128.235 432.583 127.952C431.787 128.43 430.655 128.943 429.188 129.509C427.261 130.305 425.935 130.871 425.228 131.207C421.639 133.189 417.679 134.94 413.347 136.444C400.759 150.544 393.493 158.612 391.566 160.647C376.715 176.216 370.156 184 369.502 184C368.848 184 368.459 183.77 368.37 183.292C368.37 183.151 375.584 174.942 390.01 158.665L396.021 152.084C398.196 149.678 400.423 147.148 402.74 144.512C408.591 137.859 412.834 132.959 415.469 129.792L412.781 131.207C409.723 132.959 409.737 133.976 408.821 133.896C408.344 133.843 407.884 133.419 407.407 132.623C407.071 131.968 409.387 130.27 414.337 127.527C415.416 126.961 416.618 126.236 417.944 125.333C419.305 124.431 420.331 123.794 420.985 123.423C422.629 122.06 423.831 121.459 424.591 121.653C425.299 121.795 425.652 122.149 425.652 122.715C425.58 123.04 424.432 123.989 421.975 126.82C419.712 129.367 418.297 131.013 417.732 131.773C419.517 131.349 422.488 130.075 426.642 127.952C431.539 125.316 434.987 123.989 436.967 123.989C437.533 123.989 437.763 124.467 437.674 125.404C437.48 126.731 435.747 129.031 432.441 132.339C429.188 135.736 427.579 137.912 427.632 138.85C427.721 139.611 428.057 139.982 428.622 139.982C430.408 139.982 433.855 138.337 438.947 135.029C443.809 131.826 446.249 130.216 446.302 130.216C447.062 130.128 447.433 130.305 447.433 130.783ZM401.891 130.004C401.891 132.64 400.035 135.471 396.304 138.496C392.91 141.274 389.179 142.618 385.131 142.53C382.779 142.477 380.958 141.769 379.685 140.407C378.607 139.222 378.112 137.806 378.2 136.161C378.289 133.525 379.42 131.561 381.595 130.287C381.966 130.057 382.726 129.933 383.858 129.933C384.141 129.739 384.547 129.367 385.06 128.801C385.626 128.235 386.05 127.863 386.333 127.669C390.063 125.457 393.104 124.343 395.456 124.343C397.383 124.343 398.938 124.891 400.123 125.97C401.307 127.014 401.891 128.359 401.891 130.004ZM399.204 129.58C399.204 128.023 398.054 127.191 395.738 127.103C393.246 127.014 390.859 127.899 388.596 129.792C388.26 130.022 387.818 130.57 387.252 131.419C386.775 132.127 386.28 132.552 385.767 132.693C385.484 132.746 385.184 132.746 384.848 132.693H383.928C383.133 132.782 382.39 133.348 381.736 134.392C381.259 135.241 381.029 135.896 381.029 136.373C381.029 137.311 381.506 138.16 382.443 138.921C383.433 139.629 384.565 139.982 385.838 139.982C388.242 139.982 390.983 138.974 394.041 136.939C397.489 134.622 399.204 132.18 399.204 129.58ZM519 130.641C518.912 132.109 515.04 135.117 507.402 139.699C502.788 142.442 498.722 143.945 495.239 144.228C494.196 144.317 493.259 143.928 492.41 143.025C491.561 142.123 491.137 141.026 491.137 139.699C491.137 138.85 492.074 136.586 493.966 132.906C494.249 132.286 494.956 131.207 496.087 129.65C496.989 128.465 497.413 127.669 497.36 127.244C497.307 126.59 496.848 126.2 495.946 126.112C494.62 126.023 490.943 127.899 484.914 131.773C484.012 132.623 482.739 134.126 481.095 136.302C479.628 138.195 478.496 139.133 477.701 139.133C476.711 139.133 476.092 138.567 475.862 137.435C475.809 137.24 477.223 135.648 480.105 132.623C482.174 130.499 483.217 128.642 483.217 127.032C483.217 125.953 482.598 125.404 481.378 125.404C479.875 125.404 478.072 125.776 476.003 126.536C471.99 128.04 468.843 129.739 466.527 131.632C465.449 132.534 464.317 133.613 463.133 134.887C461.665 136.497 460.675 137.523 460.163 138.001C457.847 140.035 456.432 141.026 455.92 140.973C455.071 140.832 454.594 140.212 454.505 139.133C454.452 138.62 455.584 137.152 457.9 134.746C460.675 131.862 462.054 130.075 462.001 129.367C461.913 128.323 461.382 127.81 460.445 127.81C459.226 127.81 456.963 128.606 453.656 130.216C452.808 130.588 451.482 131.473 449.696 132.835C448.229 133.914 447.345 134.409 447.009 134.321C445.931 134.038 445.4 133.613 445.453 133.047C445.595 131.862 447.999 130.022 452.666 127.527C455.212 126.165 458.236 125.316 461.718 124.98C462.567 124.891 463.398 125.316 464.193 126.253C464.848 127.103 465.254 127.952 465.396 128.801C466.58 127.899 469.091 126.678 472.963 125.121C477.064 123.423 479.875 122.574 481.378 122.574C483.871 122.574 485.391 123.706 485.904 125.97C486.098 126.678 486.187 127.333 486.187 127.952C486.806 127.757 488.609 126.837 491.632 125.192C494.178 123.865 495.893 123.228 496.795 123.281C499.146 123.423 500.383 124.467 500.472 126.395C500.485 126.687 499.287 128.465 496.936 133.189C494.956 137.24 493.966 139.363 493.966 139.558C493.966 140.885 494.479 141.539 495.522 141.539C497.696 141.539 501.267 140.177 506.271 137.435C507.827 136.586 510.319 134.887 513.767 132.339C516.366 130.446 517.922 129.562 518.434 129.65C518.805 129.739 519 130.075 519 130.641Z" stroke="#46A6C9"/>
<defs>
<linearGradient id="paint0_linear_123_21833" x1="-23.0397" y1="-21.3398" x2="540.541" y2="173.489" gradientUnits="userSpaceOnUse">
<stop stop-color="#88C7DA"/>
<stop offset="1" stop-color="#075A78"/>
</linearGradient>
<linearGradient id="paint1_linear_123_21833" x1="-23.0397" y1="-21.3398" x2="540.541" y2="173.489" gradientUnits="userSpaceOnUse">
<stop stop-color="#88C7DA"/>
<stop offset="1" stop-color="#075A78"/>
</linearGradient>
<linearGradient id="paint2_linear_123_21833" x1="-23.0397" y1="-21.3398" x2="540.541" y2="173.489" gradientUnits="userSpaceOnUse">
<stop stop-color="#88C7DA"/>
<stop offset="1" stop-color="#075A78"/>
</linearGradient>
</defs>
</svg>
