<svg width="468" height="181" viewBox="0 0 468 181" fill="none" xmlns="http://www.w3.org/2000/svg">
<path d="M334.788 1.09512C303.792 46.419 268.27 78.9989 232.987 102.412H241.887C275.636 79.0254 309.349 47.2051 338.978 3.88592C339.754 2.74664 339.446 1.19227 338.299 0.42392C337.867 0.132476 337.373 0 336.888 0C336.076 0 335.282 0.379762 334.797 1.09512" fill="url(#paint0_linear_123_21832)"/>
<path d="M2.84336 162.36C1.49378 162.193 0.197118 163.146 0.0207018 164.515C-0.155714 165.875 0.814576 167.121 2.19944 167.306C2.41996 167.333 12.1758 168.525 28.5648 168.525C37.9414 168.525 49.5054 168.127 62.6837 166.909V161.901C26.8624 165.266 3.18737 162.405 2.84336 162.36Z" fill="url(#paint1_linear_123_21832)"/>
<path d="M81.8514 142.905H90.0547C95.5236 142.905 98.2581 146.499 98.2581 153.706V169.903C98.2581 173.497 96.4322 175.299 92.7892 175.299H81.8514V142.896V142.905ZM81.8514 105.105H92.7892C96.4322 105.105 98.2581 106.907 98.2581 110.501V126.752C98.2581 133.914 95.5236 137.5 90.0547 137.5H81.8514V105.096V105.105ZM76.3825 99.7003V180.704H92.7892C100.084 180.704 103.727 177.109 103.727 169.903V151.003C103.727 145.607 101.901 142.004 98.2581 140.202C101.901 138.4 103.727 134.806 103.727 129.401V110.501C103.727 103.304 100.084 99.7003 92.7892 99.7003H76.3825Z" fill="url(#paint2_linear_123_21832)"/>
<path d="M124.791 115.906C117.496 115.906 113.853 119.51 113.853 126.707V137.508H119.322V126.707C119.322 123.113 121.139 121.311 124.791 121.311H130.26C133.903 121.311 135.729 123.113 135.729 126.707V134.868C135.729 142.03 132.994 145.616 127.525 145.616H122.057V151.012H127.525C132.994 151.012 135.729 154.607 135.729 161.813V169.912C135.729 173.506 133.903 175.308 130.26 175.308H124.791C121.139 175.308 119.322 173.506 119.322 169.912V161.813H113.853V169.912C113.853 177.11 117.496 180.713 124.791 180.713H130.26C137.555 180.713 141.198 177.118 141.198 169.912V159.111C141.198 153.715 139.381 150.111 135.729 148.31C139.381 146.508 141.198 142.913 141.198 137.508V126.707C141.198 119.51 137.555 115.906 130.26 115.906H124.791Z" fill="url(#paint3_linear_123_21832)"/>
<path d="M157.684 115.906L155.17 168.667C155.064 172.588 153.256 174.804 149.754 175.308V180.704C157.014 180.704 160.657 176.968 160.692 169.479L162.88 121.302H174.364V180.704H179.833V115.906H157.675H157.684Z" fill="url(#paint4_linear_123_21832)"/>
<path d="M192.579 106.298C191.776 107.092 191.379 108.046 191.379 109.159C191.379 110.272 191.776 111.279 192.579 112.047C193.373 112.824 194.343 113.213 195.481 113.213C196.619 113.213 197.58 112.824 198.383 112.047C199.186 111.27 199.583 110.307 199.583 109.159C199.583 108.011 199.186 107.092 198.383 106.298C197.58 105.503 196.61 105.114 195.481 105.114C194.352 105.114 193.382 105.512 192.579 106.298Z" fill="url(#paint5_linear_123_21832)"/>
<path d="M208.986 106.298C208.183 107.092 207.786 108.046 207.786 109.159C207.786 110.272 208.183 111.279 208.986 112.047C209.789 112.824 210.75 113.213 211.888 113.213C213.026 113.213 213.987 112.824 214.79 112.047C215.593 111.27 215.99 110.307 215.99 109.159C215.99 108.011 215.593 107.092 214.79 106.298C213.987 105.503 213.017 105.114 211.888 105.114C210.759 105.114 209.789 105.512 208.986 106.298Z" fill="url(#paint6_linear_123_21832)"/>
<path d="M195.472 126.707C195.472 123.113 197.289 121.311 200.941 121.311H206.41C210.053 121.311 211.879 123.113 211.879 126.707V153.715C211.879 157.318 210.053 159.111 206.41 159.111H195.472V126.707ZM200.941 115.906C193.646 115.906 190.003 119.51 190.003 126.707V169.912C190.003 177.11 193.646 180.713 200.941 180.713H214.622V175.317H200.941C197.289 175.317 195.472 173.515 195.472 169.921V164.516H206.41C213.696 164.516 217.348 160.912 217.348 153.715V126.707C217.348 119.51 213.696 115.906 206.41 115.906H200.941Z" fill="url(#paint7_linear_123_21832)"/>
<path d="M227.298 121.302H238.244V180.704H243.713V121.302H254.651V115.906H227.298V121.302Z" fill="url(#paint8_linear_123_21832)"/>
<path d="M286.653 145.607H270.247V115.906H264.778V180.704H270.247V151.003H286.653V180.704H292.131V115.906H286.653V145.607Z" fill="url(#paint9_linear_123_21832)"/>
<path d="M307.717 169.912V142.914C307.717 139.31 309.543 137.509 313.186 137.509H324.124V175.308H313.186C309.534 175.308 307.717 173.506 307.717 169.912ZM304.983 121.303H318.664C322.307 121.303 324.133 123.104 324.133 126.699V132.095H313.195C305.9 132.095 302.257 135.698 302.257 142.896V169.894C302.257 177.092 305.9 180.695 313.195 180.695H329.602V126.69C329.602 119.492 325.95 115.889 318.664 115.889H304.983V121.303Z" fill="url(#paint10_linear_123_21832)"/>
<path d="M349.378 134.806V126.761C349.378 123.157 351.204 121.356 354.847 121.356H365.785V145.554H357.581C352.112 145.554 349.378 141.969 349.378 134.806ZM354.847 115.959C347.552 115.959 343.909 119.563 343.909 126.761V137.456C343.909 142.861 345.726 146.455 349.378 148.257C345.726 150.058 343.909 153.662 343.909 159.058V169.912C343.909 173.506 342.083 175.308 338.44 175.308V180.704C345.726 180.704 349.378 177.11 349.378 169.903V161.266C349.484 154.395 352.227 150.95 357.581 150.95H365.785V180.704H371.253V115.959H354.847Z" fill="url(#paint11_linear_123_21832)"/>
<path d="M409.995 118.123L414.255 121.523L425.034 108.399V180.704H430.503V99.7003H425.034L409.995 118.123Z" fill="url(#paint12_linear_123_21832)"/>
<path d="M446.124 169.912V132.103H457.062C460.714 132.103 462.531 133.905 462.531 137.508V169.912C462.531 173.506 460.714 175.308 457.062 175.308H451.593C447.941 175.308 446.124 173.506 446.124 169.912ZM451.593 99.7091C444.307 99.7091 440.655 103.312 440.655 110.51V169.912C440.655 177.109 444.307 180.713 451.593 180.713H457.062C464.348 180.713 468 177.118 468 169.912V137.508C468 130.311 464.348 126.707 457.062 126.707H446.124V110.51C446.124 106.916 447.941 105.114 451.593 105.114H465.274V99.7091H451.593Z" fill="url(#paint13_linear_123_21832)"/>
<defs>
<linearGradient id="paint0_linear_123_21832" x1="-1.41924e-05" y1="90.3564" x2="461.136" y2="90.3564" gradientUnits="userSpaceOnUse">
<stop stop-color="#B08D46"/>
<stop offset="0.359375" stop-color="#EAD29E"/>
<stop offset="0.885417" stop-color="#A7833B"/>
</linearGradient>
<linearGradient id="paint1_linear_123_21832" x1="-1.41924e-05" y1="90.3564" x2="461.136" y2="90.3564" gradientUnits="userSpaceOnUse">
<stop stop-color="#B08D46"/>
<stop offset="0.359375" stop-color="#EAD29E"/>
<stop offset="0.885417" stop-color="#A7833B"/>
</linearGradient>
<linearGradient id="paint2_linear_123_21832" x1="-1.41924e-05" y1="90.3564" x2="461.136" y2="90.3564" gradientUnits="userSpaceOnUse">
<stop stop-color="#B08D46"/>
<stop offset="0.359375" stop-color="#EAD29E"/>
<stop offset="0.885417" stop-color="#A7833B"/>
</linearGradient>
<linearGradient id="paint3_linear_123_21832" x1="-1.41924e-05" y1="90.3564" x2="461.136" y2="90.3564" gradientUnits="userSpaceOnUse">
<stop stop-color="#B08D46"/>
<stop offset="0.359375" stop-color="#EAD29E"/>
<stop offset="0.885417" stop-color="#A7833B"/>
</linearGradient>
<linearGradient id="paint4_linear_123_21832" x1="-1.41924e-05" y1="90.3564" x2="461.136" y2="90.3564" gradientUnits="userSpaceOnUse">
<stop stop-color="#B08D46"/>
<stop offset="0.359375" stop-color="#EAD29E"/>
<stop offset="0.885417" stop-color="#A7833B"/>
</linearGradient>
<linearGradient id="paint5_linear_123_21832" x1="-1.41924e-05" y1="90.3564" x2="461.136" y2="90.3564" gradientUnits="userSpaceOnUse">
<stop stop-color="#B08D46"/>
<stop offset="0.359375" stop-color="#EAD29E"/>
<stop offset="0.885417" stop-color="#A7833B"/>
</linearGradient>
<linearGradient id="paint6_linear_123_21832" x1="-1.41924e-05" y1="90.3564" x2="461.136" y2="90.3564" gradientUnits="userSpaceOnUse">
<stop stop-color="#B08D46"/>
<stop offset="0.359375" stop-color="#EAD29E"/>
<stop offset="0.885417" stop-color="#A7833B"/>
</linearGradient>
<linearGradient id="paint7_linear_123_21832" x1="-1.41924e-05" y1="90.3564" x2="461.136" y2="90.3564" gradientUnits="userSpaceOnUse">
<stop stop-color="#B08D46"/>
<stop offset="0.359375" stop-color="#EAD29E"/>
<stop offset="0.885417" stop-color="#A7833B"/>
</linearGradient>
<linearGradient id="paint8_linear_123_21832" x1="-1.41924e-05" y1="90.3564" x2="461.136" y2="90.3564" gradientUnits="userSpaceOnUse">
<stop stop-color="#B08D46"/>
<stop offset="0.359375" stop-color="#EAD29E"/>
<stop offset="0.885417" stop-color="#A7833B"/>
</linearGradient>
<linearGradient id="paint9_linear_123_21832" x1="-1.41924e-05" y1="90.3564" x2="461.136" y2="90.3564" gradientUnits="userSpaceOnUse">
<stop stop-color="#B08D46"/>
<stop offset="0.359375" stop-color="#EAD29E"/>
<stop offset="0.885417" stop-color="#A7833B"/>
</linearGradient>
<linearGradient id="paint10_linear_123_21832" x1="-1.41924e-05" y1="90.3564" x2="461.136" y2="90.3564" gradientUnits="userSpaceOnUse">
<stop stop-color="#B08D46"/>
<stop offset="0.359375" stop-color="#EAD29E"/>
<stop offset="0.885417" stop-color="#A7833B"/>
</linearGradient>
<linearGradient id="paint11_linear_123_21832" x1="-1.41924e-05" y1="90.3564" x2="461.136" y2="90.3564" gradientUnits="userSpaceOnUse">
<stop stop-color="#B08D46"/>
<stop offset="0.359375" stop-color="#EAD29E"/>
<stop offset="0.885417" stop-color="#A7833B"/>
</linearGradient>
<linearGradient id="paint12_linear_123_21832" x1="-1.41924e-05" y1="90.3564" x2="461.136" y2="90.3564" gradientUnits="userSpaceOnUse">
<stop stop-color="#B08D46"/>
<stop offset="0.359375" stop-color="#EAD29E"/>
<stop offset="0.885417" stop-color="#A7833B"/>
</linearGradient>
<linearGradient id="paint13_linear_123_21832" x1="-1.41924e-05" y1="90.3564" x2="461.136" y2="90.3564" gradientUnits="userSpaceOnUse">
<stop stop-color="#B08D46"/>
<stop offset="0.359375" stop-color="#EAD29E"/>
<stop offset="0.885417" stop-color="#A7833B"/>
</linearGradient>
</defs>
</svg>
