<svg width="475" height="184" viewBox="0 0 475 184" fill="none" xmlns="http://www.w3.org/2000/svg">
<path d="M339.796 1.11014C308.336 47.0556 272.283 80.0823 236.472 103.816H245.505C279.759 80.1092 313.976 47.8524 344.048 3.93921C344.836 2.78431 344.523 1.20862 343.359 0.429733C342.92 0.134292 342.419 0 341.926 0C341.103 0 340.297 0.38497 339.805 1.11014" fill="url(#paint0_linear_0_190)"/>
<path d="M2.88589 164.587C1.51612 164.417 0.200066 165.384 0.0210115 166.772C-0.158043 168.15 0.82676 169.413 2.23234 169.601C2.45616 169.628 12.3579 170.836 28.9921 170.836C38.5089 170.836 50.2459 170.433 63.6213 169.198V164.122C27.2642 167.533 3.23505 164.632 2.88589 164.587Z" fill="url(#paint1_linear_0_190)"/>
<path d="M83.0757 144.864H91.4017C96.9524 144.864 99.7278 148.508 99.7278 155.814V172.233C99.7278 175.877 97.8746 177.703 94.1771 177.703H83.0757V144.855V144.864ZM83.0757 106.547H94.1771C97.8746 106.547 99.7278 108.373 99.7278 112.017V128.49C99.7278 135.751 96.9524 139.385 91.4017 139.385H83.0757V106.538V106.547ZM77.525 101.068V183.182H94.1771C101.581 183.182 105.278 179.538 105.278 172.233V153.074C105.278 147.604 103.425 143.951 99.7278 142.125C103.425 140.299 105.278 136.655 105.278 131.176V112.017C105.278 104.72 101.581 101.068 94.1771 101.068H77.525Z" fill="url(#paint2_linear_0_190)"/>
<path d="M126.658 117.496C119.254 117.496 115.556 121.149 115.556 128.445V139.394H121.107V128.445C121.107 124.801 122.951 122.975 126.658 122.975H132.208C135.906 122.975 137.759 124.801 137.759 128.445V136.717C137.759 143.978 134.984 147.613 129.433 147.613H123.882V153.083H129.433C134.984 153.083 137.759 156.727 137.759 164.032V172.242C137.759 175.886 135.906 177.712 132.208 177.712H126.658C122.951 177.712 121.107 175.886 121.107 172.242V164.032H115.556V172.242C115.556 179.538 119.254 183.191 126.658 183.191H132.208C139.612 183.191 143.31 179.547 143.31 172.242V161.293C143.31 155.823 141.465 152.17 137.759 150.343C141.465 148.517 143.31 144.873 143.31 139.394V128.445C143.31 121.149 139.612 117.496 132.208 117.496H126.658Z" fill="url(#paint3_linear_0_190)"/>
<path d="M160.043 117.496L157.491 170.98C157.384 174.955 155.548 177.202 151.994 177.712V183.182C159.362 183.182 163.06 179.395 163.095 171.803L165.316 122.966H176.972V183.182H182.523V117.496H160.034H160.043Z" fill="url(#paint4_linear_0_190)"/>
<path d="M195.46 107.755C194.645 108.561 194.242 109.528 194.242 110.656C194.242 111.784 194.645 112.805 195.46 113.584C196.265 114.371 197.25 114.765 198.405 114.765C199.56 114.765 200.536 114.371 201.35 113.584C202.165 112.796 202.568 111.82 202.568 110.656C202.568 109.492 202.165 108.561 201.35 107.755C200.536 106.95 199.551 106.556 198.405 106.556C197.259 106.556 196.274 106.959 195.46 107.755Z" fill="url(#paint5_linear_0_190)"/>
<path d="M212.112 107.755C211.297 108.561 210.894 109.528 210.894 110.656C210.894 111.784 211.297 112.805 212.112 113.584C212.926 114.371 213.902 114.765 215.057 114.765C216.212 114.765 217.188 114.371 218.002 113.584C218.817 112.796 219.22 111.82 219.22 110.656C219.22 109.492 218.817 108.561 218.002 107.755C217.188 106.95 216.203 106.556 215.057 106.556C213.911 106.556 212.926 106.959 212.112 107.755Z" fill="url(#paint6_linear_0_190)"/>
<path d="M198.396 128.445C198.396 124.801 200.24 122.975 203.947 122.975H209.497C213.195 122.975 215.048 124.801 215.048 128.445V155.823C215.048 159.475 213.195 161.293 209.497 161.293H198.396V128.445ZM203.947 117.496C196.543 117.496 192.845 121.149 192.845 128.445V172.242C192.845 179.538 196.543 183.191 203.947 183.191H217.832V177.721H203.947C200.24 177.721 198.396 175.895 198.396 172.251V166.772H209.497C216.892 166.772 220.599 163.119 220.599 155.823V128.445C220.599 121.149 216.892 117.496 209.497 117.496H203.947Z" fill="url(#paint7_linear_0_190)"/>
<path d="M230.698 122.966H241.808V183.182H247.359V122.966H258.46V117.496H230.698V122.966Z" fill="url(#paint8_linear_0_190)"/>
<path d="M290.941 147.604H274.288V117.496H268.738V183.182H274.288V153.074H290.941V183.182H296.5V117.496H290.941V147.604Z" fill="url(#paint9_linear_0_190)"/>
<path d="M312.32 172.242V144.873C312.32 141.221 314.173 139.394 317.87 139.394H328.972V177.712H317.87C314.164 177.712 312.32 175.886 312.32 172.242ZM309.544 117.496V122.966H323.43C327.128 122.966 328.981 124.792 328.981 128.436V133.906H317.879C310.475 133.906 306.778 137.559 306.778 144.856V172.224C306.778 179.521 310.475 183.173 317.879 183.173H334.531V128.427C334.531 121.131 330.825 117.478 323.43 117.478H309.544V117.496Z" fill="url(#paint10_linear_0_190)"/>
<path d="M354.604 136.655V128.499C354.604 124.846 356.457 123.02 360.154 123.02H371.256V147.55H362.93C357.379 147.55 354.604 143.915 354.604 136.655ZM360.154 117.55C352.75 117.55 349.053 121.202 349.053 128.499V139.341C349.053 144.82 350.897 148.463 354.604 150.29C350.897 152.116 349.053 155.769 349.053 161.239V172.242C349.053 175.886 347.2 177.712 343.502 177.712V183.182C350.897 183.182 354.604 179.538 354.604 172.233V163.477C354.711 156.512 357.495 153.02 362.93 153.02H371.256V183.182H376.806V117.55H360.154Z" fill="url(#paint11_linear_0_190)"/>
<path d="M416.127 119.743L420.451 123.19L431.391 109.886V183.182H436.942V101.068H431.391L416.127 119.743Z" fill="url(#paint12_linear_0_190)"/>
<path d="M452.797 172.242V133.915H463.899C467.605 133.915 469.449 135.741 469.449 139.394V172.242C469.449 175.886 467.605 177.712 463.899 177.712H458.348C454.641 177.712 452.797 175.886 452.797 172.242ZM458.348 101.076C450.953 101.076 447.246 104.729 447.246 112.026V172.242C447.246 179.538 450.953 183.191 458.348 183.191H463.899C471.294 183.191 475 179.547 475 172.242V139.394C475 132.098 471.294 128.445 463.899 128.445H452.797V112.026C452.797 108.382 454.641 106.555 458.348 106.555H472.234V101.076H458.348Z" fill="url(#paint13_linear_0_190)"/>
<defs>
<linearGradient id="paint0_linear_0_190" x1="262.932" y1="-85.6027" x2="433.794" y2="84.1" gradientUnits="userSpaceOnUse">
<stop stop-color="#B08D46"/>
<stop offset="0.519937" stop-color="#EAD29E"/>
<stop offset="1" stop-color="#A7833B"/>
</linearGradient>
<linearGradient id="paint1_linear_0_190" x1="15.5856" y1="158.585" x2="17.9996" y2="180.42" gradientUnits="userSpaceOnUse">
<stop stop-color="#B08D46"/>
<stop offset="0.519937" stop-color="#EAD29E"/>
<stop offset="1" stop-color="#A7833B"/>
</linearGradient>
<linearGradient id="paint2_linear_0_190" x1="84.3239" y1="33.3591" x2="163.313" y2="58.8453" gradientUnits="userSpaceOnUse">
<stop stop-color="#B08D46"/>
<stop offset="0.519937" stop-color="#EAD29E"/>
<stop offset="1" stop-color="#A7833B"/>
</linearGradient>
<linearGradient id="paint3_linear_0_190" x1="122.355" y1="63.3261" x2="197.367" y2="93.578" gradientUnits="userSpaceOnUse">
<stop stop-color="#B08D46"/>
<stop offset="0.519937" stop-color="#EAD29E"/>
<stop offset="1" stop-color="#A7833B"/>
</linearGradient>
<linearGradient id="paint4_linear_0_190" x1="159.473" y1="63.3335" x2="239.628" y2="98.8969" gradientUnits="userSpaceOnUse">
<stop stop-color="#B08D46"/>
<stop offset="0.519937" stop-color="#EAD29E"/>
<stop offset="1" stop-color="#A7833B"/>
</linearGradient>
<linearGradient id="paint5_linear_0_190" x1="196.282" y1="99.7863" x2="209.787" y2="112.861" gradientUnits="userSpaceOnUse">
<stop stop-color="#B08D46"/>
<stop offset="0.519937" stop-color="#EAD29E"/>
<stop offset="1" stop-color="#A7833B"/>
</linearGradient>
<linearGradient id="paint6_linear_0_190" x1="212.934" y1="99.7863" x2="226.439" y2="112.861" gradientUnits="userSpaceOnUse">
<stop stop-color="#B08D46"/>
<stop offset="0.519937" stop-color="#EAD29E"/>
<stop offset="1" stop-color="#A7833B"/>
</linearGradient>
<linearGradient id="paint7_linear_0_190" x1="199.644" y1="63.3261" x2="274.656" y2="93.578" gradientUnits="userSpaceOnUse">
<stop stop-color="#B08D46"/>
<stop offset="0.519937" stop-color="#EAD29E"/>
<stop offset="1" stop-color="#A7833B"/>
</linearGradient>
<linearGradient id="paint8_linear_0_190" x1="237.499" y1="63.3335" x2="312.525" y2="93.6052" gradientUnits="userSpaceOnUse">
<stop stop-color="#B08D46"/>
<stop offset="0.519937" stop-color="#EAD29E"/>
<stop offset="1" stop-color="#A7833B"/>
</linearGradient>
<linearGradient id="paint9_linear_0_190" x1="275.539" y1="63.3335" x2="350.565" y2="93.6051" gradientUnits="userSpaceOnUse">
<stop stop-color="#B08D46"/>
<stop offset="0.519937" stop-color="#EAD29E"/>
<stop offset="1" stop-color="#A7833B"/>
</linearGradient>
<linearGradient id="paint10_linear_0_190" x1="313.577" y1="63.3083" x2="388.589" y2="93.5602" gradientUnits="userSpaceOnUse">
<stop stop-color="#B08D46"/>
<stop offset="0.519937" stop-color="#EAD29E"/>
<stop offset="1" stop-color="#A7833B"/>
</linearGradient>
<linearGradient id="paint11_linear_0_190" x1="351.661" y1="63.4315" x2="436.425" y2="104.493" gradientUnits="userSpaceOnUse">
<stop stop-color="#B08D46"/>
<stop offset="0.519937" stop-color="#EAD29E"/>
<stop offset="1" stop-color="#A7833B"/>
</linearGradient>
<linearGradient id="paint12_linear_0_190" x1="421.226" y1="33.3591" x2="483.017" y2="48.3119" gradientUnits="userSpaceOnUse">
<stop stop-color="#B08D46"/>
<stop offset="0.519937" stop-color="#EAD29E"/>
<stop offset="1" stop-color="#A7833B"/>
</linearGradient>
<linearGradient id="paint13_linear_0_190" x1="454.045" y1="33.3679" x2="533.035" y2="58.854" gradientUnits="userSpaceOnUse">
<stop stop-color="#B08D46"/>
<stop offset="0.519937" stop-color="#EAD29E"/>
<stop offset="1" stop-color="#A7833B"/>
</linearGradient>
</defs>
</svg>
