<svg width="381" height="119" viewBox="0 0 381 119" fill="none" xmlns="http://www.w3.org/2000/svg">
<g clip-path="url(#clip0_0_158)">
<path d="M39.992 1.12899C39.992 1.83603 38.4125 3.32995 35.2648 5.62214C34.1889 6.3976 33.1016 7.03622 32.0028 7.51519C31.419 7.88012 29.9883 8.83805 27.722 10.4004L27.5389 11.5636C27.413 12.2706 27.3214 12.7838 27.2413 13.0917C26.8292 15.3269 25.4557 17.8129 23.1436 20.5385C19.4809 24.7009 16.2417 26.8563 13.4375 26.9931C11.4574 27.0843 9.24829 26.4685 6.81032 25.1343C5.51693 25.7159 4.41812 25.9896 3.51389 25.9325C2.87292 25.9097 2.26629 25.7273 1.68255 25.3851C0.56085 24.8149 0 24.0509 0 23.1044C0 22.6368 0.297594 22.1692 0.881335 21.6789C1.48797 21.1885 2.10605 20.949 2.71268 20.949C3.6398 20.949 4.55547 21.2797 5.4597 21.9298C5.87175 22.2491 6.45549 22.8079 7.21092 23.6061C10.6333 21.7131 13.8724 19.6604 16.9514 17.4708C19.046 15.9655 21.5183 14.0382 24.3455 11.7004L19.5153 13.3426C15.3604 14.5628 13.0369 15.1558 12.5218 15.133C12.1784 15.133 12.0068 14.9506 12.0068 14.5856L19.1833 12.1794C23.0406 10.7881 25.2153 9.98984 25.7075 9.77317C25.8792 9.33982 25.9593 8.97489 25.9593 8.67839C25.9593 7.34413 25.0322 5.99847 23.178 4.66421C22.0334 3.84312 20.74 3.2045 19.2978 2.77115C17.9357 2.36061 16.7225 2.18955 15.6694 2.25798C12.5905 2.45184 10.4272 2.98783 9.19106 3.86593C7.33683 5.15458 6.39826 6.51164 6.37537 7.91433C6.35248 9.07753 6.90188 10.2521 8.02358 11.4153C8.8019 12.1224 9.85493 12.4759 11.1712 12.4759C11.9724 12.4759 13.1514 12.1338 14.6851 11.4495C16.6195 10.5486 17.5809 9.85299 17.5809 9.37403C17.5809 9.03191 17.3749 8.81524 16.9628 8.7126L15.7954 8.53014C15.452 8.46172 15.017 8.46172 14.4791 8.53014C13.8953 8.59856 13.4947 8.63277 13.2658 8.59856C13.0254 8.57575 12.8995 8.38189 12.8995 8.01696C12.8995 7.77748 13.2887 7.58361 14.067 7.43536C14.8225 7.30992 15.5092 7.30992 16.1158 7.43536C17.0659 7.65204 17.6839 7.82309 17.9472 7.94854C18.5309 8.22223 18.84 8.64418 18.8629 9.22578C18.9086 10.1267 17.7984 11.1416 15.5321 12.2592C13.7694 13.1373 12.3044 13.5707 11.1369 13.5707C9.00793 13.6163 7.49707 13.0461 6.59284 11.8601C5.49404 10.4004 4.95608 9.06612 4.97897 7.8459C5.00186 5.89583 6.16935 4.23086 8.45853 2.85098C10.5302 1.68778 12.8766 1.04916 15.4863 0.95793C16.814 0.923718 18.3249 1.14039 20.0303 1.60795C21.9876 2.14394 23.6244 3.02204 24.9406 4.23086C26.0166 5.17738 26.7376 6.03268 27.1039 6.78534C27.2756 7.04763 27.4358 7.59502 27.5846 8.4275C28.1913 8.01696 28.8895 7.48098 29.6678 6.81955C30.7666 5.89583 31.4877 5.30283 31.8311 5.02913C36.2721 1.67638 38.6185 0 38.8589 0C39.6143 0 39.992 0.37633 39.992 1.12899ZM5.97476 24.2333C5.4597 23.6061 5.07054 23.1842 4.80728 22.9903C4.14342 22.3859 3.491 22.078 2.82714 22.078C2.48376 22.1008 2.14039 22.2491 1.79701 22.5114C1.45363 22.785 1.29339 23.0359 1.31628 23.2754C1.31628 23.4921 1.56809 23.7886 2.08316 24.1535C2.5181 24.5641 3.03317 24.7921 3.61691 24.8149C4.338 24.8606 5.11632 24.6667 5.97476 24.2333ZM22.64 14.8479C20.74 16.3304 19.1833 17.5164 17.993 18.3831C14.8911 20.5499 11.6519 22.5912 8.28684 24.5184C9.90071 25.3965 11.5031 25.7843 13.0827 25.6816C15.6008 25.5334 18.6225 23.5263 22.1707 19.6604C23.9792 17.6419 25.1352 15.6804 25.6503 13.7874C25.8449 13.1031 25.9593 12.5785 25.9822 12.2136L22.64 14.8479ZM42.0523 20.6183C42.0294 20.892 40.3926 22.1464 37.142 24.4158C35.1618 25.7729 33.4564 26.5597 32.0142 26.7536C31.4991 26.822 30.9726 26.6282 30.4347 26.172C29.8738 25.7387 29.5877 25.2483 29.5877 24.7123C29.5877 23.0131 30.4461 20.9946 32.1516 18.6568C33.3992 16.9576 34.5209 16.1023 35.5167 16.1023C36.0317 16.1023 36.4896 16.3874 36.9131 16.9462C37.2793 17.4822 37.451 18.0296 37.4281 18.5884C37.3823 19.9227 36.398 21.1201 34.498 22.1692C33.6968 22.6026 32.6437 23.0017 31.3503 23.3324C31.1558 23.6974 31.0528 24.1079 31.0528 24.5755C31.0528 24.986 31.4419 25.2369 32.2202 25.3053C32.7124 25.3281 33.9486 24.7693 35.9516 23.6289C39.9806 21.2911 41.8348 20.1279 41.5143 20.1279C41.9035 20.1051 42.0752 20.2762 42.0523 20.6183ZM35.963 18.4972C35.963 17.9612 35.7456 17.6989 35.2992 17.6989C34.7383 17.6989 34.0974 18.2805 33.3992 19.4551L32.0028 21.7929C33.1474 21.599 34.0516 21.1885 34.7154 20.5499C35.551 19.763 35.963 19.0902 35.963 18.4972ZM79.1828 20.4701C79.137 21.2227 77.134 22.785 73.1737 25.1457C70.7815 26.5597 68.6755 27.3352 66.8784 27.4835C66.3405 27.5291 65.8483 27.3238 65.4134 26.8677C64.9784 26.4001 64.7495 25.8299 64.7495 25.1571C64.7495 24.7237 65.2417 23.5491 66.2146 21.6561C66.3634 21.3368 66.7297 20.778 67.3134 19.9797C67.7712 19.3753 68.0002 18.9533 67.9773 18.7367C67.9544 18.3945 67.7026 18.2007 67.2447 18.1551C66.558 18.1094 64.6579 19.0788 61.5332 21.0745C61.0639 21.5078 60.4115 22.2947 59.5531 23.4123C58.7976 24.3816 58.2139 24.872 57.7904 24.872C57.2753 24.872 56.9548 24.5755 56.8404 23.9939C56.8175 23.9026 57.55 23.0701 59.038 21.5078C60.1139 20.413 60.6519 19.4551 60.6519 18.6226C60.6519 18.0638 60.3314 17.7787 59.7019 17.7787C58.9235 17.7787 57.9964 17.9726 56.9205 18.3603C54.8488 19.1358 53.212 20.0139 52.0102 20.9832C51.4494 21.4508 50.8656 22.0096 50.2475 22.6596C49.4921 23.4921 48.9771 24.0167 48.7138 24.2676C47.512 25.3167 46.7794 25.8299 46.5162 25.7957C46.0812 25.7273 45.8294 25.408 45.7836 24.8492C45.7607 24.5869 46.3445 23.8228 47.5463 22.5912C48.9885 21.1087 49.6981 20.185 49.6753 19.82C49.6295 19.284 49.3548 19.0218 48.874 19.0218C48.2331 19.0218 47.0656 19.4323 45.3601 20.2648C44.9252 20.4586 44.2384 20.9148 43.3113 21.6104C42.5559 22.1692 42.0866 22.4315 41.9149 22.3745C41.3541 22.2263 41.0908 22.0096 41.1137 21.7131C41.1824 21.1087 42.43 20.1621 44.8451 18.8621C46.1614 18.1551 47.7294 17.7217 49.5379 17.5506C49.9728 17.505 50.4078 17.7217 50.8198 18.2121C51.1632 18.6454 51.3692 19.0902 51.4379 19.5235C52.0446 19.0674 53.3494 18.4287 55.3524 17.6305C57.4814 16.7524 58.935 16.319 59.7133 16.319C61.0067 16.319 61.785 16.9006 62.0597 18.0752C62.1513 18.4402 62.2085 18.7823 62.2085 19.1016C62.529 19.0103 63.4676 18.5314 65.0242 17.6761C66.3405 16.9919 67.2333 16.6725 67.7026 16.6954C68.9273 16.7638 69.5568 17.2998 69.6026 18.3033C69.6026 18.2121 68.9959 19.3753 67.7712 21.8043C66.7411 23.8912 66.2375 24.986 66.2375 25.0886C66.2375 25.7729 66.5007 26.115 67.0387 26.115C68.1604 26.115 70.0146 25.408 72.6014 23.9939C73.4026 23.5605 74.696 22.6824 76.4816 21.371C77.8207 20.4016 78.6334 19.9341 78.8967 19.9797C79.0912 20.0139 79.1828 20.185 79.1828 20.4701ZM94.3486 21.3482C94.3028 21.9868 92.4715 23.1272 88.8546 24.7807C85.7985 26.1378 83.5322 26.7992 82.0443 26.7536C81.2888 26.7308 80.6364 26.5027 80.0985 26.058C79.5147 25.5676 79.1828 24.929 79.1141 24.1193C78.9882 22.6824 79.778 20.9376 81.4605 18.8621C83.6124 16.262 85.5811 14.9506 87.3895 14.9163C88.0534 14.8935 88.557 15.2242 88.9233 15.8971C89.2667 16.4787 89.4269 17.1743 89.404 17.9726C89.3811 18.634 89.1865 19.2954 88.8203 19.9797C88.4311 20.7095 88.0534 21.0631 87.6871 21.0403C87.298 20.9946 87.1263 20.7209 87.1721 20.242C87.1721 20.2876 87.3437 19.8885 87.6871 19.0332C87.9847 18.3717 88.0534 17.8243 87.9046 17.391C87.6871 16.6383 87.4696 16.2734 87.2407 16.2962C85.604 16.4673 84.0473 17.6077 82.5479 19.7288C81.3804 21.428 80.7623 22.7736 80.7166 23.743C80.6708 25.0088 81.1515 25.5676 82.1816 25.4194C83.6238 25.2255 85.5238 24.6439 87.8931 23.6632C88.8203 23.2982 90.0564 22.671 91.5902 21.7701C92.9522 20.9718 93.7077 20.5499 93.8221 20.5271C94.2342 20.4701 94.4059 20.7437 94.3486 21.3482ZM117.641 20.4701C117.664 20.8578 116.989 21.5762 115.627 22.6254C114.23 23.6746 112.983 24.4386 111.849 24.929C110.236 25.6132 108.816 25.9553 107.603 25.9553C106.241 25.9553 105.211 25.4194 104.524 24.3474C104.398 24.1763 104.238 23.9026 104.043 23.5035C103.826 23.0131 103.666 22.6938 103.563 22.5228C103.391 22.671 103.036 22.9333 102.498 23.321C102.006 23.6632 101.605 23.9825 101.285 24.2676C101.159 24.3702 100.758 24.8492 100.072 25.7273C99.4878 26.4571 99.0872 26.822 98.8583 26.822C98.3204 26.822 97.9999 26.651 97.9083 26.3089C97.8854 26.2404 98.9041 24.9974 100.987 22.5912C102.887 20.4244 103.849 19.0446 103.849 18.4287C103.849 18.0182 103.631 17.7673 103.185 17.6989C102.796 17.6533 101.457 18.2577 99.1559 19.5235C98.6408 19.7972 97.6222 20.4586 96.077 21.5306C94.8751 22.3859 94.1998 22.7851 94.0282 22.7394C93.3986 22.614 93.1239 22.3973 93.2269 22.078C93.2727 21.9069 93.9824 21.3482 95.3559 20.4016C96.695 19.4779 97.6794 18.8735 98.286 18.577C101.044 17.1857 102.75 16.4559 103.414 16.3874C103.872 16.3418 104.318 16.4445 104.73 16.7182C105.165 16.9919 105.394 17.3112 105.394 17.6989C105.394 18.1094 105.268 18.6226 105.028 19.227C104.787 19.8656 104.661 20.3218 104.661 20.6183C104.535 20.6183 105.692 19.9341 108.107 18.577C110.739 17.0489 112.124 16.2962 112.25 16.319C112.513 16.3646 112.651 16.5927 112.651 16.9805C112.651 17.0489 111.506 17.8586 109.205 19.3867L107.374 20.6297C106.596 21.1885 105.909 21.6561 105.325 22.021C105.257 22.1236 105.279 22.4315 105.394 22.9675C105.44 23.2868 105.657 23.6403 106.058 24.0281C106.573 24.5184 107.134 24.7465 107.74 24.7237C108.931 24.6781 110.064 24.4044 111.105 23.9254C111.907 23.5377 113.154 22.7736 114.837 21.6218C116.302 20.6297 117.103 20.1279 117.252 20.1279C117.481 20.1051 117.595 20.2306 117.641 20.4701ZM129.327 20.1393C129.327 21.4964 128.366 22.9561 126.432 24.5184C124.669 25.9553 122.746 26.651 120.64 26.594C119.415 26.5712 118.477 26.2062 117.824 25.4992C117.263 24.8948 117.012 24.1649 117.057 23.3096C117.103 21.9526 117.687 20.9376 118.82 20.2762C119.015 20.1507 119.404 20.0937 119.987 20.0937C120.136 20.0025 120.342 19.7972 120.606 19.5121C120.903 19.2156 121.121 19.0218 121.269 18.9305C123.192 17.7901 124.772 17.2199 125.997 17.2199C126.992 17.2199 127.805 17.505 128.412 18.0638C129.03 18.5998 129.327 19.2954 129.327 20.1393ZM127.942 19.9227C127.942 19.1244 127.347 18.691 126.145 18.6454C124.852 18.5998 123.616 19.056 122.448 20.0367C122.277 20.1621 122.048 20.4358 121.75 20.8806C121.51 21.2455 121.247 21.4622 120.983 21.542C120.834 21.5648 120.674 21.5648 120.503 21.542H120.022C119.61 21.5876 119.232 21.8841 118.889 22.4201C118.648 22.8535 118.522 23.1956 118.522 23.4465C118.522 23.9368 118.763 24.3702 119.255 24.7579C119.77 25.1229 120.354 25.3053 121.018 25.3053C122.265 25.3053 123.685 24.7807 125.264 23.7316C127.05 22.5342 127.942 21.2683 127.942 19.9227ZM144.058 20.6183C144.035 20.892 142.399 22.1464 139.148 24.4158C137.168 25.7729 135.462 26.5597 134.02 26.7536C133.505 26.822 132.979 26.6282 132.441 26.172C131.88 25.7387 131.594 25.2483 131.594 24.7123C131.594 23.0131 132.452 20.9946 134.158 18.6568C135.405 16.9576 136.527 16.1023 137.523 16.1023C138.038 16.1023 138.496 16.3874 138.919 16.9462C139.285 17.4822 139.457 18.0296 139.434 18.5884C139.388 19.9227 138.404 21.1201 136.504 22.1692C135.703 22.6026 134.65 23.0017 133.356 23.3324C133.162 23.6974 133.059 24.1079 133.059 24.5755C133.059 24.986 133.448 25.2369 134.226 25.3053C134.718 25.3281 135.955 24.7693 137.958 23.6289C141.987 21.2911 143.841 20.1279 143.52 20.1279C143.909 20.1051 144.081 20.2762 144.058 20.6183ZM137.969 18.4972C137.969 17.9612 137.752 17.6989 137.305 17.6989C136.744 17.6989 136.103 18.2805 135.405 19.4551L134.009 21.7929C135.153 21.599 136.058 21.1885 136.721 20.5499C137.557 19.763 137.969 19.0902 137.969 18.4972ZM177.24 9.05472C177.24 12.6812 175.626 16.5585 172.41 20.6981C169.159 24.929 166.401 27.0501 164.134 27.0501C163.184 27.0501 162.532 26.9019 162.189 26.6168C161.822 26.3203 161.616 25.7615 161.57 24.9404C161.502 23.8684 162.738 22.1464 165.302 19.763C166.87 18.3033 168.209 17.5963 169.331 17.6419C169.354 17.6419 170.132 18.0752 171.677 18.9533C174.367 16.1023 175.706 12.9207 175.706 9.39684C175.706 7.16167 174.722 5.69056 172.742 4.98352C171.792 4.66421 170.235 4.50455 168.095 4.50455C163.036 4.50455 157.793 5.35985 152.345 7.05903C149.884 7.8345 146.943 9.02051 143.52 10.5942L139.011 12.6698C138.713 12.6698 138.576 12.5215 138.576 12.2364C138.599 11.7803 140.201 10.7995 143.371 9.31701C146.428 7.90292 149.175 6.80815 151.613 6.03268C157.496 4.13963 162.864 3.1817 167.728 3.1817C170.762 3.1817 172.993 3.52381 174.436 4.20805C176.301 5.09756 177.24 6.71691 177.24 9.05472ZM170.132 20.6183C169.937 20.0367 169.594 19.649 169.102 19.4551C168.758 19.3297 168.209 19.4779 167.454 19.8885C166.721 20.2762 166.103 20.7666 165.588 21.3482C164.02 23.1044 163.196 24.3132 163.093 24.9974C163.047 25.2369 163.39 25.465 164.123 25.6588C164.787 25.8527 166.08 25.1 168.003 23.4009C169.136 22.3745 169.834 21.4508 170.132 20.6183ZM189.945 20.1393C189.945 21.4964 188.983 22.9561 187.049 24.5184C185.286 25.9553 183.363 26.651 181.257 26.594C180.033 26.5712 179.094 26.2062 178.442 25.4992C177.881 24.8948 177.629 24.1649 177.675 23.3096C177.721 21.9526 178.304 20.9376 179.438 20.2762C179.632 20.1507 180.021 20.0937 180.605 20.0937C180.754 20.0025 180.96 19.7972 181.223 19.5121C181.521 19.2156 181.738 19.0218 181.887 18.9305C183.81 17.7901 185.389 17.2199 186.614 17.2199C187.61 17.2199 188.423 17.505 189.029 18.0638C189.647 18.5998 189.945 19.2954 189.945 20.1393ZM188.56 19.9227C188.56 19.1244 187.965 18.691 186.763 18.6454C185.47 18.5998 184.233 19.056 183.066 20.0367C182.894 20.1621 182.665 20.4358 182.368 20.8806C182.127 21.2455 181.864 21.4622 181.601 21.542C181.452 21.5648 181.292 21.5648 181.12 21.542H180.639C180.227 21.5876 179.85 21.8841 179.506 22.4201C179.266 22.8535 179.14 23.1956 179.14 23.4465C179.14 23.9368 179.38 24.3702 179.872 24.7579C180.388 25.1229 180.971 25.3053 181.635 25.3053C182.883 25.3053 184.302 24.7807 185.882 23.7316C187.667 22.5342 188.56 21.2683 188.56 19.9227ZM218.914 21.2797C218.914 21.9868 217.495 23.0587 214.668 24.4956C212.882 25.3965 211.44 25.8527 210.341 25.8869C209.14 25.9097 208.27 25.1343 207.709 23.5491C204.905 24.9062 202.993 25.5676 201.997 25.522C201.047 25.4764 200.292 24.7009 199.731 23.1842C198.335 23.9825 197.385 24.4956 196.87 24.7123C194.821 25.5676 193.47 25.9553 192.841 25.8755C191.765 25.7501 191.25 25.1685 191.307 24.1193C191.33 23.5833 192.452 22.2719 194.672 20.1736C196.458 18.4972 197.556 17.6191 197.968 17.5506C198.358 17.4822 198.552 17.7217 198.552 18.2805C198.552 18.2121 197.602 19.1814 195.691 21.1999C194.226 22.7622 193.493 23.5833 193.493 23.686C193.424 23.9254 193.585 24.0737 194.008 24.1193C194.89 24.2448 197.007 23.2184 200.384 21.0517C204.115 18.7595 205.946 17.6191 205.878 17.6191C206.072 17.5963 206.244 17.6761 206.393 17.87C206.541 18.041 206.61 18.2235 206.61 18.4173C206.61 18.2691 205.752 18.9989 204.046 20.6069C203.852 20.778 203.417 21.1543 202.73 21.7359C202.215 22.1692 201.849 22.557 201.631 22.8649C202.02 23.6403 202.341 24.0281 202.581 24.0281C204.115 24.0281 205.923 23.15 208.007 21.4052L210.639 19.284C212.299 17.9726 213.203 17.3226 213.352 17.3454C214.038 17.4708 214.382 17.8928 214.382 18.6226C214.382 18.4287 213.283 19.3297 211.085 21.3253C210.376 22.0096 209.987 22.5456 209.918 22.9333C209.849 23.2298 209.941 23.5377 210.216 23.8798C210.456 24.2219 210.731 24.393 211.017 24.393C211.383 24.393 212.31 24.0737 213.798 23.4465C214.508 23.1272 215.423 22.5684 216.545 21.7701C217.598 21.0174 218.17 20.6297 218.262 20.6069C218.697 20.4929 218.914 20.7209 218.914 21.2797ZM242.504 20.4701C242.527 20.8578 241.852 21.5762 240.49 22.6254C239.094 23.6746 237.846 24.4386 236.713 24.929C235.099 25.6132 233.68 25.9553 232.466 25.9553C231.104 25.9553 230.074 25.4194 229.387 24.3474C229.262 24.1763 229.101 23.9026 228.907 23.5035C228.689 23.0131 228.529 22.6938 228.426 22.5228C228.254 22.671 227.9 22.9333 227.362 23.321C226.869 23.6632 226.469 23.9825 226.148 24.2676C226.022 24.3702 225.622 24.8492 224.935 25.7273C224.351 26.4571 223.951 26.822 223.722 26.822C223.184 26.822 222.863 26.651 222.772 26.3089C222.749 26.2404 223.768 24.9974 225.851 22.5912C227.751 20.4244 228.712 19.0446 228.712 18.4287C228.712 18.0182 228.495 17.7673 228.048 17.6989C227.659 17.6533 226.32 18.2577 224.019 19.5235C223.504 19.7972 222.486 20.4586 220.94 21.5306C219.739 22.3859 219.063 22.7851 218.892 22.7394C218.262 22.614 217.987 22.3973 218.09 22.078C218.136 21.9069 218.846 21.3482 220.219 20.4016C221.558 19.4779 222.543 18.8735 223.149 18.577C225.908 17.1857 227.613 16.4559 228.277 16.3874C228.735 16.3418 229.181 16.4445 229.594 16.7182C230.028 16.9919 230.257 17.3112 230.257 17.6989C230.257 18.1094 230.131 18.6226 229.891 19.227C229.651 19.8656 229.525 20.3218 229.525 20.6183C229.399 20.6183 230.555 19.9341 232.97 18.577C235.603 17.0489 236.988 16.2962 237.113 16.319C237.377 16.3646 237.514 16.5927 237.514 16.9805C237.514 17.0489 236.369 17.8586 234.069 19.3867L232.238 20.6297C231.459 21.1885 230.772 21.6561 230.189 22.021C230.12 22.1236 230.143 22.4315 230.257 22.9675C230.303 23.2868 230.521 23.6403 230.921 24.0281C231.436 24.5184 231.997 24.7465 232.604 24.7237C233.794 24.6781 234.927 24.4044 235.969 23.9254C236.77 23.5377 238.018 22.7736 239.7 21.6218C241.165 20.6297 241.967 20.1279 242.115 20.1279C242.333 20.1051 242.459 20.2306 242.504 20.4701ZM254.191 20.1393C254.191 21.4964 253.229 22.9561 251.295 24.5184C249.532 25.9553 247.609 26.651 245.503 26.594C244.279 26.5712 243.34 26.2062 242.688 25.4992C242.127 24.8948 241.875 24.1649 241.921 23.3096C241.967 21.9526 242.55 20.9376 243.683 20.2762C243.878 20.1507 244.267 20.0937 244.851 20.0937C245 20.0025 245.206 19.7972 245.469 19.5121C245.767 19.2156 245.984 19.0218 246.133 18.9305C248.056 17.7901 249.635 17.2199 250.86 17.2199C251.856 17.2199 252.668 17.505 253.275 18.0638C253.882 18.5998 254.191 19.2954 254.191 20.1393ZM252.806 19.9227C252.806 19.1244 252.211 18.691 251.009 18.6454C249.715 18.5998 248.479 19.056 247.312 20.0367C247.14 20.1621 246.911 20.4358 246.614 20.8806C246.373 21.2455 246.11 21.4622 245.847 21.542C245.698 21.5648 245.538 21.5648 245.366 21.542H244.885C244.473 21.5876 244.095 21.8841 243.752 22.4201C243.512 22.8535 243.386 23.1956 243.386 23.4465C243.386 23.9368 243.626 24.3702 244.118 24.7579C244.633 25.1229 245.217 25.3053 245.881 25.3053C247.129 25.3053 248.548 24.7807 250.127 23.7316C251.913 22.5342 252.806 21.2683 252.806 19.9227ZM282.657 20.835C282.531 21.2227 281.318 22.2263 278.994 23.8228C276.774 25.3851 274.839 26.1606 273.202 26.1606C270.879 26.1606 269.276 25.3623 268.372 23.7544C267.96 22.9789 267.789 22.4657 267.857 22.2263C264.629 24.0965 263.096 24.9974 263.244 24.929C260.944 26.0466 259.319 26.6054 258.334 26.6054C256.697 26.6054 255.942 25.9211 256.068 24.5641C256.137 23.7088 256.491 22.8193 257.132 21.8955C257.819 20.9034 258.46 20.4472 259.078 20.5499C259.422 20.5955 259.57 20.7894 259.513 21.1315C259.49 21.3253 259.353 21.5306 259.113 21.7473C258.769 22.0438 258.563 22.2491 258.494 22.3631C257.831 23.3324 257.487 24.0395 257.464 24.4842C257.419 25.0202 257.705 25.2825 258.346 25.2825C259.009 25.2825 260.303 24.8492 262.226 23.9711C263.13 23.5605 264.206 22.9447 265.454 22.1464C267.239 20.9832 268.704 19.9113 269.849 18.9305L271.348 17.1743C272.012 16.3988 272.527 16.0339 272.928 16.0795C273.557 16.1822 273.855 16.3988 273.809 16.741C273.74 17.1059 273.099 17.984 271.909 19.3639C270.536 21.0402 269.86 22.1236 269.86 22.614C269.86 23.2526 270.192 23.7772 270.845 24.2219C271.508 24.6895 272.321 24.9176 273.294 24.9176C274.244 24.9176 275.789 24.2904 277.907 23.0245C280.928 21.1543 282.325 20.2306 282.084 20.2534C282.233 20.2306 282.382 20.2762 282.519 20.4016C282.657 20.5271 282.703 20.6639 282.657 20.835ZM289.936 21.5306C290.177 22.4543 289.776 23.5035 288.723 24.6667C287.716 25.8071 286.663 26.5027 285.541 26.7422C284.683 26.9361 283.847 26.7536 283.012 26.1948C282.13 25.6132 281.707 24.9062 281.73 24.0737C281.775 22.8079 282.806 21.3482 284.809 19.6946L286.674 17.2085C287.556 16.0681 288.185 15.4409 288.574 15.3497C289.089 15.2014 289.353 15.3953 289.375 15.9313C289.398 16.1252 289.215 16.4445 288.826 16.8778C288.311 17.4594 287.979 17.8586 287.842 18.0866C287.281 18.8849 286.857 19.5691 286.56 20.1279C287.144 20.0823 287.533 20.0823 287.727 20.1279C289.009 20.2192 289.742 20.6753 289.936 21.5306ZM288.551 22.1464C288.448 21.5192 287.865 21.2683 286.789 21.4166C285.759 21.5648 285.072 21.7815 284.706 22.078C283.996 23.5377 283.618 24.1991 283.572 24.0509C283.675 24.4614 283.904 24.7921 284.271 25.0316C284.614 25.2711 284.992 25.3623 285.404 25.2825C286.033 25.2141 286.743 24.8035 287.533 24.0737C288.334 23.3552 288.666 22.7166 288.551 22.1464ZM315.358 20.7666C315.426 21.3253 313.984 22.614 311.031 24.6325C309.349 25.7957 307.861 26.3887 306.567 26.3887C304.713 26.3887 303.786 25.3623 303.786 23.321C303.809 22.6368 304.003 21.7929 304.37 20.7666C304.198 20.7666 303.832 20.7323 303.271 20.6525C302.802 20.6069 302.47 20.5955 302.241 20.6183C301.096 20.7666 300.169 20.8122 299.459 20.7666L297.845 22.9561C296.083 25.2939 294.961 26.4343 294.48 26.3887C294.091 26.3203 293.897 26.2632 293.897 26.2404C293.771 25.9211 294.332 24.929 295.579 23.2526C296.266 22.3289 296.873 21.3025 297.411 20.185C297.17 20.3104 296.358 20.8464 294.995 21.7929C293.92 22.5456 293.21 22.9333 292.866 22.9561C292.626 22.9561 292.477 22.7851 292.432 22.4429C292.363 22.0324 292.775 21.5306 293.679 20.949C295.213 19.9797 296.289 19.2384 296.907 18.7253C298.738 17.1173 299.974 16.3532 300.604 16.4217C300.924 16.4445 301.13 16.7068 301.222 17.1857C301.314 17.6761 301.119 18.3033 300.638 19.0788H302.687C302.813 19.0788 303.179 19.113 303.786 19.1928C304.278 19.2612 304.621 19.2726 304.816 19.227C305.228 18.8165 305.617 18.3717 305.983 17.9156C306.934 16.7524 307.643 16.1594 308.112 16.1594C308.845 16.1594 309.165 16.3532 309.062 16.741C309.04 16.8436 308.628 17.5392 307.815 18.8621C306.247 21.4166 305.468 22.8991 305.468 23.3096C305.468 24.4272 305.984 24.986 307.002 24.986C307.861 24.986 308.902 24.5755 310.15 23.743C310.516 23.5035 311.397 22.8193 312.782 21.7017C313.95 20.7552 314.614 20.2648 314.763 20.242C315.117 20.185 315.312 20.356 315.358 20.7666ZM327.376 20.1393C327.376 21.4964 326.414 22.9561 324.48 24.5184C322.717 25.9553 320.794 26.651 318.688 26.594C317.464 26.5712 316.525 26.2062 315.873 25.4992C315.312 24.8948 315.06 24.1649 315.106 23.3096C315.152 21.9526 315.735 20.9376 316.869 20.2762C317.063 20.1507 317.452 20.0937 318.036 20.0937C318.185 20.0025 318.391 19.7972 318.654 19.5121C318.952 19.2156 319.169 19.0218 319.318 18.9305C321.241 17.7901 322.82 17.2199 324.045 17.2199C325.041 17.2199 325.854 17.505 326.46 18.0638C327.067 18.5998 327.376 19.2954 327.376 20.1393ZM325.979 19.9227C325.979 19.1244 325.384 18.691 324.183 18.6454C322.889 18.5998 321.653 19.056 320.485 20.0367C320.314 20.1621 320.085 20.4358 319.787 20.8806C319.547 21.2455 319.284 21.4622 319.02 21.542C318.872 21.5648 318.711 21.5648 318.54 21.542H318.059C317.647 21.5876 317.269 21.8841 316.926 22.4201C316.685 22.8535 316.56 23.1956 316.56 23.4465C316.56 23.9368 316.8 24.3702 317.292 24.7579C317.807 25.1229 318.391 25.3053 319.055 25.3053C320.302 25.3053 321.71 24.7807 323.301 23.7316C325.087 22.5342 325.979 21.2683 325.979 19.9227ZM342.095 20.6183C342.072 20.892 340.436 22.1464 337.185 24.4158C335.205 25.7729 333.499 26.5597 332.057 26.7536C331.542 26.822 331.016 26.6282 330.478 26.172C329.917 25.7387 329.631 25.2483 329.631 24.7123C329.631 23.0131 330.489 20.9946 332.195 18.6568C333.442 16.9576 334.564 16.1023 335.56 16.1023C336.075 16.1023 336.533 16.3874 336.956 16.9462C337.322 17.4822 337.494 18.0296 337.471 18.5884C337.425 19.9227 336.441 21.1201 334.541 22.1692C333.74 22.6026 332.687 23.0017 331.393 23.3324C331.199 23.6974 331.096 24.1079 331.096 24.5755C331.096 24.986 331.485 25.2369 332.263 25.3053C332.755 25.3281 333.992 24.7693 335.995 23.6289C340.024 21.2911 341.878 20.1279 341.557 20.1279C341.947 20.1051 342.118 20.2762 342.095 20.6183ZM336.018 18.4972C336.018 17.9612 335.8 17.6989 335.354 17.6989C334.793 17.6989 334.152 18.2805 333.454 19.4551L332.057 21.7929C333.202 21.599 334.106 21.1885 334.77 20.5499C335.606 19.763 336.018 19.0902 336.018 18.4972Z" fill="url(#paint0_linear_0_158)"/>
<path d="M63.5477 55.3204C63.5477 55.2292 61.4188 56.7345 57.1723 59.8478C53.8988 62.2084 51.6096 64.1585 50.2819 65.6866C50.3735 65.5156 49.7096 66.8954 48.2674 69.8148C47.0999 72.1526 45.9553 73.9887 44.8565 75.3229L41.7776 79.0406C40.6101 80.2836 39.6486 80.8881 38.9161 80.8653C37.4052 80.8196 36.6498 80.1126 36.6498 78.7441C36.6498 77.159 38.6528 74.5133 42.6589 70.7842C45.3258 68.2297 47.4662 66.2112 49.103 64.7287L49.9843 62.5733C50.3735 61.604 50.671 60.7829 50.8656 60.1329C50.9343 59.8706 51.1747 59.3118 51.5638 58.4565C51.9301 57.6012 52.159 56.974 52.262 56.5635C50.0186 57.9776 47.821 58.6846 45.6692 58.6846C44.5017 58.6846 43.7348 58.4679 43.4029 58.0232C43.2083 57.8065 43.0595 57.2705 42.968 56.4152C42.8993 55.6854 43.3914 54.7731 44.4674 53.6783C45.4975 52.6519 46.1843 52.1844 46.5505 52.2528C47.0656 52.3212 47.3288 52.5493 47.3517 52.9142C47.3517 52.9826 46.9168 53.4274 46.0355 54.2257C45.1083 55.0582 44.6162 55.8108 44.5704 56.4837C44.5246 57.0196 44.8336 57.2819 45.5204 57.2819C48.4505 57.2819 51.209 56.1415 53.7958 53.8493C54.9404 52.4353 55.6958 51.5686 56.0621 51.2264C57.3784 49.9606 58.3513 49.3334 58.9922 49.3334C59.2555 49.3334 59.5073 49.4474 59.7248 49.6641C59.9422 49.8808 60.0452 50.1089 60.0224 50.3597C60.0224 50.4852 59.1639 51.2607 57.4585 52.6975C55.9705 54.009 55.0892 54.8415 54.8259 55.1836C54.2193 56.1529 53.7271 57.1337 53.3608 58.103C52.7542 59.8592 52.4108 60.9996 52.3307 61.5356L56.9434 58.3197C60.7549 55.8906 62.7579 54.6704 62.9525 54.6704C63.1013 54.6476 63.2387 54.7274 63.3531 54.9213C63.4905 55.0696 63.5477 55.2064 63.5477 55.3204ZM47.5807 68.0244C45.3144 70.1113 43.7463 71.6281 42.8878 72.5518C39.6372 76.1326 38.0577 78.2195 38.1263 78.824C38.1721 79.1661 38.4239 79.3371 38.8589 79.3371C39.9119 79.3371 41.4685 77.7748 43.5517 74.6615C44.9939 72.5518 46.333 70.328 47.5807 68.0244ZM100.61 54.7388C100.587 55.252 99.3391 56.324 96.8782 57.9548C93.9938 59.825 91.8191 60.7715 90.354 60.8057C89.9191 60.8057 89.5528 60.6005 89.2552 60.1899C88.9805 59.825 88.8661 59.4031 88.8889 58.9127C88.9347 58.2513 89.6673 57.1337 91.0866 55.5599C92.254 54.2029 92.8721 53.4388 92.9179 53.302C92.5059 53.5414 91.9107 53.8151 91.1552 54.1002C90.148 54.5108 89.4727 54.8073 89.1064 54.9783C87.2522 56.0047 85.2034 56.9056 82.9485 57.6811C76.4243 64.9568 72.6701 69.1192 71.6628 70.157C63.9712 78.1853 60.1597 82.1995 60.2398 82.1995C59.8965 82.1995 59.7019 82.0741 59.6561 81.8346C59.6561 81.7662 63.3875 77.5239 70.8616 69.1306L73.9749 65.7322C75.0966 64.4892 76.2527 63.1892 77.4545 61.8321C80.4876 58.3995 82.6853 55.8678 84.0473 54.2371L82.6509 54.9669C81.0599 55.8678 80.3846 56.324 80.6021 56.3582C80.3617 56.3354 80.1099 56.1187 79.8696 55.6968C79.6979 55.3547 80.8997 54.4766 83.4636 53.0739C84.0244 52.7774 84.6425 52.401 85.3293 51.9449C86.0389 51.4887 86.5654 51.158 86.9088 50.9641C87.7672 50.2571 88.3853 49.9492 88.7745 50.0518C89.1408 50.1203 89.3239 50.3027 89.3239 50.5992C89.3239 50.5536 88.6944 51.2607 87.4239 52.7204C86.2564 54.0318 85.5238 54.8871 85.2262 55.2748C86.1534 55.0582 87.6871 54.3967 89.839 53.302C92.3799 51.9449 94.1655 51.2607 95.1842 51.2607C95.4818 51.2607 95.5962 51.5001 95.5505 51.9905C95.4475 52.6747 94.5432 53.8607 92.8378 55.5713C91.1552 57.3275 90.3197 58.4451 90.3426 58.9241C90.3884 59.3118 90.56 59.5057 90.8576 59.5057C91.7848 59.5057 93.5703 58.6504 96.2029 56.9512C98.721 55.2976 99.9915 54.4652 100.014 54.4652C100.415 54.3967 100.61 54.4994 100.61 54.7388ZM79.8467 55.252C79.6979 56.0047 78.0954 57.3161 75.0508 59.1978C72.8303 60.5891 70.9074 61.2163 69.305 61.0908C68.0345 60.9882 67.4622 60.4636 67.5881 59.4829C67.714 58.7074 68.0231 57.9548 68.5381 57.2249C68.5839 57.1793 69.1562 56.5179 70.255 55.252C69.7857 55.252 69.3737 55.1836 69.0074 55.0354C68.2749 54.7388 67.7483 54.3283 67.4279 53.7923C66.867 54.5678 66.226 55.252 65.5278 55.8336C64.6694 56.5179 64.1658 56.86 63.9941 56.86C63.8224 56.86 63.6622 56.803 63.5134 56.6775C63.3646 56.5521 63.3073 56.4266 63.3302 56.2784C63.3531 56.2556 63.8224 55.7196 64.7266 54.6704L66.3062 52.9142C67.7712 50.6334 68.7441 49.4588 69.2363 49.4132C69.4309 49.3904 69.6255 49.4474 69.8201 49.5957C70.0146 49.7667 70.1176 49.972 70.1176 50.2115C70.0948 50.4852 69.9002 50.9071 69.5339 51.4887C69.099 52.1958 68.8014 52.7204 68.6526 53.0625C68.87 53.4502 69.1447 53.6669 69.4538 53.7239C70.0146 53.8722 70.6785 53.8722 71.4339 53.7239C71.8918 53.5756 72.5098 53.1879 73.2653 52.5607C73.9291 52.0475 74.3641 51.808 74.5816 51.8308C75.0737 51.8765 75.337 52.173 75.3828 52.709C75.4514 53.3704 74.3755 54.2371 72.155 55.3319C70.3008 57.0082 69.3393 58.3539 69.2592 59.346C69.2592 59.5855 69.5682 59.711 70.1749 59.711C71.0562 59.6882 72.4755 59.1294 74.4213 58.0346C74.9593 57.7381 75.9093 57.0767 77.2828 56.0275C78.5075 55.1038 79.1828 54.6248 79.3316 54.602C79.5262 54.5792 79.675 54.6362 79.7666 54.7845C79.8696 54.9213 79.8925 55.081 79.8467 55.252ZM112.227 54.8073C112.204 55.081 110.567 56.3354 107.317 58.6048C105.337 59.9618 103.631 60.7487 102.189 60.9426C101.674 61.011 101.148 60.8171 100.61 60.361C100.049 59.9276 99.7626 59.4373 99.7626 58.9013C99.7626 57.2021 100.621 55.1836 102.326 52.8458C103.574 51.1466 104.696 50.2913 105.692 50.2913C106.207 50.2913 106.664 50.5764 107.088 51.1352C107.454 51.6712 107.626 52.2186 107.603 52.7774C107.557 54.1116 106.573 55.309 104.673 56.3582C103.872 56.7916 102.819 57.1907 101.525 57.5214C101.331 57.8863 101.228 58.2969 101.228 58.7644C101.228 59.175 101.617 59.4259 102.395 59.4943C102.887 59.5171 104.123 58.9583 106.126 57.8179C110.155 55.4801 112.01 54.3169 111.689 54.3169C112.078 54.3055 112.25 54.4766 112.227 54.8073ZM106.149 52.6975C106.149 52.1616 105.932 51.8993 105.486 51.8993C104.925 51.8993 104.284 52.4809 103.585 53.6555L102.189 55.9933C103.334 55.7994 104.238 55.3889 104.902 54.7503C105.726 53.9634 106.149 53.2791 106.149 52.6975ZM144.379 55.1038C144.424 55.5941 143.085 56.7345 140.35 58.5364C137.717 60.3154 135.714 61.1593 134.341 61.0908C133.711 61.068 133.139 60.7601 132.658 60.1785C132.166 59.6425 131.948 59.118 131.994 58.6048C132.017 58.2627 132.189 57.4986 132.509 56.3012L131.41 57.031C130.895 57.3503 130.518 57.6012 130.277 57.7951C128.229 59.3004 126.798 60.0531 125.997 60.0531C125.047 60.0531 124.6 59.5627 124.68 58.5934C124.703 58.2513 125.047 57.5328 125.71 56.438C125.882 56.1187 126.157 55.731 126.557 55.2748C126.947 54.8187 127.21 54.4652 127.324 54.2143C126.832 54.3169 126.065 54.6248 125.012 55.1608C124.085 55.6512 122.792 56.4038 121.132 57.4188C120.056 58.1258 119.232 58.7188 118.637 59.2092C117.412 60.2812 116.714 60.8057 116.554 60.7829C116.119 60.7373 115.924 60.5549 115.97 60.2355C115.993 59.8478 116.531 59.1522 117.584 58.16C118.557 57.2819 119.289 56.5065 119.781 55.8222C120.949 54.1915 121.544 53.1993 121.544 52.8344C121.544 52.6405 121.247 52.5379 120.663 52.5379C119.369 52.5379 117.801 53.0283 115.97 53.9976C115.455 54.2713 114.619 54.8643 113.44 55.788C112.41 56.5863 111.838 56.9968 111.724 56.9968C111.186 56.9968 110.945 56.7003 110.991 56.1187C111.06 55.5371 112.399 54.488 114.986 52.9826C117.229 51.7168 119.266 51.1124 121.098 51.158C122.54 51.2036 123.227 51.7168 123.147 52.6861C123.044 53.5186 122.689 54.4081 122.082 55.3889C122.494 55.0924 123.65 54.488 125.527 53.5642C128.457 52.1045 130.071 51.3633 130.357 51.3405C130.483 51.3405 130.609 51.4317 130.758 51.5914C130.884 51.7852 130.93 51.9563 130.907 52.1045C130.861 52.344 130.38 52.9712 129.476 53.9634C128.4 55.1608 127.805 55.8336 127.679 56.0047C126.844 57.2477 126.409 57.9662 126.363 58.16C126.26 58.4337 126.294 58.5706 126.432 58.5934C126.603 58.6162 128.377 57.4758 131.742 55.1608C134.821 52.9712 136.47 51.8765 136.687 51.8765C136.859 51.8765 137.019 51.9563 137.168 52.1273C137.294 52.2984 137.328 52.4809 137.282 52.6747C137.236 53.0169 136.515 53.8037 135.119 55.0468C134.215 55.9477 133.711 56.9284 133.62 58.0004C133.494 58.9469 133.837 59.4601 134.65 59.5285C135.451 59.5969 136.962 58.9697 139.159 57.6354C142.524 55.5941 144.15 54.5678 144.035 54.5678C144.207 54.5906 144.333 54.7617 144.379 55.1038ZM163.39 43.2437C163.39 46.8701 161.776 50.7475 158.56 54.8871C155.31 59.118 152.551 61.2391 150.285 61.2391C149.335 61.2391 148.682 61.0908 148.339 60.8057C147.973 60.5092 147.767 59.9504 147.721 59.1294C147.652 58.0574 148.888 56.3354 151.452 53.952C153.02 52.4923 154.36 51.7852 155.481 51.8308C155.504 51.8308 156.282 52.2642 157.828 53.1423C160.517 50.2913 161.857 47.1096 161.857 43.5858C161.857 41.3506 160.872 39.8795 158.892 39.1725C157.942 38.8532 156.385 38.6935 154.245 38.6935C149.186 38.6935 143.944 39.5488 138.496 41.248C136.035 42.0235 133.093 43.2095 129.671 44.7832L125.161 46.8587C124.863 46.8587 124.726 46.7105 124.726 46.4254C124.749 45.9692 126.351 44.9885 129.522 43.506C132.578 42.0919 135.325 40.9971 137.763 40.2216C143.646 38.3286 149.014 37.3707 153.879 37.3707C156.912 37.3707 159.144 37.7128 160.586 38.397C162.452 39.2865 163.39 40.9059 163.39 43.2437ZM156.282 54.8073C156.088 54.2257 155.744 53.8379 155.252 53.6441C154.909 53.5186 154.36 53.6669 153.604 54.0774C152.872 54.4652 152.254 54.9555 151.738 55.5371C150.17 57.2933 149.346 58.5021 149.243 59.1864C149.197 59.4259 149.541 59.6539 150.273 59.8478C150.937 60.0417 152.231 59.289 154.154 57.5898C155.287 56.5635 155.996 55.6398 156.282 54.8073ZM175.878 54.8073C175.855 55.081 174.218 56.3354 170.968 58.6048C168.987 59.9618 167.282 60.7487 165.84 60.9426C165.325 61.011 164.798 60.8171 164.26 60.361C163.699 59.9276 163.413 59.4373 163.413 58.9013C163.413 57.2021 164.272 55.1836 165.977 52.8458C167.225 51.1466 168.346 50.2913 169.342 50.2913C169.857 50.2913 170.315 50.5764 170.739 51.1352C171.105 51.6712 171.277 52.2186 171.254 52.7774C171.208 54.1116 170.224 55.309 168.324 56.3582C167.522 56.7916 166.469 57.1907 165.176 57.5214C164.981 57.8863 164.878 58.2969 164.878 58.7644C164.878 59.175 165.268 59.4259 166.046 59.4943C166.538 59.5171 167.774 58.9583 169.777 57.8179C173.806 55.4801 175.66 54.3169 175.34 54.3169C175.741 54.3055 175.912 54.4766 175.878 54.8073ZM169.8 52.6975C169.8 52.1616 169.583 51.8993 169.136 51.8993C168.575 51.8993 167.934 52.4809 167.236 53.6555L165.84 55.9933C166.984 55.7994 167.889 55.3889 168.552 54.7503C169.388 53.9634 169.8 53.2791 169.8 52.6975ZM197.671 54.9555C197.74 55.5143 196.297 56.803 193.344 58.8215C191.662 59.9847 190.174 60.5777 188.88 60.5777C187.026 60.5777 186.099 59.5513 186.099 57.51C186.122 56.8258 186.317 55.9819 186.683 54.9555C186.511 54.9555 186.145 54.9213 185.584 54.8415C185.115 54.7959 184.783 54.7845 184.554 54.8073C183.409 54.9555 182.482 55.0011 181.772 54.9555L180.159 57.1451C178.396 59.4829 177.274 60.6233 176.794 60.5777C176.404 60.5092 176.21 60.4522 176.21 60.4294C176.084 60.1101 176.645 59.118 177.892 57.4416C178.579 56.5179 179.186 55.4915 179.724 54.3739C179.483 54.4994 178.671 55.0354 177.309 55.9819C176.233 56.7345 175.523 57.1223 175.18 57.1451C174.939 57.1451 174.79 56.974 174.745 56.6319C174.676 56.2214 175.088 55.7196 175.992 55.138C177.526 54.1687 178.602 53.4274 179.22 52.9142C181.051 51.3063 182.288 50.5422 182.917 50.6106C183.238 50.6334 183.444 50.8957 183.535 51.3747C183.638 51.8651 183.432 52.4923 182.951 53.2677H185C185.126 53.2677 185.492 53.302 186.099 53.3818C186.591 53.4502 186.935 53.4616 187.129 53.416C187.541 53.0055 187.93 52.5607 188.297 52.1045C189.247 50.9413 189.956 50.3483 190.426 50.3483C191.158 50.3483 191.479 50.5422 191.376 50.9299C191.353 51.0326 190.941 51.7282 190.128 53.0511C188.56 55.6055 187.782 57.0881 187.782 57.4986C187.782 58.6162 188.297 59.175 189.315 59.175C190.174 59.175 191.215 58.7644 192.463 57.9319C192.829 57.6925 193.711 57.0082 195.096 55.8906C196.263 54.9441 196.927 54.4538 197.076 54.4309C197.43 54.3739 197.625 54.545 197.671 54.9555ZM222.726 54.8073C222.772 55.0468 222.222 55.617 221.078 56.5179C219.956 57.3732 218.834 58.1144 217.713 58.7416C215.561 59.939 214.073 60.5435 213.249 60.5663C211.761 60.5891 210.719 60.0075 210.135 58.8101C209.838 58.1828 209.701 57.6697 209.701 57.2819C207.068 59.3232 204.607 60.3952 202.341 60.4978C200.979 60.5663 200.315 60.0645 200.361 58.9697C200.384 58.4337 200.727 57.5556 201.391 56.3468C202.02 55.1266 202.604 54.2941 203.108 53.8265C202.867 53.9748 202.501 54.1572 202.009 54.3739L200.727 55.0354C198.701 56.1073 197.694 56.6433 197.728 56.6433C197.293 56.5977 197.099 56.381 197.144 55.9819C197.247 55.2748 198.655 54.3511 201.391 53.2107C201.711 53.0853 202.375 52.7432 203.405 52.1844C204.264 51.694 204.859 51.4317 205.202 51.3861C205.443 51.3405 205.694 51.4089 205.935 51.6028C206.175 51.7738 206.301 51.9677 206.301 52.1844C206.301 52.4581 205.637 53.302 204.321 54.7388C203.005 56.1986 202.272 57.396 202.123 58.3197C202.078 58.7074 202.055 58.8557 202.055 58.753C202.055 58.9013 202.169 58.9811 202.387 59.0039C204.046 59.0723 206.221 58.1144 208.911 56.1187C209.964 55.3204 210.811 54.5678 211.475 53.8607C212.791 52.401 213.501 51.6712 213.604 51.6712C214.336 51.694 214.737 52.0817 214.817 52.8344C214.817 53.0283 214.576 53.3704 214.084 53.8607C213.455 54.5222 213.043 54.9783 212.871 55.252C211.967 56.5179 211.52 57.2933 211.52 57.5898C211.498 58.0004 211.623 58.3539 211.887 58.6504C212.207 59.0153 212.619 59.1978 213.134 59.1978C213.764 59.1978 214.92 58.7416 216.58 57.8065C217.438 57.3161 218.571 56.5863 219.99 55.617C221.387 54.6932 222.062 54.2257 222.039 54.2257C222.337 54.0318 222.577 54.2257 222.726 54.8073ZM234.229 54.8073C234.206 55.081 232.569 56.3354 229.319 58.6048C227.339 59.9618 225.633 60.7487 224.191 60.9426C223.676 61.011 223.149 60.8171 222.612 60.361C222.051 59.9276 221.765 59.4373 221.765 58.9013C221.765 57.2021 222.623 55.1836 224.328 52.8458C225.576 51.1466 226.698 50.2913 227.693 50.2913C228.209 50.2913 228.666 50.5764 229.09 51.1352C229.456 51.6712 229.628 52.2186 229.605 52.7774C229.559 54.1116 228.575 55.309 226.675 56.3582C225.874 56.7916 224.821 57.1907 223.527 57.5214C223.333 57.8863 223.23 58.2969 223.23 58.7644C223.23 59.175 223.619 59.4259 224.397 59.4943C224.889 59.5171 226.125 58.9583 228.128 57.8179C232.157 55.4801 234.012 54.3169 233.691 54.3169C234.08 54.3055 234.252 54.4766 234.229 54.8073ZM228.151 52.6975C228.151 52.1616 227.934 51.8993 227.487 51.8993C226.927 51.8993 226.286 52.4809 225.587 53.6555L224.191 55.9933C225.336 55.7994 226.24 55.3889 226.904 54.7503C227.739 53.9634 228.151 53.2791 228.151 52.6975Z" fill="url(#paint1_linear_0_158)"/>
<path d="M107.866 91.7788C107.935 92.3376 106.493 93.6262 103.54 95.6447C101.857 96.8079 100.369 97.401 99.0758 97.401C97.2216 97.401 96.2944 96.3746 96.2944 94.3333C96.3173 93.6491 96.5119 92.8052 96.8782 91.7788C96.7065 91.7788 96.3402 91.7446 95.7794 91.6648C95.3101 91.6192 94.9782 91.6077 94.7492 91.6306C93.6046 91.7788 92.6775 91.8244 91.9679 91.7788L90.354 93.9684C88.5913 96.3062 87.4696 97.4466 86.9889 97.401C86.5998 97.3325 86.4052 97.2755 86.4052 97.2527C86.2793 96.9334 86.8401 95.9412 88.0877 94.2649C88.7745 93.3412 89.3811 92.3148 89.9191 91.1972C89.6787 91.3227 88.866 91.8586 87.504 92.8052C86.4281 93.5578 85.7184 93.9456 85.375 93.9684C85.1347 93.9684 84.9859 93.7973 84.9401 93.4552C84.8714 93.0446 85.2835 92.5429 86.1877 91.9613C87.7215 90.9919 88.7974 90.2507 89.4154 89.7375C91.2468 88.1296 92.4829 87.3655 93.1125 87.4339C93.433 87.4567 93.639 87.719 93.7306 88.198C93.8221 88.6883 93.6275 89.3156 93.1468 90.091H95.1956C95.3215 90.091 95.6878 90.1252 96.2944 90.2051C96.7866 90.2735 97.13 90.2849 97.3246 90.2393C97.7366 89.8287 98.1258 89.384 98.4921 88.9278C99.4421 87.7646 100.152 87.1716 100.621 87.1716C101.354 87.1716 101.674 87.3655 101.571 87.7532C101.548 87.8559 101.136 88.5515 100.323 89.8744C98.7553 92.4288 97.977 93.9113 97.977 94.3219C97.977 95.4395 98.4921 95.9983 99.5107 95.9983C100.369 95.9983 101.411 95.5877 102.658 94.7552C103.025 94.5157 103.906 93.8315 105.291 92.7139C106.458 91.7674 107.122 91.277 107.271 91.2542C107.626 91.1972 107.82 91.3683 107.866 91.7788ZM129.694 92.0753C129.694 92.2464 127.919 93.5122 124.383 95.8728C121.842 97.572 119.736 98.4273 118.042 98.4273C116.817 98.4273 116.062 97.8913 115.775 96.8193C115.627 96.2606 115.615 95.5991 115.741 94.8465C114.711 95.5307 113.761 96.0895 112.88 96.5228C111.369 97.2983 110.087 97.686 109.034 97.686C107.569 97.686 106.836 96.9334 106.836 95.4281C106.836 94.1622 107.946 92.349 110.167 89.9884C112.559 87.3655 114.276 86.0654 115.329 86.0882C116.554 86.1339 117.572 86.7155 118.408 87.8445C118.625 88.141 118.889 88.7568 119.175 89.7033C120.228 89.0761 120.628 88.7454 120.388 88.7226C121.144 88.7682 121.487 89.0647 121.418 89.6007C121.35 90.034 120.8 90.8095 119.77 91.9042C118.992 92.8052 118.374 93.4324 117.939 93.7973C117.401 95.0631 117.149 95.8044 117.172 96.0211C117.24 96.6597 117.607 96.9676 118.271 96.9676C119.301 96.9676 121.063 96.2377 123.581 94.778C127.656 92.4174 129.522 91.2542 129.19 91.277C129.522 91.2428 129.694 91.5165 129.694 92.0753ZM117.756 89.8858C117.756 89.498 117.515 89.0077 117.023 88.4261C116.508 87.8216 116.016 87.5251 115.558 87.5479C114.677 87.5936 113.189 88.7682 111.094 91.049C109.137 93.2157 108.21 94.6754 108.313 95.4281C108.381 95.9412 108.748 96.2263 109.411 96.3062C109.904 96.3518 110.911 95.9641 112.456 95.143C114.951 93.8543 116.691 92.5543 117.698 91.2428L117.756 89.8858ZM181.189 91.4823C181.143 92.235 179.14 93.7973 175.18 96.1579C172.787 97.572 170.681 98.3475 168.884 98.4957C168.346 98.5413 167.854 98.3361 167.419 97.8799C166.984 97.4124 166.755 96.8422 166.755 96.1693C166.755 95.736 167.248 94.5614 168.221 92.6683C168.369 92.349 168.736 91.7902 169.319 90.9919C169.777 90.3875 170.006 89.9656 169.983 89.7489C169.96 89.4068 169.709 89.2129 169.251 89.1673C168.564 89.1217 166.664 90.091 163.539 92.0867C163.07 92.5201 162.417 93.3069 161.559 94.4245C160.804 95.3939 160.22 95.8842 159.796 95.8842C159.281 95.8842 158.961 95.5877 158.846 95.0061C158.823 94.9149 159.556 94.0824 161.044 92.5201C162.12 91.4253 162.658 90.4674 162.658 89.6349C162.658 89.0761 162.337 88.791 161.708 88.791C160.929 88.791 160.002 88.9849 158.926 89.3726C156.855 90.1481 155.218 91.0261 154.016 91.9955C153.455 92.463 152.872 93.0218 152.254 93.6719C151.498 94.5043 150.983 95.0289 150.72 95.2798C149.518 96.329 148.785 96.8422 148.522 96.8079C148.087 96.7395 147.835 96.4202 147.79 95.8614C147.767 95.5991 148.35 94.8351 149.552 93.6034C150.994 92.1209 151.704 91.1972 151.681 90.8323C151.635 90.2963 151.361 90.034 150.88 90.034C150.239 90.034 149.072 90.4446 147.366 91.277C146.931 91.4709 146.244 91.9271 145.317 92.6227C144.562 93.1815 144.093 93.4324 143.921 93.3868C143.36 93.2385 143.085 93.0218 143.12 92.7253C143.188 92.1209 144.436 91.1744 146.851 89.8744C148.167 89.1673 149.735 88.734 151.544 88.5629C151.979 88.5173 152.414 88.734 152.826 89.2243C153.169 89.6577 153.375 90.1024 153.444 90.5358C154.05 90.0682 155.355 89.441 157.358 88.6427C159.487 87.7646 160.941 87.3313 161.719 87.3313C163.013 87.3313 163.791 87.9129 164.066 89.0875C164.157 89.4524 164.214 89.7945 164.214 90.1138C164.535 90.0226 165.474 89.5436 167.03 88.6883C168.346 88.0041 169.239 87.6734 169.709 87.7076C170.933 87.776 171.563 88.312 171.609 89.3156C171.609 89.2243 171.002 90.3875 169.777 92.8166C168.747 94.9035 168.243 95.9983 168.243 96.1009C168.243 96.7851 168.507 97.1272 169.045 97.1272C170.166 97.1272 172.021 96.4202 174.607 95.0061C175.409 94.5728 176.702 93.6947 178.488 92.3832C179.827 91.4139 180.639 90.9463 180.903 90.9919C181.097 91.0262 181.189 91.1972 181.189 91.4823ZM213.501 91.5621C213.478 92.0753 212.23 93.1473 209.769 94.778C206.885 96.6483 204.71 97.5948 203.245 97.629C202.81 97.629 202.444 97.4238 202.146 97.0132C201.872 96.6483 201.757 96.2263 201.78 95.736C201.826 95.0745 202.558 93.957 203.978 92.3832C205.145 91.0262 205.763 90.2621 205.809 90.1252C205.397 90.3647 204.802 90.6384 204.046 90.9235C203.039 91.3341 202.364 91.6306 201.997 91.8016C200.143 92.828 198.094 93.7289 195.84 94.5044C189.315 101.78 185.561 105.942 184.554 106.98C176.862 115.009 173.051 119.023 173.131 119.023C172.787 119.023 172.593 118.897 172.547 118.658C172.547 118.589 176.278 114.347 183.753 105.954L186.866 102.556C187.988 101.312 189.155 100.012 190.345 98.6554C193.367 95.2228 195.576 92.6911 196.938 91.0604L195.542 91.7902C193.951 92.6911 193.276 93.1473 193.493 93.1815C193.253 93.1587 193.001 92.942 192.761 92.5201C192.589 92.1779 193.791 91.2998 196.355 89.8972C196.915 89.6007 197.534 89.2243 198.22 88.7682C198.93 88.312 199.456 87.9813 199.8 87.7874C200.658 87.0804 201.276 86.7725 201.665 86.8751C202.032 86.9435 202.215 87.126 202.215 87.4225C202.215 87.3769 201.585 88.0839 200.315 89.5436C199.147 90.8551 198.415 91.7104 198.117 92.0981C199.044 91.8814 200.578 91.22 202.73 90.1252C205.271 88.7682 207.057 88.0839 208.075 88.0839C208.373 88.0839 208.487 88.3234 208.441 88.8138C208.338 89.498 207.434 90.684 205.729 92.3946C204.046 94.1508 203.211 95.2684 203.234 95.7474C203.279 96.1351 203.451 96.329 203.749 96.329C204.676 96.329 206.461 95.4737 209.094 93.7745C211.612 92.1209 212.882 91.2884 212.905 91.2884C213.306 91.22 213.501 91.3227 213.501 91.5621ZM192.955 91.6306C192.932 91.9043 191.295 93.1587 188.045 95.4281C186.065 96.7851 184.359 97.572 182.917 97.7659C182.402 97.8343 181.876 97.6404 181.338 97.1843C180.777 96.7509 180.491 96.2606 180.491 95.7246C180.491 94.0254 181.349 92.0069 183.054 89.6691C184.302 87.9699 185.424 87.1146 186.42 87.1146C186.935 87.1146 187.392 87.3997 187.816 87.9585C188.182 88.4945 188.354 89.0419 188.331 89.6007C188.285 90.9349 187.301 92.1323 185.401 93.1815C184.6 93.6148 183.547 94.014 182.253 94.3447C182.059 94.7096 181.956 95.1202 181.956 95.5877C181.956 95.9983 182.345 96.2491 183.123 96.3176C183.615 96.3404 184.851 95.7816 186.854 94.6412C190.883 92.3034 192.738 91.1402 192.417 91.1402C192.806 91.1174 192.978 91.2884 192.955 91.6306ZM186.866 89.5208C186.866 88.9848 186.648 88.7226 186.202 88.7226C185.641 88.7226 185 89.3042 184.302 90.4788L182.906 92.8166C184.05 92.6227 184.954 92.2122 185.618 91.5735C186.454 90.7867 186.866 90.1024 186.866 89.5208ZM233.977 91.5621C233.954 92.0753 232.707 93.1473 230.246 94.778C227.362 96.6483 225.187 97.5948 223.722 97.629C223.287 97.629 222.921 97.4238 222.623 97.0132C222.348 96.6483 222.234 96.2263 222.257 95.736C222.302 95.0745 223.035 93.957 224.454 92.3832C225.622 91.0262 226.24 90.2621 226.286 90.1252C225.874 90.3647 225.278 90.6384 224.523 90.9235C223.516 91.3341 222.84 91.6306 222.474 91.8016C220.62 92.828 218.571 93.7289 216.316 94.5044C209.792 101.78 206.038 105.942 205.031 106.98C197.339 115.009 193.527 119.023 193.608 119.023C193.264 119.023 193.07 118.897 193.024 118.658C193.024 118.589 196.755 114.347 204.229 105.954L207.343 102.556C208.464 101.312 209.632 100.012 210.822 98.6554C213.844 95.2228 216.053 92.6911 217.415 91.0604L216.019 91.7902C214.428 92.6911 213.752 93.1473 213.97 93.1815C213.729 93.1587 213.478 92.942 213.237 92.5201C213.066 92.1779 214.267 91.2998 216.831 89.8972C217.392 89.6007 218.01 89.2243 218.697 88.7682C219.407 88.312 219.933 87.9813 220.277 87.7874C221.135 87.0804 221.753 86.7725 222.142 86.8751C222.508 86.9435 222.692 87.126 222.692 87.4225C222.692 87.3769 222.062 88.0839 220.792 89.5436C219.624 90.8551 218.892 91.7104 218.594 92.0981C219.521 91.8814 221.055 91.22 223.207 90.1252C225.748 88.7682 227.533 88.0839 228.552 88.0839C228.85 88.0839 228.964 88.3234 228.918 88.8138C228.815 89.498 227.911 90.684 226.206 92.3946C224.523 94.1508 223.687 95.2684 223.71 95.7474C223.756 96.1351 223.928 96.329 224.225 96.329C225.152 96.329 226.938 95.4737 229.571 93.7745C232.089 92.1209 233.359 91.2884 233.382 91.2884C233.783 91.22 233.977 91.3227 233.977 91.5621ZM258.838 91.6306C258.884 91.87 258.334 92.4402 257.19 93.3411C256.068 94.1964 254.946 94.9377 253.825 95.5649C251.673 96.7623 250.185 97.3667 249.361 97.3895C247.873 97.4124 246.831 96.8308 246.247 95.6333C245.95 95.0061 245.812 94.4929 245.812 94.1052C243.18 96.1465 240.719 97.2185 238.453 97.3211C237.091 97.3895 236.427 96.8878 236.473 95.793C236.495 95.257 236.839 94.3789 237.503 93.1701C238.132 91.9499 238.716 91.1174 239.22 90.6498C238.979 90.7981 238.613 90.9805 238.121 91.1972L236.839 91.8586C234.813 92.9306 233.806 93.4666 233.84 93.4666C233.405 93.421 233.21 93.2043 233.256 92.8052C233.359 92.0981 234.767 91.1744 237.503 90.034C237.823 89.9086 238.487 89.5779 239.517 89.0077C240.376 88.5173 240.971 88.255 241.314 88.2094C241.555 88.1638 241.806 88.2322 242.047 88.4261C242.287 88.5971 242.413 88.791 242.413 89.0077C242.413 89.2814 241.749 90.1252 240.433 91.5621C239.117 93.0218 238.384 94.2193 238.235 95.143C238.189 95.5307 238.167 95.679 238.167 95.5763C238.167 95.7246 238.281 95.8044 238.498 95.8272C240.158 95.8956 242.333 94.9377 245.023 92.942C246.076 92.1437 246.923 91.3911 247.586 90.684C248.903 89.2243 249.612 88.4945 249.715 88.4945C250.448 88.5173 250.849 88.905 250.929 89.6577C250.929 89.8515 250.688 90.1937 250.196 90.684C249.567 91.3455 249.155 91.8016 248.983 92.0753C248.079 93.3411 247.632 94.1166 247.632 94.4131C247.609 94.8237 247.735 95.1772 247.999 95.4737C248.319 95.8386 248.731 96.0211 249.246 96.0211C249.876 96.0211 251.032 95.5649 252.691 94.6298C253.55 94.1394 254.683 93.4096 256.102 92.4402C257.499 91.5165 258.174 91.049 258.151 91.049C258.449 90.8551 258.7 91.049 258.838 91.6306ZM295.797 91.4823C295.751 92.235 293.748 93.7973 289.788 96.1579C287.395 97.572 285.289 98.3475 283.492 98.4957C282.954 98.5413 282.462 98.3361 282.027 97.8799C281.592 97.4124 281.363 96.8422 281.363 96.1693C281.363 95.736 281.856 94.5614 282.828 92.6683C282.977 92.349 283.344 91.7902 283.927 90.9919C284.385 90.3875 284.614 89.9656 284.591 89.7489C284.568 89.4068 284.328 89.2129 283.859 89.1673C283.172 89.1217 281.272 90.091 278.147 92.0867C277.678 92.5201 277.025 93.3069 276.167 94.4245C275.411 95.3939 274.828 95.8842 274.404 95.8842C273.889 95.8842 273.569 95.5877 273.454 95.0061C273.431 94.9149 274.164 94.0824 275.652 92.5201C276.728 91.4253 277.266 90.4674 277.266 89.6349C277.266 89.0761 276.945 88.791 276.316 88.791C275.537 88.791 274.61 88.9849 273.534 89.3726C271.463 90.1481 269.826 91.0261 268.624 91.9955C268.063 92.463 267.479 93.0218 266.861 93.6719C266.106 94.5043 265.591 95.0289 265.328 95.2798C264.126 96.329 263.393 96.8422 263.13 96.8079C262.695 96.7395 262.443 96.4202 262.398 95.8614C262.375 95.5991 262.958 94.8351 264.16 93.6034C265.602 92.1209 266.312 91.1972 266.289 90.8323C266.243 90.2963 265.969 90.034 265.488 90.034C264.858 90.034 263.679 90.4446 261.974 91.277C261.539 91.4709 260.852 91.9271 259.925 92.6227C259.17 93.1815 258.7 93.4324 258.529 93.3868C257.968 93.2385 257.693 93.0218 257.728 92.7253C257.796 92.1209 259.044 91.1744 261.459 89.8744C262.775 89.1673 264.343 88.734 266.152 88.5629C266.587 88.5173 267.022 88.734 267.434 89.2243C267.777 89.6577 267.983 90.1024 268.052 90.5358C268.658 90.0682 269.963 89.441 271.966 88.6427C274.095 87.7646 275.549 87.3313 276.327 87.3313C277.621 87.3313 278.399 87.9129 278.674 89.0875C278.765 89.4524 278.822 89.7945 278.822 90.1138C279.143 90.0226 280.081 89.5436 281.638 88.6883C282.954 88.0041 283.847 87.6734 284.316 87.7076C285.541 87.776 286.171 88.312 286.216 89.3156C286.216 89.2243 285.61 90.3875 284.385 92.8166C283.355 94.9035 282.851 95.9983 282.851 96.1009C282.851 96.7851 283.115 97.1272 283.653 97.1272C284.774 97.1272 286.628 96.4202 289.215 95.0061C290.016 94.5728 291.31 93.6947 293.095 92.3832C294.435 91.4139 295.247 90.9463 295.511 90.9919C295.705 91.0262 295.797 91.1972 295.797 91.4823ZM331.371 91.5621C331.348 92.0753 330.1 93.1473 327.639 94.778C324.755 96.6483 322.58 97.5948 321.115 97.629C320.68 97.629 320.314 97.4238 320.016 97.0132C319.742 96.6483 319.627 96.2263 319.65 95.736C319.696 95.0745 320.428 93.957 321.848 92.3832C323.015 91.0262 323.633 90.2621 323.679 90.1252C323.267 90.3647 322.672 90.6384 321.916 90.9235C320.909 91.3341 320.234 91.6306 319.867 91.8016C318.013 92.828 315.964 93.7289 313.71 94.5044C307.185 101.78 303.431 105.942 302.424 106.98C294.732 115.009 290.921 119.023 291.001 119.023C290.657 119.023 290.463 118.897 290.417 118.658C290.417 118.589 294.148 114.347 301.623 105.954L304.736 102.556C305.858 101.312 307.014 100.012 308.215 98.6554C311.249 95.2228 313.446 92.6911 314.808 91.0604L313.412 91.7902C311.821 92.6911 311.146 93.1473 311.363 93.1815C311.123 93.1587 310.871 92.942 310.631 92.5201C310.459 92.1779 311.661 91.2998 314.225 89.8972C314.785 89.6007 315.404 89.2243 316.09 88.7682C316.8 88.312 317.326 87.9813 317.67 87.7874C318.528 87.0804 319.146 86.7725 319.536 86.8751C319.902 86.9435 320.085 87.126 320.085 87.4225C320.085 87.3769 319.455 88.0839 318.185 89.5436C317.017 90.8551 316.285 91.7104 315.987 92.0981C316.914 91.8814 318.448 91.22 320.6 90.1252C323.141 88.7682 324.926 88.0839 325.945 88.0839C326.243 88.0839 326.357 88.3234 326.311 88.8138C326.208 89.498 325.304 90.684 323.599 92.3946C321.916 94.1508 321.081 95.2684 321.104 95.7474C321.149 96.1351 321.321 96.329 321.619 96.329C322.546 96.329 324.331 95.4737 326.964 93.7745C329.482 92.1209 330.752 91.2884 330.775 91.2884C331.165 91.22 331.371 91.3227 331.371 91.5621ZM307.781 91.163C307.781 92.5201 306.819 93.9798 304.885 95.5421C303.122 96.979 301.199 97.6746 299.093 97.6176C297.868 97.5948 296.93 97.2299 296.277 96.5228C295.717 95.9184 295.465 95.1886 295.511 94.3333C295.556 92.9762 296.14 91.9613 297.273 91.2998C297.468 91.1744 297.857 91.1174 298.441 91.1174C298.589 91.0147 298.796 90.8209 299.059 90.5358C299.356 90.2393 299.574 90.0454 299.723 89.9542C301.646 88.8138 303.225 88.2436 304.45 88.2436C305.446 88.2436 306.258 88.5287 306.865 89.0875C307.472 89.6121 307.781 90.3077 307.781 91.163ZM306.384 90.9349C306.384 90.1366 305.789 89.7033 304.587 89.6577C303.294 89.6121 302.058 90.0682 300.89 91.049C300.718 91.1744 300.489 91.4481 300.192 91.8929C299.952 92.2578 299.688 92.4745 299.425 92.5543C299.276 92.5771 299.116 92.5771 298.944 92.5543H298.464C298.052 92.5999 297.674 92.8964 297.33 93.4324C297.09 93.8657 296.964 94.2078 296.964 94.4587C296.964 94.9491 297.205 95.3825 297.697 95.7702C298.212 96.1351 298.796 96.3176 299.459 96.3176C300.707 96.3176 302.115 95.793 303.706 94.7438C305.491 93.5464 306.384 92.2806 306.384 90.9349ZM356.231 91.6306C356.277 91.87 355.727 92.4402 354.583 93.3411C353.461 94.1964 352.339 94.9377 351.218 95.5649C349.066 96.7623 347.578 97.3667 346.754 97.3895C345.266 97.4124 344.224 96.8308 343.641 95.6333C343.343 95.0061 343.206 94.4929 343.206 94.1052C340.573 96.1465 338.112 97.2185 335.846 97.3211C334.472 97.3895 333.82 96.8878 333.866 95.793C333.889 95.257 334.232 94.3789 334.896 93.1701C335.525 91.9499 336.109 91.1174 336.613 90.6498C336.372 90.7981 336.006 90.9805 335.514 91.1972L334.221 91.8472C332.195 92.9192 331.199 93.4552 331.222 93.4552C330.787 93.4096 330.592 93.1929 330.638 92.7938C330.741 92.0867 332.149 91.163 334.884 90.0226C335.205 89.8972 335.869 89.5664 336.899 88.9963C337.757 88.5059 338.353 88.2436 338.696 88.198C338.936 88.1524 339.188 88.2208 339.428 88.4146C339.669 88.5857 339.795 88.7796 339.795 88.9963C339.795 89.2699 339.131 90.1138 337.815 91.5507C336.498 93.0104 335.766 94.2078 335.617 95.1316C335.571 95.5193 335.548 95.6676 335.548 95.5649C335.548 95.7132 335.663 95.793 335.88 95.8158C337.54 95.8842 339.715 94.9263 342.404 92.9306C343.457 92.1323 344.304 91.3797 344.968 90.6726C346.285 89.2129 346.994 88.4831 347.097 88.4831C347.83 88.5059 348.23 88.8936 348.311 89.6463C348.311 89.8401 348.07 90.1823 347.578 90.6726C346.948 91.3341 346.536 91.7902 346.365 92.0639C345.46 93.3297 345.014 94.1052 345.014 94.4017C344.991 94.8123 345.106 95.1658 345.38 95.4623C345.701 95.8272 346.113 96.0097 346.628 96.0097C347.257 96.0097 348.414 95.5535 350.073 94.6184C350.932 94.128 352.065 93.3982 353.484 92.4288C354.88 91.5051 355.556 91.0376 355.533 91.0376C355.842 90.8551 356.094 91.049 356.231 91.6306ZM381 91.6306C381.046 91.87 380.496 92.4402 379.352 93.3411C378.23 94.1964 377.108 94.9377 375.987 95.5649C373.835 96.7623 372.347 97.3667 371.523 97.3895C370.035 97.4124 368.993 96.8308 368.41 95.6333C368.112 95.0061 367.975 94.4929 367.975 94.1052C365.342 96.1465 362.881 97.2185 360.615 97.3211C359.241 97.3895 358.589 96.8878 358.635 95.793C358.658 95.257 359.001 94.3789 359.665 93.1701C360.294 91.9499 360.878 91.1174 361.382 90.6498C361.141 90.7981 360.775 90.9805 360.283 91.1972L359.001 91.8586C356.975 92.9306 355.979 93.4666 356.002 93.4666C355.567 93.421 355.373 93.2043 355.418 92.8052C355.521 92.0981 356.929 91.1744 359.665 90.034C359.985 89.9086 360.649 89.5779 361.679 89.0077C362.538 88.5173 363.133 88.255 363.476 88.2094C363.717 88.1638 363.969 88.2322 364.209 88.4261C364.449 88.5971 364.575 88.791 364.575 89.0077C364.575 89.2814 363.911 90.1252 362.595 91.5621C361.279 93.0218 360.546 94.2193 360.397 95.143C360.352 95.5307 360.329 95.679 360.329 95.5763C360.329 95.7246 360.443 95.8044 360.661 95.8272C362.32 95.8956 364.495 94.9377 367.185 92.942C368.238 92.1437 369.085 91.3911 369.749 90.684C371.065 89.2243 371.775 88.4945 371.878 88.4945C372.61 88.5173 373.011 88.905 373.091 89.6577C373.091 89.8515 372.851 90.1937 372.358 90.684C371.729 91.3455 371.317 91.8016 371.145 92.0753C370.241 93.3411 369.794 94.1166 369.794 94.4131C369.772 94.8237 369.886 95.1772 370.161 95.4737C370.481 95.8386 370.893 96.0211 371.408 96.0211C372.038 96.0211 373.194 95.5649 374.854 94.6298C375.712 94.1394 376.845 93.4096 378.264 92.4402C379.661 91.5165 380.336 91.049 380.313 91.049C380.599 90.8551 380.851 91.049 381 91.6306Z" fill="url(#paint2_linear_0_158)"/>
</g>
<defs>
<linearGradient id="paint0_linear_0_158" x1="0.0135075" y1="13.7762" x2="726.135" y2="13.7762" gradientUnits="userSpaceOnUse">
<stop stop-color="#609FAE"/>
<stop offset="1" stop-color="#006493"/>
</linearGradient>
<linearGradient id="paint1_linear_0_158" x1="0.0135162" y1="59.7881" x2="726.135" y2="59.7881" gradientUnits="userSpaceOnUse">
<stop stop-color="#609FAE"/>
<stop offset="1" stop-color="#006493"/>
</linearGradient>
<linearGradient id="paint2_linear_0_158" x1="0.0135017" y1="102.545" x2="726.135" y2="102.545" gradientUnits="userSpaceOnUse">
<stop stop-color="#609FAE"/>
<stop offset="1" stop-color="#006493"/>
</linearGradient>
<clipPath id="clip0_0_158">
<rect width="381" height="119" fill="white"/>
</clipPath>
</defs>
</svg>
