<svg width="483" height="82" viewBox="0 0 483 82" fill="none" xmlns="http://www.w3.org/2000/svg">
<path d="M35.3309 1.12324C35.3309 1.82668 33.9355 3.31298 31.1547 5.59349C30.2042 6.365 29.2436 7.00037 28.2728 7.47689C27.7571 7.83996 26.4931 8.79301 24.491 10.3474L24.3292 11.5047C24.218 12.2081 24.1371 12.7187 24.0663 13.025C23.7022 15.2488 22.4888 17.7222 20.4462 20.4338C17.2104 24.575 14.3488 26.7194 11.8713 26.8555C10.122 26.9463 8.1704 26.3336 6.01657 25.0062C4.87393 25.5848 3.90319 25.8571 3.10435 25.8004C2.53808 25.7777 2.00215 25.5962 1.48645 25.2558C0.495482 24.6885 0 23.9283 0 22.9866C0 22.5214 0.262909 22.0563 0.778615 21.5684C1.31454 21.0805 1.86059 20.8423 2.39652 20.8423C3.21558 20.8423 4.02453 21.1713 4.82337 21.818C5.18739 22.1357 5.7031 22.6916 6.37048 23.4858C9.39394 21.6024 12.2556 19.5602 14.9757 17.3818C16.8262 15.8841 19.0103 13.9667 21.508 11.6408L17.2408 13.2746C13.5701 14.4886 11.5174 15.0786 11.0624 15.0559C10.759 15.0559 10.6074 14.8744 10.6074 14.5113L16.9475 12.1173C20.3552 10.7331 22.2765 9.93894 22.7113 9.72336C22.863 9.29222 22.9337 8.92916 22.9337 8.63417C22.9337 7.30671 22.1147 5.9679 20.4766 4.64044C19.4654 3.82354 18.3227 3.18817 17.0486 2.75703C15.8453 2.34858 14.7735 2.1784 13.8432 2.24647C11.1231 2.43935 9.21192 2.9726 8.11984 3.84623C6.48172 5.12831 5.65254 6.47846 5.63232 7.874C5.61209 9.03127 6.09746 10.1999 7.08843 11.3572C7.77604 12.0606 8.70633 12.4123 9.8692 12.4123C10.577 12.4123 11.6186 12.0719 12.9735 11.3912C14.6825 10.4949 15.5318 9.80279 15.5318 9.32626C15.5318 8.98589 15.3498 8.77032 14.9858 8.6682L13.9544 8.48667C13.651 8.4186 13.2668 8.4186 12.7915 8.48667C12.2758 8.55475 11.9219 8.58878 11.7197 8.55475C11.5073 8.53205 11.3961 8.33918 11.3961 7.97611C11.3961 7.73785 11.7399 7.54497 12.4275 7.39747C13.0949 7.27267 13.7016 7.27267 14.2375 7.39747C15.0768 7.61304 15.6229 7.78323 15.8554 7.90803C16.3711 8.18033 16.6442 8.60013 16.6644 9.17877C16.7048 10.0751 15.724 11.0849 13.7218 12.1968C12.1646 13.0704 10.8703 13.5015 9.83886 13.5015C7.95805 13.5469 6.62328 12.9796 5.82444 11.7996C4.8537 10.3474 4.37844 9.01993 4.39867 7.80592C4.41889 5.86579 5.4503 4.2093 7.47268 2.83645C9.30293 1.67918 11.3759 1.04382 13.6814 0.953049C14.8544 0.919011 16.1891 1.13458 17.6958 1.59976C19.4249 2.13301 20.8709 3.00664 22.0338 4.2093C22.9843 5.151 23.6214 6.00194 23.9449 6.75076C24.0966 7.01171 24.2382 7.55631 24.3696 8.38456C24.9056 7.97611 25.5224 7.44286 26.21 6.7848C27.1807 5.86579 27.8178 5.2758 28.1211 5.0035C32.0445 1.66783 34.1175 0 34.3298 0C34.9972 0 35.3309 0.374412 35.3309 1.12324ZM5.2784 24.1099C4.82337 23.4858 4.47956 23.066 4.24699 22.8732C3.6605 22.2718 3.08412 21.9655 2.49763 21.9655C2.19428 21.9882 1.89092 22.1357 1.58757 22.3966C1.28421 22.6689 1.14264 22.9186 1.16287 23.1568C1.16287 23.3724 1.38533 23.6674 1.84036 24.0304C2.22461 24.4389 2.67965 24.6658 3.19535 24.6885C3.8324 24.7339 4.52001 24.541 5.2784 24.1099ZM20.0013 14.7723C18.3227 16.2472 16.9475 17.4272 15.8959 18.2895C13.1556 20.4452 10.2939 22.4761 7.321 24.3935C8.74678 25.2671 10.1624 25.6529 11.5579 25.5508C13.7825 25.4033 16.452 23.4064 19.5867 19.5602C21.1844 17.552 22.2057 15.6005 22.6607 13.7171C22.8326 13.0363 22.9337 12.5144 22.954 12.1514L20.0013 14.7723ZM37.1511 20.5132C37.1308 20.7855 35.6848 22.0336 32.8131 24.2914C31.0637 25.6415 29.557 26.4244 28.2829 26.6173C27.8279 26.6854 27.3627 26.4925 26.8875 26.0387C26.392 25.6075 26.1392 25.1196 26.1392 24.5864C26.1392 22.8959 26.8976 20.8876 28.4043 18.5618C29.5065 16.8712 30.4974 16.0203 31.3772 16.0203C31.8322 16.0203 32.2367 16.3039 32.6108 16.8599C32.9344 17.3931 33.0861 17.9377 33.0659 18.4937C33.0254 19.8211 32.1558 21.0125 30.4772 22.0563C29.7694 22.4874 28.8391 22.8845 27.6964 23.2135C27.5245 23.5766 27.4335 23.9851 27.4335 24.4502C27.4335 24.8587 27.7773 25.1083 28.4649 25.1764C28.8998 25.1991 29.9918 24.6431 31.7614 23.5085C35.3208 21.1826 36.9589 20.0254 36.6758 20.0254C37.0196 20.0027 37.1713 20.1729 37.1511 20.5132ZM31.7715 18.4029C31.7715 17.8697 31.5794 17.6087 31.185 17.6087C30.6896 17.6087 30.1233 18.1873 29.5065 19.356L28.2728 21.6819C29.284 21.489 30.0828 21.0805 30.6693 20.4452C31.4075 19.6623 31.7715 18.9929 31.7715 18.4029ZM69.954 20.3657C69.9135 21.1146 68.144 22.6689 64.6453 25.0175C62.5319 26.4244 60.6713 27.1959 59.0837 27.3434C58.6085 27.3888 58.1736 27.1846 57.7894 26.7307C57.4051 26.2656 57.2029 25.6983 57.2029 25.0289C57.2029 24.5977 57.6377 23.4291 58.4972 21.5457C58.6287 21.228 58.9523 20.6721 59.468 19.8779C59.8724 19.2765 60.0747 18.8567 60.0545 18.6412C60.0342 18.3008 59.8118 18.1079 59.4073 18.0625C58.8006 18.0172 57.122 18.9816 54.3615 20.9671C53.9469 21.3982 53.3705 22.1811 52.6121 23.293C51.9447 24.2574 51.429 24.7452 51.0549 24.7452C50.5999 24.7452 50.3167 24.4502 50.2156 23.8716C50.1954 23.7808 50.8425 22.9526 52.1571 21.3982C53.1076 20.309 53.5829 19.356 53.5829 18.5277C53.5829 17.9718 53.2997 17.6881 52.7436 17.6881C52.056 17.6881 51.2369 17.881 50.2864 18.2668C48.4561 19.0383 47.0101 19.9119 45.9484 20.8763C45.4529 21.3415 44.9372 21.8974 44.3912 22.5441C43.7238 23.3724 43.2687 23.8943 43.0362 24.1439C41.9744 25.1877 41.3273 25.6983 41.0947 25.6642C40.7104 25.5962 40.488 25.2785 40.4475 24.7225C40.4273 24.4616 40.943 23.7014 42.0047 22.4761C43.2788 21.0011 43.9058 20.0821 43.8856 19.719C43.8451 19.1858 43.6024 18.9248 43.1777 18.9248C42.6115 18.9248 41.5801 19.3333 40.0734 20.1615C39.6891 20.3544 39.0824 20.8082 38.2634 21.5003C37.596 22.0563 37.1814 22.3172 37.0297 22.2605C36.5342 22.113 36.3017 21.8974 36.3219 21.6024C36.3825 21.0011 37.4847 20.0594 39.6184 18.766C40.7812 18.0625 42.1665 17.6314 43.7642 17.4612C44.1485 17.4158 44.5327 17.6314 44.8968 18.1193C45.2001 18.5504 45.3821 18.9929 45.4428 19.424C45.9787 18.9702 47.1315 18.3348 48.9011 17.5406C50.7819 16.667 52.0661 16.2359 52.7537 16.2359C53.8963 16.2359 54.5839 16.8145 54.8266 17.9831C54.9075 18.3462 54.9581 18.6866 54.9581 19.0042C55.2412 18.9135 56.0704 18.437 57.4456 17.586C58.6085 16.9053 59.3972 16.5876 59.8118 16.6103C60.8937 16.6784 61.4499 17.2116 61.4903 18.21C61.4903 18.1193 60.9544 19.2765 59.8724 21.6932C58.9624 23.7695 58.5175 24.8587 58.5175 24.9608C58.5175 25.6415 58.75 25.9819 59.2253 25.9819C60.2162 25.9819 61.8544 25.2785 64.1397 23.8716C64.8475 23.4405 65.9901 22.5668 67.5676 21.2621C68.7507 20.2977 69.4686 19.8325 69.7012 19.8779C69.8731 19.9119 69.954 20.0821 69.954 20.3657ZM83.3522 21.2394C83.3118 21.8747 81.6939 23.0093 78.4985 24.6545C75.7987 26.0046 73.7965 26.6627 72.482 26.6173C71.8146 26.5946 71.2382 26.3677 70.7629 25.9252C70.2472 25.4373 69.954 24.802 69.8933 23.9964C69.7821 22.5668 70.4798 20.8309 71.9663 18.766C73.8673 16.1791 75.6065 14.8744 77.2042 14.8403C77.7907 14.8176 78.2356 15.1467 78.5592 15.8161C78.8626 16.3947 79.0041 17.0868 78.9839 17.881C78.9637 18.5391 78.7918 19.1971 78.4682 19.8779C78.1244 20.604 77.7907 20.9557 77.4671 20.933C77.1233 20.8876 76.9716 20.6153 77.0121 20.1388C77.0121 20.1842 77.1638 19.7871 77.4671 18.9362C77.73 18.2781 77.7907 17.7335 77.6592 17.3024C77.4671 16.5535 77.275 16.1905 77.0728 16.2132C75.6268 16.3834 74.2515 17.5179 72.9269 19.6283C71.8955 21.3188 71.3494 22.6576 71.309 23.622C71.2685 24.8814 71.6932 25.4373 72.6033 25.2898C73.8774 25.0969 75.556 24.5183 77.6491 23.5426C78.4682 23.1795 79.5603 22.5555 80.9153 21.6592C82.1186 20.865 82.786 20.4452 82.8871 20.4225C83.2511 20.3657 83.4028 20.638 83.3522 21.2394ZM103.93 20.3657C103.95 20.7515 103.354 21.4663 102.15 22.5101C100.917 23.5539 99.8144 24.3141 98.8133 24.802C97.3875 25.4827 96.1337 25.8231 95.0618 25.8231C93.8585 25.8231 92.9484 25.2898 92.3417 24.2233C92.2305 24.0531 92.0889 23.7808 91.917 23.3837C91.7249 22.8959 91.5833 22.5782 91.4923 22.408C91.3406 22.5555 91.0272 22.8164 90.5519 23.2022C90.1171 23.5426 89.7632 23.8603 89.48 24.1439C89.3688 24.246 89.0149 24.7225 88.4082 25.5962C87.8925 26.3223 87.5386 26.6854 87.3363 26.6854C86.8611 26.6854 86.5779 26.5152 86.497 26.1748C86.4768 26.1067 87.3768 24.87 89.2171 22.4761C90.8957 20.3204 91.7451 18.9475 91.7451 18.3348C91.7451 17.9264 91.553 17.6768 91.1586 17.6087C90.8148 17.5633 89.6317 18.1647 87.5992 19.424C87.1442 19.6963 86.2442 20.3544 84.8791 21.4209C83.8174 22.2718 83.2208 22.6689 83.0691 22.6236C82.5129 22.4988 82.2703 22.2832 82.3613 21.9655C82.4017 21.7953 83.0286 21.2394 84.2421 20.2977C85.4252 19.3787 86.2948 18.7773 86.8307 18.4823C89.2677 17.0981 90.7743 16.372 91.3608 16.3039C91.7653 16.2586 92.1597 16.3607 92.5237 16.633C92.908 16.9053 93.1102 17.2229 93.1102 17.6087C93.1102 18.0172 92.999 18.5277 92.7866 19.129C92.5743 19.7644 92.463 20.2182 92.463 20.5132C92.3518 20.5132 93.3731 19.8325 95.5067 18.4823C97.8324 16.962 99.056 16.2132 99.1672 16.2359C99.3998 16.2812 99.5211 16.5082 99.5211 16.8939C99.5211 16.962 98.5099 17.7675 96.4775 19.2879L94.8596 20.5246C94.1719 21.0805 93.5652 21.5457 93.0495 21.9088C92.9889 22.0109 93.0091 22.3172 93.1102 22.8505C93.1506 23.1682 93.3428 23.5199 93.6967 23.9056C94.1517 24.3935 94.6472 24.6204 95.1831 24.5977C96.2348 24.5523 97.2358 24.28 98.156 23.8035C98.8639 23.4178 99.966 22.6576 101.452 21.5117C102.747 20.5246 103.455 20.0254 103.586 20.0254C103.788 20.0027 103.889 20.1275 103.93 20.3657ZM114.254 20.0367C114.254 21.3869 113.405 22.8391 111.696 24.3935C110.139 25.8231 108.44 26.5152 106.579 26.4584C105.497 26.4358 104.668 26.0727 104.092 25.3692C103.596 24.7679 103.374 24.0418 103.414 23.1908C103.455 21.8407 103.97 20.8309 104.971 20.1729C105.143 20.0481 105.487 19.9913 106.003 19.9913C106.134 19.9006 106.316 19.6963 106.549 19.4127C106.812 19.1177 107.004 18.9248 107.135 18.8341C108.834 17.6995 110.23 17.1322 111.312 17.1322C112.191 17.1322 112.909 17.4158 113.445 17.9718C113.991 18.505 114.254 19.1971 114.254 20.0367ZM113.031 19.8211C113.031 19.0269 112.505 18.5958 111.443 18.5504C110.3 18.505 109.208 18.9589 108.177 19.9346C108.025 20.0594 107.823 20.3317 107.56 20.7742C107.348 21.1373 107.115 21.3528 106.883 21.4322C106.751 21.4549 106.61 21.4549 106.458 21.4322H106.033C105.669 21.4776 105.335 21.7726 105.032 22.3059C104.82 22.737 104.709 23.0774 104.709 23.327C104.709 23.8149 104.921 24.246 105.356 24.6318C105.811 24.9948 106.326 25.1764 106.913 25.1764C108.015 25.1764 109.269 24.6545 110.664 23.6106C112.242 22.4193 113.031 21.1599 113.031 19.8211ZM127.268 20.5132C127.248 20.7855 125.802 22.0336 122.93 24.2914C121.181 25.6415 119.674 26.4244 118.4 26.6173C117.945 26.6854 117.48 26.4925 117.005 26.0387C116.509 25.6075 116.256 25.1196 116.256 24.5864C116.256 22.8959 117.015 20.8876 118.521 18.5618C119.624 16.8712 120.615 16.0203 121.494 16.0203C121.949 16.0203 122.354 16.3039 122.728 16.8599C123.051 17.3931 123.203 17.9377 123.183 18.4937C123.142 19.8211 122.273 21.0125 120.594 22.0563C119.886 22.4874 118.956 22.8845 117.814 23.2135C117.642 23.5766 117.551 23.9851 117.551 24.4502C117.551 24.8587 117.894 25.1083 118.582 25.1764C119.017 25.1991 120.109 24.6431 121.879 23.5085C125.438 21.1826 127.076 20.0254 126.793 20.0254C127.137 20.0027 127.288 20.1729 127.268 20.5132ZM121.889 18.4029C121.889 17.8697 121.696 17.6087 121.302 17.6087C120.807 17.6087 120.24 18.1873 119.624 19.356L118.39 21.6819C119.401 21.489 120.2 21.0805 120.786 20.4452C121.525 19.6623 121.889 18.9929 121.889 18.4029ZM156.582 9.00858C156.582 12.6165 155.157 16.4741 152.315 20.5927C149.443 24.802 147.007 26.9123 145.004 26.9123C144.165 26.9123 143.589 26.7648 143.285 26.4811C142.962 26.1861 142.78 25.6302 142.739 24.8133C142.679 23.7468 143.771 22.0336 146.036 19.6623C147.421 18.21 148.604 17.5066 149.595 17.552C149.615 17.552 150.303 17.9831 151.668 18.8567C154.044 16.0203 155.227 12.8548 155.227 9.34895C155.227 7.12517 154.358 5.66156 152.608 4.95812C151.769 4.64044 150.394 4.4816 148.503 4.4816C144.034 4.4816 139.402 5.33253 134.589 7.02306C132.415 7.79458 129.816 8.97454 126.793 10.5403L122.809 12.6052C122.546 12.6052 122.425 12.4577 122.425 12.1741C122.445 11.7202 123.86 10.7445 126.661 9.26953C129.361 7.86265 131.788 6.77345 133.942 6.00194C139.139 4.11853 143.882 3.16548 148.179 3.16548C150.859 3.16548 152.831 3.50586 154.105 4.18661C155.753 5.07158 156.582 6.68269 156.582 9.00858ZM150.303 20.5132C150.131 19.9346 149.828 19.5488 149.393 19.356C149.09 19.2312 148.604 19.3787 147.937 19.7871C147.29 20.1729 146.744 20.6607 146.289 21.2394C144.903 22.9866 144.175 24.1893 144.084 24.87C144.044 25.1083 144.347 25.3352 144.994 25.5281C145.581 25.721 146.723 24.9721 148.422 23.2816C149.423 22.2605 150.04 21.3415 150.303 20.5132ZM167.807 20.0367C167.807 21.3869 166.957 22.8391 165.248 24.3935C163.691 25.8231 161.992 26.5152 160.132 26.4584C159.05 26.4358 158.221 26.0727 157.644 25.3692C157.149 24.7679 156.926 24.0418 156.967 23.1908C157.007 21.8407 157.523 20.8309 158.524 20.1729C158.696 20.0481 159.04 19.9913 159.555 19.9913C159.687 19.9006 159.869 19.6963 160.101 19.4127C160.364 19.1177 160.556 18.9248 160.688 18.8341C162.387 17.6995 163.782 17.1322 164.864 17.1322C165.744 17.1322 166.462 17.4158 166.998 17.9718C167.544 18.505 167.807 19.1971 167.807 20.0367ZM166.583 19.8211C166.583 19.0269 166.057 18.5958 164.996 18.5504C163.853 18.505 162.761 18.9589 161.729 19.9346C161.578 20.0594 161.376 20.3317 161.113 20.7742C160.9 21.1373 160.668 21.3528 160.435 21.4322C160.304 21.4549 160.162 21.4549 160.01 21.4322H159.586C159.222 21.4776 158.888 21.7726 158.585 22.3059C158.372 22.737 158.261 23.0774 158.261 23.327C158.261 23.8149 158.473 24.246 158.908 24.6318C159.363 24.9948 159.879 25.1764 160.465 25.1764C161.568 25.1764 162.822 24.6545 164.217 23.6106C165.794 22.4193 166.583 21.1599 166.583 19.8211ZM193.4 21.1713C193.4 21.8747 192.146 22.9412 189.648 24.3708C188.071 25.2671 186.797 25.721 185.826 25.755C184.764 25.7777 183.996 25.0062 183.5 23.4291C181.023 24.7793 179.334 25.4373 178.454 25.3919C177.615 25.3466 176.948 24.575 176.452 23.066C175.219 23.8603 174.379 24.3708 173.924 24.5864C172.114 25.4373 170.921 25.8231 170.365 25.7437C169.414 25.6189 168.959 25.0402 169.01 23.9964C169.03 23.4632 170.021 22.1584 171.983 20.0708C173.56 18.4029 174.531 17.5293 174.895 17.4612C175.239 17.3931 175.411 17.6314 175.411 18.1873C175.411 18.1193 174.572 19.0837 172.883 21.0919C171.589 22.6462 170.941 23.4632 170.941 23.5653C170.881 23.8035 171.022 23.951 171.396 23.9964C172.175 24.1212 174.046 23.1001 177.029 20.9444C180.325 18.6639 181.943 17.5293 181.882 17.5293C182.054 17.5066 182.206 17.586 182.337 17.7789C182.469 17.9491 182.53 18.1306 182.53 18.3235C182.53 18.176 181.771 18.9021 180.265 20.5019C180.093 20.6721 179.708 21.0465 179.102 21.6251C178.647 22.0563 178.323 22.442 178.131 22.7484C178.475 23.5199 178.758 23.9056 178.97 23.9056C180.325 23.9056 181.923 23.032 183.763 21.2961L186.089 19.1858C187.555 17.881 188.354 17.2343 188.485 17.257C189.092 17.3818 189.396 17.8016 189.396 18.5277C189.396 18.3348 188.425 19.2312 186.483 21.2167C185.856 21.8974 185.513 22.4307 185.452 22.8164C185.391 23.1114 185.472 23.4178 185.715 23.7581C185.927 24.0985 186.17 24.2687 186.423 24.2687C186.746 24.2687 187.565 23.951 188.88 23.327C189.507 23.0093 190.316 22.4534 191.307 21.6592C192.237 20.9103 192.743 20.5246 192.823 20.5019C193.208 20.3884 193.4 20.6153 193.4 21.1713ZM214.24 20.3657C214.261 20.7515 213.664 21.4663 212.461 22.5101C211.227 23.5539 210.125 24.3141 209.124 24.802C207.698 25.4827 206.444 25.8231 205.372 25.8231C204.169 25.8231 203.259 25.2898 202.652 24.2233C202.541 24.0531 202.399 23.7808 202.228 23.3837C202.035 22.8959 201.894 22.5782 201.803 22.408C201.651 22.5555 201.338 22.8164 200.862 23.2022C200.428 23.5426 200.074 23.8603 199.791 24.1439C199.679 24.246 199.325 24.7225 198.719 25.5962C198.203 26.3223 197.849 26.6854 197.647 26.6854C197.172 26.6854 196.888 26.5152 196.808 26.1748C196.787 26.1067 197.687 24.87 199.528 22.4761C201.206 20.3204 202.056 18.9475 202.056 18.3348C202.056 17.9264 201.863 17.6768 201.469 17.6087C201.125 17.5633 199.942 18.1647 197.91 19.424C197.455 19.6963 196.555 20.3544 195.19 21.4209C194.128 22.2718 193.531 22.6689 193.38 22.6236C192.823 22.4988 192.581 22.2832 192.672 21.9655C192.712 21.7953 193.339 21.2394 194.553 20.2977C195.736 19.3787 196.605 18.7773 197.141 18.4823C199.578 17.0981 201.085 16.372 201.671 16.3039C202.076 16.2586 202.47 16.3607 202.834 16.633C203.218 16.9053 203.421 17.2229 203.421 17.6087C203.421 18.0172 203.309 18.5277 203.097 19.129C202.885 19.7644 202.774 20.2182 202.774 20.5132C202.662 20.5132 203.684 19.8325 205.817 18.4823C208.143 16.962 209.366 16.2132 209.478 16.2359C209.71 16.2812 209.832 16.5082 209.832 16.8939C209.832 16.962 208.82 17.7675 206.788 19.2879L205.17 20.5246C204.482 21.0805 203.876 21.5457 203.36 21.9088C203.299 22.0109 203.32 22.3172 203.421 22.8505C203.461 23.1682 203.653 23.5199 204.007 23.9056C204.462 24.3935 204.958 24.6204 205.494 24.5977C206.545 24.5523 207.546 24.28 208.467 23.8035C209.174 23.4178 210.277 22.6576 211.763 21.5117C213.057 20.5246 213.765 20.0254 213.897 20.0254C214.089 20.0027 214.2 20.1275 214.24 20.3657ZM224.565 20.0367C224.565 21.3869 223.715 22.8391 222.006 24.3935C220.449 25.8231 218.75 26.5152 216.89 26.4584C215.808 26.4358 214.979 26.0727 214.402 25.3692C213.907 24.7679 213.684 24.0418 213.725 23.1908C213.765 21.8407 214.281 20.8309 215.282 20.1729C215.454 20.0481 215.798 19.9913 216.313 19.9913C216.445 19.9006 216.627 19.6963 216.859 19.4127C217.122 19.1177 217.314 18.9248 217.446 18.8341C219.145 17.6995 220.54 17.1322 221.622 17.1322C222.502 17.1322 223.22 17.4158 223.756 17.9718C224.292 18.505 224.565 19.1971 224.565 20.0367ZM223.341 19.8211C223.341 19.0269 222.815 18.5958 221.754 18.5504C220.611 18.505 219.519 18.9589 218.487 19.9346C218.336 20.0594 218.133 20.3317 217.871 20.7742C217.658 21.1373 217.426 21.3528 217.193 21.4322C217.062 21.4549 216.92 21.4549 216.768 21.4322H216.344C215.98 21.4776 215.646 21.7726 215.343 22.3059C215.13 22.737 215.019 23.0774 215.019 23.327C215.019 23.8149 215.231 24.246 215.666 24.6318C216.121 24.9948 216.637 25.1764 217.223 25.1764C218.326 25.1764 219.579 24.6545 220.975 23.6106C222.552 22.4193 223.341 21.1599 223.341 19.8211ZM249.713 20.7288C249.602 21.1146 248.53 22.113 246.477 23.7014C244.515 25.2558 242.806 26.0273 241.36 26.0273C239.308 26.0273 237.892 25.2331 237.093 23.6333C236.729 22.8618 236.578 22.3513 236.638 22.113C233.787 23.9737 232.432 24.87 232.563 24.802C230.531 25.9138 229.095 26.4698 228.225 26.4698C226.779 26.4698 226.112 25.789 226.223 24.4389C226.284 23.588 226.597 22.703 227.163 21.784C227.77 20.7969 228.336 20.3431 228.882 20.4452C229.186 20.4905 229.317 20.6834 229.267 21.0238C229.246 21.2167 229.125 21.4209 228.913 21.6365C228.609 21.9315 228.427 22.1357 228.367 22.2491C227.78 23.2135 227.477 23.917 227.457 24.3595C227.416 24.8927 227.669 25.1537 228.235 25.1537C228.822 25.1537 229.964 24.7225 231.663 23.8489C232.462 23.4405 233.413 22.8278 234.515 22.0336C236.092 20.8763 237.387 19.8098 238.398 18.8341L239.722 17.0868C240.309 16.3153 240.764 15.9522 241.118 15.9976C241.674 16.0997 241.937 16.3153 241.896 16.6557C241.836 17.0187 241.269 17.8924 240.218 19.2652C239.004 20.933 238.408 22.0109 238.408 22.4988C238.408 23.1341 238.701 23.656 239.277 24.0985C239.864 24.5637 240.582 24.7906 241.441 24.7906C242.281 24.7906 243.646 24.1666 245.516 22.9072C248.186 21.0465 249.42 20.1275 249.207 20.1502C249.339 20.1275 249.47 20.1729 249.592 20.2977C249.713 20.4225 249.753 20.5586 249.713 20.7288ZM256.144 21.4209C256.356 22.3399 256.002 23.3837 255.072 24.541C254.182 25.6756 253.252 26.3677 252.261 26.6059C251.503 26.7988 250.765 26.6173 250.026 26.0613C249.248 25.4827 248.874 24.7793 248.894 23.951C248.934 22.6916 249.844 21.2394 251.614 19.5942L253.262 17.1208C254.041 15.9863 254.597 15.3622 254.941 15.2715C255.396 15.124 255.628 15.3169 255.649 15.8501C255.669 16.043 255.507 16.3607 255.163 16.7918C254.708 17.3704 254.415 17.7675 254.294 17.9945C253.798 18.7887 253.424 19.4694 253.161 20.0254C253.677 19.98 254.021 19.98 254.192 20.0254C255.325 20.1161 255.972 20.57 256.144 21.4209ZM254.921 22.0336C254.83 21.4096 254.314 21.1599 253.363 21.3074C252.453 21.4549 251.847 21.6705 251.523 21.9655C250.896 23.4178 250.562 24.0758 250.522 23.9283C250.613 24.3368 250.815 24.6658 251.139 24.9041C251.442 25.1423 251.776 25.2331 252.14 25.1537C252.696 25.0856 253.323 24.6772 254.021 23.951C254.728 23.2362 255.022 22.6009 254.921 22.0336ZM278.603 20.6607C278.663 21.2167 277.389 22.4988 274.78 24.507C273.294 25.6642 271.979 26.2542 270.837 26.2542C269.198 26.2542 268.379 25.2331 268.379 23.2022C268.4 22.5214 268.572 21.6819 268.895 20.6607C268.743 20.6607 268.42 20.6267 267.924 20.5473C267.51 20.5019 267.217 20.4905 267.014 20.5132C266.003 20.6607 265.184 20.7061 264.557 20.6607L263.131 22.8391C261.574 25.165 260.583 26.2996 260.158 26.2542C259.815 26.1861 259.643 26.1294 259.643 26.1067C259.532 25.789 260.027 24.802 261.129 23.1341C261.736 22.2151 262.272 21.194 262.747 20.0821C262.535 20.2069 261.817 20.7402 260.613 21.6819C259.663 22.4307 259.036 22.8164 258.733 22.8391C258.52 22.8391 258.389 22.6689 258.348 22.3286C258.288 21.9201 258.652 21.4209 259.451 20.8423C260.806 19.8779 261.756 19.1404 262.302 18.6298C263.92 17.0301 265.012 16.2699 265.568 16.338C265.851 16.3607 266.033 16.6216 266.114 17.0981C266.195 17.586 266.023 18.21 265.599 18.9816H267.409C267.52 18.9816 267.844 19.0156 268.379 19.095C268.814 19.1631 269.118 19.1744 269.289 19.129C269.654 18.7206 269.997 18.2781 270.321 17.8243C271.16 16.667 271.787 16.077 272.202 16.077C272.849 16.077 273.132 16.2699 273.041 16.6557C273.021 16.7578 272.657 17.4499 271.939 18.766C270.553 21.3074 269.866 22.7824 269.866 23.1908C269.866 24.3027 270.321 24.8587 271.221 24.8587C271.979 24.8587 272.899 24.4502 274.002 23.622C274.325 23.3837 275.104 22.703 276.327 21.5911C277.359 20.6494 277.945 20.1615 278.077 20.1388C278.39 20.0821 278.562 20.2523 278.603 20.6607ZM289.22 20.0367C289.22 21.3869 288.371 22.8391 286.662 24.3935C285.104 25.8231 283.406 26.5152 281.545 26.4584C280.463 26.4358 279.634 26.0727 279.058 25.3692C278.562 24.7679 278.34 24.0418 278.38 23.1908C278.421 21.8407 278.936 20.8309 279.937 20.1729C280.109 20.0481 280.453 19.9913 280.969 19.9913C281.1 19.9006 281.282 19.6963 281.515 19.4127C281.778 19.1177 281.97 18.9248 282.101 18.8341C283.8 17.6995 285.195 17.1322 286.277 17.1322C287.157 17.1322 287.875 17.4158 288.411 17.9718C288.947 18.505 289.22 19.1971 289.22 20.0367ZM287.986 19.8211C287.986 19.0269 287.461 18.5958 286.399 18.5504C285.256 18.505 284.164 18.9589 283.133 19.9346C282.981 20.0594 282.779 20.3317 282.516 20.7742C282.303 21.1373 282.071 21.3528 281.838 21.4322C281.707 21.4549 281.565 21.4549 281.414 21.4322H280.989C280.625 21.4776 280.291 21.7726 279.988 22.3059C279.776 22.737 279.664 23.0774 279.664 23.327C279.664 23.8149 279.877 24.246 280.311 24.6318C280.766 24.9948 281.282 25.1764 281.869 25.1764C282.971 25.1764 284.215 24.6545 285.62 23.6106C287.198 22.4193 287.986 21.1599 287.986 19.8211ZM302.224 20.5132C302.204 20.7855 300.758 22.0336 297.886 24.2914C296.137 25.6415 294.63 26.4244 293.356 26.6173C292.901 26.6854 292.436 26.4925 291.96 26.0387C291.465 25.6075 291.212 25.1196 291.212 24.5864C291.212 22.8959 291.97 20.8876 293.477 18.5618C294.579 16.8712 295.57 16.0203 296.45 16.0203C296.905 16.0203 297.31 16.3039 297.684 16.8599C298.007 17.3931 298.159 17.9377 298.139 18.4937C298.098 19.8211 297.229 21.0125 295.55 22.0563C294.842 22.4874 293.912 22.8845 292.769 23.2135C292.597 23.5766 292.506 23.9851 292.506 24.4502C292.506 24.8587 292.85 25.1083 293.538 25.1764C293.973 25.1991 295.065 24.6431 296.834 23.5085C300.394 21.1826 302.032 20.0254 301.749 20.0254C302.092 20.0027 302.244 20.1729 302.224 20.5132ZM296.854 18.4029C296.854 17.8697 296.662 17.6087 296.268 17.6087C295.772 17.6087 295.206 18.1873 294.589 19.356L293.356 21.6819C294.367 21.489 295.166 21.0805 295.752 20.4452C296.49 19.6623 296.854 18.9929 296.854 18.4029Z" fill="url(#paint0_linear_123_21812)"/>
<path d="M332.21 22.5472C332.21 22.4564 330.329 23.9541 326.578 27.0515C323.686 29.4 321.663 31.3402 320.49 32.8605C320.571 32.6903 319.985 34.0632 318.71 36.9677C317.679 39.2936 316.668 41.1203 315.697 42.4477L312.977 46.1465C311.946 47.3832 311.096 47.9845 310.449 47.9618C309.114 47.9164 308.447 47.213 308.447 45.8515C308.447 44.2744 310.217 41.6422 313.756 37.9321C316.112 35.3906 318.003 33.3824 319.449 31.9075L320.227 29.7631C320.571 28.7987 320.834 27.9818 321.006 27.3351C321.067 27.0742 321.279 26.5182 321.623 25.6673C321.946 24.8163 322.148 24.1923 322.24 23.7839C320.258 25.1907 318.316 25.8942 316.415 25.8942C315.384 25.8942 314.706 25.6786 314.413 25.2361C314.241 25.0206 314.11 24.4873 314.029 23.6364C313.968 22.9102 314.403 22.0026 315.353 20.9134C316.263 19.8923 316.87 19.4271 317.194 19.4951C317.649 19.5632 317.881 19.7901 317.902 20.1532C317.902 20.2213 317.517 20.6638 316.739 21.458C315.92 22.2862 315.485 23.035 315.444 23.7044C315.404 24.2377 315.677 24.4987 316.284 24.4987C318.872 24.4987 321.309 23.3641 323.595 21.0836C324.606 19.6767 325.273 18.8144 325.597 18.474C326.76 17.2146 327.619 16.5906 328.185 16.5906C328.418 16.5906 328.64 16.7041 328.832 16.9196C329.025 17.1352 329.116 17.3621 329.095 17.6117C329.095 17.7365 328.337 18.5081 326.83 19.9376C325.516 21.2424 324.737 22.0706 324.505 22.411C323.969 23.3754 323.534 24.3512 323.21 25.3156C322.674 27.0628 322.371 28.1974 322.3 28.7306L326.375 25.5311C329.743 23.1145 331.512 21.9005 331.684 21.9005C331.815 21.8778 331.937 21.9572 332.038 22.1501C332.159 22.2976 332.21 22.4337 332.21 22.5472ZM318.104 35.1864C316.102 37.2627 314.716 38.7717 313.958 39.6907C311.086 43.2533 309.691 45.3296 309.751 45.9309C309.792 46.2713 310.014 46.4415 310.398 46.4415C311.329 46.4415 312.704 44.8871 314.544 41.7897C315.818 39.6907 317.002 37.4783 318.104 35.1864ZM364.952 21.9685C364.932 22.4791 363.83 23.5456 361.656 25.1681C359.107 27.0288 357.186 27.9705 355.892 28.0045C355.508 28.0045 355.184 27.8003 354.921 27.3918C354.678 27.0288 354.577 26.609 354.598 26.1211C354.638 25.463 355.285 24.3512 356.539 22.7854C357.57 21.4353 358.116 20.6751 358.157 20.539C357.793 20.7772 357.267 21.0495 356.6 21.3332C355.71 21.7416 355.113 22.0366 354.79 22.2068C353.152 23.2279 351.342 24.1242 349.349 24.8958C343.586 32.1344 340.269 36.2756 339.379 37.3081C332.584 45.2955 329.217 49.2893 329.287 49.2893C328.984 49.2893 328.812 49.1645 328.772 48.9262C328.772 48.8581 332.068 44.6375 338.671 36.287L341.422 32.9059C342.413 31.6692 343.434 30.3758 344.496 29.0256C347.175 25.6105 349.117 23.0918 350.32 21.4693L349.087 22.1955C347.681 23.0918 347.084 23.5456 347.277 23.5796C347.064 23.5569 346.842 23.3414 346.629 22.9216C346.478 22.5812 347.539 21.7076 349.805 20.312C350.3 20.0171 350.846 19.6426 351.453 19.1888C352.08 18.735 352.545 18.4059 352.848 18.2131C353.607 17.5096 354.153 17.2033 354.496 17.3054C354.82 17.3735 354.982 17.555 354.982 17.85C354.982 17.8046 354.426 18.5081 353.303 19.9603C352.272 21.2651 351.625 22.116 351.362 22.5018C352.181 22.2862 353.536 21.6282 355.437 20.539C357.682 19.1888 359.259 18.5081 360.159 18.5081C360.422 18.5081 360.523 18.7463 360.483 19.2342C360.392 19.9149 359.593 21.0949 358.086 22.7968C356.6 24.544 355.862 25.6559 355.882 26.1325C355.922 26.5182 356.074 26.7111 356.337 26.7111C357.156 26.7111 358.733 25.8601 361.059 24.1696C363.284 22.5245 364.406 21.6962 364.426 21.6962C364.78 21.6282 364.952 21.7303 364.952 21.9685ZM346.609 22.4791C346.478 23.2279 345.062 24.5327 342.372 26.4048C340.411 27.7889 338.712 28.413 337.296 28.2882C336.174 28.186 335.668 27.6641 335.779 26.6884C335.891 25.9169 336.164 25.1681 336.619 24.4419C336.659 24.3965 337.165 23.7385 338.135 22.4791C337.721 22.4791 337.357 22.411 337.033 22.2635C336.386 21.9685 335.921 21.5601 335.638 21.0268C335.142 21.7983 334.576 22.4791 333.959 23.0577C333.201 23.7385 332.756 24.0789 332.604 24.0789C332.453 24.0789 332.311 24.0221 332.18 23.8973C332.048 23.7725 331.997 23.6477 332.018 23.5002C332.038 23.4775 332.453 22.9443 333.251 21.9005L334.647 20.1532C335.941 17.884 336.801 16.7154 337.235 16.67C337.407 16.6474 337.579 16.7041 337.751 16.8516C337.923 17.0218 338.014 17.226 338.014 17.4642C337.994 17.7365 337.822 18.1563 337.498 18.735C337.114 19.4384 336.851 19.9603 336.72 20.3007C336.912 20.6865 337.155 20.902 337.428 20.9588C337.923 21.1063 338.51 21.1063 339.177 20.9588C339.581 20.8113 340.127 20.4255 340.795 19.8015C341.381 19.2909 341.766 19.0527 341.958 19.0754C342.393 19.1207 342.625 19.4157 342.666 19.949C342.726 20.607 341.776 21.4693 339.814 22.5585C338.176 24.2264 337.326 25.5652 337.256 26.5522C337.256 26.7905 337.529 26.9153 338.065 26.9153C338.843 26.8926 340.097 26.3367 341.816 25.2475C342.291 24.9525 343.131 24.2944 344.344 23.2506C345.426 22.3316 346.023 21.8551 346.154 21.8324C346.326 21.8097 346.457 21.8664 346.538 22.0139C346.629 22.1501 346.65 22.3089 346.609 22.4791ZM375.216 22.0366C375.195 22.3089 373.749 23.557 370.878 25.8148C369.128 27.1649 367.622 27.9478 366.348 28.1407C365.893 28.2087 365.427 28.0159 364.952 27.562C364.457 27.1309 364.204 26.643 364.204 26.1098C364.204 24.4192 364.962 22.411 366.469 20.0851C367.571 18.3946 368.562 17.5437 369.442 17.5437C369.897 17.5437 370.301 17.8273 370.675 18.3833C370.999 18.9165 371.151 19.4611 371.13 20.0171C371.09 21.3445 370.22 22.5358 368.542 23.5796C367.834 24.0108 366.904 24.4079 365.761 24.7369C365.589 25.1 365.498 25.5084 365.498 25.9736C365.498 26.3821 365.842 26.6317 366.53 26.6997C366.964 26.7224 368.056 26.1665 369.826 25.0319C373.385 22.706 375.024 21.5487 374.74 21.5487C375.084 21.5374 375.236 21.7076 375.216 22.0366ZM369.846 19.9376C369.846 19.4044 369.654 19.1434 369.26 19.1434C368.764 19.1434 368.198 19.7221 367.581 20.8907L366.348 23.2166C367.359 23.0237 368.158 22.6152 368.744 21.9799C369.472 21.197 369.846 20.5163 369.846 19.9376ZM403.62 22.3316C403.66 22.8195 402.477 23.9541 400.061 25.7467C397.735 27.5166 395.965 28.3562 394.752 28.2882C394.196 28.2655 393.69 27.9591 393.265 27.3805C392.831 26.8472 392.638 26.3253 392.679 25.8148C392.699 25.4744 392.851 24.7142 393.134 23.5229L392.163 24.249C391.708 24.5667 391.374 24.8163 391.162 25.0092C389.352 26.5069 388.088 27.2557 387.38 27.2557C386.541 27.2557 386.147 26.7678 386.217 25.8034C386.238 25.4631 386.541 24.7483 387.127 23.6591C387.279 23.3414 387.522 22.9556 387.876 22.5018C388.22 22.048 388.452 21.6962 388.553 21.4466C388.118 21.5487 387.441 21.8551 386.511 22.3883C385.692 22.8762 384.549 23.625 383.083 24.6348C382.132 25.3382 381.404 25.9282 380.878 26.4161C379.796 27.4826 379.18 28.0045 379.038 27.9818C378.654 27.9364 378.482 27.7549 378.522 27.4372C378.542 27.0515 379.018 26.3594 379.948 25.3723C380.808 24.4987 381.455 23.7271 381.89 23.0464C382.921 21.4239 383.447 20.4369 383.447 20.0738C383.447 19.8809 383.184 19.7788 382.668 19.7788C381.525 19.7788 380.14 20.2667 378.522 21.2311C378.067 21.5034 377.329 22.0933 376.288 23.0123C375.377 23.8066 374.872 24.215 374.771 24.215C374.296 24.215 374.083 23.92 374.124 23.3414C374.184 22.7627 375.367 21.7189 377.653 20.2213C379.635 18.9619 381.434 18.3606 383.052 18.406C384.326 18.4513 384.933 18.9619 384.862 19.9263C384.771 20.7545 384.458 21.6395 383.922 22.6152C384.286 22.3203 385.307 21.7189 386.966 20.7999C389.554 19.3477 390.98 18.6102 391.233 18.5875C391.344 18.5875 391.455 18.6783 391.587 18.8371C391.698 19.03 391.738 19.2002 391.718 19.3477C391.678 19.5859 391.253 20.2099 390.454 21.197C389.504 22.3883 388.978 23.0577 388.867 23.2279C388.129 24.4646 387.744 25.1794 387.704 25.3723C387.613 25.6446 387.643 25.7807 387.765 25.8034C387.916 25.8261 389.484 24.6915 392.456 22.3883C395.177 20.2099 396.633 19.1207 396.825 19.1207C396.976 19.1207 397.118 19.2002 397.249 19.3703C397.361 19.5405 397.391 19.7221 397.351 19.9149C397.31 20.2553 396.673 21.0382 395.439 22.2749C394.641 23.1712 394.196 24.1469 394.115 25.2134C394.004 26.1551 394.307 26.6657 395.025 26.7338C395.733 26.8019 397.067 26.1778 399.009 24.8504C401.982 22.8195 403.418 21.7983 403.317 21.7983C403.468 21.821 403.579 21.9912 403.62 22.3316ZM420.416 10.5319C420.416 14.1399 418.99 17.9975 416.149 22.116C413.277 26.3253 410.84 28.4357 408.838 28.4357C407.998 28.4357 407.422 28.2882 407.119 28.0045C406.795 27.7095 406.613 27.1536 406.573 26.3367C406.512 25.2702 407.604 23.557 409.869 21.1857C411.254 19.7334 412.438 19.03 413.428 19.0754C413.449 19.0754 414.136 19.5065 415.501 20.3801C417.878 17.5437 419.061 14.3782 419.061 10.8723C419.061 8.64855 418.191 7.18493 416.442 6.48149C415.603 6.16381 414.227 6.00497 412.336 6.00497C407.867 6.00497 403.236 6.8559 398.422 8.54643C396.248 9.31795 393.65 10.4979 390.626 12.0636L386.642 14.1286C386.379 14.1286 386.258 13.9811 386.258 13.6974C386.278 13.2436 387.694 12.2679 390.495 10.7929C393.195 9.38603 395.621 8.29683 397.775 7.52531C402.973 5.6419 407.715 4.68886 412.013 4.68886C414.692 4.68886 416.664 5.02923 417.938 5.70998C419.587 6.59495 420.416 8.20606 420.416 10.5319ZM414.136 22.0366C413.964 21.458 413.661 21.0722 413.226 20.8793C412.923 20.7545 412.437 20.902 411.77 21.3105C411.123 21.6962 410.577 22.1841 410.122 22.7627C408.737 24.51 408.008 25.7127 407.917 26.3934C407.877 26.6317 408.18 26.8586 408.828 27.0515C409.414 27.2443 410.557 26.4955 412.255 24.805C413.257 23.7839 413.883 22.8649 414.136 22.0366ZM431.448 22.0366C431.428 22.3089 429.982 23.557 427.11 25.8148C425.36 27.1649 423.854 27.9478 422.58 28.1407C422.125 28.2087 421.66 28.0159 421.184 27.562C420.689 27.1309 420.436 26.643 420.436 26.1098C420.436 24.4192 421.194 22.411 422.701 20.0851C423.803 18.3946 424.794 17.5437 425.674 17.5437C426.129 17.5437 426.533 17.8273 426.908 18.3833C427.231 18.9165 427.383 19.4611 427.363 20.0171C427.322 21.3445 426.453 22.5358 424.774 23.5796C424.066 24.0108 423.136 24.4079 421.993 24.7369C421.821 25.1 421.73 25.5084 421.73 25.9736C421.73 26.3821 422.074 26.6317 422.762 26.6997C423.197 26.7224 424.289 26.1665 426.058 25.0319C429.618 22.706 431.256 21.5487 430.973 21.5487C431.327 21.5374 431.478 21.7076 431.448 22.0366ZM426.078 19.9376C426.078 19.4044 425.886 19.1434 425.492 19.1434C424.996 19.1434 424.43 19.7221 423.813 20.8907L422.58 23.2166C423.591 23.0237 424.39 22.6152 424.976 21.9799C425.714 21.197 426.078 20.5163 426.078 19.9376ZM450.701 22.1841C450.762 22.7401 449.487 24.0221 446.879 26.0303C445.392 27.1876 444.078 27.7776 442.935 27.7776C441.297 27.7776 440.478 26.7565 440.478 24.7256C440.498 24.0448 440.67 23.2052 440.993 22.1841C440.842 22.1841 440.518 22.1501 440.023 22.0706C439.608 22.0253 439.315 22.0139 439.113 22.0366C438.101 22.1841 437.282 22.2295 436.655 22.1841L435.23 24.3625C433.672 26.6884 432.681 27.823 432.257 27.7776C431.913 27.7095 431.741 27.6528 431.741 27.6301C431.63 27.3124 432.125 26.3253 433.228 24.6575C433.834 23.7385 434.37 22.7174 434.845 21.6055C434.633 21.7303 433.915 22.2635 432.712 23.2052C431.761 23.9541 431.134 24.3398 430.831 24.3625C430.619 24.3625 430.487 24.1923 430.447 23.8519C430.386 23.4435 430.75 22.9443 431.549 22.3656C432.904 21.4012 433.854 20.6638 434.401 20.1532C436.018 18.5534 437.11 17.7933 437.667 17.8614C437.95 17.884 438.132 18.145 438.213 18.6215C438.304 19.1094 438.122 19.7334 437.697 20.5049H439.507C439.618 20.5049 439.942 20.539 440.478 20.6184C440.913 20.6865 441.216 20.6978 441.388 20.6524C441.752 20.244 442.096 19.8015 442.419 19.3477C443.259 18.1904 443.885 17.6004 444.3 17.6004C444.947 17.6004 445.23 17.7933 445.139 18.179C445.119 18.2811 444.755 18.9732 444.037 20.2894C442.652 22.8308 441.964 24.3058 441.964 24.7142C441.964 25.8261 442.419 26.3821 443.319 26.3821C444.078 26.3821 444.998 25.9736 446.1 25.1454C446.424 24.9071 447.202 24.2264 448.426 23.1145C449.457 22.1728 450.044 21.6849 450.175 21.6622C450.488 21.6055 450.66 21.7757 450.701 22.1841ZM472.836 22.0366C472.876 22.2749 472.391 22.8422 471.38 23.7385C470.389 24.5894 469.398 25.3269 468.407 25.9509C466.506 27.1422 465.191 27.7436 464.463 27.7663C463.149 27.7889 462.228 27.2103 461.713 26.019C461.45 25.395 461.328 24.8844 461.328 24.4987C459.003 26.5296 456.829 27.5961 454.827 27.6982C453.623 27.7662 453.037 27.267 453.077 26.1778C453.097 25.6446 453.401 24.771 453.987 23.5683C454.543 22.3543 455.059 21.5261 455.504 21.0609C455.292 21.2084 454.968 21.3899 454.533 21.6055L453.401 22.2635C451.611 23.33 450.721 23.8633 450.751 23.8633C450.367 23.8179 450.195 23.6023 450.236 23.2052C450.327 22.5018 451.57 21.5828 453.987 20.4482C454.27 20.3234 454.857 19.983 455.767 19.4271C456.525 18.9392 457.051 18.6783 457.354 18.6329C457.567 18.5875 457.789 18.6556 458.002 18.8484C458.214 19.0186 458.325 19.2115 458.325 19.4271C458.325 19.6994 457.739 20.539 456.576 21.9685C455.413 23.4208 454.766 24.6121 454.634 25.5311C454.594 25.9169 454.574 26.0644 454.574 25.9623C454.574 26.1098 454.675 26.1892 454.867 26.2119C456.333 26.28 458.254 25.3269 460.631 23.3414C461.561 22.5472 462.309 21.7983 462.896 21.0949C464.059 19.6426 464.686 18.9165 464.777 18.9165C465.424 18.9392 465.778 19.325 465.848 20.0738C465.848 20.2667 465.636 20.607 465.201 21.0949C464.645 21.753 464.281 22.2068 464.129 22.4791C463.331 23.7385 462.936 24.51 462.936 24.805C462.916 25.2134 463.027 25.5652 463.26 25.8602C463.543 26.2232 463.907 26.4048 464.362 26.4048C464.918 26.4048 465.939 25.9509 467.406 25.0206C468.164 24.5327 469.165 23.8066 470.419 22.8422C471.653 21.9232 472.249 21.458 472.229 21.458C472.492 21.2651 472.704 21.458 472.836 22.0366ZM482.998 22.0366C482.978 22.3089 481.532 23.557 478.66 25.8148C476.911 27.1649 475.404 27.9478 474.13 28.1407C473.675 28.2087 473.21 28.0159 472.735 27.562C472.239 27.1309 471.986 26.643 471.986 26.1098C471.986 24.4192 472.745 22.411 474.251 20.0851C475.354 18.3946 476.345 17.5437 477.224 17.5437C477.679 17.5437 478.084 17.8273 478.458 18.3833C478.782 18.9165 478.933 19.4611 478.913 20.0171C478.873 21.3445 478.003 22.5358 476.324 23.5796C475.617 24.0108 474.686 24.4079 473.544 24.7369C473.372 25.1 473.281 25.5084 473.281 25.9736C473.281 26.3821 473.625 26.6317 474.312 26.6997C474.747 26.7224 475.839 26.1665 477.609 25.0319C481.168 22.706 482.806 21.5487 482.523 21.5487C482.867 21.5374 483.018 21.7076 482.998 22.0366ZM477.629 19.9376C477.629 19.4044 477.437 19.1434 477.042 19.1434C476.547 19.1434 475.981 19.7221 475.364 20.8907L474.13 23.2166C475.141 23.0237 475.94 22.6152 476.527 21.9799C477.265 21.197 477.629 20.5163 477.629 19.9376Z" fill="url(#paint1_linear_123_21812)"/>
<path d="M21.4334 54.8948C21.4941 55.4508 20.22 56.7329 17.6111 58.7411C16.1247 59.8984 14.8101 60.4883 13.6675 60.4883C12.0293 60.4883 11.2103 59.4672 11.2103 57.4363C11.2305 56.7556 11.4024 55.916 11.726 54.8948C11.5743 54.8948 11.2507 54.8608 10.7553 54.7814C10.3407 54.736 10.0474 54.7247 9.84518 54.7473C8.83399 54.8948 8.01493 54.9402 7.38799 54.8948L5.96222 57.0732C4.40499 59.3991 3.41403 60.5337 2.98933 60.4883C2.64552 60.4203 2.47362 60.3635 2.47362 60.3408C2.36239 60.0231 2.85787 59.0361 3.96007 57.3682C4.56678 56.4492 5.10271 55.4281 5.57796 54.3162C5.36562 54.441 4.64767 54.9743 3.44436 55.916C2.49384 56.6648 1.8669 57.0506 1.56355 57.0732C1.3512 57.0732 1.21975 56.903 1.1793 56.5627C1.11863 56.1542 1.48266 55.655 2.2815 55.0764C3.63649 54.112 4.58701 53.3745 5.13305 52.8639C6.75095 51.2642 7.84303 50.504 8.39918 50.5721C8.68231 50.5948 8.86433 50.8557 8.94522 51.3322C9.02612 51.8201 8.85421 52.4441 8.42951 53.2157H10.2395C10.3508 53.2157 10.6744 53.2497 11.2103 53.3291C11.6451 53.3972 11.9485 53.4085 12.1204 53.3632C12.4844 52.9547 12.8282 52.5122 13.1518 52.0584C13.9911 50.9011 14.618 50.3111 15.0326 50.3111C15.6797 50.3111 15.9629 50.504 15.8719 50.8898C15.8516 50.9919 15.4876 51.684 14.7697 53.0001C13.3843 55.5415 12.6967 57.0165 12.6967 57.425C12.6967 58.5368 13.1518 59.0928 14.0517 59.0928C14.8101 59.0928 15.7303 58.6843 16.8325 57.8561C17.1561 57.6178 17.9347 56.9371 19.1582 55.8252C20.1896 54.8835 20.7761 54.3956 20.9076 54.3729C21.221 54.3162 21.3929 54.4864 21.4334 54.8948ZM40.7167 55.1898C40.7167 55.36 39.1494 56.6194 36.0248 58.968C33.78 60.6585 31.9194 61.5094 30.4229 61.5094C29.3409 61.5094 28.6735 60.9762 28.4207 59.9097C28.2892 59.3537 28.2791 58.6957 28.3904 57.9469C27.4803 58.6276 26.641 59.1836 25.8624 59.6147C24.5276 60.3862 23.3951 60.772 22.4648 60.772C21.1705 60.772 20.5233 60.0232 20.5233 58.5255C20.5233 57.2661 21.5042 55.4621 23.4659 53.1136C25.5793 50.504 27.0961 49.2106 28.0263 49.2333C29.1083 49.2787 30.0083 49.8573 30.7464 50.9805C30.9386 51.2755 31.1711 51.8882 31.4239 52.8299C32.3542 52.2059 32.7081 51.8769 32.4958 51.8542C33.1632 51.8996 33.4665 52.1945 33.4059 52.7278C33.3452 53.1589 32.8598 53.9304 31.9497 55.0196C31.2621 55.916 30.7161 56.54 30.3319 56.9031C29.8566 58.1624 29.6341 58.8999 29.6544 59.1155C29.715 59.7508 30.0386 60.0572 30.6251 60.0572C31.5352 60.0572 33.0924 59.3311 35.317 57.8788C38.9168 55.5302 40.5651 54.3729 40.2718 54.3956C40.5651 54.3616 40.7167 54.6339 40.7167 55.1898ZM30.1701 53.0114C30.1701 52.6257 29.9577 52.1378 29.5229 51.5592C29.0679 50.9578 28.6331 50.6628 28.2286 50.6855C27.45 50.7309 26.1354 51.8995 24.2849 54.1687C22.5558 56.3244 21.7367 57.7767 21.8278 58.5255C21.8884 59.0361 22.212 59.3197 22.7985 59.3991C23.2333 59.4445 24.1232 59.0588 25.4883 58.2419C27.6926 56.9598 29.2297 55.6664 30.1195 54.3616L30.1701 53.0114ZM86.2101 54.5999C86.1696 55.3487 84.4001 56.903 80.9014 59.2516C78.788 60.6585 76.9274 61.43 75.3398 61.5775C74.8646 61.6229 74.4298 61.4187 74.0455 60.9649C73.6613 60.4997 73.459 59.9324 73.459 59.263C73.459 58.8318 73.8938 57.6632 74.7533 55.7798C74.8848 55.4621 75.2084 54.9062 75.7241 54.112C76.1285 53.5107 76.3308 53.0909 76.3106 52.8753C76.2903 52.5349 76.0679 52.342 75.6634 52.2967C75.0567 52.2513 73.3781 53.2157 70.6176 55.2012C70.203 55.6323 69.6266 56.4152 68.8682 57.5271C68.2008 58.4915 67.6851 58.9793 67.311 58.9793C66.856 58.9793 66.5728 58.6843 66.4717 58.1057C66.4515 58.0149 67.0986 57.1867 68.4132 55.6323C69.3637 54.5431 69.839 53.5901 69.839 52.7618C69.839 52.2059 69.5558 51.9222 68.9997 51.9222C68.3121 51.9222 67.493 52.1151 66.5425 52.5009C64.7122 53.2724 63.2662 54.146 62.2045 55.1104C61.709 55.5756 61.1933 56.1315 60.6473 56.7782C59.9799 57.6065 59.5248 58.1284 59.2923 58.378C58.2305 59.4218 57.5834 59.9324 57.3508 59.8983C56.9665 59.8303 56.7441 59.5126 56.7036 58.9566C56.6834 58.6957 57.1991 57.9355 58.2609 56.7102C59.535 55.2352 60.1619 54.3162 60.1417 53.9531C60.1012 53.4199 59.8585 53.1589 59.4338 53.1589C58.8676 53.1589 57.8362 53.5674 56.3295 54.3956C55.9452 54.5885 55.3385 55.0423 54.5195 55.7344C53.8521 56.2904 53.4375 56.54 53.2858 56.4946C52.7903 56.3471 52.5476 56.1315 52.578 55.8365C52.6387 55.2352 53.7409 54.2935 55.8745 53.0001C57.0373 52.2966 58.4226 51.8655 60.0203 51.6953C60.4046 51.6499 60.7888 51.8655 61.1529 52.3534C61.4562 52.7845 61.6382 53.227 61.6989 53.6581C62.2348 53.193 63.3876 52.569 65.1572 51.7747C67.038 50.9011 68.3222 50.47 69.0098 50.47C70.1524 50.47 70.84 51.0486 71.0827 52.2172C71.1636 52.5803 71.2142 52.9207 71.2142 53.2383C71.4973 53.1476 72.3265 52.6711 73.7017 51.8201C74.8646 51.1394 75.6533 50.8104 76.0679 50.8444C77.1499 50.9125 77.706 51.4457 77.7465 52.4441C77.7465 52.3534 77.2105 53.5107 76.1286 55.9273C75.2185 58.0036 74.7736 59.0928 74.7736 59.1949C74.7736 59.8757 75.0061 60.216 75.4814 60.216C76.4724 60.216 78.1105 59.5126 80.3958 58.1057C81.1036 57.6746 82.2462 56.8009 83.8237 55.4962C85.0068 54.5318 85.7247 54.0666 85.9573 54.112C86.1292 54.146 86.2101 54.3162 86.2101 54.5999ZM114.756 54.6793C114.736 55.1898 113.634 56.2563 111.459 57.8788C108.911 59.7395 106.99 60.6812 105.696 60.7152C105.311 60.7152 104.988 60.511 104.725 60.1026C104.482 59.7395 104.381 59.3197 104.401 58.8318C104.442 58.1738 105.089 57.0619 106.343 55.4962C107.374 54.146 107.92 53.3858 107.961 53.2497C107.597 53.488 107.071 53.7603 106.404 54.0439C105.514 54.4524 104.917 54.7473 104.593 54.9175C102.955 55.9387 101.145 56.835 99.1533 57.6065C93.3895 64.8451 90.0728 68.9863 89.183 70.0188C82.3878 78.0063 79.0205 82 79.0913 82C78.788 82 78.6161 81.8752 78.5756 81.6369C78.5756 81.5689 81.8721 77.3482 88.4752 68.9977L91.2256 65.6166C92.2165 64.3799 93.248 63.0865 94.2996 61.7364C96.9691 58.3213 98.9207 55.8025 100.124 54.1801L98.8904 54.9062C97.4848 55.8025 96.8882 56.2563 97.0804 56.2904C96.868 56.2677 96.6456 56.0521 96.4332 55.6323C96.2815 55.2919 97.3433 54.4183 99.6083 53.0228C100.104 52.7278 100.65 52.3534 101.257 51.8995C101.884 51.4457 102.349 51.1167 102.652 50.9238C103.41 50.2204 103.956 49.914 104.3 50.0161C104.624 50.0842 104.786 50.2658 104.786 50.5607C104.786 50.5154 104.229 51.2188 103.107 52.6711C102.076 53.9758 101.428 54.8268 101.166 55.2125C101.985 54.997 103.34 54.3389 105.241 53.2497C107.485 51.8995 109.063 51.2188 109.963 51.2188C110.226 51.2188 110.327 51.4571 110.286 51.9449C110.195 52.6257 109.397 53.8056 107.89 55.5075C106.404 57.2548 105.665 58.3667 105.686 58.8432C105.726 59.2289 105.878 59.4218 106.141 59.4218C106.96 59.4218 108.537 58.5709 110.863 56.8804C113.087 55.2352 114.21 54.407 114.23 54.407C114.584 54.3389 114.756 54.441 114.756 54.6793ZM96.6051 54.7473C96.5849 55.0196 95.1389 56.2677 92.2671 58.5255C90.5177 59.8757 89.0111 60.6585 87.737 60.8514C87.282 60.9195 86.8168 60.7266 86.3415 60.2728C85.8461 59.8416 85.5933 59.3537 85.5933 58.8205C85.5933 57.13 86.3517 55.1218 87.8583 52.7959C88.9605 51.1053 89.9515 50.2544 90.8312 50.2544C91.2863 50.2544 91.6907 50.538 92.0649 51.094C92.3885 51.6272 92.5401 52.1718 92.5199 52.7278C92.4795 54.0553 91.6098 55.2466 89.9313 56.2904C89.2234 56.7215 88.2931 57.1186 87.1505 57.4477C86.9786 57.8107 86.8876 58.2192 86.8876 58.6843C86.8876 59.0928 87.2314 59.3424 87.919 59.4105C88.3538 59.4332 89.4459 58.8772 91.2155 57.7426C94.7749 55.4167 96.413 54.2595 96.1299 54.2595C96.4737 54.2368 96.6253 54.407 96.6051 54.7473ZM91.2256 52.6484C91.2256 52.1151 91.0335 51.8542 90.6391 51.8542C90.1436 51.8542 89.5774 52.4328 88.9605 53.6014L87.7269 55.9273C88.7381 55.7344 89.5369 55.326 90.1234 54.6906C90.8616 53.9078 91.2256 53.227 91.2256 52.6484ZM132.846 54.6793C132.826 55.1898 131.724 56.2563 129.55 57.8788C127.001 59.7395 125.08 60.6812 123.786 60.7152C123.402 60.7152 123.078 60.511 122.815 60.1026C122.572 59.7395 122.471 59.3197 122.492 58.8318C122.532 58.1738 123.179 57.0619 124.433 55.4962C125.464 54.146 126.01 53.3858 126.051 53.2497C125.687 53.488 125.161 53.7603 124.494 54.0439C123.604 54.4524 123.007 54.7473 122.684 54.9175C121.046 55.9387 119.236 56.835 117.243 57.6065C111.48 64.8451 108.163 68.9863 107.273 70.0188C100.478 78.0063 97.1107 82 97.1815 82C96.8781 82 96.7062 81.8752 96.6658 81.6369C96.6658 81.5689 99.9622 77.3482 106.565 68.9977L109.316 65.6166C110.307 64.3799 111.338 63.0865 112.39 61.7364C115.059 58.3213 117.011 55.8025 118.214 54.1801L116.981 54.9062C115.575 55.8025 114.978 56.2563 115.171 56.2904C114.958 56.2677 114.736 56.0521 114.523 55.6323C114.372 55.2919 115.433 54.4183 117.698 53.0228C118.194 52.7278 118.74 52.3534 119.347 51.8995C119.974 51.4457 120.439 51.1167 120.742 50.9238C121.501 50.2204 122.047 49.914 122.39 50.0161C122.714 50.0842 122.876 50.2658 122.876 50.5607C122.876 50.5154 122.32 51.2188 121.197 52.6711C120.166 53.9758 119.519 54.8268 119.256 55.2125C120.075 54.997 121.43 54.3389 123.331 53.2497C125.576 51.8995 127.153 51.2188 128.053 51.2188C128.316 51.2188 128.417 51.4571 128.377 51.9449C128.286 52.6257 127.487 53.8056 125.98 55.5075C124.494 57.2548 123.756 58.3667 123.776 58.8432C123.816 59.2289 123.968 59.4218 124.231 59.4218C125.05 59.4218 126.627 58.5709 128.953 56.8804C131.178 55.2352 132.3 54.407 132.32 54.407C132.674 54.3389 132.846 54.441 132.846 54.6793ZM154.809 54.7473C154.85 54.9856 154.364 55.5529 153.353 56.4492C152.362 57.3002 151.371 58.0376 150.38 58.6617C148.479 59.853 147.165 60.4543 146.436 60.477C145.122 60.4997 144.202 59.921 143.686 58.7297C143.423 58.1057 143.302 57.5951 143.302 57.2094C140.976 59.2403 138.802 60.3068 136.8 60.4089C135.597 60.477 135.01 59.9778 135.05 58.8886C135.071 58.3553 135.374 57.4817 135.961 56.279C136.517 55.065 137.032 54.2368 137.477 53.7716C137.265 53.9191 136.941 54.1006 136.507 54.3162L135.374 54.9743C133.584 56.0408 132.694 56.574 132.725 56.574C132.34 56.5286 132.169 56.3131 132.209 55.916C132.3 55.2125 133.544 54.2935 135.961 53.1589C136.244 53.0341 136.83 52.7051 137.74 52.1378C138.499 51.6499 139.024 51.389 139.328 51.3436C139.54 51.2982 139.763 51.3663 139.975 51.5592C140.187 51.7294 140.299 51.9222 140.299 52.1378C140.299 52.4101 139.712 53.2497 138.549 54.6793C137.386 56.1315 136.739 57.3228 136.608 58.2419C136.567 58.6276 136.547 58.7751 136.547 58.673C136.547 58.8205 136.648 58.8999 136.84 58.9226C138.307 58.9907 140.228 58.0376 142.604 56.0521C143.534 55.2579 144.283 54.5091 144.869 53.8056C146.032 52.3534 146.659 51.6272 146.75 51.6272C147.397 51.6499 147.751 52.0357 147.822 52.7845C147.822 52.9774 147.609 53.3178 147.175 53.8056C146.618 54.4637 146.254 54.9175 146.103 55.1898C145.304 56.4492 144.91 57.2207 144.91 57.5157C144.889 57.9242 145.001 58.2759 145.233 58.5709C145.516 58.934 145.88 59.1155 146.335 59.1155C146.891 59.1155 147.913 58.6617 149.379 57.7313C150.137 57.2434 151.138 56.5173 152.392 55.5529C153.626 54.6339 154.223 54.1687 154.202 54.1687C154.465 53.9758 154.688 54.1687 154.809 54.7473ZM187.46 54.5999C187.42 55.3487 185.65 56.903 182.152 59.2516C180.038 60.6585 178.178 61.43 176.59 61.5775C176.115 61.6229 175.68 61.4187 175.296 60.9649C174.912 60.4997 174.709 59.9324 174.709 59.263C174.709 58.8318 175.144 57.6632 176.004 55.7798C176.135 55.4621 176.459 54.9062 176.974 54.112C177.379 53.5107 177.581 53.0909 177.561 52.8753C177.541 52.5349 177.328 52.342 176.914 52.2967C176.307 52.2513 174.628 53.2157 171.868 55.2012C171.453 55.6323 170.877 56.4152 170.118 57.5271C169.451 58.4915 168.935 58.9793 168.561 58.9793C168.106 58.9793 167.823 58.6843 167.722 58.1057C167.702 58.0149 168.349 57.1867 169.663 55.6323C170.614 54.5431 171.089 53.5901 171.089 52.7618C171.089 52.2059 170.806 51.9222 170.25 51.9222C169.562 51.9222 168.743 52.1151 167.793 52.5009C165.962 53.2724 164.517 54.146 163.455 55.1104C162.959 55.5756 162.444 56.1315 161.898 56.7782C161.23 57.6065 160.775 58.1284 160.543 58.378C159.481 59.4218 158.834 59.9324 158.601 59.8983C158.217 59.8303 157.994 59.5126 157.954 58.9566C157.934 58.6957 158.449 57.9355 159.511 56.7102C160.785 55.2352 161.412 54.3162 161.392 53.9531C161.351 53.4199 161.109 53.1589 160.684 53.1589C160.128 53.1589 159.086 53.5674 157.58 54.3956C157.196 54.5885 156.589 55.0423 155.77 55.7344C155.102 56.2904 154.688 56.54 154.536 56.4946C154.041 56.3471 153.798 56.1315 153.828 55.8365C153.889 55.2352 154.991 54.2935 157.125 53.0001C158.288 52.2966 159.673 51.8655 161.271 51.6953C161.655 51.6499 162.039 51.8655 162.403 52.3534C162.706 52.7845 162.888 53.227 162.949 53.6581C163.485 53.193 164.638 52.569 166.407 51.7747C168.288 50.9011 169.572 50.47 170.26 50.47C171.403 50.47 172.09 51.0486 172.333 52.2172C172.414 52.5803 172.464 52.9207 172.464 53.2383C172.748 53.1476 173.577 52.6711 174.952 51.8201C176.115 51.1394 176.904 50.8104 177.318 50.8444C178.4 50.9125 178.956 51.4457 178.997 52.4441C178.997 52.3534 178.461 53.5107 177.379 55.9273C176.469 58.0036 176.024 59.0928 176.024 59.1949C176.024 59.8757 176.256 60.216 176.732 60.216C177.723 60.216 179.361 59.5126 181.646 58.1057C182.354 57.6746 183.497 56.8009 185.074 55.4962C186.257 54.5318 186.975 54.0666 187.208 54.112C187.379 54.146 187.46 54.3162 187.46 54.5999ZM218.888 54.6793C218.868 55.1898 217.766 56.2563 215.592 57.8788C213.043 59.7395 211.122 60.6812 209.828 60.7152C209.444 60.7152 209.12 60.511 208.857 60.1026C208.614 59.7395 208.513 59.3197 208.533 58.8318C208.574 58.1738 209.221 57.0619 210.475 55.4962C211.506 54.146 212.052 53.3858 212.093 53.2497C211.729 53.488 211.203 53.7603 210.536 54.0439C209.646 54.4524 209.049 54.7473 208.726 54.9175C207.088 55.9387 205.277 56.835 203.285 57.6065C197.522 64.8451 194.205 68.9863 193.315 70.0188C186.52 78.0063 183.153 82 183.223 82C182.92 82 182.748 81.8752 182.708 81.6369C182.708 81.5689 186.004 77.3482 192.607 68.9977L195.358 65.6166C196.349 64.3799 197.37 63.0865 198.432 61.7364C201.111 58.3213 203.053 55.8025 204.256 54.1801L203.023 54.9062C201.617 55.8025 201.02 56.2563 201.213 56.2904C201 56.2677 200.778 56.0521 200.565 55.6323C200.414 55.2919 201.475 54.4183 203.74 53.0228C204.236 52.7278 204.782 52.3534 205.389 51.8995C206.016 51.4457 206.481 51.1167 206.784 50.9238C207.543 50.2204 208.089 49.914 208.432 50.0161C208.756 50.0842 208.918 50.2658 208.918 50.5607C208.918 50.5154 208.362 51.2188 207.239 52.6711C206.208 53.9758 205.561 54.8268 205.298 55.2125C206.117 54.997 207.472 54.3389 209.373 53.2497C211.618 51.8995 213.195 51.2188 214.095 51.2188C214.358 51.2188 214.459 51.4571 214.419 51.9449C214.328 52.6257 213.529 53.8056 212.022 55.5075C210.536 57.2548 209.798 58.3667 209.818 58.8432C209.858 59.2289 210.01 59.4218 210.273 59.4218C211.092 59.4218 212.669 58.5709 214.995 56.8804C217.22 55.2352 218.342 54.407 218.362 54.407C218.706 54.3389 218.888 54.441 218.888 54.6793ZM198.047 54.2822C198.047 55.6323 197.198 57.0846 195.489 58.639C193.932 60.0685 192.233 60.7606 190.373 60.7039C189.291 60.6812 188.461 60.3181 187.885 59.6147C187.39 59.0134 187.167 58.2872 187.208 57.4363C187.248 56.0862 187.764 55.0764 188.765 54.4183C188.937 54.2935 189.28 54.2368 189.796 54.2368C189.928 54.1347 190.11 53.9418 190.342 53.6581C190.605 53.3632 190.797 53.1703 190.929 53.0795C192.628 51.9449 194.023 51.3776 195.105 51.3776C195.985 51.3776 196.703 51.6613 197.239 52.2172C197.774 52.7391 198.047 53.4312 198.047 54.2822ZM196.814 54.0553C196.814 53.261 196.288 52.8299 195.226 52.7845C194.084 52.7391 192.992 53.193 191.96 54.1687C191.808 54.2935 191.606 54.5658 191.343 55.0083C191.131 55.3714 190.898 55.5869 190.666 55.6664C190.534 55.6891 190.393 55.6891 190.241 55.6664H189.816C189.452 55.7117 189.119 56.0067 188.815 56.54C188.603 56.9711 188.492 57.3115 188.492 57.5611C188.492 58.049 188.704 58.4801 189.139 58.8659C189.594 59.229 190.11 59.4105 190.696 59.4105C191.798 59.4105 193.042 58.8886 194.448 57.8448C196.025 56.6534 196.814 55.3941 196.814 54.0553ZM240.851 54.7473C240.892 54.9856 240.406 55.5529 239.395 56.4492C238.404 57.3002 237.413 58.0376 236.422 58.6617C234.521 59.853 233.207 60.4543 232.478 60.477C231.164 60.4997 230.244 59.921 229.728 58.7297C229.465 58.1057 229.344 57.5951 229.344 57.2094C227.018 59.2403 224.844 60.3068 222.842 60.4089C221.628 60.477 221.052 59.9778 221.092 58.8886C221.113 58.3553 221.416 57.4817 222.003 56.279C222.559 55.065 223.074 54.2368 223.519 53.7716C223.307 53.9191 222.983 54.1006 222.549 54.3162L221.406 54.9629C219.616 56.0294 218.736 56.5627 218.757 56.5627C218.372 56.5173 218.2 56.3017 218.241 55.9046C218.332 55.2012 219.576 54.2822 221.992 53.1476C222.276 53.0228 222.862 52.6938 223.772 52.1265C224.531 51.6386 225.056 51.3776 225.36 51.3322C225.572 51.2869 225.794 51.3549 226.007 51.5478C226.219 51.718 226.33 51.9109 226.33 52.1265C226.33 52.3988 225.744 53.2383 224.581 54.6679C223.418 56.1202 222.771 57.3115 222.64 58.2305C222.599 58.6163 222.579 58.7638 222.579 58.6617C222.579 58.8092 222.68 58.8886 222.872 58.9113C224.338 58.9793 226.26 58.0263 228.636 56.0408C229.566 55.2466 230.315 54.4977 230.901 53.7943C232.064 52.342 232.691 51.6159 232.782 51.6159C233.429 51.6386 233.783 52.0243 233.854 52.7732C233.854 52.9661 233.641 53.3064 233.207 53.7943C232.65 54.4524 232.286 54.9062 232.135 55.1785C231.336 56.4379 230.941 57.2094 230.941 57.5044C230.921 57.9128 231.022 58.2645 231.265 58.5595C231.548 58.9226 231.912 59.1041 232.367 59.1041C232.923 59.1041 233.945 58.6503 235.411 57.72C236.169 57.2321 237.17 56.506 238.424 55.5416C239.658 54.6225 240.254 54.1574 240.234 54.1574C240.507 53.9758 240.73 54.1687 240.851 54.7473ZM262.733 54.7473C262.774 54.9856 262.288 55.5529 261.277 56.4492C260.286 57.3002 259.295 58.0376 258.304 58.6617C256.403 59.853 255.089 60.4543 254.361 60.477C253.046 60.4997 252.126 59.921 251.61 58.7297C251.347 58.1057 251.226 57.5951 251.226 57.2094C248.9 59.2403 246.726 60.3068 244.724 60.4089C243.511 60.477 242.934 59.9778 242.975 58.8886C242.995 58.3553 243.298 57.4817 243.885 56.279C244.441 55.065 244.957 54.2368 245.401 53.7716C245.189 53.9191 244.865 54.1006 244.431 54.3162L243.298 54.9743C241.508 56.0408 240.629 56.574 240.649 56.574C240.265 56.5286 240.093 56.3131 240.133 55.916C240.224 55.2125 241.468 54.2935 243.885 53.1589C244.168 53.0341 244.754 52.7051 245.664 52.1378C246.423 51.6499 246.949 51.389 247.252 51.3436C247.464 51.2982 247.687 51.3663 247.899 51.5592C248.111 51.7294 248.223 51.9222 248.223 52.1378C248.223 52.4101 247.636 53.2497 246.473 54.6793C245.31 56.1315 244.663 57.3228 244.532 58.2419C244.491 58.6276 244.471 58.7751 244.471 58.673C244.471 58.8205 244.572 58.8999 244.764 58.9226C246.231 58.9907 248.152 58.0376 250.528 56.0521C251.458 55.2579 252.207 54.5091 252.793 53.8056C253.956 52.3534 254.583 51.6272 254.674 51.6272C255.321 51.6499 255.675 52.0357 255.746 52.7845C255.746 52.9774 255.534 53.3178 255.099 53.8056C254.543 54.4637 254.179 54.9175 254.027 55.1898C253.228 56.4492 252.834 57.2207 252.834 57.5157C252.813 57.9242 252.915 58.2759 253.157 58.5709C253.44 58.934 253.804 59.1155 254.259 59.1155C254.816 59.1155 255.837 58.6617 257.303 57.7313C258.062 57.2434 259.063 56.5173 260.316 55.5529C261.55 54.6339 262.147 54.1687 262.126 54.1687C262.379 53.9758 262.602 54.1687 262.733 54.7473Z" fill="url(#paint2_linear_123_21812)"/>
<defs>
<linearGradient id="paint0_linear_123_21812" x1="-21.4416" y1="-9.51011" x2="364.562" y2="269.148" gradientUnits="userSpaceOnUse">
<stop stop-color="#88C7DA"/>
<stop offset="1" stop-color="#075A78"/>
</linearGradient>
<linearGradient id="paint1_linear_123_21812" x1="-21.4416" y1="-9.51011" x2="364.562" y2="269.148" gradientUnits="userSpaceOnUse">
<stop stop-color="#88C7DA"/>
<stop offset="1" stop-color="#075A78"/>
</linearGradient>
<linearGradient id="paint2_linear_123_21812" x1="-21.4416" y1="-9.51011" x2="364.562" y2="269.148" gradientUnits="userSpaceOnUse">
<stop stop-color="#88C7DA"/>
<stop offset="1" stop-color="#075A78"/>
</linearGradient>
</defs>
</svg>
