<svg width="316" height="101" viewBox="0 0 316 101" fill="none" xmlns="http://www.w3.org/2000/svg">
<path d="M30.1252 0.958218C30.1252 1.55831 28.9354 2.82626 26.5643 4.77173C25.7539 5.4299 24.9348 5.97192 24.1071 6.37844C23.6673 6.68816 22.5896 7.5012 20.8824 8.82722L20.7445 9.81447C20.6497 10.4146 20.5807 10.8501 20.5203 11.1115C20.2099 13.0085 19.1753 15.1185 17.4337 17.4318C14.6746 20.9646 12.2346 22.794 10.1222 22.9101C8.63061 22.9875 6.96656 22.4649 5.13008 21.3324C4.1558 21.8261 3.32809 22.0584 2.64695 22.01C2.16412 21.9906 1.70715 21.8357 1.26743 21.5454C0.422477 21.0614 0 20.4129 0 19.6096C0 19.2127 0.224172 18.8159 0.663893 18.3997C1.12086 17.9835 1.58645 17.7803 2.04341 17.7803C2.74179 17.7803 3.43155 18.0609 4.11269 18.6126C4.42308 18.8837 4.8628 19.3579 5.43185 20.0355C8.00982 18.4287 10.4498 16.6865 12.7692 14.8282C14.347 13.5506 16.2093 11.9148 18.339 9.93062L14.7005 11.3244C11.5707 12.36 9.82044 12.8633 9.43245 12.844C9.17379 12.844 9.04446 12.6891 9.04446 12.3794L14.4504 10.3371C17.3561 9.1563 18.9942 8.47877 19.365 8.29487C19.4943 7.92707 19.5547 7.61735 19.5547 7.36569C19.5547 6.23325 18.8563 5.09114 17.4595 3.9587C16.5973 3.26181 15.623 2.71979 14.5367 2.35199C13.5107 2.00355 12.5967 1.85836 11.8035 1.91644C9.48418 2.08098 7.85463 2.53589 6.92345 3.28117C5.52669 4.37489 4.81969 5.52669 4.80245 6.7172C4.7852 7.70446 5.19906 8.70139 6.04401 9.68864C6.63031 10.2887 7.42353 10.5888 8.41506 10.5888C9.0186 10.5888 9.90666 10.2984 11.062 9.71768C12.5191 8.95304 13.2434 8.36263 13.2434 7.95611C13.2434 7.66574 13.0882 7.48184 12.7778 7.39473L11.8983 7.23987C11.6397 7.18179 11.312 7.18179 10.9068 7.23987C10.4671 7.29794 10.1653 7.32698 9.99288 7.29794C9.81182 7.27858 9.71698 7.11404 9.71698 6.80431C9.71698 6.60105 10.0101 6.43651 10.5964 6.31068C11.1655 6.20422 11.6828 6.20422 12.1398 6.31068C12.8554 6.49459 13.321 6.63977 13.5193 6.74624C13.959 6.97853 14.1918 7.33666 14.209 7.83028C14.2435 8.59492 13.4072 9.45635 11.7 10.4049C10.3722 11.1502 9.26863 11.518 8.38919 11.518C6.7855 11.5567 5.6474 11.0727 4.96626 10.0661C4.13855 8.82722 3.73332 7.69478 3.75056 6.65913C3.76781 5.00402 4.64725 3.5909 6.37165 2.41974C7.93223 1.43249 9.69973 0.890465 11.6655 0.813033C12.6657 0.783996 13.8038 0.967896 15.0885 1.36473C16.5628 1.81965 17.7958 2.56493 18.7873 3.5909C19.5978 4.39425 20.141 5.12017 20.4169 5.75898C20.5462 5.9816 20.6669 6.44619 20.779 7.15275C21.2359 6.80431 21.7619 6.3494 22.3482 5.78802C23.1759 5.00402 23.7191 4.50072 23.9777 4.26842C27.3231 1.42281 29.0906 0 29.2716 0C29.8407 0 30.1252 0.319406 30.1252 0.958218ZM4.50068 20.5678C4.11269 20.0355 3.81954 19.6773 3.62123 19.5128C3.12116 18.9998 2.62971 18.7385 2.12963 18.7385C1.87097 18.7578 1.61231 18.8837 1.35365 19.1063C1.09499 19.3386 0.974284 19.5515 0.991528 19.7548C0.991528 19.9387 1.18121 20.1903 1.5692 20.5C1.89684 20.8485 2.28483 21.0421 2.72455 21.0614C3.26773 21.1001 3.85403 20.9356 4.50068 20.5678ZM17.0543 12.602C15.623 13.8603 14.4504 14.8669 13.5538 15.6025C11.2172 17.4415 8.77718 19.174 6.24232 20.8098C7.45802 21.5551 8.6651 21.8841 9.85493 21.797C11.7518 21.6712 14.028 19.9677 16.7008 16.6865C18.0631 14.9734 18.9339 13.3086 19.3219 11.7019C19.4684 11.1211 19.5547 10.6759 19.5719 10.3662L17.0543 12.602ZM31.6772 17.4996C31.6599 17.7319 30.427 18.7965 27.9783 20.7227C26.4867 21.8745 25.2021 22.5423 24.1157 22.7069C23.7277 22.7649 23.3311 22.6004 22.9259 22.2132C22.5034 21.8454 22.2878 21.4292 22.2878 20.9743C22.2878 19.5322 22.9345 17.819 24.2192 15.8348C25.159 14.3926 26.0039 13.6667 26.754 13.6667C27.142 13.6667 27.4869 13.9087 27.8059 14.3829C28.0818 14.8379 28.2111 15.3024 28.1939 15.7767C28.1594 16.9092 27.4179 17.9254 25.9867 18.8159C25.3831 19.1837 24.5899 19.5225 23.6156 19.8032C23.469 20.1129 23.3914 20.4613 23.3914 20.8582C23.3914 21.2066 23.6846 21.4195 24.2709 21.4776C24.6416 21.497 25.5728 21.0227 27.0817 20.0548C30.1166 18.0706 31.5134 17.0834 31.2719 17.0834C31.5651 17.064 31.6944 17.2092 31.6772 17.4996ZM27.0903 15.6993C27.0903 15.2444 26.9265 15.0218 26.5902 15.0218C26.1677 15.0218 25.6849 15.5154 25.159 16.5123L24.1071 18.4965C24.9693 18.332 25.6504 17.9835 26.1505 17.4415C26.7799 16.7736 27.0903 16.2026 27.0903 15.6993ZM59.6469 17.3737C59.6124 18.0126 58.1036 19.3386 55.1203 21.3421C53.3184 22.5423 51.7319 23.2005 50.3783 23.3263C49.973 23.365 49.6023 23.1908 49.2746 22.8036C48.947 22.4068 48.7746 21.9229 48.7746 21.3518C48.7746 20.984 49.1453 19.9871 49.8782 18.3804C49.9903 18.1093 50.2662 17.6351 50.7059 16.9575C51.0508 16.4446 51.2232 16.0864 51.206 15.9025C51.1887 15.6122 50.999 15.4476 50.6542 15.4089C50.1368 15.3702 48.7056 16.1929 46.3518 17.8867C45.9983 18.2545 45.5068 18.9224 44.8602 19.8709C44.2911 20.6936 43.8514 21.1098 43.5324 21.1098C43.1444 21.1098 42.903 20.8582 42.8168 20.3645C42.7995 20.2871 43.3513 19.5805 44.4722 18.2545C45.2827 17.3253 45.6879 16.5123 45.6879 15.8057C45.6879 15.3315 45.4465 15.0895 44.9723 15.0895C44.386 15.0895 43.6876 15.254 42.8771 15.5831C41.3166 16.2413 40.0836 16.9866 39.1783 17.8093C38.7558 18.2061 38.3161 18.6804 37.8505 19.2321C37.2815 19.9387 36.8935 20.3839 36.6952 20.5968C35.7899 21.4873 35.2381 21.9229 35.0397 21.8938C34.7121 21.8357 34.5224 21.5647 34.4879 21.0905C34.4707 20.8678 34.9104 20.2194 35.8157 19.174C36.9021 17.9158 37.4367 17.1318 37.4194 16.822C37.3849 16.3671 37.178 16.1445 36.8159 16.1445C36.333 16.1445 35.4536 16.493 34.1689 17.1995C33.8413 17.3641 33.324 17.7512 32.6256 18.3416C32.0565 18.8159 31.703 19.0385 31.5737 18.9901C31.1512 18.8643 30.9529 18.6804 30.9702 18.4287C31.0219 17.9158 31.9617 17.1124 33.7809 16.009C34.7725 15.4089 35.9537 15.0411 37.3159 14.8959C37.6436 14.8572 37.9712 15.0411 38.2816 15.4573C38.5403 15.8251 38.6955 16.2026 38.7472 16.5704C39.2042 16.1832 40.1871 15.6412 41.6959 14.9637C43.2996 14.2184 44.3946 13.8506 44.9809 13.8506C45.9552 13.8506 46.5415 14.3442 46.7484 15.3412C46.8174 15.6509 46.8605 15.9413 46.8605 16.2123C47.1019 16.1348 47.8089 15.7283 48.9815 15.0024C49.973 14.4217 50.6455 14.1506 50.999 14.17C51.9216 14.2281 52.3958 14.683 52.4303 15.5347C52.4303 15.4573 51.9733 16.4446 51.0508 18.5062C50.2748 20.2774 49.8954 21.2066 49.8954 21.2937C49.8954 21.8745 50.0937 22.1648 50.499 22.1648C51.3439 22.1648 52.7407 21.5647 54.6893 20.3645C55.2928 19.9967 56.2671 19.2515 57.6121 18.1384C58.6209 17.3157 59.233 16.9188 59.4313 16.9575C59.5779 16.9866 59.6469 17.1318 59.6469 17.3737ZM71.071 18.119C71.0365 18.661 69.657 19.6289 66.9325 21.0324C64.6304 22.1842 62.9232 22.7456 61.8024 22.7069C61.2333 22.6875 60.7419 22.4939 60.3367 22.1164C59.8969 21.7002 59.6469 21.1582 59.5952 20.471C59.5003 19.2515 60.0952 17.7706 61.3627 16.009C62.9836 13.8022 64.4666 12.6891 65.8288 12.6601C66.3289 12.6407 66.7083 12.9214 66.9842 13.4925C67.2429 13.9861 67.3636 14.5765 67.3463 15.254C67.3291 15.8154 67.1825 16.3768 66.9066 16.9575C66.6134 17.577 66.3289 17.877 66.053 17.8577C65.7599 17.819 65.6306 17.5867 65.665 17.1802C65.665 17.2189 65.7944 16.8801 66.053 16.1542C66.2772 15.5928 66.3289 15.1282 66.2168 14.7604C66.053 14.1216 65.8892 13.8119 65.7168 13.8312C64.4838 13.9764 63.3112 14.9443 62.1818 16.7446C61.3023 18.1868 60.8367 19.3289 60.8022 20.1516C60.7677 21.226 61.1299 21.7002 61.9059 21.5744C62.9922 21.4099 64.4235 20.9162 66.2082 20.0839C66.9066 19.7741 67.8378 19.2418 68.9931 18.4771C70.0191 17.7996 70.5882 17.4415 70.6744 17.4221C70.9848 17.3737 71.1141 17.606 71.071 18.119ZM88.6168 17.3737C88.634 17.7028 88.1253 18.3126 87.0993 19.2031C86.0474 20.0935 85.1076 20.742 84.254 21.1582C83.0383 21.739 81.9692 22.0293 81.0553 22.0293C80.0293 22.0293 79.2533 21.5744 78.736 20.6646C78.6411 20.5194 78.5204 20.2871 78.3738 19.9483C78.21 19.5322 78.0893 19.2611 78.0117 19.116C77.8824 19.2418 77.6151 19.4644 77.2099 19.7935C76.8391 20.0839 76.5374 20.3549 76.2959 20.5968C76.2011 20.6839 75.8993 21.0905 75.382 21.8357C74.9423 22.4552 74.6405 22.7649 74.4681 22.7649C74.0629 22.7649 73.8214 22.6197 73.7525 22.3294C73.7352 22.2713 74.5026 21.2163 76.0718 19.174C77.503 17.335 78.2273 16.1639 78.2273 15.6412C78.2273 15.2928 78.0635 15.0798 77.7272 15.0218C77.434 14.983 76.4253 15.496 74.6923 16.5704C74.3043 16.8027 73.5369 17.3641 72.3729 18.2739C71.4676 18.9998 70.9589 19.3386 70.8296 19.2999C70.3554 19.1934 70.1485 19.0095 70.2261 18.7385C70.2606 18.5933 70.7951 18.119 71.8298 17.3157C72.8385 16.5317 73.58 16.0187 74.037 15.767C76.1149 14.5862 77.3996 13.9667 77.8996 13.9087C78.2445 13.87 78.5808 13.9571 78.8912 14.1894C79.2188 14.4217 79.3912 14.6927 79.3912 15.0218C79.3912 15.3702 79.2964 15.8057 79.1153 16.3187C78.9343 16.8608 78.8394 17.2479 78.8394 17.4996C78.7446 17.4996 79.6154 16.9188 81.4346 15.767C83.4177 14.4701 84.461 13.8312 84.5558 13.8506C84.7541 13.8893 84.8576 14.0829 84.8576 14.412C84.8576 14.4701 83.9954 15.1573 82.2624 16.4542L80.8828 17.5092C80.2965 17.9835 79.7792 18.3804 79.3395 18.6901C79.2878 18.7772 79.305 19.0385 79.3912 19.4934C79.4257 19.7644 79.5895 20.0645 79.8913 20.3936C80.2793 20.8098 80.7018 21.0034 81.1587 20.984C82.0554 20.9453 82.909 20.713 83.6936 20.3065C84.2971 19.9774 85.2369 19.3289 86.5044 18.3513C87.608 17.5092 88.2115 17.0834 88.3236 17.0834C88.4961 17.064 88.5823 17.1705 88.6168 17.3737ZM97.4198 17.0931C97.4198 18.2448 96.6956 19.4838 95.2384 20.8098C93.9107 22.0293 92.4622 22.6197 90.8757 22.5713C89.9532 22.552 89.2462 22.2423 88.7547 21.6422C88.3322 21.1292 88.1425 20.5097 88.177 19.7838C88.2115 18.632 88.6512 17.7706 89.5048 17.2092C89.6514 17.1027 89.9445 17.0543 90.3843 17.0543C90.4964 16.9769 90.6516 16.8027 90.8499 16.5607C91.074 16.3091 91.2378 16.1445 91.3499 16.0671C92.7984 15.0992 93.9883 14.6152 94.9108 14.6152C95.6609 14.6152 96.2731 14.8572 96.73 15.3315C97.1956 15.7864 97.4198 16.3768 97.4198 17.0931ZM96.3765 16.9092C96.3765 16.2316 95.9282 15.8638 95.0229 15.8251C94.0486 15.7864 93.1174 16.1735 92.238 17.0059C92.1087 17.1124 91.9362 17.3447 91.7121 17.7222C91.531 18.0319 91.3327 18.2158 91.1344 18.2836C91.0223 18.3029 90.9016 18.3029 90.7723 18.2836H90.4101C90.0997 18.3223 89.8152 18.5739 89.5566 19.0288C89.3755 19.3966 89.2807 19.687 89.2807 19.9C89.2807 20.3161 89.4617 20.6839 89.8325 21.013C90.2205 21.3228 90.6602 21.4776 91.1602 21.4776C92.1 21.4776 93.1692 21.0324 94.359 20.1419C95.704 19.1256 96.3765 18.0513 96.3765 16.9092ZM108.516 17.4996C108.499 17.7319 107.266 18.7965 104.817 20.7227C103.326 21.8745 102.041 22.5423 100.955 22.7069C100.567 22.7649 100.17 22.6004 99.765 22.2132C99.3425 21.8454 99.127 21.4292 99.127 20.9743C99.127 19.5322 99.7736 17.819 101.058 15.8348C101.998 14.3926 102.843 13.6667 103.593 13.6667C103.981 13.6667 104.326 13.9087 104.645 14.3829C104.921 14.8379 105.05 15.3024 105.033 15.7767C104.999 16.9092 104.257 17.9254 102.826 18.8159C102.222 19.1837 101.429 19.5225 100.455 19.8032C100.308 20.1129 100.231 20.4613 100.231 20.8582C100.231 21.2066 100.524 21.4195 101.11 21.4776C101.481 21.497 102.412 21.0227 103.921 20.0548C106.956 18.0706 108.352 17.0834 108.111 17.0834C108.404 17.064 108.534 17.2092 108.516 17.4996ZM103.929 15.6993C103.929 15.2444 103.766 15.0218 103.429 15.0218C103.007 15.0218 102.524 15.5154 101.998 16.5123L100.946 18.4965C101.808 18.332 102.49 17.9835 102.99 17.4415C103.619 16.7736 103.929 16.2026 103.929 15.6993ZM133.511 7.6851C133.511 10.763 132.296 14.0539 129.873 17.5673C127.424 21.1582 125.346 22.9585 123.639 22.9585C122.924 22.9585 122.432 22.8327 122.174 22.5907C121.898 22.3391 121.742 21.8648 121.708 21.1679C121.656 20.2581 122.587 18.7965 124.519 16.7736C125.7 15.5347 126.709 14.9346 127.554 14.9734C127.571 14.9734 128.157 15.3412 129.321 16.0864C131.347 13.6667 132.356 10.9663 132.356 7.97547C132.356 6.07839 131.615 4.8298 130.123 4.22971C129.407 3.9587 128.235 3.82319 126.622 3.82319C122.812 3.82319 118.863 4.54911 114.759 5.99128C112.905 6.64945 110.689 7.65606 108.111 8.99176L104.714 10.7533C104.49 10.7533 104.386 10.6275 104.386 10.3855C104.404 9.99837 105.611 9.16598 107.999 7.90771C110.301 6.70752 112.37 5.77834 114.207 5.12017C118.639 3.51346 122.682 2.70043 126.347 2.70043C128.631 2.70043 130.313 2.9908 131.399 3.57154C132.804 4.3265 133.511 5.70091 133.511 7.6851ZM128.157 17.4996C128.011 17.0059 127.752 16.6769 127.381 16.5123C127.123 16.4058 126.709 16.5317 126.14 16.8801C125.588 17.2092 125.122 17.6254 124.734 18.119C123.553 19.6096 122.932 20.6356 122.855 21.2163C122.82 21.4195 123.079 21.6131 123.631 21.7777C124.131 21.9422 125.105 21.3034 126.553 19.8612C127.407 18.9901 127.933 18.2061 128.157 17.4996ZM143.082 17.0931C143.082 18.2448 142.358 19.4838 140.9 20.8098C139.573 22.0293 138.124 22.6197 136.538 22.5713C135.615 22.552 134.908 22.2423 134.417 21.6422C133.994 21.1292 133.805 20.5097 133.839 19.7838C133.874 18.632 134.313 17.7706 135.167 17.2092C135.313 17.1027 135.607 17.0543 136.046 17.0543C136.158 16.9769 136.314 16.8027 136.512 16.5607C136.736 16.3091 136.9 16.1445 137.012 16.0671C138.46 15.0992 139.65 14.6152 140.573 14.6152C141.323 14.6152 141.935 14.8572 142.392 15.3315C142.858 15.7864 143.082 16.3768 143.082 17.0931ZM142.039 16.9092C142.039 16.2316 141.59 15.8638 140.685 15.8251C139.711 15.7864 138.779 16.1735 137.9 17.0059C137.771 17.1124 137.598 17.3447 137.374 17.7222C137.193 18.0319 136.995 18.2158 136.796 18.2836C136.684 18.3029 136.564 18.3029 136.434 18.2836H136.072C135.762 18.3223 135.477 18.5739 135.219 19.0288C135.038 19.3966 134.943 19.687 134.943 19.9C134.943 20.3161 135.124 20.6839 135.494 21.013C135.882 21.3228 136.322 21.4776 136.822 21.4776C137.762 21.4776 138.831 21.0324 140.021 20.1419C141.366 19.1256 142.039 18.0513 142.039 16.9092ZM164.904 18.0609C164.904 18.661 163.835 19.5709 161.705 20.7904C160.36 21.5551 159.274 21.9422 158.446 21.9713C157.541 21.9906 156.886 21.3324 156.463 19.9871C154.351 21.1389 152.911 21.7002 152.161 21.6615C151.445 21.6228 150.876 20.9646 150.454 19.6773C149.402 20.3549 148.686 20.7904 148.298 20.9743C146.755 21.7002 145.737 22.0293 145.263 21.9616C144.453 21.8551 144.065 21.3615 144.108 20.471C144.125 20.0161 144.97 18.903 146.643 17.1221C147.988 15.6993 148.815 14.954 149.126 14.8959C149.419 14.8379 149.566 15.0411 149.566 15.5154C149.566 15.4573 148.85 16.28 147.41 17.9932C146.306 19.3192 145.755 20.0161 145.755 20.1032C145.703 20.3065 145.824 20.4323 146.143 20.471C146.807 20.5775 148.402 19.7064 150.945 17.8674C153.756 15.9219 155.135 14.954 155.084 14.954C155.23 14.9346 155.36 15.0024 155.472 15.1669C155.584 15.3121 155.635 15.467 155.635 15.6315C155.635 15.5057 154.989 16.1252 153.704 17.4899C153.558 17.6351 153.23 17.9545 152.713 18.4481C152.325 18.8159 152.049 19.145 151.885 19.4063C152.178 20.0645 152.419 20.3936 152.601 20.3936C153.756 20.3936 155.118 19.6483 156.687 18.1674L158.67 16.3671C159.921 15.254 160.602 14.7023 160.714 14.7217C161.231 14.8282 161.49 15.1863 161.49 15.8057C161.49 15.6412 160.662 16.4058 159.007 18.0997C158.472 18.6804 158.179 19.1353 158.127 19.4644C158.075 19.7161 158.144 19.9774 158.351 20.2678C158.532 20.5581 158.739 20.7033 158.955 20.7033C159.231 20.7033 159.929 20.4323 161.05 19.9C161.585 19.6289 162.274 19.1547 163.119 18.4771C163.913 17.8383 164.344 17.5092 164.413 17.4899C164.74 17.3931 164.904 17.5867 164.904 18.0609ZM182.674 17.3737C182.691 17.7028 182.183 18.3126 181.157 19.2031C180.105 20.0935 179.165 20.742 178.311 21.1582C177.096 21.739 176.026 22.0293 175.113 22.0293C174.087 22.0293 173.311 21.5744 172.793 20.6646C172.698 20.5194 172.578 20.2871 172.431 19.9483C172.267 19.5322 172.147 19.2611 172.069 19.116C171.94 19.2418 171.672 19.4644 171.267 19.7935C170.896 20.0839 170.595 20.3549 170.353 20.5968C170.258 20.6839 169.957 21.0905 169.439 21.8357C169 22.4552 168.698 22.7649 168.525 22.7649C168.12 22.7649 167.879 22.6197 167.81 22.3294C167.792 22.2713 168.56 21.2163 170.129 19.174C171.56 17.335 172.285 16.1639 172.285 15.6412C172.285 15.2928 172.121 15.0798 171.784 15.0218C171.491 14.983 170.482 15.496 168.749 16.5704C168.361 16.8027 167.594 17.3641 166.43 18.2739C165.525 18.9998 165.016 19.3386 164.887 19.2999C164.413 19.1934 164.206 19.0095 164.283 18.7385C164.318 18.5933 164.852 18.119 165.887 17.3157C166.896 16.5317 167.637 16.0187 168.094 15.767C170.172 14.5862 171.457 13.9667 171.957 13.9087C172.302 13.87 172.638 13.9571 172.948 14.1894C173.276 14.4217 173.448 14.6927 173.448 15.0218C173.448 15.3702 173.354 15.8057 173.173 16.3187C172.992 16.8608 172.897 17.2479 172.897 17.4996C172.802 17.4996 173.673 16.9188 175.492 15.767C177.475 14.4701 178.518 13.8312 178.613 13.8506C178.811 13.8893 178.915 14.0829 178.915 14.412C178.915 14.4701 178.053 15.1573 176.32 16.4542L174.94 17.5092C174.354 17.9835 173.836 18.3804 173.397 18.6901C173.345 18.7772 173.362 19.0385 173.448 19.4934C173.483 19.7644 173.647 20.0645 173.949 20.3936C174.337 20.8098 174.759 21.0034 175.216 20.984C176.113 20.9453 176.966 20.713 177.751 20.3065C178.354 19.9774 179.294 19.3289 180.562 18.3513C181.665 17.5092 182.269 17.0834 182.381 17.0834C182.545 17.064 182.639 17.1705 182.674 17.3737ZM191.477 17.0931C191.477 18.2448 190.753 19.4838 189.296 20.8098C187.968 22.0293 186.519 22.6197 184.933 22.5713C184.01 22.552 183.303 22.2423 182.812 21.6422C182.389 21.1292 182.2 20.5097 182.234 19.7838C182.269 18.632 182.708 17.7706 183.562 17.2092C183.709 17.1027 184.002 17.0543 184.441 17.0543C184.554 16.9769 184.709 16.8027 184.907 16.5607C185.131 16.3091 185.295 16.1445 185.407 16.0671C186.856 15.0992 188.045 14.6152 188.968 14.6152C189.718 14.6152 190.33 14.8572 190.787 15.3315C191.244 15.7864 191.477 16.3768 191.477 17.0931ZM190.434 16.9092C190.434 16.2316 189.985 15.8638 189.08 15.8251C188.106 15.7864 187.175 16.1735 186.295 17.0059C186.166 17.1124 185.993 17.3447 185.769 17.7222C185.588 18.0319 185.39 18.2158 185.192 18.2836C185.08 18.3029 184.959 18.3029 184.829 18.2836H184.467C184.157 18.3223 183.872 18.5739 183.614 19.0288C183.433 19.3966 183.338 19.687 183.338 19.9C183.338 20.3161 183.519 20.6839 183.89 21.013C184.278 21.3228 184.717 21.4776 185.217 21.4776C186.157 21.4776 187.226 21.0324 188.416 20.1419C189.761 19.1256 190.434 18.0513 190.434 16.9092ZM212.92 17.6835C212.825 18.0126 211.911 18.8643 210.161 20.2194C208.488 21.5454 207.031 22.2035 205.798 22.2035C204.048 22.2035 202.841 21.526 202.16 20.1613C201.849 19.5031 201.72 19.0676 201.772 18.8643C199.34 20.4517 198.185 21.2163 198.297 21.1582C196.564 22.1068 195.34 22.581 194.598 22.581C193.365 22.581 192.796 22.0003 192.891 20.8485C192.943 20.1226 193.21 19.3676 193.693 18.5836C194.21 17.7415 194.693 17.3544 195.159 17.4415C195.417 17.4802 195.529 17.6448 195.486 17.9351C195.469 18.0997 195.366 18.2739 195.184 18.4578C194.926 18.7094 194.771 18.8837 194.719 18.9804C194.219 19.8032 193.96 20.4033 193.943 20.7807C193.908 21.2356 194.124 21.4583 194.607 21.4583C195.107 21.4583 196.081 21.0905 197.53 20.3452C198.211 19.9967 199.021 19.4741 199.961 18.7965C201.306 17.8093 202.41 16.8995 203.272 16.0671L204.401 14.5765C204.901 13.9184 205.289 13.6086 205.591 13.6473C206.065 13.7345 206.29 13.9184 206.255 14.2087C206.203 14.5184 205.721 15.2637 204.824 16.4349C203.789 17.8577 203.281 18.7772 203.281 19.1934C203.281 19.7354 203.531 20.1806 204.022 20.5581C204.522 20.955 205.134 21.1485 205.867 21.1485C206.583 21.1485 207.747 20.6162 209.342 19.5418C211.618 17.9545 212.67 17.1705 212.489 17.1898C212.601 17.1705 212.713 17.2092 212.816 17.3157C212.92 17.4221 212.954 17.5383 212.92 17.6835ZM218.403 18.2739C218.585 19.0579 218.283 19.9483 217.49 20.9356C216.731 21.9035 215.938 22.4939 215.093 22.6972C214.446 22.8617 213.817 22.7069 213.187 22.2326C212.523 21.739 212.204 21.1389 212.222 20.4323C212.256 19.3579 213.032 18.119 214.541 16.7156L215.946 14.6056C216.61 13.6377 217.084 13.1053 217.377 13.0279C217.765 12.9021 217.964 13.0666 217.981 13.5215C217.998 13.6861 217.86 13.9571 217.567 14.3249C217.179 14.8185 216.929 15.1573 216.826 15.3508C216.403 16.0284 216.084 16.6091 215.86 17.0834C216.3 17.0447 216.593 17.0447 216.739 17.0834C217.705 17.1608 218.257 17.548 218.403 18.2739ZM217.36 18.7965C217.283 18.2642 216.843 18.0513 216.032 18.1771C215.256 18.3029 214.739 18.4868 214.463 18.7385C213.929 19.9774 213.644 20.5388 213.61 20.4129C213.687 20.7614 213.86 21.0421 214.136 21.2453C214.394 21.4486 214.679 21.526 214.989 21.4583C215.463 21.4002 215.998 21.0517 216.593 20.4323C217.196 19.8225 217.446 19.2805 217.36 18.7965ZM237.553 17.6254C237.605 18.0997 236.518 19.1934 234.294 20.9066C233.026 21.8938 231.906 22.3971 230.931 22.3971C229.534 22.3971 228.836 21.526 228.836 19.7935C228.853 19.2127 229 18.4965 229.276 17.6254C229.146 17.6254 228.871 17.5964 228.448 17.5286C228.095 17.4899 227.845 17.4802 227.672 17.4996C226.81 17.6254 226.112 17.6641 225.577 17.6254L224.361 19.4838C223.034 21.4679 222.189 22.4358 221.826 22.3971C221.533 22.3391 221.387 22.2907 221.387 22.2713C221.292 22.0003 221.714 21.1582 222.654 19.7354C223.171 18.9514 223.628 18.0803 224.034 17.1318C223.853 17.2382 223.24 17.6931 222.214 18.4965C221.404 19.1353 220.869 19.4644 220.611 19.4838C220.43 19.4838 220.318 19.3386 220.283 19.0482C220.231 18.6998 220.542 18.2739 221.223 17.7803C222.378 16.9575 223.189 16.3284 223.654 15.8929C225.034 14.5281 225.965 13.8796 226.439 13.9377C226.681 13.9571 226.836 14.1797 226.905 14.5862C226.974 15.0024 226.827 15.5347 226.465 16.1929H228.008C228.103 16.1929 228.379 16.2219 228.836 16.2897C229.207 16.3478 229.465 16.3575 229.612 16.3187C229.922 15.9703 230.216 15.5928 230.492 15.2057C231.207 14.2184 231.742 13.7151 232.095 13.7151C232.647 13.7151 232.888 13.8796 232.811 14.2087C232.794 14.2958 232.483 14.8862 231.871 16.009C230.69 18.1771 230.104 19.4354 230.104 19.7838C230.104 20.7323 230.492 21.2066 231.259 21.2066C231.906 21.2066 232.69 20.8582 233.63 20.1516C233.906 19.9483 234.57 19.3676 235.613 18.4191C236.492 17.6157 236.992 17.1995 237.105 17.1802C237.372 17.1318 237.518 17.277 237.553 17.6254ZM246.606 17.0931C246.606 18.2448 245.882 19.4838 244.425 20.8098C243.097 22.0293 241.648 22.6197 240.062 22.5713C239.139 22.552 238.432 22.2423 237.941 21.6422C237.518 21.1292 237.329 20.5097 237.363 19.7838C237.398 18.632 237.837 17.7706 238.691 17.2092C238.838 17.1027 239.131 17.0543 239.57 17.0543C239.683 16.9769 239.838 16.8027 240.036 16.5607C240.26 16.3091 240.424 16.1445 240.536 16.0671C241.985 15.0992 243.174 14.6152 244.097 14.6152C244.847 14.6152 245.459 14.8572 245.916 15.3315C246.373 15.7864 246.606 16.3768 246.606 17.0931ZM245.554 16.9092C245.554 16.2316 245.106 15.8638 244.2 15.8251C243.226 15.7864 242.295 16.1735 241.416 17.0059C241.286 17.1124 241.114 17.3447 240.89 17.7222C240.709 18.0319 240.51 18.2158 240.312 18.2836C240.2 18.3029 240.079 18.3029 239.95 18.2836H239.588C239.277 18.3223 238.993 18.5739 238.734 19.0288C238.553 19.3966 238.458 19.687 238.458 19.9C238.458 20.3161 238.639 20.6839 239.01 21.013C239.398 21.3228 239.838 21.4776 240.338 21.4776C241.278 21.4776 242.338 21.0324 243.537 20.1419C244.882 19.1256 245.554 18.0513 245.554 16.9092ZM257.694 17.4996C257.677 17.7319 256.444 18.7965 253.995 20.7227C252.503 21.8745 251.219 22.5423 250.132 22.7069C249.744 22.7649 249.348 22.6004 248.943 22.2132C248.52 21.8454 248.305 21.4292 248.305 20.9743C248.305 19.5322 248.951 17.819 250.236 15.8348C251.176 14.3926 252.021 13.6667 252.771 13.6667C253.159 13.6667 253.504 13.9087 253.823 14.3829C254.099 14.8379 254.228 15.3024 254.211 15.7767C254.176 16.9092 253.435 17.9254 252.003 18.8159C251.4 19.1837 250.607 19.5225 249.632 19.8032C249.486 20.1129 249.408 20.4613 249.408 20.8582C249.408 21.2066 249.701 21.4195 250.288 21.4776C250.658 21.497 251.59 21.0227 253.098 20.0548C256.133 18.0706 257.53 17.0834 257.289 17.0834C257.582 17.064 257.711 17.2092 257.694 17.4996ZM253.116 15.6993C253.116 15.2444 252.952 15.0218 252.616 15.0218C252.193 15.0218 251.71 15.5154 251.184 16.5123L250.132 18.4965C250.995 18.332 251.676 17.9835 252.176 17.4415C252.805 16.7736 253.116 16.2026 253.116 15.6993Z" fill="url(#paint0_linear_3_19854)"/>
<path d="M58.4872 42.7877C58.4872 42.7102 56.8836 43.9879 53.6848 46.6302C51.2189 48.6338 49.4945 50.2889 48.4944 51.5858C48.5633 51.4407 48.0633 52.6118 46.9769 55.0896C46.0975 57.0738 45.2353 58.6321 44.4075 59.7646L42.0882 62.9199C41.2088 63.9749 40.4845 64.4879 39.9327 64.4686C38.7946 64.4298 38.2256 63.8297 38.2256 62.6683C38.2256 61.3229 39.7344 59.0774 42.7521 55.9123C44.761 53.7443 46.3734 52.0311 47.6063 50.7728L48.2702 48.9435C48.5633 48.1208 48.7875 47.4239 48.9341 46.8722C48.9858 46.6496 49.1669 46.1753 49.46 45.4494C49.7359 44.7235 49.9084 44.1911 49.986 43.8427C48.2961 45.0429 46.6406 45.643 45.0197 45.643C44.1403 45.643 43.5626 45.4591 43.3126 45.0816C43.166 44.8977 43.0539 44.4428 42.9849 43.7169C42.9332 43.0974 43.3039 42.3231 44.1144 41.3939C44.8904 40.5228 45.4077 40.126 45.6836 40.184C46.0716 40.2421 46.2699 40.4357 46.2871 40.7454C46.2871 40.8035 45.9595 41.181 45.2956 41.8585C44.5972 42.5651 44.2265 43.2039 44.192 43.7749C44.1575 44.2298 44.3903 44.4525 44.9076 44.4525C47.1149 44.4525 49.1927 43.4846 51.1413 41.5391C52.0035 40.3389 52.5726 39.6033 52.8485 39.3129C53.84 38.2386 54.5729 37.7062 55.0557 37.7062C55.254 37.7062 55.4437 37.803 55.6075 37.9869C55.7713 38.1708 55.8489 38.3644 55.8317 38.5773C55.8317 38.6838 55.185 39.342 53.9004 40.5615C52.7795 41.6746 52.1156 42.3812 51.9173 42.6715C51.4603 43.4942 51.0896 44.3266 50.8137 45.1493C50.3567 46.6399 50.0981 47.6078 50.0377 48.0627L53.5124 45.3332C56.3835 43.2716 57.8923 42.236 58.0389 42.236C58.151 42.2166 58.2545 42.2844 58.3407 42.4489C58.4441 42.5747 58.4872 42.6909 58.4872 42.7877ZM46.4596 53.57C44.7524 55.3413 43.5712 56.6286 42.9246 57.4126C40.4759 60.4518 39.2861 62.223 39.3378 62.736C39.3723 63.0264 39.562 63.1716 39.8896 63.1716C40.6829 63.1716 41.8554 61.8456 43.4246 59.2032C44.511 57.4126 45.5198 55.5252 46.4596 53.57ZM86.4052 42.294C86.388 42.7296 85.4482 43.6394 83.5945 45.0235C81.4217 46.6109 79.7836 47.4142 78.6799 47.4433C78.3523 47.4433 78.0764 47.269 77.8522 46.9206C77.6453 46.6109 77.5591 46.2527 77.5763 45.8365C77.6108 45.2752 78.1626 44.3266 79.2317 42.9909C80.1112 41.8391 80.5768 41.1906 80.6113 41.0745C80.3009 41.2778 79.8525 41.51 79.2835 41.752C78.5247 42.1005 78.016 42.3521 77.7401 42.4973C76.3434 43.3684 74.8 44.133 73.1015 44.7912C68.187 50.9664 65.359 54.4992 64.6002 55.38C58.8063 62.194 55.9351 65.601 55.9955 65.601C55.7368 65.601 55.5903 65.4945 55.5558 65.2913C55.5558 65.2332 58.3665 61.6326 63.9967 54.5089L66.3419 51.6246C67.1868 50.5696 68.0576 49.4662 68.963 48.3144C71.2478 45.401 72.9032 43.2523 73.9292 41.8682L72.8773 42.4876C71.6789 43.2523 71.1702 43.6394 71.334 43.6685C71.1529 43.6491 70.9633 43.4652 70.7822 43.1071C70.6529 42.8167 71.5582 42.0714 73.4895 40.8809C73.912 40.6293 74.3776 40.3099 74.8949 39.9227C75.4295 39.5355 75.8261 39.2548 76.0847 39.0903C76.7314 38.4902 77.197 38.2289 77.4901 38.316C77.766 38.3741 77.904 38.5289 77.904 38.7806C77.904 38.7419 77.4297 39.342 76.4727 40.5809C75.5933 41.6939 75.0415 42.4199 74.8173 42.749C75.5157 42.5651 76.671 42.0037 78.2919 41.0745C80.206 39.9227 81.5511 39.342 82.3184 39.342C82.5426 39.342 82.6288 39.5452 82.5943 39.9614C82.5167 40.5422 81.8356 41.5488 80.5509 43.0006C79.2835 44.4912 78.6541 45.4397 78.6713 45.8462C78.7058 46.1753 78.8351 46.3399 79.0593 46.3399C79.7577 46.3399 81.1027 45.6139 83.0858 44.1718C84.9826 42.7683 85.9396 42.0617 85.9569 42.0617C86.2587 42.0037 86.4052 42.0908 86.4052 42.294ZM70.765 42.7296C70.6529 43.3684 69.4458 44.4815 67.1523 46.0785C65.4797 47.2594 64.0312 47.7917 62.8241 47.6852C61.8671 47.5981 61.436 47.1529 61.5308 46.3205C61.6257 45.6623 61.8584 45.0235 62.2464 44.4041C62.2809 44.3653 62.712 43.804 63.5397 42.7296C63.1862 42.7296 62.8758 42.6715 62.5999 42.5457C62.0481 42.294 61.6515 41.9456 61.4101 41.4907C60.9876 42.1489 60.5048 42.7296 59.9789 43.2232C59.3322 43.804 58.9528 44.0943 58.8235 44.0943C58.6942 44.0943 58.5735 44.0459 58.4614 43.9395C58.3493 43.833 58.3062 43.7265 58.3234 43.6007C58.3407 43.5813 58.6942 43.1264 59.3753 42.236L60.5651 40.7454C61.6688 38.8096 62.4016 37.8127 62.7724 37.774C62.9189 37.7546 63.0655 37.803 63.2121 37.9288C63.3587 38.074 63.4363 38.2482 63.4363 38.4515C63.419 38.6838 63.2724 39.0419 62.9965 39.5355C62.6689 40.1356 62.4447 40.5809 62.3327 40.8712C62.4965 41.2003 62.7034 41.3842 62.9362 41.4326C63.3587 41.5584 63.8587 41.5584 64.4278 41.4326C64.7727 41.3068 65.2383 40.9777 65.8073 40.4454C66.3074 40.0098 66.635 39.8065 66.7988 39.8259C67.1696 39.8646 67.3679 40.1163 67.4024 40.5712C67.4541 41.1326 66.6436 41.8682 64.971 42.7973C63.5742 44.2202 62.85 45.3623 62.7896 46.2043C62.7896 46.4076 63.0224 46.5141 63.4794 46.5141C64.1433 46.4947 65.2124 46.0204 66.6781 45.0913C67.0834 44.8396 67.799 44.2782 68.8336 43.3878C69.7562 42.6038 70.2649 42.1973 70.377 42.1779C70.5235 42.1585 70.6356 42.2069 70.7046 42.3328C70.7822 42.4489 70.7994 42.5844 70.765 42.7296ZM95.1565 42.3521C95.1393 42.5844 93.9064 43.6491 91.4577 45.5752C89.9661 46.727 88.6814 47.3949 87.5951 47.5594C87.2071 47.6175 86.8105 47.4529 86.4052 47.0658C85.9828 46.698 85.7672 46.2818 85.7672 45.8269C85.7672 44.3847 86.4139 42.6715 87.6985 40.6873C88.6383 39.2452 89.4833 38.5192 90.2334 38.5192C90.6214 38.5192 90.9663 38.7612 91.2853 39.2355C91.5612 39.6904 91.6905 40.155 91.6733 40.6293C91.6388 41.7617 90.8973 42.778 89.466 43.6685C88.8625 44.0363 88.0693 44.375 87.095 44.6557C86.9484 44.9654 86.8708 45.3139 86.8708 45.7107C86.8708 46.0592 87.164 46.2721 87.7503 46.3302C88.121 46.3495 89.0522 45.8753 90.561 44.9074C93.596 42.9232 94.9927 41.9359 94.7513 41.9359C95.0445 41.9262 95.1738 42.0714 95.1565 42.3521ZM90.5783 40.5615C90.5783 40.1066 90.4145 39.884 90.0782 39.884C89.6557 39.884 89.1729 40.3776 88.6469 41.3745L87.5951 43.3587C88.4573 43.1942 89.1384 42.8457 89.6385 42.3037C90.2593 41.6359 90.5783 41.0551 90.5783 40.5615ZM119.376 42.6038C119.41 43.02 118.401 43.9879 116.341 45.5171C114.358 47.0271 112.849 47.7433 111.814 47.6852C111.34 47.6659 110.909 47.4045 110.547 46.9109C110.176 46.456 110.012 46.0108 110.047 45.5752C110.064 45.2848 110.193 44.6364 110.435 43.6201L109.607 44.2395C109.219 44.5105 108.934 44.7235 108.753 44.888C107.21 46.1656 106.132 46.8044 105.529 46.8044C104.813 46.8044 104.477 46.3882 104.537 45.5655C104.555 45.2752 104.813 44.6654 105.313 43.7362C105.443 43.4652 105.65 43.1361 105.951 42.749C106.244 42.3618 106.443 42.0617 106.529 41.8488C106.158 41.9359 105.581 42.1973 104.787 42.6522C104.089 43.0684 103.115 43.7072 101.864 44.5686C101.054 45.1687 100.433 45.672 99.9849 46.0882C99.0623 46.998 98.5364 47.4433 98.4157 47.4239C98.088 47.3852 97.9415 47.2303 97.9759 46.9593C97.9932 46.6302 98.3984 46.0398 99.1916 45.1977C99.9245 44.4525 100.476 43.7943 100.847 43.2135C101.727 41.8295 102.175 40.9874 102.175 40.6777C102.175 40.5131 101.951 40.426 101.511 40.426C100.537 40.426 99.3555 40.8422 97.9759 41.6649C97.5879 41.8972 96.9585 42.4005 96.0705 43.1845C95.2945 43.862 94.8634 44.2105 94.7772 44.2105C94.3719 44.2105 94.1909 43.9588 94.2254 43.4652C94.2771 42.9716 95.2859 42.0811 97.2344 40.8035C98.9244 39.7291 100.459 39.2161 101.839 39.2548C102.925 39.2936 103.442 39.7291 103.382 40.5518C103.304 41.2584 103.037 42.0134 102.58 42.8457C102.89 42.5941 103.761 42.0811 105.175 41.2971C107.383 40.0582 108.598 39.4291 108.814 39.4097C108.909 39.4097 109.003 39.4871 109.116 39.6227C109.21 39.7872 109.245 39.9324 109.228 40.0582C109.193 40.2615 108.831 40.7938 108.15 41.6359C107.339 42.6522 106.891 43.2232 106.796 43.3684C106.167 44.4234 105.839 45.0332 105.805 45.1977C105.727 45.43 105.753 45.5462 105.856 45.5655C105.986 45.5849 107.322 44.617 109.857 42.6522C112.176 40.7938 113.418 39.8646 113.582 39.8646C113.711 39.8646 113.832 39.9324 113.944 40.0776C114.039 40.2227 114.065 40.3776 114.03 40.5421C113.996 40.8325 113.452 41.5004 112.401 42.5554C111.719 43.32 111.34 44.1524 111.271 45.0622C111.176 45.8656 111.435 46.3011 112.047 46.3592C112.651 46.4173 113.789 45.8849 115.444 44.7525C117.979 43.02 119.203 42.1489 119.117 42.1489C119.246 42.1682 119.341 42.3134 119.376 42.6038ZM133.697 32.5376C133.697 35.6156 132.481 38.9064 130.058 42.4199C127.61 46.0108 125.532 47.8111 123.825 47.8111C123.109 47.8111 122.618 47.6852 122.359 47.4433C122.083 47.1916 121.928 46.7173 121.893 46.0204C121.842 45.1106 122.773 43.6491 124.704 41.6262C125.885 40.3873 126.894 39.7872 127.739 39.8259C127.756 39.8259 128.343 40.1937 129.507 40.939C131.533 38.5192 132.541 35.8188 132.541 32.828C132.541 30.9309 131.8 29.6823 130.308 29.0823C129.593 28.8112 128.42 28.6757 126.808 28.6757C122.997 28.6757 119.048 29.4017 114.944 30.8438C113.09 31.502 110.874 32.5086 108.296 33.8443L104.899 35.6059C104.675 35.6059 104.572 35.4801 104.572 35.2381C104.589 34.8509 105.796 34.0185 108.184 32.7603C110.486 31.5601 112.556 30.6309 114.392 29.9727C118.824 28.366 122.868 27.553 126.532 27.553C128.817 27.553 130.498 27.8433 131.584 28.4241C132.99 29.179 133.697 30.5535 133.697 32.5376ZM128.343 42.3521C128.196 41.8585 127.937 41.5294 127.567 41.3649C127.308 41.2584 126.894 41.3842 126.325 41.7327C125.773 42.0617 125.308 42.4779 124.92 42.9716C123.738 44.4621 123.118 45.4881 123.04 46.0688C123.006 46.2721 123.264 46.4657 123.816 46.6302C124.316 46.7948 125.29 46.156 126.739 44.7138C127.592 43.8427 128.127 43.0587 128.343 42.3521ZM143.103 42.3521C143.086 42.5844 141.853 43.6491 139.405 45.5752C137.913 46.727 136.628 47.3949 135.542 47.5594C135.154 47.6175 134.757 47.4529 134.352 47.0658C133.93 46.698 133.714 46.2818 133.714 45.8269C133.714 44.3847 134.361 42.6715 135.645 40.6873C136.585 39.2452 137.43 38.5192 138.18 38.5192C138.568 38.5192 138.913 38.7612 139.232 39.2355C139.508 39.6904 139.637 40.155 139.62 40.6293C139.586 41.7617 138.844 42.778 137.413 43.6685C136.809 44.0363 136.016 44.375 135.042 44.6557C134.895 44.9654 134.818 45.3139 134.818 45.7107C134.818 46.0592 135.111 46.2721 135.697 46.3302C136.068 46.3495 136.999 45.8753 138.508 44.9074C141.543 42.9232 142.94 41.9359 142.698 41.9359C143 41.9262 143.129 42.0714 143.103 42.3521ZM138.525 40.5615C138.525 40.1066 138.361 39.884 138.025 39.884C137.603 39.884 137.12 40.3776 136.594 41.3745L135.542 43.3587C136.404 43.1942 137.085 42.8457 137.585 42.3037C138.215 41.6359 138.525 41.0551 138.525 40.5615ZM159.52 42.4779C159.571 42.9522 158.485 44.0459 156.261 45.7591C154.993 46.7464 153.872 47.2497 152.898 47.2497C151.501 47.2497 150.803 46.3786 150.803 44.646C150.82 44.0653 150.967 43.349 151.243 42.4779C151.113 42.4779 150.837 42.4489 150.415 42.3812C150.061 42.3424 149.811 42.3328 149.639 42.3521C148.777 42.4779 148.078 42.5167 147.544 42.4779L146.328 44.3363C145 46.3205 144.155 47.2884 143.793 47.2497C143.5 47.1916 143.353 47.1432 143.353 47.1238C143.259 46.8528 143.681 46.0108 144.621 44.588C145.138 43.804 145.595 42.9329 146 41.9843C145.819 42.0908 145.207 42.5457 144.181 43.3491C143.371 43.9879 142.836 44.3169 142.577 44.3363C142.396 44.3363 142.284 44.1911 142.25 43.9008C142.198 43.5523 142.508 43.1264 143.19 42.6328C144.345 41.8101 145.155 41.181 145.621 40.7454C147.001 39.3807 147.932 38.7322 148.406 38.7903C148.647 38.8096 148.803 39.0322 148.872 39.4387C148.949 39.8549 148.794 40.3873 148.432 41.0455H149.975C150.07 41.0455 150.346 41.0745 150.803 41.1422C151.174 41.2003 151.432 41.21 151.579 41.1713C151.889 40.8228 152.182 40.4454 152.458 40.0582C153.174 39.0709 153.708 38.5676 154.062 38.5676C154.614 38.5676 154.855 38.7322 154.778 39.0613C154.76 39.1484 154.45 39.7388 153.838 40.8616C152.657 43.0296 152.07 44.2879 152.07 44.6364C152.07 45.5849 152.458 46.0592 153.226 46.0592C153.872 46.0592 154.657 45.7107 155.597 45.0042C155.873 44.8009 156.536 44.2202 157.58 43.2716C158.459 42.4683 158.959 42.0521 159.071 42.0327C159.339 41.9843 159.485 42.1295 159.52 42.4779ZM178.393 42.3521C178.428 42.5554 178.014 43.0393 177.152 43.804C176.307 44.5299 175.462 45.159 174.617 45.6914C172.996 46.7076 171.875 47.2206 171.254 47.24C170.133 47.2594 169.349 46.7657 168.909 45.7494C168.685 45.2171 168.581 44.7815 168.581 44.4525C166.598 46.185 164.745 47.0948 163.037 47.1819C162.011 47.24 161.511 46.8141 161.546 45.8849C161.563 45.43 161.822 44.6847 162.322 43.6588C162.796 42.6231 163.236 41.9166 163.615 41.5197C163.434 41.6456 163.158 41.8004 162.787 41.9843L161.822 42.5457C160.296 43.4555 159.537 43.9104 159.563 43.9104C159.235 43.8717 159.089 43.6878 159.123 43.3491C159.201 42.749 160.261 41.965 162.322 40.9971C162.563 40.8906 163.063 40.6002 163.839 40.126C164.486 39.7098 164.934 39.4871 165.193 39.4484C165.374 39.4097 165.564 39.4678 165.745 39.6323C165.926 39.7775 166.021 39.9421 166.021 40.126C166.021 40.3582 165.521 41.0745 164.529 42.294C163.537 43.533 162.986 44.5492 162.874 45.3332C162.839 45.6623 162.822 45.7882 162.822 45.701C162.822 45.8269 162.908 45.8946 163.072 45.914C164.322 45.9721 165.96 45.159 167.986 43.4652C168.78 42.7877 169.418 42.1489 169.918 41.5488C170.909 40.3099 171.444 39.6904 171.521 39.6904C172.073 39.7098 172.375 40.0388 172.435 40.6777C172.435 40.8422 172.254 41.1326 171.884 41.5488C171.409 42.1101 171.099 42.4973 170.97 42.7296C170.289 43.804 169.952 44.4621 169.952 44.7138C169.935 45.0622 170.03 45.3623 170.228 45.6139C170.47 45.9237 170.78 46.0785 171.168 46.0785C171.642 46.0785 172.513 45.6914 173.763 44.8977C174.41 44.4815 175.263 43.862 176.333 43.0393C177.384 42.2553 177.893 41.8585 177.876 41.8585C178.1 41.6939 178.281 41.8585 178.393 42.3521ZM187.058 42.3521C187.041 42.5844 185.808 43.6491 183.359 45.5752C181.868 46.727 180.583 47.3949 179.497 47.5594C179.109 47.6175 178.712 47.4529 178.307 47.0658C177.884 46.698 177.669 46.2818 177.669 45.8269C177.669 44.3847 178.316 42.6715 179.6 40.6873C180.54 39.2452 181.385 38.5192 182.135 38.5192C182.523 38.5192 182.868 38.7612 183.187 39.2355C183.463 39.6904 183.592 40.155 183.575 40.6293C183.541 41.7617 182.799 42.778 181.368 43.6685C180.764 44.0363 179.971 44.375 178.997 44.6557C178.85 44.9654 178.773 45.3139 178.773 45.7107C178.773 46.0592 179.066 46.2721 179.652 46.3302C180.023 46.3495 180.954 45.8753 182.463 44.9074C185.498 42.9232 186.894 41.9359 186.653 41.9359C186.946 41.9262 187.076 42.0714 187.058 42.3521ZM182.48 40.5615C182.48 40.1066 182.316 39.884 181.98 39.884C181.557 39.884 181.075 40.3776 180.549 41.3745L179.497 43.3587C180.359 43.1942 181.04 42.8457 181.54 42.3037C182.17 41.6359 182.48 41.0551 182.48 40.5615Z" fill="url(#paint1_linear_3_19854)"/>
<path d="M108.455 68.5252C108.506 68.9995 107.42 70.0932 105.196 71.8064C103.928 72.7937 102.807 73.297 101.833 73.297C100.436 73.297 99.7378 72.4259 99.7378 70.6933C99.7551 70.1126 99.9016 69.3964 100.178 68.5252C100.048 68.5252 99.7723 68.4962 99.3498 68.4285C98.9963 68.3897 98.7463 68.3801 98.5738 68.3994C97.7116 68.5252 97.0133 68.564 96.4787 68.5252L95.263 70.3836C93.9352 72.3678 93.0903 73.3357 92.7281 73.297C92.435 73.2389 92.2884 73.1905 92.2884 73.1711C92.1936 72.9001 92.616 72.0581 93.5558 70.6353C94.0732 69.8513 94.5301 68.9802 94.9354 68.0316C94.7543 68.1381 94.1421 68.593 93.1161 69.3964C92.3057 70.0352 91.7711 70.3643 91.5124 70.3836C91.3314 70.3836 91.2193 70.2384 91.1848 69.9481C91.1331 69.5996 91.4435 69.1737 92.1246 68.6801C93.2799 67.8574 94.0904 67.2283 94.556 66.7927C95.9355 65.428 96.8667 64.7795 97.3409 64.8376C97.5823 64.8569 97.7375 65.0795 97.8065 65.486C97.8755 65.9022 97.7289 66.4346 97.3668 67.0928H98.9101C99.0049 67.0928 99.2808 67.1218 99.7378 67.1895C100.109 67.2476 100.367 67.2573 100.514 67.2186C100.824 66.8701 101.117 66.4927 101.393 66.1055C102.109 65.1183 102.643 64.6149 102.997 64.6149C103.549 64.6149 103.79 64.7795 103.713 65.1086C103.695 65.1957 103.385 65.7861 102.773 66.9089C101.592 69.0769 101.005 70.3352 101.005 70.6837C101.005 71.6322 101.393 72.1065 102.161 72.1065C102.807 72.1065 103.592 71.758 104.532 71.0515C104.808 70.8482 105.471 70.2675 106.515 69.3189C107.394 68.5156 107.894 68.0994 108.006 68.08C108.274 68.0316 108.42 68.1768 108.455 68.5252ZM124.897 68.7769C124.897 68.9221 123.56 69.9964 120.896 72C118.982 73.4422 117.396 74.1681 116.12 74.1681C115.197 74.1681 114.628 73.7132 114.412 72.8033C114.3 72.3291 114.292 71.7677 114.387 71.1289C113.611 71.7096 112.895 72.1839 112.231 72.5517C111.093 73.2099 110.127 73.539 109.334 73.539C108.23 73.539 107.679 72.9001 107.679 71.6225C107.679 70.5482 108.515 69.0092 110.188 67.0057C111.99 64.7795 113.283 63.6761 114.076 63.6954C114.999 63.7342 115.766 64.2278 116.395 65.186C116.559 65.4377 116.758 65.9603 116.973 66.7637C117.766 66.2313 118.068 65.9506 117.887 65.9313C118.456 65.97 118.715 66.2217 118.663 66.6766C118.611 67.0444 118.197 67.7025 117.421 68.6317C116.835 69.3963 116.37 69.9287 116.042 70.2384C115.637 71.3128 115.447 71.9419 115.464 72.1258C115.516 72.6678 115.792 72.9292 116.292 72.9292C117.068 72.9292 118.396 72.3097 120.293 71.0708C123.362 69.0673 124.767 68.08 124.517 68.0994C124.767 68.0703 124.897 68.3026 124.897 68.7769ZM115.904 66.9185C115.904 66.5895 115.723 66.1733 115.352 65.6796C114.964 65.1666 114.593 64.915 114.249 64.9343C113.585 64.9731 112.464 65.97 110.886 67.9058C109.412 69.7448 108.713 70.9837 108.791 71.6225C108.843 72.0581 109.119 72.3 109.619 72.3678C109.989 72.4065 110.748 72.0774 111.912 71.3805C113.792 70.2868 115.102 69.1834 115.861 68.0703L115.904 66.9185ZM163.687 68.2736C163.653 68.9124 162.144 70.2384 159.161 72.242C157.359 73.4422 155.772 74.1003 154.418 74.2262C154.013 74.2649 153.642 74.0907 153.315 73.7035C152.987 73.3067 152.815 72.8227 152.815 72.2516C152.815 71.8838 153.185 70.8869 153.918 69.2802C154.03 69.0092 154.306 68.5349 154.746 67.8574C155.091 67.3444 155.263 66.9863 155.246 66.8024C155.229 66.512 155.039 66.3475 154.694 66.3088C154.177 66.27 152.746 67.0928 150.392 68.7866C150.038 69.1544 149.547 69.8222 148.9 70.7708C148.331 71.5935 147.892 72.0097 147.573 72.0097C147.185 72.0097 146.943 71.758 146.857 71.2644C146.84 71.187 147.392 70.4804 148.512 69.1544C149.323 68.2252 149.728 67.4122 149.728 66.7056C149.728 66.2313 149.487 65.9894 149.012 65.9894C148.426 65.9894 147.728 66.1539 146.917 66.483C145.357 67.1412 144.124 67.8864 143.218 68.7091C142.796 69.106 142.356 69.5803 141.891 70.132C141.322 70.8385 140.934 71.2838 140.735 71.4967C139.83 72.3872 139.278 72.8227 139.08 72.7937C138.752 72.7356 138.563 72.4646 138.528 71.9903C138.511 71.7677 138.951 71.1192 139.856 70.0739C140.942 68.8156 141.477 68.0316 141.46 67.7219C141.425 67.267 141.218 67.0444 140.856 67.0444C140.373 67.0444 139.494 67.3928 138.209 68.0994C137.881 68.2639 137.364 68.6511 136.666 69.2415C136.097 69.7158 135.743 69.9287 135.614 69.89C135.191 69.7642 134.984 69.5803 135.01 69.3286C135.062 68.8156 136.002 68.0123 137.821 66.9089C138.813 66.3088 139.994 65.941 141.356 65.7958C141.684 65.7571 142.011 65.941 142.322 66.3572C142.58 66.725 142.736 67.1024 142.787 67.4702C143.244 67.0734 144.227 66.5411 145.736 65.8635C147.34 65.1183 148.435 64.7505 149.021 64.7505C149.995 64.7505 150.582 65.2441 150.789 66.241C150.858 66.5507 150.901 66.8411 150.901 67.1121C151.142 67.0347 151.849 66.6282 153.022 65.9022C154.013 65.3215 154.686 65.0408 155.039 65.0699C155.962 65.1279 156.436 65.5828 156.47 66.4346C156.47 66.3572 156.013 67.3444 155.091 69.406C154.315 71.1773 153.936 72.1065 153.936 72.1936C153.936 72.7743 154.134 73.0647 154.539 73.0647C155.384 73.0647 156.781 72.4646 158.729 71.2644C159.333 70.8966 160.307 70.1513 161.652 69.0382C162.661 68.2155 163.273 67.8187 163.472 67.8574C163.618 67.8864 163.687 68.0316 163.687 68.2736ZM188.027 68.3413C188.01 68.7769 187.07 69.6867 185.216 71.0708C183.043 72.6582 181.405 73.4615 180.302 73.4906C179.974 73.4906 179.698 73.3163 179.474 72.9679C179.267 72.6582 179.181 72.3 179.198 71.8838C179.232 71.3225 179.784 70.3739 180.853 69.0382C181.733 67.8864 182.198 67.2379 182.233 67.1218C181.923 67.3251 181.474 67.5574 180.905 67.7993C180.146 68.1478 179.638 68.3994 179.362 68.5446C177.965 69.4157 176.422 70.1804 174.723 70.8385C169.809 77.0137 166.981 80.5465 166.222 81.4273C160.428 88.2413 157.557 91.6483 157.617 91.6483C157.359 91.6483 157.212 91.5418 157.177 91.3386C157.177 91.2805 159.988 87.6799 165.618 80.5562L167.964 77.6719C168.809 76.6169 169.688 75.5135 170.585 74.3617C172.861 71.4483 174.525 69.2996 175.551 67.9155L174.499 68.5349C173.301 69.2996 172.792 69.6867 172.956 69.7158C172.775 69.6964 172.585 69.5125 172.404 69.1544C172.275 68.864 173.18 68.1187 175.111 66.9282C175.534 66.6766 175.999 66.3572 176.517 65.97C177.051 65.5828 177.448 65.3022 177.706 65.1376C178.353 64.5375 178.819 64.2762 179.112 64.3633C179.388 64.4214 179.526 64.5762 179.526 64.8279C179.526 64.7892 179.051 65.3893 178.094 66.6282C177.215 67.7412 176.663 68.4672 176.439 68.7963C177.137 68.6124 178.293 68.051 179.914 67.1218C181.828 65.97 183.173 65.3893 183.94 65.3893C184.164 65.3893 184.25 65.5925 184.216 66.0087C184.138 66.5895 183.457 67.5961 182.173 69.0479C180.905 70.5385 180.276 71.487 180.293 71.8935C180.327 72.2226 180.457 72.3872 180.681 72.3872C181.379 72.3872 182.724 71.6612 184.707 70.2191C186.604 68.8156 187.561 68.1091 187.579 68.1091C187.88 68.051 188.027 68.1381 188.027 68.3413ZM172.55 68.3994C172.533 68.6317 171.3 69.6964 168.852 71.6225C167.36 72.7743 166.075 73.4422 164.989 73.6067C164.601 73.6648 164.204 73.5002 163.799 73.1131C163.377 72.7453 163.161 72.3291 163.161 71.8742C163.161 70.432 163.808 68.7188 165.092 66.7346C166.032 65.2925 166.877 64.5665 167.627 64.5665C168.015 64.5665 168.36 64.8085 168.679 65.2828C168.955 65.7377 169.084 66.2023 169.067 66.6766C169.033 67.809 168.291 68.8253 166.86 69.7158C166.256 70.0836 165.463 70.4223 164.489 70.703C164.342 71.0127 164.265 71.3612 164.265 71.758C164.265 72.1065 164.558 72.3194 165.144 72.3775C165.515 72.3968 166.446 71.9226 167.955 70.9547C170.99 68.9705 172.387 67.9832 172.145 67.9832C172.438 67.9639 172.568 68.109 172.55 68.3994ZM167.964 66.6088C167.964 66.1539 167.8 65.9313 167.463 65.9313C167.041 65.9313 166.558 66.4249 166.032 67.4218L164.98 69.406C165.843 69.2415 166.524 68.893 167.024 68.351C167.653 67.6832 167.964 67.1024 167.964 66.6088ZM203.452 68.3413C203.434 68.7769 202.495 69.6867 200.641 71.0708C198.468 72.6582 196.83 73.4615 195.726 73.4906C195.399 73.4906 195.123 73.3163 194.899 72.9679C194.692 72.6582 194.605 72.3 194.623 71.8838C194.657 71.3225 195.209 70.3739 196.278 69.0382C197.158 67.8864 197.623 67.2379 197.658 67.1218C197.347 67.3251 196.899 67.5574 196.33 67.7993C195.571 68.1478 195.062 68.3994 194.787 68.5446C193.39 69.4157 191.846 70.1804 190.148 70.8385C185.233 77.0137 182.405 80.5465 181.647 81.4273C175.853 88.2413 172.982 91.6483 173.042 91.6483C172.783 91.6483 172.637 91.5418 172.602 91.3386C172.602 91.2805 175.413 87.6799 181.043 80.5562L183.388 77.6719C184.233 76.6169 185.113 75.5135 186.009 74.3617C188.286 71.4483 189.95 69.2996 190.976 67.9155L189.924 68.5349C188.725 69.2996 188.217 69.6867 188.38 69.7158C188.199 69.6964 188.01 69.5125 187.829 69.1544C187.699 68.864 188.605 68.1187 190.536 66.9282C190.958 66.6766 191.424 66.3572 191.941 65.97C192.476 65.5828 192.872 65.3022 193.131 65.1376C193.778 64.5375 194.243 64.2762 194.537 64.3633C194.812 64.4214 194.95 64.5762 194.95 64.8279C194.95 64.7892 194.476 65.3893 193.519 66.6282C192.64 67.7412 192.088 68.4672 191.864 68.7963C192.562 68.6124 193.717 68.051 195.338 67.1218C197.252 65.97 198.597 65.3893 199.365 65.3893C199.589 65.3893 199.675 65.5925 199.641 66.0087C199.563 66.5895 198.882 67.5961 197.597 69.0479C196.33 70.5385 195.7 71.487 195.718 71.8935C195.752 72.2226 195.882 72.3872 196.106 72.3872C196.804 72.3872 198.149 71.6612 200.132 70.2191C202.029 68.8156 202.986 68.1091 203.003 68.1091C203.305 68.051 203.452 68.1381 203.452 68.3413ZM222.179 68.3994C222.213 68.6027 221.799 69.0866 220.937 69.8513C220.092 70.5772 219.247 71.2063 218.402 71.7387C216.781 72.755 215.66 73.2679 215.04 73.2873C213.919 73.3067 213.134 72.813 212.694 71.7967C212.47 71.2644 212.367 70.8288 212.367 70.4998C210.384 72.2323 208.53 73.1421 206.823 73.2292C205.797 73.2873 205.297 72.8614 205.331 71.9322C205.349 71.4773 205.607 70.732 206.107 69.7061C206.581 68.6704 207.021 67.9639 207.401 67.567C207.219 67.6929 206.944 67.8477 206.573 68.0316L205.607 68.593C204.081 69.5028 203.322 69.9577 203.348 69.9577C203.021 69.919 202.874 69.7351 202.908 69.3964C202.986 68.7963 204.047 68.0123 206.107 67.0444C206.349 66.9379 206.849 66.6572 207.625 66.1733C208.271 65.7571 208.72 65.5344 208.978 65.4957C209.159 65.457 209.349 65.5151 209.53 65.6796C209.711 65.8248 209.806 65.9894 209.806 66.1733C209.806 66.4056 209.306 67.1218 208.314 68.3413C207.323 69.5803 206.771 70.5965 206.659 71.3805C206.625 71.7096 206.607 71.8354 206.607 71.7483C206.607 71.8742 206.694 71.9419 206.857 71.9613C208.108 72.0194 209.746 71.2063 211.772 69.5125C212.565 68.835 213.203 68.1962 213.703 67.5961C214.695 66.3572 215.229 65.7377 215.307 65.7377C215.859 65.7571 216.16 66.0861 216.221 66.725C216.221 66.8895 216.04 67.1799 215.669 67.5961C215.195 68.1574 214.884 68.5446 214.755 68.7769C214.074 69.8513 213.738 70.5094 213.738 70.7611C213.72 71.1095 213.815 71.4096 214.014 71.6612C214.255 71.971 214.565 72.1258 214.953 72.1258C215.428 72.1258 216.298 71.7387 217.549 70.945C218.195 70.5288 219.049 69.9093 220.118 69.0866C221.17 68.3026 221.679 67.9058 221.661 67.9058C221.885 67.7412 222.075 67.9058 222.179 68.3994ZM250.019 68.2736C249.984 68.9124 248.476 70.2384 245.492 72.242C243.69 73.4422 242.104 74.1003 240.75 74.2262C240.345 74.2649 239.974 74.0907 239.647 73.7035C239.319 73.3067 239.147 72.8227 239.147 72.2516C239.147 71.8838 239.517 70.8869 240.25 69.2802C240.362 69.0092 240.638 68.5349 241.078 67.8574C241.423 67.3444 241.595 66.9863 241.578 66.8024C241.561 66.512 241.38 66.3475 241.026 66.3088C240.509 66.27 239.078 67.0928 236.724 68.7866C236.37 69.1544 235.879 69.8222 235.232 70.7708C234.663 71.5935 234.224 72.0097 233.905 72.0097C233.517 72.0097 233.275 71.758 233.189 71.2644C233.172 71.187 233.723 70.4804 234.844 69.1544C235.655 68.2252 236.06 67.4122 236.06 66.7056C236.06 66.2313 235.819 65.9894 235.344 65.9894C234.758 65.9894 234.06 66.1539 233.249 66.483C231.689 67.1412 230.456 67.8864 229.55 68.7091C229.128 69.106 228.688 69.5803 228.223 70.132C227.654 70.8385 227.266 71.2838 227.067 71.4967C226.162 72.3872 225.61 72.8227 225.412 72.7937C225.084 72.7356 224.895 72.4646 224.86 71.9903C224.843 71.7677 225.283 71.1192 226.188 70.0739C227.274 68.8156 227.809 68.0316 227.792 67.7219C227.757 67.267 227.55 67.0444 227.188 67.0444C226.714 67.0444 225.826 67.3928 224.541 68.0994C224.213 68.2639 223.696 68.6511 222.998 69.2415C222.429 69.7158 222.075 69.9287 221.946 69.89C221.523 69.7642 221.316 69.5803 221.342 69.3286C221.394 68.8156 222.334 68.0123 224.153 66.9089C225.145 66.3088 226.326 65.941 227.688 65.7958C228.016 65.7571 228.343 65.941 228.654 66.3572C228.912 66.725 229.068 67.1024 229.119 67.4702C229.576 67.0734 230.559 66.5411 232.068 65.8635C233.672 65.1183 234.767 64.7505 235.353 64.7505C236.327 64.7505 236.914 65.2441 237.121 66.241C237.189 66.5507 237.233 66.8411 237.233 67.1121C237.474 67.0347 238.181 66.6282 239.354 65.9022C240.345 65.3215 241.018 65.0408 241.371 65.0699C242.294 65.1279 242.768 65.5828 242.802 66.4346C242.802 66.3572 242.345 67.3444 241.423 69.406C240.647 71.1773 240.268 72.1065 240.268 72.1936C240.268 72.7743 240.466 73.0647 240.871 73.0647C241.716 73.0647 243.113 72.4646 245.061 71.2644C245.665 70.8966 246.639 70.1513 247.984 69.0382C248.993 68.2155 249.605 67.8187 249.803 67.8574C249.95 67.8864 250.019 68.0316 250.019 68.2736ZM276.816 68.3413C276.799 68.7769 275.859 69.6867 274.005 71.0708C271.833 72.6582 270.194 73.4615 269.091 73.4906C268.763 73.4906 268.487 73.3163 268.263 72.9679C268.056 72.6582 267.97 72.3 267.987 71.8838C268.022 71.3225 268.574 70.3739 269.643 69.0382C270.522 67.8864 270.988 67.2379 271.022 67.1218C270.712 67.3251 270.263 67.5574 269.694 67.7993C268.936 68.1478 268.427 68.3994 268.151 68.5446C266.754 69.4157 265.211 70.1804 263.512 70.8385C258.598 77.0137 255.77 80.5465 255.011 81.4273C249.217 88.2413 246.346 91.6483 246.406 91.6483C246.148 91.6483 246.001 91.5418 245.967 91.3386C245.967 91.2805 248.777 87.6799 254.408 80.5562L256.753 77.6719C257.598 76.6169 258.469 75.5135 259.374 74.3617C261.659 71.4483 263.314 69.2996 264.34 67.9155L263.288 68.5349C262.09 69.2996 261.581 69.6867 261.745 69.7158C261.564 69.6964 261.374 69.5125 261.193 69.1544C261.064 68.864 261.969 68.1187 263.9 66.9282C264.323 66.6766 264.788 66.3572 265.306 65.97C265.84 65.5828 266.237 65.3022 266.496 65.1376C267.142 64.5375 267.608 64.2762 267.901 64.3633C268.177 64.4214 268.315 64.5762 268.315 64.8279C268.315 64.7892 267.841 65.3893 266.884 66.6282C266.004 67.7412 265.452 68.4672 265.228 68.7963C265.927 68.6124 267.082 68.051 268.703 67.1218C270.617 65.97 271.962 65.3893 272.729 65.3893C272.953 65.3893 273.04 65.5925 273.005 66.0087C272.928 66.5895 272.246 67.5961 270.962 69.0479C269.694 70.5385 269.065 71.487 269.082 71.8935C269.117 72.2226 269.246 72.3872 269.47 72.3872C270.169 72.3872 271.514 71.6612 273.497 70.2191C275.393 68.8156 276.351 68.1091 276.368 68.1091C276.661 68.051 276.816 68.1381 276.816 68.3413ZM259.046 68.0026C259.046 69.1544 258.322 70.3933 256.865 71.7193C255.537 72.9389 254.089 73.5293 252.502 73.4809C251.58 73.4615 250.873 73.1518 250.381 72.5517C249.959 72.0387 249.769 71.4193 249.803 70.6933C249.838 69.5415 250.278 68.6801 251.131 68.1187C251.278 68.0123 251.571 67.9639 252.011 67.9639C252.123 67.8768 252.278 67.7122 252.476 67.4702C252.7 67.2186 252.864 67.054 252.976 66.9766C254.425 66.0087 255.615 65.5248 256.537 65.5248C257.287 65.5248 257.899 65.7667 258.356 66.241C258.813 66.6862 259.046 67.2767 259.046 68.0026ZM257.994 67.809C257.994 67.1315 257.546 66.7637 256.641 66.725C255.666 66.6862 254.735 67.0734 253.856 67.9058C253.726 68.0123 253.554 68.2446 253.33 68.622C253.149 68.9318 252.95 69.1157 252.752 69.1834C252.64 69.2028 252.519 69.2028 252.39 69.1834H252.028C251.718 69.2221 251.433 69.4738 251.174 69.9287C250.993 70.2965 250.898 70.5869 250.898 70.7998C250.898 71.216 251.079 71.5838 251.45 71.9129C251.838 72.2226 252.278 72.3775 252.778 72.3775C253.718 72.3775 254.778 71.9322 255.977 71.0418C257.322 70.0255 257.994 68.9511 257.994 67.809ZM295.543 68.3994C295.578 68.6027 295.164 69.0866 294.302 69.8513C293.457 70.5772 292.612 71.2063 291.767 71.7387C290.146 72.755 289.025 73.2679 288.404 73.2873C287.283 73.3067 286.499 72.813 286.059 71.7967C285.835 71.2644 285.731 70.8288 285.731 70.4998C283.748 72.2323 281.894 73.1421 280.187 73.2292C279.153 73.2873 278.661 72.8614 278.696 71.9322C278.713 71.4773 278.972 70.732 279.472 69.7061C279.946 68.6704 280.386 67.9639 280.765 67.567C280.584 67.6929 280.308 67.8477 279.937 68.0316L278.963 68.5833C277.437 69.4931 276.687 69.9481 276.704 69.9481C276.376 69.9093 276.23 69.7254 276.264 69.3867C276.342 68.7866 277.402 68.0026 279.463 67.0347C279.704 66.9282 280.205 66.6475 280.981 66.1636C281.627 65.7474 282.076 65.5248 282.334 65.486C282.515 65.4473 282.705 65.5054 282.886 65.67C283.067 65.8151 283.162 65.9797 283.162 66.1636C283.162 66.3959 282.662 67.1121 281.67 68.3317C280.679 69.5706 280.127 70.5869 280.015 71.3709C279.98 71.6999 279.963 71.8258 279.963 71.7387C279.963 71.8645 280.049 71.9322 280.213 71.9516C281.463 72.0097 283.102 71.1966 285.128 69.5028C285.921 68.8253 286.559 68.1865 287.059 67.5864C288.051 66.3475 288.585 65.728 288.663 65.728C289.215 65.7474 289.516 66.0765 289.577 66.7153C289.577 66.8798 289.396 67.1702 289.025 67.5864C288.551 68.1478 288.24 68.5349 288.111 68.7672C287.43 69.8416 287.094 70.4998 287.094 70.7514C287.076 71.0998 287.163 71.3999 287.369 71.6516C287.611 71.9613 287.921 72.1161 288.309 72.1161C288.783 72.1161 289.654 71.729 290.904 70.9353C291.551 70.5191 292.405 69.8997 293.474 69.077C294.526 68.293 295.034 67.8961 295.017 67.8961C295.25 67.7413 295.44 67.9058 295.543 68.3994ZM314.201 68.3994C314.236 68.6027 313.822 69.0866 312.959 69.8513C312.115 70.5772 311.27 71.2063 310.425 71.7387C308.804 72.755 307.683 73.2679 307.062 73.2873C305.941 73.3067 305.157 72.813 304.717 71.7967C304.493 71.2644 304.389 70.8288 304.389 70.4998C302.406 72.2323 300.552 73.1421 298.845 73.2292C297.811 73.2873 297.319 72.8614 297.354 71.9322C297.371 71.4773 297.63 70.732 298.13 69.7061C298.604 68.6704 299.044 67.9639 299.423 67.567C299.242 67.6929 298.966 67.8477 298.595 68.0316L297.63 68.593C296.104 69.5028 295.353 69.9577 295.371 69.9577C295.043 69.919 294.896 69.7351 294.931 69.3964C295.008 68.7963 296.069 68.0123 298.13 67.0444C298.371 66.9379 298.871 66.6572 299.647 66.1733C300.294 65.7571 300.742 65.5344 301.001 65.4957C301.182 65.457 301.372 65.5151 301.553 65.6796C301.734 65.8248 301.828 65.9894 301.828 66.1733C301.828 66.4056 301.328 67.1218 300.337 68.3413C299.345 69.5803 298.794 70.5965 298.681 71.3805C298.647 71.7096 298.63 71.8354 298.63 71.7483C298.63 71.8742 298.716 71.9419 298.88 71.9613C300.13 72.0194 301.768 71.2063 303.794 69.5125C304.588 68.835 305.226 68.1962 305.726 67.5961C306.717 66.3572 307.252 65.7377 307.329 65.7377C307.881 65.7571 308.183 66.0861 308.243 66.725C308.243 66.8895 308.062 67.1799 307.691 67.5961C307.217 68.1574 306.907 68.5446 306.778 68.7769C306.096 69.8513 305.76 70.5094 305.76 70.7611C305.743 71.1095 305.829 71.4096 306.036 71.6612C306.277 71.971 306.588 72.1258 306.976 72.1258C307.45 72.1258 308.321 71.7387 309.571 70.945C310.218 70.5288 311.071 69.9093 312.14 69.0866C313.192 68.3026 313.701 67.9058 313.684 67.9058C313.899 67.7412 314.089 67.9058 314.201 68.3994Z" fill="url(#paint2_linear_3_19854)"/>
<defs>
<linearGradient id="paint0_linear_3_19854" x1="0.010175" y1="11.6924" x2="546.984" y2="11.6924" gradientUnits="userSpaceOnUse">
<stop stop-color="#609FAE"/>
<stop offset="1" stop-color="#006493"/>
</linearGradient>
<linearGradient id="paint1_linear_3_19854" x1="10.6282" y1="46.5796" x2="557.602" y2="46.5796" gradientUnits="userSpaceOnUse">
<stop stop-color="#609FAE"/>
<stop offset="1" stop-color="#006493"/>
</linearGradient>
<linearGradient id="paint2_linear_3_19854" x1="27.2112" y1="77.6625" x2="574.185" y2="77.6625" gradientUnits="userSpaceOnUse">
<stop stop-color="#609FAE"/>
<stop offset="1" stop-color="#006493"/>
</linearGradient>
</defs>
</svg>
