<svg width="477" height="170" viewBox="0 0 477 170" fill="none" xmlns="http://www.w3.org/2000/svg">
<path d="M76.2078 29.2134C75.9975 30.459 72.5833 32.5296 65.9816 35.4252C60.3669 37.8355 56.5321 39.0972 54.461 39.1781C53.8623 39.2267 53.296 39.0325 52.7782 38.5958C52.2604 38.159 52.0824 37.6737 52.2604 37.1075C52.4384 36.4605 53.0856 35.2796 54.2021 33.5487C55.7554 31.1384 56.7424 29.5531 57.1793 28.8252C57.7456 27.7899 58.7488 26.1075 60.2213 23.7781L63.0044 19.2487L56.6615 23.3899C52.0015 26.4472 48.8948 28.6472 47.3415 29.9899C39.7527 36.7193 38.166 40.2134 36.7269 40.2134C35.3839 39.9061 34.7367 39.4855 34.7853 38.9193C34.8338 38.3208 37.5845 34.3414 43.0698 27.0134C47.5195 21.012 50.5938 16.2722 52.3251 12.7781C53.571 10.3193 54.2506 8.84725 54.3315 8.37813L32.1964 24.9428C18.4266 35.2149 9.72139 40.262 6.04837 40.084C2.68279 39.8737 1 38.3208 1 35.4252C1 34.6002 1.40452 33.4355 2.22973 31.9311C3.05495 30.3296 3.7669 29.4722 4.36558 29.3428C5.22316 29.1649 5.70858 29.6017 5.78948 30.637C5.83802 31.1061 5.59531 31.737 5.07753 32.5134C4.51121 33.3384 4.23614 33.8237 4.23614 34.0017C4.23614 36.1531 4.96427 37.237 6.43671 37.237C10.4495 37.237 18.0059 32.9664 29.0897 24.4252L48.377 9.67225C55.7069 3.80019 60.0271 0.920775 61.3216 1.00166C62.4866 1.08254 62.9558 1.5193 62.7455 2.29578C62.616 2.73254 61.985 3.63842 60.8685 5.01342C59.5255 6.69578 58.5223 8.16783 57.8265 9.41342C57.4382 10.0605 56.7424 11.3546 55.7554 13.2958C54.7199 15.3178 53.8946 16.8384 53.296 17.8252C52.6487 18.909 51.6617 20.462 50.3187 22.484L47.9887 25.9781C48.9757 25.4605 51.6617 23.8267 56.0143 21.0605C58.3929 19.5561 61.0141 17.7767 63.9105 15.7546C64.4283 15.237 65.124 14.4605 65.9816 13.4252L68.1822 10.9664C70.5931 8.29725 72.1465 6.9546 72.8422 6.9546C73.4894 6.9546 74.0234 7.19725 74.4603 7.66636C74.9295 8.13548 75.1237 8.68548 75.0428 9.28401C74.4603 10.5 74.0072 10.2384 71.9361 12.9075L68.9589 16.1428C67.4864 17.7443 66.4185 19.1678 65.7227 20.4134C65.0269 21.7561 63.2633 24.6355 60.4155 29.084C58.0369 32.7884 56.8395 34.859 56.791 35.2958C56.791 35.7325 56.969 35.9914 57.3088 36.0722C58.0045 36.2017 60.8038 35.2149 65.7227 33.0958C67.0981 32.4972 69.0398 31.4296 71.5478 29.9252C73.6674 28.6796 74.8324 28.0487 75.0428 28.0487C75.9489 28.0487 76.3372 28.437 76.2078 29.2134ZM120.349 29.3428C120.349 30.637 117.032 33.0958 110.381 36.7193C105.932 39.1296 102.307 40.3428 99.508 40.3428C98.0841 40.3428 96.9676 39.8252 96.1424 38.7899C95.4466 37.884 95.1554 36.8972 95.2363 35.8134C95.3657 34.4384 95.6246 33.3546 96.013 32.5781C95.2363 32.7561 94.4111 32.837 93.5535 32.837L89.6701 33.6134C88.4242 35.2149 87.2107 36.412 86.0457 37.237C83.8936 38.7414 81.774 39.5178 79.7028 39.5664C78.5864 39.6149 77.6802 39.2428 76.9845 38.4664C76.3858 37.8193 76.0784 37.059 76.0784 36.2017C76.0784 35.4737 77.842 33.1443 81.3856 29.2134C81.1753 29.3428 80.8031 29.5208 80.2853 29.7311C79.7675 29.909 79.363 30.0708 79.0556 30.2487C77.2434 31.3325 76.2563 31.8502 76.0784 31.8017C75.2208 31.5914 74.8648 31.0737 75.0428 30.2487C75.1237 29.9414 76.0784 29.2781 77.8906 28.2428C80.0912 26.9487 81.4342 26.1075 81.9034 25.7193C86.6929 22.1767 87 20.9311 88.2462 20.5428C88.6831 20.4943 89.0714 20.6237 89.4112 20.9311C89.751 21.2384 89.929 21.5781 89.929 21.9664C89.929 23.212 89.2818 24.6355 87.9873 26.237L86.5634 28.3075C87.2592 28.3884 88.0359 28.6958 88.8935 29.2134C89.5892 29.6017 90.1879 30.1193 90.7057 30.7664L93.8124 30.3781C95.5437 30.2972 96.6602 30.1678 97.178 29.9899C97.5178 29.7796 98.1003 29.2781 98.9255 28.5017L100.932 26.6252C102.145 25.5899 103.052 25.0722 103.65 25.0722C104.119 25.0237 104.54 25.2017 104.88 25.5899C105.187 25.8972 105.333 26.1884 105.333 26.4958C104.88 27.5 103.99 27.612 101.32 30.7664C99.33 33.1767 98.343 34.7781 98.343 35.5546C98.343 37.059 98.9902 37.8031 100.285 37.7546C102.048 37.6737 104.767 36.7678 108.44 35.037C110.074 34.309 112.372 32.9017 115.3 30.8311C117.76 29.1487 119.135 28.3075 119.443 28.3075C120.041 28.3561 120.349 28.6958 120.349 29.3428ZM86.434 32.4487C86.434 32.012 86.1266 31.6722 85.5279 31.4134C84.3629 30.8958 83.8936 30.7178 84.104 30.8958C83.8451 31.1546 83.2788 31.6237 82.4212 32.3193C80.3986 34.0017 79.3954 35.2149 79.4439 35.9428C79.4925 36.412 79.9132 36.7193 80.7384 36.8487C81.7254 36.9296 82.8904 36.4605 84.2334 35.4252C85.7059 34.309 86.434 33.3061 86.434 32.4487Z" fill="#46A6C9" stroke="#46A6C9"/>
<path d="M104.751 77.443C104.67 78.5592 101.433 80.5974 95.0421 83.5254C89.6539 85.9357 85.6411 87.1004 83.0037 87.0195C81.6607 86.9709 80.528 86.5665 79.5734 85.7901C78.5378 84.9327 77.9553 83.7842 77.8259 82.3607C77.6155 79.8209 78.9909 76.7151 81.9681 73.043C85.7706 68.4327 89.2656 66.1033 92.4532 66.0548C93.6182 66.0062 94.5243 66.5886 95.1715 67.8018C95.7702 68.8371 96.0615 70.0665 96.0129 71.4901C95.9644 72.6548 95.6246 73.8357 94.9774 75.0489C94.2816 76.343 93.6182 76.9739 92.971 76.9254C92.2752 76.8445 91.9839 76.3592 92.0649 75.5018C92.1213 74.9031 92.3723 74.8709 92.971 73.3665C93.4888 72.2018 93.6182 71.2312 93.3593 70.4548C92.971 69.1121 92.5826 68.4651 92.1943 68.5136C89.298 68.8209 86.5472 70.843 83.9098 74.596C81.8387 77.621 80.7546 79.9827 80.6737 81.7136C80.5928 83.9621 81.4503 84.9489 83.2626 84.6901C85.8029 84.3504 89.1685 83.3151 93.3593 81.5842C94.9936 80.9371 97.1779 79.8209 99.8963 78.2195C102.307 76.7959 103.634 76.068 103.844 76.0195C104.54 75.8901 104.831 76.3592 104.751 77.443ZM126.044 75.3077C126.044 77.718 124.345 80.3062 120.931 83.0724C117.824 85.6121 114.41 86.8415 110.705 86.7607C108.553 86.7121 106.886 86.0651 105.721 84.8195C104.734 83.7357 104.281 82.4415 104.362 80.9371C104.443 78.5268 105.479 76.7312 107.469 75.5665C107.809 75.3562 108.504 75.243 109.54 75.243C109.799 75.0651 110.171 74.7254 110.64 74.2077C111.158 73.6901 111.546 73.3504 111.805 73.1724C115.219 71.1504 118.002 70.1312 120.155 70.1312C121.918 70.1312 123.342 70.6327 124.426 71.6195C125.51 72.5739 126.044 73.8033 126.044 75.3077ZM123.585 74.9195C123.585 73.4959 122.533 72.7357 120.413 72.6548C118.132 72.5739 115.948 73.3827 113.876 75.1136C113.569 75.3239 113.164 75.8254 112.647 76.6018C112.21 77.2489 111.757 77.6371 111.288 77.7665C111.029 77.8151 110.754 77.8151 110.446 77.7665H109.605C108.877 77.8474 108.197 78.3651 107.598 79.3195C107.161 80.096 106.951 80.6945 106.951 81.1312C106.951 81.9886 107.388 82.7651 108.246 83.4607C109.152 84.1077 110.187 84.4312 111.352 84.4312C113.553 84.4312 116.061 83.5092 118.86 81.6489C122.015 79.5298 123.585 77.2974 123.585 74.9195ZM154.458 76.6665C154.377 77.3945 151.869 79.4651 146.95 82.8783C144.701 84.4312 143.147 85.5474 142.29 86.243C142.209 86.4533 141.448 89.0254 140.024 93.943C138.94 97.6959 138.018 100.559 137.241 102.549C135.688 106.512 133.439 109.844 130.51 112.514C126.319 116.267 122.307 118.03 118.472 117.819C116.579 117.739 114.961 117.092 113.618 115.878C112.275 114.584 111.627 113.031 111.676 111.219C111.724 107.644 116.53 102.08 126.109 94.5254C127.318 93.5721 130.041 91.9371 139.571 85.4665C140.429 84.1724 140.866 82.7974 140.866 81.3254C140.866 79.0768 139.571 77.9607 136.982 77.9607C136.724 77.9607 136.351 78.1062 135.882 78.4136C135.494 78.7209 135.17 78.818 134.911 78.7371C134.135 78.4298 133.795 78.0092 133.876 77.443C133.976 76.7419 135.51 75.6798 138.924 71.6195C141.044 69.0798 142.112 67.6562 142.16 67.3489C142.209 66.7504 141.853 66.443 141.125 66.443C140.138 66.443 138.584 66.8312 136.465 67.6077C135.898 67.818 135.122 68.2709 134.135 68.9665C133.406 69.5327 132.921 69.7592 132.711 69.6783C132.015 69.468 131.675 69.0798 131.675 68.5136C131.675 67.6562 133.148 66.621 136.076 65.4077C137.889 64.6798 140.299 64.243 143.325 64.1136C144.409 64.0651 145.008 64.6798 145.137 65.9254C145.218 66.7827 144.183 68.5945 142.031 71.3607L138.795 75.5018C141.594 76.1004 143.115 77.4915 143.325 79.643C143.374 80.2415 143.325 81.1474 143.196 82.3607C143.503 82.3607 145.186 81.2768 148.244 79.1254C151.48 76.7959 153.293 75.6312 153.681 75.6312C154.199 75.6312 154.458 75.9709 154.458 76.6665ZM139.183 88.443C139.005 88.5724 137.452 89.543 134.523 91.3548C131.885 93.0371 129.782 94.5254 128.18 95.8195C123.18 99.9607 119.977 102.727 118.601 104.102C115.494 107.289 114.022 109.925 114.2 111.996C114.281 113.08 114.847 113.953 115.883 114.649C116.74 115.215 117.744 115.539 118.86 115.619C121.449 115.797 124.637 114.325 128.439 111.219C131.206 108.971 133.568 105.347 135.559 100.349C136.546 97.8092 137.759 93.8298 139.183 88.443ZM188.113 55.6371C188.113 62.0592 185.266 68.9504 179.57 76.2783C173.826 83.7842 168.955 87.5371 164.943 87.5371C163.26 87.5371 162.111 87.2783 161.512 86.7607C160.865 86.243 160.493 85.2562 160.412 83.7842C160.283 81.8915 162.483 78.818 167.014 74.596C169.781 72.0077 172.143 70.7621 174.133 70.843C174.182 70.843 175.557 71.6195 178.276 73.1724C183.016 68.1254 185.395 62.4798 185.395 56.2195C185.395 52.2562 183.647 49.6357 180.152 48.3901C178.47 47.8239 175.735 47.5489 171.933 47.5489C163.001 47.5489 153.729 49.0533 144.102 52.0783C139.749 53.4533 134.539 55.5562 128.504 58.3548L120.543 62.043C120.025 62.043 119.766 61.7842 119.766 61.2665C119.815 60.4415 122.63 58.7268 128.245 56.0901C133.633 53.5827 138.487 51.6415 142.807 50.2665C153.212 46.9018 162.694 45.2195 171.285 45.2195C176.641 45.2195 180.589 45.818 183.13 47.0312C186.447 48.6327 188.113 51.496 188.113 55.6371ZM175.557 76.1489C175.217 75.1136 174.603 74.418 173.745 74.0783C173.146 73.868 172.175 74.1268 170.832 74.8548C169.538 75.5504 168.438 76.4077 167.532 77.443C164.765 80.5489 163.308 82.7004 163.13 83.9136C163.049 84.3504 163.648 84.7386 164.943 85.0783C166.108 85.418 168.389 84.0915 171.803 81.0665C173.793 79.2548 175.039 77.6209 175.557 76.1489ZM227.918 76.9254C227.918 77.2327 224.795 79.4651 218.533 83.6548C214.051 86.6798 210.313 88.1842 207.336 88.1842C205.184 88.1842 203.841 87.2298 203.323 85.3371C203.064 84.3504 203.048 83.1857 203.258 81.843C201.446 83.0562 199.763 84.043 198.21 84.8195C195.54 86.1945 193.275 86.8901 191.414 86.8901C188.825 86.8901 187.531 85.5474 187.531 82.8783C187.531 80.6298 189.489 77.4268 193.421 73.2371C197.644 68.5783 200.686 66.2651 202.547 66.3136C204.699 66.3945 206.511 67.4298 207.983 69.4195C208.372 69.9371 208.825 71.0371 209.342 72.7195C211.203 71.6033 211 71 211.478 70.9724C212.821 71.0533 213.42 71.5709 213.29 72.5254C213.161 73.3018 212.19 74.6607 210.378 76.6018C209.003 78.2033 207.919 79.3195 207.142 79.9665C206.187 82.2151 205.734 83.5254 205.783 83.9136C205.912 85.0298 206.559 85.596 207.724 85.596C209.537 85.596 212.659 84.3018 217.109 81.7136C224.31 77.5239 227 75.5 227.012 75.5018C227.61 75.4533 227.918 75.9386 227.918 76.9254ZM206.818 73.043C206.818 72.3474 206.381 71.4901 205.524 70.4548C204.618 69.371 203.76 68.8533 202.935 68.9018C201.382 68.9827 198.744 71.0533 195.039 75.1136C191.592 78.9474 189.942 81.5357 190.12 82.8783C190.249 83.7842 190.896 84.3018 192.061 84.4312C192.919 84.5121 194.715 83.8327 197.433 82.3607C201.835 80.0798 204.925 77.7665 206.689 75.4371L206.818 73.043ZM248.564 76.1489C248.516 76.618 245.636 78.8665 239.892 82.8783C236.396 85.2886 233.371 86.6798 230.83 87.0195C229.924 87.1489 229.002 86.8092 228.047 85.9842C227.06 85.2077 226.559 84.3504 226.559 83.396C226.559 80.3709 228.063 76.796 231.089 72.6548C233.29 69.6298 235.28 68.1254 237.044 68.1254C237.95 68.1254 238.775 68.6268 239.503 69.6136C240.15 70.568 240.458 71.5386 240.409 72.5254C240.328 74.9033 238.597 77.0062 235.231 78.8665C233.808 79.643 231.947 80.3386 229.665 80.9371C229.326 81.5842 229.148 82.3121 229.148 83.1371C229.148 83.8651 229.843 84.3018 231.219 84.4312C232.076 84.4798 234.277 83.4768 237.82 81.4548C244.94 77.3136 247 75.5 247.658 75.243C248.305 75.243 248.613 75.5504 248.564 76.1489ZM237.82 72.396C237.82 71.4415 237.432 70.9724 236.655 70.9724C235.668 70.9724 234.536 72.0077 233.29 74.0783L230.83 78.2195C232.853 77.8798 234.455 77.1357 235.62 76.0195C237.092 74.6445 237.82 73.4312 237.82 72.396ZM309.468 76.0195C309.517 76.8445 306.621 78.8665 300.796 82.1018C297.252 84.043 294.404 84.9974 292.252 84.9489C288.45 84.8195 286.557 83.4445 286.557 80.8077C286.557 79.643 287.026 78.171 287.98 76.4077C288.288 75.8092 288.806 75.0004 289.534 74.0136C290.262 73.0268 290.699 72.396 290.828 72.1371C288.887 72.7033 285.731 74.3371 281.379 77.0548C277.317 79.5136 274.648 81.1959 273.353 82.1018C270.376 84.1724 269.5 85.2077 268.952 85.2077C268.353 85.1268 268.046 84.868 268.046 84.4312C268.094 84.0915 268.353 83.396 268.823 82.3607C269.389 81.1474 269.729 80.3709 269.858 80.0312C270.295 78.7371 270.505 77.6209 270.505 76.6665C269.988 76.9739 268.936 77.6533 267.334 78.7371C265.522 79.9504 264.114 80.8562 263.127 81.4548C257.253 84.9974 253.338 86.7607 251.347 86.7607C249.972 86.7607 248.839 86.3724 247.982 85.596C247.027 84.7386 246.558 83.5739 246.558 82.1018C246.558 81.3254 247.205 80.0798 248.5 78.3489C249.875 76.4886 251.008 75.5827 251.865 75.6312C252.561 75.6312 252.949 76.0195 253.03 76.7959C253.079 77.2327 252.82 77.6533 252.254 78.0901C251.525 78.6077 251.089 78.9959 250.959 79.2548C250.102 80.7268 249.616 81.8915 249.535 82.7489C249.487 83.1371 249.665 83.5254 250.053 83.9136C250.441 84.2533 250.83 84.4312 251.218 84.4312C252.302 84.4312 255.927 82.7004 262.091 79.2548C264.761 77.7504 267.447 75.9386 270.117 73.8195C273.661 71.1018 274.359 69.6783 275.036 69.6783C276.023 69.7592 276.508 70.1474 276.46 70.843C276.5 71 276.023 72.0562 275.165 74.9842L274.518 77.8312C277.059 76.6665 279.874 75.1621 282.932 73.3018C288.417 70.1474 292.204 68.643 294.323 68.7724C295.229 68.8533 295.666 69.2092 295.618 69.8077C295.5 70 294.971 70.7136 293.676 72.6548C293.417 73.0915 292.916 73.7709 292.187 74.7254C291.621 75.5018 291.168 76.2298 290.828 76.9254C289.971 78.6077 289.485 79.8533 289.404 80.6783C289.324 81.7136 290.262 82.3121 292.252 82.4901C293.806 82.6195 296.087 81.9239 299.113 80.4195C300.488 79.7239 302.478 78.5592 305.067 76.9254C307.187 75.6312 308.352 74.9842 308.562 74.9842C309.129 74.9842 309.42 75.3239 309.468 76.0195Z" fill="#46A6C9" stroke="#46A6C9"/>
<path d="M220.475 120.45C220.523 121.146 219.326 122.408 216.915 124.268C214.456 126.128 212.239 127.487 210.249 128.344C207.401 129.558 204.893 130.156 202.741 130.156C200.33 130.156 198.518 129.202 197.304 127.309C197.094 127.002 196.802 126.516 196.463 125.821C196.074 124.964 195.799 124.381 195.621 124.074C195.314 124.333 194.699 124.802 193.744 125.497C192.887 126.096 192.175 126.662 191.608 127.18C191.398 127.358 190.686 128.215 189.473 129.768C188.437 131.062 187.725 131.709 187.337 131.709C186.382 131.709 185.832 131.402 185.654 130.803C185.605 130.674 187.418 128.474 191.091 124.203C194.456 120.369 196.139 117.911 196.139 116.827C196.139 116.099 195.751 115.662 194.974 115.533C194.278 115.452 191.916 116.519 187.854 118.768C186.948 119.237 185.136 120.434 182.418 122.327C180.298 123.831 179.101 124.543 178.793 124.462C177.677 124.252 177.191 123.864 177.369 123.297C177.45 122.99 178.712 122.003 181.123 120.321C183.502 118.687 185.217 117.603 186.301 117.086C191.172 114.627 194.197 113.333 195.362 113.203C196.188 113.122 196.964 113.316 197.692 113.786C198.469 114.255 198.857 114.837 198.857 115.533C198.857 116.261 198.647 117.166 198.21 118.25C197.773 119.366 197.563 120.191 197.563 120.709C197.353 120.709 199.375 119.496 203.647 117.086C208.307 114.368 210.75 113.025 210.96 113.074C211.43 113.155 211.672 113.543 211.672 114.238C211.672 114.368 209.65 115.791 205.588 118.509L202.352 120.709C200.977 121.696 199.763 122.521 198.728 123.168C198.598 123.346 198.647 123.896 198.857 124.85C198.938 125.416 199.327 126.031 200.022 126.727C200.928 127.584 201.915 128.005 203 127.956C205.119 127.875 207.093 127.39 208.954 126.533C210.378 125.837 212.579 124.478 215.556 122.456C218.145 120.693 219.569 119.803 219.827 119.803C220.167 119.803 220.394 120.014 220.475 120.45ZM241.121 119.868C241.121 122.278 239.422 124.866 236.008 127.633C232.901 130.172 229.487 131.402 225.782 131.321C223.63 131.272 221.963 130.625 220.798 129.38C219.811 128.296 219.358 127.002 219.439 125.497C219.52 123.087 220.556 121.291 222.546 120.127C222.886 119.916 223.581 119.803 224.617 119.803C224.876 119.625 225.248 119.286 225.717 118.768C226.235 118.25 226.623 117.911 226.882 117.733C230.296 115.711 233.079 114.691 235.231 114.691C236.995 114.691 238.419 115.193 239.503 116.18C240.587 117.134 241.121 118.364 241.121 119.868ZM238.662 119.48C238.662 118.056 237.61 117.296 235.49 117.215C233.209 117.134 231.025 117.943 228.953 119.674C228.646 119.884 228.241 120.386 227.724 121.162C227.287 121.809 226.834 122.197 226.364 122.327C226.106 122.375 225.831 122.375 225.523 122.327H224.682C223.954 122.408 223.274 122.925 222.675 123.88C222.238 124.656 222.028 125.255 222.028 125.691C222.028 126.549 222.465 127.325 223.323 128.021C224.229 128.668 225.264 128.991 226.429 128.991C228.63 128.991 231.138 128.069 233.937 126.209C237.092 124.09 238.662 121.858 238.662 119.48ZM307.397 120.58C307.446 121.405 304.55 123.427 298.724 126.662C295.181 128.603 292.333 129.558 290.181 129.509C286.379 129.38 284.485 128.005 284.485 125.368C284.485 124.203 284.955 122.731 285.909 120.968C286.217 120.369 286.735 119.561 287.463 118.574C288.191 117.587 288.628 116.956 288.757 116.697C286.815 117.264 283.66 118.897 279.308 121.615C275.246 124.074 272.576 125.756 271.282 126.662C268.305 128.733 267.48 129.849 266.881 129.768C266.282 129.687 265.975 129.428 265.975 128.991C266.023 128.652 266.282 127.956 266.751 126.921C267.318 125.708 267.658 124.931 267.787 124.591C268.224 123.297 268.434 122.181 268.434 121.227C267.916 121.534 266.865 122.214 265.263 123.297C263.451 124.511 262.043 125.416 261.056 126.015C255.182 129.558 251.267 131.321 249.276 131.321C247.901 131.321 246.768 130.933 245.911 130.156C244.956 129.299 244.487 128.134 244.487 126.662C244.487 125.886 245.134 124.64 246.429 122.909C247.804 121.049 248.937 120.143 249.794 120.191C250.49 120.191 250.878 120.58 250.959 121.356C251.008 121.793 250.749 122.214 250.182 122.65C249.454 123.168 249.017 123.556 248.888 123.815C248.03 125.287 247.545 126.452 247.464 127.309C247.416 127.697 247.594 128.086 247.982 128.474C248.37 128.814 248.759 128.991 249.147 128.991C250.231 128.991 253.855 127.261 260.02 123.815C262.69 122.311 265.376 120.499 268.046 118.38C271.589 115.662 272.5 114.5 272.965 114.238C273.952 114.319 274.437 114.708 274.389 115.403C274.369 115.693 273.952 116.616 273.094 119.544L272.447 122.391C274.987 121.227 277.803 119.722 280.861 117.862C286.346 114.708 290.133 113.203 292.252 113.333C293.158 113.413 293.595 113.769 293.547 114.368C293.5 114.5 292.899 115.274 291.605 117.215C291.346 117.652 290.844 118.331 290.116 119.286C289.55 120.062 289.097 120.79 288.757 121.486C287.9 123.168 287.414 124.413 287.333 125.239C287.252 126.274 288.191 126.872 290.181 127.05C291.734 127.18 294.016 126.484 297.042 124.98C298.417 124.284 300.407 123.119 302.996 121.486C305.116 120.191 306.281 119.544 306.491 119.544C307.058 119.544 307.349 119.884 307.397 120.58ZM344.095 117.991C344.273 119.852 342.202 122.44 337.882 125.756C332.914 129.509 329.905 131.321 328.821 131.191C327.656 131.014 327.057 130.625 327.008 130.027C327.008 129.849 327.866 127.827 329.597 123.944C327.348 123.944 325.326 124.333 323.513 125.109L316.653 132.486C315.099 134.216 312.963 136.158 310.245 138.309C307.316 140.639 305.472 141.722 304.744 141.544C304.177 141.415 303.902 141.075 303.902 140.509L314.323 131.062C315.747 129.719 317.122 127.956 318.465 125.756C319.371 124.122 319.84 123.119 319.889 122.78C314.242 125.966 310.617 127.519 309.015 127.439C308.368 127.39 307.85 127.05 307.462 126.403C307.122 125.805 306.993 125.109 307.074 124.333C307.333 121.437 308.676 118.687 311.087 116.05C314.323 112.508 317.624 110.744 320.989 110.744C322.882 110.744 324.371 112.605 325.455 116.309C327.866 112.896 330.584 109.45 333.61 105.956C338.739 100.084 341.587 97.1076 342.153 97.0267C342.93 96.8973 343.318 97.237 343.318 98.062L335.811 107.38C330.973 113.333 327.834 117.296 326.361 119.286C325.924 120.887 325.795 121.89 325.973 122.327C326.539 121.987 327.316 121.421 328.303 120.644C329.16 119.997 330.034 119.415 330.892 118.897C335.082 116.261 338.351 114.934 340.73 114.886C342.801 114.837 343.917 115.872 344.095 117.991ZM322.995 117.086C322.656 114.627 321.75 113.414 320.277 113.462C317.607 113.543 314.97 115.225 312.381 118.509C310.779 120.58 309.905 122.391 309.727 123.944C309.646 124.381 309.841 124.64 310.31 124.721C310.617 124.769 312.899 123.686 317.17 121.486C317.996 121.049 318.999 120.321 320.212 119.286C321.766 118.04 322.688 117.296 322.995 117.086ZM341.506 118.38C341.555 117.781 341.166 117.425 340.341 117.344C338.658 117.215 336.895 117.813 335.034 119.156C333.788 120.111 332.963 120.79 332.574 121.227C333.141 121.874 333.432 122.391 333.481 122.78C333.529 123.168 333.27 123.928 332.704 125.044C332.057 126.209 331.717 127.002 331.668 127.439C335.762 124.414 337.882 122.828 338.011 122.65C340.293 120.369 341.458 118.946 341.506 118.38ZM410.501 120.58C410.452 121.486 408.251 123.378 403.899 126.274C398.802 129.59 394.967 131.272 392.378 131.321C391.602 131.321 390.954 130.949 390.437 130.221C389.967 129.574 389.741 128.814 389.789 127.956C389.87 126.791 391.165 124.802 393.673 122.003C395.744 119.593 396.828 118.25 396.909 117.991C396.181 118.428 395.145 118.897 393.802 119.415C392.038 120.143 390.825 120.661 390.178 120.968C386.893 122.78 383.269 124.381 379.304 125.756C367.784 138.649 361.133 146.025 359.37 147.886C345.778 162.121 339.775 169.238 339.176 169.238C338.577 169.238 338.222 169.028 338.141 168.591C338.141 168.462 344.742 160.956 357.946 146.074L363.447 140.056C365.437 137.856 367.476 135.543 369.596 133.133C374.952 127.05 378.835 122.569 381.246 119.674L378.786 120.968C375.987 122.569 376 123.5 375.162 123.427C374.725 123.378 374.304 122.99 373.868 122.262C373.56 121.664 375.68 120.111 380.21 117.603C381.197 117.086 382.298 116.422 383.511 115.597C384.757 114.772 385.696 114.19 386.294 113.85C387.799 112.605 388.899 112.055 389.595 112.233C390.242 112.362 390.566 112.686 390.566 113.203C390.5 113.5 389.45 114.368 387.2 116.956C385.129 119.286 383.835 120.79 383.317 121.486C384.951 121.097 387.67 119.933 391.472 117.991C395.954 115.581 399.109 114.368 400.922 114.368C401.439 114.368 401.65 114.805 401.569 115.662C401.391 116.875 399.805 118.978 396.779 122.003C393.802 125.109 392.33 127.099 392.378 127.956C392.459 128.652 392.767 128.991 393.284 128.991C394.919 128.991 398.074 127.487 402.734 124.462C407.184 121.534 409.417 120.062 409.465 120.062C410.161 119.981 410.501 120.143 410.501 120.58ZM368.819 119.868C368.819 122.278 367.12 124.866 363.706 127.633C360.599 130.172 357.185 131.402 353.48 131.321C351.328 131.272 349.661 130.625 348.496 129.38C347.509 128.296 347.056 127.002 347.137 125.497C347.218 123.087 348.254 121.291 350.244 120.127C350.584 119.916 351.279 119.803 352.315 119.803C352.574 119.625 352.946 119.286 353.415 118.768C353.933 118.25 354.321 117.911 354.58 117.733C357.994 115.711 360.777 114.691 362.929 114.691C364.693 114.691 366.117 115.193 367.201 116.18C368.285 117.134 368.819 118.364 368.819 119.868ZM366.36 119.48C366.36 118.056 365.308 117.296 363.188 117.215C360.907 117.134 358.722 117.943 356.651 119.674C356.344 119.884 355.939 120.386 355.422 121.162C354.985 121.809 354.532 122.197 354.062 122.327C353.803 122.375 353.528 122.375 353.221 122.327H352.38C351.651 122.408 350.972 122.925 350.373 123.88C349.936 124.656 349.726 125.255 349.726 125.691C349.726 126.549 350.163 127.325 351.02 128.021C351.927 128.668 352.962 128.991 354.127 128.991C356.328 128.991 358.836 128.069 361.635 126.209C364.79 124.09 366.36 121.858 366.36 119.48ZM476 120.45C475.919 121.793 472.376 124.543 465.385 128.733C461.162 131.24 457.441 132.615 454.253 132.874C453.299 132.955 452.441 132.599 451.664 131.774C450.888 130.949 450.499 129.946 450.499 128.733C450.499 127.956 451.357 125.886 453.088 122.521C453.347 121.955 453.994 120.968 455.03 119.544C455.855 118.461 456.243 117.733 456.195 117.344C456.146 116.746 455.726 116.39 454.9 116.309C453.687 116.228 450.321 117.943 444.804 121.486C443.978 122.262 442.813 123.637 441.309 125.627C439.966 127.358 438.93 128.215 438.202 128.215C437.296 128.215 436.729 127.697 436.519 126.662C436.471 126.484 437.765 125.028 440.402 122.262C442.296 120.321 443.25 118.622 443.25 117.15C443.25 116.163 442.684 115.662 441.568 115.662C440.192 115.662 438.542 116.002 436.649 116.697C432.976 118.072 430.095 119.625 427.976 121.356C426.989 122.181 425.953 123.168 424.869 124.333C423.526 125.805 422.62 126.743 422.151 127.18C420.031 129.04 418.737 129.946 418.267 129.897C417.491 129.768 417.054 129.202 416.973 128.215C416.924 127.746 417.96 126.403 420.08 124.203C422.62 121.566 423.882 119.933 423.833 119.286C423.753 118.331 423.267 117.862 422.41 117.862C421.293 117.862 419.222 118.59 416.196 120.062C415.42 120.402 414.206 121.211 412.572 122.456C411.229 123.443 410.42 123.896 410.112 123.815C409.125 123.556 408.64 123.168 408.688 122.65C408.818 121.566 411.018 119.884 415.29 117.603C417.62 116.358 420.387 115.581 423.575 115.274C424.351 115.193 425.112 115.581 425.84 116.438C426.439 117.215 426.811 117.991 426.94 118.768C428.024 117.943 430.322 116.827 433.866 115.403C437.619 113.85 440.192 113.074 441.568 113.074C443.849 113.074 445.241 114.109 445.71 116.18C445.888 116.827 445.969 117.425 445.969 117.991C446.535 117.813 448.185 116.972 450.952 115.468C453.282 114.255 454.852 113.672 455.677 113.721C457.829 113.85 458.962 114.805 459.043 116.568C459.055 116.835 457.959 118.461 455.806 122.78C453.994 126.484 453.088 128.425 453.088 128.603C453.088 129.816 453.557 130.415 454.512 130.415C456.502 130.415 459.771 129.169 464.35 126.662C465.774 125.886 468.055 124.333 471.211 122.003C473.589 120.272 475.013 119.464 475.482 119.544C475.822 119.625 476 119.933 476 120.45Z" fill="#46A6C9" stroke="#46A6C9"/>
</svg>
