<svg width="264" height="102" viewBox="0 0 264 102" fill="none" xmlns="http://www.w3.org/2000/svg">
<path d="M188.855 0.617005C171.37 26.153 151.332 44.5089 131.429 57.6999H136.449C155.487 44.5238 174.505 26.5959 191.218 2.18937C191.656 1.54749 191.482 0.671739 190.835 0.238841C190.591 0.0746383 190.313 0 190.039 0C189.581 0 189.134 0.213962 188.86 0.617005" fill="url(#paint0_linear_36_560)"/>
<path d="M1.60395 91.4758C0.842644 91.3812 0.111195 91.9186 0.011678 92.6899C-0.0878389 93.4562 0.459504 94.1578 1.24071 94.2623C1.36511 94.2772 6.86839 94.9489 16.1135 94.9489C21.4028 94.9489 27.9261 94.725 35.3601 94.0383V91.217C15.1532 93.1128 1.79801 91.5007 1.60395 91.4758Z" fill="url(#paint1_linear_36_560)"/>
<path d="M46.1727 80.5142H50.8002C53.8852 80.5142 55.4277 82.5393 55.4277 86.5996V95.7253C55.4277 97.7505 54.3977 98.7656 52.3427 98.7656H46.1727V80.5092V80.5142ZM46.1727 59.2176H52.3427C54.3977 59.2176 55.4277 60.2326 55.4277 62.2578V71.4134C55.4277 75.4488 53.8852 77.469 50.8002 77.469H46.1727V59.2126V59.2176ZM43.0876 56.1724V101.811H52.3427C56.4577 101.811 58.5128 99.7856 58.5128 95.7253V85.077C58.5128 82.0368 57.4828 80.0066 55.4277 78.9916C57.4828 77.9765 58.5128 75.9513 58.5128 72.9061V62.2578C58.5128 58.2025 56.4577 56.1724 52.3427 56.1724H43.0876Z" fill="url(#paint2_linear_36_560)"/>
<path d="M70.3949 65.303C66.2799 65.303 64.2249 67.3331 64.2249 71.3884V77.4739H67.3099V71.3884C67.3099 69.3633 68.3349 68.3482 70.3949 68.3482H73.4799C75.5349 68.3482 76.5649 69.3633 76.5649 71.3884V75.9861C76.5649 80.0215 75.0224 82.0417 71.9374 82.0417H68.8524V85.082H71.9374C75.0224 85.082 76.5649 87.1071 76.5649 91.1674V95.7303C76.5649 97.7554 75.5349 98.7705 73.4799 98.7705H70.3949C68.3349 98.7705 67.3099 97.7554 67.3099 95.7303V91.1674H64.2249V95.7303C64.2249 99.7856 66.2799 101.816 70.3949 101.816H73.4799C77.5949 101.816 79.65 99.7905 79.65 95.7303V89.6448C79.65 86.6046 78.6249 84.5744 76.5649 83.5593C78.6249 82.5443 79.65 80.5191 79.65 77.4739V71.3884C79.65 67.3331 77.5949 65.303 73.4799 65.303H70.3949Z" fill="url(#paint3_linear_36_560)"/>
<path d="M88.9501 65.303L87.532 95.0287C87.4723 97.2379 86.4522 98.4869 84.4768 98.7705V101.811C88.5719 101.811 90.6269 99.706 90.6468 95.4864L91.8809 68.3432H98.3594V101.811H101.444V65.303H88.9451H88.9501Z" fill="url(#paint4_linear_36_560)"/>
<path d="M108.634 59.8894C108.181 60.3373 107.958 60.8746 107.958 61.5016C107.958 62.1285 108.181 62.6958 108.634 63.1287C109.082 63.5666 109.629 63.7855 110.271 63.7855C110.913 63.7855 111.456 63.5666 111.908 63.1287C112.361 62.6908 112.585 62.1485 112.585 61.5016C112.585 60.8547 112.361 60.3373 111.908 59.8894C111.456 59.4416 110.908 59.2227 110.271 59.2227C109.634 59.2227 109.087 59.4466 108.634 59.8894Z" fill="url(#paint5_linear_36_560)"/>
<path d="M117.889 59.8894C117.437 60.3373 117.213 60.8746 117.213 61.5016C117.213 62.1285 117.437 62.6958 117.889 63.1287C118.342 63.5666 118.885 63.7855 119.526 63.7855C120.168 63.7855 120.711 63.5666 121.163 63.1287C121.616 62.6908 121.84 62.1485 121.84 61.5016C121.84 60.8547 121.616 60.3373 121.163 59.8894C120.711 59.4416 120.163 59.2227 119.526 59.2227C118.89 59.2227 118.342 59.4466 117.889 59.8894Z" fill="url(#paint6_linear_36_560)"/>
<path d="M110.266 71.3884C110.266 69.3633 111.291 68.3482 113.351 68.3482H116.436C118.491 68.3482 119.521 69.3633 119.521 71.3884V86.6046C119.521 88.6347 118.491 89.6448 116.436 89.6448H110.266V71.3884ZM113.351 65.303C109.236 65.303 107.181 67.3331 107.181 71.3884V95.7303C107.181 99.7856 109.236 101.816 113.351 101.816H121.069V98.7755H113.351C111.291 98.7755 110.266 97.7604 110.266 95.7352V92.69H116.436C120.547 92.69 122.606 90.6599 122.606 86.6046V71.3884C122.606 67.3331 120.547 65.303 116.436 65.303H113.351Z" fill="url(#paint7_linear_36_560)"/>
<path d="M128.219 68.3432H134.394V101.811H137.479V68.3432H143.649V65.303H128.219V68.3432Z" fill="url(#paint8_linear_36_560)"/>
<path d="M161.702 82.0367H152.447V65.303H149.362V101.811H152.447V85.077H161.702V101.811H164.792V65.303H161.702V82.0367Z" fill="url(#paint9_linear_36_560)"/>
<path d="M173.584 95.7304V80.5193C173.584 78.4891 174.614 77.4741 176.669 77.4741H182.839V98.7707H176.669C174.609 98.7707 173.584 97.7556 173.584 95.7304ZM172.041 65.3032V68.3434H179.759C181.814 68.3434 182.844 69.3585 182.844 71.3836V74.4239H176.674C172.559 74.4239 170.504 76.454 170.504 80.5093V95.7205C170.504 99.7758 172.559 101.806 176.674 101.806H185.929V71.3787C185.929 67.3234 183.869 65.2932 179.759 65.2932H172.041V65.3032Z" fill="url(#paint10_linear_36_560)"/>
<path d="M197.085 75.9515V71.4185C197.085 69.3883 198.115 68.3732 200.17 68.3732H206.34V82.0071H201.713C198.628 82.0071 197.085 79.9869 197.085 75.9515ZM200.17 65.333C196.055 65.333 194 67.3632 194 71.4185V77.4442C194 80.4894 195.025 82.5146 197.085 83.5297C195.025 84.5447 194 86.5749 194 89.6151V95.7304C194 97.7556 192.97 98.7707 190.915 98.7707V101.811C195.025 101.811 197.085 99.7857 197.085 95.7255V90.8591C197.145 86.9879 198.692 85.0473 201.713 85.0473H206.34V101.811H209.425V65.333H200.17Z" fill="url(#paint11_linear_36_560)"/>
<path d="M231.279 66.552L233.682 68.4677L239.763 61.0736V101.811H242.848V56.1724H239.763L231.279 66.552Z" fill="url(#paint12_linear_36_560)"/>
<path d="M251.66 95.7302V74.4286H257.83C259.89 74.4286 260.915 75.4437 260.915 77.4739V95.7302C260.915 97.7554 259.89 98.7705 257.83 98.7705H254.745C252.685 98.7705 251.66 97.7554 251.66 95.7302ZM254.745 56.1772C250.635 56.1772 248.575 58.2074 248.575 62.2627V95.7302C248.575 99.7855 250.635 101.816 254.745 101.816H257.83C261.94 101.816 264 99.7905 264 95.7302V77.4739C264 73.4185 261.94 71.3884 257.83 71.3884H251.66V62.2627C251.66 60.2375 252.685 59.2225 254.745 59.2225H262.463V56.1772H254.745Z" fill="url(#paint13_linear_36_560)"/>
<defs>
<linearGradient id="paint0_linear_36_560" x1="146.135" y1="-47.5771" x2="241.098" y2="46.7419" gradientUnits="userSpaceOnUse">
<stop stop-color="#B08D46"/>
<stop offset="0.519937" stop-color="#EAD29E"/>
<stop offset="1" stop-color="#A7833B"/>
</linearGradient>
<linearGradient id="paint1_linear_36_560" x1="8.66233" y1="88.1399" x2="10.004" y2="100.276" gradientUnits="userSpaceOnUse">
<stop stop-color="#B08D46"/>
<stop offset="0.519937" stop-color="#EAD29E"/>
<stop offset="1" stop-color="#A7833B"/>
</linearGradient>
<linearGradient id="paint2_linear_36_560" x1="46.8664" y1="18.5407" x2="90.7678" y2="32.7056" gradientUnits="userSpaceOnUse">
<stop stop-color="#B08D46"/>
<stop offset="0.519937" stop-color="#EAD29E"/>
<stop offset="1" stop-color="#A7833B"/>
</linearGradient>
<linearGradient id="paint3_linear_36_560" x1="68.0036" y1="35.196" x2="109.694" y2="52.0097" gradientUnits="userSpaceOnUse">
<stop stop-color="#B08D46"/>
<stop offset="0.519937" stop-color="#EAD29E"/>
<stop offset="1" stop-color="#A7833B"/>
</linearGradient>
<linearGradient id="paint4_linear_36_560" x1="88.6334" y1="35.2001" x2="133.183" y2="54.9659" gradientUnits="userSpaceOnUse">
<stop stop-color="#B08D46"/>
<stop offset="0.519937" stop-color="#EAD29E"/>
<stop offset="1" stop-color="#A7833B"/>
</linearGradient>
<linearGradient id="paint5_linear_36_560" x1="109.091" y1="55.4603" x2="116.597" y2="62.7273" gradientUnits="userSpaceOnUse">
<stop stop-color="#B08D46"/>
<stop offset="0.519937" stop-color="#EAD29E"/>
<stop offset="1" stop-color="#A7833B"/>
</linearGradient>
<linearGradient id="paint6_linear_36_560" x1="118.346" y1="55.4603" x2="125.852" y2="62.7273" gradientUnits="userSpaceOnUse">
<stop stop-color="#B08D46"/>
<stop offset="0.519937" stop-color="#EAD29E"/>
<stop offset="1" stop-color="#A7833B"/>
</linearGradient>
<linearGradient id="paint7_linear_36_560" x1="110.96" y1="35.196" x2="152.651" y2="52.0097" gradientUnits="userSpaceOnUse">
<stop stop-color="#B08D46"/>
<stop offset="0.519937" stop-color="#EAD29E"/>
<stop offset="1" stop-color="#A7833B"/>
</linearGradient>
<linearGradient id="paint8_linear_36_560" x1="131.999" y1="35.2001" x2="173.698" y2="52.0248" gradientUnits="userSpaceOnUse">
<stop stop-color="#B08D46"/>
<stop offset="0.519937" stop-color="#EAD29E"/>
<stop offset="1" stop-color="#A7833B"/>
</linearGradient>
<linearGradient id="paint9_linear_36_560" x1="153.142" y1="35.2001" x2="194.84" y2="52.0248" gradientUnits="userSpaceOnUse">
<stop stop-color="#B08D46"/>
<stop offset="0.519937" stop-color="#EAD29E"/>
<stop offset="1" stop-color="#A7833B"/>
</linearGradient>
<linearGradient id="paint10_linear_36_560" x1="174.283" y1="35.1862" x2="215.974" y2="51.9999" gradientUnits="userSpaceOnUse">
<stop stop-color="#B08D46"/>
<stop offset="0.519937" stop-color="#EAD29E"/>
<stop offset="1" stop-color="#A7833B"/>
</linearGradient>
<linearGradient id="paint11_linear_36_560" x1="195.45" y1="35.2547" x2="242.561" y2="58.0761" gradientUnits="userSpaceOnUse">
<stop stop-color="#B08D46"/>
<stop offset="0.519937" stop-color="#EAD29E"/>
<stop offset="1" stop-color="#A7833B"/>
</linearGradient>
<linearGradient id="paint12_linear_36_560" x1="234.113" y1="18.5407" x2="268.456" y2="26.8513" gradientUnits="userSpaceOnUse">
<stop stop-color="#B08D46"/>
<stop offset="0.519937" stop-color="#EAD29E"/>
<stop offset="1" stop-color="#A7833B"/>
</linearGradient>
<linearGradient id="paint13_linear_36_560" x1="252.354" y1="18.5456" x2="296.255" y2="32.7105" gradientUnits="userSpaceOnUse">
<stop stop-color="#B08D46"/>
<stop offset="0.519937" stop-color="#EAD29E"/>
<stop offset="1" stop-color="#A7833B"/>
</linearGradient>
</defs>
</svg>
