<svg width="426" height="151" viewBox="0 0 426 151" fill="none" xmlns="http://www.w3.org/2000/svg">
<path d="M67.4495 25.3225C67.2609 26.4405 64.1989 28.2989 58.2782 30.8978C53.2427 33.0612 49.8035 34.1936 47.946 34.2662C47.4091 34.3098 46.9012 34.1356 46.4369 33.7435C45.9725 33.3515 45.8129 32.916 45.9725 32.4078C46.1321 31.827 46.7126 30.7672 47.7139 29.2136C49.107 27.0503 49.9922 25.6274 50.384 24.9741C50.8919 24.0449 51.7916 22.5349 53.1121 20.4442L55.6081 16.3789L49.9196 20.0957C45.7403 22.8398 42.9541 24.8144 41.561 26.0195C34.7551 32.0593 33.3321 35.1954 32.0414 35.1954C30.837 34.9196 30.2565 34.5421 30.3 34.0339C30.3436 33.4967 32.8105 29.9251 37.7299 23.348C41.7206 17.9614 44.4778 13.7074 46.0305 10.5713C47.1479 8.36441 47.7574 7.04318 47.83 6.62213L27.9782 21.4895C15.6289 30.7091 7.82171 35.239 4.52759 35.0793C1.5092 34.8905 0 33.4967 0 30.8978C0 30.1574 0.362788 29.112 1.10288 27.7617C1.84296 26.3244 2.48147 25.5548 3.01839 25.4387C3.78751 25.279 4.22285 25.671 4.29541 26.6002C4.33894 27.0213 4.12127 27.5875 3.6569 28.2844C3.149 29.0249 2.9023 29.4604 2.9023 29.6202C2.9023 31.5512 3.55532 32.5239 4.87587 32.5239C8.47472 32.5239 15.2516 28.6909 25.192 21.0249L42.4897 7.78365C49.0634 2.51327 52.938 -0.0711073 54.0989 0.00148752C55.1438 0.0740823 55.5646 0.466094 55.3759 1.163C55.2599 1.55502 54.6939 2.36808 53.6926 3.60219C52.4882 5.11216 51.5884 6.43339 50.9644 7.55134C50.6162 8.1321 49.9922 9.29362 49.107 11.0359C48.1782 12.8508 47.4381 14.2155 46.9012 15.1012C46.3208 16.074 45.4356 17.4678 44.2311 19.2827L42.1414 22.4188C43.0266 21.9541 45.4356 20.4877 49.3391 18.005C51.4723 16.6547 53.8232 15.0576 56.4208 13.2428C56.8851 12.7782 57.5091 12.0813 58.2782 11.152L60.2518 8.94516C62.414 6.54954 63.8071 5.34446 64.4311 5.34446C65.0116 5.34446 65.4905 5.56225 65.8823 5.9833C66.3031 6.40435 66.4772 6.89799 66.4047 7.43519C65.8823 8.52659 65.476 8.29181 63.6185 10.6874L60.9484 13.5912C59.6278 15.0286 58.6701 16.3063 58.0461 17.4242C57.4221 18.6293 55.8403 21.2137 53.2863 25.2064C51.1531 28.5312 50.0792 30.3897 50.0357 30.7817C50.0357 31.1737 50.1953 31.406 50.5001 31.4786C51.1241 31.5947 53.6346 30.7091 58.0461 28.8071C59.2795 28.2699 61.0209 27.3116 63.2702 25.9614C65.1712 24.8434 66.216 24.2772 66.4047 24.2772C67.2173 24.2772 67.5656 24.6256 67.4495 25.3225ZM107.037 25.4387C107.037 26.6002 104.062 28.8071 98.0978 32.0593C94.1072 34.2227 90.8566 35.3116 88.3461 35.3116C87.0691 35.3116 86.0678 34.847 85.3277 33.9178C84.7037 33.1047 84.4425 32.219 84.5151 31.2463C84.6312 30.0122 84.8633 29.0394 85.2116 28.3425C84.5151 28.5022 83.775 28.5748 83.0059 28.5748L79.5231 29.2717C78.4057 30.7091 77.3174 31.7835 76.2725 32.5239C74.3425 33.8742 72.4415 34.5711 70.584 34.6147C69.5827 34.6582 68.7701 34.3243 68.1461 33.6274C67.6092 33.0466 67.3334 32.3642 67.3334 31.5947C67.3334 30.9414 68.9152 28.8507 72.0932 25.3225C71.9046 25.4387 71.5708 25.5984 71.1064 25.7872C70.6421 25.9469 70.2793 26.0921 70.0035 26.2518C68.3783 27.2245 67.4931 27.6891 67.3334 27.6456C66.5643 27.4568 66.2451 26.9922 66.4047 26.2518C66.4772 25.9759 67.3334 25.3806 68.9587 24.4514C70.9323 23.2899 72.1367 22.5349 72.5576 22.1865C76.853 19.0068 77.1284 17.8888 78.2461 17.5404C78.6379 17.4968 78.9862 17.613 79.2909 17.8888C79.5957 18.1647 79.7553 18.4696 79.7553 18.8181C79.7553 19.936 79.1748 21.2137 78.0139 22.6511L76.7369 24.5095C77.3609 24.5821 78.0574 24.8579 78.8266 25.3225C79.4505 25.671 79.9875 26.1356 80.4518 26.7164L83.238 26.3679C84.7908 26.2953 85.7921 26.1792 86.2564 26.0195C86.5612 25.8307 87.0836 25.3806 87.8237 24.6837L89.6231 22.9995C90.7115 22.0703 91.5241 21.6057 92.061 21.6057C92.4819 21.5621 92.8592 21.7218 93.1639 22.0703C93.4396 22.3462 93.5703 22.6075 93.5703 22.8834C93.1639 23.7847 92.3658 23.8852 89.9714 26.7164C88.1865 28.8797 87.3013 30.3171 87.3013 31.014C87.3013 32.3642 87.8817 33.0321 89.0427 32.9886C90.6244 32.916 93.0623 32.1029 96.3565 30.5494C97.8221 29.896 99.8828 28.6329 102.509 26.7744C104.715 25.2645 105.949 24.5095 106.224 24.5095C106.761 24.553 107.037 24.8579 107.037 25.4387ZM76.6208 28.2263C76.6208 27.8343 76.3451 27.5294 75.8082 27.2971C74.7633 26.8325 74.3425 26.6728 74.5311 26.8325C74.299 27.0648 73.7911 27.4859 73.0219 28.1102C71.208 29.6202 70.3083 30.7091 70.3518 31.3624C70.3954 31.7835 70.7727 32.0593 71.5127 32.1755C72.3979 32.2481 73.4428 31.827 74.6472 30.8978C75.9678 29.896 76.6208 28.9958 76.6208 28.2263Z" fill="url(#paint0_linear_123_21921)"/>
<path d="M93.0476 68.6103C92.9751 69.6121 90.0727 71.4415 84.3407 74.0694C79.5084 76.2328 75.9095 77.2781 73.5441 77.2055C72.3397 77.162 71.3239 76.799 70.4677 76.1021C69.539 75.3326 69.0165 74.3017 68.9004 73.0241C68.7118 70.7446 69.9453 67.957 72.6154 64.6612C76.0256 60.5233 79.1601 58.4325 82.0189 58.389C83.0637 58.3454 83.8763 58.8681 84.4568 59.957C84.9937 60.8862 85.2549 61.9897 85.2114 63.2673C85.1679 64.3127 84.8631 65.3726 84.2826 66.4615C83.6587 67.623 83.0637 68.1893 82.4832 68.1457C81.8592 68.0731 81.598 67.6375 81.6706 66.868C81.7213 66.3307 81.9463 66.3018 82.4832 64.9515C82.9476 63.9062 83.0637 63.035 82.8315 62.3381C82.4832 61.133 82.1349 60.5523 81.7867 60.5958C79.1891 60.8717 76.7222 62.6866 74.3568 66.055C72.4993 68.77 71.527 70.8898 71.4545 72.4433C71.3819 74.4614 72.151 75.3471 73.7763 75.1148C76.0546 74.8099 79.073 73.8807 82.8315 72.3272C84.2972 71.7464 86.2562 70.7446 88.6942 69.3072C90.8564 68.0295 92.0463 67.3762 92.235 67.3326C92.859 67.2165 93.1202 67.6375 93.0476 68.6103ZM112.145 66.6938C112.145 68.8571 110.621 71.1802 107.559 73.6629C104.773 75.9424 101.711 77.0458 98.3878 76.9732C96.4578 76.9297 94.9631 76.3489 93.9183 75.2309C93.0331 74.2582 92.6268 73.0967 92.6993 71.7464C92.7719 69.5831 93.7006 67.9715 95.4855 66.9261C95.7903 66.7374 96.4143 66.6357 97.343 66.6357C97.5752 66.476 97.909 66.1711 98.3298 65.7065C98.7942 65.2419 99.1424 64.937 99.3746 64.7773C102.437 62.9624 104.933 62.0477 106.863 62.0477C108.444 62.0477 109.721 62.4978 110.694 63.3835C111.666 64.2401 112.145 65.3435 112.145 66.6938ZM109.939 66.3453C109.939 65.0677 108.996 64.3853 107.095 64.3127C105.049 64.2401 103.09 64.966 101.232 66.5196C100.956 66.7083 100.594 67.1584 100.129 67.8553C99.7374 68.4361 99.3311 68.7845 98.9103 68.9007C98.6781 68.9442 98.4314 68.9442 98.1557 68.9007H97.4011C96.748 68.9733 96.1386 69.4379 95.6016 70.2945C95.2098 70.9914 95.0212 71.5286 95.0212 71.9206C95.0212 72.6901 95.413 73.387 96.1821 74.0114C96.9947 74.5921 97.9235 74.8825 98.9683 74.8825C100.942 74.8825 103.191 74.0549 105.702 72.3852C108.531 70.4832 109.939 68.4796 109.939 66.3453ZM137.627 67.9134C137.554 68.5667 135.305 70.4252 130.894 73.4887C128.877 74.8825 127.483 75.8843 126.714 76.5086C126.642 76.6974 125.96 79.0059 124.683 83.4196C123.71 86.788 122.883 89.3579 122.187 91.1437C120.794 94.7009 118.777 97.6918 116.15 100.087C112.391 103.456 108.793 105.038 105.353 104.85C103.656 104.777 102.204 104.196 101 103.107C99.7955 101.946 99.215 100.552 99.2585 98.9259C99.3021 95.7172 103.612 90.7227 112.203 83.9423C113.287 83.0867 115.729 81.6193 124.276 75.8117C125.045 74.6502 125.437 73.4161 125.437 72.0949C125.437 70.0767 124.276 69.0749 121.955 69.0749C121.722 69.0749 121.389 69.2056 120.968 69.4814C120.619 69.7573 120.329 69.8444 120.097 69.7718C119.401 69.496 119.096 69.1185 119.168 68.6103C119.258 67.9811 120.634 67.0277 123.696 63.3835C125.597 61.104 126.555 59.8263 126.598 59.5505C126.642 59.0133 126.323 58.7374 125.669 58.7374C124.784 58.7374 123.391 59.0859 121.49 59.7828C120.982 59.9715 120.286 60.3781 119.401 61.0024C118.747 61.5105 118.312 61.7138 118.124 61.6412C117.5 61.4525 117.195 61.104 117.195 60.5958C117.195 59.8263 118.515 58.8971 121.142 57.8082C122.767 57.1549 124.929 56.7628 127.643 56.6467C128.615 56.6031 129.152 57.1549 129.268 58.2728C129.341 59.0423 128.412 60.6684 126.482 63.1512L123.58 66.868C126.09 67.4052 127.454 68.6539 127.643 70.5849C127.687 71.1221 127.643 71.9352 127.527 73.0241C127.803 73.0241 129.312 72.0513 132.055 70.1203C134.957 68.0295 136.582 66.9842 136.93 66.9842C137.395 66.9842 137.627 67.2891 137.627 67.9134ZM123.928 78.4832C123.768 78.5993 122.375 79.4705 119.749 81.0966C117.383 82.6066 115.497 83.9423 114.06 85.1038C109.576 88.8207 106.703 91.3034 105.469 92.5376C102.683 95.3978 101.363 97.7644 101.522 99.6228C101.595 100.596 102.103 101.38 103.032 102.004C103.801 102.512 104.7 102.802 105.702 102.875C108.023 103.035 110.882 101.714 114.292 98.9259C116.774 96.9077 118.893 93.6555 120.678 89.1692C121.563 86.8897 122.651 83.318 123.928 78.4832ZM167.811 49.0388C167.811 54.8028 165.257 60.9879 160.149 67.5649C154.997 74.3017 150.629 77.6701 147.03 77.6701C145.521 77.6701 144.491 77.4378 143.954 76.9732C143.374 76.5086 143.04 75.623 142.967 74.3017C142.851 72.603 144.825 69.8444 148.888 66.055C151.369 63.7319 153.488 62.614 155.273 62.6866C155.317 62.6866 156.55 63.3835 158.988 64.7773C163.24 60.2474 165.373 55.1803 165.373 49.5614C165.373 46.0043 163.806 43.6522 160.671 42.5343C159.162 42.0261 156.71 41.7793 153.299 41.7793C145.289 41.7793 136.974 43.1295 128.34 45.8446C124.436 47.0787 119.763 48.9662 114.351 51.4779L107.211 54.7883C106.746 54.7883 106.514 54.556 106.514 54.0914C106.558 53.3509 109.083 51.8119 114.118 49.4453C118.951 47.1948 123.304 45.4526 127.179 44.2185C136.51 41.1985 145.013 39.6886 152.719 39.6886C157.522 39.6886 161.063 40.2258 163.341 41.3147C166.316 42.7521 167.811 45.3219 167.811 49.0388ZM156.55 67.4488C156.245 66.5196 155.694 65.8953 154.925 65.5904C154.388 65.4016 153.517 65.6339 152.313 66.2873C151.152 66.9116 150.165 67.6811 149.352 68.6103C146.871 71.3979 145.565 73.329 145.405 74.4179C145.333 74.8099 145.87 75.1584 147.03 75.4633C148.075 75.7682 150.121 74.5776 153.183 71.8626C154.968 70.2364 156.086 68.77 156.55 67.4488ZM203.509 68.1457C203.509 68.4216 200.709 70.4252 195.093 74.1856C191.073 76.9006 187.721 78.2509 185.051 78.2509C183.121 78.2509 181.916 77.3943 181.452 75.6956C181.22 74.8099 181.205 73.7645 181.394 72.5595C179.768 73.6484 178.259 74.534 176.866 75.2309C174.472 76.4651 172.44 77.0894 170.771 77.0894C168.449 77.0894 167.289 75.8843 167.289 73.4887C167.289 71.4705 169.044 68.5958 172.571 64.8354C176.358 60.6539 179.086 58.5777 180.755 58.6213C182.685 58.6939 184.311 59.6231 185.631 61.4089C185.979 61.8735 186.386 62.8608 186.85 64.3708C188.519 63.369 188.337 62.8275 188.766 62.8027C189.97 62.8753 190.507 63.3399 190.391 64.1965C190.275 64.8935 189.404 66.113 187.779 67.8553C186.545 69.2927 185.573 70.2945 184.876 70.8753C184.02 72.8934 183.614 74.0694 183.658 74.4179C183.774 75.4197 184.354 75.9279 185.399 75.9279C187.024 75.9279 189.825 74.7663 193.816 72.4433C200.273 68.6829 202.686 66.8664 202.697 66.868C203.234 66.8245 203.509 67.26 203.509 68.1457ZM184.586 64.6612C184.586 64.0368 184.194 63.2673 183.425 62.3381C182.613 61.3654 181.844 60.9007 181.103 60.9443C179.71 61.0169 177.345 62.8753 174.022 66.5196C170.931 69.9606 169.451 72.2836 169.61 73.4887C169.726 74.3017 170.307 74.7663 171.352 74.8825C172.121 74.9551 173.732 74.3453 176.17 73.0241C180.117 70.9769 182.888 68.9007 184.47 66.81L184.586 64.6612ZM222.026 67.4488C221.982 67.8698 219.399 69.888 214.248 73.4887C211.113 75.652 208.4 76.9006 206.121 77.2055C205.309 77.3217 204.482 77.0168 203.625 76.2763C202.74 75.5794 202.29 74.8099 202.29 73.9533C202.29 71.2382 203.64 68.0295 206.354 64.3127C208.327 61.5977 210.112 60.2474 211.694 60.2474C212.506 60.2474 213.246 60.6975 213.9 61.5831C214.48 62.4398 214.756 63.3109 214.712 64.1965C214.64 66.3308 213.087 68.2183 210.068 69.888C208.791 70.5849 207.123 71.2092 205.077 71.7464C204.772 72.3272 204.612 72.9805 204.612 73.721C204.612 74.3743 205.236 74.7663 206.47 74.8825C207.239 74.9261 209.212 74.0259 212.39 72.211C218.775 68.4942 220.623 66.8664 221.213 66.6357C221.794 66.6357 222.069 66.9116 222.026 67.4488ZM212.39 64.0804C212.39 63.2238 212.042 62.8027 211.345 62.8027C210.46 62.8027 209.444 63.7319 208.327 65.5904L206.121 69.3072C207.935 69.0023 209.372 68.3344 210.417 67.3326C211.737 66.0985 212.39 65.0096 212.39 64.0804ZM276.647 67.3326C276.691 68.0731 274.093 69.888 268.869 72.7918C265.691 74.534 263.137 75.3907 261.207 75.3471C257.797 75.2309 256.099 73.9968 256.099 71.6303C256.099 70.5849 256.52 69.2637 257.376 67.6811C257.652 67.1439 258.116 66.4179 258.769 65.5323C259.422 64.6466 259.814 64.0804 259.93 63.8481C258.189 64.3563 255.359 65.8227 251.455 68.2618C247.813 70.4687 245.419 71.9787 244.258 72.7918C241.587 74.6502 240.802 75.5794 240.31 75.5794C239.774 75.5068 239.498 75.2745 239.498 74.8825C239.541 74.5776 239.774 73.9533 240.194 73.0241C240.702 71.9352 241.007 71.2382 241.123 70.9333C241.515 69.7718 241.704 68.77 241.704 67.9134C241.239 68.1893 240.296 68.799 238.859 69.7718C237.234 70.8607 235.972 71.6738 235.086 72.211C229.819 75.3907 226.307 76.9732 224.522 76.9732C223.288 76.9732 222.273 76.6248 221.504 75.9279C220.647 75.1584 220.227 74.113 220.227 72.7918C220.227 72.0949 220.807 70.9769 221.968 69.4234C223.201 67.7537 224.217 66.9406 224.986 66.9842C225.61 66.9842 225.959 67.3326 226.031 68.0295C226.075 68.4216 225.842 68.7991 225.335 69.1911C224.682 69.6557 224.29 70.0041 224.174 70.2364C223.405 71.5577 222.969 72.603 222.897 73.3725C222.853 73.721 223.013 74.0694 223.361 74.4179C223.709 74.7228 224.058 74.8825 224.406 74.8825C225.378 74.8825 228.629 73.329 234.158 70.2364C236.552 68.8862 238.961 67.26 241.355 65.3581C244.533 62.9189 245.159 61.6412 245.767 61.6412C246.652 61.7138 247.087 62.0623 247.044 62.6866C247.08 62.8275 246.652 63.7755 245.883 66.4034L245.302 68.9588C247.581 67.9134 250.106 66.5631 252.848 64.8935C257.768 62.0623 261.164 60.712 263.065 60.8281C263.877 60.9007 264.269 61.2202 264.225 61.7574C264.12 61.9299 263.645 62.5704 262.484 64.3127C262.252 64.7047 261.802 65.3145 261.149 66.1711C260.641 66.868 260.235 67.5214 259.93 68.1457C259.161 69.6557 258.726 70.7736 258.653 71.5141C258.58 72.4433 259.422 72.9805 261.207 73.1402C262.6 73.2564 264.646 72.6321 267.36 71.2818C268.593 70.6575 270.378 69.6121 272.7 68.1457C274.601 66.9842 275.646 66.4034 275.835 66.4034C276.343 66.4034 276.604 66.7083 276.647 67.3326Z" fill="url(#paint1_linear_123_21921)"/>
<path d="M196.834 107.211C196.878 107.835 195.804 108.968 193.642 110.637C191.436 112.307 189.448 113.527 187.663 114.296C185.109 115.385 182.86 115.922 180.93 115.922C178.767 115.922 177.142 115.066 176.054 113.367C175.865 113.091 175.604 112.655 175.299 112.031C174.951 111.262 174.704 110.739 174.544 110.463C174.269 110.695 173.717 111.116 172.861 111.741C172.092 112.278 171.454 112.786 170.946 113.251C170.757 113.41 170.118 114.18 169.03 115.574C168.101 116.735 167.463 117.316 167.115 117.316C166.258 117.316 165.765 117.04 165.605 116.503C165.562 116.387 167.187 114.412 170.481 110.579C173.5 107.138 175.009 104.931 175.009 103.959C175.009 103.305 174.661 102.913 173.964 102.797C173.34 102.724 171.221 103.683 167.579 105.701C166.766 106.122 165.141 107.196 162.703 108.895C160.802 110.245 159.728 110.884 159.452 110.812C158.451 110.623 158.016 110.274 158.176 109.766C158.248 109.49 159.38 108.605 161.542 107.095C163.675 105.628 165.214 104.656 166.186 104.191C170.554 101.984 173.267 100.822 174.312 100.706C175.052 100.634 175.749 100.808 176.402 101.229C177.099 101.65 177.447 102.173 177.447 102.797C177.447 103.45 177.258 104.263 176.866 105.236C176.475 106.238 176.286 106.979 176.286 107.443C176.097 107.443 177.911 106.354 181.742 104.191C185.922 101.752 188.113 100.547 188.301 100.59C188.722 100.663 188.94 101.011 188.94 101.636C188.94 101.752 187.126 103.029 183.484 105.469L180.581 107.443C179.348 108.329 178.259 109.069 177.331 109.65C177.215 109.81 177.258 110.303 177.447 111.16C177.519 111.668 177.868 112.22 178.492 112.844C179.304 113.614 180.189 113.991 181.162 113.948C183.063 113.875 184.833 113.439 186.502 112.67C187.779 112.046 189.753 110.826 192.423 109.011C194.745 107.429 196.022 106.63 196.254 106.63C196.558 106.63 196.762 106.819 196.834 107.211ZM215.351 106.688C215.351 108.851 213.827 111.175 210.765 113.657C207.979 115.937 204.917 117.04 201.594 116.968C199.664 116.924 198.169 116.343 197.124 115.225C196.239 114.253 195.833 113.091 195.905 111.741C195.978 109.577 196.907 107.966 198.692 106.92C198.996 106.732 199.62 106.63 200.549 106.63C200.781 106.47 201.115 106.165 201.536 105.701C202 105.236 202.349 104.931 202.581 104.772C205.643 102.957 208.139 102.042 210.069 102.042C211.65 102.042 212.927 102.492 213.9 103.378C214.872 104.234 215.351 105.338 215.351 106.688ZM213.145 106.34C213.145 105.062 212.202 104.38 210.301 104.307C208.255 104.234 206.296 104.96 204.438 106.514C204.162 106.703 203.8 107.153 203.335 107.85C202.943 108.43 202.537 108.779 202.116 108.895C201.884 108.939 201.637 108.939 201.362 108.895H200.607C199.954 108.968 199.345 109.432 198.808 110.289C198.416 110.986 198.227 111.523 198.227 111.915C198.227 112.684 198.619 113.381 199.388 114.006C200.201 114.586 201.13 114.877 202.174 114.877C204.148 114.877 206.397 114.049 208.908 112.38C211.738 110.478 213.145 108.474 213.145 106.34ZM274.79 107.327C274.834 108.067 272.236 109.882 267.012 112.786C263.834 114.528 261.28 115.385 259.35 115.341C255.94 115.225 254.242 113.991 254.242 111.625C254.242 110.579 254.663 109.258 255.519 107.675C255.794 107.138 256.259 106.412 256.912 105.527C257.565 104.641 257.957 104.075 258.073 103.842C256.331 104.351 253.502 105.817 249.598 108.256C245.956 110.463 243.561 111.973 242.4 112.786C239.73 114.645 238.99 115.646 238.453 115.574C237.916 115.501 237.641 115.269 237.641 114.877C237.684 114.572 237.916 113.948 238.337 113.018C238.845 111.93 239.15 111.233 239.266 110.928C239.658 109.766 239.846 108.764 239.846 107.908C239.382 108.184 238.439 108.793 237.002 109.766C235.377 110.855 234.114 111.668 233.229 112.205C227.961 115.385 224.45 116.968 222.665 116.968C221.431 116.968 220.415 116.619 219.646 115.922C218.79 115.153 218.369 114.107 218.369 112.786C218.369 112.089 218.95 110.971 220.111 109.418C221.344 107.748 222.36 106.935 223.129 106.979C223.753 106.979 224.101 107.327 224.174 108.024C224.217 108.416 223.985 108.793 223.477 109.185C222.824 109.65 222.432 109.998 222.316 110.231C221.547 111.552 221.112 112.597 221.039 113.367C220.996 113.715 221.155 114.064 221.504 114.412C221.852 114.717 222.2 114.877 222.549 114.877C223.521 114.877 226.771 113.323 232.3 110.231C234.695 108.881 237.104 107.254 239.498 105.352C242.676 102.913 243.493 101.87 243.91 101.636C244.795 101.708 245.23 102.057 245.187 102.681C245.168 102.941 244.795 103.77 244.026 106.398L243.445 108.953C245.723 107.908 248.248 106.557 250.991 104.888C255.911 102.057 259.306 100.706 261.207 100.823C262.02 100.895 262.412 101.215 262.368 101.752C262.326 101.87 261.788 102.565 260.627 104.307C260.395 104.699 259.945 105.309 259.292 106.165C258.784 106.862 258.378 107.516 258.073 108.14C257.304 109.65 256.868 110.768 256.796 111.508C256.723 112.438 257.565 112.975 259.35 113.135C260.743 113.251 262.789 112.626 265.503 111.276C266.736 110.652 268.521 109.606 270.843 108.14C272.744 106.979 273.789 106.398 273.977 106.398C274.485 106.398 274.746 106.703 274.79 107.327ZM307.702 105.004C307.862 106.674 306.004 108.997 302.13 111.973C297.675 115.341 294.976 116.968 294.003 116.851C292.958 116.692 292.422 116.343 292.378 115.806C292.378 115.646 293.147 113.831 294.7 110.347C292.683 110.347 290.869 110.695 289.243 111.392L283.091 118.013C281.698 119.566 279.782 121.309 277.344 123.24C274.717 125.33 273.063 126.303 272.41 126.144C271.902 126.027 271.656 125.723 271.656 125.214L281.001 116.735C282.278 115.53 283.511 113.948 284.716 111.973C285.529 110.507 285.949 109.606 285.993 109.302C280.928 112.162 277.678 113.556 276.241 113.483C275.661 113.439 275.196 113.135 274.848 112.554C274.543 112.017 274.427 111.392 274.5 110.695C274.732 108.096 275.936 105.628 278.099 103.262C281.001 100.082 283.961 98.4995 286.98 98.4995C288.678 98.4995 290.013 100.169 290.985 103.494C293.147 100.43 295.585 97.338 298.299 94.2019C302.899 88.9315 305.453 86.26 305.961 86.1874C306.657 86.0712 307.006 86.3761 307.006 87.1166L300.272 95.4795C295.933 100.823 293.118 104.38 291.798 106.165C291.406 107.603 291.29 108.503 291.449 108.895C291.957 108.59 292.654 108.082 293.539 107.385C294.308 106.804 295.092 106.282 295.861 105.817C299.619 103.45 302.551 102.26 304.684 102.216C306.541 102.173 307.543 103.102 307.702 105.004ZM288.779 104.191C288.474 101.984 287.662 100.895 286.341 100.939C283.947 101.011 281.581 102.521 279.26 105.469C277.823 107.327 277.039 108.953 276.88 110.347C276.807 110.739 276.981 110.971 277.402 111.044C277.678 111.087 279.724 110.115 283.555 108.14C284.295 107.748 285.195 107.095 286.283 106.165C287.676 105.048 288.503 104.38 288.779 104.191ZM305.38 105.352C305.424 104.815 305.076 104.496 304.335 104.423C302.826 104.307 301.245 104.844 299.576 106.049C298.458 106.906 297.718 107.516 297.37 107.908C297.878 108.489 298.139 108.953 298.183 109.302C298.226 109.65 297.994 110.332 297.486 111.334C296.906 112.38 296.601 113.091 296.557 113.483C300.229 110.768 302.13 109.345 302.246 109.185C304.292 107.138 305.337 105.861 305.38 105.352ZM367.257 107.327C367.214 108.14 365.24 109.839 361.337 112.438C356.766 115.414 353.326 116.924 351.005 116.968C350.308 116.968 349.727 116.634 349.263 115.98C348.842 115.4 348.639 114.717 348.683 113.948C348.755 112.902 349.916 111.116 352.165 108.605C354.023 106.441 354.995 105.236 355.068 105.004C354.415 105.396 353.486 105.817 352.281 106.282C350.7 106.935 349.611 107.4 349.031 107.675C346.085 109.302 342.835 110.739 339.279 111.973C328.947 123.545 322.983 130.165 321.401 131.835C309.211 144.612 303.828 151 303.291 151C302.754 151 302.434 150.811 302.362 150.419C302.362 150.303 308.283 143.566 320.124 130.209L325.058 124.808C326.843 122.833 328.671 120.757 330.572 118.594C335.376 113.135 338.858 109.113 341.021 106.514L338.815 107.675C336.304 109.113 336.316 109.948 335.564 109.882C335.172 109.839 334.795 109.49 334.403 108.837C334.128 108.3 336.029 106.906 340.092 104.656C340.977 104.191 341.964 103.596 343.052 102.855C344.17 102.115 345.011 101.592 345.548 101.287C346.898 100.169 347.885 99.6755 348.509 99.8352C349.089 99.9514 349.379 100.242 349.379 100.706C349.32 100.973 348.378 101.752 346.361 104.075C344.503 106.165 343.342 107.516 342.878 108.14C344.344 107.792 346.782 106.746 350.192 105.004C354.212 102.841 357.041 101.752 358.667 101.752C359.131 101.752 359.32 102.144 359.247 102.913C359.087 104.002 357.665 105.89 354.952 108.605C352.281 111.392 350.961 113.178 351.005 113.948C351.077 114.572 351.353 114.877 351.817 114.877C353.283 114.877 356.113 113.527 360.292 110.812C364.283 108.184 366.285 106.862 366.329 106.862C366.953 106.79 367.257 106.935 367.257 107.327ZM329.876 106.688C329.876 108.851 328.352 111.175 325.29 113.657C322.504 115.937 319.442 117.04 316.119 116.968C314.189 116.924 312.694 116.343 311.649 115.225C310.764 114.253 310.358 113.091 310.43 111.741C310.503 109.577 311.432 107.966 313.217 106.92C313.521 106.732 314.145 106.63 315.074 106.63C315.306 106.47 315.64 106.165 316.061 105.701C316.525 105.236 316.873 104.931 317.106 104.772C320.168 102.957 322.663 102.042 324.594 102.042C326.175 102.042 327.452 102.492 328.425 103.378C329.397 104.234 329.876 105.338 329.876 106.688ZM327.67 106.34C327.67 105.062 326.727 104.38 324.826 104.307C322.78 104.234 320.821 104.96 318.963 106.514C318.687 106.703 318.325 107.153 317.86 107.85C317.468 108.43 317.062 108.779 316.641 108.895C316.409 108.939 316.162 108.939 315.887 108.895H315.132C314.479 108.968 313.87 109.432 313.333 110.289C312.941 110.986 312.752 111.523 312.752 111.915C312.752 112.684 313.144 113.381 313.913 114.006C314.726 114.586 315.654 114.877 316.699 114.877C318.673 114.877 320.922 114.049 323.433 112.38C326.262 110.478 327.67 108.474 327.67 106.34ZM426 107.211C425.927 108.416 422.749 110.884 416.48 114.645C412.693 116.895 409.355 118.129 406.497 118.361C405.64 118.434 404.871 118.115 404.175 117.374C403.478 116.634 403.13 115.733 403.13 114.645C403.13 113.948 403.899 112.089 405.452 109.069C405.684 108.561 406.264 107.675 407.193 106.398C407.933 105.425 408.281 104.772 408.238 104.423C408.194 103.886 407.817 103.567 407.077 103.494C405.989 103.421 402.97 104.96 398.022 108.14C397.282 108.837 396.237 110.071 394.887 111.857C393.683 113.41 392.754 114.18 392.101 114.18C391.288 114.18 390.781 113.715 390.592 112.786C390.548 112.626 391.709 111.32 394.075 108.837C395.773 107.095 396.629 105.57 396.629 104.249C396.629 103.363 396.121 102.913 395.12 102.913C393.886 102.913 392.406 103.218 390.708 103.842C387.414 105.077 384.831 106.47 382.93 108.024C382.045 108.764 381.116 109.65 380.144 110.695C378.939 112.017 378.127 112.859 377.706 113.251C375.805 114.92 374.644 115.733 374.223 115.69C373.526 115.574 373.135 115.066 373.062 114.18C373.018 113.759 373.947 112.554 375.848 110.579C378.127 108.213 379.258 106.746 379.215 106.165C379.142 105.309 378.707 104.888 377.938 104.888C376.937 104.888 375.079 105.541 372.365 106.862C371.669 107.167 370.581 107.893 369.115 109.011C367.91 109.897 367.185 110.303 366.909 110.231C366.024 109.998 365.589 109.65 365.632 109.185C365.748 108.213 367.722 106.703 371.553 104.656C373.642 103.538 376.124 102.841 378.983 102.565C379.679 102.492 380.361 102.841 381.014 103.61C381.551 104.307 381.885 105.004 382.001 105.701C382.973 104.96 385.034 103.959 388.212 102.681C391.579 101.287 393.886 100.59 395.12 100.59C397.166 100.59 398.414 101.519 398.834 103.378C398.994 103.959 399.067 104.496 399.067 105.004C399.575 104.844 401.055 104.089 403.536 102.739C405.626 101.65 407.033 101.127 407.774 101.171C409.704 101.287 410.719 102.144 410.792 103.726C410.803 103.966 409.82 105.425 407.89 109.302C406.264 112.626 405.452 114.369 405.452 114.528C405.452 115.617 405.873 116.155 406.729 116.155C408.514 116.155 411.445 115.037 415.552 112.786C416.829 112.089 418.875 110.695 421.705 108.605C423.838 107.051 425.115 106.325 425.536 106.398C425.84 106.47 426 106.746 426 107.211Z" fill="url(#paint2_linear_123_21921)"/>
<path d="M67.4495 25.3225C67.2609 26.4405 64.1989 28.2989 58.2782 30.8978C53.2427 33.0612 49.8035 34.1936 47.946 34.2662C47.4091 34.3098 46.9012 34.1356 46.4369 33.7435C45.9725 33.3515 45.8129 32.916 45.9725 32.4078C46.1321 31.827 46.7126 30.7672 47.7139 29.2136C49.107 27.0503 49.9922 25.6274 50.384 24.9741C50.8919 24.0449 51.7916 22.5349 53.1121 20.4442L55.6081 16.3789L49.9196 20.0957C45.7403 22.8398 42.9541 24.8144 41.561 26.0195C34.7551 32.0593 33.3321 35.1954 32.0414 35.1954C30.837 34.9196 30.2565 34.5421 30.3 34.0339C30.3436 33.4967 32.8105 29.9251 37.7299 23.348C41.7206 17.9614 44.4778 13.7074 46.0305 10.5713C47.1479 8.36441 47.7574 7.04318 47.83 6.62213L27.9782 21.4895C15.6289 30.7091 7.82171 35.239 4.52759 35.0793C1.5092 34.8905 0 33.4967 0 30.8978C0 30.1574 0.362788 29.112 1.10288 27.7617C1.84296 26.3244 2.48147 25.5548 3.01839 25.4387C3.78751 25.279 4.22285 25.671 4.29541 26.6002C4.33894 27.0213 4.12127 27.5875 3.6569 28.2844C3.149 29.0249 2.9023 29.4604 2.9023 29.6202C2.9023 31.5512 3.55532 32.5239 4.87587 32.5239C8.47472 32.5239 15.2516 28.6909 25.192 21.0249L42.4897 7.78365C49.0634 2.51327 52.938 -0.0711073 54.0989 0.00148752C55.1438 0.0740823 55.5646 0.466094 55.3759 1.163C55.2599 1.55502 54.6939 2.36808 53.6926 3.60219C52.4882 5.11216 51.5884 6.43339 50.9644 7.55134C50.6162 8.1321 49.9922 9.29362 49.107 11.0359C48.1782 12.8508 47.4381 14.2155 46.9012 15.1012C46.3208 16.074 45.4356 17.4678 44.2311 19.2827L42.1414 22.4188C43.0266 21.9541 45.4356 20.4877 49.3391 18.005C51.4723 16.6547 53.8232 15.0576 56.4208 13.2428C56.8851 12.7782 57.5091 12.0813 58.2782 11.152L60.2518 8.94516C62.414 6.54954 63.8071 5.34446 64.4311 5.34446C65.0116 5.34446 65.4905 5.56225 65.8823 5.9833C66.3031 6.40435 66.4772 6.89799 66.4047 7.43519C65.8823 8.52659 65.476 8.29181 63.6185 10.6874L60.9484 13.5912C59.6278 15.0286 58.6701 16.3063 58.0461 17.4242C57.4221 18.6293 55.8403 21.2137 53.2863 25.2064C51.1531 28.5312 50.0792 30.3897 50.0357 30.7817C50.0357 31.1737 50.1953 31.406 50.5001 31.4786C51.1241 31.5947 53.6346 30.7091 58.0461 28.8071C59.2795 28.2699 61.0209 27.3116 63.2702 25.9614C65.1712 24.8434 66.216 24.2772 66.4047 24.2772C67.2173 24.2772 67.5656 24.6256 67.4495 25.3225ZM107.037 25.4387C107.037 26.6002 104.062 28.8071 98.0978 32.0593C94.1072 34.2227 90.8566 35.3116 88.3461 35.3116C87.0691 35.3116 86.0678 34.847 85.3277 33.9178C84.7037 33.1047 84.4425 32.219 84.5151 31.2463C84.6312 30.0122 84.8633 29.0394 85.2116 28.3425C84.5151 28.5022 83.775 28.5748 83.0059 28.5748L79.5231 29.2717C78.4057 30.7091 77.3174 31.7835 76.2725 32.5239C74.3425 33.8742 72.4415 34.5711 70.584 34.6147C69.5827 34.6582 68.7701 34.3243 68.1461 33.6274C67.6092 33.0466 67.3334 32.3642 67.3334 31.5947C67.3334 30.9414 68.9152 28.8507 72.0932 25.3225C71.9046 25.4387 71.5708 25.5984 71.1064 25.7872C70.6421 25.9469 70.2793 26.0921 70.0035 26.2518C68.3783 27.2245 67.4931 27.6891 67.3334 27.6456C66.5643 27.4568 66.2451 26.9922 66.4047 26.2518C66.4772 25.9759 67.3334 25.3806 68.9587 24.4514C70.9323 23.2899 72.1367 22.5349 72.5576 22.1865C76.853 19.0068 77.1284 17.8888 78.2461 17.5404C78.6379 17.4968 78.9862 17.613 79.2909 17.8888C79.5957 18.1647 79.7553 18.4696 79.7553 18.8181C79.7553 19.936 79.1748 21.2137 78.0139 22.6511L76.7369 24.5095C77.3609 24.5821 78.0574 24.8579 78.8266 25.3225C79.4505 25.671 79.9875 26.1356 80.4518 26.7164L83.238 26.3679C84.7908 26.2953 85.7921 26.1792 86.2564 26.0195C86.5612 25.8307 87.0836 25.3806 87.8237 24.6837L89.6231 22.9995C90.7115 22.0703 91.5241 21.6057 92.061 21.6057C92.4819 21.5621 92.8592 21.7218 93.1639 22.0703C93.4396 22.3462 93.5703 22.6075 93.5703 22.8834C93.1639 23.7847 92.3658 23.8852 89.9714 26.7164C88.1865 28.8797 87.3013 30.3171 87.3013 31.014C87.3013 32.3642 87.8817 33.0321 89.0427 32.9886C90.6244 32.916 93.0623 32.1029 96.3565 30.5494C97.8221 29.896 99.8828 28.6329 102.509 26.7744C104.715 25.2645 105.949 24.5095 106.224 24.5095C106.761 24.553 107.037 24.8579 107.037 25.4387ZM76.6208 28.2263C76.6208 27.8343 76.3451 27.5294 75.8082 27.2971C74.7633 26.8325 74.3425 26.6728 74.5311 26.8325C74.299 27.0648 73.7911 27.4859 73.0219 28.1102C71.208 29.6202 70.3083 30.7091 70.3518 31.3624C70.3954 31.7835 70.7727 32.0593 71.5127 32.1755C72.3979 32.2481 73.4428 31.827 74.6472 30.8978C75.9678 29.896 76.6208 28.9958 76.6208 28.2263Z" stroke="#46A6C9"/>
<path d="M93.0476 68.6103C92.9751 69.6121 90.0727 71.4415 84.3407 74.0694C79.5084 76.2328 75.9095 77.2781 73.5441 77.2055C72.3397 77.162 71.3239 76.799 70.4677 76.1021C69.539 75.3326 69.0165 74.3017 68.9004 73.0241C68.7118 70.7446 69.9453 67.957 72.6154 64.6612C76.0256 60.5233 79.1601 58.4325 82.0189 58.389C83.0637 58.3454 83.8763 58.8681 84.4568 59.957C84.9937 60.8862 85.2549 61.9897 85.2114 63.2673C85.1679 64.3127 84.8631 65.3726 84.2826 66.4615C83.6587 67.623 83.0637 68.1893 82.4832 68.1457C81.8592 68.0731 81.598 67.6375 81.6706 66.868C81.7213 66.3307 81.9463 66.3018 82.4832 64.9515C82.9476 63.9062 83.0637 63.035 82.8315 62.3381C82.4832 61.133 82.1349 60.5523 81.7867 60.5958C79.1891 60.8717 76.7222 62.6866 74.3568 66.055C72.4993 68.77 71.527 70.8898 71.4545 72.4433C71.3819 74.4614 72.151 75.3471 73.7763 75.1148C76.0546 74.8099 79.073 73.8807 82.8315 72.3272C84.2972 71.7464 86.2562 70.7446 88.6942 69.3072C90.8564 68.0295 92.0463 67.3762 92.235 67.3326C92.859 67.2165 93.1202 67.6375 93.0476 68.6103ZM112.145 66.6938C112.145 68.8571 110.621 71.1802 107.559 73.6629C104.773 75.9424 101.711 77.0458 98.3878 76.9732C96.4578 76.9297 94.9631 76.3489 93.9183 75.2309C93.0331 74.2582 92.6268 73.0967 92.6993 71.7464C92.7719 69.5831 93.7006 67.9715 95.4855 66.9261C95.7903 66.7374 96.4143 66.6357 97.343 66.6357C97.5752 66.476 97.909 66.1711 98.3298 65.7065C98.7942 65.2419 99.1424 64.937 99.3746 64.7773C102.437 62.9624 104.933 62.0477 106.863 62.0477C108.444 62.0477 109.721 62.4978 110.694 63.3835C111.666 64.2401 112.145 65.3435 112.145 66.6938ZM109.939 66.3453C109.939 65.0677 108.996 64.3853 107.095 64.3127C105.049 64.2401 103.09 64.966 101.232 66.5196C100.956 66.7083 100.594 67.1584 100.129 67.8553C99.7374 68.4361 99.3311 68.7845 98.9103 68.9007C98.6781 68.9442 98.4314 68.9442 98.1557 68.9007H97.4011C96.748 68.9733 96.1386 69.4379 95.6016 70.2945C95.2098 70.9914 95.0212 71.5286 95.0212 71.9206C95.0212 72.6901 95.413 73.387 96.1821 74.0114C96.9947 74.5921 97.9235 74.8825 98.9683 74.8825C100.942 74.8825 103.191 74.0549 105.702 72.3852C108.531 70.4832 109.939 68.4796 109.939 66.3453ZM137.627 67.9134C137.554 68.5667 135.305 70.4252 130.894 73.4887C128.877 74.8825 127.483 75.8843 126.714 76.5086C126.642 76.6974 125.96 79.0059 124.683 83.4196C123.71 86.788 122.883 89.3579 122.187 91.1437C120.794 94.7009 118.777 97.6918 116.15 100.087C112.391 103.456 108.793 105.038 105.353 104.85C103.656 104.777 102.204 104.196 101 103.107C99.7955 101.946 99.215 100.552 99.2585 98.9259C99.3021 95.7172 103.612 90.7227 112.203 83.9423C113.287 83.0867 115.729 81.6193 124.276 75.8117C125.045 74.6502 125.437 73.4161 125.437 72.0949C125.437 70.0767 124.276 69.0749 121.955 69.0749C121.722 69.0749 121.389 69.2056 120.968 69.4814C120.619 69.7573 120.329 69.8444 120.097 69.7718C119.401 69.496 119.096 69.1185 119.168 68.6103C119.258 67.9811 120.634 67.0277 123.696 63.3835C125.597 61.104 126.555 59.8263 126.598 59.5505C126.642 59.0133 126.323 58.7374 125.669 58.7374C124.784 58.7374 123.391 59.0859 121.49 59.7828C120.982 59.9715 120.286 60.3781 119.401 61.0024C118.747 61.5105 118.312 61.7138 118.124 61.6412C117.5 61.4525 117.195 61.104 117.195 60.5958C117.195 59.8263 118.515 58.8971 121.142 57.8082C122.767 57.1549 124.929 56.7628 127.643 56.6467C128.615 56.6031 129.152 57.1549 129.268 58.2728C129.341 59.0423 128.412 60.6684 126.482 63.1512L123.58 66.868C126.09 67.4052 127.454 68.6539 127.643 70.5849C127.687 71.1221 127.643 71.9352 127.527 73.0241C127.803 73.0241 129.312 72.0513 132.055 70.1203C134.957 68.0295 136.582 66.9842 136.93 66.9842C137.395 66.9842 137.627 67.2891 137.627 67.9134ZM123.928 78.4832C123.768 78.5993 122.375 79.4705 119.749 81.0966C117.383 82.6066 115.497 83.9423 114.06 85.1038C109.576 88.8207 106.703 91.3034 105.469 92.5376C102.683 95.3978 101.363 97.7644 101.522 99.6228C101.595 100.596 102.103 101.38 103.032 102.004C103.801 102.512 104.7 102.802 105.702 102.875C108.023 103.035 110.882 101.714 114.292 98.9259C116.774 96.9077 118.893 93.6555 120.678 89.1692C121.563 86.8897 122.651 83.318 123.928 78.4832ZM167.811 49.0388C167.811 54.8028 165.257 60.9879 160.149 67.5649C154.997 74.3017 150.629 77.6701 147.03 77.6701C145.521 77.6701 144.491 77.4378 143.954 76.9732C143.374 76.5086 143.04 75.623 142.967 74.3017C142.851 72.603 144.825 69.8444 148.888 66.055C151.369 63.7319 153.488 62.614 155.273 62.6866C155.317 62.6866 156.55 63.3835 158.988 64.7773C163.24 60.2474 165.373 55.1803 165.373 49.5614C165.373 46.0043 163.806 43.6522 160.671 42.5343C159.162 42.0261 156.71 41.7793 153.299 41.7793C145.289 41.7793 136.974 43.1295 128.34 45.8446C124.436 47.0787 119.763 48.9662 114.351 51.4779L107.211 54.7883C106.746 54.7883 106.514 54.556 106.514 54.0914C106.558 53.3509 109.083 51.8119 114.118 49.4453C118.951 47.1948 123.304 45.4526 127.179 44.2185C136.51 41.1985 145.013 39.6886 152.719 39.6886C157.522 39.6886 161.063 40.2258 163.341 41.3147C166.316 42.7521 167.811 45.3219 167.811 49.0388ZM156.55 67.4488C156.245 66.5196 155.694 65.8953 154.925 65.5904C154.388 65.4016 153.517 65.6339 152.313 66.2873C151.152 66.9116 150.165 67.6811 149.352 68.6103C146.871 71.3979 145.565 73.329 145.405 74.4179C145.333 74.8099 145.87 75.1584 147.03 75.4633C148.075 75.7682 150.121 74.5776 153.183 71.8626C154.968 70.2364 156.086 68.77 156.55 67.4488ZM203.509 68.1457C203.509 68.4216 200.709 70.4252 195.093 74.1856C191.073 76.9006 187.721 78.2509 185.051 78.2509C183.121 78.2509 181.916 77.3943 181.452 75.6956C181.22 74.8099 181.205 73.7645 181.394 72.5595C179.768 73.6484 178.259 74.534 176.866 75.2309C174.472 76.4651 172.44 77.0894 170.771 77.0894C168.449 77.0894 167.289 75.8843 167.289 73.4887C167.289 71.4705 169.044 68.5958 172.571 64.8354C176.358 60.6539 179.086 58.5777 180.755 58.6213C182.685 58.6939 184.311 59.6231 185.631 61.4089C185.979 61.8735 186.386 62.8608 186.85 64.3708C188.519 63.369 188.337 62.8275 188.766 62.8027C189.97 62.8753 190.507 63.3399 190.391 64.1965C190.275 64.8935 189.404 66.113 187.779 67.8553C186.545 69.2927 185.573 70.2945 184.876 70.8753C184.02 72.8934 183.614 74.0694 183.658 74.4179C183.774 75.4197 184.354 75.9279 185.399 75.9279C187.024 75.9279 189.825 74.7663 193.816 72.4433C200.273 68.6829 202.686 66.8664 202.697 66.868C203.234 66.8245 203.509 67.26 203.509 68.1457ZM184.586 64.6612C184.586 64.0368 184.194 63.2673 183.425 62.3381C182.613 61.3654 181.844 60.9007 181.103 60.9443C179.71 61.0169 177.345 62.8753 174.022 66.5196C170.931 69.9606 169.451 72.2836 169.61 73.4887C169.726 74.3017 170.307 74.7663 171.352 74.8825C172.121 74.9551 173.732 74.3453 176.17 73.0241C180.117 70.9769 182.888 68.9007 184.47 66.81L184.586 64.6612ZM222.026 67.4488C221.982 67.8698 219.399 69.888 214.248 73.4887C211.113 75.652 208.4 76.9006 206.121 77.2055C205.309 77.3217 204.482 77.0168 203.625 76.2763C202.74 75.5794 202.29 74.8099 202.29 73.9533C202.29 71.2382 203.64 68.0295 206.354 64.3127C208.327 61.5977 210.112 60.2474 211.694 60.2474C212.506 60.2474 213.246 60.6975 213.9 61.5831C214.48 62.4398 214.756 63.3109 214.712 64.1965C214.64 66.3308 213.087 68.2183 210.068 69.888C208.791 70.5849 207.123 71.2092 205.077 71.7464C204.772 72.3272 204.612 72.9805 204.612 73.721C204.612 74.3743 205.236 74.7663 206.47 74.8825C207.239 74.9261 209.212 74.0259 212.39 72.211C218.775 68.4942 220.623 66.8664 221.213 66.6357C221.794 66.6357 222.069 66.9116 222.026 67.4488ZM212.39 64.0804C212.39 63.2238 212.042 62.8027 211.345 62.8027C210.46 62.8027 209.444 63.7319 208.327 65.5904L206.121 69.3072C207.935 69.0023 209.372 68.3344 210.417 67.3326C211.737 66.0985 212.39 65.0096 212.39 64.0804ZM276.647 67.3326C276.691 68.0731 274.093 69.888 268.869 72.7918C265.691 74.534 263.137 75.3907 261.207 75.3471C257.797 75.2309 256.099 73.9968 256.099 71.6303C256.099 70.5849 256.52 69.2637 257.376 67.6811C257.652 67.1439 258.116 66.4179 258.769 65.5323C259.422 64.6466 259.814 64.0804 259.93 63.8481C258.189 64.3563 255.359 65.8227 251.455 68.2618C247.813 70.4687 245.419 71.9787 244.258 72.7918C241.587 74.6502 240.802 75.5794 240.31 75.5794C239.774 75.5068 239.498 75.2745 239.498 74.8825C239.541 74.5776 239.774 73.9533 240.194 73.0241C240.702 71.9352 241.007 71.2382 241.123 70.9333C241.515 69.7718 241.704 68.77 241.704 67.9134C241.239 68.1893 240.296 68.799 238.859 69.7718C237.234 70.8607 235.972 71.6738 235.086 72.211C229.819 75.3907 226.307 76.9732 224.522 76.9732C223.288 76.9732 222.273 76.6248 221.504 75.9279C220.647 75.1584 220.227 74.113 220.227 72.7918C220.227 72.0949 220.807 70.9769 221.968 69.4234C223.201 67.7537 224.217 66.9406 224.986 66.9842C225.61 66.9842 225.959 67.3326 226.031 68.0295C226.075 68.4216 225.842 68.7991 225.335 69.1911C224.682 69.6557 224.29 70.0041 224.174 70.2364C223.405 71.5577 222.969 72.603 222.897 73.3725C222.853 73.721 223.013 74.0694 223.361 74.4179C223.709 74.7228 224.058 74.8825 224.406 74.8825C225.378 74.8825 228.629 73.329 234.158 70.2364C236.552 68.8862 238.961 67.26 241.355 65.3581C244.533 62.9189 245.159 61.6412 245.767 61.6412C246.652 61.7138 247.087 62.0623 247.044 62.6866C247.08 62.8275 246.652 63.7755 245.883 66.4034L245.302 68.9588C247.581 67.9134 250.106 66.5631 252.848 64.8935C257.768 62.0623 261.164 60.712 263.065 60.8281C263.877 60.9007 264.269 61.2202 264.225 61.7574C264.12 61.9299 263.645 62.5704 262.484 64.3127C262.252 64.7047 261.802 65.3145 261.149 66.1711C260.641 66.868 260.235 67.5214 259.93 68.1457C259.161 69.6557 258.726 70.7736 258.653 71.5141C258.58 72.4433 259.422 72.9805 261.207 73.1402C262.6 73.2564 264.646 72.6321 267.36 71.2818C268.593 70.6575 270.378 69.6121 272.7 68.1457C274.601 66.9842 275.646 66.4034 275.835 66.4034C276.343 66.4034 276.604 66.7083 276.647 67.3326Z" stroke="#46A6C9"/>
<path d="M196.834 107.211C196.878 107.835 195.804 108.968 193.642 110.637C191.436 112.307 189.448 113.527 187.663 114.296C185.109 115.385 182.86 115.922 180.93 115.922C178.767 115.922 177.142 115.066 176.054 113.367C175.865 113.091 175.604 112.655 175.299 112.031C174.951 111.262 174.704 110.739 174.544 110.463C174.269 110.695 173.717 111.116 172.861 111.741C172.092 112.278 171.454 112.786 170.946 113.251C170.757 113.41 170.118 114.18 169.03 115.574C168.101 116.735 167.463 117.316 167.115 117.316C166.258 117.316 165.765 117.04 165.605 116.503C165.562 116.387 167.187 114.412 170.481 110.579C173.5 107.138 175.009 104.931 175.009 103.959C175.009 103.305 174.661 102.913 173.964 102.797C173.34 102.724 171.221 103.683 167.579 105.701C166.766 106.122 165.141 107.196 162.703 108.895C160.802 110.245 159.728 110.884 159.452 110.812C158.451 110.623 158.016 110.274 158.176 109.766C158.248 109.49 159.38 108.605 161.542 107.095C163.675 105.628 165.214 104.656 166.186 104.191C170.554 101.984 173.267 100.822 174.312 100.706C175.052 100.634 175.749 100.808 176.402 101.229C177.099 101.65 177.447 102.173 177.447 102.797C177.447 103.45 177.258 104.263 176.866 105.236C176.475 106.238 176.286 106.979 176.286 107.443C176.097 107.443 177.911 106.354 181.742 104.191C185.922 101.752 188.113 100.547 188.301 100.59C188.722 100.663 188.94 101.011 188.94 101.636C188.94 101.752 187.126 103.029 183.484 105.469L180.581 107.443C179.348 108.329 178.259 109.069 177.331 109.65C177.215 109.81 177.258 110.303 177.447 111.16C177.519 111.668 177.868 112.22 178.492 112.844C179.304 113.614 180.189 113.991 181.162 113.948C183.063 113.875 184.833 113.439 186.502 112.67C187.779 112.046 189.753 110.826 192.423 109.011C194.745 107.429 196.022 106.63 196.254 106.63C196.558 106.63 196.762 106.819 196.834 107.211ZM215.351 106.688C215.351 108.851 213.827 111.175 210.765 113.657C207.979 115.937 204.917 117.04 201.594 116.968C199.664 116.924 198.169 116.343 197.124 115.225C196.239 114.253 195.833 113.091 195.905 111.741C195.978 109.577 196.907 107.966 198.692 106.92C198.996 106.732 199.62 106.63 200.549 106.63C200.781 106.47 201.115 106.165 201.536 105.701C202 105.236 202.349 104.931 202.581 104.772C205.643 102.957 208.139 102.042 210.069 102.042C211.65 102.042 212.927 102.492 213.9 103.378C214.872 104.234 215.351 105.338 215.351 106.688ZM213.145 106.34C213.145 105.062 212.202 104.38 210.301 104.307C208.255 104.234 206.296 104.96 204.438 106.514C204.162 106.703 203.8 107.153 203.335 107.85C202.943 108.43 202.537 108.779 202.116 108.895C201.884 108.939 201.637 108.939 201.362 108.895H200.607C199.954 108.968 199.345 109.432 198.808 110.289C198.416 110.986 198.227 111.523 198.227 111.915C198.227 112.684 198.619 113.381 199.388 114.006C200.201 114.586 201.13 114.877 202.174 114.877C204.148 114.877 206.397 114.049 208.908 112.38C211.738 110.478 213.145 108.474 213.145 106.34ZM274.79 107.327C274.834 108.067 272.236 109.882 267.012 112.786C263.834 114.528 261.28 115.385 259.35 115.341C255.94 115.225 254.242 113.991 254.242 111.625C254.242 110.579 254.663 109.258 255.519 107.675C255.794 107.138 256.259 106.412 256.912 105.527C257.565 104.641 257.957 104.075 258.073 103.842C256.331 104.351 253.502 105.817 249.598 108.256C245.956 110.463 243.561 111.973 242.4 112.786C239.73 114.645 238.99 115.646 238.453 115.574C237.916 115.501 237.641 115.269 237.641 114.877C237.684 114.572 237.916 113.948 238.337 113.018C238.845 111.93 239.15 111.233 239.266 110.928C239.658 109.766 239.846 108.764 239.846 107.908C239.382 108.184 238.439 108.793 237.002 109.766C235.377 110.855 234.114 111.668 233.229 112.205C227.961 115.385 224.45 116.968 222.665 116.968C221.431 116.968 220.415 116.619 219.646 115.922C218.79 115.153 218.369 114.107 218.369 112.786C218.369 112.089 218.95 110.971 220.111 109.418C221.344 107.748 222.36 106.935 223.129 106.979C223.753 106.979 224.101 107.327 224.174 108.024C224.217 108.416 223.985 108.793 223.477 109.185C222.824 109.65 222.432 109.998 222.316 110.231C221.547 111.552 221.112 112.597 221.039 113.367C220.996 113.715 221.155 114.064 221.504 114.412C221.852 114.717 222.2 114.877 222.549 114.877C223.521 114.877 226.771 113.323 232.3 110.231C234.695 108.881 237.104 107.254 239.498 105.352C242.676 102.913 243.493 101.87 243.91 101.636C244.795 101.708 245.23 102.057 245.187 102.681C245.168 102.941 244.795 103.77 244.026 106.398L243.445 108.953C245.723 107.908 248.248 106.557 250.991 104.888C255.911 102.057 259.306 100.706 261.207 100.823C262.02 100.895 262.412 101.215 262.368 101.752C262.326 101.87 261.788 102.565 260.627 104.307C260.395 104.699 259.945 105.309 259.292 106.165C258.784 106.862 258.378 107.516 258.073 108.14C257.304 109.65 256.868 110.768 256.796 111.508C256.723 112.438 257.565 112.975 259.35 113.135C260.743 113.251 262.789 112.626 265.503 111.276C266.736 110.652 268.521 109.606 270.843 108.14C272.744 106.979 273.789 106.398 273.977 106.398C274.485 106.398 274.746 106.703 274.79 107.327ZM307.702 105.004C307.862 106.674 306.004 108.997 302.13 111.973C297.675 115.341 294.976 116.968 294.003 116.851C292.958 116.692 292.422 116.343 292.378 115.806C292.378 115.646 293.147 113.831 294.7 110.347C292.683 110.347 290.869 110.695 289.243 111.392L283.091 118.013C281.698 119.566 279.782 121.309 277.344 123.24C274.717 125.33 273.063 126.303 272.41 126.144C271.902 126.027 271.656 125.723 271.656 125.214L281.001 116.735C282.278 115.53 283.511 113.948 284.716 111.973C285.529 110.507 285.949 109.606 285.993 109.302C280.928 112.162 277.678 113.556 276.241 113.483C275.661 113.439 275.196 113.135 274.848 112.554C274.543 112.017 274.427 111.392 274.5 110.695C274.732 108.096 275.936 105.628 278.099 103.262C281.001 100.082 283.961 98.4995 286.98 98.4995C288.678 98.4995 290.013 100.169 290.985 103.494C293.147 100.43 295.585 97.338 298.299 94.2019C302.899 88.9315 305.453 86.26 305.961 86.1874C306.657 86.0712 307.006 86.3761 307.006 87.1166L300.272 95.4795C295.933 100.823 293.118 104.38 291.798 106.165C291.406 107.603 291.29 108.503 291.449 108.895C291.957 108.59 292.654 108.082 293.539 107.385C294.308 106.804 295.092 106.282 295.861 105.817C299.619 103.45 302.551 102.26 304.684 102.216C306.541 102.173 307.543 103.102 307.702 105.004ZM288.779 104.191C288.474 101.984 287.662 100.895 286.341 100.939C283.947 101.011 281.581 102.521 279.26 105.469C277.823 107.327 277.039 108.953 276.88 110.347C276.807 110.739 276.981 110.971 277.402 111.044C277.678 111.087 279.724 110.115 283.555 108.14C284.295 107.748 285.195 107.095 286.283 106.165C287.676 105.048 288.503 104.38 288.779 104.191ZM305.38 105.352C305.424 104.815 305.076 104.496 304.335 104.423C302.826 104.307 301.245 104.844 299.576 106.049C298.458 106.906 297.718 107.516 297.37 107.908C297.878 108.489 298.139 108.953 298.183 109.302C298.226 109.65 297.994 110.332 297.486 111.334C296.906 112.38 296.601 113.091 296.557 113.483C300.229 110.768 302.13 109.345 302.246 109.185C304.292 107.138 305.337 105.861 305.38 105.352ZM367.257 107.327C367.214 108.14 365.24 109.839 361.337 112.438C356.766 115.414 353.326 116.924 351.005 116.968C350.308 116.968 349.727 116.634 349.263 115.98C348.842 115.4 348.639 114.717 348.683 113.948C348.755 112.902 349.916 111.116 352.165 108.605C354.023 106.441 354.995 105.236 355.068 105.004C354.415 105.396 353.486 105.817 352.281 106.282C350.7 106.935 349.611 107.4 349.031 107.675C346.085 109.302 342.835 110.739 339.279 111.973C328.947 123.545 322.983 130.165 321.401 131.835C309.211 144.612 303.828 151 303.291 151C302.754 151 302.434 150.811 302.362 150.419C302.362 150.303 308.283 143.566 320.124 130.209L325.058 124.808C326.843 122.833 328.671 120.757 330.572 118.594C335.376 113.135 338.858 109.113 341.021 106.514L338.815 107.675C336.304 109.113 336.316 109.948 335.564 109.882C335.172 109.839 334.795 109.49 334.403 108.837C334.128 108.3 336.029 106.906 340.092 104.656C340.977 104.191 341.964 103.596 343.052 102.855C344.17 102.115 345.011 101.592 345.548 101.287C346.898 100.169 347.885 99.6755 348.509 99.8352C349.089 99.9514 349.379 100.242 349.379 100.706C349.32 100.973 348.378 101.752 346.361 104.075C344.503 106.165 343.342 107.516 342.878 108.14C344.344 107.792 346.782 106.746 350.192 105.004C354.212 102.841 357.041 101.752 358.667 101.752C359.131 101.752 359.32 102.144 359.247 102.913C359.087 104.002 357.665 105.89 354.952 108.605C352.281 111.392 350.961 113.178 351.005 113.948C351.077 114.572 351.353 114.877 351.817 114.877C353.283 114.877 356.113 113.527 360.292 110.812C364.283 108.184 366.285 106.862 366.329 106.862C366.953 106.79 367.257 106.935 367.257 107.327ZM329.876 106.688C329.876 108.851 328.352 111.175 325.29 113.657C322.504 115.937 319.442 117.04 316.119 116.968C314.189 116.924 312.694 116.343 311.649 115.225C310.764 114.253 310.358 113.091 310.43 111.741C310.503 109.577 311.432 107.966 313.217 106.92C313.521 106.732 314.145 106.63 315.074 106.63C315.306 106.47 315.64 106.165 316.061 105.701C316.525 105.236 316.873 104.931 317.106 104.772C320.168 102.957 322.663 102.042 324.594 102.042C326.175 102.042 327.452 102.492 328.425 103.378C329.397 104.234 329.876 105.338 329.876 106.688ZM327.67 106.34C327.67 105.062 326.727 104.38 324.826 104.307C322.78 104.234 320.821 104.96 318.963 106.514C318.687 106.703 318.325 107.153 317.86 107.85C317.468 108.43 317.062 108.779 316.641 108.895C316.409 108.939 316.162 108.939 315.887 108.895H315.132C314.479 108.968 313.87 109.432 313.333 110.289C312.941 110.986 312.752 111.523 312.752 111.915C312.752 112.684 313.144 113.381 313.913 114.006C314.726 114.586 315.654 114.877 316.699 114.877C318.673 114.877 320.922 114.049 323.433 112.38C326.262 110.478 327.67 108.474 327.67 106.34ZM426 107.211C425.927 108.416 422.749 110.884 416.48 114.645C412.693 116.895 409.355 118.129 406.497 118.361C405.64 118.434 404.871 118.115 404.175 117.374C403.478 116.634 403.13 115.733 403.13 114.645C403.13 113.948 403.899 112.089 405.452 109.069C405.684 108.561 406.264 107.675 407.193 106.398C407.933 105.425 408.281 104.772 408.238 104.423C408.194 103.886 407.817 103.567 407.077 103.494C405.989 103.421 402.97 104.96 398.022 108.14C397.282 108.837 396.237 110.071 394.887 111.857C393.683 113.41 392.754 114.18 392.101 114.18C391.288 114.18 390.781 113.715 390.592 112.786C390.548 112.626 391.709 111.32 394.075 108.837C395.773 107.095 396.629 105.57 396.629 104.249C396.629 103.363 396.121 102.913 395.12 102.913C393.886 102.913 392.406 103.218 390.708 103.842C387.414 105.077 384.831 106.47 382.93 108.024C382.045 108.764 381.116 109.65 380.144 110.695C378.939 112.017 378.127 112.859 377.706 113.251C375.805 114.92 374.644 115.733 374.223 115.69C373.526 115.574 373.135 115.066 373.062 114.18C373.018 113.759 373.947 112.554 375.848 110.579C378.127 108.213 379.258 106.746 379.215 106.165C379.142 105.309 378.707 104.888 377.938 104.888C376.937 104.888 375.079 105.541 372.365 106.862C371.669 107.167 370.581 107.893 369.115 109.011C367.91 109.897 367.185 110.303 366.909 110.231C366.024 109.998 365.589 109.65 365.632 109.185C365.748 108.213 367.722 106.703 371.553 104.656C373.642 103.538 376.124 102.841 378.983 102.565C379.679 102.492 380.361 102.841 381.014 103.61C381.551 104.307 381.885 105.004 382.001 105.701C382.973 104.96 385.034 103.959 388.212 102.681C391.579 101.287 393.886 100.59 395.12 100.59C397.166 100.59 398.414 101.519 398.834 103.378C398.994 103.959 399.067 104.496 399.067 105.004C399.575 104.844 401.055 104.089 403.536 102.739C405.626 101.65 407.033 101.127 407.774 101.171C409.704 101.287 410.719 102.144 410.792 103.726C410.803 103.966 409.82 105.425 407.89 109.302C406.264 112.626 405.452 114.369 405.452 114.528C405.452 115.617 405.873 116.155 406.729 116.155C408.514 116.155 411.445 115.037 415.552 112.786C416.829 112.089 418.875 110.695 421.705 108.605C423.838 107.051 425.115 106.325 425.536 106.398C425.84 106.47 426 106.746 426 107.211Z" stroke="#46A6C9"/>
<defs>
<linearGradient id="paint0_linear_123_21921" x1="-18.9112" y1="-17.5125" x2="443.662" y2="142.429" gradientUnits="userSpaceOnUse">
<stop stop-color="#88C7DA"/>
<stop offset="1" stop-color="#075A78"/>
</linearGradient>
<linearGradient id="paint1_linear_123_21921" x1="-18.9112" y1="-17.5125" x2="443.662" y2="142.429" gradientUnits="userSpaceOnUse">
<stop stop-color="#88C7DA"/>
<stop offset="1" stop-color="#075A78"/>
</linearGradient>
<linearGradient id="paint2_linear_123_21921" x1="-18.9112" y1="-17.5125" x2="443.662" y2="142.429" gradientUnits="userSpaceOnUse">
<stop stop-color="#88C7DA"/>
<stop offset="1" stop-color="#075A78"/>
</linearGradient>
</defs>
</svg>
