<svg width="214" height="82" viewBox="0 0 214 82" fill="none" xmlns="http://www.w3.org/2000/svg">
<path d="M43.8007 17.1052C43.6736 17.835 41.6886 19.0404 37.8458 20.7214C34.5771 22.1277 32.342 22.8575 31.1362 22.9067C30.7835 22.9313 30.4595 22.8206 30.156 22.5664C29.8526 22.3163 29.7541 22.0252 29.8526 21.7013C29.951 21.3241 30.3283 20.6353 30.9845 19.6308C31.8908 18.2245 32.465 17.3061 32.7193 16.8797C33.0474 16.277 33.6379 15.2971 34.491 13.94L36.111 11.3037L32.4158 13.7145C29.7008 15.498 27.8922 16.7813 26.9899 17.5562C22.5688 21.4758 20.5059 23.4602 20.8094 23.5094C20.0302 23.3331 19.6529 23.083 19.6775 22.755C19.7021 22.4024 21.3098 20.0941 24.5005 15.8219C27.0884 12.3287 28.8847 9.56531 29.8895 7.53171C30.6195 6.10081 31.0091 5.24801 31.0583 4.96921L18.1683 14.6165C10.1504 20.5943 5.07727 23.534 2.94055 23.4356C0.980184 23.3085 0 22.4065 0 20.7214C0 20.2458 0.237869 19.5652 0.717708 18.6878C1.19345 17.7571 1.60767 17.2569 1.96037 17.179C2.46071 17.0806 2.73959 17.3307 2.78881 17.9334C2.81342 18.2081 2.67397 18.573 2.37459 19.0281C2.04649 19.5037 1.88655 19.7948 1.88655 19.8932C1.88655 21.1478 2.31307 21.7792 3.16612 21.7792C5.50379 21.7792 9.90027 19.2905 16.3596 14.3172L27.5928 5.72771C31.8662 2.31241 34.3762 0.627309 35.1308 0.676509C35.8075 0.725709 36.0864 0.979909 35.9592 1.43091C35.8854 1.68101 35.5204 2.20991 34.8642 3.01351C34.085 3.99341 33.4944 4.84621 33.0925 5.57601C32.8669 5.95321 32.465 6.70761 31.8867 7.83511C31.2839 9.01591 30.804 9.89331 30.4554 10.4714C30.0781 11.0987 29.4998 12.0048 28.7206 13.1856L27.3631 15.2192C27.9414 14.9158 29.4999 13.9646 32.0385 12.3533C33.4206 11.4759 34.9544 10.4427 36.6359 9.26191C36.9394 8.95851 37.3372 8.50751 37.8417 7.90481L39.1212 6.47391C40.5279 4.91591 41.4343 4.13691 41.8362 4.13691C42.2135 4.13691 42.5252 4.27631 42.7795 4.55101C43.0543 4.82571 43.1691 5.14141 43.1199 5.49401C43.1199 5.34231 42.517 6.04751 41.3113 7.60551L39.5765 9.49151C38.7234 10.4222 38.0918 11.2504 37.6899 11.9802C37.288 12.7592 36.2586 14.4443 34.5976 17.0314C33.2155 19.1921 32.5101 20.3975 32.4855 20.6476C32.4855 20.8977 32.5839 21.0494 32.789 21.0986C33.1909 21.1724 34.8232 20.5984 37.6899 19.3643C38.4938 19.0117 39.6257 18.3967 41.0816 17.5193C42.312 16.7895 42.9928 16.4246 43.1158 16.4246C43.6448 16.4246 43.8704 16.6501 43.7925 17.1011L43.8007 17.1052ZM69.5069 17.179C69.5069 17.9334 67.5712 19.3643 63.7038 21.4758C61.1159 22.8821 59.0038 23.5873 57.3715 23.5873C56.5431 23.5873 55.8869 23.2839 55.4112 22.6812C55.0092 22.1523 54.8329 21.5742 54.8821 20.9469C54.9559 20.1433 55.1077 19.516 55.3332 19.0609C54.8821 19.1634 54.4023 19.2126 53.9019 19.2126L51.6422 19.6636C50.9122 20.5943 50.2108 21.2954 49.5301 21.7751C48.2751 22.6566 47.0406 23.1076 45.8349 23.1322C45.1828 23.1568 44.6537 22.9436 44.2518 22.4926C43.8991 22.1154 43.7228 21.6767 43.7228 21.1724C43.7228 20.746 44.7522 19.3889 46.8151 17.1011C46.6879 17.1749 46.4747 17.2774 46.1753 17.4045C45.8718 17.507 45.6339 17.6054 45.4576 17.7079C44.4036 18.3352 43.8253 18.6386 43.7228 18.614C43.2224 18.4869 43.0215 18.1876 43.1199 17.7079C43.1691 17.5316 43.7228 17.1421 44.7768 16.5394C46.0563 15.785 46.8356 15.2971 47.1145 15.0716C49.9033 13.0134 51.1336 12.0089 50.8096 12.0581C51.0598 12.0335 51.2854 12.1073 51.4863 12.2836C51.6873 12.4599 51.7898 12.6608 51.7898 12.8863C51.7898 13.6161 51.4125 14.4443 50.6579 15.375L49.8294 16.5804C50.2314 16.6296 50.6825 16.8059 51.1869 17.1093C51.5888 17.3348 51.9416 17.6382 52.2409 18.0154L54.0496 17.7899C55.0544 17.7407 55.7064 17.6628 56.0099 17.5644C56.2109 17.4373 56.5513 17.1503 57.027 16.6993L58.1959 15.6046C58.8972 15.0019 59.4262 14.6985 59.7789 14.6985C60.0537 14.6739 60.2957 14.7723 60.4966 15.0019C60.673 15.1782 60.7591 15.3545 60.7591 15.5308C60.7591 15.3545 59.9799 16.1827 58.4214 18.0195C57.2649 19.4258 56.6866 20.3565 56.6866 20.8075C56.6866 21.689 57.0639 22.1154 57.8186 22.0867C58.848 22.0375 60.431 21.5086 62.5677 20.5041C63.5233 20.0777 64.8521 19.2618 66.5623 18.0564C67.9936 17.0765 68.7974 16.5886 68.9738 16.5886C69.3265 16.6132 69.5028 16.8141 69.5028 17.1913L69.5069 17.179ZM49.7556 18.9871C49.7556 18.737 49.5793 18.5361 49.2266 18.3844C48.5499 18.081 48.271 17.9826 48.3981 18.081C48.2464 18.2327 47.9224 18.5074 47.4179 18.9092C46.2368 19.8891 45.6585 20.5943 45.6831 21.0207C45.7077 21.2954 45.9579 21.4717 46.4378 21.5496C47.016 21.5988 47.6927 21.3241 48.4719 20.7214C49.325 20.0695 49.7515 19.4914 49.7515 18.9871H49.7556Z" fill="url(#paint0_linear_35_20588)"/>
<path d="M94.7785 18.7657C94.7292 19.4176 92.8427 20.5984 89.1229 22.3081C85.9814 23.7144 83.6437 24.395 82.114 24.3417C81.3348 24.3171 80.6704 24.0793 80.1167 23.6242C79.5138 23.124 79.1734 22.4557 79.0996 21.6275C78.9725 20.1474 79.7763 18.3352 81.5111 16.2032C83.7217 13.5136 85.7558 12.1606 87.6178 12.1319C88.2945 12.1073 88.8235 12.4476 89.2008 13.1487C89.5535 13.7514 89.7176 14.4689 89.6889 15.2971C89.6643 15.9736 89.4633 16.6665 89.086 17.3676C88.6841 18.122 88.2945 18.4869 87.9172 18.4623C87.5153 18.4131 87.3389 18.1343 87.3881 17.6341C87.3881 17.6833 87.5645 17.2692 87.9172 16.3918C88.2207 15.7153 88.2945 15.1495 88.1427 14.6944C87.9172 13.9154 87.6916 13.5382 87.466 13.5628C85.7805 13.7391 84.1728 14.9199 82.643 17.1052C81.4373 18.8641 80.8098 20.2458 80.7565 21.2503C80.7073 22.5582 81.2076 23.1363 82.2657 22.9846C83.7463 22.7837 85.7066 22.181 88.1468 21.1765C89.1024 20.7993 90.3697 20.1474 91.9527 19.2167C93.3595 18.3885 94.1264 17.9621 94.2535 17.9375C94.6554 17.8637 94.8318 18.1384 94.7826 18.7657H94.7785ZM107.18 17.5234C107.18 18.9297 106.188 20.4385 104.203 22.0457C102.394 23.5299 100.409 24.2433 98.2481 24.1941C96.9931 24.1695 96.0252 23.7923 95.3444 23.0625C94.7662 22.4352 94.5037 21.6808 94.5529 20.8034C94.6021 19.3971 95.205 18.3557 96.3615 17.6751C96.5625 17.548 96.9644 17.4865 97.5673 17.4865C97.719 17.3881 97.9323 17.1831 98.2071 16.8838C98.5105 16.5804 98.7361 16.3836 98.8838 16.2811C100.869 15.1003 102.489 14.5099 103.748 14.5099C104.777 14.5099 105.606 14.801 106.237 15.375C106.865 15.9285 107.18 16.6419 107.18 17.5234ZM105.749 17.2979C105.749 16.4697 105.134 16.031 103.904 15.9777C102.571 15.9285 101.303 16.4041 100.098 17.4086C99.9213 17.5357 99.6835 17.8227 99.38 18.2737C99.1298 18.6509 98.8632 18.8764 98.5885 18.9502C98.4367 18.9748 98.2727 18.9748 98.1004 18.9502H97.6124C97.1859 18.9994 96.7962 19.3028 96.4435 19.8563C96.1934 20.3073 96.0662 20.6599 96.0662 20.91C96.0662 21.4143 96.3164 21.8653 96.8209 22.2671C97.3499 22.6443 97.9528 22.8329 98.6295 22.8329C99.909 22.8329 101.369 22.2917 103.001 21.2134C104.835 19.9834 105.753 18.6755 105.753 17.2938L105.749 17.2979ZM123.729 18.3147C123.68 18.7411 122.22 19.9465 119.357 21.9309C118.049 22.837 117.146 23.4889 116.642 23.8907C116.593 24.0178 116.154 25.5102 115.321 28.3761C114.694 30.5614 114.152 32.2301 113.701 33.3863C112.795 35.6987 111.491 37.6298 109.781 39.1878C107.344 41.3731 105.007 42.4022 102.772 42.2792C101.664 42.23 100.725 41.8528 99.946 41.1476C99.1667 40.3932 98.7894 39.4912 98.814 38.4334C98.8386 36.3465 101.64 33.1075 107.221 28.7123C106.893 28.9624 109.51 27.2035 115.063 23.4356C115.563 22.6812 115.818 21.8776 115.818 21.0248C115.818 19.7169 115.063 19.065 113.558 19.065C113.406 19.065 113.193 19.1552 112.918 19.3274C112.692 19.5037 112.504 19.5652 112.352 19.516C111.901 19.3397 111.7 19.0896 111.749 18.7616C111.725 18.8641 112.705 17.7325 114.69 15.3709C115.92 13.8908 116.548 13.0585 116.576 12.8822C116.601 12.5296 116.4 12.3533 115.973 12.3533C115.395 12.3533 114.489 12.5788 113.258 13.0298C112.93 13.1569 112.479 13.4193 111.901 13.8211C111.474 14.1491 111.196 14.2844 111.072 14.2352C110.671 14.1081 110.47 13.8826 110.47 13.5587C110.47 13.0585 111.323 12.4517 113.033 11.7506C114.087 11.3242 115.494 11.0741 117.253 10.9962C117.88 10.9716 118.233 11.3242 118.307 12.0499C118.356 12.5542 117.753 13.6079 116.498 15.2151L114.612 17.6259C116.244 17.9785 117.126 18.7821 117.249 20.0367C117.273 20.3893 117.249 20.9182 117.175 21.6193C117.351 21.6193 118.332 20.992 120.116 19.7333C122.002 18.3762 123.056 17.6997 123.282 17.6997C123.585 17.6997 123.733 17.9006 123.733 18.3024L123.729 18.3147ZM114.833 25.174C114.731 25.2478 113.828 25.8136 112.118 26.8714C110.584 27.8513 109.354 28.7164 108.423 29.4708C105.507 31.8816 103.649 33.4888 102.845 34.2924C101.037 36.1497 100.184 37.6831 100.282 38.8885C100.331 39.5158 100.66 40.0324 101.262 40.4342C101.767 40.7622 102.345 40.9508 102.997 41C104.506 41.0984 106.364 40.2456 108.575 38.4375C110.183 37.1296 111.565 35.0222 112.721 32.1071C113.299 30.6229 114.001 28.3146 114.833 25.174ZM143.328 6.06801C143.328 9.81131 141.671 13.817 138.354 18.0892C135.011 22.4598 132.173 24.6451 129.835 24.6451C128.855 24.6451 128.191 24.4934 127.838 24.1941C127.461 23.8907 127.248 23.3167 127.198 22.4598C127.125 21.3528 128.404 19.5693 131.041 17.1093C132.649 15.6005 134.031 14.8748 135.187 14.924C135.212 14.924 136.016 15.375 137.599 16.2811C140.363 13.3414 141.745 10.0532 141.745 6.40831C141.745 4.09591 140.728 2.57891 138.694 1.84911C137.714 1.52111 136.118 1.36121 133.908 1.36121C128.708 1.36121 123.302 2.24271 117.7 3.99751C115.161 4.80111 112.135 6.01881 108.616 7.65471L103.982 9.80311C103.678 9.80311 103.53 9.65141 103.53 9.35211C103.555 8.87651 105.204 7.87201 108.468 6.33861C111.61 4.88311 114.435 3.75151 116.949 2.94791C123.007 0.988109 128.535 0.00820923 133.535 0.00820923C136.652 0.00820923 138.948 0.360809 140.433 1.06191C142.369 1.99261 143.337 3.66131 143.337 6.07211L143.328 6.06801ZM136.016 18.0113C135.815 17.4086 135.462 17.0068 134.962 16.8059C134.609 16.6788 134.043 16.8305 133.264 17.2569C132.509 17.6587 131.87 18.163 131.341 18.7657C129.733 20.5738 128.876 21.8325 128.777 22.5336C128.728 22.7837 129.081 23.0092 129.831 23.2101C130.508 23.411 131.841 22.632 133.826 20.8731C134.982 19.8194 135.712 18.8641 136.012 18.0072L136.016 18.0113ZM166.508 18.4623C166.508 18.6386 164.687 19.9465 161.041 22.3819C158.429 24.1408 156.255 25.0182 154.52 25.0182C153.266 25.0182 152.486 24.4647 152.183 23.3618C152.031 22.7837 152.019 22.1072 152.146 21.3282C151.092 22.0334 150.112 22.6074 149.205 23.0625C147.647 23.8661 146.326 24.2679 145.248 24.2679C143.738 24.2679 142.988 23.4889 142.988 21.9309C142.988 20.623 144.132 18.7534 146.417 16.318C148.877 13.6038 150.649 12.2631 151.732 12.2877C152.987 12.3369 154.045 12.9396 154.898 14.0958C155.123 14.3992 155.386 15.0388 155.689 16.0187C156.768 15.3668 157.182 15.0265 156.932 15.0019C157.711 15.0511 158.064 15.3545 157.986 15.908C157.912 16.359 157.346 17.1503 156.288 18.2819C155.484 19.2126 154.857 19.8645 154.402 20.2417C153.848 21.5496 153.585 22.3122 153.61 22.5418C153.684 23.1937 154.061 23.5217 154.742 23.5217C155.796 23.5217 157.621 22.7673 160.209 21.2626C164.404 18.8272 166.328 17.6218 165.975 17.6464C166.328 17.6218 166.504 17.8965 166.504 18.4746L166.508 18.4623ZM154.221 16.2032C154.221 15.8014 153.971 15.2971 153.466 14.6944C152.937 14.0671 152.437 13.7637 151.957 13.7883C151.051 13.8375 149.521 15.0429 147.36 17.4045C145.35 19.639 144.395 21.1478 144.493 21.9268C144.567 22.4557 144.944 22.755 145.625 22.8329C146.125 22.8821 147.171 22.4803 148.754 21.6275C151.317 20.295 153.114 18.9502 154.143 17.5972L154.217 16.2032H154.221ZM178.533 18.0113C178.508 18.286 176.823 19.5939 173.48 21.9309C171.446 23.3372 169.687 24.1408 168.202 24.3417C167.673 24.4155 167.136 24.2146 166.582 23.739C166.004 23.288 165.717 22.7837 165.717 22.2302C165.717 20.4713 166.598 18.3885 168.354 15.9736C169.633 14.2147 170.79 13.3373 171.823 13.3373C172.352 13.3373 172.828 13.6284 173.255 14.2024C173.632 14.7559 173.808 15.3217 173.784 15.8998C173.735 17.2815 172.73 18.5115 170.769 19.5939C169.941 20.0449 168.858 20.4467 167.529 20.7993C167.328 21.1765 167.226 21.6029 167.226 22.0785C167.226 22.5049 167.628 22.755 168.432 22.8329C168.932 22.8575 170.216 22.2794 172.275 21.0986C176.421 18.6878 178.332 17.4824 178.004 17.4824C178.381 17.4824 178.558 17.6587 178.533 18.0113ZM172.275 15.826C172.275 15.2725 172.049 14.9978 171.598 14.9978C171.02 14.9978 170.367 15.6005 169.637 16.8059L168.206 19.2167C169.387 19.0158 170.318 18.5894 170.995 17.9375C171.848 17.1339 172.275 16.4287 172.275 15.826ZM214 17.9375C214.025 18.4131 212.343 19.5939 208.947 21.4799C206.889 22.6115 205.228 23.165 203.973 23.1363C201.762 23.0625 200.655 22.2589 200.655 20.7255C200.655 20.049 200.929 19.1921 201.483 18.163C201.66 17.8104 201.959 17.3471 202.39 16.769C202.816 16.1909 203.066 15.826 203.144 15.6743C202.012 16.0023 200.179 16.9535 197.64 18.5402C195.278 19.9711 193.72 20.951 192.965 21.4799C191.23 22.6853 190.377 23.288 190.402 23.288C190.049 23.2388 189.873 23.0871 189.873 22.837C189.897 22.6361 190.049 22.2343 190.324 21.6316C190.652 20.9305 190.853 20.4754 190.927 20.2745C191.177 19.5201 191.304 18.8682 191.304 18.3147C191.001 18.491 190.385 18.8928 189.458 19.5201C188.404 20.2253 187.584 20.7501 187.01 21.1027C183.594 23.1609 181.305 24.1941 180.149 24.1941C179.345 24.1941 178.693 23.9686 178.188 23.5176C177.635 23.0174 177.36 22.3368 177.36 21.484C177.36 21.033 177.737 20.3032 178.492 19.2987C179.296 18.2204 179.948 17.6915 180.452 17.7161C180.854 17.7161 181.08 17.9416 181.129 18.3926C181.154 18.6427 181.002 18.8969 180.678 19.147C180.251 19.4504 180.001 19.6759 179.923 19.8235C179.419 20.6763 179.144 21.3569 179.095 21.8571C179.07 22.0826 179.169 22.3081 179.398 22.5336C179.624 22.7345 179.849 22.837 180.075 22.837C180.702 22.837 182.815 21.8325 186.407 19.8235C187.966 18.9461 189.524 17.8883 191.083 16.6583C193.141 15.0757 194.097 14.2721 193.945 14.2475C194.523 14.2967 194.798 14.5222 194.774 14.924C194.774 14.8256 194.523 15.6292 194.019 17.3348L193.642 18.9912C195.122 18.3147 196.759 17.4332 198.543 16.3549C201.733 14.5222 203.944 13.6407 205.178 13.7186C205.707 13.7678 205.958 13.9687 205.933 14.3213C205.933 14.2967 205.556 14.8502 204.801 15.9777C204.649 16.2278 204.362 16.6296 203.936 17.1831C203.608 17.6341 203.345 18.0646 203.144 18.4623C202.64 19.4422 202.365 20.172 202.316 20.6476C202.266 21.2503 202.816 21.6029 203.973 21.7013C204.879 21.7751 206.208 21.3733 207.967 20.4959C208.771 20.0941 209.928 19.4176 211.437 18.4623C212.667 17.7079 213.348 17.3307 213.471 17.3307C213.799 17.3307 213.971 17.5316 214 17.9334V17.9375Z" fill="url(#paint1_linear_35_20588)"/>
<path d="M50.6784 53.587C50.703 53.9888 50.014 54.7309 48.6073 55.8092C47.176 56.8916 45.88 57.6829 44.7235 58.1831C43.0666 58.8883 41.6066 59.2368 40.3516 59.2368C38.9449 59.2368 37.8868 58.6833 37.1855 57.5804C37.0583 57.4041 36.8943 57.1171 36.6974 56.7153C36.4719 56.2151 36.3078 55.8748 36.2094 55.6985C36.033 55.8502 35.668 56.1249 35.1144 56.5267C34.6099 56.8793 34.1957 57.2032 33.8717 57.5066C33.7446 57.6091 33.3304 58.1093 32.6291 59.0154C32.0262 59.7698 31.612 60.147 31.3864 60.147C30.8327 60.147 30.5046 59.9707 30.4062 59.6181C30.3816 59.5443 31.4356 58.261 33.5723 55.7764C35.5327 53.5419 36.5129 52.1069 36.5129 51.4796C36.5129 51.0532 36.2873 50.8031 35.8362 50.7252C35.4343 50.676 34.0522 51.3033 31.6899 52.6112C31.1608 52.8859 30.1068 53.5788 28.5238 54.6817C27.2934 55.5632 26.588 55.9773 26.4117 55.924C25.7596 55.7969 25.4807 55.5714 25.5832 55.2475C25.6324 55.0712 26.3624 54.4931 27.7691 53.5132C29.1512 52.5579 30.156 51.9306 30.7835 51.6272C33.6215 50.1963 35.381 49.4419 36.0617 49.3681C36.5375 49.3189 36.9927 49.4296 37.4192 49.7084C37.8704 49.9831 38.0959 50.3234 38.0959 50.7252C38.0959 51.1516 37.9688 51.6805 37.7186 52.3078C37.4685 52.9597 37.3413 53.4394 37.3413 53.7387C37.2142 53.7387 38.3953 53.0376 40.8847 51.6272C43.5997 50.0446 45.0187 49.2656 45.1459 49.2902C45.4207 49.3394 45.5601 49.5649 45.5601 49.9667C45.5601 50.0405 44.379 50.8728 42.0167 52.4554L40.1301 53.7346C39.3263 54.3127 38.6209 54.7883 38.018 55.1655C37.9442 55.268 37.9688 55.5919 38.0918 56.1454C38.141 56.4734 38.3666 56.8383 38.7685 57.2401C39.2976 57.7444 39.8759 57.9822 40.5033 57.9576C41.7337 57.9084 42.8902 57.6296 43.9729 57.1294C44.8014 56.7276 46.0851 55.9363 47.8158 54.7555C49.325 53.7264 50.1534 53.2098 50.3052 53.2098C50.5061 53.2098 50.6333 53.3369 50.6825 53.587H50.6784ZM62.7031 53.2467C62.7031 54.653 61.7106 56.1618 59.7256 57.769C57.917 59.2532 55.932 59.9666 53.7707 59.9174C52.5157 59.8928 51.5478 59.5156 50.867 58.7858C50.2888 58.1585 50.0263 57.4041 50.0755 56.5267C50.1247 55.1204 50.7276 54.079 51.8841 53.3984C52.0851 53.2713 52.487 53.2098 53.0899 53.2098C53.2416 53.1114 53.4549 52.9064 53.7297 52.6071C54.0332 52.3037 54.2587 52.1069 54.4064 52.0044C56.3913 50.8236 58.0113 50.2332 59.2704 50.2332C60.2998 50.2332 61.1282 50.5243 61.7598 51.0983C62.3873 51.6518 62.7031 52.3652 62.7031 53.2467ZM61.2718 53.0212C61.2718 52.193 60.6566 51.7543 59.4262 51.701C58.0933 51.6518 56.8261 52.1274 55.6203 53.1319C55.444 53.259 55.2061 53.546 54.9026 53.997C54.6524 54.3742 54.3859 54.5997 54.1111 54.6735C53.9593 54.6981 53.7953 54.6981 53.623 54.6735H53.135C52.7085 54.7227 52.3189 55.0261 51.9662 55.5796C51.716 56.0306 51.5888 56.3832 51.5888 56.6333C51.5888 57.1376 51.839 57.5886 52.3435 57.9904C52.8725 58.3676 53.4754 58.5562 54.1521 58.5562C55.4317 58.5562 56.8917 58.015 58.524 56.9367C60.3572 55.7067 61.2759 54.3988 61.2759 53.0171L61.2718 53.0212ZM101.303 53.6608C101.328 54.1364 99.6466 55.3172 96.2508 57.2032C94.192 58.3348 92.531 58.8883 91.276 58.8596C89.0655 58.7858 87.9582 57.9822 87.9582 56.4488C87.9582 55.7723 88.233 54.9154 88.7866 53.8863C88.963 53.5337 89.2624 53.0704 89.693 52.4923C90.1195 51.9142 90.3697 51.5493 90.4476 51.3976C89.3157 51.7256 87.4825 52.6768 84.9438 54.2635C82.5815 55.6944 81.0231 56.6743 80.2685 57.2032C78.5337 58.4086 77.6806 59.0113 77.7052 59.0113C77.3525 58.9621 77.1762 58.8104 77.1762 58.5603C77.2008 58.3594 77.3525 57.9576 77.6273 57.3549C77.9554 56.6538 78.1563 56.1987 78.2302 55.9978C78.4803 55.2434 78.6075 54.5915 78.6075 54.038C78.304 54.2143 77.6888 54.6161 76.7619 55.2434C75.7079 55.9486 74.8877 56.4734 74.3135 56.826C70.8972 58.8842 68.6088 59.9174 67.4522 59.9174C66.6484 59.9174 65.9963 59.6919 65.4919 59.2409C64.9382 58.7407 64.6634 58.0601 64.6634 57.2073C64.6634 56.7563 65.0407 56.0265 65.7954 55.022C66.5992 53.9437 67.2513 53.4148 67.7557 53.4394C68.1577 53.4394 68.3832 53.6649 68.4324 54.1159C68.457 54.366 68.3053 54.6202 67.9813 54.8703C67.5548 55.1737 67.3046 55.3992 67.2267 55.5468C66.7222 56.3996 66.4475 57.0802 66.3982 57.5804C66.3736 57.8059 66.4721 58.0314 66.7017 58.2569C66.9273 58.4578 67.1529 58.5603 67.3784 58.5603C68.0059 58.5603 70.118 57.5558 73.7107 55.5468C75.2691 54.6694 76.8276 53.6116 78.386 52.3816C80.4448 50.799 81.4004 49.9954 81.2486 49.9708C81.8269 50.02 82.1017 50.2455 82.0771 50.6473C82.0771 50.5489 81.8269 51.3525 81.3225 53.0581L80.9452 54.7145C82.4257 54.038 84.0621 53.1565 85.8461 52.0782C89.0368 50.2455 91.2473 49.364 92.4818 49.4419C93.0109 49.4911 93.261 49.692 93.2364 50.0446C93.2364 50.02 92.8591 50.5735 92.1045 51.701C91.9528 51.9511 91.6657 52.3529 91.2391 52.9064C90.911 53.3574 90.6486 53.7879 90.4476 54.1856C89.9432 55.1655 89.6684 55.8953 89.6192 56.3709C89.57 56.9736 90.1195 57.3262 91.276 57.4246C92.1824 57.4984 93.5112 57.0966 95.2706 56.2192C96.0744 55.8174 97.231 55.1409 98.7402 54.1856C99.9706 53.4312 100.651 53.054 100.774 53.054C101.103 53.054 101.275 53.2549 101.303 53.6567V53.6608ZM122.675 52.152C122.773 53.2344 121.567 54.7391 119.057 56.6743C116.166 58.8596 114.407 59.9133 113.779 59.8395C113.103 59.737 112.75 59.5115 112.725 59.163C112.725 59.0646 113.226 57.8838 114.235 55.6206C112.926 55.6206 111.745 55.8461 110.691 56.2971L106.697 60.5939C105.79 61.5984 104.548 62.73 102.964 63.9846C101.254 65.3417 100.188 65.969 99.7614 65.8706C99.4333 65.7968 99.2734 65.5959 99.2734 65.2679L105.343 59.7657C106.172 58.9867 106.975 57.9576 107.755 56.6743C108.284 55.719 108.558 55.1409 108.583 54.94C105.29 56.8014 103.182 57.7034 102.251 57.6542C101.874 57.6296 101.574 57.4287 101.344 57.0515C101.144 56.6989 101.07 56.2971 101.119 55.8461C101.271 54.1651 102.05 52.5538 103.457 51.0245C105.343 48.9663 107.262 47.9331 109.223 47.9331C110.33 47.9331 111.196 49.0155 111.823 51.1721C113.23 49.1877 114.813 47.1787 116.572 45.141C119.562 41.7257 121.219 39.9914 121.547 39.9422C121.998 39.8684 122.224 40.0693 122.224 40.5449L117.852 45.9692C115.038 49.4378 113.201 51.7461 112.348 52.9023C112.098 53.833 112.02 54.4234 112.122 54.6735C112.45 54.4726 112.902 54.1446 113.48 53.6936C113.98 53.3164 114.485 52.9761 114.989 52.6768C117.425 51.1434 119.336 50.3644 120.718 50.3398C121.924 50.3152 122.576 50.9179 122.679 52.1479L122.675 52.152ZM110.388 51.6231C110.187 50.1922 109.658 49.487 108.805 49.5116C107.246 49.5608 105.712 50.5407 104.207 52.4513C103.276 53.6567 102.763 54.7104 102.661 55.6165C102.612 55.8666 102.722 56.0183 103.001 56.0675C103.178 56.0921 104.511 55.4648 106.996 54.1815C107.472 53.9314 108.062 53.505 108.768 52.9023C109.674 52.1725 110.211 51.7461 110.388 51.6231ZM121.17 52.3775C121.194 52.0249 120.969 51.824 120.493 51.7748C119.513 51.701 118.483 52.0495 117.401 52.8285C116.671 53.382 116.195 53.7838 115.969 54.0339C116.297 54.4111 116.47 54.7104 116.498 54.94C116.523 55.1655 116.371 55.6042 116.047 56.2602C115.67 56.9367 115.469 57.4041 115.444 57.6542C117.831 55.8953 119.062 54.9646 119.14 54.8662C120.472 53.5337 121.149 52.7055 121.174 52.3775H121.17ZM161.349 53.6567C161.324 54.1856 160.041 55.2885 157.506 56.9736C154.541 58.9088 152.306 59.8887 150.797 59.9133C150.345 59.9133 149.968 59.7001 149.665 59.2737C149.39 58.8965 149.263 58.4578 149.287 57.9535C149.337 57.277 150.091 56.1208 151.547 54.4849C152.753 53.0786 153.38 52.2996 153.434 52.1479C153.007 52.398 152.404 52.6768 151.625 52.9761C150.596 53.4025 149.89 53.7059 149.513 53.8822C147.602 54.9359 145.494 55.8666 143.181 56.6702C136.471 64.1814 132.604 68.4782 131.57 69.5565C123.655 77.8467 119.734 81.9918 119.808 81.9918C119.455 81.9918 119.254 81.8647 119.205 81.6146C119.205 81.5408 123.048 77.1661 130.738 68.5028L133.941 64.9973C135.097 63.7181 136.291 62.3733 137.521 60.967C140.638 57.4246 142.898 54.8129 144.304 53.1278L142.873 53.8822C141.241 54.8129 140.535 55.2885 140.761 55.3131C140.511 55.2885 140.261 55.063 140.006 54.6366C139.83 54.284 141.06 53.382 143.702 51.9224C144.28 51.619 144.92 51.2336 145.625 50.7539C146.355 50.2783 146.892 49.938 147.245 49.7371C148.123 49.0073 148.767 48.6957 149.168 48.7941C149.546 48.8679 149.734 49.0565 149.734 49.3599C149.734 49.3107 149.082 50.0364 147.774 51.5452C146.568 52.9023 145.814 53.7797 145.514 54.1815C146.47 53.956 148.053 53.2754 150.263 52.1479C152.876 50.7416 154.713 50.0364 155.767 50.0364C156.071 50.0364 156.194 50.2865 156.145 50.7908C156.042 51.496 155.115 52.726 153.356 54.4849C151.621 56.293 150.768 57.4492 150.792 57.9535C150.842 58.3553 151.018 58.5562 151.322 58.5562C152.277 58.5562 154.11 57.6788 156.825 55.9199C159.413 54.2102 160.721 53.3574 160.746 53.3574C161.148 53.3082 161.349 53.4066 161.349 53.6608V53.6567ZM137.074 53.2426C137.074 54.6489 136.082 56.1577 134.097 57.7649C132.288 59.2491 130.303 59.9625 128.142 59.9133C126.887 59.8887 125.919 59.5115 125.238 58.7817C124.66 58.1544 124.397 57.4 124.446 56.5226C124.496 55.1163 125.099 54.0749 126.255 53.3943C126.456 53.2672 126.858 53.2057 127.461 53.2057C127.613 53.1073 127.826 52.9023 128.101 52.603C128.404 52.2996 128.63 52.1028 128.777 52.0003C130.762 50.8195 132.382 50.2291 133.641 50.2291C134.671 50.2291 135.499 50.5202 136.131 51.0942C136.758 51.6477 137.074 52.3611 137.074 53.2426ZM135.643 53.0171C135.643 52.1889 135.028 51.7502 133.797 51.6969C132.464 51.6477 131.197 52.1233 129.991 53.1278C129.815 53.2549 129.577 53.5419 129.274 53.9929C129.023 54.3701 128.757 54.5956 128.482 54.6694C128.33 54.694 128.166 54.694 127.994 54.6694H127.506C127.079 54.7186 126.69 55.022 126.337 55.5755C126.087 56.0265 125.96 56.3791 125.96 56.6292C125.96 57.1335 126.21 57.5845 126.714 57.9863C127.243 58.3635 127.846 58.5521 128.523 58.5521C129.803 58.5521 131.263 58.0109 132.895 56.9326C134.728 55.7026 135.647 54.3947 135.647 53.013L135.643 53.0171ZM199.494 53.5829C199.445 54.3619 197.382 55.9691 193.314 58.4045C190.849 59.86 188.692 60.6636 186.83 60.8153C186.276 60.8645 185.776 60.6513 185.32 60.1757C184.869 59.7001 184.644 59.1097 184.644 58.4045C184.644 57.9535 185.144 56.7481 186.153 54.7883C186.305 54.4603 186.682 53.8822 187.285 53.054C187.761 52.4267 187.986 52.0003 187.962 51.7748C187.937 51.4222 187.687 51.2213 187.207 51.1721C186.502 51.1229 184.541 52.1274 181.326 54.1856C180.85 54.6366 180.169 55.4402 179.292 56.5964C178.512 57.6009 177.91 58.1052 177.483 58.1052C176.954 58.1052 176.63 57.8018 176.503 57.1991C176.478 57.1007 177.233 56.2438 178.763 54.6366C179.87 53.505 180.419 52.5128 180.419 51.66C180.419 51.0819 180.091 50.7949 179.439 50.7949C178.635 50.7949 177.68 50.9958 176.573 51.3976C174.436 52.2012 172.754 53.1073 171.52 54.1118C170.942 54.5874 170.339 55.1655 169.711 55.8461C168.932 56.6989 168.403 57.2524 168.128 57.5025C166.898 58.5849 166.143 59.1097 165.868 59.0851C165.417 59.0113 165.163 58.6833 165.114 58.1052C165.089 57.8305 165.692 57.0515 166.922 55.7682C168.403 54.2348 169.133 53.2795 169.108 52.9064C169.059 52.3529 168.78 52.0782 168.28 52.0782C167.628 52.0782 166.418 52.5046 164.663 53.3574C164.212 53.5583 163.506 54.0216 162.551 54.7514C161.771 55.3295 161.296 55.5919 161.119 55.5427C160.541 55.391 160.266 55.1655 160.291 54.8662C160.365 54.2389 161.648 53.259 164.134 51.9265C165.491 51.1967 167.099 50.7457 168.957 50.5694C169.408 50.5202 169.847 50.7457 170.277 51.2459C170.63 51.6969 170.843 52.152 170.917 52.603C171.545 52.1274 172.89 51.4714 174.948 50.6432C177.134 49.7371 178.631 49.2861 179.435 49.2861C180.768 49.2861 181.572 49.8888 181.847 51.0942C181.945 51.4714 181.998 51.824 181.998 52.1479C182.327 52.0495 183.29 51.5575 184.902 50.6801C186.26 49.979 187.174 49.6387 187.654 49.6633C188.909 49.7371 189.565 50.2906 189.614 51.3197C189.614 51.2213 188.987 52.4267 187.728 54.9359C186.674 57.0966 186.145 58.2282 186.145 58.3266C186.145 59.0318 186.42 59.3803 186.973 59.3803C188.13 59.3803 190.037 58.6505 192.703 57.195C193.531 56.744 194.864 55.8379 196.697 54.4808C198.079 53.4763 198.908 53.0007 199.187 53.0499C199.387 53.0991 199.49 53.2754 199.49 53.5788L199.494 53.5829Z" fill="url(#paint2_linear_35_20588)"/>
<defs>
<linearGradient id="paint0_linear_35_20588" x1="-9.5" y1="-9.5" x2="226.5" y2="66" gradientUnits="userSpaceOnUse">
<stop stop-color="#88C7DA"/>
<stop offset="1" stop-color="#075A78"/>
</linearGradient>
<linearGradient id="paint1_linear_35_20588" x1="-9.5" y1="-9.5" x2="226.5" y2="66" gradientUnits="userSpaceOnUse">
<stop stop-color="#88C7DA"/>
<stop offset="1" stop-color="#075A78"/>
</linearGradient>
<linearGradient id="paint2_linear_35_20588" x1="-9.5" y1="-9.5" x2="226.5" y2="66" gradientUnits="userSpaceOnUse">
<stop stop-color="#88C7DA"/>
<stop offset="1" stop-color="#075A78"/>
</linearGradient>
</defs>
</svg>
