<svg width="19" height="19" viewBox="0 0 19 19" fill="none" xmlns="http://www.w3.org/2000/svg">
<g clip-path="url(#clip0_123_21408)">
<path d="M18.9764 9.52743C18.9764 11.0103 19.0384 12.4963 18.9621 13.9759C18.8301 16.5566 17.2974 18.5931 14.7551 18.7951C11.2905 19.0688 7.77355 19.064 4.30745 18.8047C1.82234 18.6201 0.202174 16.6632 0.100416 14.1653C-0.0267803 11.0723 -0.03791 7.96504 0.103596 4.8721C0.226023 2.16099 2.22778 0.20085 4.93707 0.0926603C7.97548 -0.0298485 11.0266 -0.0282575 14.0666 0.0894782C16.8633 0.197668 18.8158 2.25963 18.9637 5.07893C19.04 6.55858 18.9764 8.0446 18.9764 9.52743ZM9.51456 17.2439C10.8915 17.2439 12.27 17.2916 13.6437 17.2328C15.841 17.1389 17.1575 15.8661 17.2131 13.6768C17.2831 10.9228 17.2815 8.16551 17.2163 5.41304C17.1623 3.17606 15.8505 1.87142 13.6071 1.81733C10.8819 1.7521 8.15355 1.7521 5.42837 1.81733C3.18176 1.87142 1.87163 3.17129 1.81757 5.40986C1.75079 8.16233 1.7492 10.9212 1.81916 13.6736C1.87481 15.8645 3.1897 17.1389 5.38544 17.2328C6.75916 17.2916 8.13766 17.2439 9.51456 17.2439Z" fill="url(#paint0_linear_123_21408)"/>
<path d="M14.4097 9.79437C14.1633 12.62 11.8658 14.6613 9.20422 14.4163C6.4059 14.1586 4.39142 11.8898 4.62196 9.25343C4.87 6.41345 7.15318 4.38649 9.8259 4.63309C12.6067 4.88766 14.6387 7.17555 14.4097 9.79437ZM9.54447 6.39436C7.74146 6.3864 6.38841 7.73241 6.38841 9.53345C6.38841 11.2883 7.7351 12.6439 9.48564 12.6519C11.2505 12.6598 12.6274 11.3249 12.6417 9.59072C12.6592 7.77696 11.3268 6.40231 9.54447 6.39436Z" fill="url(#paint1_linear_123_21408)"/>
<path d="M14.6228 3.26775C15.2588 3.27889 15.7787 3.81666 15.766 4.45148C15.7549 5.08629 15.2174 5.60497 14.5815 5.59542C13.9487 5.58588 13.4287 5.04652 13.4399 4.4117C13.4542 3.7737 13.9884 3.25662 14.6228 3.26775Z" fill="url(#paint2_linear_123_21408)"/>
</g>
<defs>
<linearGradient id="paint0_linear_123_21408" x1="0.00122013" y1="9.50038" x2="18.7226" y2="9.50038" gradientUnits="userSpaceOnUse">
<stop stop-color="#B08D46"/>
<stop offset="0.359375" stop-color="#EAD29E"/>
<stop offset="0.885417" stop-color="#A7833B"/>
</linearGradient>
<linearGradient id="paint1_linear_123_21408" x1="4.604" y1="9.52451" x2="14.2833" y2="9.52451" gradientUnits="userSpaceOnUse">
<stop stop-color="#B08D46"/>
<stop offset="0.359375" stop-color="#EAD29E"/>
<stop offset="0.885417" stop-color="#A7833B"/>
</linearGradient>
<linearGradient id="paint2_linear_123_21408" x1="13.4397" y1="4.43156" x2="15.7321" y2="4.43156" gradientUnits="userSpaceOnUse">
<stop stop-color="#B08D46"/>
<stop offset="0.359375" stop-color="#EAD29E"/>
<stop offset="0.885417" stop-color="#A7833B"/>
</linearGradient>
<clipPath id="clip0_123_21408">
<rect width="19" height="19" fill="white"/>
</clipPath>
</defs>
</svg>
