<svg width="21" height="21" viewBox="0 0 21 21" fill="none" xmlns="http://www.w3.org/2000/svg">
<g clip-path="url(#clip0_0_86)">
<path d="M20.9738 10.53C20.9738 12.1689 21.0424 13.8113 20.958 15.4467C20.8122 18.299 19.1181 20.5499 16.3082 20.7732C12.479 21.0757 8.59176 21.0704 4.76079 20.7838C2.0141 20.5798 0.223388 18.4168 0.110919 15.656C-0.0296667 12.2375 -0.041968 8.80312 0.114434 5.3846C0.249748 2.38812 2.46222 0.221645 5.45669 0.102067C8.81494 -0.0333374 12.1872 -0.0315789 15.5472 0.0985501C18.6384 0.218128 20.7964 2.49714 20.9598 5.6132C21.0441 7.24861 20.9738 8.89105 20.9738 10.53ZM10.516 19.0587C12.0379 19.0587 13.5615 19.1114 15.0798 19.0464C17.5084 18.9426 18.9635 17.5358 19.025 15.1161C19.1023 12.0722 19.1005 9.02469 19.0285 5.98249C18.9687 3.51004 17.519 2.06807 15.0394 2.00828C12.0273 1.93618 9.01176 1.93618 5.99971 2.00828C3.51661 2.06807 2.06858 3.50476 2.00883 5.97897C1.93502 9.02118 1.93326 12.0704 2.01058 15.1126C2.07209 17.5341 3.5254 18.9426 5.95226 19.0464C7.47058 19.1114 8.99418 19.0587 10.516 19.0587Z" fill="#A7813B"/>
<path d="M15.9266 10.8254C15.6542 13.9485 13.1149 16.2046 10.1731 15.9338C7.08025 15.649 4.85372 13.1413 5.10853 10.2275C5.38268 7.08859 7.90619 4.84826 10.8602 5.12083C13.9338 5.40219 16.1797 7.93091 15.9266 10.8254ZM10.5492 7.06749C8.5564 7.05869 7.06092 8.54638 7.06092 10.537C7.06092 12.4766 8.54937 13.9749 10.4842 13.9837C12.4348 13.9925 13.9567 12.5171 13.9725 10.6003C13.9918 8.59562 12.5192 7.07628 10.5492 7.06749Z" fill="#A68039"/>
<path d="M16.1621 3.61201C16.865 3.62432 17.4397 4.21869 17.4256 4.92033C17.4133 5.62198 16.8193 6.19525 16.1164 6.1847C15.417 6.17414 14.8424 5.57801 14.8547 4.87637C14.8705 4.17121 15.4609 3.5997 16.1621 3.61201Z" fill="#A68039"/>
</g>
<defs>
<clipPath id="clip0_0_86">
<rect width="21" height="21" fill="white"/>
</clipPath>
</defs>
</svg>
