<svg width="180" height="29" viewBox="0 0 180 29" fill="none" xmlns="http://www.w3.org/2000/svg">
<path d="M12.5652 21.3046H12.6722C12.7843 21.3046 12.8862 21.2684 12.9729 21.1855C13.0595 21.1027 13.1359 21.0095 13.197 20.8904C13.2582 20.7764 13.3091 20.6521 13.3448 20.5227C13.3805 20.3932 13.3958 20.2741 13.3958 20.155V8.58089C13.3958 8.4825 13.3754 8.36339 13.3448 8.23393C13.3091 8.10447 13.2582 7.98536 13.197 7.86625C13.1359 7.75232 13.0595 7.65393 12.9729 7.57107C12.8862 7.49339 12.7894 7.45196 12.6722 7.45196H12.5652V7.23447H20.3561V9.29036H20.1421C20.1421 8.95893 20.03 8.66893 19.8007 8.41518C19.5714 8.16661 19.2249 8.03714 18.7561 8.03714H14.8174V13.2934H15.7957C16.4479 13.2934 17.1001 13.3555 17.7421 13.485C18.3842 13.6145 18.9701 13.8371 19.4848 14.1427C19.9994 14.4534 20.4223 14.8729 20.7433 15.4114C21.0592 15.9448 21.2223 16.618 21.2223 17.4259C21.2223 18.0629 21.1051 18.6325 20.8707 19.1348C20.6363 19.6423 20.3051 20.0721 19.8822 20.4191C19.4542 20.7713 18.9498 21.0405 18.3587 21.227C17.7727 21.4134 17.1256 21.5066 16.4326 21.5066H12.5601V21.2891V21.2995L12.5652 21.3046ZM15.6581 20.7661C16.3715 20.7661 16.988 20.6884 17.5078 20.5279C18.0275 20.3673 18.4606 20.1498 18.802 19.8702C19.1434 19.5905 19.3981 19.2591 19.5612 18.8759C19.7243 18.4979 19.8058 18.0784 19.8058 17.633C19.8058 16.5818 19.4338 15.717 18.695 15.0438C17.9561 14.3757 16.8963 14.0391 15.5307 14.0391H14.8276V20.7713H15.6632H15.6581V20.7661Z" fill="white"/>
<path d="M30.8934 7.23964H33.8487V7.45714H33.7213C33.5634 7.45714 33.4614 7.50375 33.4054 7.59696C33.3493 7.69018 33.3188 7.78857 33.3188 7.89214C33.3188 7.96464 33.3239 8.02679 33.3392 8.08375C33.3544 8.14071 33.3697 8.18732 33.3799 8.21321L37.018 16.3073L40.274 8.45661C40.2893 8.42554 40.3097 8.36339 40.3351 8.27536C40.3657 8.18214 40.3759 8.09411 40.3759 8.00607C40.3759 7.80411 40.3046 7.66429 40.1619 7.58143C40.0192 7.50375 39.9173 7.46232 39.846 7.46232V7.24482H42.1236V7.46232C41.8688 7.46232 41.6752 7.52964 41.5376 7.66947C41.4001 7.80929 41.3033 7.94911 41.2319 8.09411L36.1212 20.5123C35.9531 20.9318 35.7238 21.2373 35.4385 21.4341C35.1531 21.6257 34.8525 21.7293 34.5213 21.7293C34.3073 21.7293 34.1188 21.693 33.9455 21.6309C33.7723 21.5687 33.6296 21.4911 33.5022 21.403C33.3748 21.315 33.2474 21.2011 33.1201 21.0561L33.65 19.865C33.7621 20.1395 33.9098 20.3518 34.0933 20.502C34.2767 20.6521 34.4652 20.7298 34.6691 20.7298C34.7964 20.7298 34.9289 20.6832 35.0614 20.59C35.1939 20.4968 35.3111 20.3518 35.413 20.1446L36.2435 18.0887L31.8156 8.16143C31.6169 7.72643 31.3061 7.49857 30.8781 7.4675V7.25L30.8934 7.23964Z" fill="white"/>
<path d="M53.6036 20.0048C53.4762 20.3829 53.2774 20.7298 53.0074 21.0457C52.7373 21.3616 52.3399 21.5221 51.8151 21.5221H51.1578V21.3046C51.2444 21.3046 51.3565 21.2787 51.4992 21.227C51.6418 21.1752 51.7896 21.0923 51.9425 20.9784C52.1004 20.8645 52.2533 20.7143 52.4112 20.533C52.5692 20.3518 52.7017 20.1239 52.8138 19.8546L56.8391 8.64821C56.9105 8.43071 56.9461 8.27018 56.9461 8.15107C56.9461 7.93357 56.885 7.76786 56.7678 7.64357C56.6455 7.51929 56.5232 7.46232 56.3958 7.46232V7.24482H58.1385L62.9077 20.4812C62.9791 20.6832 63.1116 20.8645 63.3103 21.0354C63.509 21.2011 63.7281 21.2891 63.9676 21.3046V21.5221H60.9256V21.3046C61.0377 21.3046 61.16 21.258 61.2772 21.1648C61.3995 21.0716 61.4556 20.9421 61.4556 20.7868C61.4556 20.7454 61.4403 20.678 61.4148 20.5952L57.4149 9.38875L53.6036 20.01V20.0048Z" fill="white"/>
<path d="M77.1086 21.3046V21.5221H74.0667V21.3046H74.1737C74.2858 21.3046 74.3877 21.2684 74.4743 21.1855C74.5609 21.1079 74.6374 21.0095 74.6985 20.8904C74.7597 20.7764 74.8055 20.6521 74.8361 20.5227C74.8666 20.3932 74.8768 20.2741 74.8768 20.155V8.58089C74.8768 8.4825 74.8615 8.36339 74.8361 8.23393C74.8055 8.10447 74.7597 7.98536 74.6985 7.86625C74.6374 7.75232 74.5609 7.65393 74.4743 7.57107C74.3877 7.49339 74.2909 7.45196 74.1737 7.45196H74.0667V7.23447H82.2397V9.52857H82.0257C82.0257 9.01071 81.9187 8.62232 81.6945 8.37375C81.4754 8.12518 81.1289 7.99571 80.6601 7.99571H76.2934V20.155C76.2934 20.2689 76.3086 20.3932 76.3341 20.5227C76.3647 20.6521 76.4106 20.7713 76.4717 20.8904C76.5329 21.0043 76.6093 21.1027 76.6959 21.1855C76.7825 21.2684 76.8793 21.3046 76.9965 21.3046H77.1086Z" fill="white"/>
<path d="M100.181 21.3046H100.288C100.629 21.3046 100.797 21.1441 100.797 20.8282C100.797 20.7143 100.777 20.59 100.736 20.4605L98.8201 15.2043H95.0954L93.2407 20.3725C93.1999 20.4864 93.1795 20.5952 93.1795 20.6936C93.1795 20.88 93.2305 21.0302 93.3273 21.1389C93.4292 21.2477 93.5311 21.3046 93.6432 21.3046H93.7502V21.5221H91.3859V21.3046H91.4929C91.6764 21.3046 91.8598 21.1959 92.0381 20.968C92.2165 20.7402 92.3592 20.4812 92.4763 20.1757L97.3475 6.98071L102.117 20.0462C102.214 20.3362 102.351 20.6159 102.535 20.8904C102.713 21.1648 102.942 21.2995 103.228 21.2995H103.335V21.517H100.181V21.2995H100.186L100.181 21.3046ZM95.3094 14.4689H98.5908L96.9501 9.94804L95.3094 14.4689Z" fill="white"/>
<path d="M113.128 21.3046H113.235C113.347 21.3046 113.449 21.2632 113.536 21.1752C113.622 21.0871 113.699 20.9888 113.76 20.8696C113.821 20.7557 113.867 20.6314 113.897 20.4916C113.928 20.357 113.938 20.2275 113.938 20.1136V8.58089C113.938 8.4825 113.923 8.36339 113.897 8.23393C113.867 8.10447 113.821 7.98536 113.76 7.86625C113.699 7.75232 113.622 7.65393 113.536 7.57107C113.449 7.48821 113.357 7.45196 113.26 7.45196H113.153V7.23447H116.18V7.45196H116.073C115.961 7.45196 115.859 7.48821 115.773 7.57107C115.686 7.64875 115.609 7.74714 115.548 7.86625C115.487 7.98018 115.436 8.10447 115.401 8.23393C115.365 8.36339 115.35 8.4825 115.35 8.58089V13.0604L120.287 8.06304C120.399 7.94911 120.455 7.81447 120.455 7.65393C120.455 7.52447 120.399 7.46232 120.287 7.46232V7.24482H122.585V7.46232C122.3 7.47786 122.05 7.56589 121.831 7.72125C121.612 7.88179 121.372 8.08893 121.118 8.34786L116.073 13.4954C116.995 13.5264 117.739 13.7284 118.31 14.1013C118.881 14.4741 119.324 14.992 119.65 15.6548L121.332 19.1038C121.433 19.3213 121.566 19.5543 121.724 19.8029C121.887 20.0514 122.07 20.2948 122.279 20.5123C122.483 20.735 122.718 20.9214 122.972 21.0716C123.227 21.2218 123.497 21.2995 123.782 21.2995V21.517H122.718C122.305 21.517 121.948 21.4548 121.653 21.3357C121.352 21.2114 121.097 21.0457 120.873 20.8386C120.654 20.6314 120.46 20.3932 120.297 20.1343C120.134 19.8754 119.991 19.6164 119.859 19.3523L118.132 15.8671C117.862 15.3338 117.49 14.9298 117.011 14.645C116.537 14.3654 115.976 14.21 115.339 14.1789V20.1084C115.339 20.2223 115.355 20.3466 115.38 20.4761C115.411 20.6055 115.451 20.7298 115.508 20.8541C115.564 20.9784 115.635 21.0768 115.722 21.1596C115.808 21.2373 115.9 21.2839 115.997 21.2995H116.144V21.517H113.118V21.2995H113.123L113.128 21.3046Z" fill="white"/>
<path d="M140.735 7.02214C141.841 7.02214 142.834 7.21893 143.716 7.61768C144.597 8.01125 145.346 8.54982 145.963 9.21786C146.579 9.88589 147.058 10.6679 147.389 11.5534C147.721 12.4389 147.889 13.3659 147.889 14.3343C147.889 15.4166 147.695 16.4109 147.303 17.3223C146.91 18.2337 146.381 19.0105 145.698 19.6579C145.015 20.3104 144.225 20.8127 143.323 21.1855C142.421 21.5532 141.458 21.7396 140.439 21.7396C139.344 21.7396 138.365 21.5377 137.489 21.1337C136.613 20.7298 135.879 20.1964 135.278 19.5336C134.676 18.8707 134.213 18.1095 133.887 17.2395C133.561 16.3746 133.397 15.4736 133.397 14.5362C133.397 13.5989 133.561 12.703 133.887 11.802C134.213 10.9009 134.692 10.0982 135.324 9.38875C135.955 8.67929 136.725 8.10964 137.632 7.67982C138.544 7.24482 139.573 7.02732 140.74 7.02732L140.735 7.02214ZM140.725 20.9784C141.677 20.937 142.513 20.7143 143.226 20.3207C143.945 19.9271 144.546 19.4196 145.025 18.8086C145.509 18.1975 145.866 17.5243 146.105 16.7837C146.34 16.0484 146.457 15.3182 146.457 14.5984C146.457 13.8061 146.314 13.0034 146.029 12.1955C145.744 11.3877 145.341 10.6523 144.811 9.99982C144.281 9.34732 143.655 8.80875 142.926 8.39964C142.192 7.99054 141.372 7.78339 140.465 7.78339C139.558 7.78339 138.794 7.98018 138.101 8.37893C137.402 8.7725 136.811 9.28518 136.317 9.90661C135.828 10.528 135.451 11.2168 135.196 11.9832C134.941 12.7496 134.809 13.4954 134.809 14.2307C134.809 15.0282 134.957 15.8205 135.257 16.618C135.558 17.4155 135.971 18.1457 136.49 18.793C137.02 19.4455 137.642 19.9686 138.36 20.3725C139.079 20.7764 139.864 20.9784 140.72 20.9784H140.725Z" fill="white"/>
<path d="M158.278 21.3046H158.385C158.482 21.3046 158.574 21.2632 158.66 21.1752C158.747 21.0871 158.824 20.9888 158.885 20.8696C158.946 20.7557 158.992 20.6314 159.022 20.4916C159.053 20.357 159.063 20.2275 159.063 20.1136V8.60161C159.063 8.50321 159.048 8.38411 159.022 8.25464C158.992 8.12518 158.946 8.00089 158.885 7.87661C158.824 7.75232 158.742 7.65393 158.65 7.57107C158.559 7.49339 158.457 7.45196 158.345 7.45196H158.238V7.23447H161.728C163.048 7.23447 164.077 7.52964 164.826 8.12C165.57 8.71554 165.947 9.4975 165.947 10.4762C165.947 10.8957 165.876 11.2738 165.733 11.6C165.59 11.9314 165.412 12.2266 165.188 12.4855C164.969 12.7445 164.729 12.9671 164.474 13.1432C164.22 13.3245 163.975 13.4695 163.751 13.5886C164.347 13.7025 164.846 13.8993 165.239 14.1737C165.636 14.4482 165.957 14.7641 166.202 15.1111C166.446 15.4632 166.619 15.8413 166.711 16.2504C166.808 16.6543 166.859 17.0479 166.859 17.4414C166.859 18.1923 166.726 18.8241 166.456 19.3368C166.186 19.8495 165.83 20.2689 165.386 20.59C164.943 20.9111 164.434 21.1493 163.858 21.2943C163.287 21.4393 162.696 21.5118 162.085 21.5118H158.283V21.2943L158.278 21.3046ZM164.561 10.673C164.52 9.83411 164.23 9.16607 163.7 8.67411C163.17 8.18214 162.451 7.93357 161.56 7.93357H160.495V13.4073H161.6C162.197 13.4073 162.681 13.3296 163.063 13.1691C163.435 13.0086 163.741 12.8014 163.97 12.5477C164.199 12.2939 164.352 12.0143 164.439 11.7088C164.525 11.4032 164.566 11.108 164.566 10.818V10.6679L164.561 10.673ZM165.432 17.5968C165.32 16.4834 164.948 15.6237 164.327 15.0127C163.7 14.4016 162.823 14.1013 161.687 14.1013H160.495V20.8334H161.728C162.879 20.8334 163.781 20.5693 164.444 20.0411C165.106 19.5129 165.432 18.7775 165.432 17.8402V17.5968Z" fill="white"/>
<path d="M165.509 28.3216H12.5652V29H165.509V28.3216Z" fill="url(#paint0_linear_123_21852)"/>
<path d="M165.509 0H12.5652V0.678393H165.509V0Z" fill="url(#paint1_linear_123_21852)"/>
<path d="M3.37312 17.3223C3.23555 16.7941 2.63429 15.0696 -3.05176e-05 14.5725V14.2929C0.692944 14.2152 2.71582 13.8216 3.37822 11.3929H3.55146L3.58203 17.3275H3.37822L3.37312 17.3223Z" fill="white"/>
<path d="M176.627 11.3877C176.764 11.9159 177.366 13.6404 180 14.1375V14.4171C179.307 14.4948 177.284 14.8884 176.622 17.3171H176.448L176.418 11.3825H176.622L176.627 11.3877Z" fill="white"/>
<defs>
<linearGradient id="paint0_linear_123_21852" x1="-3.05176e-05" y1="14.3892" x2="180" y2="14.3892" gradientUnits="userSpaceOnUse">
<stop stop-color="#A28038"/>
<stop offset="0.25" stop-color="#A3803A"/>
<stop offset="0.36" stop-color="#A88441"/>
<stop offset="0.44" stop-color="#B08E4D"/>
<stop offset="0.5" stop-color="#BC9D5F"/>
<stop offset="0.56" stop-color="#CCAF76"/>
<stop offset="0.61" stop-color="#DFC68F"/>
<stop offset="0.65" stop-color="#F5E0AF"/>
<stop offset="0.74" stop-color="#DEC58D"/>
<stop offset="0.92" stop-color="#B39151"/>
<stop offset="1" stop-color="#A28038"/>
</linearGradient>
<linearGradient id="paint1_linear_123_21852" x1="-14.7881" y1="14.3893" x2="-14.1885" y2="14.3893" gradientUnits="userSpaceOnUse">
<stop stop-color="#A28038"/>
<stop offset="0.25" stop-color="#A3803A"/>
<stop offset="0.36" stop-color="#A88441"/>
<stop offset="0.44" stop-color="#B08E4D"/>
<stop offset="0.5" stop-color="#BC9D5F"/>
<stop offset="0.56" stop-color="#CCAF76"/>
<stop offset="0.61" stop-color="#DFC68F"/>
<stop offset="0.65" stop-color="#F5E0AF"/>
<stop offset="0.74" stop-color="#DEC58D"/>
<stop offset="0.92" stop-color="#B39151"/>
<stop offset="1" stop-color="#A28038"/>
</linearGradient>
</defs>
</svg>
