<svg width="117" height="18" viewBox="0 0 117 18" fill="none" xmlns="http://www.w3.org/2000/svg">
<g clip-path="url(#clip0_35_459)">
<path d="M8.40012 13.3439H8.46779C8.54029 13.3439 8.60554 13.3199 8.66112 13.2695C8.7167 13.2191 8.76504 13.1591 8.80612 13.0847C8.84721 13.0127 8.87862 12.9335 8.90279 12.8519C8.92454 12.7703 8.93662 12.6935 8.93662 12.6191V5.31595C8.93662 5.25355 8.92454 5.17915 8.90279 5.09755C8.88104 5.01595 8.84721 4.93915 8.80612 4.86475C8.76504 4.79275 8.7167 4.73035 8.66112 4.67995C8.60554 4.62955 8.54271 4.60555 8.46779 4.60555H8.40012V4.46875H13.4292V5.76475H13.2915C13.2915 5.55595 13.219 5.37115 13.0715 5.21275C12.9241 5.05435 12.6994 4.97275 12.3973 4.97275H9.85495V8.28955H10.4881C10.9086 8.28955 11.3291 8.33035 11.7448 8.41195C12.1605 8.49355 12.5375 8.63275 12.871 8.82715C13.2045 9.02395 13.4751 9.28795 13.683 9.62635C13.8884 9.96235 13.9923 10.3871 13.9923 10.8959C13.9923 11.2967 13.9174 11.6567 13.7651 11.9735C13.6129 12.2927 13.4002 12.5639 13.1271 12.7847C12.8516 13.0079 12.5254 13.1783 12.1435 13.2959C11.7641 13.4135 11.3485 13.4735 10.899 13.4735H8.39771V13.3367L8.40012 13.3439ZM10.3963 13.0031C10.8555 13.0031 11.2542 12.9528 11.5901 12.8519C11.926 12.7512 12.204 12.6119 12.4263 12.4367C12.6462 12.2591 12.8105 12.0503 12.9169 11.8079C13.0232 11.5679 13.0764 11.3063 13.0764 11.0231C13.0764 10.3583 12.8371 9.81595 12.3586 9.39115C11.8801 8.96875 11.1986 8.75755 10.3165 8.75755H9.8622V13.0031H10.4011H10.3963Z" fill="white"/>
<path d="M20.2322 4.47119H22.1413V4.60799H22.0592C21.9577 4.60799 21.89 4.63679 21.8538 4.69679C21.8175 4.75679 21.7982 4.81679 21.7982 4.88159C21.7982 4.92719 21.803 4.96799 21.8127 5.00399C21.8223 5.03999 21.832 5.06879 21.8393 5.08559L24.1883 10.1904L26.2908 5.23679C26.3004 5.21759 26.3125 5.17919 26.3318 5.12159C26.3512 5.06159 26.3584 5.00639 26.3584 4.95119C26.3584 4.82399 26.3125 4.73519 26.2207 4.68479C26.1288 4.63439 26.0612 4.61039 26.0153 4.61039V4.47359H27.487V4.61039C27.3227 4.61039 27.197 4.65359 27.11 4.73999C27.023 4.82639 26.9578 4.91519 26.9118 5.00639L23.6131 12.84C23.5043 13.104 23.3569 13.2984 23.1733 13.4208C22.9896 13.5432 22.7938 13.6056 22.5812 13.6056C22.4434 13.6056 22.3202 13.584 22.209 13.5432C22.0978 13.5024 22.0036 13.4544 21.9214 13.3992C21.8393 13.344 21.7571 13.272 21.6749 13.1808L22.0181 12.4296C22.0906 12.6024 22.1873 12.7368 22.3057 12.8328C22.4241 12.9288 22.5473 12.9768 22.6778 12.9768C22.76 12.9768 22.8446 12.948 22.9316 12.888C23.0186 12.828 23.0935 12.7368 23.1588 12.6072L23.6953 11.3112L20.8363 5.04719C20.7083 4.77359 20.5077 4.62959 20.2322 4.61039V4.47359V4.47119Z" fill="white"/>
<path d="M34.8964 12.5256C34.8143 12.7632 34.6862 12.9816 34.5122 13.1808C34.3382 13.38 34.082 13.4808 33.7437 13.4808H33.3184V13.344C33.3739 13.344 33.4464 13.3272 33.5383 13.296C33.6301 13.2648 33.7268 13.212 33.8259 13.14C33.9274 13.068 34.0264 12.9744 34.1279 12.8592C34.2294 12.7464 34.3164 12.6024 34.3889 12.4296L36.9869 5.35919C37.0328 5.22239 37.0545 5.11919 37.0545 5.04479C37.0545 4.90799 37.0159 4.80239 36.9385 4.72319C36.8612 4.64639 36.7814 4.60799 36.6969 4.60799V4.47119H37.823L40.9019 12.8232C40.9478 12.9504 41.0348 13.0656 41.1629 13.1712C41.2909 13.2768 41.4335 13.332 41.5882 13.3416V13.4784H39.6234V13.3416C39.6959 13.3416 39.7733 13.3128 39.8506 13.2528C39.9279 13.1928 39.9666 13.1136 39.9666 13.0128C39.9666 12.9864 39.9569 12.9456 39.94 12.8904L37.3566 5.81999L34.8964 12.5208V12.5256Z" fill="white"/>
<path d="M50.0006 13.344H50.0683V13.4808H48.1035V13.344H48.1712C48.2437 13.344 48.3089 13.32 48.3645 13.2696C48.4201 13.2192 48.4684 13.1591 48.5095 13.0847C48.5506 13.0127 48.5796 12.9336 48.5989 12.852C48.6183 12.7704 48.6255 12.6936 48.6255 12.6192V5.31595C48.6255 5.25355 48.6158 5.17915 48.5989 5.09755C48.5796 5.01595 48.5506 4.93915 48.5095 4.86475C48.4684 4.79275 48.4201 4.73035 48.3645 4.67995C48.3089 4.62955 48.2461 4.60555 48.1712 4.60555H48.1035V4.46875H53.3815V5.91595H53.2438C53.2438 5.58955 53.1737 5.34475 53.0311 5.18635C52.8885 5.02795 52.6662 4.94635 52.3641 4.94635H49.5463V12.6167C49.5463 12.6888 49.5559 12.768 49.5728 12.8496C49.5922 12.9312 49.6212 13.008 49.6623 13.0824C49.7033 13.1544 49.7517 13.2168 49.8073 13.2671C49.8628 13.3175 49.9257 13.3415 50.0006 13.3415V13.344Z" fill="white"/>
<path d="M64.967 13.3441H65.0347C65.2546 13.3441 65.3633 13.2433 65.3633 13.0441C65.3633 12.9721 65.3488 12.8929 65.3223 12.8113L64.0849 9.4945H61.6803L60.4841 12.7561C60.4575 12.8281 60.443 12.8977 60.443 12.9601C60.443 13.0777 60.4744 13.1713 60.5397 13.2409C60.6049 13.3081 60.6726 13.3441 60.7451 13.3441H60.8128V13.4809H59.2878V13.3441H59.3555C59.4739 13.3441 59.5923 13.2745 59.7059 13.1329C59.8195 12.9913 59.9138 12.8257 59.9887 12.6337L63.1352 4.30811L66.214 12.5521C66.2768 12.7345 66.3663 12.9121 66.4823 13.0849C66.5958 13.2577 66.7457 13.3441 66.9293 13.3441H66.997V13.4809H64.9622V13.3441H64.967ZM61.8205 9.0313H63.9375L62.879 6.17771L61.8205 9.0313Z" fill="white"/>
<path d="M73.3239 13.3439H73.3916C73.4641 13.3439 73.5293 13.3175 73.5849 13.2624C73.6405 13.2071 73.6888 13.1447 73.7299 13.0703C73.771 12.9983 73.8 12.9191 73.8193 12.8303C73.8387 12.7439 73.8459 12.6647 73.8459 12.5903V5.31595C73.8459 5.25355 73.8363 5.17915 73.8193 5.09755C73.8 5.01595 73.771 4.93915 73.7299 4.86475C73.6888 4.79275 73.6405 4.73035 73.5849 4.67995C73.5293 4.62955 73.4713 4.60555 73.4061 4.60555H73.3384V4.46875H75.2911V4.60555H75.2234C75.1509 4.60555 75.0857 4.62955 75.0301 4.67995C74.9745 4.73035 74.9262 4.79035 74.8851 4.86475C74.844 4.93675 74.8126 5.01595 74.7884 5.09755C74.7667 5.17915 74.7546 5.25355 74.7546 5.31595V8.14075L77.9422 4.98715C78.0147 4.91515 78.0509 4.82875 78.0509 4.72795C78.0509 4.64635 78.0147 4.60555 77.9422 4.60555V4.46875H79.426V4.60555C79.2423 4.61515 79.0804 4.67035 78.9378 4.76875C78.7953 4.86955 78.643 5.00155 78.4787 5.16475L75.221 8.41195C75.8155 8.43115 76.2964 8.55835 76.6638 8.79355C77.0311 9.02875 77.3187 9.35515 77.5289 9.77275L78.614 11.9495C78.6793 12.0863 78.7638 12.2327 78.8678 12.3911C78.9741 12.5495 79.0925 12.7007 79.2254 12.8399C79.3583 12.9815 79.5082 13.0991 79.6725 13.1927C79.8368 13.2887 80.0108 13.3367 80.1945 13.3367V13.4735H79.5082C79.2423 13.4735 79.0128 13.4352 78.8218 13.3583C78.6285 13.2816 78.4618 13.1759 78.3192 13.0439C78.1766 12.9119 78.0533 12.7631 77.947 12.5999C77.8407 12.4367 77.7488 12.2735 77.6643 12.1079L76.5502 9.90955C76.3762 9.57355 76.1345 9.31675 75.8276 9.13915C75.5207 8.96155 75.1606 8.86315 74.7498 8.84635V12.5855C74.7498 12.6575 74.7594 12.7367 74.7763 12.8183C74.7957 12.9 74.8223 12.9791 74.8585 13.0583C74.8948 13.1351 74.9407 13.1999 74.9963 13.2503C75.0518 13.3007 75.1098 13.3295 75.1751 13.3391H75.2718V13.4759H73.3191V13.3391L73.3239 13.3439Z" fill="white"/>
<path d="M91.1492 4.33447C91.8646 4.33447 92.505 4.45927 93.0729 4.70887C93.6408 4.95847 94.1242 5.29687 94.5229 5.71927C94.9217 6.14167 95.2286 6.63367 95.4437 7.19287C95.6587 7.75207 95.7675 8.33767 95.7675 8.94727C95.7675 9.62887 95.6418 10.2577 95.3905 10.8313C95.1392 11.4049 94.7936 11.8969 94.3537 12.3049C93.9139 12.7153 93.404 13.0345 92.8216 13.2673C92.2392 13.5001 91.6181 13.6153 90.9583 13.6153C90.2527 13.6153 89.6195 13.4881 89.054 13.2337C88.4885 12.9793 88.0148 12.6433 87.6257 12.2233C87.2367 11.8057 86.937 11.3233 86.7267 10.7761C86.5165 10.2313 86.4102 9.66247 86.4102 9.06967C86.4102 8.47687 86.5165 7.91287 86.7267 7.34407C86.937 6.77527 87.2463 6.26887 87.6547 5.82247C88.0632 5.37607 88.5586 5.01607 89.1458 4.74487C89.7331 4.47127 90.4001 4.33447 91.1517 4.33447H91.1492ZM91.142 13.1377C91.7582 13.1113 92.2972 12.9721 92.7587 12.7225C93.2227 12.4729 93.6094 12.1537 93.9212 11.7673C94.2329 11.3809 94.4649 10.9561 94.6172 10.4905C94.7694 10.0273 94.8443 9.56647 94.8443 9.11287C94.8443 8.61367 94.7525 8.10727 94.5688 7.59847C94.3852 7.08967 94.1242 6.62647 93.7834 6.21367C93.4427 5.80087 93.0367 5.46247 92.5654 5.20327C92.0917 4.94407 91.5625 4.81447 90.9752 4.81447C90.388 4.81447 89.8974 4.93927 89.4479 5.18887C88.9984 5.43847 88.6142 5.76007 88.2976 6.15127C87.981 6.54247 87.7393 6.97927 87.575 7.46167C87.4107 7.94407 87.3261 8.41687 87.3261 8.88007C87.3261 9.38167 87.4227 9.88327 87.6161 10.3873C87.8094 10.8913 88.0752 11.3497 88.4136 11.7601C88.7543 12.1705 89.1555 12.5017 89.6195 12.7561C90.0835 13.0105 90.591 13.1377 91.142 13.1377Z" fill="white"/>
<path d="M102.474 13.3439H102.541C102.604 13.3439 102.665 13.3175 102.72 13.2623C102.776 13.2071 102.824 13.1447 102.865 13.0703C102.906 12.9983 102.935 12.9191 102.955 12.8303C102.974 12.7439 102.981 12.6647 102.981 12.5903V5.32791C102.981 5.26551 102.971 5.19111 102.955 5.10951C102.935 5.02791 102.906 4.94871 102.865 4.86951C102.824 4.79271 102.773 4.72791 102.713 4.67751C102.652 4.62711 102.587 4.60311 102.515 4.60311H102.447V4.46631H104.702C105.555 4.46631 106.219 4.65351 106.7 5.02551C107.181 5.39991 107.423 5.89431 107.423 6.51351C107.423 6.77751 107.377 7.01511 107.285 7.22391C107.193 7.43271 107.077 7.61991 106.935 7.78311C106.792 7.94631 106.64 8.08551 106.476 8.19831C106.311 8.31111 106.154 8.40471 106.009 8.47911C106.393 8.55111 106.715 8.67591 106.971 8.84871C107.227 9.02151 107.435 9.22071 107.592 9.44151C107.749 9.66471 107.86 9.90231 107.921 10.1591C107.984 10.4135 108.015 10.6631 108.015 10.9103C108.015 11.3831 107.928 11.7815 107.754 12.1055C107.58 12.4295 107.35 12.6935 107.063 12.8975C106.775 13.1015 106.447 13.2503 106.077 13.3415C105.707 13.4327 105.325 13.4783 104.931 13.4783H102.476V13.3415L102.474 13.3439ZM106.529 6.63591C106.502 6.10551 106.316 5.68551 105.973 5.37591C105.63 5.06631 105.168 4.91031 104.591 4.91031H103.904V8.36391H104.62C105.004 8.36391 105.318 8.31351 105.562 8.21271C105.804 8.11191 106 7.98231 106.147 7.82151C106.294 7.66071 106.393 7.48551 106.449 7.29351C106.505 7.10151 106.531 6.91431 106.531 6.73191V6.63591H106.529ZM107.092 11.0039C107.019 10.3007 106.78 9.75831 106.377 9.37431C105.973 8.99031 105.405 8.79831 104.673 8.79831H103.904V13.0439H104.702C105.444 13.0439 106.029 12.8783 106.454 12.5447C106.879 12.2111 107.092 11.7479 107.092 11.1551V11.0039Z" fill="white"/>
<path d="M107.143 17.7695H8.40015V18.1991H107.143V17.7695Z" fill="url(#paint0_linear_35_459)"/>
<path d="M107.143 -0.0959473H8.40015V0.333653H107.143V-0.0959473Z" fill="url(#paint1_linear_35_459)"/>
<path d="M2.46477 10.8336C2.37535 10.5 1.98869 9.41284 0.287354 9.09844V8.92084C0.734437 8.87044 2.03944 8.62324 2.46719 7.09204H2.57835L2.59769 10.836H2.46477V10.8336Z" fill="white"/>
<path d="M114.323 7.08956C114.412 7.42316 114.799 8.51036 116.5 8.82476V9.00236C116.053 9.05276 114.748 9.29996 114.32 10.8312H114.209L114.19 7.08716H114.323V7.08956Z" fill="white"/>
</g>
<defs>
<linearGradient id="paint0_linear_35_459" x1="8.40015" y1="17.9855" x2="107.143" y2="17.9855" gradientUnits="userSpaceOnUse">
<stop stop-color="#A58038"/>
<stop offset="0.25" stop-color="#A6813A"/>
<stop offset="0.36" stop-color="#AB8741"/>
<stop offset="0.44" stop-color="#B3914D"/>
<stop offset="0.5" stop-color="#BFA05F"/>
<stop offset="0.56" stop-color="#CFB276"/>
<stop offset="0.61" stop-color="#E2C992"/>
<stop offset="0.65" stop-color="#F8E3B2"/>
<stop offset="0.74" stop-color="#E1C890"/>
<stop offset="0.92" stop-color="#B69451"/>
<stop offset="1" stop-color="#A58038"/>
</linearGradient>
<linearGradient id="paint1_linear_35_459" x1="-13.9999" y1="0.120053" x2="-13.7583" y2="0.120053" gradientUnits="userSpaceOnUse">
<stop stop-color="#A58038"/>
<stop offset="0.25" stop-color="#A6813A"/>
<stop offset="0.36" stop-color="#AB8741"/>
<stop offset="0.44" stop-color="#B3914D"/>
<stop offset="0.5" stop-color="#BFA05F"/>
<stop offset="0.56" stop-color="#CFB276"/>
<stop offset="0.61" stop-color="#E2C992"/>
<stop offset="0.65" stop-color="#F8E3B2"/>
<stop offset="0.74" stop-color="#E1C890"/>
<stop offset="0.92" stop-color="#B69451"/>
<stop offset="1" stop-color="#A58038"/>
</linearGradient>
<clipPath id="clip0_35_459">
<rect width="117" height="18" fill="white"/>
</clipPath>
</defs>
</svg>
