<svg width="25" height="21" viewBox="0 0 25 21" fill="none" xmlns="http://www.w3.org/2000/svg">
<g clip-path="url(#clip0_0_92)">
<path d="M25.0001 1.99134C24.6666 4.26641 24.3019 6.96534 23.8709 9.65047C23.3892 12.6609 22.849 15.6615 22.3283 18.666C22.2834 18.9222 22.2152 19.1785 22.1352 19.4269C21.6418 20.9548 20.7057 21.3925 19.2918 20.6414C18.3771 20.1564 17.5483 19.5078 16.6843 18.9262C15.091 17.8517 13.4938 16.7872 11.916 15.693C10.4904 14.7033 10.4202 14.0153 11.6488 12.8048C13.7882 10.7013 15.9667 8.63517 18.1002 6.5257C18.3849 6.24378 18.5098 5.79429 18.7087 5.42366C18.305 5.53603 17.8408 5.5518 17.5073 5.77261C14.5488 7.73224 11.5942 9.69778 8.67864 11.7244C7.31933 12.6688 5.93077 12.9704 4.35888 12.4361C3.16144 12.0281 1.93865 11.6949 0.752907 11.2533C0.435019 11.135 0.0313215 10.7683 0.00206804 10.4785C-0.0271854 10.1985 0.319956 9.80227 0.596888 9.58344C0.945979 9.30744 1.38478 9.13789 1.80213 8.95849C8.06822 6.26941 14.3324 3.58034 20.6082 0.914927C21.4409 0.560064 22.3147 0.276173 23.1962 0.0711415C24.3994 -0.208806 24.9962 0.32546 25.0001 1.99134Z" fill="#A68039"/>
</g>
<defs>
<clipPath id="clip0_0_92">
<rect width="25" height="21" fill="white"/>
</clipPath>
</defs>
</svg>
