<svg width="22" height="19" viewBox="0 0 22 19" fill="none" xmlns="http://www.w3.org/2000/svg">
<g clip-path="url(#clip0_123_21414)">
<path d="M22.0002 1.80174C21.7067 3.86013 21.3858 6.30202 21.0065 8.73142C20.5826 11.4551 20.1072 14.1699 19.649 16.8883C19.6095 17.1202 19.5494 17.3521 19.4791 17.5768C19.0449 18.9592 18.2211 19.3552 16.9769 18.6756C16.172 18.2368 15.4426 17.6499 14.6823 17.1237C13.2802 16.1516 11.8746 15.1884 10.4862 14.1985C9.23163 13.3031 9.16984 12.6805 10.2511 11.5853C12.1337 9.68214 14.0507 7.81282 15.9283 5.90425C16.1788 5.64919 16.2887 5.2425 16.4637 4.90717C16.1085 5.00884 15.7 5.02311 15.4065 5.22288C12.803 6.99588 10.203 8.77423 7.63728 10.6079C6.44108 11.4623 5.21915 11.7352 3.83589 11.2518C2.78214 10.8826 1.70608 10.5811 0.662629 10.1816C0.382888 10.0746 0.0276337 9.74278 0.00189068 9.48058C-0.0238524 9.22729 0.281632 8.86877 0.525332 8.67078C0.832533 8.42106 1.21868 8.26766 1.58595 8.10534C7.1001 5.67237 12.6125 3.2394 18.1353 0.827837C18.8681 0.506771 19.637 0.249918 20.4127 0.0644126C21.4716 -0.188873 21.9967 0.29451 22.0002 1.80174Z" fill="url(#paint0_linear_123_21414)"/>
</g>
<defs>
<linearGradient id="paint0_linear_123_21414" x1="0.000365544" y1="9.50048" x2="21.6775" y2="9.50048" gradientUnits="userSpaceOnUse">
<stop stop-color="#B08D46"/>
<stop offset="0.359375" stop-color="#EAD29E"/>
<stop offset="0.885417" stop-color="#A7833B"/>
</linearGradient>
<clipPath id="clip0_123_21414">
<rect width="22" height="19" fill="white"/>
</clipPath>
</defs>
</svg>
