<svg width="27" height="17" viewBox="0 0 27 17" fill="none" xmlns="http://www.w3.org/2000/svg">
<g clip-path="url(#clip0_0_90)">
<path d="M0.00590165 0C1.49884 0 2.99178 0 4.51095 0C4.93663 4.79054 5.6024 9.42431 10.7853 11.8715C10.7853 7.78539 10.7853 3.93545 10.7853 0.0162874C12.2863 0.0162874 13.7066 0.0162874 15.2419 0.0162874C15.2419 2.23341 15.2419 4.42 15.2419 6.75114C18.7746 5.72503 20.441 3.14347 21.6454 0.00203593C23.0234 0.00203593 24.4538 0.00203593 26.0052 0.00203593C25.2729 3.65246 23.2614 6.34802 20.1989 8.46743C23.6064 10.4138 25.9407 13.1501 26.9998 17.002C25.3495 17.002 23.782 17.002 22.2144 17.002C20.3099 13.0157 18.3569 11.3198 15.2581 11.0368C15.2581 12.9974 15.2581 14.9539 15.2581 16.8982C6.08055 17.7757 -0.236197 10.538 0.00590165 0Z" fill="#A68039"/>
</g>
<defs>
<clipPath id="clip0_0_90">
<rect width="27" height="17" fill="white"/>
</clipPath>
</defs>
</svg>
