<svg width="24" height="15" viewBox="0 0 24 15" fill="none" xmlns="http://www.w3.org/2000/svg">
<g clip-path="url(#clip0_123_21412)">
<path d="M0.00512384 0C1.33218 0 2.65924 0 4.00961 0C4.388 4.22695 4.97979 8.31557 9.58683 10.4749C9.58683 6.86946 9.58683 3.47246 9.58683 0.0143713C10.9211 0.0143713 12.1836 0.0143713 13.5483 0.0143713C13.5483 1.97066 13.5483 3.9 13.5483 5.95689C16.6884 5.0515 18.1697 2.77365 19.2403 0.00179641C20.4651 0.00179641 21.7366 0.00179641 23.1156 0.00179641C22.4647 3.22275 20.6767 5.6012 17.9545 7.47126C20.9834 9.18862 23.0583 11.603 23.9997 15.0018C22.5328 15.0018 21.1394 15.0018 19.746 15.0018C18.0531 11.4844 16.3172 9.98802 13.5626 9.73832C13.5626 11.4683 13.5626 13.1946 13.5626 14.9102C5.40481 15.6844 -0.210075 9.2982 0.00512384 0Z" fill="url(#paint0_linear_123_21412)"/>
</g>
<defs>
<linearGradient id="paint0_linear_123_21412" x1="-0.00085522" y1="7.5009" x2="23.6477" y2="7.5009" gradientUnits="userSpaceOnUse">
<stop stop-color="#B08D46"/>
<stop offset="0.359375" stop-color="#EAD29E"/>
<stop offset="0.885417" stop-color="#A7833B"/>
</linearGradient>
<clipPath id="clip0_123_21412">
<rect width="24" height="15" fill="white"/>
</clipPath>
</defs>
</svg>
